<?xml version="1.0" encoding="UTF-8"?>
<svg id="Layer_1" xmlns="http://www.w3.org/2000/svg" version="1.1" viewBox="0 0 1024 1024">
  <!-- Generator: Adobe Illustrator 29.8.4, SVG Export Plug-In . SVG Version: 2.1.1 Build 6)  -->
  <defs>
    <style>
      .st0 {
        fill: #d0bd9e;
      }

      .st1 {
        fill: #dfb584;
      }

      .st2 {
        fill: #f6ecc9;
      }

      .st3 {
        fill: #8da284;
      }

      .st4 {
        fill: #93a184;
      }

      .st5 {
        fill: #d99977;
      }

      .st6 {
        fill: #f5c189;
      }

      .st7 {
        fill: #e8d4b3;
      }

      .st8 {
        fill: #f8cb95;
      }

      .st9 {
        fill: #f8ca96;
      }

      .st10 {
        fill: #dea397;
      }

      .st11 {
        fill: #e6b08f;
      }

      .st12 {
        fill: #8ba284;
      }

      .st13 {
        fill: #c88980;
      }
    </style>
  </defs>
  <path class="st6" d="M1024,809v215H248c-.28-1.5,1.83-3.2,2.86-3.87,27.07-17.42,60.96-35.04,89.14-48.13.45-.21,1.54.21,2,0,29.22-13.44,59.25-26.73,90.75-35.77,24.41-7,52.61-10.95,78.25-16.23.61-.13,1.4.13,2,0,39.91-8.52,75.66-21.83,110.26-44.02,10.07-6.46,19.66-15.35,29.74-21.98.88-.58,2.53-1.7,3-2,7.63-4.88,17.88-10.18,26-14,.68-.32,1.35-.7,2-1,18.4-8.44,37.21-14.34,56.76-18.74,8.13-1.83,16.94-3.37,25.24-4.26-.69,1.47-1.58,7.41-2.54,9.95-3.52,9.33-6.73,18.79-10.45,28.04h53c-.65.96-1.4,3.76-2.12,5.18-.39.77-1.67.89-1.84,1.53-1.26,4.76,1.3,2.6,3.2,3.33,2.24.86,2.2,1.19,6.02,2.2,5.93,1.57,24.82,7.84,29.25,7.84,2.72,0,9.78-3.22,13.05-4.02,8.98-2.21,18.76-3.73,27.71-6.27,1.54-.44,3.71-1.19,5.25-1.74,2.76-.98,1.24-1.68,1.49-4.03,2.97.34,6.88.03,10,0,10.36-.09,23.57-2.76,33-2,4.83.39,14.55,7.93,20.49,9.92l32.5-7.92c-.46-5.26-5.29-7.42-7.95-10.77-2.79-3.52-5.58-6.94-8.37-10.47-1.12-1.41-1.34-4.08-2.35-4.84-1.95-1.47-7.37.77-10.32.09-1.55-.36-19.05-19.97-22-23,3.84-3.3,6.59-1,10.46-.95,24.19.3,48.01.59,72.08,1.91,2.86.16,5.55,1.37,8.46,1.04Z"/>
  <path class="st7" d="M80,692c0,.18,1.05,1.56,1.07,3.38.24,18.86-.33,37.77-.07,56.62h51v92c-4.41,2.5-9.52,7.07-14,9H1.01c-.23,1.76,2.27.95,3.48,1,36.48,1.49,73.94-1.12,110.51,0l-13.48,9.02-20.51,43.98c6.82-.18,13.71.24,20.54.05,22.75-.65,45.58-1.04,68.46-1.04v118H0v-308c25.99-9.91,52.62-18.65,80-24Z"/>
  <rect class="st8" x="854" y="0" width="170" height="170"/>
  <rect class="st8" x="172" width="168" height="170"/>
  <path class="st9" d="M1024,172v168h-88c-5.47-.86-8.51-12.01-13.5-14.98-3.67,4.07-6.65,8.7-9.99,13.04-.72.94-2.14,1.46-2.51,1.94h-56v-168h170Z"/>
  <path class="st9" d="M0,171l170.01.99v168.01s-57.01,0-57.01,0c-3.79-5.01-7.39-10.21-11.5-14.98-4.16,3.14-8.64,14.22-13.5,14.98H0v-169ZM166,211v-20c0-.6-8.8,1.96-9.86-4.69-.6-3.74,7.37-4.83,9.86-3.31,2.23-14.85-12.34-7.68-20.45-6.96-5.12.46-12.72-.48-17.99-1.08-1.6-.19-3.39-1.75-4.07-1.7-.9.07-1.85,2.45-4.03,2.77-2.95.43-7.38-2.05-10.96-2.11-7.74-.14-17.22.18-24.99.28-6.75.09-14.61,1.18-21.51,1.31.92,7.93,14.19,5.89,15.09,7.09,2.93,3.9-2.39,4.79-2.86,5.59-2.97,5.07,7.06,1.02,5.77,4.29-1.45,3.68-7.93.7-7,6.97.41,2.78,8.12,5.57,10.49,5.64,3.21.08,4.62-2.65,7.09-3.07,3.17-.54,5.72,1.2,7.9.97,1.48-.16,2.6-1.76,4.12-2,5.21-.83,10.21,5.51,12.29,9.64,1.21,2.42.9,6.15,1.13,6.37.35.35,3.97-.35,5.3-.03,1.19.29,1.76,4.95,4.7,2.52.95-6.82-3.23-4.6-4.57-6.44-2.03-2.79,1.62-5.06,2.54-7.58,1.59-4.32-.38-12.63,4.97-14.06,1.67-.44,12.71.78,14.03,2.09.48.47,5.73,11.52,5.83,12.19.18,1.2-2.95,4.19-1.82,5.3,2.45,2.39,4.05-3.6,4.94-4.55,4.42-4.71,8.82,5.25,14.05,4.55ZM148.99,214.01c-.59-.6-3.99.88-5.33.7-.83-.12-4.99-3.14-6.61-.63-2.31,3.58,1.84,2.53,3.17,2.9s1.07,2.48,2.4,2.93c3.95,1.35,8.33-3.91,6.37-5.91ZM140.78,222.2c-.15-.26-4.54-3.12-5.07-3.05-1.94.27-7.38,3.98-7.74,6.4-.71,4.81,3.16,3.97,3.86,6.14.42,1.27-.22,3.22.33,4.14.74,1.25,8.79,3.79,10.83,2.16-1.54-2.99-1.35-14.26-2.22-15.79Z"/>
  <path class="st8" d="M852,0v170.01s-39,0-39,0c-8.86-42.69-52.08-74.91-95.49-71.99-5.78.39-29.12,5.31-33.51,7.99V0h168Z"/>
  <path class="st13" d="M132,682l-18,3c-.06-14.31.05-28.68-.01-42.99-3.41,1.28-3.81-1.87-5.42-2.09-2.89-.39-19.55-.46-21.87.11-.67.17-.69,1.49-1.03,1.63-2.17.87-4.8.56-5.73,3.8.25,15.51-.12,31.04.07,46.54-27.38,5.35-54.01,14.09-80,24v-167c23.96-2.37,47.81-9.8,70.83-16.7,2.11-.63,2.98-2.25,3.17-2.3,2.92-.83,8.2-.88,12-2,15.19-4.49,30.84-11.08,46-16-.79,56.62.21,113.37,0,170Z"/>
  <path class="st7" d="M860,410h164v101h-170.01c.04-33.65-.04-67.35,0-101h6Z"/>
  <path class="st7" d="M313,906c1,.05,2-.04,3,0,7.94.29,16.05.04,24,0v66c-28.18,13.09-62.07,30.71-89.14,48.13-1.03.66-3.14,2.37-2.86,3.87h-77v-118h24c-.38,2.41-.72,12.09,1.64,12.86,12.43-.68,26.72,1.39,38.91.19,5.91-.58,9.8-4.57,15.41-6.1.64-.94-2.19-5.85-2.96-6.95l55-1c3.5.36,6.25.82,10,1Z"/>
  <path class="st7" d="M38,410h134v78.5c1.14,6.1,7.97.09,10,4.5-15.82.95-32.45-.82-48.36.14-1.3.33-1.43,1.22-1.64,2.36-.77,4.14.07,11.78,0,16.5-15.16,4.92-30.81,11.51-46,16l1.01-61.01h-13.01v28.51c0,1.31-3.69,1.83-5,1.5v-21h-9v29h14.01c.06,1.99-.09,4.01,0,6H0v-101h38Z"/>
  <path class="st8" d="M674,0c.94,6.02-1.48,3.01-3.98,4.49-1.47.87-5.35,9.14-5.08,10.97.94,6.23,10.43,2.05,12.43,2.61,3.22.91.51,12.97.58,16.47.18,9.22,1.1,18.07,1.97,27.03,1,10.32-2.4,21.08-1.95,31.95.15,3.66,3.31,6.02,1.84,10.78-.64,2.06-6.55,4.31-8.82,5.17-2.01.77-6.74,1.27-6.99,1.52-.6.62,1.67,3.47.11,5.53-2.16,2.85-14.55,9.19-15.19,10.11-.99,1.43-.75,4.84-2.01,6.75-1.42,2.14-4.15,2.06-4.69,2.82-2.16,3.05-8.09,20.56-9.53,24.97-.33,1.01-2.35,6.16-2.62,6.38-2.2,1.77-5.38-1.33-5.14-4.05.29-3.32,6.87-1.92,5.07-7.49-12.02-3.51-6.1,6.51-8.16,9.82-.71,1.14-6.62.96-5.83,4.16h-5c.55-2.48-1.88-2.68-3.57-2.89-9.85-1.24-22.94,1-32.93.99-6.85,0-14.18-1.91-21.05-1.15-2.26.25-3.47.34-3.45,3.05-1.33,0-2.67,0-4,0-.79-6.13-7.01-1.65-9.46-1.47-6.34.48-12.47-2.32-18.88-1.48-3.12-.74-1.66-16.49-1.61-19.6.11-5.68.98-11,1.03-15.96.02-1.99-1.71-8.86-1.07-9.47.22-.21,5.74.44,4.99-2.51-4.47-2.15-4.34-5.51-4.99-10.02-1.57-10.92,1.36-16.79,1.69-25.77.24-6.45-4.06-14.64-1.46-21.99.57-1.61,2.33-2.15,2.75-4.25,1.01-5.11-1.56-13.26,3.04-17.95,4.77-4.86,5.53,3.13,5.98,3.46,2.05,1.49,3.94-3.99,4.57-4.05,9.05-.82,4.96,11.25,5.48,11.97.23.32,4.03.85,5.47,2.04.32.27,5.02,5.89,5.24,6.25,1.19,2-1.17,5.08-.34,6.79,1.17,2.37,5.21,1.65,6.13,2.93.85,1.2.56,10.57,3.5,14.5,1.51,2.02,3.4,1.18,4.88,2.12s1.26,3.5,3.55,3.51c2.49.01,2.68-3.69,4.49-4.58,1.61-.79,4.8-.29,5.02-.48.38-.35-.3-8.08.21-10.29.63-2.71,3.77-4.33,4.02-7.48,3.4.13,5.42-2.7,8.32-3.18,5.29-.87,11.93.43,17.7-.31,6.15-.78,18.17-6.45,22.31-6.73,2.49-.17,4.5,1.71,6.91,1.82,3.79.18,8-2.31,10.24-2.66,1.41-.22,2.39,2.2,4.55,1.7,3.77-.88,9.84-6.41,8.25-10.82-2.66-7.37-.98-4.64-1.42-11.57-.41-6.43-1.91-3.28-5.34-4.53-2.17-.79-7.92-5.51-12.28-5.93-1.78-.17-5.18,1.75-6.36.9-.54-.39-.88-3.75-1.11-3.93-.39-.29-7.31,3.44-7.78-2.66-.14-1.82,2.04-3.55,1.79-4.81-.36-1.86-5.85-1.52-7.85-2.17-2.37-.77-3.68-3-5.69-3.36-2.92-.52-5.49,1.13-7.75.82-1.79-.25-3.53-2.34-5.34-2.52-4.5-.46-11.57,3-10.38-6.29h85ZM672.01,46c1.38-1.28-1.8-7.07-4.53-7.06-3.6.95-9.89,11.03-3.13,10.88,2.52-.05,2.69-2.88,4.36-3.63,1.01-.45,3.12-.02,3.31-.2ZM524,60c-.15-.15-2.68-.1-3.34.16-3.37,1.32-2.68,7.78-2.65,10.84,2.72.92,1.5-1.73,2.71-2.01.99-.23,2.99.26,3.28.01.34-.29.32-8.69,0-9ZM670.96,95.98c.4-.28,3.1-8.86,2.96-9.33-.22-.72-5.43-4.66-6.23-4.53-.31.05-5.36,2.77-5.52,3.04-.24.39-1.22,8.75-1.08,9.19.86,2.87,3.75.8,5.42.84,1.28.03,3.82,1.23,4.46.79ZM597,92.01c-.35-.3-3.19.45-3.92-1.64-.82-2.34,1.91-5.65-.07-6.89-.63-.39-5.74.36-5.95.57-.43.43.23,4.84-.07,6.43-.38,1.94-2.24,2.53-1.97,4.52,3.44-1.08,7.08-.59,10.51-.99,1.4-.16,3-.68,1.48-1.99ZM543.99,90c-6-.01-.13,6.5-1.09,7.86-.4.57-4.22,1.41-4.81,3.85-.5,2.08,1.83,3.16,1.88,4.78.06,1.74-1.9,3.02-1.76,4.83.06.79,3.76,10.78,4.35,11.61,1.67,2.36,5.05,2.83,5.28,3.22.78,1.3-.74,5.14,1.1,6.41,4.87,3.37,2.9-6.41,3.22-9.08s2.29-3.22,1.76-7.87c-.62-5.52-5.58-10.1-5.79-11.24-.32-1.75,2.83-3.35,1.21-7.11-1.01-2.34-6.47-1.77-5.36-7.25ZM576,125c.42-.65,0-13.11,0-15.5,0-.29-4.01-3.17-4.75-3.32-5.24-1.1-10.8,10.14-10.03,14.22.51,2.7,12.79,7.74,14.78,4.6ZM642.99,130.99c.45-2.61-.82-4.99-1-7.5-.14-1.88,2.24-4.43-.62-5.39-6.65-2.23-6.21,13.99,1.61,12.89ZM577,130c-1.96.35-3.29.15-5.52.97-4.51,1.66-6.36,4.73-10.5,6.49-1.54,1.47-1.18,3.76-.55,5.6.46,1.36,10.8,7.73,12.11,7.95,6.21,1.05,5.96-3.3,10.45-5.01.17.17,1.99-.6,3.07.63,1.98,2.24,1.97,8.8,5.43,9.43,5.26.96,5.21-4.56,4.55-8.47-.11-.67-9.14-1.26-11.54-6.6-1-2.23.78-5.59-2.51-4.98-.03-.33.02-.67,0-1-.12-1.99.1-4.02,0-6-1.93-.59-3.57.74-5,1Z"/>
  <path class="st10" d="M1024,579v162c-41.56-3.71-82.94,4.92-124,10v-75h46c.46-1.83.9-3.53,1.05-5.45,1.79-22.73,1.69-61.78-.05-84.55,25.99,3.34,51.88-.43,77-7Z"/>
  <path class="st8" d="M361,0c.31,4.07,3.74,3.96,4,0h15c.18,4.19,4.82,4.19,5,0h9c-.55,3.13,2.61,2.97,2,0h18c-.55,3.13,2.61,2.97,2,0h45c-3.02,11.06-12.25,2.44-15.4,2.92-.8.12-.9,1.98-1.64,2.52-2.32,1.72-3.54,2.84-5.56,4.45-2.14,1.7-4.91-.02-2.42,3.63s8.65,3.87,5.06,9.79c-1.11,1.83-9.3,5.95-11.65,6.59-4.32,1.17-7.77.67-11.84,1.15-4.73.55-4.04,4.05-9.59-1.5-9.77-9.78-1.34-8.4-.15-12.22,2.5-8.02-2.42-6.11-5.37-8.25-1.31-.95-1.92-3.84-3.45-4.63-1.7-.88-3.52.51-5.39.47-1.24-.03-2.54-.9-4-.81-6.54.41-9.7,6.46-14.2,6.93-1.72.18-10.4-4.28-10.4-.52v35c0,2.56-12.57,1.17-15,1.49,1.06,4.84-2.32,10.64-.47,14.99.92,2.16,8.5,6.96,10.96,7.1,4.39.26,8.79-2.73,12.09-3.13,1.97-.24.86,2.26,2.89,2.16,2.16-.12,3.12-1.66,4.29-1.89,1.55-.3,2.99.8,4.52.57,2.14-.32,4.78-2.5,7.09-1.72,2.47.83,1.87,7.02,2.8,7.77,1.57,1.27,6.27-1.34,4.84,6.16l5.98-2.99c.81,2.84,1.87,6.6.09,9.34-.7,1.08-3.07,1.3-4.52,2.72-2.32,2.28-4.73,9.99-5.53,10.54-1.57,1.09-3.66-1.03-5.05-.18-.82.5-4.75,7.84-3.99,8.58,6.97-.95.78,6.87,1.13,9.25.16,1.08,1.47,2.26,1.66,3.47.38,2.44-.1,4.99.66,7.33,1.39,4.29,4.36,2.06,6.59,3.45.91.57.62,2.55,1.48,2.52,1.61-.05,4.52-3.39,7.48-2.03.32,1.94-.62,6.41-2.59,6.83-.28.06-7.41-1.92-4.4,1.15.61.62,12.64,1.16,14.54,3.97s-1.24,15.63,1.43,17.57c.91.66,2.88.43,4.03.97,2.4,1.13,4.27,3.53,7.37,2.4,2.36-.86,1.09-3.88,1.79-4.73,1.05-1.28,4.88,1.15,5.74-4.72,1.51-10.21,0-7.08-5.61-10.25-3.16-1.79-8.42-4.98-10.29-7.7v-16c0-.61-2.07-1.92-3-1.5.6,3.16-.8,4.43-3.48,1.98-2.28-2.08-3.7-9.42-1.29-11.75.35-.33,8.63-3.1,9.11-3.06,1.79.14,3.68,3.14,5.13,2.83,3.34-.71-1.34-6.86,2.13-7.94,2.75-.85,4.3,1.96,5.7,1.76.79-.12,10.86-4.47,11.75-5.27,1.21-1.09,5.41-7.79,5.75-9.26.44-1.91,1.76-8.37,1.91-9.92s-1.6-7.54-.71-8.37c.29-.27,3.44.47,5.02-.48,1.13-.67,1.93-4.42,5.29-6.72,6.02-4.11,8.2-1.24,11.74-2.22,1.42-.39,2.92-2.75,4.32-2.49.89.17,1.84,2.14,3.39,2.65,13.17,4.32,9.33-3.3,13.22-5.27,7.39-3.73,13.14,2.91,13.07,9.97-.03,2.52-3.09,6.17,1.95,6.55.01,1-.03,2,0,3l-.68.8.68,1.2c.02,1-.05,2.01,0,3-2.75-.82-5.98,7.36-6,8.52-.04,2.45,4.35,3.82,4.98,7,1.4,7.13-2.96,7.51-3.01,8.06-.29,3.12,2.1,12.22,2.07,15.95s-5.14,7.38,1.97,7.47c-.03,1.99.11,4.02,0,6-5.02.56-2.51,3.67-2,6,1.47,6.7,2.01,9.95,2,17-2.31-.71-2.58,1.29-2.05,3.46.27,1.11,1.52.33,2.05.54.98.41,1.91.9,3,1-.06,1.28.21,2.85,0,4-2.42,1.64-5.28-.16-7.24.23-.95.19-1.91,1.52-3.3,1.74-2.52.39-10.32-1.11-10.45,3.04-14.97.23-30.02-.05-45,0l-.51-4.01c-2.56.98-6.65.48-6.49,4.01-2.66,0-5.34,0-8,0,.56-3.22-1.63-1.71-3.5-1.95-3.31-.43-11.29-3.13-11.5,1.95-1.67,0-3.33,0-5,0-.09-.56.17-1.88,0-2-.42-.31-9.41-.25-10.38-.02-1.17.28-.54,1.09-.63,2.02-2.33,0-4.67,0-7,0,.94-3.41-4.91-1.76-8-2-1.87-6.03,5.32-16.16,3.92-21.37-.88-3.28-5.32-.02-7.29-.69-2.24-.76-1.1-3.62-1.82-4.73s-7.8-1.8-8.66-1.05c-.38.33-4.06,8.38-4.18,9.29-.22,1.68-.16,4.3.11,5.99.11.73,2.67,9.43,2.89,9.91.63,1.42,3.35.03,4.05,1.65-4.13-.02-11,1.06-15.46,1.05-2.75,0-8.79.49-10.87-.21-4.31-1.46-1.72-9.41-1.66-12.84.34-22.53,1.26-45.09,1.05-67.55-.04-4.63-1.71-8.98-1.07-13.99.34-2.68,2.04-4.55,2.07-6.94.05-3.39-2.83-6.4-2.91-8.98-.17-5.52,2.33-13.5,2.59-18.21.11-1.98-1.51-3.89-1.65-5.93-.32-4.66-.11-8.89.93-13.42l5.98,2c.27-1.03,1.84-5.77,2.1-5.95.93-.65,5.52,2.66,6.77-1.76,1.43-5.11-4.59-4.46-4.92-5.95-.54-2.38,1.48-5.74,1.07-8.34h4ZM382,94c.32.3,6.83.18,8.47,2.01,4.19-3.64-2.69-10.87-6.93-11.04-1.61.98-2.01,8.59-1.54,9.03ZM487.99,87.01c-1.74-1.74-5.1,1.6-1.48,2.99,2.12.81,1.77-2.69,1.48-2.99ZM352,91h-2.99c.25,2.18.63,4.73,2.99,3.99v-3.99ZM500.99,94.01h-1.99v2.99h1.99v-2.99ZM495.36,139.35c.58-.81,2.53-.65,2.61-2.75.07-1.94-2.08-8.2-3.97-9.1-5.27-2.52-6.66,1.03-9.76,2.24-1.6.63-4.23.25-5.62,1.16-.35.23-3.28,7.22-3.34,7.72-.15,1.35,1.61,13.58,2.18,14.41,2.94,4.24,5.93-2.06,6.82-2.73,6.97-5.2,5.45-3.06,11.07-10.95ZM469.91,133.92c1.8-1.18,1.07-6.31-2.9-4.92-.42,2.63-.32,7.04,2.9,4.92Z"/>
  <path class="st8" d="M509,0c.43,2.22-.6,12.21,0,13.01.12.16,1.44-.1,2,0v6c-2.97-.61-3.13,2.55,0,2v5c-2.98-.88-3.18,3.78,0,3v2c-3.03-.56-1.92,1.53-2,3.45-.5,12.48-1.14,25.09-1,37.55-5.04-.38-1.98-4.03-1.95-6.55.08-7.06-5.68-13.69-13.07-9.97-3.89,1.97-.05,9.58-13.22,5.27-1.56-.51-2.5-2.49-3.39-2.65-1.4-.26-2.89,2.1-4.32,2.49-3.54.98-5.72-1.89-11.74,2.22-3.36,2.29-4.16,6.04-5.29,6.72-1.58.94-4.73.21-5.02.48-.89.83.87,6.8.71,8.37s-1.48,8.01-1.91,9.92c-.33,1.47-4.54,8.16-5.75,9.26-.89.8-10.96,5.16-11.75,5.27-1.39.2-2.95-2.61-5.7-1.76-3.48,1.08,1.21,7.23-2.13,7.94-1.45.31-3.34-2.7-5.13-2.83-.48-.04-8.77,2.73-9.11,3.06-2.4,2.33-.99,9.66,1.29,11.75,2.68,2.45,4.08,1.18,3.48-1.98.93-.42,3,.89,3,1.5v16c1.88,2.72,7.13,5.91,10.29,7.7,5.6,3.16,7.12.03,5.61,10.25-.87,5.87-4.69,3.44-5.74,4.72-.7.85.57,3.88-1.79,4.73-3.1,1.12-4.97-1.27-7.37-2.4-1.15-.54-3.12-.32-4.03-.97-2.68-1.94.53-14.66-1.43-17.57s-13.93-3.35-14.54-3.97c-3-3.07,4.12-1.09,4.4-1.15,1.97-.42,2.9-4.89,2.59-6.83-2.96-1.36-5.87,1.98-7.48,2.03-.87.03-.57-1.95-1.48-2.52-2.23-1.39-5.2.83-6.59-3.45-.76-2.34-.28-4.89-.66-7.33-.19-1.21-1.5-2.39-1.66-3.47-.35-2.39,5.83-10.2-1.13-9.25-.76-.74,3.17-8.08,3.99-8.58,1.39-.86,3.48,1.26,5.05.18.79-.55,3.2-8.25,5.53-10.54,1.44-1.42,3.81-1.64,4.52-2.72,1.78-2.73.72-6.5-.09-9.34l-5.98,2.99c1.44-7.5-3.26-4.89-4.84-6.16-.93-.74-.33-6.94-2.8-7.77-2.32-.78-4.95,1.41-7.09,1.72-1.53.23-2.97-.88-4.52-.57-1.17.23-2.12,1.78-4.29,1.89-2.03.11-.92-2.39-2.89-2.16-3.3.4-7.7,3.39-12.09,3.13-2.46-.14-10.05-4.95-10.96-7.1-1.85-4.35,1.53-10.15.47-14.99,2.44-.33,15,1.07,15-1.49V10.5c0-3.76,8.68.7,10.4.52,4.5-.47,7.66-6.52,14.2-6.93,1.46-.09,2.76.78,4,.81,1.87.04,3.69-1.35,5.39-.47,1.53.79,2.14,3.68,3.45,4.63,2.96,2.14,7.87.23,5.37,8.25-1.19,3.82-9.62,2.44.15,12.22,5.55,5.56,4.86,2.06,9.59,1.5,4.07-.48,7.52.02,11.84-1.15,2.36-.64,10.54-4.77,11.65-6.59,3.59-5.91-2.61-6.2-5.06-9.79s.28-1.92,2.42-3.63c2.02-1.61,3.24-2.73,5.56-4.45.74-.54.84-2.4,1.64-2.52,3.15-.48,12.37,8.15,15.4-2.92h48Z"/>
  <path class="st7" d="M1024,513v66c-25.12,6.57-51.01,10.34-77,7-.06-.85-.03-1.73-1-2,.22-.24-.19-1.46,0-2,1.86-5.22.72-10.43,1-16h-31c-.03,4.65.05,9.35,0,14l-16-4c-.03-18.65.02-37.35,0-56.01l-36.01,1.01c-1.93-.18-4.11.24-6,0-.63-.08-2.41-1.79-4-1v-7.01s170,0,170,0Z"/>
  <path class="st9" d="M589,0c-1.19,9.29,5.88,5.82,10.38,6.29,1.8.19,3.55,2.28,5.34,2.52,2.25.31,4.83-1.34,7.75-.82,2.01.36,3.32,2.59,5.69,3.36,2.01.65,7.49.31,7.85,2.17.24,1.26-1.93,2.99-1.79,4.81.47,6.1,7.39,2.37,7.78,2.66.23.17.57,3.54,1.11,3.93,1.19.85,4.59-1.07,6.36-.9,4.36.42,10.12,5.14,12.28,5.93,3.42,1.25,4.93-1.9,5.34,4.53.44,6.93-1.24,4.2,1.42,11.57,1.59,4.41-4.48,9.94-8.25,10.82-2.16.5-3.15-1.92-4.55-1.7-2.24.35-6.45,2.84-10.24,2.66-2.41-.11-4.42-1.99-6.91-1.82-4.14.28-16.16,5.95-22.31,6.73-5.77.73-12.41-.57-17.7.31-2.91.48-4.92,3.31-8.32,3.18-.25,3.15-3.39,4.77-4.02,7.48-.51,2.21.17,9.94-.21,10.29-.21.2-3.4-.31-5.02.48-1.81.89-2,4.59-4.49,4.58-2.29-.01-2.12-2.6-3.55-3.51s-3.37-.1-4.88-2.12c-2.94-3.93-2.65-13.29-3.5-14.5-.91-1.29-4.96-.56-6.13-2.93-.84-1.71,1.53-4.79.34-6.79-.21-.36-4.91-5.98-5.24-6.25-1.44-1.19-5.24-1.72-5.47-2.04-.52-.72,3.57-12.79-5.48-11.97-.64.06-2.53,5.54-4.57,4.05-.46-.33-1.22-8.32-5.98-3.46-4.6,4.69-2.03,12.84-3.04,17.95-.41,2.09-2.18,2.64-2.75,4.25-2.6,7.35,1.7,15.53,1.46,21.99-.33,8.98-3.26,14.85-1.69,25.77.65,4.52.52,7.87,4.99,10.02.75,2.95-4.77,2.3-4.99,2.51-.64.62,1.09,7.49,1.07,9.47-.06,4.96-.93,10.28-1.03,15.96-.06,3.11-1.52,18.85,1.61,19.6,6.41-.84,12.54,1.97,18.88,1.48,2.45-.19,8.67-4.66,9.46,1.47-10.99-.05-22.02.04-33.01,0V0h76.01Z"/>
  <path class="st8" d="M151,0c1.08,9.66-8.55,5.49-8.99,5.99-.13.15.13,2.68-.51,3.99-1.72,3.56-12.86,4.34-16.49,3.02,2.93,6.78,2.02,12.48-6.52,13.06-9.51.64-6.39-8.17-9.08-9.02-5.18-1.63-7.88,8.31-10.08,8.87-1.06-.45-7.06-2.64-7.31-2.94-2.29-2.69,1.93-2.7,2.66-3.24.69-.51.66-1.93,2.01-2.51,3.22-1.4,14.66-1.28,15.33-1.68,2.26-1.35.49-4.69-1.71-5.33-.63-.19-11.01-1.15-11.85-1.1-1.51.09-2.52,1.73-3.99,1.86-11.16.95-20.8-4.1-31.97-4.06-5.37.02-8.96,3.99-7.27,9.41.43,1.37,2.19,2.06,2.61,3.4,1.69,5.32-3.24,4.8-4.39,8.23-.87,2.62-.62,13.38-3.01,13.96-1.05.26-4.17-1.68-5.36-.84-.55.39-.73,4.64-1.6,5.91-1.61,2.37-4.67.22-5.23,5.79s5.18,7.59,6.76,15.24c-4.38-.74-1.17,5.91-1,8,.07.85.14,2.23,0,3-.74,4.05-7.32,3.97-2,11-.8.3-3.02,2.21-2.96,3.41.97,7.73,3.06,18.41.76,25.9-.24.79-5.91,5.63-6.86,6.17-1.23.7-3.65.33-3.9.57-.69.66.08,14.55-1.05,18.95-1.71,6.66-3.4,2.69-4.87,4.13-.24.24-2.08,6.12-2.12,6.46-.43,3.06,1.78,5.23,1.79,7.09.02,1.74-3.16,4.14-.8,7.32h-5l1.99-11c-12.88,4.27-5.65-6.75-6.99-8-12.59,1.21-1.72-10.06-2.14-12.36-.62-3.41-7.36-1.95-7.81-4.21-.07-3.54,3.98-5.76,4.02-8.89.06-4.63-4.89-10.53-2.37-15.91l-3.71-6.63V0h151ZM9.99,110.01h-2.99s0,3.99,0,3.99h1.48c1.57-1.06,1.74-2.15,1.51-3.99Z"/>
  <path class="st7" d="M1024,741v68c-2.91.33-5.6-.88-8.46-1.04-24.07-1.32-47.89-1.61-72.08-1.91-3.87-.05-6.62-2.34-10.46.95-3.2-3.28-13.44-15.62-17-16-2.4-.26-12.86,2.24-16,3v-43c41.06-5.08,82.44-13.71,124-10Z"/>
  <path class="st9" d="M156,0c-.99,4.58,4.05,4.4,3,0h11l.08,104.57c-4.57,4.5-.27,3.65,0,5.87.65,5.22-1.14,10.64-1.08,15.07.05,3.79,1.02,8.01,1,12.5-3.8,1.09-3.69-2.95-3.99-5.51-1.76-14.86,1.97-28.91.78-41.99-.22-2.38-3.25-13.93-2.79-14.51.58-.71,1.92,2.05,2-3,.04-2.41-.82-4.04-1-6,3.06.55,1.98-1.55,1.95-3.47-.02-2.08-.14-4.02-.13-6.14,0-1.89,1.4-3.9-1.82-3.38.3-1.29.57-2.78,1-4,.77-2.18,3.85-4.55,0-4,.14-1.52-.32-6.53,0-7,.06-.09,1.9.37,2.07-.63.6-3.51-3.99-14.39-2.07-19.37-5.09.19-1.64,4.36-2.14,7.26-.54,3.1-3.45,3.26-4.2,4.98-.87,2.01-.45,3.84-.66,5.76-.43,3.79.23,6.13.02,8.49-.17,1.96-2.27,2.62-2.82,4.23-.44,1.26-.01,4.09-.2,4.29-.31.33-3.77.16-4.56-.98-.91-1.32,1.03-3.63.56-4.02-1.3-1.08-15.43-.76-18.39-1.12-2.65-.32-7.72-2.81-8.96-2.69-.54.05-8.22,2.36-10.1,2.86-2.67.7-7.9,3.3-10.31,3.72-3.62.63-8.95-1.83-14.5.47-2.49,1.03-2.45,3.71-3.39,3.85-7.36,1.06-1.49-8.05-7.8-6.15-.88.26-.39,2.45-1.57,3.52-5.75,5.23-12.99,3.6-19.54,10.49-3.04,3.2-1.94,5.01-3.39,7.36-.61.98-2.53,1.1-3,2.23-1.2,2.89,1.51,2.37,2.42,3.42,1.32,1.52,5.8,5.66,6.02,6.03,1.3,2.16-.54,5.79,1.48,7.51,5.67,4.82,9.88-4.73,12.01-2.5.03,2.52-.47,7.19,1.47,9.03,4.79,4.52,6.03-4.35,6.53,10.97-1.84.52-2.17,2.26-2,4-1.46,1.26,2.1,1.21-4,2-5.11.66-14.01,1.32-18.41,4.09-2.09,1.32-4.51,8.51-6.1,8.91-2.16.55-2.23-2.81-2.51-2.99-2.78-1.87-3.5,4.09-.98,5.99l-9.43,15.06c-2.96,2.19-6.38.16-9.57-.06,1.13-4.4.36-18.3,1.05-18.95.25-.24,2.66.13,3.9-.57.95-.54,6.62-5.38,6.86-6.17,2.3-7.48.21-18.16-.76-25.9-.07-1.2,2.16-3.11,2.96-3.41,1.47-.55,6.11.26,6.89-2.65.66-2.47-.91-9.26-4.89-8.35.14-.77.07-2.15,0-3,3.01,1.5,1.5-5.58,1-8-1.58-7.64-7.34-9.5-6.76-15.24s3.62-3.42,5.23-5.79c.86-1.27,1.05-5.53,1.6-5.91,1.19-.84,4.3,1.1,5.36.84,2.39-.58,2.13-11.34,3.01-13.96,1.14-3.43,6.08-2.91,4.39-8.23-.43-1.34-2.19-2.03-2.61-3.4-1.69-5.42,1.9-9.39,7.27-9.41,11.17-.03,20.81,5.01,31.97,4.06,1.47-.12,2.49-1.77,3.99-1.86.85-.05,11.22.92,11.85,1.1,2.2.64,3.97,3.98,1.71,5.33-.67.4-12.11.27-15.33,1.68-1.34.58-1.32,2-2.01,2.51-.73.55-4.95.56-2.66,3.24.26.3,6.25,2.49,7.31,2.94,2.21-.56,4.9-10.5,10.08-8.87,2.7.85-.42,9.66,9.08,9.02,8.54-.57,9.45-6.28,6.52-13.06,3.63,1.33,14.77.54,16.49-3.02.64-1.31.38-3.84.51-3.99.44-.51,10.08,3.66,8.99-5.99h5ZM111.99,42.99c.18-4.2-6.17-4.2-5.99,0h5.99ZM72.99,44.01c-1.09-1.09-3.08.9-1.99,1.99s3.08-.9,1.99-1.99Z"/>
  <path class="st1" d="M172,0v170h168V0h2c.33,51.64-.44,103.36,0,155,.04,4.99-.03,10.02,0,15,16.63-.16,33.34-.05,50,0,2.33,0,4.67,0,7,0,3.66,0,7.34,0,11,0,1.67,0,3.33,0,5,0,4.99,0,10.01,0,15,0,2.66,0,5.34,0,8,0,2.33,0,4.67,0,7,0,14.98-.05,30.03.23,45,0,6.17-.09,19.64,2.59,21-5,.21-1.15-.06-2.72,0-4,.9-17.84-.06-36.99,0-55,0-2,0-4,0-6s0-4,0-6c0-.67,0-1.33,0-2,.05-20.32,0-40.68,0-61V0h2v170.01c10.98.03,22.01-.06,33,0,1.33,0,2.67,0,4,0,20.32.08,40.68,0,61,0h22c-.21.96-.93,4.35-1,5l-2.45-3h-117.05c-1.4.17.5,1.27.5,1.5v166.5h169v-68c2.84,1.46,1.85,1.91,2,2v66h168v-168h-39c-.11-.63.12-1.4,0-2h39.01s0-170,0-170h2v170.01s170,0,170,0v2h-170v168h56c-.27.35-.44,1.26-1,2h-55.01c-.01,22.65.03,45.35,0,68h-2c-.03-22.65.02-45.35,0-68h-168c-.02,22.65.03,45.35,0,68h-2c-.03-22.65.02-45.35,0-68h-169c-.02,22.65.03,45.35,0,68h-2c-.03-22.65.02-45.35,0-68h-169v68h-2v-68h-169v68h-1v-68.01s-55,0-55,0c-2.74.57-1.71-1.62-2-2h57.01s0-168.01,0-168.01l-170.01-.99v-1h22c48.44,0,96.92-.05,145.37.06,3.83-1.06,2.61-27.14,2.63-32.06.02-4.49-.95-8.71-1-12.5-.06-4.43,1.72-9.84,1.08-15.07-.27-2.22-4.57-1.37,0-5.87l-.08-104.57h2ZM340,171l-168.51,1-.49,168h169v-169ZM511,172h-169v168h169v-168Z"/>
  <polygon class="st8" points="88 342 38 410 0 410 0 342 88 342"/>
  <polygon class="st9" points="1024 342 1024 410 986 410 936 342 1024 342"/>
  <path class="st7" d="M74,513c.12,5.65-.09,11.35,0,17-.19.05-1.06,1.67-3.17,2.3-23.02,6.9-46.87,14.33-70.83,16.7v-36h74Z"/>
  <path class="st0" d="M684,410c-.04,33.65.03,67.35,0,101h168c-.03-33.65.04-67.35,0-101h2c-.04,33.65.04,67.35,0,101.01h170.01s0,1.99,0,1.99h-170.01s0,7,0,7h-1c-.15-1.44-2.01-4.44-1-7.01l-167.42-.02c-1.24.2-.35,2.18-.58,3.03-.39,1.42-1.1.77-2,1-.43-1.54,1.38-3.82-1.47-4.01-11.55-.78-23.9.6-35.53,0v-2h37.01c-.04-33.65.04-67.35,0-101h2Z"/>
  <path class="st9" d="M682,0v108c-24,12.37-43.02,35.35-49,62h-17c-.79-3.2,5.12-3.02,5.83-4.16,2.06-3.31-3.86-13.33,8.16-9.82,1.79,5.57-4.78,4.17-5.07,7.49-.24,2.73,2.95,5.82,5.14,4.05.27-.22,2.29-5.37,2.62-6.38,1.44-4.41,7.37-21.92,9.53-24.97.54-.76,3.27-.68,4.69-2.82,1.26-1.91,1.02-5.32,2.01-6.75.64-.92,13.03-7.26,15.19-10.11,1.56-2.06-.71-4.91-.11-5.53.25-.26,4.98-.76,6.99-1.52,2.27-.86,8.19-3.11,8.82-5.17,1.47-4.75-1.69-7.12-1.84-10.78-.45-10.87,2.95-21.63,1.95-31.95-.87-8.96-1.79-17.81-1.97-27.03-.07-3.51,2.64-15.56-.58-16.47-2-.57-11.5,3.61-12.43-2.61-.28-1.84,3.61-10.1,5.08-10.97,2.5-1.48,4.92,1.53,3.98-4.49h8Z"/>
  <path class="st8" d="M357,0c.4,2.61-1.61,5.97-1.07,8.34.34,1.48,6.36.84,4.92,5.95-1.24,4.42-5.84,1.11-6.77,1.76-.26.18-1.83,4.92-2.1,5.95l-5.98-2c-1.05,4.52-1.25,8.76-.93,13.42.14,2.04,1.75,3.95,1.65,5.93-.26,4.71-2.75,12.68-2.59,18.21.08,2.58,2.96,5.58,2.91,8.98-.04,2.39-1.73,4.26-2.07,6.94-.63,5.01,1.03,9.35,1.07,13.99.21,22.46-.7,45.02-1.05,67.55h-3c-.44-51.64.33-103.36,0-155h15Z"/>
  <path class="st8" d="M0,103l3.71,6.63c-2.52,5.39,2.43,11.29,2.37,15.91-.04,3.13-4.09,5.35-4.02,8.89.45,2.26,7.19.81,7.81,4.21.42,2.3-10.45,13.58,2.14,12.36,1.34,1.25-5.89,12.27,6.99,8l-1.99,11H0v-67Z"/>
  <path class="st1" d="M684,0v106c-.15.09.84.54-2,2V0h2Z"/>
  <polygon class="st1" points="1024 340 1024 342 936 342 933.99 341.5 936 340 1024 340"/>
  <rect class="st1" y="340" width="88" height="2"/>
  <path class="st0" d="M74,511c.03.66-.01,1.33,0,2H0v-2h74Z"/>
  <rect class="st0" x="170" y="906" width="1" height="118"/>
  <path class="st9" d="M511,0v13c-.56-.09-1.88.17-2,0-.6-.8.42-10.78,0-13.01h2Z"/>
  <path class="st8" d="M385,0c-.18,4.19-4.82,4.19-5,0h5Z"/>
  <path class="st8" d="M365,0c-.26,3.96-3.69,4.07-4,0h4Z"/>
  <path class="st8" d="M159,0c1.05,4.4-3.99,4.58-3,0h3Z"/>
  <path class="st8" d="M396,0c.61,2.97-2.55,3.13-2,0h2Z"/>
  <path class="st8" d="M416,0c.61,2.97-2.55,3.13-2,0h2Z"/>
  <path class="st7" d="M342,858l1.47-4.01h167.54s0,66.01,0,66.01c-25.65,5.29-53.85,9.23-78.25,16.23-31.49,9.03-61.52,22.33-90.75,35.77v-66c9.32-.03,18.68.03,28,0,.93-.95-7.07-22.65-8.28-25.26-.57-1.24-1.63-1.55-1.73-1.73-3.92-7.26-11.89-15.16-18-21Z"/>
  <path class="st7" d="M682,789v49c-8.12,3.82-18.37,9.12-26,14h-143.01s0-79,0-79c54.2,11.38,113.65,19.16,169,16Z"/>
  <path class="st7" d="M853,761c.02,14.98-.02,30.02,0,45-5.02.96-9.89,2.58-15,3l-39.52-18.08c-1.22-.17-2.06.57-3.06,1.01-3.54,1.54-28.23,19.52-29.42,22.07-8.3.9-17.1,2.44-25.24,4.26-19.55,4.39-38.36,10.3-56.76,18.74v-48c57.16-3.7,112.99-17.26,169-28Z"/>
  <path class="st7" d="M653,854c-10.08,6.63-19.66,15.52-29.74,21.98-34.6,22.19-70.35,35.5-110.26,44.02v-66.01s140,0,140,0Z"/>
  <path class="st10" d="M838,809c-.81,7.94-5.11,15.79-8.51,22.99-.48,1.02-2.5,3.41-.49,4.01-3.96.97-8.94,3.3-13.3,3.95-2.99,3.46-5.11,7.6-7.68,11.35-.61.89-1.96.61-2.02.7h-53c3.72-9.25,6.93-18.72,10.45-28.05.96-2.55,1.86-8.48,2.54-9.95,1.19-2.55,25.89-20.53,29.42-22.07.99-.43,1.84-1.17,3.06-1.01l39.52,18.08Z"/>
  <path class="st5" d="M916,791l-18,65c-3.12.03-7.03.34-10,0-1.26-.15-2.5.13-3.52-.94l-28.2-23.9c-2.95-.86-17.82,3.61-22.07,4.58-1.81.42-3.93-.06-5.21.26-2.01-.61,0-2.99.49-4.01,3.4-7.19,7.7-15.05,8.51-22.99,5.11-.42,9.98-2.04,15-3,16.16-3.09,30.75-8.05,47-12,3.14-.76,13.6-3.26,16-3Z"/>
  <path class="st7" d="M888,856c-.25,2.35,1.27,3.05-1.49,4.03-1.55.55-3.72,1.31-5.25,1.74-8.95,2.55-18.72,4.07-27.71,6.27-3.27.8-10.33,4.02-13.05,4.02-4.42,0-23.32-6.27-29.25-7.84-3.82-1.01-3.78-1.34-6.02-2.2-1.9-.73-4.45,1.43-3.2-3.33.17-.63,1.45-.76,1.84-1.53.72-1.42,1.48-4.22,2.12-5.17.06-.09,1.41.2,2.02-.7,2.57-3.76,4.69-7.89,7.68-11.35,4.36-.64,9.34-2.98,13.3-3.95,1.28-.31,3.4.16,5.21-.26,4.24-.98,19.12-5.44,22.07-4.58l28.2,23.9c1.03,1.07,2.26.79,3.52.94Z"/>
  <path class="st13" d="M933,807c2.95,3.03,20.45,22.64,22,23,1.1,2.04,2.2,1.88-.4,3.08-10.52,4.87-23.12,6.95-23.6,20.92-9.43-.76-22.64,1.91-33,2l18-65c3.56.38,13.8,12.72,17,16Z"/>
  <path class="st0" d="M344,719c-3.02-.56-1.94,1.53-2,3.45-1.44,43.08,1.08,86.45,0,129.55h169v-80c.91.2,1.66.93,2,1v79.01s143,0,143,0c-.47.3-2.12,1.42-3,2h-140.01s0,66,0,66c-.6.13-1.39-.13-2,0v-66.01s-167.53,0-167.53,0l-1.47,4.01c-1.56-1.49-4.92-5.05-6-6l4.01-1.47.99-132.53c.82.32,1.85.55,3,1Z"/>
  <path class="st7" d="M955,830c2.95.69,8.38-1.55,10.32-.09,1.01.76,1.24,3.43,2.35,4.84,2.79,3.53,5.58,6.95,8.37,10.47s7.48,5.51,7.95,10.77l-32.5,7.92c-5.94-1.99-15.66-9.53-20.49-9.92.48-13.96,13.08-16.04,23.6-20.92,2.6-1.21,1.5-1.05.4-3.08Z"/>
  <path class="st0" d="M342,906v66c-.46.21-1.55-.21-2,0v-66c.67,0,1.33,0,2,0Z"/>
  <path class="st0" d="M684,789v48c-.65.3-1.32.68-2,1v-49c.9-.05,1.6.03,2,0Z"/>
  <path class="st3" d="M182,493c.33-.02.67.02,1,0l1,2v131h16v-68h34v100c-10.79,1.06-24.11-1.4-34.57-.08-1.91.24-.95,1.92-2.87,2.16-2.03.26-12.13-.53-12.57-.08-.18,6.31.27,12.71,0,19.01,0,.18-1.02,1.6-1.07,3.38-1.34,41.78,1.15,83.83.07,125.62-5.9,4.42-14.01,14.04-21,19-8.82,6.26-20.51,11.61-30,17v-92h-51c-.26-18.85.31-37.76.07-56.62-.02-1.82-1.07-3.2-1.07-3.38-.18-15.5.19-31.03-.07-46.54.93-3.24,3.57-2.93,5.73-3.8.35-.14.36-1.46,1.03-1.63,2.32-.57,18.97-.5,21.87-.11,1.61.22,2.01,3.37,5.42,2.09.06,14.31-.05,28.68.01,42.99.05,11.65-.04,23.35,0,35h18c.03-12.65-.05-25.35,0-38,.21-56.63-.79-113.38,0-170,.07-4.72-.77-12.36,0-16.5.21-1.14.34-2.02,1.64-2.36,15.91-.96,32.54.81,48.36-.14Z"/>
  <path class="st10" d="M211,866l6,24c-1.96-.51-5.12-1.36-6.97-.52s-14.72,14.56-15.03,16.52h-25c-22.88,0-45.71.39-68.46,1.04-6.83.19-13.71-.22-20.54-.05l20.51-43.98,13.48-9.02c1.55.56,2.24-.67,3-1,4.48-1.93,9.59-6.5,14-9,9.49-5.39,21.18-10.74,30-17,15.68,13.55,32.32,26.55,49,39Z"/>
  <path class="st0" d="M118,853c-.76.33-1.45,1.56-3,1-36.57-1.12-74.03,1.49-110.51,0-1.21-.05-3.72.76-3.48-.99h116.99Z"/>
  <path class="st11" d="M936,340l-2.01,1.5,2.01.5,50,68h-126c1.09-4.54,5.31-9.48,8.17-13.33,13.52-18.24,27.14-36.57,40.83-54.67.56-.74.73-1.65,1-2,.37-.48,1.79-1,2.51-1.94,3.33-4.34,6.31-8.97,9.99-13.04,4.99,2.97,8.03,14.13,13.5,14.98Z"/>
  <path class="st11" d="M113,340c.29.38-.74,2.57,2,2l50,68H38l50-68v-2c4.86-.76,9.34-11.84,13.5-14.98,4.11,4.78,7.71,9.97,11.5,14.98Z"/>
  <path class="st8" d="M166,211c-5.23.7-9.63-9.26-14.05-4.55-.89.95-2.5,6.94-4.94,4.55-1.13-1.11,1.99-4.1,1.82-5.3-.1-.67-5.35-11.71-5.83-12.19-1.32-1.31-12.37-2.53-14.03-2.09-5.36,1.43-3.39,9.74-4.97,14.06-.93,2.52-4.57,4.79-2.54,7.58,1.34,1.84,5.51-.39,4.57,6.44-2.94,2.43-3.51-2.23-4.7-2.52-1.33-.32-4.95.38-5.3.03-.23-.23.08-3.95-1.13-6.37-2.07-4.13-7.08-10.47-12.29-9.64-1.52.24-2.64,1.84-4.12,2-2.17.23-4.73-1.51-7.9-.97-2.46.42-3.87,3.15-7.09,3.07-2.36-.06-10.08-2.85-10.49-5.64-.93-6.26,5.55-3.29,7-6.97,1.29-3.27-8.74.77-5.77-4.29.47-.81,5.79-1.69,2.86-5.59-.9-1.2-14.17.84-15.09-7.09,6.9-.13,14.76-1.23,21.51-1.31,7.77-.1,17.25-.41,24.99-.28,3.58.06,8.01,2.54,10.96,2.11,2.18-.32,3.13-2.7,4.03-2.77.67-.05,2.47,1.51,4.07,1.7,5.27.61,12.87,1.54,17.99,1.08,8.11-.72,22.68-7.89,20.45,6.96-2.49-1.52-10.46-.42-9.86,3.31,1.07,6.65,9.86,4.09,9.86,4.69v20Z"/>
  <path class="st8" d="M140.78,222.2c.87,1.53.67,12.79,2.22,15.79-2.04,1.63-10.09-.91-10.83-2.16-.55-.92.09-2.87-.33-4.14-.71-2.16-4.57-1.33-3.86-6.14.36-2.42,5.8-6.13,7.74-6.4.53-.07,4.92,2.79,5.07,3.05Z"/>
  <path class="st8" d="M148.99,214.01c1.96,1.99-2.42,7.26-6.37,5.91-1.32-.45-1.1-2.57-2.4-2.93s-5.48.68-3.17-2.9c1.62-2.51,5.78.51,6.61.63,1.34.19,4.74-1.3,5.33-.7Z"/>
  <path class="st2" d="M813,170c.12.6-.11,1.37,0,2,10.96,65.09-43.74,121.62-109.22,107.72-2.27-.48-18.84-5.15-19.78-5.72-.15-.09.84-.54-2-2-36.74-18.89-54.43-56.14-50-97,.07-.65.79-4.04,1-5,5.98-26.65,25-49.63,49-62,2.84-1.46,1.85-1.91,2-2,4.39-2.68,27.73-7.6,33.51-7.99,43.41-2.93,86.63,29.3,95.49,71.99Z"/>
  <path class="st4" d="M74,511c-.08-1.99.07-4.01,0-6.01h-14.01s0-28.99,0-28.99h9v21c1.31.33,5-.19,5-1.5v-28.5h13.01s-1.01,61-1.01,61c-3.8,1.12-9.08,1.17-12,2-.09-5.65.12-11.35,0-17-.01-.67.03-1.34,0-2Z"/>
  <path class="st7" d="M132,682c-.05,12.65.03,25.35,0,38h-18c-.04-11.65.05-23.35,0-35l18-3Z"/>
  <path class="st8" d="M909,342c-13.69,18.1-27.32,36.43-40.83,54.67-2.86,3.86-7.07,8.79-8.17,13.33h-6c.03-22.65-.02-45.35,0-68.01h55.01Z"/>
  <path class="st6" d="M270,814c.1.11,1.35-.33,1.76.23.54.75-.02,2.37.57,3.44,6.22,11.17,12.79,23.02,18.67,35.33.18.37.84.67,1,1,1.34,2.8,2.83,6.43,4,9,.13.28-.12.72,0,1l-22,36.99c9.69,1.05,19.31,3,29,4.01l-55,1c-4.75-6.74-22.83-13.86-31-16l-6-24,59-52Z"/>
  <path class="st11" d="M336,852c1.08.95,4.44,4.51,6,6,6.11,5.84,14.08,13.74,18,21l-44,27c-1-.04-2,.05-3,0-4.96-14.29-10.8-28.22-17-42-.12-.28.13-.72,0-1l15.25-5.25,7.74-3.74h-26.99c-.16-.34-.82-.64-1-1.01,11.78-.22,23.75.65,35.45-1.05,3.96-.57,4.88-4.06,9.55.05Z"/>
  <path class="st13" d="M217,890c8.17,2.14,26.25,9.26,31,16,.78,1.1,3.61,6.02,2.96,6.95-5.62,1.53-9.5,5.51-15.41,6.1-12.19,1.2-26.48-.87-38.91-.19-2.36-.77-2.02-10.45-1.64-12.86.31-1.97,13.22-15.71,15.03-16.52s5.01.01,6.97.52Z"/>
  <path class="st5" d="M313,906c-3.75-.18-6.5-.64-10-1-9.69-1-19.31-2.95-29-4.01l22-36.99c6.2,13.78,12.04,27.71,17,42Z"/>
  <path class="st6" d="M360,879c.1.18,1.15.5,1.73,1.73,1.21,2.61,9.21,24.31,8.28,25.26-9.32.03-18.68-.02-28,0-.67,0-1.33,0-2,0-7.95.04-16.06.29-24,0l44-27Z"/>
  <polygon class="st8" points="171 410 171 342 340 342 340 410 247 410 213.49 364 178 410 172 410 171 410"/>
  <path class="st7" d="M178,410h162v55c-7.68-1.13-16.23-2-24-2-29.15,0-63.9,10.58-92,18.5-11.5,3.25-23.46,8.52-35,10.5-1.97.34-4.01.85-6,1-.33.02-.67-.02-1,0-2.03-4.41-8.86,1.6-10-4.5v-78.5h6ZM278.19,415.79c-.74-.47-1.48-5.06-5.54-1.86-1.81,1.42-.44,5.84-7.65,4.08,1.16,2.87,1.07,5.24-2.49,6l1.49-8c-4.84,2.56-8.89-1.82-11.58-2.04-2.17-.17-3.26,1.79-4.99,2.04-2.38.35-10.7-3.54-7.2,2.78.39.7,4.26,1.43,3.79,3.7.02,1.02-5.13,1.05-6,3.02-1.22,2.78,3.7,2.59,1.98,4.47-1.62,1.77-16.7,1.97-18.73-.26-.99-1.09-1.28-5.76-4.77-5.76-1.47,0-11.04,7.06-5.99,9.02,3.08,1.2,2.69-2.55,4.44-3.53,3.99-2.25,2.55,1.24,3.52,2.54,1.1,1.48,4.37.2,3.52,2.49-.69,1.86-8.72,6.93-10.72,7.35-2.99.62-14.05-4.38-12.15,2.46.07.27,2.68,4.54,2.91,4.7.87.61,5.34-3.99,5.97-.48.8,4.44-8.54,2.71-10.99,3.48,4.48-8.97-6.1-7.01-4.88-2.63.75,2.68,4.89,1.57,3.72,4.94-1.4,4.03-7.4,6.12-7.75,7.36-1.88,6.66,5.48,3.08,7.21,3.49,4.84,1.15.15,9.17,2.69,12.84-5.42,1.15-3.18-1.78-5.01-3.45-1.32-1.21-7.84-4.18-9.05-6.23-.43-.73-1.81-9.42-4.93-6.31-.48.48,1.8,8.01,2.27,8.71.35.51,1.86,1,2.73,1.78.6.55.75,2.04,1.19,2.29,1.71.98,6.15-.91,7.8,2.71-5.44,1.86-1.1,6.02-1.99,10.5,2.76-1.34,6.12.31,8.29.02,1.39-.19,4.05-6.56,5.36-6.92,1.81-.51,4.55,1.96,7.37.44,1.79-.96,1.46-3.17,2.3-4.22.6-.75,2.01-.91,2.72-1.78,1.27-1.56.16-3.33,2.87-4.11,4.39-1.27,5.38.23,5.09,4.57,1.97.23,2.57-1.54,4.52-1.97,1.36-.3,5.24.24,5.48-.01.26-.28-.3-3.09,0-4.32.2-.77,1.77-.6,1.96-1.38.47-1.96-.96-5.3,1.67-6.17,1.65-.54,8.71-.68,9.35,1.37,1.76,5.61-9.3.94-7.99,7.49,2.38-.92,15.35-1.31,16-2,1.79-1.9-1.08-4.75-3.99-.99,1.45-9.86,7.9-2.32,10.53-1.96,8.48,1.14,5.52-4.07,6.61-5.89.24-.4,7.43-3.92,8.4-4.09,8.61-1.56,6.76,3.93-.29,4.75-1.44.17-3.95-1.04-4.26-.8-2.44,1.93,4.28,3.12,5.49,3.08,2.98-.09,4.98-1.6,7.13-1.78,5.58-.46,12.56.48,18.39-1.79,2.82-1.1,5.08-4.98,6.59-5.27,3.36-.66,7.84,3.28,11.38,2.75,1.16-2.57-1.93-1.65-2.06-2.62-.32-2.32,1.28-7.27.07-10.37,2.29-.64,3.75,1.84,5.53,1.99,1.39.12,3.07-1.08,3.9-.91,1.57.32,1.16,3.14,1.77,3.7.27.25,6.54,1.46,6.78,1.21-.63-3.88-1.49-9.65-6.45-9-1.73.23-5.15,4.2-6.44-.7-.77-2.92,4.02-5.06,5.31-7.37,3.94-7.06-1.15-6.25-1.43-7.44-.24-1.03,4.52-4.5-.99-6.98-5.9-2.66-2.67,5.18-2.99,5.49-.19.19-4.89.79-5.4.74-2.35-.26-4.39-4.35-7.59-2.24-.24.16-3.99,3.9-4.06,4.18-.72,3.12,2.73,6.08,5.4,5.25,1.42-.44,1.65-2.78,2.64-3.42,1.87-1.21,6.6-.6,6,1.99-.39,1.69-4.87,1.58-6.31,2.45-2.38,1.43-4.62,7.22-10.21,7.15-8.91-.11-9.74-18.89,2.52-15.09l-1.02-5c-2.16,1.59-11.57.56-11.98,1s.62,4.31-.22,5.8c-.32.56-4.24,2.47-5.23,2.2-4.09-1.12,1.8-10.39,1.46-12.99-3.15-2.16-11.15.83-12.81-.22ZM204.53,414c-2.69.7-2.17,6.24,2.18,6.81,1.44.19,2.81-.8,3.83-.69,4.07.41,5.88,2.08,11.92.85,4.79-.98,4.13-5.45-.03-5.98-3.05-.39-10.01.9-13.16.76-1.69-.07-2.91-2.22-4.74-1.74ZM233,417h-5.01c-.91,3.89,1.83,3.15,5,3.99v-3.99ZM177.99,419c-1.28-1.69-1.82.12-1.99,1.49-.51,4.04-.68,8.43-1,12.5,3.02.49,1.6-.75,2.02-2.43.96-3.81,1.21-7.65.97-11.56ZM205.99,423.01c-1.09-1.09-3.08.9-1.99,1.99s3.08-.9,1.99-1.99ZM205.99,435.99c1.36-3.68-4.99-7.06-5.99-3.48s3.54,3.84,5.99,3.48ZM188.99,432.01c-1.8-.19-7.62-.52-6.99,2.48,2.35,2.9,7.98,2.11,6.99-2.48ZM175.01,451c-2.17,1.52.44,7.01,3.47,6.99,3.81-2.11-.84-8.84-3.47-6.99ZM187.99,455.01c-1.09-1.09-3.08.9-1.99,1.99s3.08-.9,1.99-1.99ZM186,478h-5.01c-1.26,6.11,6.11,6.99,5.01,0Z"/>
  <polygon class="st8" points="115 342 170.01 341.99 170 410 165 410 115 342"/>
  <path class="st9" d="M543.99,90c-1.11,5.48,4.35,4.91,5.36,7.25,1.62,3.75-1.54,5.35-1.21,7.11.21,1.14,5.17,5.72,5.79,11.24.52,4.65-1.43,5.15-1.76,7.87s1.65,12.45-3.22,9.08c-1.84-1.27-.31-5.11-1.1-6.41-.24-.39-3.61-.86-5.28-3.22-.59-.83-4.29-10.82-4.35-11.61-.14-1.81,1.82-3.09,1.76-4.83-.05-1.62-2.38-2.71-1.88-4.78.58-2.44,4.41-3.28,4.81-3.85.96-1.36-4.92-7.87,1.09-7.86Z"/>
  <path class="st9" d="M577,130c.26,2.59,2.44,4.75,5,5,.02.33-.03.67,0,1,.13,1.54.6,9.61,1,10-4.49,1.71-4.24,6.06-10.45,5.01-1.31-.22-11.65-6.6-12.11-7.95-.63-1.83-.99-4.13.55-5.6,4.14-1.76,5.98-4.84,10.5-6.49,2.23-.82,3.56-.61,5.52-.97Z"/>
  <path class="st9" d="M576,125c-1.99,3.13-14.27-1.91-14.78-4.6-.77-4.07,4.78-15.32,10.03-14.22.74.16,4.75,3.03,4.75,3.32,0,2.39.42,14.85,0,15.5Z"/>
  <path class="st9" d="M550,170c-.02-2.71,1.19-2.8,3.45-3.05,6.87-.76,14.2,1.14,21.05,1.15,9.99.01,23.08-2.23,32.93-.99,1.68.21,4.12.42,3.57,2.89-20.32,0-40.68.08-61,0Z"/>
  <path class="st8" d="M670.96,95.98c-.63.45-3.17-.75-4.46-.79-1.67-.04-4.56,2.03-5.42-.84-.13-.44.84-8.8,1.08-9.19.16-.27,5.21-2.99,5.52-3.04.8-.13,6.02,3.81,6.23,4.53.14.47-2.56,9.04-2.96,9.33Z"/>
  <path class="st8" d="M582,136c3.3-.62,1.51,2.75,2.51,4.98,2.4,5.34,11.43,5.93,11.54,6.6.66,3.91.71,9.43-4.55,8.47-3.47-.63-3.46-7.18-5.43-9.43-1.08-1.22-2.9-.45-3.07-.63-.4-.39-.87-8.46-1-10Z"/>
  <path class="st8" d="M597,92.01c1.52,1.31-.08,1.83-1.48,1.99-3.43.4-7.07-.09-10.51.99-.27-1.98,1.6-2.58,1.97-4.52.31-1.59-.36-6,.07-6.43.21-.21,5.33-.96,5.95-.57,1.98,1.24-.75,4.55.07,6.89.73,2.09,3.57,1.34,3.92,1.64Z"/>
  <path class="st9" d="M672.01,46c-.19.18-2.3-.25-3.31.2-1.66.74-1.84,3.57-4.36,3.63-6.76.14-.47-9.94,3.13-10.88,2.73-.01,5.91,5.78,4.53,7.06Z"/>
  <path class="st8" d="M642.99,130.99c-7.82,1.11-8.26-15.12-1.61-12.89,2.86.96.48,3.5.62,5.39.18,2.5,1.45,4.89,1,7.5Z"/>
  <path class="st9" d="M524,60c.33.31.34,8.71,0,9-.28.25-2.29-.24-3.28-.01-1.21.28,0,2.93-2.71,2.01-.03-3.05-.72-9.52,2.65-10.84.66-.26,3.19-.3,3.34-.16Z"/>
  <path class="st8" d="M577,130c1.43-.26,3.07-1.59,5-1,.1,1.99-.12,4.02,0,6-2.56-.25-4.74-2.41-5-5Z"/>
  <path class="st4" d="M858,521c-2.15.98-1.74,1.53-2.04,3.43-.99,6.46.89,12.52.08,18.12-.35,2.41-2,3.76-2.15,5.94-.19,2.78,1.8,5.57,2.16,8.95,4.17,40.06-3.29,87.3.02,128.12.21,1.06-1.73,6.43-2.07,6.43h-16c-.24,0-2.56-3.7-2.62-3.93-.6-2.5.92-4.32.63-6.49-.2-1.49-1.74-2.74-2.06-5.02-1.25-8.79,2.15-16.08,2.14-23.05,0-3.77-1.96-5.98-1.99-7.98-.04-2.19,1.97-5.32,1.99-9.02.02-4.09-1.82-7.3-2.07-11.01-.48-7.05.33-14.41,0-21.49h-24c-.29,0-2.11,4.74-2.04,5.43.14,1.38,1.76,2.73,2.09,5.02,1.61,11.29.81,33.16-.1,45-1.02,13.25.75,25.43,1.13,39.07.14,4.87-1.83,9.98-.08,15.48h42c.36,0,2.92,5.43,3.06,6.44,2.63,19.44-1.49,46.07-1.1,66.1.04,2.06,1.47,14.94,2.12,15.37,2.6,1.01,4.39-1.49,6.46-1.87,4.75-.89,8.13-.84,12.67-2.32,2.12-.69,9.44-4.37,10.39-4.47,1.62-.16,3.13,1.06,5.6.53.8-.17,5.79-2.95,5.79-3.28v-116.5c0-.2,3.3-2,3.5-2h42.5l-.09-86.57c-.33-1.96,1.96-1.29,2.09-1.43.97.27.94,1.15,1,2,1.74,22.77,1.84,61.81.05,84.55-.15,1.93-.59,3.62-1.05,5.45h-46v118c-16.25,3.95-30.84,8.91-47,12-.02-14.98.02-30.02,0-45-.02-12.13,1.42-29.13.05-40.55-.13-1.07.04-2.3-.98-3.02l-45.05-.45.49-115.99h29c.11,0,1.5,1.39,1.5,1.5v86.5c3.6-.85,14.13,2.23,15-2.5-.19-42.5.25-85.02,0-127.5-.07-12.15,1.18-27.32,0-39h1c1.59-.79,3.37.92,4,1Z"/>
  <path class="st8" d="M373,167c-.69-1.62-3.41-.23-4.05-1.65-.21-.48-2.77-9.18-2.89-9.91-.27-1.69-.33-4.31-.11-5.99.12-.91,3.8-8.96,4.18-9.29.86-.75,7.96-.03,8.66,1.05s-.42,3.97,1.82,4.73c1.97.67,6.42-2.59,7.29.69,1.39,5.21-5.8,15.34-3.92,21.37-.66-.05-1.34.04-2,0,.83-3.16-7.24-4.64-6-1-1-.02-2,0-3,0Z"/>
  <path class="st8" d="M495.36,139.35c-5.62,7.89-4.1,5.75-11.07,10.95-.89.66-3.88,6.97-6.82,2.73-.57-.83-2.33-13.06-2.18-14.41.05-.5,2.99-7.49,3.34-7.72,1.39-.91,4.02-.53,5.62-1.16,3.09-1.21,4.49-4.76,9.76-2.24,1.89.9,4.04,7.15,3.97,9.1-.08,2.09-2.03,1.93-2.61,2.75Z"/>
  <path class="st8" d="M508,80c.1,1.79.67,11.51,1.01,12,.13.19,1.56-.1,1.99,0,0,.67,0,1.33,0,2-2.96-1.42-3.3,7.09,0,6,0,2,0,4,0,6-2.58-.74-2.75,3.17-2.88,4.61-.47,5.32-.04,11.01-.12,16.39-7.1-.09-1.99-3.93-1.97-7.47.03-3.73-2.36-12.83-2.07-15.95.05-.55,4.41-.94,3.01-8.06-.63-3.17-5.02-4.55-4.98-7,.02-1.16,3.26-9.35,6-8.52Z"/>
  <path class="st9" d="M511,106c-.06,18.01.9,37.16,0,55-1.09-.1-2.02-.59-3-1,0-1.33,0-2.67,0-4,0-7.05-.53-10.3-2-17,2.76-.9,1.87-3.75,2-6,.11-1.98-.03-4.01,0-6,.08-5.38-.35-11.07.12-16.39.13-1.44.3-5.34,2.88-4.61Z"/>
  <path class="st9" d="M511,31c0,20.32.05,40.68,0,61-.43-.1-1.86.2-1.99,0-.34-.5-.91-10.22-1.01-12-.05-.99.02-2,0-3,0-.25.02-1.4,0-2-.03-1,.01-2,0-3-.14-12.45.5-25.07,1-37.55.08-1.92-1.03-4.01,2-3.45Z"/>
  <path class="st9" d="M345,155c-.05,3.43-2.64,11.38,1.66,12.84,2.08.71,8.12.21,10.87.21,4.47.01,11.33-1.07,15.46-1.05,1,0,2-.02,3,0,1.54.03,3.83.86,6,1,.66.04,1.34-.05,2,0,3.09.24,8.94-1.41,8,2-16.66-.05-33.38-.15-50,0-.02-4.99.05-10.02,0-15h3Z"/>
  <path class="st8" d="M382,94c-.46-.44-.06-8.05,1.54-9.03,4.24.16,11.13,7.4,6.93,11.04-1.64-1.83-8.15-1.7-8.47-2.01Z"/>
  <path class="st9" d="M511,165c-1.36,7.59-14.83,4.91-21,5,.13-4.15,7.94-2.65,10.45-3.04,1.39-.22,2.35-1.55,3.3-1.74,1.97-.39,4.82,1.42,7.24-.23Z"/>
  <path class="st9" d="M415,170c.21-5.09,8.19-2.38,11.5-1.95,1.87.24,4.06-1.27,3.5,1.95-4.99,0-10.01,0-15,0Z"/>
  <path class="st9" d="M399,170c.09-.93-.54-1.74.63-2.02.96-.23,9.96-.29,10.38.02.16.12-.1,1.44,0,2-3.66,0-7.34,0-11,0Z"/>
  <path class="st8" d="M438,170c-.16-3.54,3.93-3.03,6.49-4.01l.51,4.01c-2.33,0-4.67,0-7,0Z"/>
  <path class="st8" d="M469.91,133.92c-3.22,2.12-3.32-2.29-2.9-4.92,3.97-1.4,4.7,3.74,2.9,4.92Z"/>
  <path class="st8" d="M508,133c-.13,2.25.76,5.1-2,6-.51-2.33-3.02-5.44,2-6Z"/>
  <path class="st8" d="M352,91v3.99c-2.36.74-2.74-1.82-2.99-3.99h2.99Z"/>
  <path class="st8" d="M508,156c0,1.33,0,2.67,0,4-.52-.22-1.77.57-2.05-.54-.53-2.17-.26-4.16,2.05-3.46Z"/>
  <path class="st8" d="M487.99,87.01c.29.29.64,3.8-1.48,2.99-3.62-1.38-.26-4.72,1.48-2.99Z"/>
  <rect class="st8" x="499.01" y="94.01" width="1.99" height="2.99"/>
  <path class="st8" d="M508,77l-.68-1.2.68-.8c.02.6,0,1.75,0,2Z"/>
  <path class="st9" d="M511,26v3c-3.18.78-2.98-3.88,0-3Z"/>
  <path class="st9" d="M511,19v2c-3.13.55-2.97-2.61,0-2Z"/>
  <path class="st12" d="M864,521c.35.03,1.57.97,3.38,1.07,8.27.47,20.68-1.43,28.12-.07.83.15,2.5.8,2.5,1.5v124.5c0,.2,3.25,2.05,3.45,2.07,1.78.23,13.82.16,14.36-.31.47-.41.06-1.63.19-1.76.16-.16,2.39.56,2.08-1.43l.92-78.57h25c.65,3.43-.68,7.21-.62,10.36.03,1.48.2,4.35,2.62,3.64-.19.54.22,1.76,0,2-.13.14-2.42-.53-2.09,1.43l.09,86.57h-42.5c-.2,0-3.5,1.8-3.5,2v116.5c0,.33-5,3.11-5.79,3.28-2.47.53-3.98-.69-5.6-.53-.95.1-8.27,3.77-10.39,4.47-4.54,1.48-7.93,1.43-12.67,2.32-2.07.39-3.87,2.88-6.46,1.87-.64-.43-2.07-13.31-2.12-15.37-.4-20.03,3.72-46.66,1.1-66.1-.14-1.01-2.7-6.44-3.06-6.44h-42c-1.75-5.5.21-10.61.08-15.48-.38-13.64-2.15-25.83-1.13-39.07.91-11.84,1.72-33.71.1-45-.33-2.29-1.95-3.64-2.09-5.02-.07-.68,1.75-5.43,2.04-5.43h24c.34,7.08-.47,14.44,0,21.49.25,3.71,2.09,6.92,2.07,11.01-.02,3.7-2.03,6.83-1.99,9.02.04,2,1.99,4.21,1.99,7.98.01,6.98-3.39,14.26-2.14,23.05.33,2.29,1.87,3.53,2.06,5.02.28,2.17-1.23,3.99-.63,6.49.05.23,2.38,3.93,2.62,3.93h16c.34,0,2.28-5.38,2.07-6.43-3.31-40.82,4.16-88.06-.02-128.12-.35-3.38-2.34-6.17-2.16-8.95.15-2.18,1.8-3.53,2.15-5.94.81-5.6-1.07-11.66-.08-18.12.29-1.91-.11-2.46,2.04-3.43,1.89.24,4.07-.18,6,0Z"/>
  <path class="st10" d="M916,580c-.22,22.65.16,45.35,0,68-2.6-.28-15.42.99-16.04-1.67.04-23.44.08-46.9.04-70.33l16,4Z"/>
  <path class="st4" d="M864,521l36.01-1.01c.02,18.65-.04,37.35,0,56.01.04,23.43,0,46.9-.04,70.33.62,2.66,13.45,1.38,16.04,1.67.16-22.65-.22-45.35,0-68,.05-4.65-.03-9.35,0-14h31c-.28,5.57.86,10.78-1,16-2.41.7-2.59-2.16-2.62-3.64-.06-3.15,1.27-6.92.62-10.36h-25l-.92,78.57c.3,1.99-1.92,1.27-2.08,1.43-.13.13.29,1.35-.19,1.76-.54.47-12.58.54-14.36.31-.2-.03-3.45-1.87-3.45-2.07v-124.5c0-.7-1.67-1.35-2.5-1.5-7.44-1.36-19.85.54-28.12.07-1.81-.1-3.04-1.04-3.38-1.07Z"/>
  <path class="st8" d="M166,39c-.32.47.14,5.48,0,7-.04.47-2.55,3,0,4-.43,1.22-.7,2.71-1,4-1.03,4.48-.46,8.13,0,13,.18,1.96,1.04,3.59,1,6-2.67-.47-2.04.63-2,3-.46.57,2.57,12.13,2.79,14.51,1.19,13.08-2.54,27.13-.78,41.99.3,2.55.2,6.59,3.99,5.51-.02,4.92,1.21,31-2.63,32.06-48.45-.11-96.93-.06-145.37-.06-2.37-3.19.81-5.58.8-7.32-.02-1.86-2.22-4.03-1.79-7.09.05-.34,1.88-6.22,2.12-6.46,1.48-1.44,3.16,2.54,4.87-4.13,3.19.22,6.61,2.25,9.57.06l9.43-15.06,4.99-1c-.37,3.69,1.01,10.69,4.24,4.7.88-1.64.57-5.98,4.63-3.55,1.44.86.68,6.79,1.27,7.72.88,1.39,7.68-.34,6.88,5.13,2.96-.2,2.98-2.78,6.48-3.09,3.67-.32,6.41,2.51,7.98,2.09,1.29-.34,3.02-8.94,3.54-11h-4.01s1-8,1-8c-3.18-.78-1.86,4.42-4.51,4.99-4.06.87-5.34-11.17-4.48-14,6.1-.79,2.54-.74,4-2,.41-.35,2.43-.02,2.98-1.63.45-1.29-.98-2.25-.98-2.37-.5-15.32-1.74-6.45-6.53-10.97-1.94-1.83-1.45-6.51-1.47-9.03-2.13-2.23-6.34,7.32-12.01,2.5-2.02-1.72-.18-5.35-1.48-7.51-.22-.37-4.7-4.51-6.02-6.03-.91-1.05-3.62-.53-2.42-3.42.47-1.13,2.39-1.25,3-2.23,1.45-2.36.35-4.17,3.39-7.36,6.55-6.89,13.79-5.26,19.54-10.49,1.18-1.07.69-3.26,1.57-3.52,6.31-1.9.44,7.21,7.8,6.15.94-.14.89-2.82,3.39-3.85,5.55-2.29,10.88.17,14.5-.47,2.41-.42,7.64-3.02,10.31-3.72,1.87-.49,9.56-2.8,10.1-2.86,1.24-.12,6.31,2.37,8.96,2.69,2.96.36,17.08.04,18.39,1.12.47.39-1.48,2.7-.56,4.02.79,1.15,4.25,1.31,4.56.98.19-.2-.23-3.03.2-4.29.55-1.6,2.65-2.27,2.82-4.23.21-2.36-.45-4.7-.02-8.49,2.51.05,6-.87,7,2ZM152,113c-1.66-6.87,2.97-13.4-5.99-16.51l3.99-1.49c-2.38-7.52-5.54-.36-7.71.79-4.31,2.28-11.93-1.21-12.02,5.9,0,.66,2.32,8.62,2.69,8.9,1.13.85,3.9-.55,6.08-.2,3.99.63,11,4.84,8.53,9.62-1.5,2.91-8.09,1.69-6.54,5.48,1.24,3.03,5.55.08,5.99.51.41.39-1.22,3.83,2.01,3-.02.67.03,1.33,0,2,0,.25-1.84,1.18-.52,3.01,2.59,3.59,2.37-.83,2.52-1.01.61-.75,9.3-2.55,11-2.01.37-2.15-2.06-3.45-1.96-5.5.07-1.44,1.92-2.72,2.07-4.98.05-.79-.88-7.2-1.15-7.46-.32-.31-7.42-.13-8.95-.05Z"/>
  <path class="st8" d="M44,79c3.98-.92,5.55,5.87,4.89,8.35-.78,2.92-5.42,2.1-6.89,2.65-5.32-7.03,1.26-6.95,2-11Z"/>
  <path class="st8" d="M45,68c.5,2.42,2.01,9.5-1,8-.17-2.09-3.38-8.74,1-8Z"/>
  <path class="st8" d="M9.99,110.01c.23,1.84.06,2.93-1.51,3.98h-1.48s0-3.99,0-3.99h2.99Z"/>
  <path class="st8" d="M75,114c-.86,2.83.42,14.87,4.48,14,2.65-.57,1.33-5.77,4.51-4.99l-1,7.99h4.01c-.52,2.07-2.25,10.66-3.54,11-1.57.42-4.31-2.41-7.98-2.09s-3.52,2.89-6.48,3.09c.8-5.47-6-3.74-6.88-5.13-.59-.93.17-6.86-1.27-7.72-4.06-2.43-3.75,1.92-4.63,3.55-3.23,5.99-4.61-1.01-4.24-4.7l-4.99,1c-2.52-1.91-1.79-7.86.98-5.99.27.18.35,3.54,2.51,2.99,1.59-.4,4.01-7.59,6.1-8.91,4.41-2.77,13.3-3.43,18.41-4.09Z"/>
  <path class="st8" d="M159,37c.22-1.92-.21-3.75.66-5.76.75-1.72,3.66-1.88,4.2-4.98.5-2.89-2.95-7.07,2.14-7.26-1.92,4.98,2.67,15.86,2.07,19.37-.17,1-2.01.54-2.07.63-1-2.87-4.49-1.95-7-2Z"/>
  <path class="st8" d="M165,54c3.22-.52,1.83,1.49,1.82,3.38,0,2.12.11,4.06.13,6.14.02,1.92,1.11,4.02-1.95,3.47-.46-4.87-1.03-8.52,0-13Z"/>
  <path class="st8" d="M111.99,42.99h-5.99c-.18-4.2,6.17-4.2,5.99,0Z"/>
  <path class="st8" d="M79,112c-.17-1.74.16-3.48,2-4,0,.13,1.43,1.08.98,2.37-.55,1.6-2.58,1.28-2.98,1.63Z"/>
  <path class="st8" d="M166,46c3.85-.55.77,1.82,0,4-2.55-1-.04-3.53,0-4Z"/>
  <path class="st8" d="M166,73c-.08,5.05-1.42,2.29-2,3-.04-2.37-.67-3.47,2-3Z"/>
  <path class="st8" d="M72.99,44.01c1.09,1.09-.9,3.08-1.99,1.99s.9-3.08,1.99-1.99Z"/>
  <rect class="st9" x="342" y="172" width="169" height="168"/>
  <polygon class="st8" points="340 171 340 340 171 340 171.49 172 340 171"/>
  <path class="st8" d="M682,272v68h-169v-166.5c0-.23-1.9-1.33-.5-1.5h117.05s2.45,3,2.45,3c-4.43,40.86,13.26,78.11,50,97Z"/>
  <path class="st8" d="M813,172h39v168h-168v-66c.94.57,17.5,5.24,19.78,5.72,65.48,13.9,120.19-42.63,109.22-107.72Z"/>
  <path class="st8" d="M513,410c.03-22.65-.02-45.35,0-68h169c.02,22.65-.03,45.35,0,68h-169Z"/>
  <path class="st8" d="M342,410v-68h169c.02,22.65-.03,45.35,0,68h-169Z"/>
  <path class="st8" d="M684,410c.03-22.65-.02-45.35,0-68h168c.02,22.65-.03,45.35,0,68h-7l-34.46-46-33.54,46h-93Z"/>
  <path class="st0" d="M513,410c-.04,33.65.04,67.35,0,101.01h116.01c.03.66-.05,1.33,0,1.99l-115.42-.02-.58,5.02c-.86-.3-1.51-.83-2-1v-4s-12,0-12,0c-.75-.38-2.59.87-2-2,4.63.25,9.37-.18,14.01,0-.04-33.65.04-67.35,0-101.01h2Z"/>
  <path class="st0" d="M342,410v56c-.93-.15-1.74-.96-2-1v-55h2Z"/>
  <path class="st9" d="M511,94c0,2,0,4,0,6-3.3,1.09-2.96-7.42,0-6Z"/>
  <path class="st13" d="M316,463c-13.92,12.99-41.95,32.25-41.99,53.5s34.76,38.54,51.63,46.36c15.44,7.16,33.08,14.06,49.11,19.89,25.44,9.25,48.03,18.68,75.45,13.96,47.79-8.22,92.29-32.42,136.06-51.99,1.49-.67,3.27-.14,2.73-2.72,6.4.55,32.23-11.39,41-14,5.04-1.5,10.83-3.88,15-5,11.49-3.07,25.79-3.12,37-6,.9-.23,1.61.42,2-1h7c1.92,8.24,6.13,15.77,8.71,23.79,13.84,43.01,5.8,79.43-22.74,113.69-58.3,69.97-162.11,76.96-244.97,97.53-30.97-9.57-57.9-20.28-88-32-1.15-.45-2.18-.68-3-1-14.87-5.8-29.39-12.66-44.48-18.02-36.15-12.83-73.81-21.49-112.52-20.98.26-6.3-.19-12.7,0-19.01.45-.45,10.55.34,12.57.08,1.91-.24.95-1.92,2.87-2.16,10.46-1.32,23.78,1.14,34.57.08v-100h-34v68h-16v-131c1.77-.84,4.23-.93,5-3,11.54-1.98,23.5-7.25,35-10.5,28.09-7.93,62.85-18.5,92-18.5Z"/>
  <path class="st7" d="M777,410h75c.04,33.65-.03,67.35,0,101h-168c.03-33.65-.04-67.35,0-101h93Z"/>
  <path class="st7" d="M682,410c.04,33.65-.04,67.35,0,101.01h-37.01c0-1.86-1-20.01,0-20.01h15v-35h-10.01c-.42,3.06-.09,24.14-1,25-.14.14-4,.2-4,0v-41h-16v55c0,.2-4,.2-4,0v-28h-11v37c3.03.57,12.06-.99,14.06.43,1.55,1.1.84,4.76.94,6.57h-116.01c.04-33.65-.04-67.35,0-101h169Z"/>
  <path class="st7" d="M684,516c.23-.84-.66-2.83.58-3.03l167.42.02c-1.01,2.57.85,5.56,1,7.01,1.18,11.68-.07,26.85,0,39-31.15-11.4-61.67-24.99-93.78-33.72-23.97-6.51-43.29-9.28-68.22-9.28h-7Z"/>
  <path class="st4" d="M629,511c-.09-1.81.61-5.47-.94-6.57-2-1.43-11.03.14-14.06-.43v-37h11v28c0,.2,4,.2,4,0v-55h16v41c0,.2,3.85.14,4,0,.91-.86.58-21.95,1-25.01h10.01v35.01h-15c-1,0,0,18.15,0,20v12c-4.17,1.12-9.96,3.5-15,5,.02-5.02-.64-10-1-15-.05-.66.03-1.34,0-2Z"/>
  <path class="st7" d="M645,513c11.63.59,23.98-.79,35.53,0,2.85.19,1.04,2.47,1.47,4.01-11.21,2.88-25.51,2.93-37,6v-10Z"/>
  <path class="st10" d="M853,559c.25,42.48-.19,85.01,0,127.5-.87,4.73-11.4,1.65-15,2.5v-86.5c0-.11-1.39-1.5-1.5-1.5h-29l-.49,115.99,45.05.45c1.02.71.86,1.94.98,3.02,1.38,11.42-.07,28.42-.05,40.55-56.01,10.74-111.84,24.3-169,28-.4.03-1.1-.05-2,0-55.35,3.16-114.8-4.62-169-16-.34-.07-1.09-.8-2-1-27.12-5.81-52.57-12.83-79-21,82.86-20.56,186.67-27.56,244.97-97.53,28.54-34.26,36.58-70.68,22.74-113.69-2.58-8.02-6.79-15.55-8.71-23.79,24.93,0,44.24,2.77,68.22,9.28,32.12,8.73,62.63,22.31,93.78,33.72Z"/>
  <path class="st7" d="M341,718l-.99,132.53-4.01,1.47c-4.68-4.11-5.6-.63-9.55-.05-11.7,1.7-23.66.83-35.45,1.05-5.88-12.31-12.45-24.16-18.67-35.33-.6-1.07-.03-2.69-.57-3.44-.41-.56-1.66-.12-1.76-.23-.14-.15.25-1.65-.77-1.94l-52.79-28.05-3.81,1.13c-8.94,6.98-17.28,14.83-26.11,21.92-1.32,1.06-3.28.77-3.51.95,1.08-41.79-1.41-83.84-.07-125.62.06-1.78,1.07-3.2,1.07-3.38,38.7-.51,76.37,8.15,112.52,20.98,15.09,5.35,29.61,12.21,44.48,18.02Z"/>
  <path class="st7" d="M344,719c30.1,11.72,57.03,22.43,88,32,26.43,8.17,51.88,15.19,79,21v80h-169c1.08-43.1-1.44-86.46,0-129.55.06-1.93-1.02-4.01,2-3.45Z"/>
  <path class="st11" d="M183,808c.23-.18,2.19.11,3.51-.95,8.83-7.1,17.17-14.94,26.11-21.92l3.81-1.13,52.79,28.05c1.02.29.63,1.79.77,1.94l-59,52c-16.68-12.45-33.32-25.45-49-39,6.99-4.96,15.1-14.58,21-19Z"/>
  <path class="st7" d="M189,492c-.77,2.07-3.23,2.16-5,3l-1-2c1.99-.15,4.03-.66,6-1Z"/>
  <path class="st7" d="M292,854h26.99s-7.74,3.75-7.74,3.75l-15.25,5.25c-1.17-2.57-2.66-6.2-4-9Z"/>
  <polygon class="st11" points="247 410 178 410 213.49 364 247 410"/>
  <path class="st10" d="M340,465c.26.04,1.07.85,2,1,30.45,4.95,59.71,14.54,89,24,3,.97,7.33,2.8,11,4,14,4.58,36.76,14.73,50,17l.5.98.5-.98c1.29.16,2.69-.07,4,0-.59,2.87,1.25,1.62,2,2,5.02,2.53,7.72,2.48,12,4,.49.17,1.14.7,2,1,11.72,4.12,23.34,8.58,35.23,12.27,9.94,3.08,31.67,10.95,40.77,11.73.54,2.57-1.24,2.05-2.73,2.72-43.77,19.57-88.27,43.77-136.06,51.99-27.42,4.72-50.01-4.72-75.45-13.96-16.03-5.83-33.67-12.72-49.11-19.89-16.87-7.82-51.66-24.66-51.63-46.36s28.06-40.51,41.99-53.5c7.77,0,16.32.87,24,2Z"/>
  <path class="st7" d="M278.19,415.79c1.66,1.05,9.67-1.94,12.81.22.34,2.6-5.54,11.87-1.46,12.99.99.27,4.91-1.64,5.23-2.2.84-1.49-.2-5.35.22-5.8s9.82.59,11.98-1l1.02,5c-12.26-3.8-11.42,14.98-2.52,15.09,5.58.07,7.83-5.72,10.21-7.15,1.44-.87,5.92-.76,6.31-2.45.6-2.59-4.13-3.19-6-1.99-.99.64-1.22,2.98-2.64,3.42-2.67.83-6.11-2.13-5.4-5.25.07-.28,3.82-4.02,4.06-4.18,3.2-2.11,5.24,1.98,7.59,2.24.51.06,5.2-.55,5.4-.74.32-.31-2.91-8.15,2.99-5.49,5.51,2.48.75,5.96.99,6.98.28,1.19,5.37.39,1.43,7.44-1.29,2.31-6.09,4.45-5.31,7.37,1.29,4.89,4.71.92,6.44.7,4.95-.65,5.82,5.12,6.45,9-.24.24-6.51-.97-6.78-1.21-.61-.55-.2-3.38-1.77-3.7-.84-.17-2.52,1.02-3.9.91-1.78-.15-3.24-2.63-5.53-1.99,1.2,3.1-.39,8.04-.07,10.37.13.98,3.22.05,2.06,2.62-3.54.53-8.02-3.41-11.38-2.75-1.51.3-3.77,4.18-6.59,5.27-5.84,2.27-12.82,1.33-18.39,1.79-2.15.18-4.15,1.68-7.13,1.78-1.21.04-7.93-1.15-5.49-3.08.3-.24,2.81.96,4.26.8,7.06-.82,8.9-6.31.29-4.75-.97.18-8.16,3.69-8.4,4.09-1.09,1.82,1.87,7.03-6.61,5.89-2.63-.35-9.09-7.9-10.53,1.96,2.92-3.75,5.79-.91,3.99.99-.65.69-13.62,1.08-16,2-1.31-6.55,9.75-1.88,7.99-7.49-.64-2.05-7.7-1.91-9.35-1.37-2.63.86-1.2,4.21-1.67,6.17-.19.78-1.76.61-1.96,1.38-.31,1.22.25,4.04,0,4.32-.24.26-4.12-.29-5.48.01-1.95.43-2.55,2.21-4.52,1.97.29-4.34-.7-5.84-5.09-4.57-2.72.79-1.6,2.55-2.87,4.11-.71.87-2.12,1.03-2.72,1.78-.84,1.05-.51,3.25-2.3,4.22-2.82,1.52-5.56-.95-7.37-.44-1.31.37-3.96,6.74-5.36,6.92-2.17.29-5.53-1.36-8.29-.02.89-4.48-3.44-8.63,1.99-10.5-1.65-3.62-6.09-1.73-7.8-2.71-.45-.26-.59-1.75-1.19-2.29-.86-.78-2.38-1.27-2.73-1.78-.47-.71-2.75-8.24-2.27-8.71,3.12-3.11,4.5,5.57,4.93,6.31,1.21,2.05,7.73,5.02,9.05,6.23,1.83,1.67-.42,4.6,5.01,3.45-2.54-3.67,2.15-11.69-2.69-12.84-1.73-.41-9.09,3.17-7.21-3.49.35-1.24,6.35-3.33,7.75-7.36,1.17-3.38-2.97-2.26-3.72-4.94-1.22-4.38,9.36-6.34,4.88,2.63,2.45-.77,11.79.96,10.99-3.48-.63-3.51-5.1,1.09-5.97.48-.23-.16-2.83-4.43-2.91-4.7-1.9-6.84,9.16-1.83,12.15-2.46,2-.42,10.03-5.49,10.72-7.35.85-2.29-2.42-1-3.52-2.49-.97-1.31.47-4.8-3.52-2.54-1.75.99-1.36,4.73-4.44,3.53-5.06-1.96,4.51-9.02,5.99-9.02,3.49,0,3.78,4.67,4.77,5.76,2.03,2.23,17.11,2.04,18.73.26,1.72-1.88-3.2-1.69-1.98-4.47.86-1.98,6.02-2,6-3.02.47-2.27-3.4-3-3.79-3.7-3.5-6.32,4.82-2.43,7.2-2.78,1.73-.25,2.83-2.21,4.99-2.04,2.7.21,6.74,4.6,11.58,2.04l-1.49,8c3.56-.76,3.66-3.13,2.49-6,7.21,1.76,5.84-2.66,7.65-4.08,4.06-3.2,4.8,1.4,5.54,1.86ZM272.99,423.01c-2.11-2.08-6.06,1.91-3.99,3.99,1.62,1.62,5.61-2.39,3.99-3.99ZM268.89,428.1c-3.9-2.4-4.38,4.96,1.1,3.89.35-.32-.93-3.79-1.1-3.89ZM293.92,432.07c-4.08-2.52-4.71,6.84,1.08,5.93.39-.42-.62-5.64-1.08-5.93ZM287,436.99c2.79-3.99-12.29-6.46-9.49,1.02,1.61.21,8.87-.13,9.49-1.02ZM263.99,436.01c-1.09-1.09-3.08.9-1.99,1.99s3.08-.9,1.99-1.99ZM318.99,440.01c-.35-.38-7.8,1.77-6.98,3.48,1.87,3.83,9.01-1.32,6.98-3.48ZM287.99,442.01c-.54-.48-8.17.61-5.99,3.99,1.34.51,7.74-2.46,5.99-3.99ZM293.99,450.01c-1.79-.36-4.08-1.88-4.98.5-1.83,4.84,6.85,1.97,4.98-.5ZM287,450.01h-5s0,3.99,0,3.99c3.27.37,5.59-.21,4.99-3.99ZM203.99,465.01h-2.99v1.99h2.99v-1.99Z"/>
  <path class="st7" d="M204.53,414c1.83-.48,3.06,1.67,4.74,1.74,3.15.13,10.11-1.16,13.16-.76,4.16.53,4.81,5.01.03,5.98-6.04,1.23-7.85-.44-11.92-.85-1.02-.1-2.39.89-3.83.69-4.35-.57-4.88-6.11-2.18-6.81Z"/>
  <path class="st7" d="M177.99,419c.23,3.91-.01,7.75-.97,11.56-.42,1.67,1,2.92-2.02,2.43.32-4.07.5-8.46,1-12.5.17-1.37.7-3.18,1.99-1.49Z"/>
  <path class="st7" d="M175.01,451c2.63-1.84,7.28,4.89,3.47,6.99-3.03.01-5.64-5.48-3.47-6.99Z"/>
  <path class="st7" d="M188.99,432.01c.99,4.59-4.64,5.38-6.99,2.48-.63-3,5.19-2.67,6.99-2.48Z"/>
  <path class="st7" d="M205.99,435.99c-2.45.35-7.01.22-5.99-3.48s7.34-.19,5.99,3.48Z"/>
  <path class="st7" d="M186,478c1.1,6.99-6.27,6.11-5.01,0h5.01Z"/>
  <path class="st7" d="M233,417v3.99c-3.18-.84-5.92-.11-5.01-3.99h5.01Z"/>
  <path class="st7" d="M187.99,455.01c1.09,1.09-.9,3.08-1.99,1.99s.9-3.08,1.99-1.99Z"/>
  <path class="st7" d="M205.99,423.01c1.09,1.09-.9,3.08-1.99,1.99s.9-3.08,1.99-1.99Z"/>
  <path class="st8" d="M376,167c-1.24-3.64,6.83-2.16,6,1-2.17-.14-4.46-.97-6-1Z"/>
  <path class="st8" d="M149,129c-3.23.83-1.6-2.61-2.01-3-.44-.42-4.75,2.52-5.99-.51-1.55-3.79,5.03-2.58,6.54-5.48,2.47-4.78-4.53-8.99-8.53-9.62-2.18-.34-4.95,1.05-6.08.2-.37-.28-2.7-8.24-2.69-8.9.09-7.11,7.72-3.63,12.02-5.9,2.17-1.15,5.34-8.31,7.71-.79l-3.99,1.49c8.96,3.11,4.33,9.65,5.99,16.51-.66.03-1.33-.07-1.99,0-.58,5.35-.83,10.62-1.01,16.01Z"/>
  <path class="st9" d="M152,113c1.53-.08,8.63-.26,8.95.05.27.26,1.2,6.67,1.15,7.46-.15,2.27-2,3.55-2.07,4.98-.09,2.05,2.33,3.34,1.96,5.5-1.69-.55-10.38,1.26-11,2.01l-2-2c.03-.67-.02-1.33,0-2,.18-5.39.42-10.65,1.01-16.01.66-.06,1.33.04,1.99,0Z"/>
  <path class="st8" d="M151,133c-.15.18.07,4.61-2.52,1.01-1.32-1.83.51-2.76.52-3.01l2,2Z"/>
  <path class="st7" d="M511,410c.04,33.65-.04,67.35,0,101.01-4.64-.19-9.38.25-14.01,0-1.31-.07-2.71.16-4,0-.33-.04-.68.06-1,0-13.24-2.27-36-12.42-50-17v-33.01s11,0,11,0v-21c-11.54-2.01-7.35,6.03-8.01,13.99-3.47.85-1.66-4.21-1.96-6.53-.16-1.22-1.04-2.68-1.04-2.96v-18.5h-11v46h-3v-16h-8v22h11.01s0,12,0,12c-29.29-9.46-58.55-19.05-89-24v-56h169Z"/>
  <polygon class="st11" points="845 410 777 410 810.54 364 845 410"/>
  <path class="st7" d="M629,513c.36,5,1.02,9.98,1,15-8.77,2.61-34.6,14.55-41,14-9.1-.79-30.82-8.65-40.77-11.73-11.89-3.69-23.52-8.15-35.23-12.27l.58-5.02,115.42.02Z"/>
  <path class="st7" d="M499,513h12.01s0,4,0,4c-4.28-1.52-6.98-1.47-12-4Z"/>
  <path class="st4" d="M431,490v-12.01s-11,0-11,0v-22h8v16h3v-46h11v18.5c0,.28.88,1.74,1.04,2.96.3,2.33-1.51,7.38,1.96,6.53.66-7.97-3.54-16,8.01-13.99v21h-11.01s0,33,0,33c-3.67-1.2-8-3.03-11-4Z"/>
  <path class="st0" d="M492,511c.32.06.67-.04,1,0l-.5.98-.5-.98Z"/>
  <path class="st7" d="M287,436.99c-.62.88-7.88,1.23-9.49,1.02-2.8-7.48,12.28-5,9.49-1.02Z"/>
  <path class="st7" d="M318.99,440.01c2.02,2.16-5.12,7.31-6.98,3.48-.81-1.71,6.63-3.86,6.98-3.48Z"/>
  <path class="st7" d="M293.92,432.07c.45.28,1.47,5.51,1.08,5.93-5.79.91-5.16-8.44-1.08-5.93Z"/>
  <path class="st7" d="M287,450.01c.6,3.78-1.72,4.36-4.99,3.99v-3.99s4.99,0,4.99,0Z"/>
  <path class="st7" d="M287.99,442.01c1.75,1.53-4.65,4.5-5.99,3.99-2.19-3.38,5.44-4.47,5.99-3.99Z"/>
  <path class="st7" d="M293.99,450.01c1.86,2.48-6.81,5.34-4.98.5.9-2.38,3.2-.86,4.98-.5Z"/>
  <path class="st7" d="M272.99,423.01c1.62,1.6-2.37,5.61-3.99,3.99-2.07-2.08,1.88-6.07,3.99-3.99Z"/>
  <path class="st7" d="M268.89,428.1c.17.11,1.45,3.58,1.1,3.89-5.49,1.07-5-6.29-1.1-3.89Z"/>
  <rect class="st7" x="201.01" y="465.01" width="2.99" height="1.99"/>
  <path class="st7" d="M263.99,436.01c1.09,1.09-.9,3.08-1.99,1.99s.9-3.08,1.99-1.99Z"/>
</svg>