<?xml version="1.0" encoding="UTF-8"?>
<svg id="Layer_1" xmlns="http://www.w3.org/2000/svg" version="1.1" viewBox="0 0 1024 1024">
  <!-- Generator: Adobe Illustrator 29.8.4, SVG Export Plug-In . SVG Version: 2.1.1 Build 6)  -->
  <defs>
    <style>
      .st0 {
        fill: #8bdec8;
      }

      .st1 {
        fill: #068d62;
      }

      .st2 {
        fill: #0b9f72;
      }

      .st3 {
        fill: #f9de66;
      }

      .st4 {
        fill: #f2f2b4;
      }

      .st5 {
        fill: #6ee895;
      }

      .st6 {
        fill: #2eab73;
      }

      .st7 {
        fill: #fcad94;
      }

      .st8 {
        fill: #08895f;
      }

      .st9 {
        fill: #54d0c9;
      }

      .st10 {
        fill: #b8db9d;
      }

      .st11 {
        fill: #16d8bf;
      }

      .st12 {
        fill: #fc8f75;
      }

      .st13 {
        fill: #42b9af;
      }

      .st14 {
        fill: #54d0c8;
      }

      .st15 {
        fill: #47ca84;
      }
    </style>
  </defs>
  <path class="st12" d="M285,907l3.45-2h400.54s-7.64-11.08-7.64-11.08c-21.89,6.08-48.75-2.77-69.03-11.74-4.48-1.98-22.91-10.91-25.32-13.7-3.62-4.18,5.57-10.29,8.96-12.02,5.57-2.84,18.4-6.47,24.54-6.54,11.2-.12,44.2,16.31,53.41,23.66,6.52,5.21,12.83,11.51,9.09,20.41l31.01,4.49c1.61,1.21.58,1.57-.65,2.38-2.03,1.32-5.28,1.63-6.36,4.13h317v5.01c-39.05-1-91.92,3.33-123.01,29.49-41.89,35.25,3.49,66.58,38.05,77.97,7.56,2.49,15.56,3.67,22.96,6.54h-311c4.39-14.7-11.99-25.24-23.76-29.74-24.53-9.38-58.94-9.23-83.48,0-12.86,4.84-27.05,14.03-24.76,29.74H0v-19c14.46-.59,29.23-2.2,42.68-7.82,28.01-11.71,30.53-33.06,1.68-46.04-13.89-6.25-29.3-7.46-44.36-8.14v-38h71c8.26,30.47,65.35,45.78,92.62,48.88,40.37,4.59,118.22-.74,146.4-34.36,1.33-1.59,6.43-6.87,2.47-7.5-9.27-1.48-18.31-3.3-27.5-5.02ZM489.99,926.99c1.73-1.66-10.39-15.36-11.53-17.99-2.03-.5-17.21,17.78-19.95,17.81-.42,0-2.79-2.22-4.12-2.7-8.02-2.93-12.3-1.22-19.78-2.21-27.03-3.56-42.49-7.83-70.83-1.62-25.12,5.51-67.37,27.94-34.25,54.7,29.93,24.19,103.91,23.72,134.39.43,15.69-11.98,15.78-27.06,1.01-39.83-1.08-.93-4.52-2.46-4.71-2.79-.42-.74-.38-4.59-.2-4.78,1.61-1.62,25.88-.75,29.98-1.02ZM822.98,912.01c-.48-.33-2.28.01-2.98.49l-19.51,16.48c-2.01-3.5-4.81-5.05-8.51-6.47-21.59-8.26-62.35,4.77-82,15.97-30.54,17.39-28.61,36.37,9.56,34.56,21.35-1.01,73.95-16.38,81.23-38.79.4-1.22.04-4.04.23-4.25,1.25-1.33,24.18,1.93,27.99.99-.77-2.55-5.2-18.42-6.01-18.99Z"/>
  <path class="st7" d="M328,814h696v91h-317c1.08-2.51,4.34-2.82,6.36-4.14,1.24-.81,2.27-1.17.65-2.38l-31.01-4.49c3.74-8.9-2.56-15.2-9.09-20.41-9.22-7.36-42.21-23.79-53.41-23.66-6.14.07-18.97,3.71-24.54,6.54-3.39,1.72-12.57,7.84-8.96,12.02,2.41,2.78,20.84,11.72,25.32,13.7,20.28,8.97,47.14,17.83,69.03,11.74l7.64,11.07h-400.54s-3.45,2.01-3.45,2.01c-17.96-3.36-36.31-5.52-54.18-9.32-1.15-.25-3.98-.13-3.81-1.67l84.31-14.2c5.07-1.63-5.68-10.93-7.84-12.79-45.83-39.11-161.04-37.89-210.2-5.26-13.24,8.79-26.97,23.9-22.27,41.23H0v-91h328ZM804,874.01c-1.19,1.14,5.04,6.57,6.08,7.41,24.63,20.01,79.88,19.57,106.59,3.75,16.44-9.74,20.35-23.83,4.25-36.59-24.24-19.19-84.49-18.64-109.24-.41-1.29.95-6.24,5.33-6.66,6.34-.76,1.81,1.7,1.84,2.79,2.16,12.7,3.7,26.55,4.5,39.42,7.61,1,.24,3.01.3,2.77,1.7l-45.99,8.02ZM614,847.01c-10.67-1.26-20.42-4.25-31.38-2.9-19.66,2.43-3.38,21.23.83,20.95,6.15-10.59,16.93-13.26,27.77-16.37,1.03-.3,3.02-.24,2.79-1.68Z"/>
  <path class="st15" d="M75,661c6.57,2.09,13.12,4.8,20,7,35.45,11.33,55.2,16.55,93,19,4.01.26,8.69.72,13,1s11.64,1,15.5,1h15c4.92,0,14.05,2.24,19.5,3,6.31.88,12.74,1.8,19,3,46.13,8.84,83.94,29.81,128,42,46.53,12.87,99.75,14.69,147.01,4.51,43.73-9.42,82.71-31.72,125.99-42.51-2.39,5.6-4.14,11.57-7,16.99h45c-.53,11.62.25,23.28-1.14,34.87-17.27,5.13-33.3,13.95-47.32,25.18-12.73,10.19-25.95,23.6-33.54,37.96h-299c-17.69-28.08-48.67-53.24-81.97-59.53-25.41-4.81-38.55,2.35-61.54,3.52-36.4,1.86-48.23-31.47-71.48-51.49-31.71-27.31-72.69-34.43-113.01-24.49v-37c25.47,2.57,50.68,8.27,75,16Z"/>
  <path class="st8" d="M723,716c.64,9.99.89,20.04,2.01,29.99,16.89-1.5,32.31-1.48,49.01,1.49,19.04,3.38,35.06,11.44,55.01,7.06,26.91-5.92,43.88-38.37,61.45-57.55,34.62-37.78,82.04-56.06,133.51-49.99v167h-397c7.59-14.36,20.82-27.76,33.54-37.96,14.02-11.23,30.05-20.05,47.32-25.18,1.39-11.59.61-23.25,1.14-34.86,1.08-23.47,3.02-47.66,4.04-71.46.68-15.82.51-31.76,1.46-47.55,4.1,39.5,5.94,79.34,8.5,119.01Z"/>
  <polygon class="st9" points="854 0 1024 0 1024 170 854.94 169.56 854 0"/>
  <polygon class="st9" points="169 0 169.01 170.01 0 169 0 0 169 0"/>
  <path class="st8" d="M328,814H0v-132c40.32-9.94,81.31-2.82,113.01,24.49,23.25,20.03,35.08,53.35,71.48,51.49,22.99-1.17,36.13-8.32,61.54-3.52,33.29,6.3,64.28,31.45,81.97,59.53Z"/>
  <path class="st9" d="M852,0v170.01s-132,0-132,0c.08-.65-.05-1.34,0-2,2.57-3.01.53-7.85,0-11-2.91-17.28-14.53-30.59-32-34l-4.06-1.57.06-121.43h168ZM820.8,75.82c.73-1.26.2-3.27-.74-4.39-3.91-.77-11.35-12.47-13.56-12.46-1.93,0-7.05,7.05-8.98,9.06-2.24,2.33-5.57,2.61-5.63,6.49-.02,1.6,7.02,5.85,8.64,7.45,1.92,1.89,3.29,6.84,6.13,6.91,2.03.05,5.45-6.58,7.3-8.41,1.25-1.23,6.63-4.28,6.84-4.64Z"/>
  <path class="st14" d="M0,172h169v164h-92c-.71-1.09-2.03-3.06-3.49-3.01-.27,1.33-2.06,2.25-2.51,3.01H0v-164ZM121.89,206.12c-3.37-1.95-8.58,9.88-10.89,12.38s-13.6,9.25-13.92,11.14c-.43,2.54,10.57,8.43,12.97,10.82,2.68,2.66,7.47,12.56,10.46,12.58,3.26.02,7.59-11.17,10.97-13.06,1.7-2.34,12.35-7.48,12.6-9.48.15-1.19.09-1.7-.73-2.59-2.34-2.52-9.26-5.17-12.87-8.89-2.24-2.32-7.92-12.51-8.59-12.9Z"/>
  <path class="st14" d="M1024,172v164l-39-1c-5.34-11.79-11.18-23.38-16.13-35.37l-2.85-1.63c-4.79,13.04-11.33,25.36-17.01,38h-49c-15.76-12.46-30.71-25.98-46-39v-125.01s170,0,170,0ZM908.01,224.02c-.43.63.15,2.03.97,2.51,3.87.88,12.41,13.52,14.52,13.51,1.05,0,1.89-.73,2.57-1.47.76-3.36,11.98-11.52,11.99-13.05,0-2.78-5-4.86-6.55-6.52-1.85-1.98-5.78-8.7-8.01-9.04l-8.49,9.56c-.78,1.5-6.77,4.17-7,4.51Z"/>
  <path class="st9" d="M511,0v170.01s-101,0-101,0c1.14-37.84-30.06-71.07-68-72V0h169Z"/>
  <path class="st14" d="M340,0v98c-38.54.71-69.3,32.69-69,71h-100.01s0-169,0-169h169ZM206.63,61.07c-1.76.3-7,8.98-9.09,10.97-1.71,1.63-8.24,5.15-8.49,6.57-.37,2.04,4.91,4.87,6.48,6.36,2,1.9,10.61,12.24,11.86,11.98,1.35-.28,6.03-7.86,7.61-9.45s10.35-7.03,9.95-8.91c-2.07-2.76-5.49-3.82-7.97-6.09s-8.88-11.7-10.36-11.44Z"/>
  <path class="st9" d="M680,0c1.27,3.82-2.17,6.03-2.8,8.7-1.11,4.77.59,12.45.56,17.77,0,1.64-1.02,3.28-.81,4.85.1.72,1.63.75,2.02,1.39,2.84,4.56-2.67,4.48-3,5.98-.37,1.65.35,3.87,0,5.77-.29,1.57-1.99,2.87-2.01,4.07-.05,2.62,4.1,2.31,4.04,4.95-.39,1.63-7.1,1.89-7.96,4.29-1.95,5.45-.15,13.09-1.26,18.5-.64,3.12-4.2,6.05-4.62,8.46-.47,2.67,1.93,6.01.4,8.31s-4.93-.52-5.54-.06c-.18.14-.27,2.8-1.25,3.77-.91.91-3.52.92-4.34,2.23-.9,1.43.74,3.39-.13,5.7-2.07,5.5-6.36.98-7.83,3.26s-.15,15.06-5.63,3.72c-3.08-6.38-1.85-13.06-11.83-12.67.8,3.31,1.91,6.27-.12,9.43-.67,1.04-2.41,1.34-2.65,1.78-.77,1.35.57,9.62-2.72,8.79-2.39-.6-.09-7.58-.92-10.06-.89-2.67-3.87-3-4.43-4.61-.66-1.9.27-7.9-.16-8.34-2.75-1.12-4.32,2.67-5.63,2.9-1.19.21-3.07-2.55-5.71-1.98-1.23.26-1.1,3.91-3.65,3.07-.69-5.86-.86-8.88-7.5-9.08-8.68-.27-4.76,5.88-5.5,12.09l7.99-1c.05,1.87-.65,7.53,1.52,8,1.83.39,2.99-4.25,7.77-2.82,1.22.36,6.97,6.09,6.71,7.31-5.56,4.64-4.42-6.86-10.68,2.33-3.6-.83-15.03,2.35-16.83.19-1.7-2.04.09-6.19-4.48-5.01.14,3.12-.28,6.33.04,9.45.17,1.7,1.69,3.14,1.76,4.22.08,1.16-2.6,5.16-2.76,7.98-.12,2.07,1.14,4.22.8,5.66-.43,1.84-4.72,4.33-5.89,6.16-.99,1.55-.8,3.48-1.47,4.53-1.68,2.61-3.19-1.1-4.82-.86-1.39.2-3.01,3.25-6.14,2.91-1.91-.21-4.85-4.54-6.53-3.03-.41.37,4,7.2-6,4l1.56,7.02c-2.38,2.44-5.78,1.65-8.79,2.24-1,.19-1.99,1.54-3.35,1.73-3.11.43-11.51-1.86-12.95-5.03-1.2-2.64.74-4.91.61-7.47-.17-3.38-1.58-6.38-1.16-10.05.46-3.97,4.99-5.53,2.92-11.82-1.01-3.08-7.04-.73-9.87-2.13-2.21-1.09-3.11-8.54-3.07-11s1.72-13.73,5.08-10.51c.53.51-1.59,11.36,4,11-.71-6.23,5.35-10.55,5.07-16.48-.2-4.13-6.14-10.61-3.55-14.53.63-.95,2.41-.26,2.6-2.47.34-3.87-2.73-5.53-3.16-8.96-.69-5.47-.77-16.26-.85-22.15-.07-4.98,4.53-15.66-4.09-14.4.16,4.11-.72,9.54-2.06,13.45-1.45,4.23-3.88,2.87-3.99-.9-.06-2.34-.18-7.96-.04-10.03.2-2.94,5.58-12.61-1.92-12.51v-3c4.72,1.08,3.97-3.79,0-4V0h167ZM533,87.01h-3.99c.02,3.98,3.99,3.93,3.99,0ZM560.99,96.99c.65-.65-.03-5.54-2.48-4.99-3.83.87.2,7.28,2.48,4.99ZM534.99,97c-.96-1.07-4.06,2.05-2.99,2.99,1.71,1.51,4.49-1.3,2.99-2.99ZM622.51,102.01c-2.36.52-1.48,4.53.97,3.99s1.48-4.53-.97-3.99ZM576.99,118c.26-2.47.08-5.26-2.99-4.99-.26,2.47-.08,5.26,2.99,4.99Z"/>
  <path class="st6" d="M1024,910v114h-62c-7.4-2.87-15.4-4.05-22.96-6.54-34.56-11.39-79.94-42.72-38.05-77.97,31.09-26.16,83.97-30.49,123.01-29.49Z"/>
  <path class="st15" d="M945,520c-.05,4.73-.25,9.72.01,14.49,1.39,25.72,3.38,51.72,4.99,77.51.69,10.99.78,22.06,2,33.01,23.54-2.73,47.24-4.99,71-5.01h1v7c-51.47-6.08-98.89,12.2-133.51,49.99-17.57,19.18-34.54,51.63-61.45,57.55-19.96,4.39-35.97-3.67-55.01-7.06-16.7-2.97-32.12-2.99-49.01-1.49-1.12-9.95-1.37-20-2.01-29.99h49c-3.08-9.36-7.2-18.76-11-28,20-.08,40.44-3.03,60-7,5.43-1.1,10.66-2.6,16-4,31.75-8.33,61.66-22.78,94.31-28.19,2.06-.61,1.53-2.22,1.69-3.81.26-2.6,1-8.61,1-10.5v-16c0-1.2.86-5.14,1-7.5,1.82-29.64,3.12-59.36,5-89,.86-1.02,1.27-5.74,5-2Z"/>
  <path class="st6" d="M60,491c-2,3.81-14.55,26.17-14,28,0,1.41,1.85,1.6,2,0,5.21,0,11.19-.75,16,1-.22.4.23,2.44-.56,3.9-9.15,16.87-18.38,33.69-27.46,50.59-.21,2.08.11,1.32,1.5,1.51,5.59.8,12.73-.58,18.52,0-9.69,17.97-19.62,35.86-29,54h49l-1,31c-24.32-7.73-49.53-13.43-75-16v-156c20.02.12,40.14-.77,60,2Z"/>
  <path class="st14" d="M682,0v122c-26.9-1.47-44.9,22.24-42,48h-127.01c0-47.31,0-94.68,0-142,7.5-.1,2.12,9.57,1.92,12.51-.14,2.07-.02,7.7.04,10.03.1,3.78,2.53,5.13,3.99.9,1.34-3.91,2.21-9.34,2.06-13.45,8.62-1.26,4.02,9.41,4.09,14.4.08,5.89.16,16.68.85,22.15.43,3.44,3.5,5.09,3.16,8.96-.19,2.21-1.97,1.52-2.6,2.47-2.59,3.92,3.35,10.4,3.55,14.53.28,5.94-5.78,10.25-5.07,16.48-5.59.36-3.47-10.49-4-11-3.36-3.22-5.03,8.04-5.08,10.51s.86,9.91,3.07,11c2.82,1.4,8.85-.96,9.87,2.13,2.06,6.28-2.46,7.84-2.92,11.82-.43,3.67.99,6.67,1.16,10.05.13,2.56-1.81,4.82-.61,7.47,1.44,3.17,9.84,5.46,12.95,5.03,1.36-.19,2.36-1.54,3.35-1.73,3.01-.59,6.41.2,8.79-2.24l-1.56-7.02c10,3.21,5.59-3.63,6-4,1.68-1.52,4.62,2.82,6.53,3.03,3.13.34,4.75-2.7,6.14-2.91,1.63-.24,3.14,3.47,4.82.86.68-1.05.48-2.98,1.47-4.53,1.17-1.82,5.46-4.32,5.89-6.16.34-1.45-.92-3.59-.8-5.66.16-2.82,2.84-6.82,2.76-7.98-.07-1.08-1.59-2.52-1.76-4.22-.32-3.12.1-6.33-.04-9.45,4.57-1.18,2.79,2.97,4.48,5.01,1.79,2.16,13.22-1.02,16.83-.19,6.26-9.19,5.12,2.31,10.68-2.33.26-1.22-5.49-6.95-6.71-7.31-4.78-1.43-5.94,3.21-7.77,2.82-2.17-.46-1.47-6.13-1.52-8l-7.99,1c.73-6.21-3.18-12.36,5.5-12.09,6.65.2,6.82,3.23,7.5,9.08,2.55.84,2.42-2.8,3.65-3.07,2.64-.57,4.52,2.19,5.71,1.98,1.31-.23,2.88-4.02,5.63-2.9.43.44-.49,6.43.16,8.34.56,1.6,3.54,1.94,4.43,4.61.83,2.48-1.46,9.46.92,10.06,3.3.83,1.96-7.44,2.72-8.79.25-.44,1.99-.74,2.65-1.78,2.02-3.16.92-6.12.12-9.43,9.98-.39,8.74,6.29,11.83,12.67,5.48,11.34,4.17-1.46,5.63-3.72s5.76,2.23,7.83-3.26c.87-2.31-.76-4.27.13-5.7.82-1.31,3.43-1.32,4.34-2.23.98-.98,1.07-3.64,1.25-3.77.6-.46,4.07,2.26,5.54.06s-.87-5.64-.4-8.31c.42-2.41,3.98-5.35,4.62-8.46,1.11-5.4-.69-13.05,1.26-18.5.86-2.4,7.57-2.66,7.96-4.29.06-2.64-4.08-2.33-4.04-4.95.02-1.2,1.71-2.5,2.01-4.07.36-1.9-.36-4.11,0-5.77.33-1.5,5.84-1.41,3-5.98-.39-.63-1.92-.66-2.02-1.39-.22-1.57.8-3.22.81-4.85.03-5.32-1.67-13-.56-17.77.62-2.67,4.07-4.88,2.8-8.7h2Z"/>
  <path class="st14" d="M70,339c-12.9,23.01-25.11,46.47-38.02,69.49-.21,2.08.11,1.32,1.5,1.51,4.99.71,11.34-.52,16.52,0-7.71,13.76-16.46,28.64-23,43-.06.14-2.6,1.02,0,2h40v22c-2.43,4.59-4.58,9.39-7,14-19.86-2.77-39.98-1.88-60-2v-151l70,1Z"/>
  <path class="st6" d="M651,1024h-132c-2.29-15.71,11.9-24.91,24.76-29.74,24.55-9.23,58.95-9.38,83.48,0,11.77,4.5,28.15,15.05,23.76,29.74Z"/>
  <path class="st6" d="M0,1005v-62c15.05.69,30.47,1.9,44.36,8.14,28.85,12.98,26.33,34.33-1.68,46.04-13.45,5.62-28.22,7.23-42.68,7.82Z"/>
  <path class="st14" d="M1024,338v74h-1c-11.62.39-23.39-.53-35,0-5.3-4.31-9.49-10.34-16-13,0-2.99,0-6.01,0-9,.18,0,1.55-1.07,3.38-1.07,7.96-.03,15.68,1.19,23.61,1.07l-16-32.99c3.66-.05,7.34.04,11,0l-7-18.99h37Z"/>
  <path class="st13" d="M171,0v169.01s100,0,100,0c0,.99-.07,2.01,0,3h-100v164h169v-99c.67,0,1.33.02,2,0v99.01s77,.99,77,.99c-1.99.87-1.73.8-4,1-23.32,2.01-49.39-1.5-73.01,0v53.01c-.42.3-1.01,1.29-1.99,2v-55h-169v82c-.93.07-1.36-.55-2-1v-81.01s-91,0-91,0c-.66-.49-.68-1.5-1-2h92v-164H0v-3l169.01,1.01V0s1.99,0,1.99,0Z"/>
  <path class="st13" d="M854,0l.94,169.56,169.06.44v2h-170.01s0,125,0,125c-.85-.73-1.44-1.52-2-2v-123.01s-133,0-133,0c.18-.9.97-1.79,1-2h132.01s0-170,0-170h2Z"/>
  <path class="st13" d="M513,0v28c0,47.32,0,94.69,0,142.01h127.01c.02.21.83,1.12,1,1.99l-128.01-1.01v97.01c-.13.1-.09.64-1.99,2v-98.01s-101-.99-101-.99c.02-.33-.01-.67,0-1h101.01s0-170,0-170h2Z"/>
  <path class="st13" d="M684,0l-.06,121.43,4.06,1.57c-.97-.19-5.47-.97-6-1V0h2Z"/>
  <rect class="st2" x="1023" y="412" width="1" height="228"/>
  <path class="st13" d="M342,0v98c-.66-.02-1.34-.01-2,0V0h2Z"/>
  <path class="st13" d="M71,336c-.17.29-.26,1.68-1,3l-70-1v-2h71Z"/>
  <path class="st13" d="M1024,336v2h-37c-1-.8-1.49-1.87-2-3l39,1Z"/>
  <path class="st6" d="M71,905c-4.7-17.32,9.04-32.44,22.27-41.23,49.15-32.63,164.37-33.86,210.2,5.26,2.17,1.85,12.91,11.16,7.84,12.79l-84.31,14.2c-.16,1.53,2.66,1.42,3.81,1.67,17.87,3.8,36.23,5.96,54.18,9.32,9.19,1.72,18.23,3.54,27.5,5.02,3.96.63-1.14,5.91-2.47,7.5-28.18,33.62-106.04,38.95-146.4,34.36-27.27-3.1-84.36-18.41-92.62-48.88ZM164,868c-17.74,2.41-23.79,26.34-8.93,36.43,7.02,4.77,18.57,5.05,22.93-3.43,1.49.28,3.51-.28,5,0,.32.06.67-.05,1,0,1.15.19,5.72.89,6,1,.32.12,2.63,3.01,5.32,4.18,25.96,11.29,37.58-34.89,8.68-37.18-.19-.53-6.01-8.34-6.76-9.02-7.71-6.93-19.98-7.05-27.28.48-.75.77-5.77,7.1-5.96,7.54Z"/>
  <path class="st7" d="M489.99,926.99c-4.1.26-28.37-.61-29.98,1.02-.19.19-.22,4.04.2,4.78.18.33,3.63,1.86,4.71,2.79,14.78,12.77,14.68,27.85-1.01,39.83-30.48,23.28-104.46,23.75-134.39-.43-33.12-26.77,9.14-49.19,34.25-54.7,28.34-6.21,43.79-1.94,70.83,1.62,7.49.99,11.76-.72,19.78,2.21,1.33.48,3.71,2.71,4.12,2.7,2.74-.03,17.92-18.31,19.95-17.81,1.14,2.63,13.26,16.34,11.53,17.99ZM424,922.01c-24.25-3.52-49.33-3.31-72.67,4.82-26.66,9.28-47.14,31.48-14,50.35,28.01,15.94,75.44,16.67,105.35,6,14.18-5.06,36.92-17.31,28.5-35.85-1.26-2.77-7.9-10.93-10.85-11.18-1.05-.09-12.28,10.65-12.85,11.89-1.7,3.71,2.91,8.04-2.95,15.99-11.66,15.81-42.22,17.49-60.01,15.96-8.03-.69-15.6-2.18-24.02-2.89-8.13-.69-24.64-1.13-21.04-13.13.94-3.13,5.19-6.07,6.02-7.98,1.14-2.61.37-5.17,2.32-8.68,7.6-13.69,33.26-17.72,47.46-17.54l28.74-7.75ZM385,933.01c-12.31,1.32-33.68,5.75-35.99,19.99l13.32-9.17,22.67-10.82ZM376,975.99c14.45,2.47,27.64,2.91,42.01-.48,11.59-2.73,31.41-10.27,25.98-25.51-20.45,13.47-41.89,18.63-65.21,24.28-1,.24-3.01.3-2.77,1.7Z"/>
  <path class="st3" d="M822.98,912.01c.82.57,5.24,16.44,6.01,18.99-3.81.94-26.74-2.32-27.99-.99-.19.2.17,3.03-.23,4.25-7.28,22.42-59.88,37.78-81.23,38.79-38.17,1.81-40.1-17.17-9.56-34.56,19.66-11.19,60.42-24.23,82-15.97,3.7,1.42,6.5,2.97,8.51,6.47l19.51-16.48c.7-.48,2.5-.82,2.98-.49Z"/>
  <path class="st6" d="M804,874.01l45.99-8.02c.24-1.41-1.77-1.46-2.77-1.7-12.87-3.11-26.72-3.91-39.42-7.61-1.1-.32-3.56-.35-2.79-2.16.43-1.01,5.38-5.39,6.66-6.34,24.75-18.23,85-18.78,109.24.41,16.1,12.75,12.19,26.85-4.25,36.59-26.71,15.82-81.95,16.26-106.59-3.75-1.04-.84-7.27-6.27-6.08-7.41Z"/>
  <path class="st12" d="M614,847.01c.23,1.45-1.76,1.39-2.79,1.68-10.84,3.11-21.61,5.78-27.77,16.37-4.2.28-20.48-18.52-.83-20.95,10.97-1.35,20.72,1.64,31.38,2.9Z"/>
  <path class="st6" d="M312,553c25.74,2.44,63.89,14.06,88,24,5.25,2.16,14.47,5.8,19,8,.2.1.7,1.37,1.63,1.83,42.07,20.79,81.25,50.15,114.37,83.17-43.58,14.1-96.18,37.71-134.02,63.48-1.44.98-3.14,1.05-2.98,3.52-44.06-12.19-81.87-33.16-128-42l-5.01-142.01c15.14,1.06,32.1-1.41,47.01,0Z"/>
  <path class="st6" d="M169,419c.64.45,1.07,1.07,2,1l3.5,6.98c7.4-14.78,22.78-19.08,37.49-11.97l-15.3,6.18c-5.19,3.03-9.68,6.84-13.67,11.32,12.87-7.4,28.9-7.45,36.98,6.48-11.63-2.21-22.38-1.32-32.99,4.02.74,1.65,4.16-.15,6.33.06,7.71.74,16.58,4.82,18.66,12.93h-34v27.5c0,7.27.72,15.9,1,23.5.09,2.44-.6,7.23.48,9.02.45.74,5.7,2.95,6.52,2.98l-3,5.99c5.43-1.41,10.5-1.61,16-1.99l22,9c-10.47,3.28-20.9,9.77-24,21h58l-4,139c-5.45-.76-14.58-3-19.5-3h-15c-3.86,0-11.02-.71-15.5-1l-1-33c9.38-.04,23.93,1.28,32.53,0,1.46-.22,1.62.59,1.5-1.52l-39.54-96.46-39.52,96.48c-.1,2.1,0,1.29,1.49,1.51,8.68,1.26,23.1-.04,32.53,0l-1,32c-37.8-2.45-57.55-7.67-93-19l-2-38c16.3.38,32.69-.28,48.99,0l-27.99-53.99c5.79-.58,12.93.8,18.52,0,1.39-.2,1.71.56,1.5-1.51-8.69-16.24-17.71-32.3-26.54-48.47-1.32-2.41-1.83-5.82-2.48-7.02,5.64-.17,11.36.23,17,0,.08,0,.89,1.51,1,0,1.58-.1.87-.98.47-1.95-2.12-5.15-6.68-12.71-9.47-18.05l54.99,13,2.01-56h-34c2.65-9.43,12.92-13.28,22-13.01-.71-2.11-9.01-4.99-10.5-4.99h-16c-.48,0-1.86,1.49-2.98,1.02-2.62-.14,3.86-5.87,4.57-6.43,9.18-7.18,18.74-5.97,28.91-1.59,1.61-1.53-7.17-7.5-8.3-8.19-5.1-3.12-11.78-5.81-17.69-6.82,10.52-8.35,22.15-3.97,32,3.01ZM164.5,432v1c.65-.33.65-.67,0-1Z"/>
  <path class="st2" d="M688,638c-2.48,4.97-16.69,33-16.85,35.71-.25,4.12,6.33,1.62,8.41,1.34,1.5-.2,1.7-.15,1.45,1.46-.88,5.61-7.52,16.66-10.01,22.5-43.28,10.79-82.26,33.09-125.99,42.51-47.27,10.18-100.48,8.36-147.01-4.51-.16-2.47,1.54-2.54,2.98-3.52,37.84-25.77,90.43-49.38,134.02-63.48,49.54-16.03,101.17-26.5,153-32Z"/>
  <path class="st1" d="M221,479c3.96.08,10.34.77,14,2,1.71.57,9.64,4.93,11,6,5.99,4.7,8.94,11.49,12.76,17.71.38.62-.05,1.9,1.73,1.29.56-.19,4.39-8.58,5.68-10.33,12.69-17.27,37.78-22,55.81-10.17-17.31,5.98-35.83,12.54-46.96,28.01,8.43-3.25,16.14-8.1,25.51-8.51,13.2-.58,30.03,7.44,35.46,20-18.88-5.9-38.81-1.78-55.98,7.01-.15,2.29,1.94-.01,2.49-.01h15c2.13,0,10.49,3.84,12.8,5.2,5.94,3.5,10.94,8.98,12.7,15.79h-11c-14.9-1.41-31.87,1.06-47.01,0l5.01,142.01c-6.26-1.2-12.69-2.12-19-3l4-139h-58c3.1-11.23,13.53-17.72,24-21h13.99c1.92-1.69-6.06-5.1-7.01-5.49-9.71-3.92-18.94-4.21-28.99-3.51-5.5.38-10.57.58-16,1.99l3-5.99c1.99.07,8.5-6.57,11.31-8.19,11.37-6.57,25.72-6.97,37.69-1.81,4.08,1.76,7.91,5.64,11.98,7.51-2.68-3.63-5.68-6.99-8.96-10.08-1.14-1.07-2.72-1.17-3.02-1.43-11.54-9.99-14.29-11.01-29-16-2.3-.78-5.52-3.57-9-3.01,5.6-5.5,16.17-7.15,24-6.99Z"/>
  <path class="st6" d="M688,638c9.01-18.03,19.61-35.32,27.61-53.89l6.86-4.13c7.33,18.14,16.29,35.86,23.53,54.03,3.45,8.65,11.41,27.49,12.84,35.68.55,3.17-5.73-.52-4.8,2.77,1.26,4.46,5.09,10.97,6.96,15.54,3.79,9.24,7.92,18.64,11,27.99h-49c-2.56-39.66-4.4-79.5-8.5-119.01-.95,15.79-.78,31.73-1.46,47.55-1.02,23.8-2.97,47.99-4.04,71.46h-45c2.85-5.43,4.61-11.4,7-17s9.13-16.89,10.01-22.5c.25-1.61.05-1.66-1.45-1.46-2.08.28-8.66,2.78-8.41-1.34.16-2.71,14.37-30.74,16.85-35.71Z"/>
  <path class="st8" d="M85,526v37c-1.68,5.08-1.67,12.99,0,18,.04,16.32-.02,32.68,0,49.01,2.66.04,5.35-.07,8.01,0l2,38c-6.88-2.2-13.43-4.91-20-7l1-31H27c9.38-18.14,19.31-36.03,29-54,8.81-16.34,17.72-32.7,25.93-49.37.63-1.2,2.75-.39,3.07-.63Z"/>
  <path class="st1" d="M200,655l1,33c-4.31-.28-8.99-.74-13-1l1-32c3.66.01,7.34.01,11,0Z"/>
  <path class="st3" d="M682,122c.53.03,5.03.81,6,1,17.47,3.41,29.09,16.72,32,34-.2,3.63.29,7.38,0,11-.05.66.08,1.35,0,2-.03.21-.82,1.1-1,2-.54,2.69-1.03,5.43-2,8-.75,2-4.18,5.11-4,8-5.36.71-7.7,6.21-12.47,9.03-2.89,1.71-6.49,2.54-9.53,3.97-6.92-.03-15.47.93-23,1-4.52-3.36-10.21-5.25-14.48-9.02-1.35-1.19-6.68-6.77-7.52-7.98-.44-.64-3.82-6.53-4-7-.28-.72-.72-4.54-1-6-.17-.88-.98-1.78-1-2-2.9-25.76,15.1-49.47,42-48ZM676.76,139.26c-26.49,3.54-26.13,42.45-1.02,46.5,35.92,5.79,36.28-51.21,1.02-46.5Z"/>
  <path class="st12" d="M820.8,75.82c-.21.36-5.59,3.42-6.84,4.64-1.85,1.82-5.27,8.46-7.3,8.41-2.83-.07-4.21-5.01-6.13-6.91-1.62-1.6-8.66-5.85-8.64-7.45.06-3.88,3.39-4.16,5.63-6.49,1.93-2.01,7.05-9.05,8.98-9.06,2.21,0,9.65,11.7,13.56,12.46.94,1.12,1.47,3.13.74,4.39Z"/>
  <path class="st13" d="M720,168c.29-3.62-.2-7.37,0-11,.53,3.15,2.57,7.99,0,11Z"/>
  <path class="st6" d="M77,336c.32.5.34,1.51,1,2l38.02,70.49c.21,2.08-.11,1.32-1.5,1.51-4.99.71-11.34-.52-16.52,0-4.68-3.72-21.23-40.35-23.51-41.01-2.02-.58-3.86,7.18-5.66,8.33-5.44,11.29-12.84,21.99-18.83,32.67-5.18-.51-11.53.71-16.52,0-1.39-.2-1.71.56-1.5-1.51,12.91-23.02,25.12-46.48,38.02-69.49.74-1.32.83-2.71,1-3,.45-.76,2.24-1.68,2.51-3.01,1.46-.05,2.78,1.92,3.49,3.01Z"/>
  <path class="st12" d="M121.89,206.12c.67.39,6.35,10.59,8.59,12.9,3.61,3.72,10.53,6.37,12.87,8.89.83.89.88,1.4.73,2.59-.25,2-10.91,7.15-12.6,9.48-3.38,1.89-7.71,13.08-10.97,13.06-2.98-.02-7.78-9.92-10.46-12.58-2.39-2.38-13.4-8.28-12.97-10.82.32-1.89,11.64-8.67,13.92-11.14s7.52-14.33,10.89-12.38Z"/>
  <path class="st10" d="M852,295c.56.48,1.15,1.27,2,2,15.29,13.02,30.24,26.54,46,39,.59,1.42,1.58,1.78,3,2-.16,3.58,4.46,3.05,4,6-2.85,1.47-7.67,6.6-8.01,10-5.68-6.26-10.04-12.05-19.49-12.07-1.35,0-10.11,1.69-10.5,2.09-1.65,1.68.51,1.68,1.4,2.08,6.46,2.91,14.43,3.61,18.59,10.89-9.5-3.38-22.52-4.12-26.99,7.01,8.31-2.05,17.11-1.41,24.99,2.02l-11.03,2.45c-3.49,1.74-7.02,4.49-7.96,8.54h27v34.5c0,.34-.95,1.67-1.04,2.96-.24,3.48.23,7.05.04,10.54-6.83,4.72-22.52,7.05-32,10-4.28-7.75-8.75-15.54-13.47-23.03-.96-1.52-1.13-3.09-3.53-2.97.03-1-.05-2.01,0-3h21c1.09-.93-3.23-4.96-4.03-5.46-2.7-1.68-6.31-1.2-7.95-3.53,5.84-1.59,11-2.78,16.99-1.02-3.17-8.84-13.75-7.87-20.99-5,3.59-5.56,10.26-7.29,15.99-9.49-7.8-5.66-18.37-1.63-22.49,6.49-4.31-6.63-7.58-8.93-15.5-9-7.75-13.54-14.96-28.27-24-41-.57-.81-.78-1.73-2-2-1.26-7.45-18.1-26.08-18-32,.02-1.17,2-7.81,2-9.5v-42c0-.32.92-1.69,1.04-2.96.23-2.43-.99-5.97.96-7.54,20.83,17.75,42.97,35.08,64,53Z"/>
  <path class="st6" d="M985,335c.51,1.13,1,2.2,2,3l7,18.99c-3.65.05-7.34-.04-11,0-10.63.14-21.37.13-32,0-3.65-.05-7.34.04-11,0,2.39-6.42,5.21-12.75,8-18.99.3-.68.7-1.32,1-2,5.68-12.64,12.22-24.96,17.01-38l2.85,1.63c4.96,11.98,10.79,23.57,16.13,35.37Z"/>
  <path class="st12" d="M908.01,224.02c.24-.34,6.22-3.01,7-4.51l8.49-9.56c2.23.34,6.15,7.06,8.01,9.04,1.56,1.66,6.56,3.74,6.55,6.52,0,1.53-11.23,9.69-11.99,13.05-.68.74-1.53,1.47-2.57,1.47-2.12,0-10.65-12.63-14.52-13.51-.82-.47-1.39-1.88-.97-2.51Z"/>
  <path class="st13" d="M949,336c-.3.68-.7,1.32-1,2-13.75-1.5-31.8,2.02-45,0-1.42-.22-2.41-.58-3-2h49Z"/>
  <path class="st4" d="M340,98c.66-.01,1.34-.02,2,0,37.94.93,69.14,34.16,68,72-.01.33.02.67,0,1-2.14,35.64-32.22,65.13-68,66-.67.02-1.33,0-2,0-35.98-.21-66.46-29.26-69-65-.07-.99,0-2.01,0-3-.3-38.31,30.46-70.29,69-71Z"/>
  <path class="st12" d="M206.63,61.07c1.48-.25,8,9.29,10.36,11.44,2.48,2.26,5.9,3.32,7.97,6.09.4,1.88-8.33,7.29-9.95,8.91s-6.27,9.17-7.61,9.45c-1.25.26-9.86-10.08-11.86-11.98-1.57-1.49-6.84-4.32-6.48-6.36.25-1.41,6.78-4.94,8.49-6.57,2.09-2,7.33-10.67,9.09-10.97Z"/>
  <path class="st14" d="M560.99,96.99c-2.28,2.29-6.31-4.12-2.48-4.99,2.45-.55,3.13,4.34,2.48,4.99Z"/>
  <path class="st14" d="M576.99,118c-3.07.27-3.24-2.52-2.99-4.99,3.07-.27,3.24,2.52,2.99,4.99Z"/>
  <path class="st14" d="M622.51,102.01c2.45-.54,3.33,3.47.97,3.99s-3.33-3.47-.97-3.99Z"/>
  <path class="st14" d="M513,21c3.97.21,4.72,5.08,0,4v-4Z"/>
  <path class="st14" d="M533,87.01c0,3.93-3.97,3.98-3.99,0h3.99Z"/>
  <path class="st14" d="M534.99,97c1.5,1.69-1.28,4.5-2.99,2.99-1.07-.94,2.03-4.06,2.99-2.99Z"/>
  <path class="st1" d="M1023,412v228c-23.76.02-47.46,2.27-71,5.01-1.23-10.95-1.31-22.02-2-33.01,13.44-1.18,29.43,1.56,42.55.05,1.5-.17,2.53-.11,3.46-1.57-9.39-15.92-17.84-32.45-27-48.48,6.15-.58,13.55.79,19.52,0,1.39-.18,1.73.55,1.47-1.49-8.9-13.83-16.71-28.33-24.99-42.52,4.28-.39,9.37.56,13.52,0,1.39-.19,1.73.55,1.47-1.48l-37.49-65.5-37.49,65.5c-.26,2.03.08,1.3,1.47,1.49,4.15.55,9.23-.39,13.52,0-8.22,14.15-16.66,28.45-24,43-10.9-8-27.76-10.38-40.26-4.76l-12.74,6.75c6.65-10.27,19.18-18.41,30.33-23.16,4.42-1.89,13.96-3.68,16.69-5.31,1.66-.99.53-1.7-.63-2.4-16.56-9.93-41.55-4.59-53.36,10.4-2.1,2.66-5.56,11.03-6.04,11.47-1.57,1.46-1.71-.49-2.23-1.28-1.92-2.98-2.92-6.44-5.35-9.63-13.19-17.35-36.77-19.83-55.41-10.07.14,1.53,1.51,1.53,2.55,1.93,4.76,1.85,10.24,2.81,15.13,4.87,11.04,4.67,23.61,13.19,30.32,23.17l-13.46-7.03c-14.22-4.81-28.74-2.97-40.45,6.62-1.47,1.2-9.36,8.89-8.07,10.42,18.34-5.79,37.05-2.18,53.98,6.01.23,1.78-2.25.98-3.36.87-2.95-.29-4.51-1.02-8-.77-11.96.86-25.76,9.13-29.63,20.88,19.32.04,38.68-.04,58,0-1.73,11.24-.7,22.66-1,34h-77c-7.24-18.16-16.2-35.88-23.53-54.03l-6.86,4.13c-8,18.57-18.6,35.87-27.61,53.89-51.83,5.5-103.46,15.97-153,32-33.12-33.02-72.31-62.38-114.37-83.17-.93-.46-1.43-1.73-1.63-1.83,28.33-21.82,58.87-41.24,92-55,.76-.32,1.42-.77,2-1,17.11-6.94,36.02-12.78,54-17,2.09-.49,4.53-1.69,6-2,10.06-2.11,20.79-3.28,31-4,.09.52-.21,1.2.19,1.75,7.49.52,15.23.19,22.81.25s14.68-.03,22,0c4.32.01,8.68,0,13,0,11.98.03,24.02.02,36,0,4.65,0,9.35.01,14,0,6.99-.02,14.01.03,21,0,7.65-.03,15.35.02,23.01,0,.03-10.99-.06-22.02,0-33.01,28.66-9,55.67-23.13,84-33,1.85-.64,4.21-1.4,6-2,5.01-1.68,10.85-3.4,16-5,9.48-2.95,25.17-5.28,32-10,.42-.29,6.87-.33,10-1,19.27-4.1,38.41-6.82,58-9,3.42-.38,7.95-1.74,11-2,.66-.06,1.34.05,2,0,.66,1.58,4.34,1.58,5,0,2.7-.18,6.27-.92,8-1,11.61-.53,23.38.39,35,0Z"/>
  <path class="st1" d="M916,562l-27,49.99,46-.99c-.14,2.36-1,6.3-1,7.5v16c0,1.89-.74,7.9-1,10.5l-97-10c0-.18-1.03-1.58-1.07-3.38-.25-10.52.34-21.11.07-31.62,18.99-.03,38.01.03,57-.01-5.49-12.86-17.85-20.4-31.66-20.92-3.11-.12-6.35,1.94-9.34.43,16.28-10.11,35.54-10.72,53.99-7.52-2.49-2.92-5.18-7.57-8-9.99h19Z"/>
  <path class="st2" d="M823,634c-.11,4.08-.96,7.88-1.04,11.46-.27,11.8,1.07,23.97-.96,35.54-19.56,3.97-40,6.92-60,7-1.88-4.57-5.7-11.08-6.96-15.54-.93-3.29,5.35.4,4.8-2.77-1.42-8.19-9.39-27.03-12.84-35.68h77Z"/>
  <path class="st6" d="M965,518c8.28,14.19,16.09,28.69,24.99,42.52.26,2.03-.08,1.3-1.47,1.49-5.97.79-13.37-.58-19.52,0-7.99-13.98-16.84-27.53-24-42-3.73-3.74-4.14.98-5,2-9.36,11.12-15.08,28.07-24,40h-19c-.37-.31-.67-.76-1-1,7.34-14.55,15.78-28.85,24-43,7.38-12.7,14.65-25.55,22.5-37.98,7.85,12.44,15.1,25.29,22.5,37.98Z"/>
  <path class="st2" d="M933,645c-.16,1.58.37,3.19-1.69,3.81-32.65,5.41-62.56,19.86-94.31,28.19-1.91-13.84-.71-28.02-1-42l97,10Z"/>
  <path class="st5" d="M969,562c9.16,16.03,17.61,32.56,27,48.48-.93,1.46-1.95,1.4-3.46,1.57-13.12,1.52-29.11-1.22-42.55-.05-1.61-25.79-3.59-51.79-4.99-77.51-.26-4.77-.06-9.76-.01-14.49,7.16,14.47,16.01,28.02,24,42Z"/>
  <path class="st5" d="M935,611l-46,.99,27-49.99c8.92-11.93,14.64-28.88,24-40-1.88,29.64-3.18,59.36-5,89Z"/>
  <path class="st5" d="M835,600c.26,10.51-.33,21.1-.07,31.62.04,1.8,1.07,3.2,1.07,3.38.29,13.98-.91,28.16,1,42-5.34,1.4-10.57,2.9-16,4,2.03-11.57.69-23.74.96-35.54.08-3.58.93-7.38,1.04-11.46.3-11.34-.73-22.76,1-34,3.74,0,7.26,0,11,0Z"/>
  <path class="st2" d="M64,520c.13-.24,1.82-.88,2.44-2.02,5.99-11,11.92-22.05,18.07-32.98,2.04-.47,1.35.84,1.97,1.97,5.9,10.76,12.84,21.65,18.52,32.03.66,1.2,1.17,4.61,2.48,7.02,8.82,16.16,17.84,32.23,26.54,48.47.21,2.08-.11,1.32-1.5,1.51-5.59.8-12.73-.58-18.52,0-10.07-16.88-19.49-34.27-28.01-51.99-1.77-.44-.69,1.78-.99,1.99-.32.23-2.44-.58-3.07.63-8.21,16.67-17.12,33.03-25.93,49.37-5.79-.58-12.93.8-18.52,0-1.39-.2-1.71.56-1.5-1.51,9.09-16.9,18.32-33.72,27.46-50.59.79-1.46.34-3.5.56-3.9Z"/>
  <path class="st11" d="M91,455c7.85,14.46,15.39,29.39,23,44,2.79,5.35,7.35,12.91,9.47,18.05.4.96,1.11,1.84-.47,1.95h-1c-5.64.23-11.36-.17-17,0-5.68-10.38-12.62-21.26-18.52-32.03-.62-1.13.07-2.44-1.97-1.97-6.15,10.92-12.08,21.97-18.07,32.98-.62,1.13-2.31,1.78-2.44,2.02-4.81-1.75-10.79-1-16-1h-2c-.55-1.83,12-24.19,14-28,2.42-4.61,4.57-9.41,7-14,3.86-7.3,7.34-14.81,11-22,.12-.24,1.54-1.01,2.2-2.26,1.45-2.77,3.05-5.7,3.82-8.74,2.77,2.87,5.06,7.45,6.99,11Z"/>
  <path class="st2" d="M48,519c-.15,1.6-1.99,1.41-2,0h2Z"/>
  <path class="st1" d="M50,410c5.98-10.68,13.38-21.39,18.83-32.67,1.81-1.16,3.65-8.92,5.66-8.33,2.28.66,18.83,37.28,23.51,41.01l24,44.99h-31c-1.93-3.55-4.22-8.13-6.99-10.99-.76,3.04-2.37,5.97-3.82,8.74-.65,1.25-2.07,2.02-2.2,2.26H27v-2c6.54-14.36,15.29-29.24,23-43Z"/>
  <path class="st6" d="M78,455c-3.66,7.19-7.14,14.7-11,22v-22h11Z"/>
  <path class="st6" d="M27,455c-2.6-.98-.06-1.86,0-2v2Z"/>
  <path class="st2" d="M983,357l16,32.99c-7.93.12-15.65-1.1-23.61-1.07-1.83,0-3.2,1.07-3.38,1.07-3.35.03-6.61-.07-10,0-.03-.66.05-1.34,0-2h-24.01c-.4-3.44,1.66-6.34,3.04-9.26.99-2.09,1.17-2.86,1.96-4.74,2.46-5.79,5.02-11.46,8-17,10.63.13,21.37.14,32,0Z"/>
  <path class="st6" d="M943,374c-.8,1.88-.98,2.65-1.96,4.74-1.38,2.92-3.44,5.82-3.04,9.25h24.01c.05.67-.04,1.34,0,2,3.39-.07,6.65.03,10,0,0,2.99,0,6.01,0,9,0,4.57-.72,9.83,1,14-3.05.26-7.58,1.62-11,2-.29-8.29.4-16.72,0-25-8.98.18-18.01-.13-27,0-1.04-.94,7.07-13.15,7-15.99h1Z"/>
  <path class="st10" d="M988,412c-1.73.08-5.3.82-8,1-1.65.11-3.35-.13-5,0-.66.05-1.34-.06-2,0-1.72-4.17-1.01-9.43-1-14,6.51,2.66,10.7,8.69,16,13Z"/>
  <path class="st14" d="M271,172c2.54,35.74,33.02,64.79,69,65v99h-169v-164h100Z"/>
  <path class="st14" d="M410,171l101.01.99v98.01c-29.22,20.92-57.75,43.27-87.01,64-.4.28-1.28.52-2,1-.92.61-2.08,1.6-3,2l-77.01-.99v-99.01c35.79-.87,65.87-30.36,68.01-66Z"/>
  <path class="st14" d="M171,420v-82h169v55c-9.75,6.98-20.49,14.34-29.91,21.59-2.02,1.56-5.63,3.8-6.09,6.41-1.91-2.34-8.54-7.82-11.32-9.18-13.09-6.41-26.72-3.52-38.66,3.69,9.12-12.92,25.01-19.87,39.98-23.52-18.67-13.74-44.78-3.62-53.5,17.01-7.88-20.7-35.61-30.54-53.49-17.01,20.22,4.6,41.19,17.66,48.76,37.75,3.79,10.06,1,9.58.32,17.84-.57,6.96-.73,14.57-1.08,21.42-4.89,2.19-10.33,6.02-14,10-7.83-.16-18.39,1.49-24,6.99,3.48-.56,6.7,2.23,9,3.01-7.28,5.59-14.73,11.06-22.43,16.07-1.48.96-2.29,2.4-4.57,1.93-.28-7.6-1-16.23-1-23.5v-27.5h34c-2.08-8.1-10.96-12.19-18.66-12.93-2.17-.21-5.59,1.59-6.33-.06,10.62-5.34,21.36-6.23,32.99-4.02-8.08-13.93-24.11-13.88-36.98-6.48,3.99-4.48,8.49-8.29,13.67-11.32l15.3-6.18c-14.71-7.11-30.1-2.82-37.49,11.97l-3.5-6.98Z"/>
  <path class="st14" d="M78,338h91.01s0,81,0,81c-9.85-6.99-21.47-11.36-32-3.01,5.91,1,12.59,3.69,17.69,6.82,1.13.69,9.91,6.66,8.3,8.19-10.17-4.38-19.73-5.59-28.91,1.59-.72.56-7.19,6.29-4.57,6.43,1.12.47,2.51-1.02,2.98-1.02h16c1.49,0,9.78,2.88,10.5,4.99-9.08-.27-19.35,3.58-22,13.01h34l-2.01,56-54.99-13c-7.61-14.61-15.15-29.54-23-44h31s-24-45-24-45c5.18-.51,11.53.72,16.52,0,1.39-.2,1.71.56,1.5-1.51l-38.02-70.49Z"/>
  <path class="st14" d="M415,338c.15,2.25-1.54,2.58-2.86,3.64-22.32,17.99-46.98,32.83-70.14,49.36v-53.01c23.61-1.49,49.68,2.02,73,0Z"/>
  <path class="st14" d="M719,172h133.01s0,123,0,123c-21.03-17.92-43.17-35.25-64-53-.08-.07.25-1.22-.7-2.03-23.44-19.97-47.26-39.55-70.3-59.97.97-2.57,1.46-5.31,2-8Z"/>
  <path class="st0" d="M642,178c.18.47,3.56,6.36,4,7l-95,151c-.67,0-1.33,0-2,0-35.5.04-71.03-.07-106.54.04l-18.46-2.04c29.26-20.73,57.79-43.08,87-64,1.9-1.36,1.86-1.9,2-2,37.03-26.52,75.23-53.26,112.69-79.81,5.06-3.59,10.63-8.01,16.31-10.19Z"/>
  <path class="st14" d="M641,172c.28,1.46.72,5.28,1,6-5.69,2.18-11.26,6.6-16.31,10.19-37.46,26.56-75.66,53.29-112.69,79.81v-97.01s128,1.01,128,1.01Z"/>
  <path class="st12" d="M164,868c.19-.44,5.21-6.77,5.96-7.54,7.3-7.53,19.57-7.4,27.28-.48.75.67,6.57,8.49,6.76,9.02.44,1.2,1.11,8.83,1.02,10.46-.55,10.19-7.01,17.21-15.02,22.54-.28-.11-4.85-.81-6-1l2-17c8.06-1.26,13.46-11.85,4.97-17.47-9.22-6.1-23.44,2.77-16.96,11.97,1.2,1.7,4.97,5.08,6.99,5.5l2,17c-1.49-.28-3.51.28-5,0-8.8-1.63-14.51-12.2-15.03-20.46-.17-2.61.13-10.38,1.03-12.54Z"/>
  <path class="st7" d="M190,902c8.01-5.33,14.47-12.35,15.02-22.54.09-1.64-.58-9.26-1.02-10.46,28.9,2.3,17.28,48.47-8.68,37.18-2.69-1.17-5-4.06-5.32-4.18Z"/>
  <path class="st7" d="M164,868c-.9,2.16-1.2,9.93-1.03,12.54.53,8.26,6.23,18.83,15.03,20.46-4.36,8.48-15.91,8.2-22.93,3.43-14.86-10.09-8.81-34.02,8.93-36.43Z"/>
  <path class="st7" d="M186,884l-2,17c-.33-.05-.68.06-1,0l-2-17c.98.2,3.95.16,5,0Z"/>
  <path class="st12" d="M424,922.01l-28.74,7.75c-14.2-.18-39.87,3.85-47.46,17.54-1.95,3.51-1.18,6.07-2.32,8.68-.83,1.9-5.09,4.85-6.02,7.98-3.6,12,12.92,12.44,21.04,13.13,8.42.72,15.99,2.2,24.02,2.89,17.79,1.53,48.35-.14,60.01-15.96,5.86-7.95,1.25-12.28,2.95-15.99.57-1.24,11.79-11.98,12.85-11.89,2.95.26,9.59,8.42,10.85,11.18,8.42,18.54-14.32,30.79-28.5,35.85-29.91,10.67-77.34,9.94-105.35-6-33.14-18.86-12.66-41.07,14-50.35,23.34-8.12,48.42-8.34,72.67-4.82Z"/>
  <path class="st12" d="M376,975.99c-.24-1.41,1.77-1.46,2.77-1.7,23.32-5.66,44.76-10.81,65.21-24.28,5.43,15.23-14.39,22.78-25.98,25.51-14.36,3.39-27.56,2.95-42.01.48Z"/>
  <path class="st12" d="M385,933.01l-22.67,10.82-13.32,9.17c2.31-14.24,23.68-18.67,35.99-19.99Z"/>
  <path class="st14" d="M441,511h70.01s0,19,0,19c-33.13,13.76-63.67,33.18-92,55-4.53-2.2-13.75-5.84-19-8-.33-2.09.86-3.17,1.78-4.72,12.36-20.82,26.3-40.82,39.22-61.28Z"/>
  <path class="st11" d="M189,655c-9.44-.04-23.85,1.27-32.53,0-1.5-.22-1.59.59-1.49-1.51l39.52-96.48,39.54,96.46c.11,2.11-.05,1.31-1.5,1.52-8.6,1.28-23.15-.04-32.53,0-3.66.01-7.34.01-11,0Z"/>
  <path class="st11" d="M114,576l27.99,53.99c-16.3-.27-32.69.38-48.99,0-2.66-.06-5.35.05-8.01,0-.02-16.32.04-32.68,0-49.01-.01-5.99,0-12.01,0-18v-37c.3-.21-.78-2.44.99-1.99,8.52,17.72,17.95,35.11,28.01,51.99Z"/>
  <path class="st0" d="M206,489c14.71,4.99,17.46,6.01,29,16v4c-11.97-5.16-26.32-4.76-37.69,1.81-2.81,1.62-9.31,8.26-11.31,8.19-.82-.03-6.07-2.24-6.52-2.98-1.08-1.79-.39-6.58-.48-9.02,2.27.47,3.08-.97,4.57-1.93,7.71-5.01,15.15-10.48,22.43-16.07Z"/>
  <path class="st0" d="M199,523c10.04-.7,19.28-.41,28.99,3.51.95.38,8.93,3.8,7.01,5.48h-13.99s-22-8.99-22-8.99Z"/>
  <path class="st14" d="M164.5,432c.65.33.65.67,0,1v-1Z"/>
  <path class="st2" d="M122,519h1c-.11,1.51-.92,0-1,0Z"/>
  <path class="st11" d="M235,469c.35-6.85.51-14.46,1.08-21.42.68-8.26,3.47-7.78-.32-17.84-7.57-20.09-28.54-33.16-48.76-37.75,17.88-13.53,45.61-3.7,53.49,17.01,8.72-20.63,34.83-30.74,53.5-17.01-14.96,3.65-30.86,10.6-39.98,23.52,11.94-7.2,25.57-10.1,38.66-3.69,2.78,1.36,9.41,6.84,11.32,9.18.45.56,1.8,3.14,1.51,3.98-2.51-1.76-5.75-.74-8.51-.98-.2-.02-1.11-.98-2.42-1.04-13.71-.68-24.48,1.86-36.57,8.05l12.39.1c3.89,1.05,9.09,2.05,12.61,3.89,5.28,2.76,9.58,8.58,12,13.99l-50,1.02,1,36.99c-1.36-1.07-9.29-5.43-11-6-.63-3.32.62-6.51.83-9.56.08-1.11-.84-2.15-.83-2.44ZM252.5,416v1c.65-.33.65-.67,0-1Z"/>
  <path class="st0" d="M235,469c-.02.29.9,1.33.83,2.44-.21,3.05-1.45,6.24-.83,9.56-3.66-1.23-10.04-1.92-14-2,3.67-3.98,9.11-7.81,14-10Z"/>
  <path class="st2" d="M235,509v-4c.3.26,1.89.36,3.02,1.43,3.28,3.09,6.28,6.45,8.96,10.08-4.07-1.87-7.9-5.75-11.98-7.51Z"/>
  <path class="st0" d="M474,458c-10.72,16.95-21.29,34.04-32,51-.39.62-.61,1.38-1,2-12.92,20.46-26.86,40.46-39.22,61.28-.92,1.55-2.1,2.63-1.78,4.72-24.11-9.94-62.26-21.56-88-24h11c-1.75-6.82-6.76-12.3-12.7-15.8-2.31-1.36-10.67-5.2-12.8-5.2h-15c-.55,0-2.64,2.3-2.49.01,17.17-8.79,37.1-12.91,55.98-7.01-5.43-12.55-22.26-20.57-35.46-20-9.37.41-17.08,5.26-25.51,8.51,11.13-15.47,29.65-22.04,46.96-28.01-18.03-11.83-43.12-7.1-55.81,10.17-1.29,1.76-5.12,10.14-5.68,10.33-1.78.61-1.35-.68-1.73-1.29-3.82-6.22-6.77-13.01-12.76-17.71l-1-36.99,50-1.02c-2.41-5.41-6.72-11.23-12-13.99l14-11c2.76.24,6.01-.78,8.51.98.29-.84-1.06-3.42-1.51-3.98.45-2.61,4.06-4.86,6.09-6.41,9.42-7.24,20.16-14.6,29.91-21.59.99-.71,1.58-1.7,2-2,23.17-16.52,47.82-31.36,70.14-49.36,1.32-1.06,3.01-1.4,2.86-3.64,2.27-.2,2.01-.13,4-1,.92-.4,2.08-1.39,3-2-1.48,1.77-.49,2.69.11,4.32,10.81,29.1,24.36,59.78,36.54,88.52,3.39,8.01,7.76,20.21,11.64,27.36.97,1.78,1.42,2.72,3.71,2.79Z"/>
  <path class="st2" d="M85,581c-1.67-5.01-1.68-12.92,0-18,0,5.99-.01,12.01,0,18Z"/>
  <path class="st14" d="M668,202c-6.65.06-13.35-.04-20.01,0v50.01c-5.98.04-12.01-.03-17.99,0v26.5c0,2.21,8.91,1.46,11,1.5v56.01c-29.98.02-60.02-.04-90,0l95-151c.84,1.21,6.17,6.79,7.52,7.98,4.27,3.77,9.96,5.66,14.48,9.02Z"/>
  <path class="st14" d="M713,188c23.34,38.84,46.17,78.11,71,116-.1,5.92,16.74,24.55,18,32h-83.01s0-56,0-56c2.09-.05,11,.72,11-1.5v-26.5c-5.99-.03-12.01.04-18,0v-50.01c-6.17-.07-12.38.1-18.57.04-1.27-.01-2.29-1.04-2.43-1.04,3.04-1.43,6.64-2.27,9.53-3.97,4.77-2.82,7.12-8.32,12.47-9.03Z"/>
  <path class="st0" d="M717,180c23.04,20.43,46.86,40.01,70.3,59.97.95.81.62,1.96.7,2.03-1.95,1.57-.73,5.12-.96,7.54-.12,1.27-1.04,2.64-1.04,2.96v42c0,1.69-1.98,8.33-2,9.5-24.83-37.89-47.66-77.16-71-116-.18-2.89,3.25-6,4-8Z"/>
  <path class="st7" d="M691,201c.13,0,1.15,1.02,2.43,1.04,6.19.06,12.4-.11,18.58-.04v50.01c-6.66-.04-13.35.02-20.01,0-1.15-11.84,5.49-35.68-13.56-34.07-15.06,1.27-9.42,23.84-10.44,34.07-6.65.02-13.35-.04-20,0v-50.01c6.65-.03,13.35.06,20,0,7.53-.07,16.08-1.03,23-1Z"/>
  <path class="st4" d="M676.76,139.26c35.26-4.71,34.9,52.28-1.02,46.5-25.12-4.05-25.47-42.95,1.02-46.5Z"/>
  <path class="st14" d="M804,338c9.04,12.73,16.25,27.46,24,41-1.07,0-10.51.42-8,2.99,1.41,1.44,14.31,3.06,15.98,8.52-7.05-2.05-18.03-3.16-20.98,5.49h14.5c.2,0,3.9.93,3.49,1.99-5.18,0-11.68,2.59-12.99,8.01,7.31,1.39,13.7.83,21,0l-1,36c-28.33,9.87-55.34,24-84,33,0-.67,0-1.33,0-2l1-51c1.5.06,10-.2,10-1v-27c-15.98-.03-32.02.04-48,0v-56.01s85,0,85,0Z"/>
  <path class="st2" d="M894,425c.19-3.48-.28-7.05-.04-10.54.09-1.29,1.04-2.62,1.04-2.96v-34.5h-27c.95-4.05,4.47-6.8,7.96-8.54l11.03-2.45c-7.88-3.43-16.67-4.07-24.99-2.02,4.47-11.12,17.49-10.39,26.99-7.01-4.16-7.28-12.14-7.99-18.59-10.89-.89-.4-3.05-.4-1.4-2.08.39-.39,9.14-2.09,10.5-2.09,9.45.02,13.81,5.81,19.49,12.07.34-3.4,5.17-8.53,8.01-10,1.68-.87,6.53-2.03,8.5-2.08,1.46-.04,11.08,1.69,11.5,2.09,1.72,1.64-.54,1.69-1.41,2.09-3.16,1.43-5.51,2.38-8.59,3.9-3.85,1.9-8.73,2.59-10.98,7.51,5.42-1.79,9.06-3.01,14.98-2.51,4.17.35,9.11,2.39,11.47,6.06.65,1.01.32,2.64.53,2.94-8.07-2.06-16.44-1.51-23.99,2.01l11.52,2.96c2.77,1.97,6.88,4.09,6.47,8.03h-26c-.53,14.57.37,29.03,1,43.55.08,1.92-1.02,4.01,2,3.45-3.13.67-9.58.71-10,1ZM904.5,358v1c.65-.33.65-.67,0-1Z"/>
  <path class="st2" d="M828,379c7.92.06,11.2,2.37,15.5,9,4.12-8.12,14.69-12.15,22.49-6.49-5.73,2.19-12.4,3.93-15.99,9.49,7.24-2.87,17.82-3.84,20.99,5-5.99-1.76-11.14-.57-16.99,1.02,1.65,2.33,5.26,1.85,7.95,3.53.8.5,5.12,4.53,4.03,5.46h-21c-.04,1,.04,2.01,0,3.01-.32,10.11,2.02,20.7,1,31-1.79.6-4.15,1.36-6,2l1-36c-7.3.83-13.68,1.39-21,0,1.31-5.42,7.81-8.01,12.99-8.01.4-1.06-3.29-1.99-3.49-1.99h-14.5c2.95-8.65,13.93-7.54,20.98-5.49-1.67-5.46-14.56-7.08-15.98-8.52-2.51-2.57,6.92-2.99,8-2.99Z"/>
  <path class="st14" d="M948,338c-2.79,6.25-5.6,12.58-8,18.99,3.65.04,7.34-.04,11,0-2.98,5.54-5.54,11.21-8,17h-1c-.09-3.58-6.66-6.56-9-10-.2-.3.13-1.92-.53-2.94-2.37-3.67-7.31-5.72-11.47-6.06.86-3.35-1.81-3.39-4-5,3.08-1.52,5.43-2.47,8.59-3.9.87-.39,3.13-.45,1.41-2.09-.42-.4-10.04-2.13-11.5-2.09-1.97.05-6.82,1.21-8.5,2.08.46-2.95-4.16-2.42-4-6,13.2,2.02,31.25-1.5,45,0Z"/>
  <path class="st13" d="M719,280v56.01s83,0,83,0c1.22.27,1.43,1.19,2,2h-85.01s0,56,0,56c-1.05,0-.93-1-1-1v-113c.33,0,.67,0,1,0Z"/>
  <path class="st14" d="M862,435c-5.15,1.6-10.99,3.32-16,5,1.02-10.3-1.32-20.89-1-31,2.41-.12,2.58,1.45,3.53,2.97,4.72,7.49,9.19,15.29,13.47,23.03Z"/>
  <path class="st14" d="M548,340c.66-.52,4.41-1.92,5.45-2.05l87.55.05v56.01c-15.99.04-32.02-.02-48.01,0-.13,1.98.18,4.04,0,6.01-.26,2.91,0,3.04,0,5,.02,4.55.29,9.52,0,14,0,.1-1.71,1.06-.89,1.84.48.47,1.73,0,1.89.16.12.11-.44,1.73.66,2.02,1.7.45,7.88-.49,8.34-.02l.99,82.01c.02.33-.05.68,0,1-10.21.72-20.94,1.89-31,4l-60.01-.99v-112.01c6.34-14.63,20.98-34.1,30.01-48l1-1c.99-1.54,1.18-5.79,4-8Z"/>
  <path class="st11" d="M824,600c-19.32-.04-38.68.04-58,0,3.87-11.75,17.67-20.02,29.63-20.88,3.49-.25,5.04.48,8,.77,1.11.11,3.6.91,3.36-.87-16.93-8.19-35.64-11.8-53.98-6.01-1.29-1.53,6.6-9.21,8.07-10.42,11.72-9.59,26.24-11.43,40.45-6.62l13.46,7.03c-6.7-9.99-19.28-18.5-30.32-23.17-4.89-2.07-10.37-3.03-15.13-4.87-1.04-.4-2.41-.41-2.55-1.93,18.64-9.75,42.22-7.28,55.41,10.07,2.42,3.19,3.43,6.64,5.35,9.63.51.8.65,2.74,2.23,1.28.48-.44,3.94-8.81,6.04-11.47,11.81-15,36.8-20.33,53.36-10.4,1.17.7,2.29,1.41.63,2.4-2.73,1.63-12.27,3.43-16.69,5.31-11.15,4.75-23.68,12.89-30.33,23.16l12.74-6.75c12.5-5.62,29.36-3.24,40.26,4.76.33.24.63.69,1,1,2.82,2.42,5.51,7.07,8,9.99-18.46-3.2-37.71-2.6-53.99,7.52,2.99,1.5,6.22-.55,9.34-.43,13.81.52,26.17,8.06,31.66,20.92-18.99.04-38.01-.02-57,.01-3.74,0-7.26,0-11,0Z"/>
  <path class="st3" d="M712,421v87c-4.65.01-9.35,0-14,0l-.44-50.06c-4.31-18.42-31.32-18.45-35.11,0-2.94,14.3,1.27,35.06-.44,50.06-4.32,0-8.68.01-13,0-1.93-.95-1.9-1.39-2.07-3.41-1.88-22.85-.68-54.72.03-78.14.06-1.9-.09-3.79,1.04-5.45,21.32.02,42.68-.06,64,0Z"/>
  <path class="st10" d="M933,364c2.34,3.44,8.91,6.42,9,10,.07,2.84-8.04,15.06-7,15.99,8.98-.12,18.02.18,27,0,.4,8.28-.29,16.71,0,25-19.59,2.18-38.73,4.9-58,9-3.03.56-1.92-1.53-2-3.45-.63-14.52-1.53-28.98-1-43.55h26c.41-3.94-3.7-6.05-6.47-8.03l-11.52-2.96c7.55-3.52,15.92-4.08,23.99-2.01Z"/>
  <path class="st12" d="M698,508c-11.98.02-24.02.03-36,0,1.72-15-2.5-35.76.44-50.06,3.79-18.45,30.81-18.42,35.11,0l.44,50.06Z"/>
  <path class="st3" d="M626,421l1,87c-7.58-.06-15.32.27-22.81-.25-.41-.55-.11-1.23-.19-1.75-.05-.32.02-.67,0-1-1.92-27.2,1.43-56.57,0-84,7.31.13,14.69-.02,22,0Z"/>
  <path class="st3" d="M756,422c-.05,16.98.07,34.02,0,51,0,.67,0,1.33,0,2-.05,10.99.04,22.02,0,33.01-7.65.02-15.35-.04-23.01,0l2-87c7.14.05,14.28.73,21,1Z"/>
  <path class="st7" d="M735,421l-2,87c-6.99.03-14.01-.02-21,0v-87c7.65.02,15.35-.05,23,0Z"/>
  <path class="st7" d="M648,421c-1.13,1.66-.98,3.55-1.04,5.45-.7,23.42-1.9,55.29-.03,78.14.17,2.01.14,2.45,2.07,3.41-7.32-.03-14.68.06-22,0l-1-87c7.32.02,14.68,0,22,0Z"/>
  <path class="st5" d="M920,518c-4.29-.39-9.36.55-13.52,0-1.39-.18-1.73.55-1.47-1.49l37.49-65.5,37.49,65.5c.26,2.03-.08,1.3-1.47,1.48-4.15.56-9.23-.4-13.52,0-7.4-12.69-14.65-25.54-22.5-37.98-7.85,12.43-15.12,25.28-22.5,37.98Z"/>
  <path class="st13" d="M513,397v112.01s60,.99,60,.99c-1.47.31-3.91,1.51-6,2l-54.01-1.01v18.01c-.57.23-1.23.68-1.99,1v-19.01s-70,0-70,0c.39-.62.61-1.38,1-2h69.01s0-107,0-107c-.73-2.46,1.48-3.8,2-5Z"/>
  <path class="st14" d="M567,512c-17.98,4.22-36.89,10.06-54,17v-18.01s54,1.01,54,1.01Z"/>
  <path class="st6" d="M980,413c-.66,1.58-4.34,1.58-5,0,1.65-.13,3.35.11,5,0Z"/>
  <path class="st10" d="M424,334l18.46,2.04c35.51-.11,71.04,0,106.54-.04l-1,4c-2.82,2.21-3.01,6.46-4,8-.22.34-.75.61-1,1-9.03,13.9-23.67,33.37-30,48-.52,1.2-2.73,2.54-2,5-2.98.39-4.92,4.7-6.42,7.08-10.27,16.25-20.31,32.68-30.58,48.92-2.29-.07-2.74-1.01-3.71-2.79-3.88-7.15-8.25-19.35-11.64-27.36-12.18-28.75-25.74-59.42-36.54-88.52-.61-1.63-1.59-2.56-.11-4.32.72-.48,1.6-.72,2-1Z"/>
  <path class="st14" d="M511,402v107.01s-69,0-69,0c10.71-16.96,21.28-34.05,32-51s20.31-32.67,30.58-48.92c1.5-2.38,3.44-6.69,6.42-7.08Z"/>
  <path class="st14" d="M297,424l-14,11c-3.52-1.84-8.71-2.84-12.61-3.89l-12.39-.1c12.09-6.19,22.86-8.73,36.57-8.05,1.31.06,2.22,1.02,2.42,1.04Z"/>
  <path class="st13" d="M642,394c-.33,0-.67,0-1,0v-56.01s-87.55-.05-87.55-.05c-1.04.13-4.79,1.53-5.45,2.05l1-4c.67,0,1.33,0,2,0,29.98-.04,60.02.02,90.01,0v-56.01c.33,0,.66,0,.99,0v114Z"/>
  <path class="st3" d="M186,884c-1.05.16-4.02.2-5,0-2.02-.42-5.79-3.8-6.99-5.5-6.47-9.2,7.74-18.07,16.96-11.97,8.49,5.62,3.09,16.21-4.97,17.47Z"/>
  <path class="st14" d="M252.5,416c.65.33.65.67,0,1v-1Z"/>
  <path class="st12" d="M648,252c6.65-.04,13.35.02,20,0,7.98-.03,16.02-.03,24,0,6.65.02,13.35-.04,20,0,5.99.04,12.01-.03,18,0v26.5c0,2.22-8.91,1.45-11,1.5-.33,0-.67,0-1,0-25.22.41-50.83.44-76,0-.33,0-.67,0-1,0-2.09-.04-11,.71-11-1.5v-26.5c5.99-.03,12.01.04,18,0Z"/>
  <path class="st4" d="M692,252c-7.98-.03-16.02-.03-24,0,1.03-10.23-4.62-32.8,10.44-34.07,19.05-1.61,12.41,22.23,13.56,34.07Z"/>
  <path class="st12" d="M719,394c15.98.04,32.02-.03,48,0v27c0,.8-8.5,1.06-10,1-.33-.01-.67.01-1,0-6.72-.27-13.86-.95-21-1-7.65-.05-15.35.02-23,0-21.32-.06-42.68.02-64,0-7.32,0-14.68.02-22,0s-14.69.13-22,0c-2.13-.04-8.93.45-10,0-.1-.04-.28-1.67-1-2,.29-4.48.02-9.45,0-14,1.58-.66,1.58-4.34,0-5,.18-1.97-.13-4.03,0-6.01,15.99-.02,32.02.05,48.01,0,.33,0,.67,0,1,0,6.65-.02,13.35.01,20,0,11.98-.02,24.02-.01,36,0,6.65,0,14.13-1.01,20-1,.07,0-.05,1,1,1Z"/>
  <path class="st13" d="M756,473c.07-16.98-.05-34.02,0-51,.33.01.67-.01,1,0l-1,51Z"/>
  <path class="st10" d="M917,350c2.19,1.61,4.86,1.65,4,5-5.92-.5-9.56.72-14.98,2.51,2.25-4.92,7.13-5.61,10.98-7.51Z"/>
  <path class="st10" d="M904.5,358c.65.33.65.67,0,1v-1Z"/>
  <path class="st3" d="M718,280v113c-5.87-.01-13.35,1.01-20,1v-42h-36v42c-6.65.01-13.35-.02-20,0v-114c25.17.44,50.78.41,76,0ZM675.72,299.23c-24.64,5.08-12.26,45.23,12.54,33.53,18.31-8.64,8.78-37.93-12.54-33.53Z"/>
  <path class="st13" d="M594,421c1.07.45,7.87-.04,10,0,1.43,27.43-1.92,56.8,0,84l-.99-82.01c-.47-.47-6.65.47-8.34.02-1.1-.29-.54-1.9-.66-2.02-.16-.15-1.41.31-1.89-.16-.82-.79.89-1.74.89-1.84.72.33.9,1.96,1,2Z"/>
  <path class="st13" d="M593,405c0-1.96-.26-2.09,0-5,1.58.66,1.58,4.34,0,5Z"/>
  <path class="st13" d="M543,349c.25-.39.78-.66,1-1l-1,1Z"/>
  <path class="st7" d="M662,394v-42h36v42c-11.98-.01-24.02-.02-36,0Z"/>
  <path class="st12" d="M675.72,299.23c21.32-4.4,30.85,24.9,12.54,33.53-24.81,11.7-37.18-28.45-12.54-33.53Z"/>
</svg>