<?xml version="1.0" encoding="UTF-8"?>
<svg id="Layer_1" xmlns="http://www.w3.org/2000/svg" version="1.1" viewBox="0 0 1024 1024">
  <!-- Generator: Adobe Illustrator 29.8.4, SVG Export Plug-In . SVG Version: 2.1.1 Build 6)  -->
  <defs>
    <style>
      .st0 {
        fill: #eee5a5;
      }

      .st1 {
        fill: #ced9ed;
      }

      .st2 {
        fill: #d79f93;
      }

      .st3 {
        fill: #ddb682;
      }

      .st4 {
        fill: #acb6d2;
      }

      .st5 {
        fill: #c3cde8;
      }

      .st6 {
        fill: #9ba36d;
      }

      .st7 {
        fill: #f8f3d3;
      }

      .st8 {
        fill: #b77d75;
      }

      .st9 {
        fill: #a7b07c;
      }

      .st10 {
        fill: #7e8f58;
      }

      .st11 {
        fill: #647443;
      }

      .st12 {
        fill: #c2cce7;
      }

      .st13 {
        fill: #aec0df;
      }

      .st14 {
        fill: #d0a773;
      }

      .st15 {
        fill: #cd9f6d;
      }
    </style>
  </defs>
  <path class="st3" d="M1024,804v220H0v-169c46.04-11.05,92.61-20.63,139.64-26.86,70.96-9.39,146.46-13.29,217.9-10.18,104.17,4.52,205.68,28.86,309.92,32.08,12.15.38,24.39-.36,36.54-.04,1.95,5,15.47,28.8,19.7,29.89,1.5.39,1.81-.24,2.83-.84,7.86-4.59,16.38-15.01,24.46-20.05-.99,5.78-2.03,10.79-4.24,16.26s-5.46,9.63-7.76,14.74h47c.05-14.32-.07-28.68,0-43l50-5c-.39,11.73-3.34,23.29-1,35h43c-5.28-10.38-6.93-20.81-5.98-32.48.24-2.93,1.55-5.26,1.98-7.52l7-1c13.34,17.29,8.98,34.83,2,54h43v-63l98-23ZM175,849c-1.57-.87-11.21-3.77-12-3-.08,1.32.07,2.68,0,4-22.12,2.79-45.99,5.23-67.21,12.29-27.93,9.29-36.57,23.07-3.74,35.16,19.59,7.22,40.75,9.83,61.32,12.68,2.54.35,7.35.36,8.63,2.87-14.6,5.41-41.91,19.41-21.91,36.41,30.75,26.15,129.41,30.81,169.46,29.63,32.8-.96,106.92-7.87,132.37-28.63,5.6-4.57,11.17-11.9,7.08-19.42,6.61-2.74,14.75-.14,21.45.05,50.6,1.44,140.88-1.51,187.04-21.05,43.12-18.25,2.6-33.7-20.26-39.73-73.08-19.28-188.46-18.91-263.24-7.26-7.5-3.12-15.78-5.07-23.77-6.73-45.68-9.5-96.69-11.08-143.23-9.27-.12,0-.66-.92-2.17-.82s-7.44,2.05-8.83,2.82l-10.64-11.93c-5.78,1.82-5.66,9.11-10.36,11.93Z"/>
  <path class="st10" d="M1024,553v106c-13.35-4.86-26.08-11.24-39.48-16.02-59.45-21.19-123.54-26.31-184.94-9.9-4.92,1.32-11.91,2.52-15.58,5.92-3.4-3.27-9.79-8.51-13.96-10.54-17.22-8.35-31.34,2.36-47.04,8.54-42.61-21.61-93.66,11.31-93,59-2.64-.59-1.9,1.38-2.54,2.91-2.05,4.95-6.19,13.83-7.46,18.09-24.35,11.39-50.47,20.07-76.81,25.69-50.79,10.83-104.64,10.78-155.2-1.18-26.99-6.38-52.37-17.56-78.99-25.01-99.85-27.96-190.33-13.64-280.67,34.33-9.34,4.96-18.46,11.75-28.33,15.17v-66c25.51-28.12,53.27-54.91,86.33-74.17,9.7-5.65,23.27-13.05,33.67-16.83,60.01-21.76,94.04-5.35,148.03,16.47,28.03,11.33,58.72,19.78,88.97,21.53.06,3.89-1.02,27.04,0,28,.37.35,8.33.36,10,1,.35-9.01,1.31-18.02,2-27l51,2c2.51,4.18,10.28,17.7,13.01,20.49,3.51,3.58,5.46,2.94,10.01.99-2.18-7.72-8.55-14.31-9.02-22.48,11.31,1.51,25.44-2,37-2,.75,8.99,2.57,17.93,1.99,27.01h8.01c-.13-9.34.56-18.68.99-28.01h3c-.2,3.52,2.06,5.86,4.5,7.97,3.88-3.41,6.44-7.91,9.5-11.97,2.09,1.47,6.63.02,9.04-.46,71.27-14.35,140.17-38.02,209.96-56.54,1-.27,2.74.13,4.19-.26,31.4-8.29,62.88-16.63,94.81-22.74-6.62,4.01-15.14,4.79-21.71,8.79-3.38,2.06-9.42,7.54-2.84,8.26,6.05.66,14.18-.09,20.55-.05,17.82.13,35.67-.09,53.5,0,2.52-.1,1.97-1.62,2.5-3,3.3.69,24.15-.92,25,0,.28.3-.68,2.73.54,3.07l59.46-.07v-18c1.93-.45,1.92.7,2.82,1.68,1.56,1.71,8.49,11.4,8.94,13.06,1.26,4.65.16,10.59-5.21,11.31-4.63.62-30.64.81-34.55-.05-1.8-.39-4.28-3.93-6.32-3.81-2.76.16-13.83,5.36-16.67,7.31,6.3,1.47,18.04,11.34,22,2.5,11.46-1.41,27.59,1.93,38.45-.05,2.48-.45,4.88-2.74,6.21-4.79,10.96-16.98-14.08-29.19-15.65-42.15,23.6-.96,46.76,3.07,70,6Z"/>
  <path class="st6" d="M620,717c-2.25,7.51-4.62,20.64-5.88,28.62-1.33,8.38-2.39,16.9-2.12,25.38-10.4,1.27-19.81.19-30.01.5-.05,2.04,26.79,8.23,30.01,8.5,1.48,17.7,4.79,36.17,16.17,50.33,21.12,26.27,59.64,11.03,56.82-22.33-6.9,2.91-10.27.24-17,0,2.06,14.71-15.29,22.54-23.19,8.7-6.81-11.92-3.46-28.33.2-40.7,9.72-2.92,24.21-11.41,31-19,9.43,4.18,24.02,3.99,34,2,1.96,6.28,4.81,14.34,8,20-2.33,8.04-8.14,14.35-11.71,21.79-7.82,16.27-8.88,32.32-2.29,49.21-12.15-.32-24.39.42-36.54.04-104.24-3.22-205.75-27.56-309.92-32.08-71.44-3.1-146.94.79-217.9,10.18-47.03,6.22-93.61,15.81-139.64,26.86v-89c9.87-3.42,18.99-10.22,28.33-15.17,90.35-47.97,180.82-62.28,280.67-34.33,26.62,7.45,52,18.63,78.99,25.01,50.56,11.95,104.41,12.01,155.2,1.18,26.34-5.62,52.46-14.3,76.81-25.69ZM580.99,770.01c-1.4-.72-2.67.63-1.99.98,1.4.72,2.67-.63,1.99-.98Z"/>
  <path class="st11" d="M105,467c-.37,16.37.25,32.71-1,49-10.13.98-28.49,3.68-37.32,8.18l-7.68,5.82h97l-1.27,2.29-8.23,5.72c43.98.22,87.9.55,131.49-5.01,1.38-1.18-4.23-5.71-5.62-5.87l-20.37-6.11c35.54-5.79,72.06-1.86,107.99-3.02-4.86-7.46-14.69-10.29-23-11.99-.18-7.31.25-14.7,0-22,15.45,2.63,30.9,6.71,46,11,1.03.29,2,.71,3,1,4.65,1.36,9.25,3,14,4-.33.21-.62,1.52-1,2-1.94.09-22.21,11.74-23.98,13.56-.97.99-.78,2.14-1.02,2.44-14.38,18.85-22.29,46.66-35.99,66.52-.99,2.5,4.51,1.77,5.5.5,7.03-13.93,16.36-26.54,23.86-40.19.75-1.37.06-3.43,2.62-2.83-.01,8.47.5,17.64,0,26-.19,3.24-.55,9.12-1.54,11.96-1.59,4.52-11.47,11.47-12.41,16.59-.33,16.85.71,33.62.95,50.45-30.25-1.75-60.94-10.2-88.97-21.53-53.99-21.82-88.02-38.23-148.03-16.47-39.38-8.64-80.48-9.08-120-1v-119c34.25-10.07,69.35-18.68,105-22Z"/>
  <path class="st6" d="M1024,659v145l-98,23c0-24.28-.93-47.94-2-72-.5-11.31.98-22.81-.99-34,17.05,19.71,18.84,48.05,21,73,.2.28,1.28-.52,1.51-.98.37-.75,1.42-13.23,1.53-15.48,1.06-23.78-3.48-51.31-19.07-70.01-4.59-5.51-11.27-9.45-15.5-14.5-14.42-17.26-20.22-28.6-42.78-38.22-21.15-9.02-51.05-10.44-71.69.19-2.79-4.03-10.36-12.49-14-16,3.67-3.41,10.65-4.61,15.58-5.92,61.4-16.4,125.49-11.29,184.94,9.9,13.4,4.78,26.13,11.16,39.48,16.02Z"/>
  <rect class="st5" x="0" y="0" width="127" height="127"/>
  <rect class="st5" x="129" width="126" height="127"/>
  <rect class="st5" x="385" width="126" height="127"/>
  <path class="st5" d="M938,257c1.35,2.05,15.47,16.69,16.64,16.89,3.96.68,14.04-15.03,18.36-16.89h51v126h-127.01c-.02-14.98.05-30.01,0-45,0-.67,0-1.33,0-2-.06-26.32.05-52.69,0-79.01h41.01Z"/>
  <path class="st5" d="M1024,129v126h-51c-.49-1.68-16.21-17.04-17.5-17.04-6.97,4.46-11.77,12.05-18.5,17.04h-40v-126h127Z"/>
  <path class="st5" d="M383,0v127h-126V0h126ZM272.64,58.07c-2.12,2.4-12.67,11.16-12.67,13.43.92,2.32,11.97,13.68,13.4,13.43,2.12-2.4,12.67-11.16,12.67-13.43-.92-2.32-11.97-13.68-13.4-13.43Z"/>
  <path class="st12" d="M0,129h127v126H0v-126ZM94.5,159.02l-13.43,13.62c-.25,1.42,11.11,12.48,13.43,13.4,1.54,0,13.66-12.1,13.43-13.4l-13.43-13.62Z"/>
  <path class="st5" d="M897,0h127v127h-127.01s0-127,0-127ZM939.64,72.07c-5.92,6.02-12.9,11.59-17.67,18.43,0,1.14,13.83,15.58,15.48,16.55,2.19,1.29,3.82,1.62,5.58-.53,1.18-3.99,13.99-13.15,13.98-16.01-.01-2.69-15.88-18.71-17.37-18.44Z"/>
  <path class="st5" d="M639,0v127h-126V0h126ZM574.72,50.14c-2.54.71-8.11,8.59-10.22,10.85-1.57,1.68-6.53,3.69-6.53,6.51,0,1.5,17.07,18.66,18.4,18.43,5.92-6.02,12.9-11.59,17.67-18.43,0-1.14-13.82-15.56-15.48-16.55-1.43-.85-2.05-1.31-3.84-.81Z"/>
  <path class="st5" d="M767,0v93c-8.81,1.78-22.67,10.24-29,11-22.26,2.67-34.97,2.17-55.31,14.19-4.52,2.67-9.64,7.8-13.69,9.81-3.48-2.56-26.93.08-28.01-.99V0h126.01Z"/>
  <path class="st5" d="M895,0v127.01s-41,.99-41,.99c-18.54-27.18-52.9-40.19-85-35V0h126Z"/>
  <path class="st12" d="M0,257h127.01s0,6,0,6c-21.05,9.4-43.16,18.68-63.8,28.74-1.35.66-2.76-.64-2.19,2.25,32.32.03,64.68-.02,96.99,0l4,10c-3.01-1.28-6.77-1.76-9.72-3.82-31.07,12.01-61.52,26.68-92.28,39.82h-2c-.73,4.33,4.43,1.15,6,1,2.25-.21,4.71.07,7,0,.3,0,.66,0,1,0,10.64-.21,21.36.03,32,0,.81,0,2.18,0,3,0,6.32-.01,12.68,0,19,0,1.71,5.96,1.1,13.22,1.02,19.51-.02,1.69.64,4.45-1.02,5.49-3.76-1.62-8.97-2.53-12.73-4.81-17.54,5.89-34.55,14.47-51.59,22.03-1.36.61-2.98.46-3.68.77l-58-1v-126Z"/>
  <path class="st5" d="M1024,385v100l-40-3c.05-.87-1-1.82-1-2-.01-.65-.07-1.36,0-2,.11-.97,1.88-3.99,2-5l3.99,4c-.42-9.44-.28-14.4-8.99-19-.33-.17-.39-1.61-2.47-1.98-2.71-.49-6.55.09-9.53-.02-1-.04-2,.02-3,0s-2-.02-3,0c-.67.01-1.33-.02-2,0-1,.03-2.01-.06-3,0s-2.02-.11-3,0c-.65.07-1.42-.12-2,0,.01-2,.37-4.07-.51-5.98-.34-.74-11.21-10.59-11.96-11.04-1.82-1.11-4.43-1.59-6.53-1.97-4.75-.86-3.09.06-6.99,2.02l1.98,1.47c-2.72,4.23-5.47,8.14-7.99,12.51-.67,1.16-4.59,3.28-2.57,6.05,1.7,2.34,4.83.5,6.57-.05,1.92-.6,7.88-2.48,9-3,.3.68.71,1.32,1,2,.32.74.8,1.47,1,2,.51,1.32-1.29,3.66,2,3-.14.51-.11,2.38,0,3,.35,2.05.51,3,3,3-.2,1.08,0,2.77,0,4,0,3.43.75,5.88,1,9-14.59,1.66-29.38,1.68-44,3v-100.01s127,0,127,0Z"/>
  <path class="st9" d="M941,482c.46,5.66,1.61,11.22,1.01,17,5.97.82,3.63-6.29,4.02-10.51.15-1.61.97-1.39.97-1.48,2.41,1.47-.25,12.78,3.48,11.99,1.6-.34,1.46-3.2,1.56-4.45.33-4.19.57-8.37.95-12.55h16c.35.48,1.99.85,2.5,1.98,1.91,4.18-2.77,10.37-2.5,15.02,3.21,3.06,6.49-8.46,7.28-10.26.66-1.5.15-3.27,2.71-2.74.3,2.27-.46,12.54,0,13,5.75,1.12,4.72-12.46,4.99-17l40,3v68c-23.24-2.93-46.4-6.96-70-6-.34-2.83.31-6.07-.04-8.96-6.99-1.45-14.08-3.17-20.96-5.04-15.37-4.17-30.77-8.36-46-13l-12-32c6.47-2.17,13.55-1.37,20-2,.93-.09,1.78-.98,2-1,14.62-1.32,29.41-1.34,44-3Z"/>
  <path class="st4" d="M129,0v127h126V0h2v127h126V0h2v127h126V0h2v127h126V0h2v127.01c1.07,1.07,24.52-1.56,28,.99-1.38.68-1.12.79-3,1-7.79.89-17.03-.65-25.01,0l1.01,37.01c-.92,2.21-.7,5.35-3,7,1.12-14.16-.83-29.69,0-44h-126c.08,29.32-.1,58.68,0,88-1.51.35-1.99-.34-3-1l1-87h-126v126h126v-33c.56-.51.88-1.75,2-2,.05,11.65-.04,23.35,0,35h126c-.44-7.83.6-16.25,0-24,2.47,1.77,1.95,5.49,3,8-2.27,4.66-.42,10.95-1.01,16.01h9.01c.43.72.72,1.56,1,1.99-1.27.36-10-.5-10,0v126h126v-88c.45-.16,1.23-.69,2-1v89h126v-45c.44-.18,1.39.12,2,0,.04,14.99-.03,30.02,0,45.01h127.01s0,1.99,0,1.99h-127.01s0,100,0,100c-.22.02-1.07.91-2,1v-101h-126v122c-.34.07-1.08.81-2,1v-123h-126v126h20c.08.65-.08,1.35,0,2h-20.01s0,9,0,9c-.65.08-1.35-.08-2,0v-9.01s-123,0-123,0c-.04-.64.15-1.56,0-2h123v-126h-83c.19-.52-.19-1.49,0-2h83v-126h-126l1,117c-.66,1.11-1.82,1.7-2,2l-1-119h-126v74c-.17-.13-.65.09-1,0l-.99-74.01-80.01,1.01c-1.31-.59-2.31-1.69-3-2l83-1v-126h-126v108c-.74-.32-1.39-.73-2-1v-107h-126v126c4.11.53,9.62-1.22,13,1-.6.27-1.26.67-2,1h-11.01s0,5,0,5c-.68.3-1.32.7-2,1v-6.01s-127,0-127,0v-2h127v-126H0v-2h127.01s0-127,0-127h2Z"/>
  <path class="st12" d="M55,386c-8.41,3.76-17,7.25-25.36,11.14-1.95.91-5.46,2.17-6.63,3.85,14.32.03,28.68-.01,42.99.01-.43,2.34.84,3.04,1.97,4.53,11.74,15.38,24.95,29.87,36.9,45.1,1.79,3.45,1.29,9.92,1.17,13.95-.04,1.29-1.04,2.29-1.04,2.42-35.65,3.32-70.75,11.93-105,22v-104l55,1Z"/>
  <path class="st2" d="M120,609c-10.4,3.77-23.97,11.18-33.67,16.83-33.06,19.26-60.82,46.05-86.33,74.17v-92c39.52-8.08,80.62-7.64,120,1Z"/>
  <path class="st4" d="M897,0v127.01s127,0,127,0v2h-127v126h40c.37.64.6,1.39,1,2h-41.01c.06,26.31-.06,52.68,0,79-.92.06-1.36-.55-2-1v-78.01s-80,0-80,0c.69-1.18,1.95-1.4,3-2h77v-126h-41c-.15-.23.15-.77,0-1l41.01-.99V0s1.99,0,1.99,0Z"/>
  <path class="st4" d="M769,0v93c-.63.1-1.4-.12-2,0V0h2Z"/>
  <path class="st4" d="M58,384c-.68.3-1.69,1.41-3,2l-55-1v-2l58,1Z"/>
  <path class="st4" d="M1024,255v2h-51c-.1-.63.15-1.47,0-2h51Z"/>
  <path class="st1" d="M299,895c34.07.28,120.63,7.28,145.55,30.95.64.61,4.23,4.65,4.45,5.05,4.08,7.51-1.48,14.85-7.08,19.42-25.45,20.76-99.56,27.67-132.37,28.63-40.05,1.18-138.71-3.48-169.46-29.63-20-17.01,7.32-31.01,21.91-36.41,38.43-14.23,95.95-18.34,137-18ZM294,926v18c2.72-.94,8.09-7.02,10.52-7.01,1.55,0,3.55,2.7,5.43,3.57,9.89,4.58,27.15,5.28,36.76-.35,7.46-4.37,6.17-7.28-.67-10.74-10.78-5.46-24.51-5.31-35.42-.35-1.9.87-4.73,3.86-5.94,3.74-1.87-.17-10.3-7.38-10.67-6.86Z"/>
  <path class="st13" d="M374,863c74.77-11.65,190.16-12.02,263.24,7.26,22.86,6.03,63.37,21.48,20.26,39.73-46.16,19.54-136.44,22.49-187.04,21.05-6.7-.19-14.84-2.79-21.45-.05-.22-.4-3.81-4.44-4.45-5.05-24.92-23.67-111.47-30.67-145.55-30.95.01-2.79.86-4.8,2.46-7.04,9.52-13.35,56.1-22.4,72.54-24.96ZM501.8,870.3c-11.14.89-28.1,4.08-37.12,10.88s-10.34,14.44-1,21.65c20.76,16.04,79.73,16.17,100.24-.41,7.64-6.18,6.99-14.41-.41-20.41-13.43-10.89-44.92-13.05-61.7-11.71Z"/>
  <path class="st8" d="M798,655c20.64-10.63,50.54-9.22,71.69-.19,22.56,9.62,28.36,20.96,42.78,38.22,4.22,5.05,10.9,9,15.5,14.5,15.59,18.7,20.13,46.23,19.07,70.01-.1,2.25-1.15,14.73-1.53,15.48-.23.46-1.31,1.27-1.51.98-2.16-24.95-3.95-53.29-21-73,1.97,11.19.49,22.69.99,34-3.47-4.19-5.24-9.59-8.59-13.91-31.64-40.87-95.84-6.41-78.87,47.87,7.13,22.82,22.42,27.49,38.46,41.04-1.63,2.11-.6,4.92-1,7-.43,2.26-1.74,4.59-1.98,7.52-.95,11.67.7,22.1,5.98,32.48h-43c-2.34-11.71.61-23.27,1-35l5-16.99c-10.32.12-21.33-.64-31.39-3.11-8.28-2.03-15.47-6.64-23.6-8.9.54-5.29,8.95-7.84,13.33-11.17,37.49-28.49,45.52-81.77,17.08-119.74-2.12-2.83-5.57-5.7-7.41-8.09-4.58-5.9-6.85-13-11-19Z"/>
  <path class="st15" d="M924,755c1.07,24.06,2,47.72,2,72v63h-43c6.98-19.17,11.34-36.71-2-54-3.19-4.14-2.37-2.94-6-6-16.04-13.55-31.32-18.23-38.46-41.04-16.97-54.27,47.23-88.74,78.87-47.87,3.35,4.33,5.12,9.73,8.59,13.91Z"/>
  <path class="st15" d="M786,813c-1.05,10.16.05,23.42,0,34-.07,14.32.05,28.68,0,43h-47c2.3-5.11,5.64-9.47,7.76-14.74s3.25-10.48,4.24-16.26c.46-2.72-.08-3.01,0-4,.13-1.56,1.03-3.09,1-6-.17-14.43-3.2-20.53-9-33-7.6-16.35-17.14-23.04-25-37-3.19-5.66-6.04-13.72-8-20,3.38-.67,6.47-2.83,10-3-.23,11.15,1.43,15.92,14.05,13.54,22.56-4.25,78.34-54.94,78.74-79.04.09-5.68-2.67-11.11-3.79-16.5,1.85,2.38,5.3,5.26,7.41,8.09,28.44,37.97,20.41,91.25-17.08,119.74-4.39,3.33-12.79,5.88-13.33,11.17Z"/>
  <path class="st12" d="M374,863c-16.44,2.56-63.02,11.61-72.54,24.96-1.6,2.24-2.45,4.25-2.46,7.04-41.05-.34-98.57,3.77-137,18-1.28-2.51-6.09-2.52-8.63-2.87-20.58-2.84-41.73-5.46-61.32-12.68-32.82-12.09-24.19-25.87,3.74-35.16,21.21-7.06,45.08-9.5,67.21-12.29-.14,2.37-.45,8.09,0,10-8.16.76-39.95,9.22-28.54,22.04,10.22,11.49,47.36,13.66,62.08,13,4.13-.18,39.5-4.7,39.44-8.54l-3.18-1.8-31.79-8.69,42.99-3.02c-7.92-10.88-24.61-12.01-37-13.99,1.18-4.55,1.23-7.39,0-12,46.55-1.81,97.55-.24,143.23,9.27,7.99,1.66,16.27,3.61,23.77,6.73Z"/>
  <path class="st8" d="M743,816c-13.25,7.98-11.46,21.11-2.01,31.55,1.13,1.25,2.78,1.22,3.01,1.45,2.12,2.06,3.52,5.17,7,6-.08.99.46,1.28,0,4-8.09,5.04-16.6,15.46-24.46,20.05-1.02.6-1.33,1.23-2.83.84-4.24-1.09-17.75-24.9-19.7-29.89-6.59-16.89-5.53-32.95,2.29-49.21,3.58-7.44,9.38-13.75,11.71-21.79,7.86,13.96,17.4,20.65,25,37Z"/>
  <path class="st6" d="M786,813c8.13,2.26,15.32,6.86,23.6,8.9,10.06,2.47,21.07,3.23,31.39,3.11l-5,16.99-50,5c.05-10.58-1.05-23.84,0-34Z"/>
  <path class="st8" d="M175,849c3.78,2.08,7.74,7.61,10.5,10.98,2.75-3.36,6.73-8.91,10.5-10.98,1.4-.77,7.34-2.72,8.83-2.82s2.05.82,2.17.82c1.23,4.61,1.18,7.45,0,12-4.97,19.23-27.94,22.99-40,7.5-.57-.74-3.91-6.13-4-6.5-.45-1.91-.14-7.63,0-10,.08-1.33-.07-2.68,0-4,.79-.77,10.42,2.13,12,3Z"/>
  <path class="st2" d="M175,849c4.7-2.81,4.58-10.11,10.36-11.93l10.64,11.93c-3.77,2.07-7.75,7.62-10.5,10.98-2.76-3.37-6.72-8.9-10.5-10.98Z"/>
  <path class="st6" d="M881,836l-7,1c.4-2.08-.63-4.89,1-7,3.63,3.06,2.81,1.86,6,6Z"/>
  <path class="st11" d="M784,639c3.64,3.51,11.21,11.97,14,16,4.15,6,6.42,13.1,11,19,1.13,5.4,3.89,10.82,3.79,16.5-.4,24.1-56.19,74.79-78.74,79.04-12.62,2.38-14.28-2.39-14.05-13.54.77-38.08,1.54-76.35.95-114.55l2.05-4.45c15.7-6.18,29.81-16.89,47.04-8.54,4.17,2.02,10.57,7.26,13.96,10.54Z"/>
  <path class="st11" d="M538,543c8.49,2.77,17.97,7.14,27,10,49.69,15.72,100.56,30.25,153,33-69.79,18.51-138.69,42.19-209.96,56.54-2.4.48-6.95,1.93-9.04.46,10.92-14.53,21.77-29.16,32.75-43.66l-24.75-54.34c.43-.62,4.55-8.89,5-10,6.76,3.04,13.93,5.24,20.98,7.55,1.79.59,4,.12,5.02.45Z"/>
  <path class="st2" d="M723,637l-2.05,4.45c.59,38.2-.18,76.47-.95,114.55-3.53.17-6.62,2.33-10,3-9.98,1.99-24.57,2.18-34-2,1.36-1.52,5.48-6.53,4.94-8.36-.25-.84-11.68-8.39-13.25-8.91-4.1-1.37-5.2,3.04-7.64,5.86-.97,1.12-2.95,1.27-3.05,1.41-16.85-10.85-26.72-30.99-27-51-.66-47.69,50.39-80.61,93-59ZM682.72,695.19c-8.29,2.46-4.28,17.85,6.05,13.06,6.35-2.95,3.48-15.89-6.05-13.06Z"/>
  <path class="st8" d="M475,469c11.49,1.48,26.1,10.28,32.44,20.06l6.56,10.94,1,10c-8.17-5.81-27.54-.54-35.33,5.17-18.45,13.52-15.91,28.03-14.67,47.83h-37.99c-.31,6.92-2.95,14.44-5.82,20.69-2.03,4.4-10.34,15.39-11.01,18.07-.29,1.15-.26,2.17.26,3.25,5.37,10.2,9.61,21.02,14.71,31.35,1.48,2.99,4.95,11.07,6.79,13,.94.98,1.09.52,2.07.65.47,8.17,6.84,14.76,9.02,22.48-4.55,1.95-6.5,2.59-10.01-.99-2.73-2.79-10.5-16.31-13.01-20.49-4.31-7.17-24.39-40.4-25.76-45.74s1.32-12.19-1.24-17.26c5.17-4.73,11.93-12.26,16-18,11.74-16.57,16.57-34.37,5.42-52.92-2.34-3.9-10.86-15.3-15.42-15.08.38-.48.67-1.79,1-2,.68-.43,2.7-.7,4.02-1.45,12.39-7.01,42.12-26.9,53.98-29.55,2.07-.46,14.44-.33,17,0Z"/>
  <path class="st2" d="M820,560c-.96.96-1.73,2.23-3,3-31.92,6.11-63.41,14.45-94.81,22.74-1.46.39-3.19,0-4.19.26-52.44-2.75-103.31-17.28-153-33-.81-2.67,4.17-2.71,5.62-2.88,61.97-7.46,134.86-7.78,196.87-.11,17.69,2.19,35.12,6.33,52.51,9.99Z"/>
  <path class="st14" d="M875,488l12,32c-13.12,14.51-28.23,27.12-42,41-1.13.41-2.38,1.39-4,2l-13.51-12.98,3.51,15.98c-.13.05-.64,1.37-1.7,1.76-6.48,2.46-15.97,3.45-16.3,12.24-6.37-.05-14.5.71-20.55.05-6.58-.72-.55-6.2,2.84-8.26,6.57-4,15.09-4.78,21.71-8.79,1.27-.77,2.04-2.04,3-3,.16-.16,1.24.66,1.96-.74,1.11-2.16,3.53-10.1,2.56-12.22l-27.1-27c-1.01-3.65,7.22-15.22,6.58-20.04,4.99-6.02,7.09-19.85,11.09-25.41.67-.93,1.16-1.56,2.41-1.59l49.84.16c3.4,1.16,4.28,12.27,7.66,14.84ZM867,489.01c-5.01-.75-9.94,2.7-14.52,3.03-5.11.36-15.22.05-20.98.05-4.48,0-10.02-3.15-14.49-4.08l15.51,47.01c1.63.34,6-4.95,8.98-4.95,3.46,0,6.67,5.58,10.48,4.93l15.02-45.98Z"/>
  <path class="st11" d="M465,563c1.77,28.31,3.65,56.74,6,85-11.56,0-25.69,3.51-37,2-.97-.13-1.13.34-2.07-.65-1.84-1.92-5.32-10.01-6.79-13-5.1-10.32-9.34-21.14-14.71-31.35-.52-1.08-.54-2.1-.26-3.25.67-2.69,8.98-13.67,11.01-18.07,2.88-6.25,5.52-13.76,5.82-20.68h37.99Z"/>
  <path class="st3" d="M515,510c.14.1.98.93,1,1,.15.44-.04,1.36,0,2,.42,5.98-1.73,16.42-4,22-.45,1.11-4.57,9.38-5,10-.07.1-1.28-.12-1.63.34-4.94,6.41-10.55,10.9-18.21,13.85-.59,1.17.07,2.74-.16,3.81-4.7,22.45-3.86,59.54-5,84-.44,9.32-1.12,18.66-.99,28.01h-8.01c.58-9.07-1.25-18.02-1.99-27.01-2.35-28.26-4.23-56.69-6-85-1.24-19.79-3.78-34.31,14.67-47.83,7.79-5.71,27.16-10.98,35.33-5.17Z"/>
  <path class="st0" d="M933,533c-14.88,6.35-21.57,19.84-14,34.99-10.17-.77-18.75.42-25,9.01-.85-.92-21.7.69-25,0,2.6-6.88,1.61-17.67,4-24.99-1.11-1.01-22.74,8.36-26.06,9.56-1.22.44-1.84-.61-1.93-.57,13.77-13.88,28.88-26.49,42-41,15.23,4.64,30.63,8.83,46,13Z"/>
  <path class="st3" d="M933,533c6.88,1.87,13.97,3.59,20.96,5.04.36,2.89-.3,6.13.04,8.96,1.58,12.97,26.62,25.17,15.65,42.15-1.33,2.06-3.72,4.34-6.21,4.79-10.86,1.98-26.99-1.36-38.45.05.76-1.69.97-4.12,1-6,3.91.85,29.92.67,34.55.05,5.36-.72,6.46-6.66,5.21-11.31-.45-1.65-7.37-11.35-8.94-13.06-.89-.98-.89-2.13-2.82-1.68v18l-59.46.07c-1.22-.34-.26-2.77-.54-3.07,6.25-8.59,14.82-9.77,25-9.01-7.57-15.16-.87-28.64,14-34.99Z"/>
  <path class="st3" d="M409,570c-4.07,5.74-10.83,13.27-16,18-3.73,3.42-19.77,14.11-20.8,17.7-1.44,14.4-2.09,28.88-3.2,43.3-.69,8.98-1.65,17.99-2,27-1.67-.64-9.64-.65-10-1-1.02-.96.06-24.11,0-28-.25-16.83-1.28-33.6-.95-50.45.94-5.12,10.82-12.07,12.41-16.59,1-2.83,1.35-8.72,1.54-11.96,2.82-.42,7.35,3,9.5,3h24c1.1,0,4.68-2.86,5.5-1Z"/>
  <path class="st11" d="M420,651l-51-2c1.11-14.42,1.76-28.9,3.2-43.3,1.03-3.59,17.07-14.28,20.8-17.7,2.56,5.07-.1,12,1.24,17.26s21.44,38.58,25.76,45.74Z"/>
  <path class="st8" d="M507,545l24.75,54.34c-10.97,14.51-21.82,29.13-32.75,43.66-3.06,4.07-5.61,8.56-9.5,11.97-2.44-2.11-4.71-4.45-4.5-7.97l30.84-48.68-28.84-35.32c.23-1.08-.43-2.64.16-3.81,7.65-2.96,13.26-7.44,18.21-13.85.35-.46,1.57-.24,1.63-.34Z"/>
  <path class="st8" d="M630,696c.28,20.01,10.15,40.15,27,51-.2.27.17,2.14-.55,2.9-11.38,12.14-28.07,19.09-44.45,21.1-.27-8.48.79-17,2.12-25.38,1.26-7.98,3.63-21.11,5.88-28.62,1.28-4.26,5.42-13.14,7.46-18.09.63-1.53-.11-3.5,2.54-2.91Z"/>
  <path class="st11" d="M485,647h-3c1.14-24.46.3-61.55,5-84l28.84,35.32-30.84,48.68Z"/>
  <path class="st3" d="M845,561c.09-.03.72,1.01,1.93.57,3.32-1.21,24.95-10.58,26.06-9.56-2.39,7.32-1.4,18.11-4,24.99-.52,1.38.02,2.91-2.5,3-17.83-.1-35.68.12-53.5,0,.33-8.78,9.83-9.78,16.3-12.24,1.05-.4,1.57-1.72,1.7-1.76,2.56-.97,6.31-1.62,10-3,1.62-.61,2.87-1.59,4-2Z"/>
  <path class="st15" d="M926,588c-.03,1.88-.24,4.31-1,6-3.96,8.85-15.69-1.02-22-2.5,2.84-1.95,13.91-7.16,16.67-7.31,2.04-.12,4.53,3.42,6.32,3.81Z"/>
  <path class="st8" d="M645,776c-3.66,12.37-7.01,28.78-.2,40.7,7.91,13.84,25.26,6.01,23.19-8.7,6.73.24,10.1,2.92,17,0,2.81,33.36-35.71,48.59-56.82,22.33-11.38-14.16-14.69-32.62-16.17-50.33,9.67.8,23.65-1.19,33-4Z"/>
  <path class="st3" d="M676,757c-6.79,7.59-21.28,16.08-31,19s-23.33,4.8-33,4c-3.22-.27-30.06-6.46-30.01-8.5,10.2-.31,19.61.77,30.01-.5,16.38-2,33.06-8.96,44.45-21.1.72-.77.36-2.64.55-2.9.1-.13,2.08-.29,3.05-1.41,2.44-2.82,3.54-7.23,7.64-5.86,1.57.53,13.01,8.07,13.25,8.91.54,1.83-3.58,6.83-4.94,8.36Z"/>
  <path class="st3" d="M580.99,770.01c.68.35-.59,1.7-1.99.98-.68-.35.59-1.7,1.99-.98Z"/>
  <path class="st5" d="M507,385c-16.55,27.84-33.02,55.82-49,84-11.86,2.66-41.59,22.54-53.98,29.55-1.32.75-3.35,1.01-4.02,1.45-4.75-1-9.35-2.64-14-4l-1-88,2-.49c-.57-.67-1.87-1.74-2-2.51-.98-5.79.72-13.91,0-20.01h122.01Z"/>
  <path class="st2" d="M144,502c4.99-.03,10.01.01,15,0,20.98-.04,42.02-.03,63,0,7.99.01,16.01-.04,24,0,23.22.12,49.25-1.61,72,1,5.74.66,13.12,1.8,19,3,8.31,1.7,18.14,4.53,23,11.99-35.93,1.16-72.45-2.77-107.99,3.02l20.37,6.11c1.38.17,7,4.69,5.62,5.87-43.59,5.56-87.52,5.23-131.49,5.01l8.23-5.72,1.27-2.29H59l7.68-5.82c8.84-4.5,27.2-7.2,37.32-8.18,5.06-.49,11.16-.75,16-1,5.35-.28,11.96.69,17,0l.5.98.5-.98-13-12.99c6.32-.05,12.68.03,19-.01Z"/>
  <path class="st12" d="M383,408v87c-15.1-4.29-30.55-8.37-46-11-.36-10.65-2.95-25.66-.77-36.27,1.19-5.8,12.78-23.08,16.3-29.7,1.69-3.19,3.53-6.52,4.48-10.02h26Z"/>
  <path class="st15" d="M399,502c4.55-.22,13.07,11.19,15.42,15.08,11.15,18.55,6.32,36.34-5.42,52.92-.82-1.86-4.4,1-5.5,1h-24c-2.15,0-6.68-3.42-9.5-3,.5-8.36-.01-17.53,0-26,0-1.45-1.1-3.44-1.08-5.49.05-6.77,2.09-12.63,5.08-18.51.23-.3.05-1.45,1.02-2.44,1.78-1.82,22.05-13.47,23.98-13.56Z"/>
  <path class="st14" d="M77,401l28.99,36,1.01-36c3.33,0,6.67,0,10,0,.2,4.48-.28,9.05-.04,13.54.07,1.3,1.04,2.61,1.04,2.96v38c0,1.97.91,6.34,1,9.5.46,16.65,1.06,33.33,1,50-4.84.25-10.94.51-16,1,1.25-16.29.63-32.63,1-49,0-.13,1-1.13,1.04-2.42.13-4.03.62-10.5-1.17-13.95-11.96-15.23-25.17-29.72-36.9-45.1-1.13-1.48-2.41-2.19-1.97-4.53,3.66,0,7.34,0,11,0Z"/>
  <path class="st14" d="M335,408l.5,22.01,11.5-22.01h10c-.95,3.51-2.78,6.83-4.48,10.02-3.52,6.63-15.11,23.9-16.3,29.7-2.17,10.61.41,25.63.77,36.27.25,7.3-.18,14.69,0,22-5.88-1.2-13.26-2.34-19-3,3.48.12,2.77.63,3-2.45.51-6.68,1.2-13.25,1.05-19.95-.14-1.21-1.55-.39-2.05-.6l2.07-3.41.93-68.59h12Z"/>
  <path class="st3" d="M370,542c-2.57-.6-1.87,1.46-2.62,2.83-7.5,13.65-16.83,26.26-23.86,40.19-1,1.27-6.49,2-5.5-.5,13.7-19.85,21.61-47.67,35.99-66.52-2.99,5.87-5.03,11.74-5.08,18.51-.02,2.05,1.08,4.04,1.08,5.49Z"/>
  <path class="st4" d="M385,408l1,88c-1-.29-1.97-.71-3-1v-87h2Z"/>
  <path class="st8" d="M973,255c.15.53-.1,1.37,0,2-4.32,1.87-14.39,17.58-18.36,16.89-1.17-.2-15.29-14.84-16.64-16.89-.4-.61-.63-1.36-1-2,6.73-4.99,11.53-12.58,18.5-17.04,1.29,0,17.01,15.36,17.5,17.04Z"/>
  <path class="st14" d="M895,335c.64.45,1.08,1.06,2,1,0,.67,0,1.33,0,2-.61.12-1.56-.18-2,0-2.27.94-8.6,11.34-12.5,12.04-1.54,0-13.66-12.1-13.43-13.4,2.4-2.12,11.16-12.67,13.43-12.67,4.94,2.73,7.89,7.76,12.5,11.04Z"/>
  <path class="st0" d="M272.64,58.07c1.42-.25,12.48,11.11,13.4,13.43,0,2.27-10.56,11.03-12.67,13.43-1.42.25-12.48-11.11-13.4-13.43,0-2.27,10.56-11.03,12.67-13.43Z"/>
  <path class="st8" d="M94.5,159.02l13.43,13.62c.23,1.3-11.89,13.4-13.43,13.4-2.32-.92-13.68-11.97-13.43-13.4l13.43-13.62Z"/>
  <path class="st0" d="M939.64,72.07c1.5-.26,17.36,15.76,17.37,18.44.01,2.85-12.8,12.02-13.98,16.01-1.76,2.15-3.4,1.82-5.58.53-1.65-.98-15.48-15.41-15.48-16.55,4.78-6.83,11.75-12.41,17.67-18.43Z"/>
  <path class="st0" d="M574.72,50.14c1.78-.5,2.41-.05,3.84.81,1.67.99,15.48,15.41,15.48,16.55-4.78,6.83-11.75,12.41-17.67,18.43-1.33.23-18.4-16.93-18.4-18.43,0-2.81,4.96-4.82,6.53-6.51,2.11-2.26,7.68-10.14,10.22-10.85Z"/>
  <path class="st7" d="M738,104c-1.22,3.55-6.49,5.34-9.52,7.98-62.33,54.14-19.34,156.35,62.89,149.89,7.94-.62,15.55-4.02,22.63-4.87-7.71,12.04-18.91,21.97-31.08,29.42-3.28,2.01-10.65,6.26-13.92,7.58-.77.31-1.55.84-2,1-40.78,14.38-92.29-1.45-116-38-.28-.44-.57-1.28-1-2-2.03-3.38-6.45-12.31-8-16-1.05-2.51-.53-6.23-3-8-.66-8.54-3.84-17.59-4.04-26.45-.26-11.26,3.22-21.09,4.04-31.55,2.3-1.65,2.08-4.79,3-7,2.03-4.89,4.84-10.37,7.58-14.92,4.82-8.01,11.75-14.06,16.42-22.08,1.88-.21,1.62-.32,3-1,4.05-2.01,9.17-7.13,13.69-9.81,20.34-12.02,33.05-11.53,55.31-14.19Z"/>
  <path class="st0" d="M854,128c.15.23-.15.77,0,1,32.36,49.28,11.62,98.75-36,126-1.05.6-2.31.82-3,2-.33.03-.67-.04-1,0-7.08.85-14.69,4.25-22.63,4.87-82.24,6.45-125.23-95.75-62.89-149.89,3.04-2.64,8.3-4.43,9.52-7.98,6.33-.76,20.19-9.22,29-11,.6-.12,1.37.1,2,0,32.1-5.19,66.46,7.82,85,35ZM780.78,118.28c-76.66,8.65-65.66,125.59,12.71,118.71,77.46-6.8,66.6-127.66-12.71-118.71Z"/>
  <path class="st10" d="M255,236c.61.27,1.26.68,2,1,14.32,6.24,28.72,12.64,43,19,.69.31,1.69,1.41,3,2,24.25,10.87,50.89,21.12,74.37,33.13,1.32.68,3.23,1.23,3.63,2.86-3.58.81-7.23-1.1-10.5-1.07-37.72.29-75.51,1.03-113.5,1.08-.67,0-1.33,0-2,0-4.99,0-10.01,0-15,0-4.32,0-8.68,0-13,0-19.65.02-39.35.01-59,0-3.33,0-6.67,0-10,0-32.32-.02-64.68.02-96.99,0-.56-2.89.84-1.59,2.19-2.25,20.64-10.07,42.75-19.34,63.8-28.74.68-.3,1.32-.7,2-1,3.61-1.61,7.43-3.41,11-5,.74-.33,1.4-.73,2-1,.71-.31,2.31-.17,3.68-.77,24.98-11.05,49.55-23.06,74.95-33.2,1.2-.27,2.26.12,3.39.42,7.08,1.85,23.1,10.12,30.98,13.55Z"/>
  <path class="st10" d="M162,304c4.52,1.93,9.44,4.04,14,6,16.58,7.12,33.58,14.64,50,22,5.01,2.24,9.37,4.87,15,7,3.32,1.26,1.02,1.82,1,2h-60c-8.65,0-17.35,0-26,0-3.33,0-6.67,0-10,0-1.33,0-2.67,0-4,0-2.33,0-4.67,0-7,0-1.67,0-3.33,0-5,0-1.33,0-2.67,0-4,0-6.32,0-12.68-.01-19,0h-3c-10.64.03-21.36-.21-32,0h-1c-2.29.07-4.75-.21-7,0l-4-1c30.76-13.13,61.21-27.81,92.28-39.82,2.95,2.05,6.72,2.54,9.72,3.82Z"/>
  <path class="st11" d="M126,366c.66.28,1.66,1.44,3,2,4.34,1.83,14.79,4.88,17,6,2.79,1.42,6.8,4.15,11,6,.65.28,1.29.69,2,1,2.71,1.2,5.29,2.8,8,4,9.83,4.36,19.89,8.34,29.67,12.83,1.52.7,4.78,1.65,5.32,3.16-14.98.03-30.01,0-44.99.01-3.66,0-7.34,0-11,0-9.65.01-19.35,0-29,0-3.33,0-6.67,0-10,0-9.99,0-20.01,0-30,0-3.66,0-7.34,0-11,0-14.32-.02-28.68.02-42.99-.01,1.17-1.68,4.68-2.94,6.63-3.85,8.36-3.89,16.95-7.38,25.36-11.14,1.31-.59,2.32-1.7,3-2s2.32-.17,3.68-.77c17.03-7.56,34.05-16.14,51.59-22.03,3.76,2.28,8.97,3.19,12.73,4.81Z"/>
  <path class="st14" d="M168,294l8,16c-4.56-1.96-9.48-4.07-14-6l-4-10c3.33,0,6.67,0,10,0Z"/>
  <path class="st4" d="M130,341c-1.8,7.17-1,15.52-1,23v4c-1.34-.56-2.34-1.72-3-2,1.66-1.04,1-3.79,1.02-5.49.08-6.3.69-13.55-1.02-19.51,1.33,0,2.67,0,4,0Z"/>
  <path class="st4" d="M60,340l4,1c-1.56.15-6.72,3.33-6-1h2Z"/>
  <path class="st4" d="M107,341c-.82,0-2.19,0-3,0h3Z"/>
  <path class="st4" d="M71,341h1c-.34,0-.7,0-1,0Z"/>
  <path class="st0" d="M954,456c-.32,6.95.44,14.07,0,21-.06,1.03-.83,3.07-1,5-.38,4.18-.62,8.36-.95,12.55-.1,1.25.04,4.11-1.56,4.45-3.74.79-1.08-10.53-3.48-11.99.34-6.99.69-11.69-7-14,0-1.23-.2-2.92,0-4,.43-2.34,9.79-12.52,12-13,.58-.12,1.35.07,2,0Z"/>
  <path class="st10" d="M968,456v15.99s9.53-9.98,9.53-9.98l2.47-4.02c8.71,4.61,8.57,9.56,8.99,19l-3.99-4c.29-2.4.11-9.44-1-11.35-.62-1.07-1.64-.94-2.44-.59-1.59.69-10.42,12.86-13.54,14.45,1.09,1.2,1.25,1.92,2.99,1.02,1.65-.85,11.46-13.07,12.98-11.51-.5,4.07-4.69,7.33-7.52,10.02-1.01.96-4.05.9-1.97,2.98h8.5c-.07.63-.01,1.35,0,1.99l-8,1.01c1.33,2.98,3.55,1.62,4,4.99-2.57-.54-2.05,1.24-2.71,2.74-.79,1.8-4.07,13.32-7.28,10.26-.27-4.65,4.41-10.83,2.5-15.02-.51-1.13-2.15-1.5-2.5-1.98-1.05-1.46-2.33-4.51-4-5v-21c1,.02,2-.04,3,0Z"/>
  <path class="st0" d="M933,437c-1.27,4.45,8.49,7.15,7.93,10.36-.1.58-7.4,8.39-7.93,8.64-1.12.52-7.08,2.4-9,3l-4-6c2.53-4.37,5.28-8.28,7.99-12.51l-1.98-1.47c3.9-1.95,2.24-2.87,6.99-2.02Z"/>
  <path class="st10" d="M952,456c-2.21.48-11.57,10.66-12,13-2.49,0-2.65-.95-3-3,2.48-2.28,10.5-8.65,11.02-11.49.23-1.29-.18-2.07-1.5-1.5-.8.34-9.26,9.1-9.51,9.99-3.29.66-1.49-1.68-2-3,3.15-2.93,8.88-6.33,8.99-11l-9.99,9c-.29-.68-.7-1.32-1-2,.53-.25,7.82-8.06,7.93-8.64.57-3.21-9.19-5.91-7.93-10.36,2.11.38,4.71.86,6.53,1.97.75.46,11.62,10.3,11.96,11.04.88,1.91.52,3.99.51,5.98Z"/>
  <path class="st0" d="M983,478h-8.5c-2.07-2.08.96-2.01,1.97-2.97,2.83-2.69,7.02-5.95,7.52-10.02-1.52-1.56-11.33,10.66-12.98,11.51-1.75.9-1.9.18-2.99-1.02,3.11-1.58,11.95-13.76,13.54-14.45.81-.35,1.83-.47,2.44.59,1.11,1.91,1.29,8.95,1,11.35-.12,1.01-1.89,4.03-2,5Z"/>
  <path class="st8" d="M940,473c7.69,2.31,7.34,7.01,7,14,0,.09-.82-.13-.97,1.48-.39,4.22,1.95,11.33-4.02,10.51.61-5.77-.55-11.34-1.01-17-.25-3.12-.99-5.57-1-9Z"/>
  <path class="st0" d="M980,458l-2.47,4.02-9.52,9.98v-15.99c2.97.11,6.81-.48,9.52.02,2.08.38,2.14,1.81,2.47,1.98Z"/>
  <path class="st0" d="M983,480c0,.18,1.05,1.13,1,2-.28,4.53.76,18.11-4.99,17-.46-.46.3-10.72,0-13-.45-3.37-2.67-2.01-4-4.99l8-1.01Z"/>
  <path class="st0" d="M960,456v21c-1-.02-2,0-3,0v-21c.99-.06,2,.03,3,0Z"/>
  <path class="st10" d="M957,456v21h-3c.44-6.93-.32-14.05,0-21,.98-.11,2.01.06,3,0Z"/>
  <path class="st0" d="M965,456v21c-.72-.21-2.06.08-3,0v-21c1-.02,2-.02,3,0Z"/>
  <path class="st0" d="M937,463c.25-.89,8.71-9.65,9.51-9.99,1.32-.56,1.73.22,1.5,1.5-.51,2.84-8.54,9.21-11.02,11.49-.11-.62-.14-2.49,0-3Z"/>
  <path class="st11" d="M962,456v21c-.65-.06-1.34.01-2,0v-21c.67-.02,1.33.01,2,0Z"/>
  <path class="st10" d="M924,459c-1.74.55-4.87,2.4-6.57.05-2.01-2.77,1.9-4.89,2.57-6.05l4,6Z"/>
  <path class="st0" d="M935,460c-.2-.53-.68-1.26-1-2l9.99-9c-.11,4.67-5.84,8.07-8.99,11Z"/>
  <path class="st5" d="M769,507v-122h126v101c-6.45.63-13.53-.17-20,2-3.38-2.57-4.26-13.68-7.66-14.84l-49.84-.16c-1.25.03-1.75.66-2.41,1.59-3.99,5.57-6.1,19.4-11.09,25.41-11.74,1.85-23.37,4.57-35,7Z"/>
  <path class="st12" d="M957,477c1,0,2-.02,3,0,.66.01,1.35-.06,2,0,.94.08,2.28-.21,3,0,1.67.49,2.95,3.54,4,5h-16c.17-1.93.94-3.97,1-5h3Z"/>
  <path class="st5" d="M513,217c-.1-29.32.08-58.68,0-88h126c-.83,14.31,1.12,29.84,0,44-.83,10.46-4.3,20.29-4.04,31.55.2,8.86,3.38,17.91,4.04,26.45.6,7.75-.44,16.17,0,24h-126c-.04-11.65.05-23.35,0-35,0-1,0-2,0-3Z"/>
  <path class="st5" d="M257,237v-108h126v126l-83,1c-14.28-6.36-28.68-12.76-43-19Z"/>
  <path class="st5" d="M385,331v-74h126l1,119c-1.36,2.28-2.62,4.68-4,7h-123.01s0-21,0-21v-1c19.99.05,40.01-.04,60,0l.98-.5-.98-.5c-18.55-10.52-40.79-16.94-59.33-26.97-.93-.5-.58-1.97-.67-2.03Z"/>
  <path class="st5" d="M511,222v33h-126v-126h126l-1,87c-4.25-2.79-6.82-7.63-11.36-9.93-1.91,2.07-12.87,11.55-12.56,13.29l13.43,13.62c3.64-3.88,7.58-7.41,11.5-10.98ZM428.64,188.07c-2.31,2.53-17.88,16.51-17.56,18.29,2.93,2.55,16.06,17.67,18.43,17.67,2.92-1.68,17.54-15.61,17.54-17.54-1.38-2.77-16.97-18.68-18.4-18.43Z"/>
  <path class="st5" d="M815,257h80.01s0,78,0,78c-4.61-3.27-7.56-8.31-12.5-11.04-2.27,0-11.03,10.56-13.43,12.67-.23,1.3,11.89,13.4,13.43,13.4,3.9-.7,10.23-11.1,12.5-12.04v45h-126v-89c3.27-1.32,10.64-5.57,13.92-7.58,12.17-7.45,23.37-17.38,31.08-29.42.33-.04.67.03,1,0Z"/>
  <path class="st5" d="M661,511h-20v-126h126v123c-10.08,2.06-20.73,4.38-30.56,5.94-6.99,1.11-14.34,1.91-21.44,2.06-.38-5.03,1.02-10.12,1-14,4.51.9,17.31,6.05,21.04,3.54,1.45-.98,8.95-20.43,6.46-23.53-.89.98-7.68,12-9.5,9.99l.99-5.99c-13.87,6.16-8.24-4.78-10-7.01-.23-.29-1.74.66-2.46.5-1.07-.24-2.14-1.68-2.99-1.49-.81.18-1.13,2.04-1.86,2.7-.54.48-1.57.19-1.68.3-8.4-4.47-10.76-3.95-19.2-.9-.79.29-.48,1.76-2.24,1.97-7.12.89-19.19-1.66-25.51.47-1.03.35-9.68,7.51-9.88,8.12-1.89,5.51,1.18,14.82,1.84,20.34Z"/>
  <path class="st5" d="M142,256c-3.38-2.22-8.89-.47-13-1v-126h126v107c-7.88-3.44-23.9-11.7-30.98-13.55-1.13-.3-2.19-.69-3.39-.42-25.39,10.14-49.97,22.15-74.95,33.2-1.37.61-2.97.46-3.68.77Z"/>
  <path class="st5" d="M556,385h83v126h-123c-.02-.07-.86-.9-1-1l-1-10c12.68-38.77,28.19-76.73,42-115Z"/>
  <path class="st5" d="M651,257c23.71,36.55,75.22,52.38,116,38v88h-126v-126c0-.5,8.73.36,10,0Z"/>
  <path class="st12" d="M514,374l-1-117h126v126h-83c2.5-6.9,5.54-13.77,7-21,9.58.8,19.44-.83,29,1,.08,1.07-.25,2.28.14,3.32,1.24,3.36,14.26.96,17.87,1.68-.47-3.52.92-8.82-.52-11.99-1.34-2.94-13.36-12.72-16.48-16.02-.46-.49-1.64-3.59-3-5,1.61-2.91,9.95-22.76,8.99-24l-21.99,10c-.59-.6-2.11-.89-3-1,.5-3.74-1.39-7.07-1.9-10.6-.81-5.68,2.55-11.65-6.1-10.4v20c-2.32.46-1.6-.25-2.25-1.28-2.9-4.61-4.09-18-4.8-18.67-.47-.44-3.77.14-4.95-.06v21c-1.44-.03-2.22.9-4.76.35-6.45-1.39-13.74-7.35-20.23-9.35-.79.99,6.84,21.58,7.99,24-7.81,12.9-15.29,26.04-23,39Z"/>
  <path class="st9" d="M804,500c.64,4.82-7.59,16.39-6.58,20.04l27.1,27c.97,2.13-1.44,10.06-2.56,12.22-.72,1.4-1.8.58-1.96.74-17.39-3.66-34.82-7.8-52.51-9.99-62.01-7.67-134.9-7.35-196.87.11-1.45.17-6.42.21-5.62,2.88-9.03-2.86-18.51-7.23-27-10,13.41-4.64,27.81-7.86,41.79-10.71,19.35-3.95,39.65-7.79,59.21-10.29.65-.08,1.35.08,2,0,6.5-.8,13.52-.47,20-2,.09.79.77,3.62,1.14,3.85l19.85-.86c.3-.28-.66-3.22-1-3.99l18-1c.13,1.98-.1,4.02,0,6.01,3.65-.11,7.36.14,11.01,0,1.59-.06,6.88.47,6.98-1.49.02-.35-1.75-3.48-1.98-6.51,7.1-.16,14.44-.95,21.44-2.06,9.83-1.56,20.48-3.88,30.56-5.94.92-.19,1.66-.93,2-1,11.63-2.43,23.26-5.15,35-7Z"/>
  <path class="st10" d="M384,331c.35.09.83-.13,1,0,.09.06-.26,1.53.67,2.03,18.54,10.02,40.78,16.45,59.33,26.97v1c-19.99-.04-40.01.05-60,0-.16,0-1.3-1-3-1-3.27,0-5.94,1-9,1-12.99,0-26.01.02-39,0-3.02,0-7.03,0-10,0-22.33-.07-44.69.28-67,0-.57,0-1.5,0-2,0-4.32-.06-8.68.1-13,0-4.87-.11-10.7-.89-16-1-2.02-.04-17.99.4-18.01-.5,5.17-2.53,10.49-4.92,15.75-7.3,1.28-.58,2.08-2.11,2.26-2.2,4.28-1.94,10.76-3.65,16-6,4.34-1.95,8.67-4.07,13-6,.7-.31,1.34-.71,2-1,23.02-10.25,46.29-20.12,69.52-29.9,17.06,6.92,33.65,14.96,50.49,22.38,2.82,1.24,4.66.92,6.99,1.52Z"/>
  <path class="st10" d="M550,335c.62,11.78-3.78,25.6,13,27-1.46,7.23-4.5,14.1-7,21-.19.51.19,1.48,0,2-13.81,38.27-29.32,76.23-42,115l-6.56-10.94c-6.33-9.78-20.95-18.58-32.44-20.06l75-134Z"/>
  <path class="st12" d="M303,258l80.01-1.01.99,74.01c-2.32-.6-4.17-.28-6.99-1.52-16.84-7.41-33.43-15.45-50.49-22.38-23.23,9.78-46.5,19.65-69.52,29.9v-43c37.99-.05,75.78-.79,113.5-1.08,3.27-.03,6.92,1.88,10.5,1.07-.4-1.63-2.31-2.18-3.63-2.86-23.48-12.01-50.12-22.26-74.37-33.13Z"/>
  <path class="st12" d="M516,513h123.01s0,9,0,9c-19.56,2.5-39.86,6.34-59.21,10.29-13.98,2.85-28.38,6.07-41.79,10.71-1.02-.33-3.23.14-5.02-.45-7.05-2.31-14.22-4.51-20.98-7.55,2.27-5.58,4.42-16.02,4-22Z"/>
  <path class="st11" d="M550,335l-75,134c-2.56-.33-14.93-.46-17,0,15.98-28.18,32.45-56.16,49-84,.43-.72.67-1.45,1-2,1.38-2.32,2.64-4.72,4-7,.18-.3,1.34-.89,2-2,7.71-12.96,15.19-26.1,23-39,.21.43,1.17,2.04,1.61,2.05l11.38-5.05c.06.99-.04,2,0,3Z"/>
  <path class="st8" d="M716,481c-1.78,1.81-.96,14.08-1,17.55-.02,1.44,1,2.91,1,3.45.02,3.88-1.38,8.97-1,14,.23,3.02,1.99,6.16,1.98,6.51-.1,1.96-5.38,1.43-6.98,1.49-3.64-6.51-1.08-10.5,0-16.99-3.23.78-10.09.24-12.08,2.45-.69.77-.79,2.45-.91,2.54-2.84,2.21-15.33.78-18.99-1-.64,3.28,2.06,5.79,2.99,8,.33.78,1.3,3.72,1,3.99l-19.85.86c-.37-.23-1.05-3.06-1.14-3.85-.26-2.22.29-4.81,0-7-.08-.65.08-1.35,0-2-.66-5.51-3.73-14.83-1.84-20.34.21-.6,8.85-7.77,9.88-8.12,6.32-2.13,18.39.41,25.51-.47,1.76-.22,1.45-1.69,2.24-1.97,8.45-3.04,10.81-3.56,19.2.9ZM671.99,520c.86-.87-.92-7.89-3.99-6.99-1.34,2.5,1.37,9.61,3.99,6.99Z"/>
  <path class="st12" d="M666,129c-4.67,8.02-11.6,14.07-16.42,22.08-2.74,4.55-5.55,10.03-7.58,14.92l-1.01-37.01c7.97-.64,17.21.89,25.01,0Z"/>
  <path class="st8" d="M510,216c1.01.66,1.49,1.35,3,1,0,1,0,2,0,3-1.12.25-1.44,1.49-2,2-3.92,3.58-7.86,7.1-11.5,10.98l-13.43-13.62c-.31-1.74,10.66-11.22,12.56-13.29,4.54,2.29,7.11,7.14,11.36,9.93Z"/>
  <path class="st12" d="M661,513c.29,2.19-.26,4.78,0,7-6.48,1.53-13.5,1.2-20,2v-9.01s20,0,20,0Z"/>
  <path class="st12" d="M650,255h-9.01c.59-5.05-1.27-11.34,1.01-16,1.55,3.69,5.97,12.62,8,16Z"/>
  <path class="st12" d="M140,257c-3.57,1.59-7.39,3.39-11,5v-5.01s11,0,11,0Z"/>
  <path class="st12" d="M854,129h41v126h-77c47.62-27.25,68.36-76.72,36-126Z"/>
  <path class="st8" d="M294,926c.37-.51,8.8,6.69,10.67,6.86,1.21.11,4.04-2.88,5.94-3.74,10.91-4.96,24.63-5.12,35.42.35,6.84,3.47,8.13,6.37.67,10.74-9.61,5.62-26.87,4.93-36.76.35-1.88-.87-3.88-3.57-5.43-3.57-2.43,0-7.79,6.08-10.52,7.01v-18Z"/>
  <path class="st5" d="M501.8,870.3c16.78-1.34,48.27.82,61.7,11.71,7.4,6,8.05,14.23.41,20.41-20.5,16.59-79.48,16.46-100.24.41-9.34-7.22-7.94-14.92,1-21.65s25.98-9.98,37.12-10.88ZM498.8,873.3c-10.28.87-52.41,9.83-35.29,26.69,11.09,10.92,46.08,13.05,61.03,12.05,11.9-.8,59.22-10.6,36.48-28.56-13.79-10.89-45.34-11.61-62.22-10.18Z"/>
  <path class="st6" d="M752,849h-8c-.23-.23-1.88-.2-3.01-1.45-9.44-10.44-11.24-23.57,2.01-31.55,5.8,12.47,8.83,18.57,9,33Z"/>
  <path class="st3" d="M752,849c.03,2.91-.87,4.44-1,6-3.48-.83-4.88-3.94-7-6h8Z"/>
  <path class="st6" d="M207,859c12.39,1.98,29.08,3.11,37,13.99l-42.99,3.02,31.79,8.69,3.18,1.8c.06,3.84-35.31,8.36-39.44,8.54-14.72.66-51.86-1.51-62.08-13-11.41-12.83,20.38-21.29,28.54-22.04.09.37,3.43,5.76,4,6.5,12.06,15.49,35.02,11.73,40-7.5Z"/>
  <path class="st11" d="M682.72,695.19c9.53-2.83,12.4,10.12,6.05,13.06-10.33,4.79-14.34-10.6-6.05-13.06Z"/>
  <path class="st0" d="M867,489.01l-15.02,45.98c-3.81.65-7.03-4.93-10.48-4.93-2.98,0-7.35,5.28-8.98,4.95l-15.51-47.01c4.47.93,10.01,4.08,14.49,4.08,5.76,0,15.87.32,20.98-.05,4.58-.32,9.51-3.77,14.52-3.03ZM849,519h-15c-.11,2.21,5.89,8.04,7.5,8.04,1.8,0,8.56-7.1,7.5-8.04Z"/>
  <path class="st0" d="M841,563c-3.69,1.38-7.44,2.03-10,3l-3.51-15.98,13.51,12.98Z"/>
  <path class="st10" d="M324,378c2.97,1.35,6.03,3.31,10,5,7.2,3.06,14.96,5.91,22,9,2.2.97,6.02,3.66,9,5,5.51,2.47,12.46,6.28,18,8,.51.16,1.38-.11,2,0,.13.77,1.43,1.84,2,2.51l-2,.49h-62c-20.92,0-45.58,1.63-66,0-.33-.03-.68.05-1,0-1.29-.21-2.19-.31-3-1.5-.1-1.04,1.8-.24,2-.5.68-.28,1.31-.76,2-1,14-4.94,29.98-13.01,44-19,1.91-.82,3.74-2.46,5-3,4.47-1.92,13.88-6.87,18-5Z"/>
  <path class="st4" d="M385,362v21.01s123,0,123,0c-.33.55-.57,1.28-1,2h-122.01c.73,6.09-.98,14.21,0,20-.62-.11-1.49.16-2,0v-20.01c-3.58.25-7.47-.33-11,0,.09-.64-.14-1.44,0-2h11.01s0-20,0-20l2-1Z"/>
  <path class="st14" d="M194,341c8.41,16.11,17.17,32.12,26,48,.86,1.54,2.36,6.45,4.49,5.99s2.25-7.39.51-8.99c.1-1.32-.05-2.67,0-4,3.61-3.16,2.31-12.75,1-17,.22-1.57-.15-3.39,0-5,5.3.11,11.13.89,16,1v2c-1.67,5.37-1.68,13.55,0,19,0,.33,0,.67,0,1,0,.67,0,1.33,0,2,0,2,0,4,0,6,0,8.6-.36,18.41,0,27.55.08,1.93-1.03,4.01,2,3.45.21,6.64-.17,13.36,0,20-1.73,3.72-1.16,9.45-1,13.55.08,1.92-1.03,4.01,2,3.45.02,1-.02,2,0,3,.02.76-.02,2.12,0,3,0,.33,0,.67,0,1s0,.67,0,1,0,.67,0,1c-1.7,2.87-1.67,9.33,0,12,.26,7.36.76,14.65,1,22-7.99-.04-16.01.01-24,0-.52-12.7.62-25.34,1-38,.5-16.73,1.08-33.53.77-50.27-5.56-12.49-14.17-24-20.69-35.52-2.05-3.61-13.3-28.19-15.58-28.19-7.19,10.96-16.35,22.44-20.5,34.98-2.71-1.2-5.29-2.8-8-4l23-40h12Z"/>
  <path class="st11" d="M223,464c-.38,12.66-1.52,25.3-1,38-20.98-.03-42.02-.04-63,0-.18-13.31.25-26.69,0-40l64,2Z"/>
  <path class="st11" d="M248,467c2.5.16,4.6.72,7,1,.65.08,1.35-.08,2,0,12.77,1.64,25.57,3.84,38.21,6.29,7.59,1.47,17.88,2.83,24.79,5.71.5.21,1.91-.62,2.05.6.15,6.7-.54,13.27-1.05,19.95-.23,3.08.48,2.57-3,2.45-22.75-2.61-48.78-.88-72-1-.24-7.35-.74-14.64-1-22-.14-3.98.1-8.02,0-12,0-.33,0-.67,0-1,1,.04,2.01-.06,3,0Z"/>
  <path class="st14" d="M157,401c1.5,19.13.58,38.37.93,57.62.03,1.81,1.07,3.2,1.07,3.38.25,13.31-.18,26.69,0,40-4.99.01-10.01-.03-15,0,.3-12.99.62-26.01,1-39,.19-6.46.93-13.37,1.04-19.46.26-14.17-.28-28.38-.04-42.54,3.66,0,7.34,0,11,0Z"/>
  <path class="st11" d="M145,463c-.38,12.99-.7,26.01-1,39-6.32.04-12.68-.04-19,.01l13,12.99c-.33.03-.67-.04-1,0-5.04.69-11.65-.28-17,0,.06-16.67-.54-33.35-1-50l26-2Z"/>
  <path class="st14" d="M137,515c.33-.04.67.03,1,0l-.5.98-.5-.98Z"/>
  <path class="st12" d="M146,401c-.24,14.16.31,28.37.04,42.54-.11,6.09-.85,12.99-1.04,19.46l-26,2c-.09-3.16-1-7.53-1-9.5v-38c0-.36-.97-1.66-1.04-2.96-.24-4.49.24-9.05.04-13.54,9.65,0,19.35.01,29,0Z"/>
  <path class="st12" d="M107,401l-1.01,36-28.99-36c9.99,0,20.01,0,30,0Z"/>
  <path class="st12" d="M323,408l-.93,68.59-2.07,3.41c-6.91-2.88-17.21-4.24-24.79-5.71-12.64-2.46-25.44-4.65-38.21-6.29v-60c20.42,1.63,45.08,0,66,0Z"/>
  <polygon class="st12" points="347 408 335.5 430.01 335 408 347 408"/>
  <path class="st14" d="M780.78,118.28c79.31-8.95,90.17,111.91,12.71,118.71-78.36,6.88-89.36-110.05-12.71-118.71Z"/>
  <path class="st12" d="M227,294l-1,38c-16.42-7.36-33.42-14.88-50-22l-8-16c19.65.01,39.35.02,59,0Z"/>
  <path class="st12" d="M255,294v44c-4.33,1.93-8.66,4.05-13,6,.08-.99-.11-2.02,0-3,.02-.18,2.32-.74-1-2l-1-45c4.99,0,10.01,0,15,0Z"/>
  <path class="st14" d="M240,294l1,45c-5.63-2.13-9.99-4.76-15-7l1-38c4.32,0,8.68,0,13,0Z"/>
  <path class="st4" d="M257,294v43c-.66.29-1.3.69-2,1v-44c.67,0,1.33,0,2,0Z"/>
  <path class="st12" d="M226,341v9c-.18.08-.97,1.61-2.26,2.2-5.26,2.39-10.58,4.78-15.75,7.3.02.9,15.99.46,18.01.5-.15,1.61.22,3.43,0,5-.88,6.22-.78,10.68-1,17-.05,1.33.1,2.68,0,4-.18,2.4-.63,4.64-1.01,7l-3.99-4c-8.83-15.88-17.59-31.89-26-48h32Z"/>
  <path class="st12" d="M182,341l-23,40c-.71-.31-1.35-.72-2-1l-1-39c8.65,0,17.35,0,26,0Z"/>
  <path class="st14" d="M156,341l1,39c-4.2-1.85-8.21-4.58-11-6,1.01-8.65,1.18-17.28,1-26-.05-2.39.39-4.83-1-7,3.33,0,6.67,0,10,0Z"/>
  <path class="st12" d="M135,341c1.26,1.65,5.74,1.65,7,0,1.33,0,2.67,0,4,0,1.39,2.17.95,4.61,1,7l-11.5,14-6.5,2c0-7.48-.8-15.83,1-23,1.67,0,3.33,0,5,0Z"/>
  <path class="st14" d="M242,341c-.11.98.08,2.01,0,3-5.24,2.35-11.72,4.06-16,6v-9h16Z"/>
  <path class="st4" d="M142,341c-1.26,1.65-5.74,1.65-7,0,2.33,0,4.67,0,7,0Z"/>
  <path class="st12" d="M167,385c4.15-12.54,13.31-24.02,20.5-34.98,2.28,0,13.53,24.58,15.58,28.19,6.53,11.52,15.13,23.02,20.69,35.52.3,16.75-.28,33.55-.77,50.27l-64-2c0-.18-1.04-1.57-1.07-3.38-.34-19.25.58-38.48-.93-57.62,14.99-.02,30.01.02,44.99-.01-.54-1.51-3.8-2.46-5.32-3.16-9.78-4.49-19.85-8.46-29.67-12.83Z"/>
  <path class="st5" d="M147,348c.18,8.72.01,17.35-1,26-2.21-1.12-12.66-4.17-17-6v-4l6.5-2,11.5-14Z"/>
  <path class="st9" d="M385,361v1l-2,1h-1c.13-.96-.09-2.02,0-3,1.7,0,2.84,1,3,1Z"/>
  <polygon class="st9" points="445 361 445 360 445.98 360.5 445 361"/>
  <path class="st0" d="M428.64,188.07c1.43-.25,17.01,15.66,18.4,18.43,0,1.93-14.61,15.85-17.54,17.54-2.37,0-15.5-15.12-18.43-17.67-.32-1.78,15.25-15.76,17.56-18.29Z"/>
  <path class="st14" d="M716,481c.11-.11,1.15.18,1.68-.3.73-.66,1.05-2.52,1.86-2.7.86-.19,1.93,1.26,2.99,1.49.71.16,2.23-.79,2.46-.5,1.76,2.22-3.87,13.17,10,7.01l-.99,5.99c1.82,2.01,8.61-9.01,9.5-9.99,2.49,3.1-5.01,22.55-6.46,23.53-3.73,2.52-16.53-2.63-21.04-3.54,0-.54-1.02-2.01-1-3.45.04-3.46-.78-15.74,1-17.55Z"/>
  <path class="st2" d="M554,320c6.24.14,14.11-.73,20,0,.89.11,2.41.4,3,1,.21.21.2,1.72.97,2.49,3.84,3.89,8.57,7.9,12.03,11.51,1.36,1.41,2.54,4.51,3,5-1.66,1.04-1,3.8-1.02,5.49-.06,5.6-.39,12.04.02,17.51-9.56-1.83-19.42-.2-29-1-16.78-1.4-12.38-15.22-13-27-.05-1,.05-2.01,0-3l-11.38,5.05c-.44,0-1.4-1.61-1.61-2.05-1.15-2.42-8.78-23.01-7.99-24,6.49,2,13.78,7.96,20.23,9.35,2.54.55,3.31-.38,4.76-.35ZM563,341h14c-.2-1.38-5.09-7.99-5.57-8.07-3.29-.55-6.14,5.95-8.43,8.07Z"/>
  <path class="st14" d="M593,340c3.12,3.3,15.15,13.08,16.48,16.02,1.44,3.17.05,8.46.52,11.99-3.61-.72-16.63,1.68-17.87-1.68-.39-1.05-.06-2.25-.14-3.32-.41-5.47-.08-11.92-.02-17.51.02-1.69-.64-4.45,1.02-5.49Z"/>
  <path class="st14" d="M554,320v-21c1.18.2,4.48-.38,4.95.06.7.66,1.89,14.06,4.8,18.67.65,1.03-.07,1.74,2.25,1.28v-20c8.65-1.25,5.3,4.72,6.1,10.4.5,3.53,2.4,6.87,1.9,10.6-5.89-.73-13.76.14-20,0Z"/>
  <path class="st8" d="M590,335c-3.46-3.6-8.19-7.62-12.03-11.51-.76-.77-.76-2.28-.97-2.49l21.99-10c.96,1.24-7.38,21.09-8.99,24Z"/>
  <path class="st2" d="M697,512c.12-.1.22-1.78.91-2.54,1.99-2.21,8.85-1.67,12.08-2.45-1.08,6.5-3.63,10.48,0,16.99-3.65.15-7.35-.11-11.01,0-.1-1.99.14-4.02,0-6.01-.15-2.24.78-5.1-2-6Z"/>
  <path class="st13" d="M697,512c2.78.9,1.85,3.76,2,6l-18,1c-.94-2.21-3.63-4.71-2.99-8,3.67,1.78,16.15,3.2,18.99,1Z"/>
  <path class="st5" d="M324,361v17c-4.12-1.87-13.53,3.08-18,5h-49.01s0-22,0-22c22.31.28,44.67-.07,67,0Z"/>
  <path class="st12" d="M373,361c-.98,1.2-.68,2.76-1,4-.36.31-.7.63-1,1-.76.94-.66,1.35-1,2l-1,2c-.39.68-.65,1.37-1,2l-1,1c-1.19,2.15-2.28,5.77-3,7l-1,1c-2.04,3.49-5.12,7.22-7,11-7.04-3.09-14.8-5.94-22-9v-22c12.99.02,26.01,0,39,0Z"/>
  <path class="st14" d="M382,360c-.09.98.13,2.04,0,3-.05.34.09.95,0,1-.38.22-1.77-.26-1.99,0-.3.35.19,2.21,0,3-1.47,5.74-6.77,10.91-8,16-.14.56.09,1.36,0,2-.95.09-1.26-.41-2.08.62-1.41,1.78-4.54,8.74-4.92,11.38-2.98-1.34-6.8-4.03-9-5,1.88-3.78,4.96-7.51,7-11,.17-.29.75-.56,1-1,.72-1.23,1.81-4.85,3-7,.14-.26.74-.53,1-1,.35-.63.61-1.32,1-2s.65-1.34,1-2,.24-1.06,1-2c.42-.19.89-.56,1-1,.32-1.24.02-2.8,1-4,3.06,0,5.73-1.01,9-1Z"/>
  <path class="st12" d="M255,361v22.01s-13,0-13,0c0-.33,0-.67,0-1,.09-6.32,0-12.68,0-19v-2c4.32.1,8.68-.06,13,0Z"/>
  <path class="st4" d="M257,361v22.01s49,0,49,0c-1.26.54-3.09,2.18-5,3l-44.01-1.01v20.01c-.68.24-1.31.72-1.99,1,.73-.94-.55-18.01,0-21.01h-13.01c0-.66,0-1.33,0-1.99h13.01s0-22,0-22c.5,0,1.43,0,2,0Z"/>
  <path class="st9" d="M334,361v22c-3.97-1.69-7.03-3.65-10-5v-17c2.97,0,6.98,0,10,0Z"/>
  <path class="st12" d="M671.99,520c-2.62,2.62-5.33-4.49-3.99-6.99,3.07-.9,4.85,6.12,3.99,6.99Z"/>
  <path class="st13" d="M498.8,873.3c16.88-1.43,48.44-.71,62.22,10.18,22.74,17.96-24.58,27.77-36.48,28.56-14.95,1-49.94-1.13-61.03-12.05-17.12-16.86,25.01-25.82,35.29-26.69ZM502.8,876.3c-8.95.83-36.75,6.37-28.85,20.25,8.73,15.34,55.48,13.03,69.74,6.64,16.15-7.23,12.2-17.33-2.43-22.95-11.74-4.51-26.02-5.1-38.46-3.94Z"/>
  <path class="st10" d="M849,519c1.06.93-5.7,8.04-7.5,8.04-1.61,0-7.61-5.82-7.5-8.04h15Z"/>
  <path class="st12" d="M242,385h13.01c-.55,2.99.72,20.06,0,21-.2.25-2.1-.55-2,.5.81,1.2,1.71,1.3,3,1.5l-1,60c-2.4-.28-4.5-.84-7-1l-3-1c0-.33,0-.67,0-1v-3c-.02-1,.02-2,0-3-.14-5.85-.85-11.35-1-17-.17-6.64.21-13.36,0-20-.27-8.53-.89-16.92-.98-25.51-.02-1.69.64-4.45-1.02-5.49,0-2,0-4,0-6Z"/>
  <path class="st12" d="M301,386c-14.02,5.99-30,14.06-44,19v-20.01s44,1.01,44,1.01Z"/>
  <path class="st12" d="M372,385c3.53-.34,7.42.24,11.01,0v20.01c-5.54-1.72-12.49-5.53-18.01-8,.38-2.64,3.51-9.6,4.92-11.38.82-1.03,1.13-.53,2.08-.62Z"/>
  <path class="st4" d="M257,468c-.65-.08-1.35.08-2,0l1-60c.32.05.67-.03,1,0v60Z"/>
  <path class="st12" d="M383,363v20.01s-11,0-11,0c1.23-5.09,6.53-10.26,8-16,1.44-.43,2-1.53,2-3,.09-.05-.05-.66,0-1h1Z"/>
  <path class="st9" d="M244,422c-3.03.56-1.92-1.53-2-3.45-.36-9.13,0-18.94,0-27.55,1.66,1.04,1,3.8,1.02,5.49.09,8.6.72,16.98.98,25.51Z"/>
  <path class="st9" d="M225,382c.22-6.32.12-10.78,1-17,1.31,4.25,2.61,13.84-1,17Z"/>
  <path class="st9" d="M245,459c-3.03.56-1.92-1.53-2-3.45-.16-4.1-.73-9.82,1-13.55.15,5.65.86,11.15,1,17Z"/>
  <path class="st9" d="M242,382c-1.68-5.45-1.67-13.63,0-19,0,6.32.09,12.68,0,19Z"/>
  <path class="st9" d="M220,389l3.99,4c.38-2.36.83-4.6,1.01-7,1.74,1.61,1.52,8.56-.51,8.99s-3.63-4.46-4.49-5.99Z"/>
  <path class="st9" d="M245,480c-1.67-2.67-1.7-9.13,0-12,.1,3.98-.14,8.02,0,12Z"/>
  <path class="st9" d="M245,465c-.02-.88.02-2.24,0-3v3Z"/>
  <path class="st9" d="M248,467c-.99-.06-2,.04-3,0,0-.33,0-.67,0-1l3,1Z"/>
  <path class="st11" d="M563,341c2.29-2.12,5.14-8.62,8.43-8.07.48.08,5.37,6.69,5.57,8.07h-14Z"/>
  <path class="st9" d="M369,370l1-2c-.35.66-.6,1.29-1,2Z"/>
  <path class="st9" d="M371,366c.3-.37.64-.69,1-1-.11.44-.58.81-1,1Z"/>
  <path class="st9" d="M363,381l1-1c-.25.44-.83.71-1,1Z"/>
  <path class="st9" d="M367,373l1-1c-.26.47-.86.74-1,1Z"/>
  <path class="st9" d="M382,364c0,1.47-.56,2.57-2,3,.2-.79-.29-2.65,0-3,.23-.26,1.62.22,1.99,0Z"/>
  <path class="st5" d="M502.8,876.3c12.44-1.16,26.72-.56,38.46,3.94,14.64,5.62,18.59,15.72,2.43,22.95-14.27,6.39-61.01,8.7-69.74-6.64-7.9-13.88,19.9-19.42,28.85-20.25ZM505.8,878.3c-8.51.65-44.48,8.07-26.13,20.53,9.08,6.17,28.99,7.83,39.82,7.16,8-.5,42.44-6.29,29.05-19.03-8.15-7.76-31.88-9.48-42.74-8.66Z"/>
  <path class="st13" d="M505.8,878.3c10.87-.82,34.59.9,42.74,8.66,13.38,12.74-21.06,18.53-29.05,19.03-10.83.67-30.74-.99-39.82-7.16-18.35-12.47,17.62-19.89,26.13-20.53ZM540,884c-2.8-.17-8.45,6.23-10.35,5.89-.51-.09-5.7-4.2-8.85-5.19-6.89-2.17-32.87-2.14-33.65,6.98-.65,7.7,23.91,8.89,29.11,8.08,4.06-.63,13.45-6.48,14.23-6.44,1.77.1,6.73,5.87,9.51,5.68v-15Z"/>
  <path class="st0" d="M540,884v15c-2.78.19-7.74-5.58-9.51-5.68-.78-.04-10.17,5.81-14.23,6.44-5.2.81-29.76-.38-29.11-8.08.77-9.12,26.76-9.14,33.65-6.98,3.14.99,8.34,5.1,8.85,5.19,1.9.34,7.56-6.06,10.35-5.89Z"/>
</svg>