<?xml version="1.0" encoding="UTF-8"?>
<svg id="Layer_1" xmlns="http://www.w3.org/2000/svg" version="1.1" viewBox="0 0 1024 1024">
  <!-- Generator: Adobe Illustrator 29.8.4, SVG Export Plug-In . SVG Version: 2.1.1 Build 6)  -->
  <defs>
    <style>
      .st0 {
        fill: #b9e5e3;
      }

      .st1 {
        fill: #f1867b;
      }

      .st2 {
        fill: #76ba9e;
      }

      .st3 {
        fill: #bae5e3;
      }

      .st4 {
        fill: #13909d;
      }

      .st5 {
        fill: #f19d92;
      }

      .st6 {
        fill: #5fa188;
      }

      .st7 {
        fill: #b9e5e2;
      }

      .st8 {
        fill: #dbc19a;
      }

      .st9 {
        fill: #a2d0cd;
      }

      .st10 {
        fill: #0c7987;
      }

      .st11 {
        fill: #f1857b;
      }

      .st12 {
        fill: #5fc2c2;
      }

      .st13 {
        fill: #bae5e2;
      }
    </style>
  </defs>
  <path class="st11" d="M827,922c2.4-1.24,10.61-2.54,6.96-5.46l-65.86-37.02c5.1-5.72,10.6-23.19,15.43-27.5.55-.49.77-1.33,1.8-.93l67.66,36.91v-76h34v77s68.47-38.02,68.47-38.02c1.64,4.11,16.93,27.97,15.47,29.95-2.64-.23-3.89,2.45-4.94,3.07-13.17,7.84-28.38,15.59-42,23-1.43.78-2.41,1.68-3,2-.51.28-2.34.05-3.68.78-4.32,2.35-8.53,5.82-13.32,7.24,1.02,2.38,3.56,3.66,6,3.99.55.52,1.24.9,2,1l40,22c3.13,2.05,18.95,9.93,19.01,12.45.1,4.33-13.82,22.54-15.08,28.53-10.73-5.43-21.41-11.15-31.93-16.98-1.33-.73-2.61-.78-3-1-.29-.16-1.16-2.02-2.63-2.84-10.39-5.8-21.04-11.23-31.36-17.16v77h-34.01v-77c-9.58,4.68-18.64,10.39-27.95,15.56-2.22,1.23-4.76,3.28-5.05,3.44-.37.21-1.67.26-3,1-10.8,6-21.59,12.1-32.52,17.9l-16.51-29.35c16.35-9.4,32.91-18.52,49.4-27.71.9-.5,1.36-1.69,1.63-1.84,2.24-1.24,5.48-2.7,8-4Z"/>
  <path class="st9" d="M308,0v118h101V0h2v118h100V0h2v118h100V0h2v118.01s88,0,88,0c-.32,1.72-2.61,1.65-3,2h-85v135c19.3.36,38.71-.48,58,0,1.32.03,3.31-.5,4,1-.09.23.04.65,0,1h-62v49h74c-.32.68-.69,1.34-1,2h-73v101h101v-101h-15c-.31-.66-.68-1.32-1-2h16.01c-.8-15.55,1.05-32.09,0-47.53-.19-2.85-2.47-1.04-4.01-1.47-.04-.36.09-.77,0-1,.48-1.63,3.83-.32,4.06-1.57,1.22-6.73-.06-21.64-.06-29.43v-7h1c3.07,11.27-.74,25.42.98,36.42.2,1.26,3.82.3,5.02.58-.3.62.21,2.29-1,3l-4.01-.44v48.45s16.01,0,16.01,0c-.22.42.22,1.57,0,2h-16.01s-.01,100.42-.01,100.42l5.02.58c.1.31-.11.72,0,1l-5.03,1.56.03,99.44h100v-89h1c.27.63,1.42,1.74,2,3l-1,86h101v-100h-75c.27-.67.84-1.38,1-2h74v-101h-39c-.32-.66-.67-1.34-1-2h40v-49h-28c-.02-.11-.74-1.4-1-2h29V120h-52c-.63-.55-1.97-1.15-3-2h55.01s0-118,0-118h2v118.01s101,0,101,0v2h-101v135h101v2h-101v49h101v2h-101v101h101v2h-101v100h101v2h-101v100h101v2h-101v152h101v2h-101.01s0,95,0,95l-2,3.5v-98.5s-101,0-101,0v98.99c-2.76,1.04-1.81-1.87-2-1.99v-97h-100v152h100c.55,0-.4-9.66,0-11,.45.04,1.89-.14,2,0,.59.78-.53,10.49,0,11.01s5.96-1.1,7.01,1c-2.52,1.3-5.76,2.76-8,4l-2.44-3.08-98.57.08v101.01s-1.99,0-1.99,0v-101h-101v101h-2v-101h-100v101h-2v-101h-100v101h-2v-101h-101v101h-2v-101h-100v101h-2v-101.01c-30.28,1.24-61.87-1.65-92,0,0-.67,0-1.33,0-2h92.01s0-83,0-83c.62-.11,1.42-.92,2-1v84h100v-70c.69.24,1.31.76,2,1v69h101v-30c.49.19,1.48-.19,2,0v30h100v-85c.56-.19,1.72.21,2,0v85h100l1-59c.28-.12.72.12,1,0v59h101v-152h-101c-.63-.27-1.98-.62-3-1,1.9-.95,1.93-1.38,2.07-3.41,2.55-36.76-2.05-76.53-.07-113.59-.21-.97.82-1.57,1-2v118h101v-55c.64.49,1.19,1.39,2,2v53h100c-.06-16.98.08-34.02,0-51,2.85-.64,1.64,1.4,2,2v49h101v-152h-41c0-.67,0-1.33,0-2h41v-100h-101c-.9,30.43,1.2,61.13,0,91.55-.08,1.93,1.03,4.01-2,3.45,1.4-31.29-1.04-63.6,0-95h-100v101h58c0,.33,0,.67,0,1h-58.01s0,61,0,61h-2v-61.01s-45,0-45,0c1.97-1.81,6.18-.98,9-1,11.98-.07,24.02.05,36,0v-101h-101v33c-.06-.02-.4,1.1-1.01.58-.83-.72-.85-2.48-.99-2.58v-31h-100v101h40c0,.33,0,.67,0,1h-40v152c30.63.51,61.38-.69,92,0v2h-92.01c.53,6.04-.71,13.1,0,19-.67,0-1.33,0-2,0v-19h-100l-1,99c-.39-1.04-1.43-2.49-2-4l1.01-95.01-36.01,1.01c-.38-1.04-.65-2.05-1-3h37v-152h-101v21c-.32.14-.63.81-1,1-2.19-6.88-.47-14.83-1-22h-100v23c-1.31-.29-2.37-.86-3-1,2.29-6.76.38-14.92,1.01-22.01l-94.01,1.01c-2.05-.49-4.24-.67-6-2h99.99s0-72,0-72c.67,0,1.33,0,2,0v72h100v-101c-7.4.8-16.9-1.09-24,0,.05-.66-.07-1.35,0-2h24.01s0-37,0-37c.66-.06,1.34.07,2,0v37.01s89,0,89,0c-.19.51.19,1.49,0,2h-89v101h101v-87c-3.66.81-7.05-.59-10-1,3.99-.08,8.02.11,12,0v88h96.5c.54,0,2.22-1.55,3.5-1v-100h-57c.66-.67,1.3-1.37,2-2h55v-100h-17c-.09-.34-.73-1.12-1-2h18.01s0-77,0-77c.5-.19,1.5.19,2,0v77h100v-101c-11.89.86-25.31-1.16-37,0-.08-.64.12-1.39,0-2h37v-49l-71,1c-1.19-.75-2-2.09-4-3h75V120h-100v128c-.66-.06-1.34.04-2,0V120h-100v135c20.37-1.16,42.39,1.54,62.57.04,2.04-.15,3-.76,4.43-1.04-.87,1.59-2.63,2.03-4,3h-63.01s0,11,0,11c-1.35.29-2.07-.58-3-1l1.01-10.01c-9.46.63-19.83-1.29-29.01,1.01-1.91-.47-4.24-1.85-5-2l34-1V120h-99.53s-1.47,4-1.47,4c-.65.08-1.48-.15-2,0-.43-1.53,1.38-3.82-1.47-4.01-8.11-.55-22.67-.85-30.53,0-.83-1.58,1.86-3.02,3-3,.18,0,1.59,1.07,3.38,1.07,8.54,0,17.1-.15,25.62-.07V0s1.99,0,1.99,0ZM613,411h-100v100h100v-100ZM716,411h-101v100h101v-100ZM511,615h-100l-1,152h101v-152Z"/>
  <rect class="st13" x="923" y="615" width="101" height="152"/>
  <rect class="st13" y="769" width="101" height="152"/>
  <rect class="st13" y="615" width="101" height="152"/>
  <rect class="st13" x="923" y="120" width="101" height="135"/>
  <path class="st13" d="M1024,769v152h-101.01s1.01-14,1.01-14c13.62-7.41,28.83-15.16,42-23,4.99.91,5.8-.82,6.78-5.34l-14.94-28.5c-.75-.46-5.05-.41-6.14-.13-.67.17-.67,1.48-1.03,1.63-7.7,3.2-14.01,7.37-20.85,10.43-1.63.73-2.42,3.33-6.83,1.91v-95.01s101,0,101,0Z"/>
  <path class="st13" d="M93,120c.06,2.99-.05,6.01,0,9,.61.69,6.82-3.25,7.99-4v130.01s-101,0-101,0V120h93Z"/>
  <rect class="st3" x="923" y="0" width="101" height="118"/>
  <rect class="st3" x="308" width="101" height="118"/>
  <path class="st3" d="M716,0v108c-.39,2.73-10.03,8.09-13,10h-88.01s0-118,0-118h101Z"/>
  <rect class="st3" x="513" width="100" height="118"/>
  <rect class="st3" x="411" width="100" height="118"/>
  <path class="st13" d="M101,0v95c-1.15-.75-7.39-4.67-7.99-4,.07,8.98-.11,18.01,0,27H0V0h101Z"/>
  <path class="st3" d="M921,0v118.01s-55,0-55,0c-13.37-11.04-29.25-19.35-46-24V0h101Z"/>
  <path class="st0" d="M306,0v118.01c-8.52-.08-17.08.06-25.62.07-1.8,0-3.21-1.07-3.38-1.07,2.14-.83-1.82-2.93-2.31-3.19-15.64-8.68-31.68-16.83-47.69-24.81v27c-6.96-4.7-14.05-9.28-21-14V0h100Z"/>
  <rect class="st13" y="308" width="101" height="101"/>
  <rect class="st3" x="308" y="923" width="101" height="101"/>
  <rect class="st3" x="923" y="308" width="101" height="101"/>
  <rect class="st3" x="615" y="923" width="101" height="101"/>
  <path class="st3" d="M112,923c30.13-1.65,61.72,1.24,92.01,0v101.01h-101.01l-1-92c1.18-3.48,3.82-3.94,5.65-6.38,1.6-2.14-1.5-2.3,4.35-2.62Z"/>
  <path class="st13" d="M102,924c-1.85,4.55-11.09,12.15-12.99,16.51-2.3,5.28,7.13-3.98,7.61-4.4,1.4-1.22,1.75-2.64,4.38-2.11v90H0v-101l102,1Z"/>
  <polygon class="st13" points="0 513 101 513 101 614 0 613 0 513"/>
  <rect class="st13" x="923" y="411" width="101" height="100"/>
  <rect class="st13" x="923" y="513" width="101" height="100"/>
  <rect class="st3" x="513" y="923" width="100" height="101"/>
  <rect class="st3" x="206" y="923" width="100" height="101"/>
  <rect class="st13" y="411" width="101" height="100"/>
  <rect class="st3" x="411" y="923" width="100" height="101"/>
  <path class="st3" d="M204,0v100c-.89-.6-5.53-3.52-5.99-2.99.02,6.99-.04,14.01,0,20.99l-37-1c2.19-1.18,5.3-2.03,7-3,4.17,1.31,18.27,3.81,20.36-1.27,2.72-6.62-8.6-8.51-13-8.73-1.87-.09-1.24,1.95-1.87,2.05-2.73.42-3.32-1.92-4.97-3.06-1.11-.77-2.84-.93-3.5-1.5-.33-.28-2.73-7.54-2.82-8.22-.21-1.64,2.15-9.45-1.92-3.5-1.87,2.73-.69,4.47-5.66,4.19-5.4-.31-2.56-3.76-5.04-6.03-3.25-2.98-10.76-.95-7.58-8.92-.94-1.03-5.87,4.43-7.95,2.96-1.24-1.77-1.83-9.51-2.7-10.01-2.91-1.69-7.5.72-10.74-.72-1.87,2.99-8.11,4.4-9.61,6.27s-2.92,12.86-3.94,16.05c-.88,2.72-1.87,1.19-4.06,1.45V0h101Z"/>
  <path class="st13" d="M818,0c-.88,29.77,1.18,59.79,0,89.55-.08,1.93,1.03,4.01-2,3.45-30.24-7.15-61.52-3.51-89.37,10.13-2.67,1.31-5.95,4.22-8.63,4.87V0h100Z"/>
  <path class="st13" d="M1024,923v101h-101l1-56c10.52,5.83,21.19,11.55,31.93,16.98,1.26-5.98,15.18-24.2,15.08-28.53-.06-2.52-15.88-10.4-19.01-12.45-.72-.47-8.64-7.48-9.25-7.71-8.39-3.06-12.88-7.53-19.75-10.29l2.45-3h98.55Z"/>
  <path class="st13" d="M718,1024v-101.01s98.56-.08,98.56-.08l2.44,3.08c-.27.15-.73,1.34-1.63,1.84-16.49,9.19-33.05,18.31-49.4,27.71l16.51,29.35c10.93-5.8,21.71-11.89,32.52-17.9l1,57h-100Z"/>
  <rect class="st13" y="257" width="101" height="49"/>
  <rect class="st13" x="923" y="257" width="101" height="49"/>
  <path class="st9" d="M103,124v61c0,.67,0,1.33,0,2,0,2,0,4,0,6,0,2.99,0,6.01,0,9,0,1,0,2,0,3,0,2.99-.01,6.01,0,9,.03,9.32-.09,18.68,0,28,.01,1.33-.03,2.67,0,4,.06,2.99-.05,6.01,0,9.01,3.66.03,7.35-.06,11.01,0,4.65.07,9.35-.02,14,0,5.32.02,10.68,0,16,0,.67,0,1.33,0,2,0,1.33,0,2.67,0,4,0,6.99.01,14.01.02,21,0,4.26-.01,8.31.06,12.46.04,6.85-.02,13.71-.08,20.55-.04.04-2.99-.07-6.01,0-9.01.07-3.65-.02-7.34,0-11,.06-11.65-.04-23.35,0-35,.29-.21,1.41-1.45,2-2v57h100v-67c.33,0,.67.02,1,0s.67.02,1,0v67s5,1,5,1c-1.28.24-4.83,1.47-7,2l-100-1v49h16c-.22.25-.93,1.74-2,3l-14.01-1.01v19.01c-.29.47-.56,1.28-.99,2-2.29-6.4-.39-14.26-1-21h-101v101h27c1.91.53,3.62.62,5,1l-2,1c-7.95-1.68-21.39,1.25-30,0v100h101v-63c1.03.67,1.7,1.81,2,2v61.01c.51.51,4.98-1.19,4.01,1.48-.46,1.25-3.53.05-4.02.5-.4.38.3,9.18,0,11.01-.35.58.85,2.64-2,2,.36-4.2-.26-8.75,0-13h-101c.71,33.61-.95,67.4,0,101,.08,2.68-.4,1.58,1,5l-1,148h70v2h-70v153c.05.86-.78,1.46-1,2l-102-1v-2h101v-152H0v-2h101v-152H0v-2l101,1v-101H0v-2h101v-100H0v-2h101v-101H0v-2h101v-49H0v-2h101.01s0-130,0-130c.72-.46,1.55-.7,2-1ZM204,257h-101v49h101v-49Z"/>
  <path class="st13" d="M921,967v57h-34v-77c10.32,5.94,20.97,11.36,31.37,17.16,1.47.82,2.34,2.68,2.63,2.84Z"/>
  <path class="st13" d="M853,1024h-33v-58c.29-.16,2.83-2.21,5.05-3.44,9.31-5.16,18.36-10.88,27.94-15.56v77Z"/>
  <path class="st9" d="M924,907l-1.01,14.01h101.01s0,1.99,0,1.99h-98.55s-2.45,3-2.45,3c-3.68-1.49-1.11-2.35-2.64-3.03-1.75-.79-6.22-.69-8.36-.97-.76-.1-1.45-.48-2-1,3.37.46,7.51-.33,11.01,0v-12.01c.59-.32,1.56-1.22,2.99-2Z"/>
  <path class="st9" d="M718,0v108c-.56.14-1.36-.09-2,0V0h2Z"/>
  <path class="st9" d="M206,0v102c-1.03-.7-1.62-1.75-2-2V0h2Z"/>
  <path class="st9" d="M103,0v96c-.44-.3-1.26-.52-2-1V0h2Z"/>
  <path class="st9" d="M820,0v94c-1.2-.33-2.77-.71-4-1,3.03.56,1.92-1.53,2-3.45,1.18-29.76-.88-59.78,0-89.55h2Z"/>
  <path class="st9" d="M93,118c0,.67-.01,1.33,0,2H0v-2h93Z"/>
  <path class="st9" d="M103,1024h-2v-90c-.11-.86.85-1.55,1-2l1,92Z"/>
  <path class="st9" d="M820,966v58h-2l-1-57c1.33-.74,2.63-.79,3-1Z"/>
  <path class="st9" d="M924,968l-1,56h-2v-57c.39.22,1.67.27,3,1Z"/>
  <path class="st13" d="M818,866c.19.12-.76,3.03,1.99,1.99v-98.99h101.01v98.5s2-3.5,2-3.5c4.4,1.42,5.19-1.18,6.83-1.91,6.83-3.06,13.14-7.23,20.85-10.43.35-.15.35-1.46,1.03-1.63,1.1-.27,5.39-.33,6.14.13l14.94,28.5c-.98,4.52-1.79,6.25-6.78,5.34,1.05-.63,2.3-3.3,4.94-3.07,1.46-1.98-13.83-25.85-15.47-29.95l-68.46,38.02v-77h-34.01v76l-67.66-36.91c-1.03-.4-1.25.44-1.8.93-4.83,4.3-10.33,21.78-15.43,27.5l65.86,37.02c3.65,2.92-4.56,4.22-6.96,5.46-1.04-2.1-6.46-.46-7.01-1s.59-10.23,0-11.01c-.1-.14-1.55.04-2,0-3.92-.33-2.57-1.33-3.33-1.66-14.68-6.38-28.59-17.14-42.49-24.23-2.38-1.21-5.02.32-5.28-4.61-.28-5.32,2.83-5.93,4.07-8.24,3.35-6.28,6.21-13.41,9.61-19.14,5.23-8.8,5.46-2.5,8.73-.44,8.09,5.08,21.8,9.85,28.68,14.32Z"/>
  <path class="st13" d="M921,909v12.01c-3.49-.34-7.63.46-11,0-2.43-.33-4.97-1.6-6-3.99,4.79-1.41,9-4.89,13.32-7.24,1.34-.73,3.17-.5,3.68-.78Z"/>
  <path class="st13" d="M912,922c2.14.27,6.61.18,8.36.97,1.53.69-1.04,1.55,2.64,3.03,6.86,2.77,11.35,7.23,19.75,10.29.61.22,8.54,7.24,9.25,7.71l-40-22Z"/>
  <path class="st10" d="M308,636c2.99-1.33,19.17-5.57,20.99-3.99l-16.99,26.99,22.01,2.49c3.56,7.41,6.66,15.35,7.99,23.51,1.52.41,1.66-.4,2.51-.98,6.41-4.44,12.97-14.53,19.48-19.52,1.01-.77,1.26-1.93,3.01-1.49v16.5c0,2.21-4.19,12.86-5.47,15.53-2.84,5.91-7.36,10.53-10.34,16.3,6.41,18.75,13.98,37.11,20.81,55.68.35.95.62,1.96,1,3,11.56,31.37,23.27,62.7,35,94,.57,1.51,1.61,2.96,2,4,3.07,8.12,5.73,16.43,9.01,24.49-2.09.86-5.92-.72-8.01-1.49-.52-.19-1.51.19-2,0-33.17-12.87-66.86-27.08-101-39-.69-.24-1.31-.76-2-1-32.73-11.29-64.85-19.11-100-14-.58.08-1.38.89-2,1-1.51.28-3.6-.38-5.26.21-27.05,24.09-53.15,49.99-79.74,74.79l212.99-248.52c.34-1.53-1.18-2.24-2.5-2.48-5.28-.95-12.68,1.63-17.76-.02-1.05-.34-.99-2.04-2.42-2.77-6.98-3.54-25.55-1.54-32.63-3.24-.76-.18-.62-1.78-1.37-1.96-2.35-.56-8.83,1.76-8.31-2.02,3.71.47,16.14,3.42,18.28,2.86,1.82-.48,9.7-9.74,12.25-11.84s6.46-4.51,9.48-6.02c.37-.19.68-.86,1-1Z"/>
  <path class="st4" d="M108,627c3.08-2.32-4.35-9.76-3-10.99,2.73-1.24,2.95,1.86,3.66,1.98,5.3.92,11.21,1.2,16.33,2.01.33.05.68-.05,1,0-.61,3.71,5.08,1.48,7.32,2.02,5.69,1.37,10.68,2.86,17.68,3.98.33.05.68-.05,1,0-.61,3.71,5.08,1.48,7.32,2.02,26.11,6.28,52.37,13.72,81.23,19.93,8.25,1.78,16.36,2.79,25.45,4.05.33.05.67-.04,1,0-.52,3.78,5.96,1.46,8.31,2.02.76.18.61,1.77,1.37,1.96,7.08,1.7,25.65-.3,32.63,3.24,1.43.73,1.37,2.43,2.42,2.77,5.08,1.65,12.48-.93,17.76.02,1.32.24,2.84.95,2.5,2.48l-212.99,248.52c-.34.32-.66.67-1,1-2.14.3-5.57,3.98-6,6-.06.3,0,.68,0,1,0,.67,0,1.33,0,2-5.86.32-2.75.48-4.35,2.62-1.82,2.44-4.47,2.9-5.65,6.38-.15.45-1.11,1.14-1,2-2.63-.52-2.97.9-4.38,2.11-.49.42-9.91,9.68-7.61,4.4,1.9-4.36,11.15-11.96,12.99-16.51.22-.54,1.05-1.14,1-2,2.74-.81,5.15-4.34,6.98-6.52,22.07-26.46,48.04-56.37,67.98-84.02.85-1.18,3.17-3.67,3.5-4.5,1.18-2.93.74-13.61.53-17.45-3.45-62.92-47.4-126.38-73.99-182.51Z"/>
  <path class="st2" d="M375,256c.76.15,3.09,1.53,5,2,8.96,2.19,19.63,5.19,28,9,.93.42,1.65,1.29,3,1l30,20.02-30,17.98c-1.25.15-1.99.67-3,1-13.44,4.36-28.1,17.27-42,22-.21-.41-4.79-5.18-5.98-6.52-47.53-53.79-127.61,5.61-97.02,63.52l-41,23c-1.09.15-1.62.89-2,1-11.04,3.12-23.72,13.34-34.51,17.99-.52-1.79-1.33-4.16-1.49-5.99-1.74-19.46.86-44.44,7-63,2.88-8.72,9.24-22.12,14-30,.44-.72.7-1.53,1-2,3.2-5.04,9.97-13.26,14-18,1.07-1.26,1.78-2.75,2-3,20.58-22.72,54.36-40.81,84-48,2.17-.53,5.72-1.76,7-2,17.5-3.28,44.48-3.49,62,0Z"/>
  <polygon class="st13" points="511 615 511 767 410 767 411 615 511 615"/>
  <path class="st13" d="M700,120c-.18.17-.2,1.75-.97,2.49-26.54,25.41-42.4,58.15-42.03,95.51h31c1.41-32.12,15.09-61.37,41.68-79.82,60.96-42.26,143.2-3.76,151.3,69.33.22,1.98-.79,10.49,1.51,10.49h30.5c.03-23.5-6.73-47.58-18.98-67.52-6.28-10.23-16.42-22.95-25.02-30.48h52v135h-29c-1.04-2.37-2.73-5.22-4-8,4.9-2.53,3.83-7.71-.97-9.59-2.33-.92-1.91.06-3.03,1.59-.87-1.76-1.23-3.44-2-5,2.52.55,7.14-8.89,7.01-9.47-11.93-7.54-15.8-9.74-24.41,2.57-.77,1.09-.54,3.08-1.54,4.46s-3.58,1.81-4.95,4.06c-.76,1.24-.96,4.04-1.23,4.26-.64.52-3.42-.38-5.46,1.04-1.79,1.24-2.2,4.92-2.43,5.08-1.48,1.09-7.05-5.62-5.99,1-3.79-8.03-8.71-15.89-12.5-23.98-1.08,0-5.54,10.39-6.52,12.24-1.73,3.24-4.3,6.88-5.98,10.74-1.21-4.04,1.41-19.26-.17-21.83-1.44-2.34-11.11-3.97-8.83,2.83l-4.99-1.99c-.48.53.48,9.39,1.09,9.89,1.29,1.05,6.72-2.36,7.87,4.67,1.28,7.78-3.97,3.8-8.93,5.4-.35-1.2-2.77-7.65-3.05-7.97-2.75-3.11-1.43,4.37-.96,5.47,1.08,2.51,2.37,2.88,3.4,4.6.75,1.25.48,3.23,1.49,4.51s6.25,3.41,8.08,3.42c.17-2.28,1.15-7.54,4-7-1.02,2.26-.22,7.01-4,7-.39,5.11,3.79,13.87,6,19-1.84,2.98-.99,8.22-1,12-12.94,1.21-.11-9.02-4-11.51-1.8-1.15-3.18,1.1-4.71,1.34-6.93,1.12.33-9.63,4.71-7.84,1.18-4.66-5.38-4.62-6.83-2.81-.5.62,0,2.63-.67,3.8-.76,1.31-3.49,1.43-4.93,3.1-2.62,3.05-6.18,15.96-7.64,20.19-.32.94-1.91.86-1.97,1.22-.7,4.12,3.75,2.88,4.1,4.08.89,3.1-2.26,5.48-2.07,8.42h-3c-.06-.15-1.66-.89-2.2-2.25-1.04-2.61-3.08-6.43-2.64-8.99l16.62-36.09c-2.97-3.95-15.37-35.17-17.29-35.67-2.02-.53-1.39.95-1.98,1.98-6.16,10.75-11,22.49-16.27,33.7l17.28,37.26c.49,2.65-3.67,7.95-4.53,10.08h-35c-1.46-3-3.02-6.03-4.51-9.01l-6.49,9.01h-16.01s0-48.44,0-48.44l4.01.44,17.02,37,2.22-1.29,15.58-33.46c.53-1.5.11-2.82-.27-4.27-1.37-5.24-8.6-16.85-11.4-22.62-1.58-3.26-2.88-6.95-4.16-10.36-2.33-.51-1.6.32-2.22,1.28-4.87,7.52-9.4,19.9-13.56,28.45-.61,1.26-2.09,2.03-2.2,2.26-1.2-.27-4.82.68-5.02-.58-1.72-11,2.08-25.16-.98-36.42h12c37.31,0,74.69.34,112,0,5.96-.05,16.29.97,21.5,0,3.65-.68,1.89-9.79,1.39-13.38-12.59-90.33-149.4-88.69-158.88,5.38-3.01.53-2.05-1.41-1.87-3.35.67-7.28,4.54-12.61-4.4-16.89-5.35-2.56-3.09,4.73-3.93,7.54s-3.03,4.03-3.67,9.33c-1.27,10.46,3.71,15.1-11.12,13.38.35,5.46,3.27,12.99,10,9.99-3.89,7.2-7.15,16.13-10.8,23.74-.6,1.26-2.14,2.11-2.2,2.26-.69-1.5-2.68-.97-4-1,3.52-5.06-.65-13.55,7.99-10,2.39-5.95-7.96-5.59-9.59-7.96-1.03-1.5,2.1-5.87-2.11-6.93-2.63-.66-4.56,3.33-7.29,2.89,3.44-8.57-1.5-6.57-2.87-8.11-.74-.83.44-4.06-.25-4.82-.27-.3-1.98.21-2.62-.26-.77-.56-.63-2.24-1.24-3.11-.52-.75-2.08-.61-2.08-1.23,0-1.63,2.94-7.41,3.07-11,.19-5.1-2.14-8.42.06-13.69.3-.72,1.82-.76,1.94-1.45.49-2.68-2.28-7.21-1.89-8.75.27-1.07,2.27-1.06,2.85-2.34.82-1.83.7-5.54,1.64-8.11,1.6-4.37,5.62-7.68,7.28-10.95,1.18-2.33,2.08-7.5,2.59-8.21.7-.98,2.69-.62,3.27-1.18.81-.77.57-3.66,1.28-4.99.3-.56,6.29-9.5,6.91-10.34,1.26-1.72,4.27-1.76,5.15-3.11,1.09-1.67.25-8.58,1.91-11.32h11ZM708.75,170.26c-1.39-1.37-5.41-1.79-5.76.26-.19,1.13,1.59,2.18,1.72,3.12.19,1.38-1.24,3.04-.3,4.4,1.47,2.13,7.35.6,9.58-.06l-5.25-7.72ZM705.99,184.01c-1.04-1.02-4.01,1.99-2.99,2.99s4.01-1.99,2.99-2.99ZM798.84,220.14c-1.79-1.03-4,1.46-5.57,1.68-1.95.28-6.31-2.48-3.97,1.93.13.24,1.71.22,2.26,2.15s.44,8.51,2.95,9.1c1.46.34,6.03-6.32,6.32-7.73.37-1.81-.7-6.38-1.99-7.12Z"/>
  <path class="st3" d="M553,615c.05,2.33-.05,4.68,0,7.01.66.06,1.34-.06,2,0,.33.03.67,0,1,0,4.94,0,3.82-2.05,5.46-2.11,2.38-.09,8.53,2.91,9.34-.5.28-1.16-1.88-3.37.85-4.24,1.22-.39,11.71.65,12.21.99.48.33.5,2.24,1.13,3.15.58.84,1.84.22,2.08,2.16.69,5.59-1.45,36.81,1.01,38.47,3.01,2.04,6.13-2.98,7.23-3.62,1.44-.83,5.72-.5,5.69-4.3.28-.12.7.11,1,0,1.43-.53,4.19-2.07,4.45-2.1,2.48-.28,5.17.44,7.55,1.1-1.98,37.07,2.62,76.84.07,113.59-.14,2.02-.17,2.45-2.07,3.41-4.02-1.51-3.97-.93-7-1-30.62-.69-61.37.51-92,0v-152h40Z"/>
  <path class="st3" d="M410,868l1-99h100v19c-4.03.04-6.25-3.02-11-3v25l-12.14-6.14c-3.67-3.13-7.96-5.94-12.86-6.86v31c9.27-1.58,16.54-9.96,25-14v23.5c0,2.88,9.06-.85,11-1.5v85h-100v-30c2.09.76,5.92,2.35,8.01,1.49-3.29-8.05-5.95-16.37-9.01-24.49Z"/>
  <path class="st0" d="M615,769h101v152h-101v-59c5.28-2.36,10.93-6.7,17-8.01,1.14-1.49-13.48-7.19-14.75-7.78s-2.05-2.12-2.24-2.21c.58-9.5-1.24-19.77,1-29,16.39-7.29,32.8-14.81,49-22.5-13.97-7.52-28.8-13.33-43.35-19.65-2.34-1.02-4.85-3.08-6.64-3.86Z"/>
  <path class="st13" d="M513,248V120h100v135h-75c-6.5-2.95-17.95-6.32-25-7Z"/>
  <path class="st13" d="M478,254c-1.43.28-2.39.89-4.43,1.04-20.18,1.5-42.2-1.2-62.57-.04V120h100v128c-13.21-.73-21.04,3.67-33,6Z"/>
  <path class="st13" d="M818,910c-.4,1.34.55,11,0,11h-100v-152h100v97c-6.89-4.47-20.59-9.24-28.68-14.32-3.27-2.06-3.51-8.35-8.73.44-3.4,5.73-6.26,12.86-9.61,19.14-1.24,2.31-4.34,2.92-4.07,8.24.26,4.94,2.89,3.4,5.28,4.61,13.9,7.08,27.81,17.85,42.49,24.23.76.33-.59,1.33,3.33,1.66Z"/>
  <path class="st13" d="M671,615h45.01s0,61,0,61l-.93,2.53-18.07,15.47c-.27-.18-1.78.38-2.65-.31-7.64-6.1-14.91-13.06-22.12-19.65-1.69.15-5.06-5.09-6.22-4.03-2.03,1.87-1.21,44.85,0,51,7.73-6.31,15.63-12.61,23.21-19.05,1.82-1.54,4.87-6.54,7.13-5.95.8.21,1.13,1.65,1.65,2,6.26,4.16,11.89,9.36,18,14v55h-101v-118c2.39-5.76,5.56-4.86,9.89-7.61,1.38-.88,5.96-5.01,6.86-5.36,2.56-1,4.82,1.89,5.26-4.04.27-.13.73.13,1,0,4.13-1.93,9.4-3.93,14.17-6.12,6.45-2.96,13.44-5.35,18.83-10.88Z"/>
  <path class="st6" d="M444,298c1.05-.52,6.54-2.5,7-2,3.47,20.34,1.77,39.75-1,60-3.61,7.4-5.51,15.9-8.83,23.67-6.82,15.96-19.18,35.18-31.17,47.33-.33.33-.67.67-1,1-26.34,26.04-64.36,42.27-101,46-.66.07-1.34-.06-2,0-5.27.46-9.52,1.08-15,1-18.37-.25-43-4.94-60-12-6.19-2.57-19.19-9.42-25-13-.3-.19-.97-1.33-2-2-4.88-3.15-10.17-6.57-14-11,1.46-.55,2.26-1.67,3-2s1.32-.67,2-1c10.74-5.22,20.93-11.58,31.67-16.82,5.28,2.46,10.3,5.73,15.65,8.04,1.38.6,2.93.46,3.68.78,11.51,4.86,19,8.28,32,10,.96.13,2.03-.1,3,0,6.91.71,12.87,1.34,20,1,1.85-.09,3.44-.86,5-1,38.23-3.51,72.59-24.01,92.42-57.08,3.29-5.49,11.5-21.04,11.58-26.92,1.86-1.6,1.59-3.9,2-6,.43-2.22,2-7.91,2-9.5v-21c3.52-2.39,7.34-4.34,11-6.5,1.12-.66,2.11-1.49,3-2,4.63-2.66,11.48-6.78,16-9Z"/>
  <path class="st13" d="M308,124l1.47-4.01h99.53v135.01l-34,1c-17.52-3.49-44.5-3.28-62,0l-5-1v-67c15.75-1.09,26.96-6.28,32.56-21.98.52-1.45.16-2.98.44-4.02,1.02-3.75,3.25-3.47,6.04-5.55.69-3.07-2.34-2.98-4.33-4.45-.88-.65-.62-1.95-.71-2.01-.82-4.01-2.03-7.91-3.97-11.53-5.47-10.23-18.72-15.78-30.03-14.47Z"/>
  <path class="st0" d="M605,769c0,7.65,0,15.35,0,23l-25.99-15v31c9.3-3.01,17.34-10.33,26-15v26c2.42-.07,4.81-1.13,7-2,2.29,8.49.38,18.22,1,27-13.56-6.17-27.4-11.9-41-18v27l-25.99-16c.26,10.67-.97,21.53,1.48,31.99l24.51-14.99v26c13.91-6.14,28.12-11.81,42-18l-1,59h-100v-85c.16-.12.05-2.33,2.2-3.28,12.33-5.45,26.17-10.41,38.63-16.59,1.81-.89,9.57-1.88,5.12-5.59-3.54-2.94-15.27-6.46-20.12-8.68-5.25-2.4-10.86-5.59-15.65-7.75-3.22-1.45-9.63-1.6-10.18-6.12-.71-5.9.52-12.96,0-19.01h92.01Z"/>
  <path class="st1" d="M816,93c1.23.29,2.8.67,4,1,16.75,4.65,32.63,12.96,46,24,1.03.85,2.37,1.45,3,2,8.6,7.53,18.74,20.25,25.02,30.48,12.25,19.94,19.01,44.02,18.98,67.52h-30.5c-2.3,0-1.29-8.5-1.51-10.49-8.1-73.08-90.34-111.59-151.3-69.33-26.6,18.44-40.27,47.69-41.68,79.82h-31c-.37-37.36,15.49-70.1,42.03-95.51.77-.74.79-2.32.97-2.49.39-.35,2.68-.28,3-2,2.97-1.91,12.61-7.27,13-10,.64-.09,1.44.14,2,0,2.68-.65,5.96-3.56,8.63-4.87,27.85-13.64,59.13-17.28,89.37-10.13Z"/>
  <path class="st7" d="M103,124c5.92-3.95,11.96-10.77,19-13v26c5.87-2.12,11.45-5.19,17-8-1.68,4.31,9.22,9.62,11.38,8.95,4.47-1.39,1.09-12.45-3.38-12.95,3.99-1.85,5.78-4.42,11-5,12.47-1.38,27.26,1.02,40,0,.04,5.32-.03,10.67,0,15.99l5.5-2.99.99,3c.66-3.59.95-4.17,3.59-6.42,5.35-4.57,12.74-8.29,18.42-12.58l-1.51,2.98c.55.11,2-.09,2,0v24l42.62-22.9c1.37-.92,2.82-.93,4.38-1.1,7.86-.86,22.42-.56,30.53,0,2.85.19,1.04,2.48,1.47,4.01-.12.03-.43,1.17-1.11,1.4-11.17,3.85-8.68,3.27-8.89,14.6-.09,4.99.04,10.01,0,15-.38-.23-.69-.85-1-1-.16-1.75-3.2-4.6-4.45-5.58-6.23-4.88-13.23-9.67-20.24-12.76-.42-.19-.42-1.54-.85-1.67-3.29-.99-2.26,1.7-3.58,3.35-.91,1.15-3.58,3.49-3.74,4.3-.25,1.3,1.67,3.15,1.86,4.94.25,2.4-1.2,5.11-1.1,7.91.25,6.76,1.49,13.81,1.68,20.61,2.08.62,4.55,1.36,6.71.87.68-.16.62-1.54,1.49-1.89,7.81-3.16,3.44-1.4,7.55-5.82,1.74-1.87,6.57-2.17,8.46-3,.38-.17,5.48-4.62,6.21-5.27h1c.05,3.99-.12,8.02,0,12-1.79-.15-11.59-.43-12.01,0-1.95,2.05,1.92,4.18,4.45,3.98,2.2-.17,3.36-2.19,5.55-1.98-.99,9.88,1.89,14.28,12.01,14v67h-100v-57c4.51-4.25,8.65-11.64,8-18,1.08-.75,7.73-4.93,7-5.98-2.48-.93-4.79-2.6-7-4.02,1.47-10.66-8.42-15.72-10-25,0-1.36.88-7.04-1.49-5.99-1.82.81-5.83,4.53-5.51,6.99-7.8-2.21-12.92-3.17-20.97-.47-9.47,3.17-6.78,5.95-7.03,14.47-2.16.76-1.58,8.54-4.46,7.99-4.49-.86-7.54-5.39-10.93-7.6-1.95-1.27-8.69-5.68-10.42-6.14-1.5-.4-4.96,1.17-5.19,1.74-7.15.65-1.82-6.17-3.07-7.91-6.78-3.3-10.39,2.99-11.93,8.91-.07-.11-1.6.57-2-.68-1.54-4.85.88-10.02-.2-13.61-.67-2.23-5.21-4.63-5.79-6.22-.92-2.54,2.7-.71,3.06-2.03,1.11-4.1-1.27-7.16-2.59-10.47-.46-1.15-.34-3.77-.52-3.94-.24-.23-4.18-.28-4.8.1-.98.61-1,6.9-7.15,4.84v-1ZM187.01,128.01c-5.33-1.82-15.05-.79-15.82,5.77-.53,4.51,3.59,5.64,7.61,6.04,6.72.66,7.41-6.72,8.21-11.8ZM166,147c.17-.21,1.83.2,1.99,0,.47-.59-.77-3.51-1.67-4.07-2.47-1.54-5.46-.38-7.62-.91-1.27-.31-.22-3.14-5.21-3.13-7.68.02-8.03,10.02-4.01,9.1,3.06-4.02,3.57-2.72,7.51-1-.56,2.3.23,8.46,2.29,9.75.99.62,2.01.07,2.71.25.11.03,1.35,1.62,1.99.99.21-.21-.19-1.48,0-1.99.12-.31-.15-.91,0-1,1.72-1.02,1.65,1.86,2-3,.08-1.12-.23-4.71,0-5ZM245,184v24c-1.44.17-2.61,0-3.95-.54-4.91-1.99-13.91-10.38-18.89-13.34-1.67-1-4.16-2.16-6.16-2.12v38c1.44.17,2.61,0,3.95-.55,5.73-2.31,15.78-12.92,21.36-15.1,1.3-.51,2.36-.43,3.69-.35v24c4.95-.55,10.52-3.77,15.15-6.13.73-.37.96-1.37,1.69-1.75,11.74-6.07,24.12-11.65,35.16-18.63.31-1.1-2.17-2.94-2.86-3.37-9.62-5.93-23.57-12.76-34-18-2.28-1.15-13.98-7.27-15.15-6.13Z"/>
  <path class="st13" d="M103,614c-.95-33.6.71-67.39,0-101h101c-.26,4.25.36,8.8,0,13-.43,5.06-2.04,8.87-4.01,13.49.02,1.2,5.01-.81,4.01,2.51v72s-100,0-100,0h-1Z"/>
  <rect class="st13" x="615" y="411" width="101" height="100"/>
  <path class="st13" d="M397,513c-1.55,4.24-4.14,8.35-4,13,1.93.2,4.14-.26,6,0,2.95.41,6.34,1.81,10,1v87h-101v-101h89Z"/>
  <rect class="st3" x="513" y="411" width="100" height="100"/>
  <path class="st13" d="M776,614h-58v-101h100c-1.04,31.4,1.4,63.71,0,95-.06,1.3.18,2.79,0,4-7.24,1.57-14.63.89-22,1-4.99-4.55-11.68-10.48-17-14.5-1-.76-1.25-1.95-3-1.49-.04,5.65.03,11.34,0,16.99Z"/>
  <path class="st13" d="M454,513h57v100c-1.28-.55-2.96,1-3.5,1h-96.5v-88c16.04-.45,28.74-6.12,43-13Z"/>
  <path class="st0" d="M308,636v-21h101v152h-37c-6.83-18.56-14.4-36.93-20.81-55.68,2.97-5.77,7.5-10.38,10.34-16.3,1.28-2.67,5.47-13.31,5.47-15.53v-16.5c-1.75-.44-2,.72-3.01,1.49-6.51,4.99-13.07,15.08-19.48,19.52-.85.59-.99,1.39-2.51.98-1.33-8.16-4.43-16.09-7.99-23.51l-22.01-2.49,16.99-26.99c-1.83-1.57-18.01,2.66-20.99,3.99Z"/>
  <path class="st3" d="M846,411h75v100h-101l1-86c2.35,5.08,4.88,11.27,7.52,16.03.41.74.28,2.83,1.97,1.97,1.58-.81,13.97-28.22,15.51-31.99Z"/>
  <path class="st7" d="M880,615h41v152h-101v-49c5.69,9.48,9.77,16.5,20.46,21.04,21.93,9.31,48.7-.18,56.58-23.5,1.32-3.92,4.98-18.83-1.39-18.49-18.61,3.09-37.11,7.35-55.37,10.72-6.07,1.12-14.53,1.56-20.27,3.23.73-3.52-.97-26.06,0-27,.45-.44,4.46.97,7.01-1,.37-.29.92-.43,1-1,.69-4.93-4.22-11.98-8-15v-33l57.52,43.99c2.04.26,1.3-.08,1.48-1.47.96-7.15-.71-16.14,0-23.52.95.26,8.24,1.05,9.45,1.03,12.96-.2,27.05-12.41,25.56-26.04-10.6-.38-21.01,1.24-31.62,1.08-1.81-.03-3.2-1.07-3.38-1.07.1-3.52-.14-7.06-.04-10.59.04-1.33,1.04-2.28,1.04-2.41Z"/>
  <path class="st13" d="M576,308c11.69-1.16,25.11.86,37,0v101h-100v-77c14.67-5.62,29.15-12.15,43.86-17.64,5.18-1.93,14.28-5.88,19.14-6.36Z"/>
  <path class="st8" d="M411,475l45.01-115c17.19,11.28,30.86,29.16,36.99,49,.27.88.91,1.66,1,2,11.81,43.62-7.88,72.98-38,100-.7.63-1.34,1.33-2,2-14.26,6.88-26.96,12.55-43,13-3.98.11-8.01-.08-12,0-1.86-.26-4.07.2-6,0-.14-4.65,2.45-8.76,4-13,.19-.51-.19-1.49,0-2,3.1-8.38,8.69-18.25,11-27,2.18-2.08,2.73-6.02,3-9Z"/>
  <path class="st13" d="M818,608c3.03.56,1.92-1.53,2-3.45,1.2-30.42-.9-61.11,0-91.55h101v100h-41c0-.18-1.07-1.52-1.07-3.38-.06-15.2.61-30.47-.44-45.63-2.19.98-4.82,2.62-6.72,4.05-14.41,10.87-30.02,24.3-44,35.99-3.87,3.24-4.77,6.88-9.77,7.97-.63,4.27-10.69,7.41-9.85,11.36.45,2.12,9.04,5.63,9.85,10.64,1.45,9.03-1.07,21.55,0,31-14.73-8.24-30.16-.63-34,15-.03.13-.66.21-.87.51l.87.49c-.11.62.07,1.36,0,2-.06,1,.68.88,1.45,1.02,4.79.89,31.41-1.18,32.56-.03.01,9.32-.03,18.68,0,28.01,0,1.33,0,2.67,0,4,.08,16.98-.06,34.02,0,51h-100v-53c14.74,11.19,31.69,22.8,47,34,.11.08-.27,1.79.5,2.03,2.62.84,2.43-.24,2.5-2.03.11-2.65-.05-5.34,0-8,.04-1.98.04-3.02,0-5-.07-3.66.05-7.34,0-11,1.69.45,14.34.31,16.44-.06,7.05-1.25,14.12-8.83,16.73-15.27.75-1.85,3.81-8.16.36-8.68-8.94-1.34-20.9,1.23-30.01-.02-1.62-.22-2.78-2-3.52-1.98-.15-6.65.2-13.36,0-20,1.69-3.15,1.68-8.93,0-12,0-.67,0-1.33,0-2,1.68-6.46,1.68-15.54,0-22,.14-1.31-.07-2.68,0-4,0-.16,1.16-.88,1.01-1.46-.58-2.22-4.87-1.07-4.01,1.46-.9.2-1.81.17-2.49.96l-44.51,37.04v-61.01s58,0,58,0c-.08,9.04-1.17,23.15,0,31.52.17,1.25-.5,1.86,1.51,1.5,4.12-.75,23.62-21.78,28.46-25.52-3.47-2.86-6.75-6.57-9.98-9.5,7.37-.11,14.76.57,22-1,.18-1.21-.06-2.7,0-4Z"/>
  <path class="st0" d="M688,308c-3.88,8.31-7.84,16.78-10.99,25.42l17,36.57c1.42-.09,1.54-1.53,2.02-2.47,5.72-11.1,10.72-22.67,15.89-34.03-4.03-8.29-7.04-17.17-10.93-25.5h15v101h-101v-101h73Z"/>
  <path class="st13" d="M282,513c7.1-1.09,16.6.8,24,0v101h-100v-72c7.56-.06,12.92,2.57,20.49,1.98,21.6-1.7,41.31-12.81,53.55-30.47.58-.5,1.28-.41,1.96-.51Z"/>
  <path class="st8" d="M511,248c.66.04,1.34-.06,2,0,7.05.68,18.5,4.05,25,7,2,.91,2.81,2.25,4,3,15.7,9.86,30.45,29.19,34,48,.12.61-.08,1.36,0,2-4.86.48-13.96,4.42-19.14,6.36-14.71,5.49-29.18,12.02-43.86,17.64-.5.19-1.5-.19-2,0-20.35,7.88-40.6,16.23-61,24,2.76-20.26,4.47-39.66,1-60-.46-.5-5.94,1.48-7,2,4.47-18.56,14.93-30.26,30-41,1.37-.97,3.13-1.41,4-3,11.96-2.33,19.79-6.73,33-6ZM523.66,280.34c-12-11.46-30.6,7.45-17.71,19.21,13.13,11.99,29.05-8.39,17.71-19.21Z"/>
  <path class="st0" d="M306,851v70h-100v-84c35.15-5.11,67.27,2.71,100,14Z"/>
  <path class="st13" d="M723,410c.05.12,1.29.65,1.75,1.71,4.58,10.51,9.86,20.71,14.26,31.29,2.27.42,1.59-.12,2.22-1.27,3.19-5.82,6.04-13.87,8.91-20.08,1.63-3.52,4.49-7.5,5.86-10.64h25c.68,2.63,4.96,6.84,2.74,11.23l-16.66,35.27c4.94,10.9,9.61,22.15,15.24,32.7.89,1.68,1.34,4.46,3.67,3.79l16.76-36.67-16.54-35.07c-.73-2.93,1.14-12.59,4.8-12.26.13.01.27,1,2.43,1.04,5.21.11,13.52-.9,18.1-.06,2.7.49,1.75,3.5,4.47,3.02.61,1.62,1.33,3.41,2,5-1.57.34-1.07,2.24,0,3v89h-100l-.03-99.44,5.03-1.56Z"/>
  <path class="st13" d="M689,120c-1.67,2.74-.82,9.65-1.91,11.32-.88,1.35-3.89,1.4-5.15,3.11-.62.84-6.61,9.78-6.91,10.34-.7,1.33-.47,4.22-1.28,4.99-.59.56-2.58.2-3.27,1.18-.51.72-1.41,5.88-2.59,8.21-1.65,3.27-5.67,6.57-7.28,10.95-.94,2.57-.82,6.28-1.64,8.11-.58,1.28-2.58,1.27-2.85,2.34-.39,1.54,2.38,6.07,1.89,8.75-.13.7-1.64.74-1.94,1.45-2.2,5.27.12,8.59-.06,13.69-.13,3.6-3.07,9.37-3.07,11,0,.63,1.56.48,2.08,1.23.61.88.47,2.55,1.24,3.11.64.46,2.34-.04,2.62.26.7.76-.49,3.98.25,4.82,1.37,1.54,6.31-.45,2.87,8.11,2.74.44,4.66-3.55,7.29-2.89,4.21,1.06,1.08,5.44,2.11,6.93,1.63,2.37,11.98,2.01,9.59,7.96-8.64-3.55-4.47,4.94-7.99,10-19.29-.48-38.7.36-58,0V120h74Z"/>
  <path class="st0" d="M553,614h-40v-101h100v31c-.27-.18-4.49.13-6.22-.28-5.8-1.4-9.93-7.86-16.78-7.72-.33,0-.67-.02-1,0-.66.05-1.34-.06-2,0-1.07,1.42.8,30.32.05,35.56-.33,2.29-1.95,3.63-2.09,5.03-.21,2.06,1.75,3.24,1.99,4.97.47,3.31-.22,7.07.04,10.45-5.5.81-8.3-7.28-11.43-9.06-3.91-2.23-10.26-4.62-14.25-7.26-.69-.46-2.26-3.25-2.57-3.37-3.53-1.36-5.37-.38-5.8,3.15-1.28,10.49-.12,27.39.05,38.55Z"/>
  <path class="st0" d="M869,308c-1.51,3.07-11.08,24.04-10.99,25.42.23,3.46,11.67,25.88,14.13,30.93.93,1.92,1.79,4.7,3.84,5.64l17-36.57c.09-1.38-9.48-22.3-10.99-25.42h39v101h-74c.38-1.43.91-2.44.55-4.01-.69-3.06-7.58-15.94-9.55-19.99,2.05-.94.42-3.09-.13-4.37-2.96-6.88-5.5-8.56-3.87-16.63.82-4.06,2.55-6.46,4-10,2.71.19,2.47-1.6,3.3-3.2,2.55-4.88,4.95-9.41,5.7-14.8.2-1.42.95-2.21.55-4.01-1.11-4.98-7.97-17.33-10.55-22.99,1.04-1.66,3.79-1,5.49-1.02,8.83-.09,17.69.1,26.51.02Z"/>
  <path class="st0" d="M615,546v-33h101v101c-11.98.05-24.02-.07-36,0-2.46-4.14.85-4.9,4.58-5.92,5.86-1.61,9-2.22,13.39-7.56s.52-3.99.03-4.52c-.12-.12.22-1.2-.37-1.66-6.07-4.77-12.66-7.13-19.29-10.68-8.6-4.61-16.47-9.96-24.52-13.75-6.83-3.21-15.44-8.24-22.51-12.24-.7-.4-2.09-3.12-2.61-3.35-2.1-.92-6.17-.76-8.38-2.66s-.97-4.36-5.34-5.66Z"/>
  <path class="st7" d="M408,484c-2.31,8.75-7.9,18.62-11,27h-89.01s0-37,0-37c36.64-3.73,74.66-19.96,101-46-1.01,16.05,1.34,33.67.03,49.53-.13,1.61-.94,6.11-1.03,6.47Z"/>
  <path class="st0" d="M409,891v30h-101v-69c34.14,11.92,67.83,26.13,101,39Z"/>
  <path class="st12" d="M841,218c.9-14.83-5.01-28.84-14.96-39.51-22.59-24.25-59.38-23.78-82.08,0-10.13,10.61-15.76,24.64-14.96,39.51h-21c-1.31-.69-2.5,1.65-3-2-.15-1.11-.08-2.82,0-4,.05-.66-.07-1.34,0-2,9.48-94.08,146.29-95.71,158.88-5.38.5,3.59,2.26,12.7-1.39,13.38-5.2.97-15.54-.05-21.5,0Z"/>
  <path class="st8" d="M291,475c.27,5.32-.5,10.66-1.66,15.84-1.48,6.64-6.78,14.9-7.34,20.16-.07.65.05,1.34,0,2-.68.1-1.39,0-1.96.51-12.25,17.66-31.95,28.77-53.55,30.47-7.56.6-12.93-2.04-20.49-1.98-.67,0-1.33,0-2,0,1-3.32-3.99-1.31-4.01-2.51,1.97-4.61,3.58-8.43,4.01-13.49,2.85.64,1.65-1.42,2-2,6.54-10.66,9.67-23.56,14.23-35.27,3.36-8.62,7.55-17.04,10.77-25.73,17,7.06,41.63,11.75,60,12Z"/>
  <path class="st0" d="M204,838v83.01s-92,0-92,0c0-.32-.06-.7,0-1,2.69-1.24,4.13-4.16,6-6,.34-.33.66-.68,1-1,26.59-24.8,52.69-50.7,79.74-74.79,1.66-.59,3.75.07,5.26-.21Z"/>
  <path class="st8" d="M818,612c5-1.08,5.9-4.73,9.77-7.97,13.98-11.69,29.59-25.12,44-35.99,1.89-1.43,4.53-3.07,6.72-4.05,1.05,15.16.38,30.43.44,45.63,0,1.86,1.07,3.2,1.07,3.38,0,.67,0,1.33,0,2,0,.13-1.01,1.09-1.04,2.41-.1,3.52.14,7.07.04,10.59-5.64-.18-11.36.13-17,0-1.99,9.72,7.96,22.5,17,25-.7,7.38.96,16.36,0,23.52-.19,1.39.55,1.73-1.48,1.47l-57.52-43.99h-2c-.8-5.01-9.39-8.52-9.85-10.64-.85-3.96,9.22-7.09,9.85-11.36Z"/>
  <path class="st5" d="M765,638c.85-.19,2.06.13,3,0-.07,1.32.14,2.69,0,4-.87,8.4-.09,14.01,0,22,0,.67,0,1.33,0,2,.05,3.52-.12,8.04,0,12,.2,6.64-.15,13.35,0,20-.64.02-.63,1.82-2.47,2.09-2.34.33-14.03-.61-14.54-.09-.63,7.22,3.82,15.41,9.46,19.6,2.17,1.62,4.02,1.91,6.23,2.74.63.24,1.06,1.59,1.31,1.66.05,3.66-.07,7.34,0,11-1.58.66-1.58,4.34,0,5-.05,2.66.11,5.35,0,8h-3c-15.31-11.2-32.26-22.81-47-34-.81-.61-1.36-1.51-2-2-6.11-4.64-11.74-9.84-18-14-.35-.75-.83-3.89-1-4l18.07-15.47.93-2.53h2l44.51-37.04c.68-.79,1.59-.75,2.49-.96Z"/>
  <path class="st13" d="M511,332v77.01s-18,0-18,0c-6.13-19.84-19.79-37.71-36.99-49l-45.01,115c1.14-12.76.16-29.34.02-42.51-.02-1.69.64-4.45-1.02-5.49,11.99-12.14,24.36-31.36,31.17-47.33,3.32-7.77,5.21-16.28,8.83-23.67,20.4-7.77,40.65-16.12,61-24Z"/>
  <path class="st7" d="M677,257c-.8,7.18,14.26,29.93,17,38v2c-1.05,3.23-3.65,6.14-5,9h-74v-49h62Z"/>
  <path class="st7" d="M206,638v-23h100c.53,7.17-1.19,15.12,1,22-3.02,1.51-6.88,3.89-9.48,6.02s-10.42,11.36-12.25,11.84c-2.13.56-14.57-2.38-18.28-2.86-.33-.04-.67.05-1,0-19.81-5.32-39.98-9.53-60-14Z"/>
  <path class="st0" d="M734,308c-4.04,8.05-7.56,16.36-11.78,24.31,5.2,11.32,9.75,23.31,15.74,34.23.62,1.12.73,2.71,2.53,2.47l16.5-35.59c.17-2.72-9.05-21.43-10.99-25.42h32c.7,3.46-2.14,3.08-3.52,5.98-1.64,3.45-1.62,8.06-2.48,11.02-.09.31.09.69,0,1-3.44-.41-4.95,9.14-6.15,9.85-1.35.79-7.46-.79-6.91,5.61.15,1.79,2.19,2.68,2.8,4.3,2.85,7.57,4.74,17.1,6.98,25.07.48,1.71-.63,3.76,2.28,3.17.05.33-.03.67,0,1,.27,2.65-1.24,5.74,2,5,0,.67-.01,1.33,0,2,.09,4.03,1.1,6.36,1.1,9.49,0,1.9-1.38,4.64-1.01,5.87.41,1.34,2.6,1.58,3.35,2.7,1.03,1.53,2.06,6.79,2.55,8.95h-10c-2.84-4.76-1.45-10.93-8.52-10.09-5.54.66.45,7.2.52,10.09h-4c.28-1.86,0-3.98-.78-5.72-2.92-3.46-13.94-32.29-15.73-32.29-1.95,0-1.84,1.22-2.53,2.47-3.71,6.76-13.23,24.38-15.22,30.87-.63,2.03-.37,2.75.26,4.67l-5.02-.58v-100.43s16.02,0,16.02,0ZM761.77,395.74c.58-.31,4.68-5.53,6.23-6.26-2.29-8.46-12.11,6.14-9.49,6.52.98.14,2.4.21,3.26-.26Z"/>
  <path class="st8" d="M820,711c5.74-1.67,14.2-2.11,20.27-3.23,18.26-3.37,36.77-7.63,55.37-10.72,6.38-.34,2.72,14.57,1.39,18.49-7.88,23.32-34.65,32.81-56.58,23.5-10.69-4.54-14.77-11.56-20.46-21.04-.36-.6.85-2.64-2-2,0-1.33,0-2.67,0-4,.8.04,1.53-.86,2-1Z"/>
  <path class="st7" d="M542,258l71-1v49h-37c-3.55-18.81-18.3-38.14-34-48Z"/>
  <path class="st13" d="M494,411h17v100h-55c30.12-27.02,49.81-56.38,38-100Z"/>
  <path class="st5" d="M511,836c-1.94.65-11,4.38-11,1.5v-23.5c-8.46,4.04-15.73,12.42-25,14v-31c4.9.92,9.19,3.73,12.86,6.86l12.14,6.14v-25c4.75-.02,6.97,3.04,11,3,.67,0,1.33,0,2,0,.55,4.52,6.96,4.67,10.18,6.12,4.8,2.16,10.4,5.35,15.65,7.75,4.85,2.22,16.58,5.73,20.12,8.68,4.46,3.71-3.31,4.69-5.12,5.59-12.46,6.17-26.3,11.14-38.63,16.59-2.15.95-2.05,3.16-2.2,3.28-.28.21-1.44-.19-2,0Z"/>
  <path class="st2" d="M612,768c1.02.38,2.37.73,3,1,1.8.78,4.3,2.84,6.64,3.86,14.55,6.31,29.38,12.12,43.35,19.65-16.2,7.69-32.6,15.2-49,22.5-1.36.6-2.87,1.55-4,2-2.19.87-4.58,1.93-7,2v-26c-8.66,4.67-16.7,11.99-26,15v-31l25.99,15c.02-7.65,0-15.35,0-23v-2c3.03.07,2.98-.51,7,1Z"/>
  <path class="st12" d="M613,844c.46.21,1.54-.21,2,0,.2.09,1,1.63,2.24,2.21s15.89,6.29,14.75,7.78c-6.07,1.31-11.72,5.65-17,8.01-.28.12-.72-.12-1,0-13.88,6.19-28.09,11.86-42,18v-26l-24.51,14.99c-2.46-10.46-1.22-21.32-1.48-31.99l25.99,16v-27c13.6,6.1,27.44,11.83,41,18Z"/>
  <path class="st0" d="M893,257h28v49h-40c-.64-1.27-4.97-8.98-5.5-8.98-1.79,2.73-4.03,6.15-5.5,8.98h-16c-.88-4.2,10.28-9.42,12.42-9.07.67.11.45,2.09,1.07,2.1,7.58-4-4.05-5.65-4.5-6.03-2.24-1.89,3.07-2.21,3.58-2.91,2.54-3.47-3.81-7.77-4.52-11.64-.62-3.42-.07-4.62,2.94-2.44,2.6,5.7,5.93,11.14,8.55,16.99.36.81.22,2.84,1.93,2.01,3.12-1.52,13.45-28.81,16.73-33.29.7-1.47,1-3.09.78-4.7Z"/>
  <path class="st12" d="M277,117c-1.14-.02-3.83,1.42-3,3-1.56.17-3,.17-4.38,1.1l-42.62,22.9v-24c0-.1-1.45.1-2,0l1.51-2.98c-5.69,4.29-13.07,8-18.42,12.58-2.64,2.25-2.93,2.84-3.59,6.42l-.99-3-5.5,2.99c-.04-5.32.03-10.67,0-15.99,0-.67,0-1.33,0-2-.04-6.99.02-14.01,0-20.99.47-.53,5.1,2.39,5.99,2.99.38.25.97,1.3,2,2,6.95,4.72,14.04,9.3,21,14v-27c16.01,7.97,32.05,16.13,47.69,24.81.48.27,4.44,2.37,2.31,3.19Z"/>
  <path class="st0" d="M373,770l36.01-1.01-1.01,95.01c-11.73-31.3-23.44-62.63-35-94Z"/>
  <path class="st13" d="M474,257c-15.07,10.74-25.53,22.44-30,41-4.52,2.22-11.37,6.34-16,9-4.32-1.4-12.31-1.58-17-1l30-17.98-30-20.02v-11.01s63,0,63,0Z"/>
  <path class="st12" d="M690,230c.6-1.12,4.51-8.39,5.99-7,3.57,10.56,9.35,20.38,13.8,30.75.58,1.35,2.14,2.11,2.2,2.25.09.23-.04.64,0,1,.21,1.82-.22,3.04-.78,4.7-2.9,8.58-10.49,21.59-14.68,30.39-.64,1.35-.06,3.23-2.55,2.91-2.74-8.07-17.8-30.82-17-38,.04-.35-.09-.77,0-1,.06-.15,1.59-1,2.2-2.26,3.65-7.61,6.92-16.54,10.8-23.74Z"/>
  <path class="st12" d="M694,297c.56-.02,1.42-.24,1.82.15.35.34,3.47,7.38,4.18,8.85.32.68.69,1.34,1,2,3.88,8.33,6.9,17.21,10.93,25.5-5.18,11.36-10.17,22.93-15.89,34.03-.48.93-.6,2.38-2.02,2.47l-17-36.57c3.15-8.64,7.1-17.11,10.99-25.42.31-.66.68-1.32,1-2,1.35-2.86,3.95-5.77,5-9Z"/>
  <path class="st12" d="M881,306c.33.66.68,1.34,1,2,1.51,3.12,11.08,24.04,10.99,25.42l-17,36.57c-2.06-.94-2.91-3.73-3.84-5.64-2.46-5.05-13.9-27.47-14.13-30.93-.09-1.38,9.48-22.35,10.99-25.42.32-.65.67-1.35,1-2,1.47-2.83,3.71-6.25,5.5-8.98.53,0,4.86,7.71,5.5,8.98Z"/>
  <path class="st12" d="M882,234c.77,1.56,1.13,3.24,2,5,1.3,2.62,2.81,5.38,4,8,1.27,2.78,2.96,5.63,4,8,.26.6.98,1.89,1,2,.22,1.61-.08,3.24-.78,4.7-3.28,4.48-13.61,31.77-16.73,33.29-1.71.83-1.57-1.2-1.93-2.01-2.62-5.85-5.95-11.29-8.55-16.99-2.29-5.01-3.68-10.9-6.84-15.75-.76-2.43.99-4.23,1.84-6.25,4.42-10.56,9.84-21.02,15.5-30.98.64,0,5.8,9.57,6.5,10.98Z"/>
  <path class="st12" d="M723,409c-.64-1.92-.89-2.64-.26-4.67,1.99-6.48,11.51-24.11,15.22-30.87.69-1.25.58-2.47,2.53-2.47,1.8,0,12.81,28.83,15.73,32.29.78,1.73,1.06,3.85.78,5.72-.02.11-.74,1.39-1,2-1.36,3.14-4.23,7.12-5.86,10.64-2.87,6.21-5.72,14.26-8.91,20.08-.63,1.15.05,1.69-2.22,1.27-4.41-10.58-9.68-20.78-14.26-31.29-.46-1.06-1.71-1.59-1.75-1.71-.11-.28.1-.69,0-1Z"/>
  <path class="st12" d="M838,385c1.97,4.05,8.86,16.93,9.55,19.99.36,1.57-.18,2.58-.55,4.01-.16.62-.73,1.33-1,2-1.54,3.78-13.93,31.18-15.51,31.99-1.68.86-1.56-1.23-1.97-1.97-2.64-4.76-5.17-10.95-7.52-16.03-.58-1.26-1.73-2.37-2-3-.3-.7-.5-1.82-1-3-.67-1.59-1.39-3.38-2-5-.86-2.29-2.49-5.17-3-7-.28-1.01.16-2.77,0-4,2.44-1.66,4.47-6.08,5-9,.06-.32-.04-.67,0-1,3.96-2.2,10.49-22.03,12.5-23,2.28,5.06,5.07,10.01,7.5,15Z"/>
  <path class="st12" d="M734,306l6.49-9.01c1.49,2.98,3.05,6.01,4.51,9.01.33.67.68,1.34,1,2,1.94,3.99,11.17,22.7,10.99,25.42l-16.5,35.59c-1.8.24-1.92-1.35-2.53-2.47-6-10.92-10.54-22.91-15.74-34.23,4.22-7.96,7.74-16.27,11.78-24.31.22-.43-.22-1.58,0-2Z"/>
  <path class="st12" d="M723,255c.11-.23,1.58-.99,2.2-2.26,4.16-8.55,8.69-20.93,13.56-28.45.63-.97-.11-1.79,2.22-1.28,1.27,3.4,2.57,7.1,4.16,10.36,2.8,5.77,10.04,17.38,11.4,22.62.38,1.45.8,2.77.27,4.27l-15.58,33.46-2.22,1.29-17.02-37c1.21-.71.7-2.38,1-3Z"/>
  <path class="st0" d="M110,616l94.01-1.01c-.62,7.09,1.29,15.25-1.01,22.01-16.72-3.67-34.22-8.22-51-11-.32-.05-.67.05-1,0-7.91-2.88-16.69-4.63-25-6-.32-.05-.67.05-1,0-4.54-2.33-10.1-2.83-15-4Z"/>
  <path class="st13" d="M690,230c-6.73,2.99-9.65-4.53-10-9.99,14.84,1.72,9.86-2.92,11.12-13.38.64-5.29,2.87-6.63,3.67-9.33s-1.42-10.1,3.93-7.54c8.94,4.28,5.07,9.61,4.4,16.89-.18,1.93-1.14,3.87,1.87,3.35-.07.66.05,1.34,0,2-1.67.56-1.27,3.06,0,4,.5,3.65,1.69,1.31,3,2,.07.04-.15,1.18.35,1.62,2.61,2.26,4.58,5.66,7.65,5.38,0,7.79,1.29,22.71.06,29.43-.23,1.25-3.58-.06-4.06,1.57-.06-.15-1.62-.91-2.2-2.25-4.45-10.36-10.24-20.19-13.8-30.75-1.48-1.39-5.39,5.88-5.99,7Z"/>
  <path class="st2" d="M796,613c3.22,2.93,6.51,6.64,9.98,9.5-4.85,3.73-24.34,24.77-28.46,25.52-2.01.37-1.34-.25-1.51-1.5-1.17-8.37-.08-22.48,0-31.52,0-.33,0-.67,0-1,.04-5.65-.03-11.34,0-16.99,1.74-.46,2,.73,3,1.49,5.32,4.02,12,9.96,17,14.5Z"/>
  <path class="st0" d="M712,257c1.54.43,3.82-1.38,4.01,1.47,1.05,15.44-.8,31.98,0,47.54h-16.01c-.7-1.48-3.82-8.52-4.18-8.86-.4-.39-1.26-.17-1.82-.15v-2c2.49.32,1.91-1.56,2.55-2.91,4.18-8.81,11.78-21.81,14.68-30.39.56-1.66.99-2.88.78-4.7Z"/>
  <path class="st13" d="M306,474v37.01s-24,0-24,0c.56-5.26,5.86-13.52,7.34-20.16,1.16-5.19,1.93-10.52,1.66-15.84,5.48.08,9.73-.54,15-1Z"/>
  <path class="st5" d="M308,124c11.31-1.31,24.56,4.24,30.03,14.47,1.94,3.62,3.15,7.52,3.97,11.53-2.86-1.78-22.89-11.49-25.56-11.94-7.15-1.2-13.59.82-20.44,1.94.21-11.33-2.28-10.75,8.89-14.6.68-.23.99-1.37,1.11-1.4.52-.15,1.35.08,2,0Z"/>
  <path class="st7" d="M590,536c6.85-.15,10.98,6.32,16.78,7.72,1.73.42,5.95.1,6.22.28.14.09.16,1.86.99,2.58.61.53.95-.59,1.01-.58,4.37,1.31,3.06,3.7,5.34,5.66s6.27,1.74,8.38,2.66c.52.23,1.9,2.95,2.61,3.35,7.06,4,15.68,9.03,22.51,12.24,8.05,3.79,15.92,9.14,24.52,13.75,6.62,3.55,13.22,5.91,19.29,10.68.58.46.25,1.54.37,1.66.5.53,4.38-.84-.03,4.52s-7.53,5.94-13.39,7.56c-3.73,1.03-7.04,1.78-4.58,5.92-2.82.02-7.03-.81-9,1-5.4,5.54-12.38,7.92-18.83,10.88-4.77,2.19-10.04,4.19-14.17,6.12l59.37-33.92.63-2.08-103-56-5-4Z"/>
  <path class="st7" d="M380,258c9.18-2.3,19.54-.37,29.01-1.01l-1.01,10.01c-8.37-3.81-19.04-6.81-28-9Z"/>
  <path class="st10" d="M203,637c.63.14,1.69.71,3,1,20.02,4.47,40.19,8.68,60,14-9.1-1.26-17.2-2.27-25.45-4.05-28.86-6.21-55.12-13.65-81.23-19.93-2.24-.54-7.93,1.69-7.32-2.02,16.78,2.78,34.28,7.33,51,11Z"/>
  <path class="st7" d="M589,536v60c-1.3,1.4-.98,1.19-2.53.04-7.2-5.32-13.92-11.15-21.47-16.04-.61-.39-1.04-1.08-2-1-.35-.32-.65-.69-1-1-2.21-1.95-4.09-3.98-6.99-5v49c-.67-.05-1.35.07-2.01,0-.06-2.33.05-4.68,0-7.01,0-.33,0-.67,0-1-.17-11.16-1.33-28.06-.05-38.55.43-3.53,2.27-4.51,5.8-3.15.31.12,1.88,2.91,2.57,3.37,3.99,2.64,10.34,5.03,14.25,7.26,3.13,1.79,5.93,9.87,11.43,9.06-.26-3.38.43-7.13-.04-10.45-.24-1.73-2.21-2.91-1.99-4.97.14-1.39,1.76-2.73,2.09-5.03.75-5.24-1.12-34.14-.05-35.56.66-.06,1.34.05,2,0Z"/>
  <path class="st7" d="M637,632c-.43,5.93-2.7,3.04-5.26,4.04-.9.35-5.47,4.48-6.86,5.36-4.33,2.75-7.5,1.84-9.89,7.61-.18.43-1.21,1.03-1,2-2.37-.66-5.06-1.38-7.55-1.1-.26.03-3.02,1.57-4.45,2.1,10.61-7.34,23.21-14.52,35-20Z"/>
  <path class="st13" d="M716,218v7c-3.07.28-5.04-3.13-7.65-5.38-.5-.43-.28-1.58-.35-1.62h8Z"/>
  <path class="st10" d="M104,614c1.76,1.33,3.95,1.51,6,2,4.9,1.17,10.46,1.67,15,4-5.12-.81-11.03-1.1-16.33-2.01-.71-.12-.93-3.23-3.66-1.98-1.36,1.23,6.08,8.67,3,10.99-1.26-2.67-2.88-5.28-4-8-1.4-3.42-.92-2.32-1-5h1Z"/>
  <path class="st7" d="M819,422h-1c-1.07-.76-1.57-2.66,0-3,.5,1.18.7,2.3,1,3Z"/>
  <path class="st2" d="M103,96c.38.25.95,1.69,2.03,2.42,5.48,3.69,10.99,7.74,16.97,10.58v-26l49.96,25.54c2.96,2.8-.4,2.32-2.35,3.59-.86.56-1.37,1.73-1.61,1.87-1.7.97-4.81,1.82-7,3-1.59.86-3.57.59-3,3-5.22.58-7.01,3.15-11,5-2.83,1.31-5.26,2.61-8,4-5.55,2.81-11.13,5.88-17,8v-26c-7.04,2.23-13.08,9.05-19,13-.45.3-1.28.54-2,1-1.17.74-7.38,4.68-7.99,4-.05-2.99.05-6.01,0-9-.01-.67,0-1.33,0-2-.1-8.98.07-18.01,0-27,.61-.68,6.85,3.25,7.99,4,.74.48,1.56.7,2,1Z"/>
  <path class="st7" d="M103,95c2.19-.27,3.18,1.27,4.06-1.45,1.03-3.19,2.43-14.18,3.94-16.05s7.74-3.28,9.61-6.27c3.24,1.44,7.83-.98,10.74.72.86.5,1.46,8.24,2.7,10.01,2.07,1.47,7-3.98,7.95-2.96-3.19,7.97,4.32,5.94,7.58,8.92,2.48,2.27-.36,5.72,5.04,6.03,4.97.29,3.79-1.45,5.66-4.19,4.07-5.95,1.71,1.86,1.92,3.5.09.68,2.49,7.94,2.82,8.22.66.57,2.39.73,3.5,1.5,1.65,1.14,2.24,3.48,4.97,3.06.63-.1,0-2.14,1.87-2.05,4.4.22,15.72,2.11,13,8.73-2.08,5.08-16.18,2.58-20.36,1.27.25-.14.76-1.31,1.61-1.87,1.94-1.27,5.31-.79,2.35-3.59l-49.96-25.54v26c-5.98-2.84-11.49-6.89-16.97-10.58-1.08-.73-1.66-2.17-2.03-2.42v-1Z"/>
  <path class="st9" d="M198,118c0,.67,0,1.33,0,2-12.74,1.02-27.53-1.38-40,0-.57-2.41,1.41-2.14,3-3l37,1Z"/>
  <path class="st0" d="M108,627c26.59,56.13,70.54,119.59,73.99,182.51.21,3.84.65,14.52-.53,17.45-.33.83-2.65,3.32-3.5,4.5-19.94,27.65-45.91,57.56-67.98,84.02-1.82,2.18-4.24,5.71-6.98,6.52v-153h70v-2h-70l1-148c1.12,2.72,2.74,5.33,4,8Z"/>
  <path class="st13" d="M133,411c4.83,1.02,13.16,6.2,17.98,7.61,3.17.93,11.01.65,14.34,1.4.38.08,2.6,3.83,6.68,1.99,1.88,5.94-7.72,8.08-8.05,8.65-1.93,3.37-.42,8.43-.14,11.86.3,3.64-3,2.17,3.19,5.01-.17,1.63-3.8,7.59-2.99,8.46,2.25,2.41,4.69-6.71,5.04-6.98.56-.42,6.36,3.11,8.45-1.04.61-1.22.33-3.7.55-3.92.52-.53,5.56.37,5.96-.04.44-.45-.61-4.69.13-5.87s4.87-.76,5.86-1.14c3.83,4.43,9.12,7.85,14,11v63h-101v-100c8.61,1.25,22.05-1.68,30,0Z"/>
  <path class="st13" d="M130,409h-27v-101h101c.61,6.74-1.29,14.6,1,21-4.76,7.88-11.12,21.28-14,30-28.41-11.26-62.45.69-76.81,27.69-1.39,2.61-5.4,12.37-4.97,14.69.59,3.22,4.99,2.22,7.02,2.88,4.53,1.46,9.21,3.48,13.76,4.74Z"/>
  <rect class="st13" x="103" y="257" width="101" height="49"/>
  <path class="st8" d="M191,359c-6.14,18.56-8.74,43.54-7,63-2.1.06-4.13.21-6.21-.28-13.71-3.17-29.01-7.96-42.79-11.72-1.38-.38-3.09-.47-5-1-4.55-1.26-9.23-3.28-13.76-4.74-2.03-.66-6.42.34-7.02-2.88-.43-2.32,3.58-12.08,4.97-14.69,14.36-27,48.4-38.95,76.81-27.69Z"/>
  <path class="st13" d="M113,209c3.73-1.03,7.21,4.89,7.72,5.01,4.78,1.1,9.18,1.47,13.67,2.22,1.56.26,2.19,2.98,4.1,2.78-.98-7.95,6.05-6.89,7.38-8.14.56-.53.04-5.46,1.76-5.91,5.25-1.4,3.17,4.2,5.32,5.59,1.47.95,4.33.14,6.31.69,4.78,1.31,2.86,5.03,9.43-.57.47-.4.18-1.55.3-1.67h-1.99s0-3.99,0-3.99h1.99s0,3.99,0,3.99c1.15-1.12,4.74-1.51,6.07-.57,1.88,1.32.16,5.84,1.36,7.64,1.31,1.98,7.21-1.54,9.54,6.47.87,3-4.68.55-5.84,1.61-.33.3-.22,2.35-1.06,3.43-.78,1.01-2.72,1.22-2.94,1.58-1.35,2.21,3.48,6.47,2.74,9.15-.31,1.14-1.96,1.82-2.33,2.75-.68,1.65-.29,3.85-1.01,4.98-.91,1.43-5.32,1.7-5.53,1.99-.29.39,1.76,5.44,1.01,6.99-6.99.02-14.01.01-21,0,1.09-2.97-4.91-3.23-4,0-.67,0-1.33,0-2,0,.56-3.03-1.53-1.92-3.45-2-2.99-.12-6.1-.1-9.09,0-1.92.06-4.01-1.02-3.45,2-4.65-.02-9.35.07-14,0,.2-3.28-4.72-2.81-4.91-6.42-.13-2.45,1.62-12.59,2.15-15.84,1.69-10.35,2.31-13.31,1.76-23.74Z"/>
  <path class="st7" d="M120,179c2.79-.04,3.83,1.83,5.45,1.91,1.09.05,4.05-1.45,4.54-.9.52.58-.4,14,8.01,10,.83,9.82,4.59,4.96,9.56,4.03,3.63-.68,12.93,3.31,14.87,2.92s1.65-4.27,1.57-5.96l5,1c.33,10.09-1.3,12.11,10.76,13.74,8.13,1.1,17.6-.86,24.24-5.74-.04,11.65.06,23.35,0,35-7.51-.63-4.97,9.43,0,11-.06,2.99.05,6.01,0,9.01-6.84-.04-13.7.02-20.55.04-4.15.01-8.2-.06-12.46-.04.75-1.55-1.3-6.59-1.01-6.99.22-.29,4.62-.56,5.53-1.99.72-1.13.34-3.33,1.01-4.98.38-.92,2.02-1.61,2.33-2.75.74-2.68-4.09-6.94-2.74-9.15.22-.36,2.15-.57,2.94-1.58.84-1.08.73-3.12,1.06-3.43,1.16-1.06,6.71,1.39,5.84-1.61-2.33-8.01-8.23-4.48-9.54-6.47-1.19-1.8.52-6.32-1.36-7.64-1.33-.94-4.92-.56-6.07.57v-3.99s-1.99,0-1.99,0v3.99s1.99,0,1.99,0c-.12.12.17,1.26-.3,1.67-6.58,5.6-4.66,1.88-9.43.57-1.97-.54-4.83.26-6.31-.69-2.15-1.39-.07-6.99-5.32-5.59-1.72.46-1.2,5.39-1.76,5.91-1.33,1.25-8.35.19-7.38,8.14-1.92.2-2.54-2.52-4.1-2.78-4.49-.75-8.89-1.12-13.67-2.22-.5-.12-3.98-6.04-7.72-5.01-.33-6.33-.84-12.69-1-19,6.09,1.22,3.88-2.95,5.26-6.24.73-1.72,1.9-2.31,2.74-4.76Z"/>
  <path class="st7" d="M306,258c-29.64,7.19-63.42,25.28-84,48h-16v-49l100,1Z"/>
  <path class="st13" d="M184,422c.16,1.83.97,4.2,1.49,5.99,10.79-4.65,23.46-14.88,34.51-17.99,1.04,1.66,3.8,1,5.49,1.02,19.3.2,44.03-2.08,62.51-.02,4.63.52,7.08,3.2,10,4,.87,2.06.84,10.68-.14,11.86-.77.93-16.46,2.82-16.86,9.14-.97-.1-2.04.13-3,0-1.91-6.4-19.76-23.14-25.58-22.95-2.62.08-6.85,9.94-6.42,12.95-.75-.32-2.3-.18-3.68-.78-5.35-2.32-10.37-5.58-15.65-8.04-10.74,5.24-20.93,11.6-31.67,16.82-.8-12.2-7.27-9.5-2,1-.74.33-1.54,1.45-3,2-1,.38-5.16.01-5.86,1.14s.31,5.41-.13,5.87c-.41.41-5.44-.49-5.96.04-.22.22.07,2.7-.55,3.92-2.09,4.15-7.89.62-8.45,1.04-.36.27-2.8,9.4-5.04,6.98-.81-.87,2.82-6.84,2.99-8.46-6.19-2.85-2.9-1.37-3.19-5.01-.28-3.43-1.79-8.49.14-11.86.33-.57,9.93-2.71,8.05-8.65-4.08,1.84-6.3-1.9-6.68-1.99-3.33-.75-11.17-.48-14.34-1.4-4.82-1.41-13.15-6.59-17.98-7.61l2-1c13.78,3.77,29.08,8.56,42.79,11.72,2.08.48,4.12.33,6.21.28ZM203.99,425.01c-.83-.16-8.43-.57-5.99,1.98.84.87,7.09,1.4,5.99-1.98ZM181.01,438c-2.62-.26-5.81.53-8.3-.21-1.76-.52-2.57-2.73-3.68-3.32-2.96-1.57-5.07,2.95.42,5.58,3.58,1.71,12.81,3.46,11.56-2.05Z"/>
  <path class="st3" d="M103,125c6.15,2.06,6.17-4.24,7.15-4.84.62-.38,4.56-.33,4.8-.1.18.17.06,2.79.52,3.94,1.32,3.3,3.71,6.37,2.59,10.47-.36,1.32-3.98-.52-3.06,2.03.58,1.6,5.12,4,5.79,6.22,1.08,3.59-1.34,8.76.2,13.61.4,1.25,1.93.58,2,.68,6.31,10.52.56,7.8-1.54,13.95-.82,2.39-.54,5.36-1.46,8.05-7.31.1-8.15,5.03-8,11,.16,6.31.67,12.67,1,19,.54,10.43-.08,13.39-1.76,23.74-.53,3.25-2.28,13.39-2.15,15.84.19,3.61,5.11,3.15,4.91,6.42-3.66-.05-7.35.04-11.01,0-.04-2.99.07-6.01,0-9.01,3.23.91,2.97-5.09,0-4-.09-9.32.03-18.68,0-28,4.73.55,3.44-9.56,0-9,0-1,0-2,0-3,.92-.09,1.75.54,2.02-.63.48-2.04.78-9.87-2.02-8.37,0-2,0-4,0-6,3.13.55,2.97-2.61,0-2v-7c3.18.78,2.98-3.88,0-3v-16c3.18.78,2.98-3.88,0-3v-31ZM109.99,147c-5.06-3.35-4.69,9.37,1.02,6.48.24-1.13-.64-6.23-1.02-6.48Z"/>
  <path class="st13" d="M231,463c-3.21,8.69-7.4,17.12-10.77,25.73-4.57,11.7-7.69,24.61-14.23,35.27.29-1.83-.41-10.63,0-11.01.48-.45,3.56.75,4.02-.5.98-2.67-3.5-.98-4.02-1.48v-61.01c5.82,3.58,18.81,10.43,25.01,13Z"/>
  <path class="st5" d="M341,162c-.28,1.04.08,2.57-.44,4.02-5.61,15.71-16.81,20.9-32.56,21.98-.33.02-.67-.02-1,0l-10.52-5.98c-.98-3.26-.38-6.69-.48-10.02,10.87.89,13.92,3.87,25.9-.6,6.69-2.5,12.21-8.53,19.1-9.4Z"/>
  <path class="st12" d="M214,180c.65,6.36-3.49,13.75-8,18-.59.55-1.71,1.79-2,2-6.64,4.88-16.11,6.84-24.24,5.74-12.05-1.63-10.42-3.65-10.76-13.74-.02-.67.01-1.33,0-2,1.56,3.63,5.42,1.38,8.32,2.02.68.15.46,3.15,6.13,1.92,1.52-.33,2.58-1.56,4.09-1.9,10.03-2.28,17.23-5.63,26.46-12.04Z"/>
  <path class="st7" d="M220,309c-4.03,4.74-10.8,12.96-14,18v-19.01s14,1.01,14,1.01Z"/>
  <path class="st13" d="M296,172c.1,3.32-.5,6.76.48,10.02l10.52,5.98c-.33.02-.67,0-1,0-10.12.28-12.99-4.12-12.01-14-2.19-.21-3.35,1.81-5.55,1.98-2.52.2-6.4-1.93-4.45-3.98.41-.44,10.22-.15,12.01,0Z"/>
  <path class="st3" d="M204,235c-.02,3.66.07,7.35,0,11-4.97-1.57-7.51-11.63,0-11Z"/>
  <path class="st3" d="M128,255c-.56-3.02,1.53-1.94,3.45-2,2.99-.1,6.1-.12,9.09,0,1.92.08,4.01-1.03,3.45,2-5.32,0-10.68.02-16,0Z"/>
  <path class="st7" d="M103,205c3.44-.56,4.73,9.55,0,9-.01-2.99,0-6.01,0-9Z"/>
  <path class="st7" d="M103,193c2.8-1.5,2.5,6.33,2.02,8.37-.27,1.16-1.1.53-2.02.63,0-2.99,0-6.01,0-9Z"/>
  <path class="st7" d="M103,242c2.97-1.09,3.23,4.91,0,4-.03-1.33.01-2.67,0-4Z"/>
  <path class="st3" d="M146,255c-.91-3.23,5.09-2.97,4,0-1.33,0-2.67,0-4,0Z"/>
  <path class="st7" d="M103,175c2.98-.88,3.18,3.78,0,3v-3Z"/>
  <path class="st7" d="M103,156c2.98-.88,3.18,3.78,0,3v-3Z"/>
  <path class="st7" d="M103,185c2.97-.61,3.13,2.55,0,2,0-.67,0-1.33,0-2Z"/>
  <path class="st10" d="M151,626c-7-1.12-11.99-2.61-17.68-3.98-2.24-.54-7.93,1.69-7.32-2.02,8.31,1.37,17.09,3.12,25,6Z"/>
  <path class="st10" d="M118,914c-1.87,1.84-3.31,4.76-6,6,.43-2.02,3.86-5.7,6-6Z"/>
  <path class="st6" d="M263,386c-30.59-57.92,49.49-117.31,97.02-63.52,1.19,1.35,5.77,6.11,5.98,6.52,23.49,46.94-15.78,100.38-68,86-2.92-.8-5.37-3.48-10-4-.69-1.94-2.6-2.12-4-3-6.47-4.07-17.47-15.31-21-22Z"/>
  <path class="st7" d="M410,352c-.08,5.88-8.29,21.43-11.58,26.92-19.83,33.06-54.19,53.57-92.42,57.08-.12-2.48.18-5.03,0-7.51-.08-1.09.56-3.33-1.49-2.48-3.4,1.41-3.95,7.77-3.51,10.99-7.13.34-13.09-.29-20-1,.4-6.31,16.1-8.21,16.86-9.14.97-1.18,1.01-9.8.14-11.86,52.22,14.38,91.49-39.06,68-86,13.9-4.73,28.56-17.64,42-22,1.72,13.86,1.16,28.5.96,42.58-.02,1.27,1.04,2.29,1.04,2.42Z"/>
  <path class="st7" d="M263,386c3.53,6.69,14.53,17.93,21,22-1.04,1.66-3.8,1-5.49,1.02-16.77.21-40.9-2.13-56.51-.02l41-23Z"/>
  <path class="st9" d="M288,411c-18.49-2.06-43.22.22-62.51.02-1.69-.02-4.45.64-5.49-1.02.38-.11.91-.85,2-1,15.62-2.11,39.75.22,56.51.02,1.69-.02,4.44.64,5.49-1.02,1.4.88,3.31,1.06,4,3Z"/>
  <path class="st9" d="M411,306c4.69-.58,12.68-.4,17,1-.89.51-1.88,1.34-3,2l-14.01-1.01,1.01,38.01c-.41,2.1-.14,4.4-2,6,0-.13-1.05-1.16-1.04-2.42.2-14.08.75-28.72-.96-42.58,1.01-.33,1.75-.85,3-1Z"/>
  <path class="st5" d="M729,218c-.8-14.88,4.83-28.91,14.96-39.51,22.7-23.78,59.49-24.25,82.08,0,9.95,10.68,15.86,24.68,14.96,39.51-37.31.34-74.69,0-112,0Z"/>
  <path class="st1" d="M780,306c.85-2.13,5.02-7.43,4.53-10.08l-17.28-37.26c5.27-11.21,10.11-22.95,16.27-33.7.59-1.03-.05-2.51,1.98-1.98,1.92.5,14.32,31.72,17.29,35.67l-16.62,36.09c-.44,2.57,1.6,6.38,2.64,8.99.54,1.36,2.14,2.11,2.2,2.25.19.5-.2,1.51,0,2,3.17,8.01,14.25,30.14,14.94,36.61.64,6.1-3.3,15.24-4.94,21.39-.15.55.1,1.37,0,2-3.64,12.61-9.32,26.97-11.89,39.69-.33,1.65.36,1.43,1.89,1.31v1c-3.65-.33-5.53,9.33-4.8,12.26l16.54,35.07-16.76,36.67c-2.32.67-2.77-2.12-3.67-3.79-5.63-10.55-10.3-21.81-15.24-32.7l16.66-35.27c2.22-4.39-2.06-8.6-2.74-11.23-.15-.58.15-1.42,0-2-2.29-9.07-4.24-18.38-8-27-.01-.67,0-1.33,0-2-.03-1.96-.23-3.87-2-5-.03-.33.05-.67,0-1-1.02-7.27-7.33-23.06-6.96-28.45.22-3.21,6.52-14.68,7.96-19.55.09-.31-.09-.69,0-1,3.74-4.78,4.85-11.7,7-17,.23-.56.68-1.19,1-2ZM788.93,310.02l-9.02,2.64-12.99,33.85c3.23,16.53,8.41,32.52,13.75,48.31.56,1.67,2.94,18.61,7.1,10.46l16.17-58.9-15.01-36.36Z"/>
  <path class="st12" d="M843,247c.13.27-.13.73,0,1,1.55,3.3,3.81,7.04,5,10,.18.46-.15,1.4,0,2-.82.43-.7,1.54-1,2-1.12,1.76-1.35,1.6-2,4-2.69,4.19-4.99,9.42-7,14-1.53,3.48-3.79,6.06-4,10-1.12,1.04-2.78,3.64-3,5-2.42.53-2.07-1.23-2.82-2.63-2.66-5.02-4.85-10.21-7.18-15.37-.58-1.29-1.72-2.36-2-3-2.21-5.13-6.39-13.89-6-19,3.78.01,2.98-4.74,4-7,.28-.62.67-1.23,1-2,1.68-3.86,4.25-7.5,5.98-10.74.99-1.85,5.45-12.24,6.52-12.24,3.79,8.09,8.71,15.95,12.5,23.98Z"/>
  <path class="st0" d="M794,306c-.18-2.94,2.97-5.32,2.07-8.42-.35-1.2-4.8.04-4.1-4.08.06-.36,1.65-.29,1.97-1.22,1.46-4.23,5.02-17.14,7.64-20.19,1.43-1.67,4.16-1.79,4.93-3.1.67-1.16.17-3.18.67-3.8,1.45-1.81,8.01-1.85,6.83,2.81-4.38-1.78-11.64,8.96-4.71,7.84,1.53-.25,2.91-2.5,4.71-1.34,3.89,2.49-8.95,12.71,4,11.51-.02,6.66.02,13.35,0,20.01-2.66.05-5.35-.07-8.01,0,.8-3.09-4.16-6.64-6.5-7.02-2.21-.36-2.67,5.69-3.5,7.02h-6Z"/>
  <path class="st0" d="M843,247c-1.07-6.62,4.51.09,5.99-1,.23-.17.64-3.84,2.43-5.08,2.04-1.42,4.82-.52,5.46-1.04.27-.22.47-3.02,1.23-4.26,1.37-2.25,3.93-2.66,4.95-4.06s.78-3.36,1.54-4.46c8.61-12.31,12.48-10.11,24.41-2.57.13.58-4.48,10.02-7.01,9.47-.7-1.41-5.86-10.98-6.5-10.98-5.66,9.97-11.08,20.42-15.5,30.98-2.73,1.11-9.94,1.73-12.39,1.06-1.36-.37-1.05-7.81-4.61-7.06-.13-.27.13-.73,0-1Z"/>
  <path class="st7" d="M813,255c-1.83,0-7.11-2.18-8.08-3.42s-.74-3.26-1.49-4.51c-1.03-1.71-2.32-2.09-3.4-4.6-.47-1.11-1.8-8.58.96-5.47.28.32,2.7,6.78,3.05,7.97,4.96-1.6,10.2,2.38,8.93-5.4-1.15-7.04-6.58-3.62-7.87-4.67-.61-.5-1.57-9.36-1.09-9.89l4.99,1.99c-2.27-6.8,7.4-5.17,8.83-2.83,1.58,2.57-1.04,17.79.17,21.83-.33.77-.72,1.38-1,2-2.85-.54-3.83,4.72-4,7Z"/>
  <path class="st9" d="M821,277c-1.66,1.04-1,3.79-1.02,5.49-.07,6.4-.9,17.17,0,22.94.2,1.26,3.82.3,5.02.58-1.8,3.84-2.23,9.41-6,12,0-.13-.97-1.14-1.04-2.42-.13-2.52.14-5.07.04-7.58-8.32,0-16.68,0-25.01,0h-2c-.2-.49.19-1.5,0-2h9c3.32,0,6.68.08,10,0,2.66-.07,5.35.05,8.01,0,0-6.66-.03-13.35,0-20.01.01-3.78-.84-9.02,1-12,.28.64,1.42,1.71,2,3Z"/>
  <path class="st3" d="M798.84,220.14c1.3.74,2.36,5.31,1.99,7.12-.29,1.41-4.86,8.07-6.32,7.73-2.51-.59-2.37-7.09-2.95-9.1s-2.14-1.91-2.26-2.15c-2.34-4.4,2.03-1.65,3.97-1.93,1.57-.22,3.78-2.71,5.57-1.68Z"/>
  <path class="st9" d="M780,306c-.32.81-.77,1.44-1,2h-33c-.32-.66-.67-1.33-1-2h35Z"/>
  <path class="st13" d="M708.75,170.26l5.25,7.72c-2.24.66-8.11,2.19-9.58.06-.94-1.36.49-3.02.3-4.4-.13-.95-1.91-1.99-1.72-3.12.35-2.05,4.37-1.63,5.76-.26Z"/>
  <path class="st0" d="M888,247c-1.19-2.62-2.7-5.38-4-8,1.12-1.53.7-2.51,3.03-1.59,4.8,1.89,5.87,7.07.97,9.59Z"/>
  <path class="st13" d="M705.99,184.01c1.02,1-1.95,4.01-2.99,2.99s1.95-4.01,2.99-2.99Z"/>
  <path class="st4" d="M595,540l103,56-.63,2.08-59.37,33.92c-.27.13-.73-.13-1,0-11.79,5.48-24.39,12.66-35,20-.3.11-.72-.12-1,0-2.76,1.13-5.36,2.63-8,4-3.5.12-2.76.62-3-2.45-1.32-16.78,1.07-35.14.01-52.06-.08-1.28.62-3.31-1.01-3.49-1.77-.2-25.34,17.33-29,20l-4-1.46v-38.54s6,0,6,0c.35.31.65.68,1,1,.63.58,1.02,1.07,2,1,7.55,4.89,14.27,10.72,21.47,16.04,1.55,1.15,1.23,1.36,2.53-.04,2.87-3.09-.12-50.28,1.01-58l4.99,2Z"/>
  <path class="st7" d="M589,598v60c2.04.57,2.82-1.38,4-2,2.64-1.37,5.24-2.87,8-4,.03,3.8-4.25,3.47-5.69,4.3-1.1.63-4.22,5.66-7.23,3.62-2.46-1.67-.31-32.88-1.01-38.47-.24-1.93-1.51-1.32-2.08-2.16-.62-.91-.65-2.82-1.13-3.15-.5-.35-10.99-1.39-12.21-.99-2.73.88-.57,3.08-.85,4.24-.81,3.41-6.95.41-9.34.5-1.64.06-.53,2.11-5.46,2.11,1.04-1.14,2.86-3.17,4-4,3.66-2.67,27.23-20.2,29-20Z"/>
  <path class="st10" d="M562,578h-6.01s0,38.54,0,38.54l4,1.46c-1.14.83-2.96,2.86-4,4-.33,0-.67.03-1,0v-49c2.91,1.02,4.79,3.05,7,5Z"/>
  <path class="st9" d="M615,844c-.46-.21-1.54.21-2,0-.62-8.78,1.29-18.51-1-27,1.13-.45,2.64-1.4,4-2-2.24,9.23-.42,19.5-1,29Z"/>
  <path class="st8" d="M698,698c-.52-.35-.86-1.8-1.65-2-2.26-.59-5.31,4.41-7.13,5.95-7.58,6.44-15.48,12.74-23.21,19.05-1.21-6.14-2.02-49.12,0-51,1.15-1.06,4.52,4.18,6.22,4.03,7.21,6.6,14.48,13.56,22.12,19.65.87.69,2.37.14,2.65.31.17.11.65,3.25,1,4Z"/>
  <path class="st8" d="M246,426c-.43-3.01,3.8-12.87,6.42-12.95,5.82-.19,23.67,16.55,25.58,22.95-13-1.72-20.49-5.14-32-10Z"/>
  <path class="st7" d="M425,309c-3.66,2.16-7.48,4.11-11,6.5v21c0,1.59-1.57,7.28-2,9.5l-1.01-38.01,14.01,1.01Z"/>
  <path class="st9" d="M411,475c-.27,2.98-.82,6.92-3,9,.09-.36.9-4.86,1.03-6.47,1.31-15.86-1.04-33.48-.03-49.53.33-.33.67-.67,1-1,1.66,1.04,1,3.79,1.02,5.49.14,13.17,1.12,29.76-.02,42.51Z"/>
  <path class="st0" d="M301,437c-.44-3.22.11-9.58,3.51-10.99,2.05-.85,1.41,1.38,1.49,2.48.18,2.48-.12,5.03,0,7.51-1.56.14-3.15.91-5,1Z"/>
  <path class="st13" d="M195,434c-.68.33-1.29.68-2,1-5.27-10.5,1.2-13.2,2-1Z"/>
  <path class="st12" d="M342,150c.09.06-.17,1.36.71,2.01,1.99,1.47,5.02,1.37,4.33,4.45-2.79,2.08-5.02,1.8-6.04,5.55-6.89.87-12.41,6.91-19.1,9.4-11.98,4.47-15.03,1.49-25.9.6-.12-3.98.05-8.01,0-12,0-.67,0-1.33,0-2s0-1.33,0-2c0-.33,0-.67,0-1,.04-4.99-.09-10.01,0-15,6.84-1.12,13.29-3.14,20.44-1.94,2.67.45,22.71,10.15,25.56,11.94Z"/>
  <path class="st8" d="M245,184c1.17-1.15,12.87,4.98,15.15,6.13,10.43,5.24,24.38,12.07,34,18,.68.42,3.17,2.26,2.86,3.37-11.04,6.98-23.43,12.57-35.16,18.63-.73.38-.96,1.38-1.69,1.75-4.63,2.35-10.21,5.57-15.15,6.13v-24c-1.33-.08-2.39-.15-3.69.35-5.58,2.18-15.63,12.79-21.36,15.1-1.35.54-2.52.72-3.95.55v-38c2-.04,4.48,1.12,6.16,2.12,4.98,2.97,13.98,11.35,18.89,13.34,1.35.55,2.52.71,3.95.54v-24Z"/>
  <path class="st1" d="M169,190c-.07-3.9.49-8.87,0-12.52-.19-1.39.55-1.73-1.48-1.47l-26.52,17.99v-38l26.51,17.99c2.26.42,1.38-.99,1.49-2.48.27-3.79-.11-7.71,0-11.52.49-.17,1.64.34,2.27-.03.95-.55.38-1.81,2.16-2.05,2.66-.35,16.71-.43,18.88.1.74.18.55,1.72,1.41,1.95,7.74,2.05,13.55,5.71,20.28,10.03,2.21,1.42,4.52,3.08,7,4.02.73,1.05-5.92,5.23-7,5.98-9.23,6.41-16.43,9.77-26.46,12.04-1.51.34-2.57,1.57-4.09,1.9-5.67,1.22-5.45-1.77-6.13-1.92-2.9-.64-6.76,1.61-8.32-2.02Z"/>
  <path class="st12" d="M197,146c.31.09.69-.08,1,0,.32.35.65.69,1,1,1.9,1.68,2.17,1.24,4,2,.06.03.06,1.22.99,1,.06-.66-.04-1.34.01-2,.07-.98,0-2.01,0-3,1.58,9.28,11.47,14.34,10,25-6.72-4.32-12.53-7.98-20.28-10.03-.86-.23-.67-1.77-1.41-1.95-2.16-.53-16.21-.45-18.88-.1-1.79.23-1.22,1.5-2.16,2.05-.63.37-1.78-.14-2.27.03.25-8.52-2.44-11.3,7.03-14.47,8.05-2.69,13.18-1.74,20.97.47Z"/>
  <path class="st5" d="M295,154c.31.15.62.77,1,1,0,.33,0,.67,0,1l-28,19v-39c9.21,4.95,17.68,13.58,27,18Z"/>
  <path class="st13" d="M123,157c1.53-5.92,5.15-12.22,11.93-8.91,1.25,1.74-4.07,8.56,3.07,7.91-1.05,2.53,1,7.77.92,10.41-.25,8.07-1.7,14.28-.92,23.59-8.4,4.01-7.48-9.41-8.01-10-.49-.55-3.45.95-4.54.9-1.62-.07-2.67-1.95-5.45-1.91-.84,2.45-2.01,3.04-2.74,4.76-1.39,3.29.83,7.46-5.26,6.24-.15-5.97.69-10.9,8-11,.92-2.69.64-5.66,1.46-8.05,2.1-6.16,7.85-3.44,1.54-13.95Z"/>
  <path class="st13" d="M138,156c.24-.58,3.69-2.14,5.19-1.74,1.73.46,8.47,4.86,10.42,6.14,3.38,2.21,6.44,6.74,10.93,7.6,2.88.55,2.3-7.24,4.46-7.99-.11,3.8.27,7.72,0,11.52-.11,1.49.78,2.89-1.49,2.48l-26.51-17.99v38l26.52-17.99c2.03-.27,1.3.08,1.48,1.47.49,3.65-.07,8.62,0,12.52.01.67-.02,1.33,0,2l-5-1c.08,1.69.35,5.58-1.57,5.96s-11.24-3.6-14.87-2.92c-4.97.93-8.74,5.78-9.56-4.03-.78-9.31.67-15.52.92-23.59.08-2.63-1.96-7.88-.92-10.41Z"/>
  <path class="st13" d="M295,160c-.73.65-5.83,5.11-6.21,5.27-1.89.83-6.72,1.13-8.46,3-4.12,4.42.25,2.66-7.55,5.82-.86.35-.8,1.74-1.49,1.89-2.17.49-4.63-.25-6.71-.87-.19-6.8-1.42-13.85-1.68-20.61-.1-2.8,1.35-5.51,1.1-7.91-.19-1.79-2.11-3.64-1.86-4.94.16-.81,2.82-3.15,3.74-4.3,1.31-1.65.29-4.34,3.58-3.35.43.13.43,1.49.85,1.67,7.01,3.09,14.01,7.88,20.24,12.76,1.26.98,4.29,3.82,4.45,5.58-9.32-4.42-17.79-13.05-27-18v39l28-19c0,.67,0,1.33,0,2-.68.38-.78,1.8-1,2Z"/>
  <path class="st3" d="M187.01,128.01c-.8,5.09-1.49,12.46-8.21,11.8-4.02-.4-8.14-1.52-7.61-6.04.77-6.55,10.49-7.59,15.82-5.77Z"/>
  <path class="st3" d="M147,125c4.47.5,7.85,11.55,3.38,12.95-2.16.68-13.06-4.63-11.38-8.95,2.74-1.39,5.17-2.69,8-4Z"/>
  <path class="st13" d="M157,147c-3.94-1.72-4.46-3.03-7.51,1-4.03.92-3.68-9.08,4.01-9.1,4.99-.01,3.94,2.82,5.21,3.13,2.16.53,5.16-.63,7.62.91.9.56,2.14,3.48,1.67,4.07-.16.21-1.83-.21-1.99,0-1.15-4.38-8.18-3.39-9,0Z"/>
  <path class="st3" d="M166,147c-.23.29.08,3.88,0,5-2.67-.47-2.04.63-2,3-.15.09.12.69,0,1l-2,1c-.69-.17-1.72.37-2.71-.25-2.06-1.29-2.85-7.45-2.29-9.75.82-3.39,7.85-4.38,9,0Z"/>
  <path class="st3" d="M197,146c-.31-2.46,3.7-6.19,5.51-6.99,2.37-1.05,1.49,4.63,1.49,5.99,0,.99.07,2.02,0,3l-1,1c-1.83-.76-2.1-.32-4-2-.18-.43-.55-.89-1-1-.31-.08-.69.09-1,0Z"/>
  <path class="st13" d="M166,152c-.35,4.86-.28,1.98-2,3-.04-2.37-.67-3.47,2-3Z"/>
  <path class="st13" d="M164,156c-.2.52.2,1.79,0,1.99-.64.63-1.88-.97-1.99-.99l2-1Z"/>
  <path class="st0" d="M296,160h-1c.22-.2.32-1.62,1-2,0,.67,0,1.33,0,2Z"/>
  <path class="st12" d="M879,628c.18,0,1.57,1.05,3.38,1.07,10.61.16,21.03-1.46,31.62-1.08,1.49,13.62-12.59,25.83-25.56,26.04-1.21.02-8.5-.77-9.45-1.03-9.05-2.51-18.99-15.28-17-25,5.65.14,11.36-.18,17,0Z"/>
  <path class="st4" d="M818,665c.12.07,1.27,1.41,2,2,3.78,3.02,8.69,10.07,8,15-12.86-1.33-29.13,1.75-41.55.1-1.87-.25-1.66-2.51-2.45-2.1,3.84-15.63,19.27-23.24,34-15Z"/>
  <path class="st9" d="M820,634v33c-.73-.59-1.88-1.93-2-2-1.07-9.45,1.45-21.97,0-31h2Z"/>
  <path class="st9" d="M827,683c-2.55,1.97-6.55.56-7.01,1-.97.94.74,23.49,0,27-.47.14-1.2,1.04-2,1-.03-9.32.02-18.68,0-28.01-1.15-1.15-27.77.92-32.56.03-.77-.14-1.51-.03-1.45-1.02h43Z"/>
  <path class="st10" d="M784,680c.79-.42.58,1.85,2.45,2.1,12.42,1.65,28.69-1.42,41.55-.1-.08.57-.63.71-1,1h-43c.07-.64-.11-1.38,0-2,.06-.32-.04-.67,0-1Z"/>
  <path class="st8" d="M768,698c.74-.02,1.9,1.75,3.52,1.98,9.1,1.25,21.07-1.32,30.01.02,3.45.52.39,6.83-.36,8.68-2.61,6.44-9.69,14.02-16.73,15.27-2.1.37-14.75.51-16.44.06-.26-.07-.68-1.42-1.31-1.66-2.21-.83-4.06-1.12-6.23-2.74-5.64-4.2-10.09-12.39-9.46-19.6.51-.52,12.19.42,14.54.09,1.84-.26,1.82-2.07,2.47-2.09Z"/>
  <path class="st8" d="M768,664c-.09-7.99-.87-13.6,0-22,1.68,6.46,1.68,15.54,0,22Z"/>
  <path class="st8" d="M768,678c-.12-3.96.05-8.48,0-12,1.68,3.07,1.69,8.85,0,12Z"/>
  <path class="st8" d="M768,740c-1.58-.66-1.58-4.34,0-5,.04,1.98.04,3.02,0,5Z"/>
  <path class="st8" d="M768,638c-.94.13-2.15-.19-3,0-.86-2.53,3.43-3.68,4.01-1.46.15.58-1,1.3-1.01,1.46Z"/>
  <path class="st8" d="M768,748c-.07,1.79.12,2.87-2.5,2.03-.77-.25-.38-1.95-.5-2.03h3Z"/>
  <path class="st9" d="M784,681l-.87-.49c.21-.3.84-.38.87-.51-.04.33.06.68,0,1Z"/>
  <path class="st6" d="M523.66,280.34c11.34,10.83-4.58,31.21-17.71,19.21-12.88-11.77,5.72-30.67,17.71-19.21Z"/>
  <path class="st7" d="M816,414c-2.72.48-1.77-2.53-4.47-3.02-4.58-.84-12.9.17-18.1.06-2.16-.05-2.3-1.03-2.43-1.04v-1h1c6.72-.83,15.32,2.03,21-2,.51,1.83,2.14,4.71,3,7Z"/>
  <path class="st9" d="M761,409h20c.15.58-.15,1.42,0,2h-25c.26-.61.98-1.89,1-2h4Z"/>
  <path class="st10" d="M595,540l-4.99-2c-1.13,7.72,1.86,54.91-1.01,58v-60c.33-.02.67,0,1,0l5,4Z"/>
  <path class="st12" d="M831,297c.21,1.23,2.43,5.75,3.15,7.39.39.91,1.75,1.39,1.85,1.61.3.66.43,1.75,1,3,2.58,5.66,9.44,18.02,10.55,22.99.4,1.8-.35,2.59-.55,4.01-3.83,5.55-6.46,11.78-9,18-1.45,3.54-3.18,5.94-4,10l-4.01,4.51c-3.48-5.74-6.01-11.98-9.18-17.88-.75-1.4-.39-3.16-2.82-2.63-.62-6.92-1.88-6.02-4-11-.26-.62-.96-1.84-1-2-.07-.3.04-.66,0-1-.12-1-.18-3.09,0-4l1-2c1.48-2.8,5.06-6.39,5-10,3.77-2.59,4.2-8.16,6-12,1.26-2.69,4.13-5.21,4.16-8.86l1.84-.14Z"/>
  <path class="st7" d="M818,348c2.43-.53,2.07,1.24,2.82,2.63,3.17,5.9,5.7,12.14,9.18,17.88l4.01-4.51c-1.63,8.07.92,9.75,3.87,16.63.55,1.28,2.17,3.44.13,4.37-2.42-4.98-5.22-9.93-7.5-15-2.02.96-8.54,20.79-12.5,23,.08-.65-.05-1.34,0-2,.16-2.31-.06-4.68,0-7,.07-2.66-.04-5.34,0-8,.02-1-.01-2,0-3,.04-3.32.05-6.68,0-10-.05-2.99.09-6.01,0-9-.05-1.66.1-3.35,0-5-.02-.33.03-.67,0-1ZM820,361v23c2.37.49,1.61-.32,2.24-1.29.76-1.17,5.75-11.53,5.72-12.2-.14-3.16-4.11-9.35-7.96-9.51Z"/>
  <path class="st9" d="M846,306h24c-.33.65-.68,1.35-1,2-8.82.09-17.68-.11-26.51-.02-1.69.02-4.45-.64-5.49,1.02-.57-1.25-.7-2.34-1-3h10Z"/>
  <path class="st7" d="M838,354c2.54-6.22,5.17-12.45,9-18-.75,5.39-3.15,9.92-5.7,14.8-.83,1.6-.59,3.39-3.3,3.2Z"/>
  <path class="st13" d="M705,216c-1.27-.94-1.67-3.44,0-4-.08,1.18-.15,2.89,0,4Z"/>
  <path class="st13" d="M772,326c-1.44,4.87-7.74,16.34-7.96,19.55-.37,5.39,5.95,21.18,6.96,28.45-2.92.6-1.8-1.45-2.28-3.17-2.24-7.97-4.13-17.51-6.98-25.07-.61-1.62-2.65-2.51-2.8-4.3-.55-6.4,5.56-4.82,6.91-5.61,1.2-.7,2.71-10.25,6.15-9.85Z"/>
  <path class="st7" d="M769,409h-8c-.07-2.89-6.06-9.42-.52-10.09,7.07-.85,5.68,5.32,8.52,10.09Z"/>
  <path class="st13" d="M781,409h-2c-.49-2.16-1.52-7.41-2.55-8.95-.75-1.12-2.95-1.36-3.35-2.7-.37-1.23,1-3.97,1.01-5.87,0-3.13-1.01-5.46-1.1-9.49,3.76,8.62,5.71,17.93,8,27Z"/>
  <path class="st13" d="M761.77,395.74c-.87.47-2.28.4-3.26.26-2.62-.38,7.2-14.98,9.49-6.52-1.54.74-5.65,5.95-6.23,6.26Z"/>
  <path class="st13" d="M772,325c.86-2.96.84-7.57,2.48-11.02,1.38-2.9,4.21-2.52,3.52-5.98h1c-2.15,5.3-3.26,12.22-7,17Z"/>
  <path class="st13" d="M773,380c-3.24.74-1.73-2.35-2-5,1.77,1.13,1.97,3.04,2,5Z"/>
  <path class="st13" d="M843,248c3.56-.75,3.25,6.69,4.61,7.06,2.45.67,9.65.05,12.39-1.06-.84,2.02-2.6,3.82-1.84,6.25,3.16,4.85,4.55,10.74,6.84,15.75-3.01-2.18-3.56-.98-2.94,2.44.7,3.88,7.06,8.17,4.52,11.64-.51.7-5.82,1.02-3.58,2.91.46.38,12.09,2.03,4.5,6.03-.63,0-.4-1.99-1.07-2.1-2.14-.35-13.31,4.87-12.42,9.07h-2c-1.31-6.8-6.81-8.82-6,0h-10c-.1-.22-1.46-.7-1.85-1.61-.71-1.64-2.94-6.16-3.15-7.39-.09-.52-.08-1.48,0-2,.22-1.36,1.88-3.96,3-5,0,.14,1.08.7,1.07,1.4,0,.29-3.56,1.22-2.08,4.6,1.83-.68,5.36,1.16,6.44.89,3.05-.77,3.66-14.34,2.57-17.34l-4.01.46c2.01-4.58,4.31-9.81,7-14-.18.66-1.88,7.03.49,5.99,4.49-4.02,4.02-13.93,11.52-13,3.23-2.45-8.02-2.71-9.01-.99-1.19-2.96-3.45-6.7-5-10Z"/>
  <path class="st0" d="M818,363c.05,3.32.04,6.68,0,10-2.98-.88-3.18,3.78,0,3-.04,2.66.07,5.34,0,8-3.7-.45-4.48,7.36,0,7-.05.66.08,1.35,0,2-.04.33.06.68,0,1-4.87-.09-.54,7.58-6,6-.66,1.5.95,2.65,1,3,.16,1.23-.28,2.99,0,4-5.68,4.03-14.28,1.17-21,2-.26-2.24.94-5.12,2-7,.04-.08,1.42.19,1.69-.28,2.67-4.76,1.77-8.01,2.31-12.72.04-.33-.04-.67,0-1,9.89.51,6.03-8.79,5-15-.28-1.66-1.08-3.25-1-5,4.14-2.46,7.47,3.13,9.91-.6,2.06-3.15-.8-5.43,6.09-4.4ZM812.99,390.01c-.17-3.32,4.7-11.09-2.43-8.94-2.47.74-.31,5.63.43,7.45.47,1.15-.78,1.9,1.99,1.5ZM809.99,402.01c-1.04-1.02-4.01,1.99-2.99,2.99s4.01-1.99,2.99-2.99Z"/>
  <path class="st7" d="M818,394c-.53,2.92-2.56,7.34-5,9-.05-.35-1.66-1.49-1-3,5.46,1.58,1.13-6.09,6-6Z"/>
  <path class="st13" d="M181.01,438c1.25,5.51-7.98,3.76-11.56,2.05-5.49-2.63-3.39-7.15-.42-5.58,1.11.59,1.92,2.8,3.68,3.32,2.5.74,5.68-.06,8.3.21Z"/>
  <path class="st13" d="M203.99,425.01c1.09,3.39-5.16,2.85-5.99,1.98-2.44-2.55,5.16-2.14,5.99-1.98Z"/>
  <path class="st7" d="M109.99,147c.38.25,1.26,5.35,1.02,6.48-5.71,2.89-6.08-9.84-1.02-6.48Z"/>
  <path class="st11" d="M788.93,310.02l15.01,36.36-16.17,58.9c-4.16,8.15-6.54-8.79-7.1-10.46-5.34-15.79-10.52-31.78-13.75-48.31l12.99-33.85,9.02-2.64Z"/>
  <path class="st13" d="M793,308c1.46,9.99,6.71,4.96,12.28,6.17.6.13,5.44,2.71,5.6,2.99.99,1.68-3.05,16.76-3.87,19.84,1.88.05,3.58-.85,4.99-2h1c.04.16.74,1.38,1,2-3.49,2.8-1.59,12.86,4,12,.1,1.65-.05,3.34,0,5-5.52-1.62-5.67,2.76-7.7,4.07-1.07.69-2.93.44-4.01,1.23-1.98,1.45-2,6.92-5.29,6.7,1.63-6.15,5.58-15.29,4.94-21.39-.68-6.47-11.77-28.6-14.94-36.61h2Z"/>
  <path class="st3" d="M818,354c.09,2.99-.05,6.01,0,9-6.88-1.04-4.03,1.25-6.09,4.4-2.44,3.73-5.77-1.85-9.91.6h-1c.1-.63-.15-1.45,0-2,3.29.22,3.31-5.25,5.29-6.7,1.08-.79,2.94-.54,4.01-1.23,2.03-1.31,2.18-5.69,7.7-4.07Z"/>
  <path class="st13" d="M802,368c-.08,1.75.72,3.34,1,5-4.76,4.15-4.39,9.44-5,15-.04.33.04.67,0,1-3.63-.66-1.49,4.17-2.02,6.32-.09.37-3.76,2.7-1.98,6.68-1.06,1.88-2.26,4.76-2,7h-1c-1.54.11-2.23.34-1.89-1.31,2.58-12.71,8.25-27.08,11.89-39.69h1Z"/>
  <path class="st0" d="M821,277c2.33,5.16,4.52,10.35,7.18,15.37.75,1.4.4,3.16,2.82,2.63-.08.52-.09,1.48,0,2l-1.84.14c-.03,3.66-2.9,6.18-4.16,8.86-1.2-.27-4.82.68-5.02-.58-.9-5.77-.07-16.54,0-22.94.02-1.69-.64-4.45,1.02-5.49Z"/>
  <path class="st0" d="M838,280l4.01-.46c1.08,3,.47,16.57-2.57,17.34-1.08.27-4.61-1.56-6.44-.89-1.48-3.38,2.07-4.31,2.08-4.6.01-.7-1.08-1.26-1.07-1.4.21-3.94,2.47-6.52,4-10Z"/>
  <path class="st0" d="M848,258c.99-1.72,12.24-1.45,9.01.99-7.5-.93-7.03,8.98-11.52,13-2.37,1.04-.66-5.34-.49-5.99.65-2.4.88-2.24,2-4,3.87.3,1.22-1.11,1-2-.15-.6.18-1.54,0-2Z"/>
  <path class="st13" d="M848,260c.22.89,2.87,2.3-1,2,.3-.46.18-1.57,1-2Z"/>
  <path class="st13" d="M810,306c-3.32.08-6.68,0-10,0,.83-1.33,1.3-7.37,3.5-7.02,2.34.38,7.29,3.93,6.5,7.02Z"/>
  <path class="st3" d="M793,308c8.32,0,16.68,0,25.01,0,.1,2.51-.17,5.06-.04,7.58.07,1.28,1.03,2.29,1.04,2.42.06,3.61-3.52,7.2-5,10-.36.67-.74.67-1,2-.18.91-.12,3,0,4-.37.29-.64.71-1,1-1.42,1.15-3.11,2.04-4.99,2,.82-3.08,4.86-18.16,3.87-19.84-.16-.27-5-2.86-5.6-2.99-5.57-1.22-10.82,3.81-12.28-6.17Z"/>
  <path class="st10" d="M589,598c1.63.19.93,2.21,1.01,3.49,1.06,16.91-1.33,35.28-.01,52.06.24,3.07-.49,2.57,3,2.45-1.18.61-1.96,2.56-3.99,2v-60Z"/>
  <path class="st10" d="M565,580c-.98.07-1.37-.42-2-1,.96-.08,1.39.61,2,1Z"/>
  <path class="st7" d="M204,148c-.05.66.05,1.34-.01,2-.93.23-.92-.97-.99-1l1-1Z"/>
  <path class="st7" d="M199,147c-.35-.31-.68-.65-1-1,.45.11.82.57,1,1Z"/>
  <path class="st0" d="M818,348c.03.33-.02.67,0,1-5.59.86-7.49-9.2-4-12,2.12,4.98,3.38,4.08,4,11Z"/>
  <path class="st0" d="M813,330c.26-1.33.64-1.33,1-2l-1,2Z"/>
  <path class="st0" d="M813,335h-1c.36-.29.63-.71,1-1,.04.34-.07.7,0,1Z"/>
  <path class="st13" d="M820,361c3.85.16,7.82,6.34,7.96,9.51.03.67-4.96,11.03-5.72,12.2-.63.97.13,1.79-2.24,1.29v-23Z"/>
  <path class="st3" d="M818,384c-.06,2.32.16,4.69,0,7-4.48.36-3.7-7.45,0-7Z"/>
  <path class="st13" d="M818,373c-.01,1,.02,2,0,3-3.18.78-2.98-3.88,0-3Z"/>
  <path class="st0" d="M852,306h-6c-.81-8.82,4.69-6.8,6,0Z"/>
  <path class="st3" d="M803,373c1.03,6.21,4.89,15.51-5,15,.61-5.56.24-10.85,5-15Z"/>
  <path class="st13" d="M812.99,390.01c-2.78.4-1.53-.35-1.99-1.5-.74-1.81-2.9-6.7-.43-7.45,7.12-2.14,2.26,5.63,2.43,8.94Z"/>
  <path class="st3" d="M798,389c-.54,4.71.35,7.97-2.31,12.72-.26.47-1.64.2-1.69.28-1.78-3.99,1.89-6.31,1.98-6.68.53-2.14-1.6-6.98,2.02-6.32Z"/>
  <path class="st13" d="M809.99,402.01c1.02,1-1.95,4.01-2.99,2.99s1.95-4.01,2.99-2.99Z"/>
</svg>