<?xml version="1.0" encoding="UTF-8"?>
<svg id="Layer_1" xmlns="http://www.w3.org/2000/svg" version="1.1" viewBox="0 0 1024 1024">
  <!-- Generator: Adobe Illustrator 29.8.4, SVG Export Plug-In . SVG Version: 2.1.1 Build 6)  -->
  <defs>
    <style>
      .st0 {
        fill: #5e80ad;
      }

      .st1 {
        fill: #d0ddf1;
      }

      .st2 {
        fill: #5f80ad;
      }

      .st3 {
        fill: #7695bf;
      }

      .st4 {
        fill: #59d3d9;
      }

      .st5 {
        fill: #fb7e79;
      }

      .st6 {
        fill: #b6cae6;
      }

      .st7 {
        fill: #fd8e89;
      }

      .st8 {
        fill: #fcb986;
      }

      .st9 {
        fill: #fccbc7;
      }

      .st10 {
        fill: #e96363;
      }

      .st11 {
        fill: #18b0bd;
      }

      .st12 {
        fill: #8dbb30;
      }

      .st13 {
        fill: #ed9662;
      }

      .st14 {
        fill: #c8d8ef;
      }

      .st15 {
        fill: #b4d85d;
      }
    </style>
  </defs>
  <path class="st14" d="M1024,816v208H0v-160l31-7c2.61-.59,5.23-1.61,7-2,30.32-6.6,61.41-10.77,92-16-10.33,9.67-19.59,20.37-30.6,29.36-5.63,5.39,10.8,7.85,14.11,7.73,7.22-.24,14.64-4.31,20.93-7.15,1.89-.86,2.84-2.23,2.56,1.06-1.04,1.86-2.77,2.93-2,6,18.36.97,36.35-11.28,47.01-25.49,3.14-4.19,9.1-13.83,11-18.5l69.46-5.04c25.87.08,51.66-1.51,77.54-.96.18,0,1.1.98,2,1,58.65,1.53,111.1,7.23,169,15,.65.09,1.35-.09,2,0,33.21,4.45,66.31,11.56,100,13,6.54,2.97,1.94,2.17.37,3.34-2.14,1.59-6.22,6.3-8.34,8.36-2.62,2.55-19.8,19.19-20.34,20.53-3,7.49,3.68,5.95,7.62,6.78.79.17.25,1.82,2.11,2.06,8.41,1.1,16.49-1.14,22.89-3.74,1.08-.44,2.23-.15,2.85-.43,1.34-.59,1.8-3.31,5.83-1.9-2.92,7.31,3.88,6.8,9.57,6.07.57-.07,8.84-3.37,9.76-3.74,14.58-5.95,24.08-13.97,32.68-27.59,1.67-2.65,1.76-.71,3-5.75,7.69.26,15.29.83,23,1,1.33.03,2.67,0,4,0,20.45.11,41.61-.88,62-2,27.35-1.5,54.81-3.74,82-7,1.85-.22,3.29-.91,4-1,56.84-7.09,113.15-17.61,168-34Z"/>
  <rect class="st0" x="342" width="169" height="168"/>
  <path class="st0" d="M855,0h169v168h-146c-1.15-19.47-9.86-39.64-23-54V0Z"/>
  <path class="st0" d="M1024,171v168h-168.01s-.99-105-.99-105c15.67-16.46,23.47-40.57,23-63h146Z"/>
  <path class="st0" d="M682,0v116c-17.39,12.18-32.6,32.79-39,53l-130.01-.99V0h169.01Z"/>
  <path class="st0" d="M893,513h131v169c-19.84-.05-39.69.05-59.54.04-19.9,0-43.77,1.8-63.46-.04-4.69-.44-2.48-1.44-5.44-4.05-9.43-8.32-13.02-7.26-22.56-11.95-.3-.15-1.64-1.84-4-3-.97-.48-4.19-3.6-5-4,.75-4.2-4.73-4.71-8-5l-1-128c14.77-.51,25.63-5.83,38-13ZM919.72,588.2c-5.16,1.52-5.17,11.07-.01,12.59,12.87,3.79,11.97-16.1.01-12.59ZM918,615.99c-.71-9.49-9.46-17.82-18.99-17.99.81,9.96,8.98,17.82,18.99,17.99ZM945,598.01c-9.73.03-18.6,8.33-18.99,17.99,9.95-.97,18.21-7.62,18.99-17.99Z"/>
  <path class="st0" d="M0,513h168.01s0,77,0,77c-.15-.13-3.26-2.09-3.49-1.99-21.06,22.78-30.1,55.56-25.24,86.22,2.95,18.58,9.15,26.61,16.95,42.06.73,1.45.45,3.87.99,4.5.38.44,2.26.24,3.22,1.23,2.56,2.64,5.2,7.58,7.56,9.98v3l-11-10.45c-6.62-13.69-15.85-24.33-17-39.55-.07-.92.54-2.86-.59-3.02l-139.41.02v-169Z"/>
  <path class="st2" d="M140,685c1.15,15.22,10.38,25.86,17,39.55l11,10.45v69c-12.58,11.63-25.59,23.39-38,35-30.59,5.23-61.68,9.4-92,16l-38-1v-169h140ZM92.64,734.07l-15.62,15.43,15.48,15.48,15.43-15.62c.23-1.28-14.01-15.52-15.29-15.29Z"/>
  <path class="st0" d="M168,0c-.58,39.52,1.08,79.31-.68,118.73-.03.77.69,1.2.68,1.27-.05.66.07,1.35,0,2-3.98-.66-1.93,3.64-2,4-.31,1.55-1.72,9.58-2.06,9.95-.32.35-2.17-.06-2.94.05-10.32-10.19-25.28-27.32-35.98-35.52-.75-.58-1.23-1.78-2.48-1.48-13.73,17.33-18.19,35.98-22.53,57-.29,1.4-2.66,4.25,0,6v2l-1.99,4.01H0V0h168Z"/>
  <path class="st0" d="M135,341l-68.99,72.53c-1.08,4.79,19.36,4.89,22.52,4.5,4.55-.55,11.42-3.76,15.47-6.03,6.83-1.78,2.85,4.84,3.99,6.01.23.23,5.57.21,6.58.07,1.86-.25,1.29-1.88,2.11-2.06,22.23-4.87,29.84-13.77,42.32-32.02.06-.09,1.72.25,2.05-.66l6.94-13.34c-.71,10.16.97,21.54.07,31.55-.19,2.11-2.06,3.78-1.91,4.77.18,1.15,2.36,2.45,2.58,4.29.17,1.4-.8,3.81-.78,5.84.32,31.51-.13,63.05.06,94.55H0v-170.01h135Z"/>
  <path class="st0" d="M339,0l.06,164.55-2.06,4.45c-1.29-.52-3.92-.2-5.27-1.03-1.09-.66-.62-1.97-.73-1.97h-22c-.32,0,1.7,1.59-5,2-4.9.3-8.95-.06-13.46-.04-12.23.05-29.57,1.48-41.1.12-2.02-.24-1.15-2.6-3.44-2.08-4.89-11.84-10.17-23.49-15.19-35.31-8.02-18.85-15.62-37.9-23.85-56.66-2.19-1.55-14.93,10.24-17.02,12.41-6.31,6.55-12.73,15.48-16.93,23.55-3.03.56-1.92-1.53-2-3.45-1.39-35.19,1.04-71.27,0-106.55h168Z"/>
  <path class="st0" d="M1024,341v170h-129c7.39-8.62,15.07-18.14,19-29,4.97,1.74,10.5,1.38,14.95-1.55,1.84-1.21,4.09-4.88,5.76-5.32,2.47-.65,3.93,2.15,6.29,1.86,1.1-10.37-1.53-20.01-10.06-26.43-2.02-1.52-4.89-2.17-6.94-3.56-.41-.27-.92-1.72-2.03-2.42-21.01-13.18-27.24-3.53-43.97,9.42-2.9.6-1.82-1.43-2.28-3.17-5.78-22.09-13.72-44.06-18.97-66.13-.34-1.45-1.72-2.54-1.75-2.7-.15-.86,1.06-3.65,1.04-5.45-.13-11.85,0-23.72-.05-35.55h168.01ZM899.64,355.07l-12.56,13.29c2.07,1.91,11.55,12.87,13.29,12.56l12.56-13.29c-2.07-1.91-11.55-12.87-13.29-12.56Z"/>
  <path class="st2" d="M1024,685v131c-54.85,16.39-111.16,26.91-168,34l-.04-96.54c.21-4.41,2.16-8.21,3.04-12.46.07-.32-.07-.68,0-1,2.37-.85,1.68-5.61,2.04-5.96s8.71.07,10.54,0,3.79.83,3.42-2.03c9.15-1.09,16.26-9.39,21.52-15.98.99-1.24-.02-2.8,3.48-2.02.56.45,8.35,2.62,9,2,1.05-11.65-1.7-20.11-7-30l122-1Z"/>
  <path class="st0" d="M0,171h98.01c-1.19,4.18,1.34,7.78,1.99,11,4.65,23.01,7.66,37.35,21.19,57.31,4.65,6.86,11.7,12.5,15.81,18.69,1.98,2.97-1.52,3,4,4,.69,1,5.32,7.32,6.28,7.7,1.55.61,2.86.05,3.72.3,3.47,5.03,2.11,2.13,5.63,4.37s6.19,5.77,10.49,6.21c2.03,2.62.33,18.69.88,23.43-1.96.29-2.43,3.21-3.27,3.73-1.02.63-2.81.12-4.29,1.19-4.67,3.33-13.12,17.53-18.4,21.62-3.58,2.77-10.58,3.7-12.04,8.46-4.64.17-9.35-.05-14,0,.55-3.13-2.61-2.97-2,0-37.98.34-76.02-.26-114,0v-168Z"/>
  <path class="st0" d="M853,0l-1,111c-25.58-24.95-64.78-31.77-97.36-16.86-2.56,1.17-6.05,2.44-7.64,4.86-.98-.1-2.01.05-3,0-18.3-1-43.32,5.44-59,15V0h168Z"/>
  <path class="st3" d="M342,0v168h169V0h2v168.01s130,.99,130,.99c-.27.84-.88,1.58-1,2h-129v168h29c-1.05-2.42-4.37-3.34-4.05-6.39.1-.99,12.86-11.86,14.7-13.44,1.07-.04,13.16,11.37,13.85,12.85,1.67,3.57-.9,4.4-2.51,6.98h118l1-54c.2.13,1.68.22,3,1l-1,53h168v-103c.64-.62,1.39-1.36,2-2l.99,105.01h168.01s0,1.99,0,1.99h-168.01c.06,11.83-.08,23.7.05,35.55.02,1.8-1.2,4.59-1.04,5.45-.67.01-1.33-.02-2,0v-41h-168l-1,77c-.84-.65-1.72-1.81-2-2v-75h-120.5c-2.26,0-5.72,7.43-9.01,7.64-2.57.16-6.51-7.64-8.99-7.64h-30.5v66c-.68-.66-1.33-1.35-2-2v-64.01s-66,1.01-66,1.01l-1-3h67v-168h-170c-1.33-.61-2.64-1.46-4-2l2.06-4.45-.06-164.55h3Z"/>
  <path class="st3" d="M342,248v91.01s82,0,82,0c-.01.85-.63,1.36-1,2h-81v170h87c.73.68,1.46,1.52,2,2h-89v147h-3v-147c-2.01.34-12.55-.46-13.01,0-.4.39.3,8.32,0,10-3.11.48-14.65-6.82-15.51-6.81-.35,0-3.88,3.16-5.8,4.01-2.73,1.21-7.27,2.9-10.2,2.86-2.23-.03-1.1-.21-1.53-1.52-.69-2.11-.53-8.53-.96-8.53h-121l-1,79c-.17-.18-1.87-1.89-2-2v-77.01s-168,0-168,0v-2h168.01c-.19-31.5.26-63.03-.06-94.55-.02-2.03.95-4.44.78-5.84-.22-1.84-2.4-3.14-2.58-4.29-.15-.99,1.72-2.66,1.91-4.77.9-10-.78-21.39-.07-31.55l-6.94,13.34c-.33.91-1.99.57-2.05.66,4.61-10.66,10.05-20.66,13-32-.26,2.7-.9,6.41-1.03,9.46-.54,12.12.46,24.41.04,36.54,1.45.28,1.84,0,2.93-.7,3.05-1.96,6.21-6.52,8.61-9.35,3.69.22,14.65,14.37,18.52,16.65.21,2.78-14.54,18.41-16.75,19.26-1.65.64-1.55-.04-2.32-.54-2.65-1.71-7.66-8.9-10.5-11.32-3.28-.16-.49,2.03-.49,2.49v96.5h121c.72,0-.34-9.64,8.51-10.06,5.46-.26,7.51,3.66,9.13,3.96,1.24.23,4.59-4.06,10.64-2.69,6.91,1.56,5.28,8.32,5.71,8.79s10.98-.35,13,0v-170c-20.11.68-40.44-.9-60.54-.04-4.52.19-11.08.56-15.46,1.04.78-2.69,3.18-1.68,5-2,21.74-3.87,48.62.81,71.01-.99l.99-91.01c.5-.2,1.75.22,2,0Z"/>
  <path class="st3" d="M1024,168v3h-146c-.02-1,.06-2.01,0-3h146Z"/>
  <path class="st3" d="M0,682l139.41-.02c1.13.16.52,2.1.59,3.02H0v-3Z"/>
  <path class="st3" d="M1024,682v3l-122,1c-.75-1.39-1.51-2.07-1-4,19.69,1.85,43.56.04,63.46.04,19.85,0,39.71-.1,59.54-.04Z"/>
  <path class="st3" d="M171,0c1.04,35.27-1.39,71.35,0,106.55.08,1.93-1.03,4.01,2,3.45-1.56,3-2.2,7.47-5,10,0-.07-.71-.5-.68-1.27,1.76-39.42.1-79.21.68-118.73h3Z"/>
  <path class="st3" d="M685,0v114c-.64.39-2.32,1.52-3,2V0h3Z"/>
  <path class="st3" d="M100,164v18c-.65-3.22-3.18-6.82-1.99-11.01H0s0-2.99,0-2.99h98.01s1.99-4,1.99-4Z"/>
  <path class="st3" d="M114,339c.67,0,1.33,0,2,0,4.65-.05,9.36.17,14,0,1.88-.07,4.31.29,6,0l-1,2H0v-2c37.98-.26,76.02.34,114,0Z"/>
  <path class="st3" d="M1024,511v2h-131c.63-.7,1.39-1.29,2-2h129Z"/>
  <path class="st3" d="M855,0v114c-.73-.8-2.14-2.16-3-3l1-111h2Z"/>
  <polygon class="st2" points="31 857 0 864 0 857 31 857"/>
  <path class="st3" d="M38,855c-1.77.39-4.39,1.41-7,2H0v-3l38,1Z"/>
  <path class="st15" d="M168,732c-2.36-2.39-4.99-7.34-7.56-9.98-.96-.99-2.84-.79-3.22-1.23-.54-.63-.26-3.05-.99-4.5-7.8-15.45-14-23.48-16.95-42.06-4.87-30.66,4.17-63.44,25.24-86.22.23-.1,3.34,1.86,3.49,1.99.13.11,1.83,1.82,2,2,9.59,10.12,19.26,21.55,29,32,36.58,39.24,72.84,78.82,109.5,118,.92-2.42-.92-5.9-1.76-8.24-4.82-13.39-13.75-22.69-23.67-32.39-.15-.87,6.75-8.24,7.93-9.36,3.88-3.69,9.95-7.66,14.04-11.46,11.36-10.55,9.99-15.25,27.96-18.54l3-1c1.51-.13,3.47-.1,5,0l4,1c11.73,2.15,12.11,5.14,21,10-5.14,19.16-6.79,39.96-12,59-18.74,68.46-87.32,105.53-154,75-.93-.43-7.31-6.23-8.99-5-9.48,22.38-24.68,40.85-42,57.51-4.64,4.47-8.33,4.92-12.01,11.49.28-3.29-.66-1.92-2.56-1.06-6.29,2.84-13.71,6.91-20.93,7.15-3.31.11-19.74-2.34-14.11-7.73,11.01-8.99,20.26-19.69,30.6-29.36,12.41-11.61,25.42-23.37,38-35,1.14-1.05,2.07-2.14,3-3,12.18-11.28,26.02-22.12,38-34,1.72,2.64,5.9,3.72,8.75,4.75,25.72,9.26,56.09,5.6,77.26-12.23,1.54-1.3,11.62-11.2,11.98-12.03.51-1.18-.3-1.99-1.48-1.48-1.64.72-6.17,4.77-8.84,6.16-25.64,13.41-54.86,16.58-82.67,7.83-14.1-4.44-33.44-16.02-44-26-.37-.35-1.61-1.61-2-2ZM348.75,693.74c5.43-5.14-1.04-15.17-8.31-10.79-7.77,4.68,1.89,16.87,8.31,10.79Z"/>
  <path class="st2" d="M685,610c.89.95,4.77,8.19,6.99,6.01.14-.14-.02-2.73.48-4,7.94-20.17,19.3-39.12,36.98-51.58,1.18-.83,6.99-4.67,7.96-4.43l49.74,125.85c2.63.16,6.12.67,8.59-.14.57-.19,8.16-7.22,8.85-8.06,3.79-4.55,13.79-18.32,20.12-19.6,1.83-.37,3.84.32,5.61-.05.79-.17.25-1.82,2.11-2.06,2.16-.28,19.71-.48,20.57.08.6.39-1.71,1.57,3,2,3.27.29,8.75.8,8,5-16.23-8.05-35.12-6.65-49.21,5.06-3.79,3.15-5.86,8.04-9.23,11.52-5.39,5.58-12.02,10.24-17.56,15.41l-50.13-130.87c-4.9-1.74-4.82,1.76-7.33,3.44-14.08,9.44-26.06,25.05-32.41,41.05-2.08,5.25-2.87,11.14-5.13,16.37-1.35-1.39-4.79-3.17-7.04-5.49-10.3-10.58-20.42-21.62-30.39-32.55-4.16-3.12-10.54,8.63-12.74,12.37-38.04,64.51-4.21,149.35,66.17,171.67-.74,2.68-3.92,5.93-6,8-5.49,5.46-12.44,10.37-18,16-.69-10.01.87-20.48,0-30.51-.16-1.86-.38-5.27-3-4.49v35.5c0,2.07-6.86,5.19-6,8.5l-1.71.3-53.99,53.7-7.3,1c-33.69-1.44-66.79-8.55-100-13v-157.01s112.55.05,112.55.05c4.68-.32,2.58-1.45,2.45-3.05-.46-5.87-2.61-11.55-3.04-17.46-2.11-28.91,6.09-53.14,20.06-77.8,4.08-3.16,3.59-8.26,10.25-6.69.76.18,9.27,9.74,10.78,11.22,4.42,4.35,12.07,10.46,15.94,14.73.72.79,1.16,2.02,3,4ZM565.66,712.15c-3.7,1.25-3.98,10.06-3.57,13.27.27,2.11,3.72,13.21,6.4,12.58,4.73-1.12,10.92-30.5-2.83-25.84ZM566.99,750c.17-11.13-13.11-22.51-23.71-17.2-2.75,1.38-4.1,3.3-3.13,6.51s10.7,4.38,14.36,5.68c4.22,1.51,7.92,4.39,12.48,5.01ZM569.01,751c5.46-2.02,10.64-5.34,16.02-7.47,3.19-1.26,10.29-1.07,11.01-5.05.94-5.23-2.89-7.27-7.57-7.52-10.44-.55-19.33,10.18-19.46,20.04Z"/>
  <path class="st2" d="M391,685c-.44,4.03,3.11,5.81,4.5,9,1.67,3.82,4.73,14.53,4.59,18.51-.18,5.2-1.81,8.86-7.42,7.47-.8-.2-.78-1.94-1.16-2.01-3.66-.61-3.07,2.91-4.95,5.08-1.35,1.56-5.13,3.57-5.55,4.45-.81,1.68,3.61,2.39,5.03,3.96,1.12,1.24,1.79,4.17,2.12,4.37.92.59,14.24.36,15.83-.36,1.73-.78,3.7-4.38,5.48-5.52,1.63-1.04,4.82-.92,5.53-2.47,1.81-3.91-3.62-1.16-2.98-3.97.6-2.64,5.39-5.78,7.81-4.34.34.2,3.43,6.78,6.03,2.67,3.17-5.01-4.34-7.83-4.64-9.45-.37-1.97,1.96-4.98.29-8.4-1.93-3.93-7.17-.36-10.49-1.01-.39-.38.5-5.46,1.14-5.86.44-.27,9.69-.94,10.2-.84,1.17.22,2.2,2.17,4.03,1.66,2.15-.6,6.65-9.85,7.25-10.02,1.31-.37,8.99-.13,10.84.1,1.54.2,2.77,1.97,4.06,1.97,1.58,0,2.35-2.02,3.98-2.05.62-.01.47,2.01,1.03,2.09,1.73.25,3.58-1.78,5.92-2.11,1.63-.23,14.06-.48,14.56.04.17.18-.39,7.07,1.99,4.01.25-.32-.57-2.24.6-3.09,4.78-3.45,11.36,1.44,12.4-3.91,7.32.03,14.68-.02,22.01,0v157.01c-57.91-7.77-110.36-13.47-169.01-15v-60.99c-2.62-.23-1.66-.13-1.97,1.5-2.57,13.84-1.59,38.32-1.07,53.04.07,1.9-.1,3.79,1.04,5.45-25.88-.55-51.67,1.04-77.54.96l-69.46,5.04c3.16-7.81,4.14-18,7-26,66.68,30.53,135.26-6.54,154-75,9.36,3.18,20.91-1.08,27.54-7.96,1.92-1.99,4.63-8.03,5.1-8.12,2.8-.57,9.75,3.73,10.35,3.08.58-8.7-.05-15.78-3.82-23.67-.87-1.82-5.08-9.06-6.17-10.33,1.44-.39,3.04.89,4,1ZM469,697.99c2.81-2.78-5.47-5.56-7-3.99-2.85,2.93,5.87,5.11,7,3.99Z"/>
  <path class="st2" d="M852,851c-27.19,3.26-54.65,5.5-82,7-1.04-1.66-3.79-1-5.49-1.02-16.03-.17-35.4-1.22-51.06-.03-1.88.14-6.04-.01-5.46,3.04-1.33,0-2.67.03-4,0,.13-3.52.61-2.75-2.45-3-4.52-.38-8.04,1.14-12.04,1.09-3.56-.05-4.52-1.58-6.51-2.08,4.73-12.87,9.27-25.5,12-39,63.16,26.34,128.86,2.61,157-60v94Z"/>
  <path class="st12" d="M200,806c-2.86,8-3.84,18.19-7,26-1.89,4.67-7.85,14.31-11,18.5-10.66,14.21-28.65,26.47-47.01,25.49-.77-3.07.96-4.14,2-6,3.68-6.57,7.37-7.02,12.01-11.49,17.32-16.66,32.53-35.13,42-57.51,1.68-1.23,8.06,4.57,8.99,5Z"/>
  <path class="st3" d="M513,576v106.01s115,0,115,0c.12,1.6,2.22,2.73-2.45,3.05l-112.55-.05v157.01c-.64-.09-1.35.09-1.99,0v-157.01c-7.32-.01-14.68.04-22,0-29.62-.13-69.84,3.2-98,0-.96-.11-2.56-1.39-4-1-.36-.42-1.53-1.56-2-2h126.01s0-106,0-106c.63.1,1.36-.09,2,0Z"/>
  <path class="st9" d="M676,800h1c-22.46,23.42-46.37,46.06-69.94,68.73-6.66,6.4-12.57,13.71-19.87,19.48-.21,5.96,4.48,3.24,8.38,3.71,1.83.22,1.3,1.87,2.11,2.06,2.75.64,15.16-2.04,17.04-3.94,5.5.71,9.5-6.05,15.28-6.03-.29.68-2.36,9.63-2,10,16.73-.26,34.57-11.56,44.63-24.34,2.05-2.6,7.54-12.97,9.37-13.65,0,1.1-.78,2.09-1,3-1.24,5.03-1.33,3.1-3,5.75-8.6,13.61-18.1,21.64-32.68,27.59-.92.37-9.19,3.67-9.76,3.74-5.69.73-12.49,1.24-9.57-6.07-4.03-1.4-4.49,1.31-5.83,1.9-.62.27-1.76-.01-2.85.43-6.4,2.61-14.48,4.84-22.89,3.74-1.86-.24-1.32-1.9-2.11-2.06-3.94-.83-10.62.7-7.62-6.78.54-1.34,17.72-17.97,20.34-20.53,2.12-2.07,6.2-6.77,8.34-8.36,1.57-1.17,6.17-.38-.37-3.34l7.3-1,53.99-53.7,1.71-.3Z"/>
  <path class="st3" d="M856,850c-.71.09-2.15.78-4,1v-94c2.33-5.18,3.67-11.46,7-16-.88,4.25-2.82,8.06-3.04,12.46l.04,96.54Z"/>
  <path class="st3" d="M340,826c-1.14-1.66-.97-3.55-1.04-5.45-.51-14.72-1.5-39.2,1.07-53.04.3-1.63-.65-1.73,1.96-1.5v60.99c-.89-.02-1.81-1-1.99-1Z"/>
  <path class="st0" d="M770,858c-20.39,1.12-41.55,2.11-62,2-.58-3.06,3.58-2.9,5.46-3.04,15.66-1.19,35.02-.14,51.06.03,1.69.02,4.45-.64,5.49,1.02Z"/>
  <path class="st0" d="M683,856c1.99.51,2.95,2.03,6.51,2.08,4,.06,7.52-1.46,12.04-1.09,3.06.25,2.58-.52,2.45,3-7.71-.17-15.31-.74-23-1,.22-.91,1-1.9,1-3,.19-.07.8-.05,1,0Z"/>
  <path class="st6" d="M852,111c.86.84,2.27,2.2,3,3,13.14,14.36,21.85,34.53,23,54,.06.99-.02,2,0,3,.47,22.43-7.33,46.54-23,63-.61.64-1.36,1.38-2,2-10.37,10.04-19.53,12.16-30,19,5.14-14.22,10.09-28.16,11.04-43.46,3.32-53.3-31.32-106.77-87.04-112.54,1.6-2.41,5.08-3.68,7.64-4.86,32.58-14.91,71.77-8.09,97.36,16.86Z"/>
  <path class="st1" d="M744,99l-14.51,12.04c-58.17,61.3-12.77,156.99,72.71,149.66,5.82-.5,11.08-3.52,16.8-1.69-1.43,1.65-2.83,5.23-4.47,7.03-33.34,36.61-85.39,45.52-128.53,19.97-1.32-.78-2.8-.87-3-1-36.84-23.69-52.83-72.53-41-114,.12-.42.73-1.16,1-2,6.4-20.21,21.61-40.82,39-53,.68-.48,2.36-1.61,3-2,15.68-9.56,40.7-16,59-15Z"/>
  <path class="st8" d="M709,767c-70.38-22.32-104.21-107.16-66.17-171.67,2.21-3.74,8.58-15.49,12.74-12.37,9.97,10.94,20.09,21.97,30.39,32.55,2.25,2.31,5.69,4.1,7.04,5.49,1.21,1.25,2.06,3.54,3.49,5.01,38.28,39.4,76.63,78.75,114.02,118.98,3.1,1.32,0-4.8-.35-5.66-3.4-8.37-10.73-19.51-16.65-26.35-2.11-2.43-13.06-11.74-13.42-12.58-.44-1.03-.35-1.67.55-2.48,2.58-2.32,4.87-4.59,7.37-6.92,5.54-5.17,12.17-9.84,17.56-15.41,3.37-3.49,5.43-8.37,9.23-11.52,14.1-11.71,32.99-13.11,49.21-5.06.81.4,4.03,3.52,5,4-4.58,1.58-9.7-1.27-14.36-.94-38.59,2.69-44.71,59.84-2.91,69.71,3.87.91,7.02-1.7,8.27,3.24-.34,1.66-.66,3.34-1,5-.07.32.07.68,0,1-3.33,4.54-4.67,10.82-7,16-28.14,62.61-93.84,86.34-157,60-1.91-.8-8.41-5-9.92-3.93-10.58,22.14-24.64,44.11-42.55,60.96-1.86,1.75-12.22,9.24-12.53,9.97-5.77-.02-9.78,6.74-15.28,6.03-1.88,1.9-14.29,4.58-17.04,3.94-.81-.19-.28-1.83-2.11-2.06-3.9-.48-8.6,2.25-8.38-3.71,7.29-5.76,13.2-13.07,19.87-19.48,23.57-22.66,47.48-45.31,69.94-68.73,2.74-2.85,5.23-6.19,8-9,5.56-5.63,12.51-10.54,18-16,11.25,8.08,29.84,10.58,43.55,10.05,19.34-.75,50.3-12.99,61.87-29.13.63-.88,2.52-3.02,1.09-3.91-29.12,20.58-66.53,25.77-100.51,14.99ZM812.5,746v1c.65-.33.65-.67,0-1ZM811.5,751v1c.65-.33.65-.67,0-1Z"/>
  <path class="st15" d="M827,410c.96,1.21,2.17,4.07,3.61,5.9,18.36,23.32,37.17,46.28,54.9,70.1-.18-10.47-7.34-18.79-13.56-26.52-.17-1.18,4.56-4.32,6.05-5.47,16.73-12.95,22.96-22.6,43.97-9.42,1.11.7,1.63,2.15,2.03,2.42-3.47,10.52-6.14,21.28-9.76,31.77-.39,1.14-.01,2.6-.24,3.23-3.93,10.86-11.61,20.38-19,29-.61.71-1.37,1.3-2,2-12.37,7.17-23.23,12.49-38,13-.66.02-1.34.01-2,0-10.33-.21-20.84-3.51-30-8-2.27-1.11-6.91-6.5-9.99-4.54-1.4.89-6.5,9.32-8.5,11.55-8.75,9.79-19.47,17.71-31.51,22.99-6.3-.34-12.99,1.57-17.98-3.5,9.95-8.6,21.28-15.39,31.89-23.09,3.47-2.51,6.65-5.94,10.09-8.41.98-.71,2.03-1.3,3-2,3.51-2.53,7.73-4.63,11.33-7.17,5.14-3.62,9.7-8.65,15.67-10.83-.25.63-1.28,1.67-1,1.98.5.56,12.25,5.06,14.01,5.51,11.07,2.81,22.01,2.42,32.37-2.61,1.56-.76,9.15-5.46,9.62-6.39.91-1.82-.82-1.5-2.11-1.11-18.3,5.67-33.48,8.19-51.89-.38-31.06-14.47-45.98-55.96-30.18-86.68,1.14-2.23,8.6-13.08,10.19-13.88,1.67-.84,1.96.06,3.04,1.01,4.57,7.09,10.77,13,15.95,19.55ZM907.25,457.74c5.41,5.31,10.73-6.92,3.24-6.84-3.76.04-5.62,4.51-3.24,6.84ZM883.5,489v1c.65-.33.65-.67,0-1Z"/>
  <path class="st9" d="M869,663c2.36,1.16,3.7,2.85,4,3l-6,38c-2.49,9.18-4.12,18.68-6,28-.17.85-.77,1.87-1,3-1.25-4.94-4.39-2.32-8.27-3.24-41.8-9.87-35.67-67.02,2.91-69.71,4.66-.32,9.77,2.52,14.36.94ZM854.72,687.72c6.08-6.11-2.66-17.52-10.24-10.74-7.59,6.79,3.19,17.82,10.24,10.74Z"/>
  <path class="st5" d="M873,666c9.54,4.69,13.12,3.63,22.56,11.95,2.97,2.61.75,3.61,5.44,4.05-.51,1.93.25,2.61,1,4,5.3,9.9,8.04,18.35,7,30-.65.62-8.44-1.55-9-2-.19-.16,1.34-1.76,1-1.99-8.86.57-17.31-3.71-25.74-5.77-2.81-.69-5.89.45-8.26-2.24l6-38Z"/>
  <path class="st3" d="M855,526l1,128c-4.71-.43-2.4-1.61-3-2v-126c.66.01,1.34.02,2,0Z"/>
  <path class="st3" d="M945,598.01c-.77,10.37-9.03,17.02-18.99,17.99.39-9.66,9.26-17.96,18.99-17.99Z"/>
  <path class="st3" d="M918,615.99c-10.01-.17-18.18-8.03-18.99-17.99,9.53.17,18.28,8.5,18.99,17.99Z"/>
  <path class="st3" d="M919.72,588.2c11.96-3.51,12.86,16.38-.01,12.59-5.16-1.52-5.15-11.07.01-12.59Z"/>
  <path class="st3" d="M168,732c.39.39,1.63,1.65,2,2l1,67c-.93.86-1.86,1.95-3,3v-72Z"/>
  <path class="st3" d="M92.64,734.07c1.28-.23,15.52,14.01,15.29,15.29l-15.43,15.62-15.48-15.48,15.62-15.43Z"/>
  <path class="st7" d="M161,136c31.26,30.88,62.41,61.93,93.47,93.03l33.53,31.97c1.03,3,2.27,2.88,1,6-29.06,23.12-66.24,30.82-102,20-4.83-1.46-10.35-3.92-15-6-7.15-3.19-13.87-8.9-21-11-.82-1.19-6.37-7.33-7.29-7.7-1.22-.49-1.88-.15-2.71-.3-.69-1-1.2-4.09-4-4-4.11-6.18-11.17-11.83-15.81-18.69-13.53-19.97-16.53-34.3-21.19-57.31v-26c4.34-21.02,8.81-39.67,22.53-57,1.25-.3,1.73.91,2.48,1.48,10.7,8.2,25.66,25.32,35.98,35.52Z"/>
  <path class="st10" d="M173,110c4.21-8.06,10.62-17,16.93-23.55,2.09-2.17,14.83-13.96,17.02-12.41,8.23,18.75,15.83,37.81,23.85,56.66,5.03,11.81,10.31,23.47,15.19,35.31.95,2.3,2.9,4.72,3,5,.34.96-.27,3.19.47,5,4.38,10.76,9.52,21.61,14.53,32-.69.72-1.25,2.72-2.48,4.01-1.97,2.08-4.24,3.35-5.88,4.9-2.25,2.12,2.77,3.31,4.84,5.11,11.51,10.02,22.52,24.44,27.52,38.97l-33.53-31.97c-31.06-31.1-62.21-62.14-93.47-93.03.77-.11,2.62.3,2.94-.05.34-.37,1.75-8.4,2.06-9.95,1.44-.93,1.84-2.41,2-4,.07-.65-.05-1.34,0-2,2.8-2.53,3.44-7,5-10Z"/>
  <path class="st3" d="M168,122c-.16,1.59-.56,3.07-2,4,.07-.36-1.98-4.66,2-4Z"/>
  <path class="st3" d="M100,162c-2.66-1.75-.29-4.6,0-6v6Z"/>
  <path class="st5" d="M301,172c1.12-.3,3.04.39,4.31.01,1.13-.33.58-2.01.69-2.01h21c-.63,5.4-9.93,3.83-11,10-7.16,4.38-15.06,15.02-16.01,23.49-2.72,24.42,13.95,42.12,38.01,42.51-.25.71.2,2.14,0,3-7.99,33.92-21.42,61.41-51.66,80.84-5.84,3.75-12.74,6.06-18.34,10.16-1.82.32-4.22-.69-5,2-17.57,1.94-28.88,7.37-48.54,6.04-10.2-.69-20.28-4.83-29.46-6.04-.5-.61-1.14-1.36-1.91-1.56-2.75-.7-6.75-1.58-9.09-2.44-1.78-.65-8.71-5.14-9.99-4-2.43,7.37-6.9,15.79-10.84,22.67-11.56,20.17-28.57,43.81-49.17,55.33-4.05,2.27-10.92,5.48-15.47,6.03-3.16.38-23.6.29-22.52-4.5l68.99-72.53,1-2c1.41-.25,1.93-.64,3.03-1.43,8.59-6.17,21.64-23.19,29.97-31.57.33-.33.67-.67,1-1,3.19-3.18,8.41-6.5,11-9,27.68,14.12,59.89,11.01,85.31-6.19,6.66-4.5,19.71-15.51,22.69-22.81,1.27-3.12.03-3-1-6-5.01-14.54-16.02-28.95-27.52-38.97-2.07-1.8-7.08-3-4.84-5.11,1.65-1.55,3.91-2.83,5.88-4.9,1.22-1.29,1.78-3.3,2.48-4.01,2.94-3.05,8.12-6.69,11.56-10.41,6.36-6.88,16.7-23.24,25.44-25.59Z"/>
  <path class="st10" d="M174,338c-.51,3.14-1.72,6.94-2,10-.12,1.31.13,2.69,0,4-2.95,11.34-8.39,21.34-13,32-12.48,18.25-20.08,27.15-42.32,32.02-.82.18-.25,1.81-2.11,2.06-1.01.13-6.35.16-6.58-.07-1.14-1.16,2.83-7.79-3.99-6.01,20.6-11.52,37.61-35.15,49.17-55.33,3.94-6.88,8.41-15.3,10.84-22.67,1.28-1.14,8.21,3.35,9.99,4Z"/>
  <path class="st7" d="M304,168c6.7-.41,4.68-2,5-2h22c.11,0-.36,1.31.73,1.97,1.36.83,3.98.51,5.27,1.03s2.67,1.39,4,2c3.15,1.44,6.12,3.01,8.69,5.29l.31,1.71c-11.64-3.18-23.04-4.71-34,2,1.07-6.17,10.37-4.6,11-10h-21c-.11,0,.44,1.68-.69,2.01-1.27.38-3.19-.32-4.31-.01v-2c2.06-.37,3.51,1.13,3-2Z"/>
  <path class="st3" d="M246,166c2.29-.52,1.42,1.84,3.44,2.08,11.53,1.36,28.87-.07,41.1-.12,4.51-.02,8.56.34,13.46.04.51,3.13-.94,1.63-3,2-16.34,2.93-35.27-.1-52,1-.1-.28-2.05-2.7-3-5Z"/>
  <path class="st12" d="M853,382c.67-.02,1.33.01,2,0,.03.16,1.41,1.25,1.75,2.7,5.25,22.07,13.19,44.04,18.97,66.13.46,1.74-.62,3.77,2.28,3.17-1.49,1.15-6.22,4.29-6.05,5.47,6.22,7.74,13.38,16.06,13.56,26.52-17.72-23.82-36.54-46.78-54.9-70.1-1.44-1.83-2.65-4.68-3.61-5.9,2.67.53,2.04-1.27,2.65-2.8,3.02-7.53,8.19-15.71,14.8-20.78,1.94-1.49,6.5-4.36,8.55-4.42Z"/>
  <path class="st8" d="M924,447c2.05,1.39,4.92,2.04,6.94,3.56,8.53,6.43,11.15,16.06,10.06,26.43-2.36.29-3.82-2.51-6.29-1.86-1.67.44-3.92,4.11-5.76,5.32-4.45,2.93-9.98,3.29-14.95,1.55.23-.62-.16-2.08.24-3.23,3.63-10.49,6.29-21.25,9.76-31.77Z"/>
  <path class="st3" d="M899.64,355.07c1.74-.31,11.22,10.66,13.29,12.56l-12.56,13.29c-1.74.31-11.22-10.66-13.29-12.56l12.56-13.29Z"/>
  <path class="st13" d="M867,704c2.38,2.69,5.45,1.55,8.26,2.24,8.42,2.06,16.87,6.34,25.74,5.77.34.23-1.19,1.83-1,1.99-3.5-.79-2.49.78-3.48,2.02-5.26,6.59-12.37,14.89-21.52,15.98-4.37.52-9.52-.37-14,0,1.88-9.32,3.51-18.82,6-28Z"/>
  <path class="st3" d="M875,732c.37,2.86-1.65,1.96-3.42,2.03s-10.16-.36-10.54,0,.33,5.11-2.04,5.96c.34-1.66.66-3.34,1-5,.23-1.13.83-2.15,1-3,4.48-.37,9.63.52,14,0Z"/>
  <path class="st2" d="M169,306c-8.34,8.38-21.38,25.41-29.97,31.57-1.1.79-1.61,1.18-3.03,1.43-1.69.29-4.12-.07-6,0,1.45-4.76,8.45-5.69,12.04-8.46,5.27-4.08,13.73-18.28,18.4-21.62,1.49-1.06,3.28-.55,4.29-1.19.84-.52,1.31-3.44,3.27-3.73.03.3,1.08,1.25,1,2Z"/>
  <path class="st3" d="M137,258c2.8-.09,3.31,3,4,4,.83.15,1.49-.19,2.71.3.92.37,6.48,6.51,7.29,7.7,7.13,2.1,13.85,7.81,21,11-3.55-.34-1.13.85-1.08,2.57.23,6.86.78,14.87-.92,21.43-.33.33-.67.67-1,1,.08-.75-.97-1.7-1-2-.54-4.73,1.15-20.81-.88-23.43-4.3-.43-7.04-4.01-10.49-6.21s-2.16.67-5.63-4.37c-.85-.25-2.16.31-3.72-.3-.96-.38-5.59-6.7-6.28-7.7-5.52-1-2.02-1.03-4-4Z"/>
  <path class="st2" d="M114,339c-.61-2.97,2.55-3.13,2,0-.67,0-1.33,0-2,0Z"/>
  <path class="st14" d="M747,99c55.72,5.77,90.36,59.25,87.04,112.54-.95,15.3-5.9,29.24-11.04,43.46-.39.25-3.47,3.39-4,4-5.72-1.83-10.98,1.19-16.8,1.69-85.48,7.33-130.87-88.36-72.71-149.66l14.51-12.04c.99.05,2.02-.1,3,0Z"/>
  <path class="st4" d="M444,339l1,3c21.12,21.73,44.49,42.08,66,63,.67.65,1.32,1.34,2,2,15.35,14.93,30.7,30.13,46,45,14.01,13.61,26.91,28.46,41.99,41-.54-13.61-7.28-26.5-15.48-37.01l-14.51-13.99c12.99-9.27,23.55-24.52,34.99-34.51,15.99-13.96,41.48-14.26,57.01.51-58.33-15.62-68.91,67.52-11,70-2.83,10.27-6.27,22.47-11,32-.61,1.23-.8,2.62-1,3-24.38,45.07-76.26,70.02-127,63-.64-.09-1.37.1-2,0-8.37-1.35-25.17-6.51-33-10-.93-.42-7.15-6.18-8.91-4.94-8.06,15.17-17.17,30.12-28.11,43.42-8.39,10.19-22.71,24.93-33.98,31.52-5.83,3.41-17.74,7.67-24.46,8.03-4.24.23-15.43-.77-18.51-3.56-2.88-2.6.34-2.34,1.99-3.91,35.16-33.44,70.03-68.03,105.98-100.56.25-.23,1.69-.22,2.5-.96,2.47-2.27,10.54-11.68,13-11.69,25.74,13.24,54.21,18.85,81.38,6.03,13.21-6.23,26.7-18.71,32.12-32.37-51.12,41.56-123.83,31.79-165.96-17.53-20.73-24.27-29.78-53.63-28.03-85.47.93-16.92,7.49-38.39,16-53,.37-.64.99-1.15,1-2l7.61-8.95c2.52-.54,8.4,10.28,12.39,8.95Z"/>
  <path class="st0" d="M341,171h170v168h-67c-3.99,1.32-9.87-9.49-12.39-8.95l-7.61,8.95h-82.01s0-91,0-91c.11-.1-.43-1.74.65-2.02,2.72-.72,7.78.52,10.92.1,1.84-.24,1.22-1.8,2.16-2.05,7.63-2.01,13.76-6.5,18.56-13.29,2.25-3.18.14-5.92,6.71-4.75,1.03.27,6.9,1.63,7.01.49-1.05-9.39-1.69-18.03-6.59-26.41-7.33-12.52-17.75-18.35-31.42-22.08l-.31-1.71c-2.57-2.28-5.54-3.85-8.69-5.29ZM393.34,286.34c1.61-1.36,7.95-5.68,7.59-7.71-1.97-1.82-10.56-11.87-12.29-11.56l-11.56,12.29c.13.74,9.77,10.25,10.64,10.49,4.15,1.16,3.93-2.08,5.63-3.51Z"/>
  <path class="st0" d="M642,171c-11.83,41.47,4.16,90.31,41,114l-1,54h-118c1.61-2.58,4.17-3.41,2.51-6.98-.69-1.48-12.78-12.9-13.85-12.85-1.84,1.59-14.6,12.45-14.7,13.44-.32,3.05,3,3.97,4.05,6.39h-29v-168h129Z"/>
  <path class="st0" d="M684,418l1-77h168v41c-2.05.07-6.61,2.93-8.55,4.42-6.61,5.08-11.78,13.25-14.8,20.78-.61,1.53.01,3.33-2.65,2.8-5.18-6.55-11.38-12.46-15.95-19.55-1.08-.95-1.37-1.85-3.04-1.01s-9.05,11.65-10.19,13.88c-15.79,30.73-.88,72.21,30.18,86.68-.04,1.11-.61,2.01-1,3-5.97,2.18-10.53,7.21-15.67,10.83-3.6,2.54-7.82,4.64-11.33,7.17h-115.01s-.99-43-.99-43c1.27-1.19,4.17-6.34,5.49-8.04,1.07-1.38.19-2.68,3.51-1.96,1.27.35,8.68,2.33,8.99,2,1.44-16.76-4.72-31.74-17.99-42Z"/>
  <path class="st0" d="M513,407v-66h30.5c2.48,0,6.42,7.8,8.99,7.64,3.29-.21,6.75-7.64,9.01-7.64h120.5v75c-5-3.28-10.51-4.18-16-6-.52-.17-1.57-1.62-3-2-15.54-14.77-41.02-14.48-57.01-.51-11.44,9.99-22,25.24-34.99,34.51l-12,10c-15.3-14.87-30.65-30.07-46-45Z"/>
  <path class="st0" d="M853,236v103h-168l1-53c43.14,25.55,95.19,16.64,128.53-19.97,1.64-1.8,3.04-5.38,4.47-7.03.53-.61,3.61-3.75,4-4,10.47-6.84,19.63-8.96,30-19Z"/>
  <path class="st0" d="M445,342l66.01-1.01v64.01c-21.52-20.92-44.89-41.27-66.01-63Z"/>
  <path class="st8" d="M682,416c.28.19,1.16,1.35,2,2,13.27,10.25,19.43,25.24,17.99,42-.32.33-7.73-1.65-8.99-2-11.29-3.11-22.41-6.96-34-9,2.5-12.88,3.08-26.49,7-39,5.49,1.82,11,2.72,16,6Z"/>
  <path class="st0" d="M170,592l1-79h121c.43,0,.27,6.42.96,8.53.43,1.31-.7,1.49,1.53,1.52,2.94.04,7.47-1.66,10.2-2.86,1.92-.85,5.45-4,5.8-4.01.85,0,12.4,7.3,15.51,6.81.3-1.68-.39-9.61,0-10,.46-.46,10.99.35,13.01,0v147h3v-147h89c8.83,7.81,23.08,16.31,33.28,19.03.87.23.65,1.77,1.41,1.96,2.3.55,5.02-1.3,6.31,2.01-35.95,32.53-70.82,67.12-105.98,100.56-1.66,1.58-4.88,1.31-1.99,3.91,3.09,2.79,14.27,3.79,18.51,3.56,6.72-.36,18.63-4.62,24.46-8.03l-1,8c3.39-.25,7.13.42,10.45-.04,28.16-3.95,51.68-39.11,59.26-64.74,1.26-4.26,2.5-8.69,2.29-13.21,7.83,3.49,24.63,8.65,33,10v106.01s-126,0-126,0c-5.39-4.99-12.88-6.65-19-10-8.89-4.86-9.27-7.85-21-10-.92-.17-1.73-.85-4-1-1.53-.1-3.49-.13-5,0-1.96.17-2.84.97-3,1-17.96,3.29-16.6,7.99-27.96,18.54-4.1,3.8-10.16,7.77-14.04,11.46-2.49.52-2.8-2.41-3.45-4.03-15.57-39.21-28.53-79.56-43.56-118.97-21.94,8.68-34.28,30.08-41.95,51.54-.64,1.79.12,3.6-3.04,3.47-9.74-10.45-19.41-21.88-29-32Z"/>
  <path class="st0" d="M263,342c4.38-.48,10.94-.85,15.46-1.04,20.1-.86,40.43.72,60.54.04v170c-2.02-.35-12.56.48-13,0s1.19-7.23-5.71-8.79c-6.05-1.37-9.4,2.92-10.64,2.69-1.62-.3-3.67-4.23-9.13-3.96-8.85.43-7.79,10.06-8.51,10.06h-121v-96.5c0-.46-2.8-2.65.49-2.49,2.84,2.41,7.84,9.61,10.5,11.32.78.5.67,1.17,2.32.54,2.21-.85,16.96-16.48,16.75-19.26-3.87-2.29-14.82-16.43-18.52-16.65-2.4,2.83-5.56,7.39-8.61,9.35-1.09.7-1.48.98-2.93.7.43-12.13-.58-24.41-.04-36.54.14-3.06.78-6.77,1.03-9.46.13-1.31-.12-2.69,0-4,3.68.86,2.45-5.36,3.05-5.95.35-.35,8.53-.24,9.95-.05,9.18,1.21,19.26,5.35,29.46,6.04,19.67,1.33,30.98-4.11,48.54-6.04ZM308.72,484.16c-8.12,1.28-8.04,15.79,1.68,14.83s6.72-16.15-1.68-14.83Z"/>
  <path class="st0" d="M423,341c-8.51,14.61-15.07,36.08-16,53-3.98,1.78-6.31-1.89-6.68-1.98-.96-.23-6.04-.19-6.27.03-1.68,1.62-2.83,24.58-4.08,28.5,1.58,34.01,14.38,67.43,39.04,90.45h-87v-170h81Z"/>
  <path class="st11" d="M429,511c-24.65-23.02-37.46-56.44-39.04-90.45,1.26-3.91,2.4-26.88,4.08-28.5.23-.22,5.31-.25,6.27-.03.37.09,2.7,3.76,6.68,1.98-1.75,31.84,7.3,61.2,28.03,85.47,42.14,49.33,114.85,59.09,165.96,17.53-5.41,13.66-18.91,26.13-32.12,32.37-27.17,12.83-55.64,7.21-81.38-6.03-2.46,0-10.53,9.42-13,11.69-.81.75-2.24.73-2.5.96-1.3-3.31-4.01-1.46-6.31-2.01-.76-.18-.54-1.73-1.41-1.96-10.2-2.72-24.45-11.22-33.28-19.03-.54-.48-1.27-1.32-2-2Z"/>
  <path class="st2" d="M340,248l-.99,91.01c-22.38,1.8-49.27-2.87-71.01.99,5.6-4.1,12.5-6.41,18.34-10.16,30.24-19.43,43.67-46.92,51.66-80.84.68-.3,1.31-.72,2-1Z"/>
  <path class="st13" d="M381,226c-6.57-1.17-4.46,1.57-6.71,4.75-4.8,6.78-10.94,11.28-18.56,13.29-.94.25-.32,1.8-2.16,2.05-3.14.42-8.19-.82-10.92-.1-1.08.29-.54,1.92-.65,2.02-.25.22-1.5-.2-2,0-.69.28-1.32.7-2,1,.2-.86-.25-2.29,0-3,3.83-10.95,4.19-16.55,6-28,11.33,1.01,22.91,3.93,34.11,6.44,1.33.3,2.32,1.41,2.89,1.56Z"/>
  <path class="st12" d="M199,624c3.16.13,2.4-1.68,3.04-3.47,7.67-21.46,20.01-42.85,41.95-51.54,15.03,39.42,27.99,79.76,43.56,118.97.64,1.62.96,4.55,3.45,4.03-1.18,1.12-8.08,8.49-7.93,9.36,9.92,9.7,18.85,19,23.67,32.39.84,2.34,2.68,5.82,1.76,8.24-36.66-39.18-72.93-78.75-109.5-118Z"/>
  <path class="st8" d="M385,682c.47.44,1.64,1.58,2,2,1.1,1.27,5.3,8.5,6.17,10.33,3.77,7.89,4.4,14.97,3.82,23.67-.6.66-7.55-3.64-10.35-3.08-.47.1-3.18,6.14-5.1,8.12-6.64,6.88-18.18,11.14-27.54,7.96,5.21-19.04,6.86-39.84,12-59,6.12,3.35,13.61,5.01,19,10Z"/>
  <path class="st2" d="M214,760c-.11,3.21-2.92,4.94-5,7-11.98,11.88-25.82,22.72-38,34l-1-67c10.56,9.98,29.9,21.56,44,26Z"/>
  <path class="st12" d="M214,760c27.81,8.76,57.03,5.58,82.67-7.83,2.67-1.4,7.2-5.44,8.84-6.16,1.18-.52,1.99.3,1.48,1.48-.35.83-10.44,10.73-11.98,12.03-21.17,17.84-51.53,21.5-77.26,12.23-2.85-1.03-7.03-2.11-8.75-4.75,2.08-2.06,4.89-3.79,5-7Z"/>
  <path class="st0" d="M348.75,693.74c-6.42,6.08-16.08-6.11-8.31-10.79,7.27-4.38,13.74,5.65,8.31,10.79Z"/>
  <path class="st3" d="M345,662l-4-1c2.27.15,3.08.83,4,1Z"/>
  <path class="st3" d="M336,661l-3,1c.16-.03,1.04-.83,3-1Z"/>
  <path class="st0" d="M640,513h42.01s0,93,0,93c-3.88-4.27-11.52-10.38-15.94-14.73-1.51-1.49-10.02-11.05-10.78-11.22-6.66-1.56-6.17,3.53-10.25,6.69-13.97,24.66-22.17,48.89-20.06,77.8.43,5.91,2.58,11.59,3.04,17.46h-115.01s0-106,0-106c50.74,7.02,102.62-17.93,127-63Z"/>
  <path class="st0" d="M797,513c-3.43,2.48-6.62,5.9-10.09,8.41-10.62,7.7-21.94,14.49-31.89,23.09,4.99,5.07,11.68,3.16,17.98,3.5,7.07.38,2.71,2.85,5.61,3.88,5.33,1.89,6.68-1.78,7.07-1.86,1.8-.38,3.87.36,5.65-.03.72-.16.53-1.71,1.4-1.95,10.03-2.72,20.4-15.52,24.5-25.32,1.74-4.16-1.12-5.47,5.77-4.71,9.16,4.49,19.67,7.79,30,8v126c-.86-.56-18.41-.36-20.57-.08-1.86.24-1.32,1.9-2.11,2.06-1.76.37-3.77-.32-5.61.05-6.33,1.29-16.33,15.05-20.12,19.6-.7.84-8.29,7.87-8.85,8.06-2.47.81-5.96.3-8.59.14l-49.74-125.85c-.97-.23-6.78,3.6-7.96,4.43-17.68,12.46-29.04,31.41-36.98,51.58-.5,1.26-.34,3.86-.48,4-2.23,2.18-6.11-5.05-6.99-6.01v-97.01s112,0,112,0Z"/>
  <path class="st13" d="M693,621c2.26-5.23,3.05-11.12,5.13-16.37,6.35-16,18.34-31.61,32.41-41.05,2.5-1.68,2.43-5.18,7.33-3.44l50.13,130.87c-2.5,2.33-4.79,4.6-7.37,6.92-.9.81-.99,1.45-.55,2.48.36.85,11.32,10.16,13.42,12.58,5.93,6.83,13.26,17.98,16.65,26.35.35.86,3.45,6.98.35,5.66-37.39-40.23-75.74-79.58-114.02-118.98-1.44-1.48-2.28-3.77-3.49-5.01Z"/>
  <path class="st3" d="M684,468l.99,43.01h115.01c-.97.7-2.02,1.29-3,1.99h-112.01s0,97,0,97c-1.84-1.98-2.28-3.21-3-4v-93.01s-42,0-42,0c.2-.38.39-1.77,1-3l41.01,1.01v-42.01c.72-.57,1.83-.85,1.99-1Z"/>
  <path class="st3" d="M569.01,751c.13-9.85,9.02-20.58,19.46-20.04,4.68.24,8.5,2.29,7.57,7.52-.71,3.98-7.82,3.78-11.01,5.05-5.38,2.13-10.56,5.46-16.02,7.47Z"/>
  <path class="st3" d="M566.99,750c-4.56-.63-8.25-3.51-12.48-5.01-3.65-1.3-13.35-2.37-14.36-5.68s.38-5.13,3.13-6.51c10.59-5.31,23.88,6.07,23.71,17.2Z"/>
  <path class="st3" d="M565.66,712.15c13.74-4.66,7.55,24.72,2.83,25.84-2.68.64-6.13-10.47-6.4-12.58-.41-3.21-.12-12.01,3.57-13.27Z"/>
  <path class="st3" d="M676,800c-.86-3.31,6-6.43,6-8.5v-35.5c2.63-.78,2.84,2.63,3,4.49.86,10.03-.69,20.5,0,30.51-2.77,2.81-5.26,6.15-8,9h-1Z"/>
  <path class="st0" d="M489,685c-1.04,5.35-7.63.45-12.4,3.91-1.17.85-.36,2.77-.6,3.09-2.38,3.07-1.82-3.83-1.99-4.01-.5-.53-12.93-.28-14.56-.04-2.34.33-4.2,2.36-5.92,2.11-.55-.08-.41-2.11-1.03-2.09-1.63.03-2.41,2.06-3.98,2.05-1.28,0-2.52-1.78-4.06-1.97-1.84-.24-9.52-.47-10.84-.1-.6.17-5.1,9.42-7.25,10.02-1.83.51-2.86-1.45-4.03-1.66-.5-.09-9.76.58-10.2.84-.63.39-1.53,5.47-1.14,5.86,3.33.64,8.56-2.93,10.49,1.01,1.68,3.41-.66,6.42-.29,8.4.31,1.62,7.82,4.44,4.64,9.45-2.6,4.11-5.69-2.47-6.03-2.67-2.42-1.44-7.2,1.7-7.81,4.34-.64,2.81,4.78.06,2.98,3.97-.71,1.55-3.9,1.42-5.53,2.47-1.78,1.14-3.75,4.74-5.48,5.52-1.59.72-14.91.95-15.83.36-.33-.21-1-3.14-2.12-4.37-1.42-1.56-5.84-2.27-5.03-3.96.43-.88,4.2-2.9,5.55-4.45,1.88-2.17,1.29-5.69,4.95-5.08.38.06.37,1.81,1.16,2.01,5.61,1.39,7.24-2.27,7.42-7.47.14-3.98-2.92-14.69-4.59-18.51-1.39-3.19-4.94-4.96-4.5-9,28.16,3.2,68.38-.13,98,0Z"/>
  <path class="st0" d="M469,697.99c-1.13,1.12-9.85-1.06-7-3.99,1.53-1.57,9.81,1.21,7,3.99Z"/>
  <path class="st13" d="M695,817c-2.73,13.5-7.27,26.13-12,39-.2-.05-.81-.07-1,0-1.84.69-7.33,11.05-9.37,13.65-10.05,12.79-27.89,24.09-44.63,24.34-.36-.36,1.71-9.32,2-10,.31-.74,10.67-8.23,12.53-9.97,17.91-16.85,31.98-38.82,42.55-60.96,1.51-1.07,8.01,3.13,9.92,3.93Z"/>
  <path class="st13" d="M703,775c2.08-2.07,5.26-5.32,6-8,33.98,10.78,71.39,5.59,100.51-14.99,1.43.89-.46,3.03-1.09,3.91-11.57,16.14-42.53,28.38-61.87,29.13-13.71.53-32.3-1.97-43.55-10.05Z"/>
  <path class="st13" d="M812.5,746c.65.33.65.67,0,1v-1Z"/>
  <path class="st13" d="M811.5,751c.65.33.65.67,0,1v-1Z"/>
  <path class="st12" d="M823,518c-6.89-.76-4.03.55-5.77,4.71-4.1,9.8-14.47,22.6-24.5,25.32-.88.24-.68,1.79-1.4,1.95-1.78.39-3.85-.35-5.65.03-.39.08-1.73,3.75-7.07,1.86-2.91-1.03,1.45-3.5-5.61-3.88,12.04-5.28,22.76-13.19,31.51-22.99,1.99-2.23,7.1-10.66,8.5-11.55,3.08-1.96,7.72,3.43,9.99,4.54Z"/>
  <path class="st12" d="M828,490c18.4,8.57,33.58,6.05,51.89.38,1.29-.4,3.02-.71,2.11,1.11-.46.92-8.06,5.63-9.62,6.39-10.36,5.03-21.29,5.43-32.37,2.61-1.76-.45-13.51-4.94-14.01-5.51-.28-.32.75-1.36,1-1.98.39-.99.96-1.89,1-3Z"/>
  <path class="st0" d="M907.25,457.74c-2.37-2.33-.52-6.8,3.24-6.84,7.49-.08,2.17,12.14-3.24,6.84Z"/>
  <path class="st12" d="M883.5,489c.65.33.65.67,0,1v-1Z"/>
  <path class="st2" d="M854.72,687.72c-7.05,7.08-17.84-3.95-10.24-10.74,7.59-6.78,16.33,4.63,10.24,10.74Z"/>
  <path class="st10" d="M181,296c.13-.13-.04-1.13.42-1.58,1.96-1.91,6.04-4.33,5.58-7.42,35.76,10.82,72.94,3.12,102-20-2.98,7.31-16.03,18.31-22.69,22.81-25.43,17.19-57.63,20.3-85.31,6.19Z"/>
  <path class="st2" d="M172,281c4.65,2.08,10.17,4.54,15,6,.46,3.09-3.62,5.51-5.58,7.42-.47.45-.29,1.45-.42,1.58-2.59,2.5-7.81,5.82-11,9,1.71-6.56,1.16-14.57.92-21.43-.06-1.72-2.48-2.91,1.08-2.57Z"/>
  <path class="st2" d="M301,170v2c-8.74,2.35-19.08,18.71-25.44,25.59-3.44,3.72-8.62,7.36-11.56,10.41-5.01-10.38-10.15-21.23-14.53-32-.74-1.81-.12-4.04-.47-5,16.73-1.1,35.66,1.93,52-1Z"/>
  <path class="st9" d="M350,178c-1.79,13.36-3.9,26.69-6,40-1.81,11.45-2.17,17.05-6,28-24.05-.38-40.73-18.08-38.01-42.51.95-8.48,8.85-19.12,16.01-23.49,10.96-6.71,22.36-5.18,34-2ZM321.29,190.3c-6.48,5.22,1,16.7,9.28,11.76,7.37-4.4-.53-18.8-9.28-11.76Z"/>
  <path class="st3" d="M174,338c2.34.86,6.34,1.74,9.09,2.44.77.2,1.41.95,1.91,1.56-1.42-.19-9.6-.3-9.95.05-.59.59.63,6.81-3.05,5.95.28-3.06,1.49-6.86,2-10Z"/>
  <path class="st6" d="M663,408c1.43.38,2.48,1.83,3,2-3.92,12.51-4.5,26.12-7,39-1.78,9.17-3.62,18.99-6,28-.26,1-.98.93-1,1-57.91-2.48-47.33-85.62,11-70ZM640.65,419.3c-9.21.48-8.76,15.12.81,14.78s8.52-15.27-.81-14.78Z"/>
  <path class="st11" d="M478,566c.21,4.52-1.03,8.95-2.29,13.21-7.59,25.63-31.1,60.79-59.26,64.74-3.32.47-7.06-.2-10.45.04l1-8c11.27-6.6,25.58-21.33,33.98-31.52,10.95-13.3,20.05-28.24,28.11-43.42,1.76-1.24,7.98,4.53,8.91,4.94Z"/>
  <path class="st0" d="M682,469v42.01s-41-1.01-41-1.01c4.73-9.53,8.17-21.73,11-32,.02-.07.74,0,1-1,10.36,2.45,20.8-1.57,29-8Z"/>
  <path class="st11" d="M571,442l14.51,13.99c8.2,10.51,14.94,23.4,15.48,37.01-15.08-12.54-27.98-27.39-41.99-41l12-10Z"/>
  <path class="st8" d="M350,178c13.67,3.73,24.08,9.56,31.42,22.08,4.9,8.37,5.55,17.02,6.59,26.41-.11,1.14-5.98-.22-7.01-.49-.57-.15-1.56-1.26-2.89-1.56-11.2-2.51-22.78-5.43-34.11-6.44,2.1-13.31,4.21-26.64,6-40Z"/>
  <path class="st3" d="M393.34,286.34c-1.69,1.43-1.48,4.67-5.63,3.51-.87-.24-10.51-9.76-10.64-10.49l11.56-12.29c1.73-.31,10.32,9.74,12.29,11.56.36,2.03-5.97,6.35-7.59,7.71Z"/>
  <path class="st13" d="M693,458c-3.32-.72-2.44.58-3.51,1.96-1.32,1.7-4.22,6.85-5.49,8.04-.16.15-1.27.43-2,1-8.2,6.43-18.64,10.45-29,8,2.38-9.01,4.22-18.83,6-28,11.59,2.04,22.71,5.89,34,9Z"/>
  <path class="st3" d="M308.72,484.16c8.4-1.32,11.08,13.91,1.68,14.83s-9.8-13.56-1.68-14.83Z"/>
  <path class="st0" d="M321.29,190.3c8.74-7.04,16.64,7.36,9.28,11.76-8.28,4.94-15.76-6.53-9.28-11.76Z"/>
  <path class="st0" d="M640.65,419.3c9.33-.49,10.43,14.44.81,14.78s-10.02-14.3-.81-14.78Z"/>
</svg>