<?xml version="1.0" encoding="UTF-8"?>
<svg id="Layer_1" xmlns="http://www.w3.org/2000/svg" version="1.1" viewBox="0 0 1024 1024">
  <!-- Generator: Adobe Illustrator 29.8.4, SVG Export Plug-In . SVG Version: 2.1.1 Build 6)  -->
  <defs>
    <style>
      .st0 {
        fill: #cc5b25;
      }

      .st1 {
        fill: #bf4c1c;
      }

      .st2 {
        fill: #d7aa38;
      }

      .st3 {
        fill: #792639;
      }

      .st4 {
        fill: #ecdcbe;
      }

      .st5 {
        fill: #f0d9af;
      }

      .st6 {
        fill: #d7aa3a;
      }

      .st7 {
        fill: #f0dbb3;
      }

      .st8 {
        fill: #f8f0db;
      }

      .st9 {
        fill: #d36e40;
      }

      .st10 {
        fill: #7f263d;
      }

      .st11 {
        fill: #571a2a;
      }

      .st12 {
        fill: #faf0db;
      }

      .st13 {
        fill: #c4932f;
      }

      .st14 {
        fill: #561a2b;
      }
    </style>
  </defs>
  <path class="st5" d="M1024,804v220H0v-168c17.77-3.48,35.27-8.35,53-12,31.32-6.45,64.26-12,96-16,21.24-2.68,42.66-4.41,64-6,5.62-.42,13.58-2,18.5-2h21c5.3,0,14.16-1.84,19.5-2,32.13-.95,67.61.25,100,2,.99.05,2.01-.06,3,0,22.59,1.26,45.5,3.55,68,6,.65.07,1.35-.07,2,0,35.79,3.99,75.07,13.92,110,16,.66.04,1.34-.03,2,0,5,1.51,10.8,1.47,16,2,92.2,9.4,182.32,9.98,274.36-2.14,59.55-7.85,119.26-20.53,176.64-37.86Z"/>
  <path class="st9" d="M170,428c.59.06,1.45.94,2,1,4.98.56,10.04,1.28,15,2-5,11.07-9.96,22.69-14,34h15l-18,36h57l-16-36h17c-2.12-7.17-6.17-13.57-9.17-20.33-1.23-2.76-1.86-6.48-2.83-8.67l50,11c-.3.6-.12,2.34-.78,3.68-4,8.14-8.27,16.17-12.22,24.32h65l-5-13c8.05,3.37,18.85,5.65,27,9,.56.23,1.22.68,2,1,26.26,10.91,53.28,23.98,78,38,32.15,18.24,62.41,40.29,94.08,59.42,7.5,4.53,15.63,9.97,23.92,12.58v10l-15.52,15.98-12.19,7.81c-25.3,2.46-50.9,1.61-76.29,3.21-1.39-5.33-9.97-12.68-11.01-19-3.71-.08-4.07,5.75-4.07,8.5,0,9.25,6.26,13.66,15.08,13.5,1.46,21.76-1.09,45.07,0,67-4.3.22-8.69-.16-13,0v57l2.24-1.28,21.76-56.72c.33-.08,1.21-.73,2-1l21,63v-61.5c10.45-6.28,19.14-12.8,24-24.5,5.81,3.56,15.35,7.43,22,9l23.01,70.99c1.74.24.94-2.27.99-3.48.81-21.14-.02-43.26,0-64.51,1.61-.17,6.73-1.41,8-2l21.99,62.99v-81.99c8.76-12.65,12.96-34.86,12.01-50,20.66,9.08,41.64,16.75,63,24,30.82,10.46,61.9,19.93,94,26-31.54,14.18-59.58,34.84-90,51-1.24.66-2.71,1.35-4,2-.72.36-1.93.46-3,1-1.74.88-3.64,1.49-5,3-.86.31-1.44.78-2,1-2.41.96-6.5.63-8,4-.3.1-.7-.1-1,0-7.61,2.67-16.07,6.04-23,10-.3.1-.7-.1-1,0-1.83.64-3.41,1.8-4,2-.3.1-.7-.1-1,0-7.15,2.37-14.58,4.54-21.83,6.67-1.61.47-3.55.28-4.17,2.33-.31.08-.69-.08-1,0-.58.15-1.41-.14-2,0-1.02.25-1.76.94-2,1-1.06.26-1.83.96-2,1-.32.07-.68-.07-1,0-55.96,12.74-95.3,13.64-152,6-.65-.09-1.35.09-2,0-19.78-3.39-38.82-9.34-58-15-.31-.09-.69.09-1,0-18-8.75-37.37-14.18-57-18-.32-.06-.68.06-1,0-11.83-5.71-26.32-5.14-39-8-1.69-2.32-4.56-11.54-5.01-12-1.46-1.48-1.74.47-2.24,1.27-1.44,2.31-3.39,6.95-4.75,9.73-26.04-2.3-52.07-.54-78,2-.07-.1-1.51.52-2.08-.62-4.5-8.99-8.93-18.14-12.92-27.38h43c-5.2-15.29-13.61-29.53-18-45h43s-33.99-78-33.99-78l-32.23,73.28.22,4.72c-1.38,3.17-9.83,26.01-11.5,25.98-1.06-.02-2.19-5.54-3.99-2.97l-34.51,65.99c-34.67,10.68-66.8,27.85-98,46v-334l46-6c-1.52,3.05-2.34,8.78-5,12h64c-1.49-4.47-3.87-10.67-6-15,23.29-.31,46.36,1.47,69.52,3.83.71.07,1.37-.84,1.48-.83ZM391,602l-33.5-77-22.51,51c-2.92,1.26-2.06-4.43-4.51-2.02l-33.48,71.02h68l-19-43h45Z"/>
  <path class="st14" d="M930,628c-4.49,9.21-8.64,18.71-13,27.99l16.99,1.5-19.81,35.2-.18,2.3c.39.38,8.61-.25,10.51,0,1.38.18,1.74-.55,1.46,1.47-4.81,9.25-10.83,17.94-14.98,27.53l-5,8h83l-8-13c-3.72-8.2-7.81-16.05-12-24h16l-18.99-37.51c6.31-.78,12.59-1.91,18.99-1.5.71-.64-5.12-12.16-6-13.99l45,18v144c-57.38,17.33-117.09,30.01-176.64,37.86-92.04,12.13-182.16,11.54-274.36,2.14-1.31-2.28-9.13-2.99-11.58-3.04s-4.19,1.05-4.42,1.04c-.66-.03-1.34.04-2,0,.56-3.22-1.62-1.68-3.49-1.96-32.74-4.88-68.39-12.56-101.05-15.05-1.92-.15-3.92-.43-5.46,1.01-.65-.07-1.35.07-2,0,.56-3.18-1.6-1.76-3.49-1.97-17.87-1.94-36.03-4.08-53.97-5.07-3.2-.18-7.71-.6-10.54,1.04-.99-.06-2.01.05-3,0,.56-3.02-1.53-1.94-3.45-2-31.2-1.03-62.56-1.32-93.89-.95-1.24-.31-.91-2.46-1.64-3.33-2.37-2.83-11.52-17.86-11.97-21.28-.11-.82-.07-1.63-.05-2.44,3.77.04,7.59-.2,11.01-2,.38-.2.77-.63,1-1,.45-.7,1.01.4.26-1.65-3.73-10.12-10.23-19.35-14.26-29.35h15c.21,0,.96-3.47.79-4.22l-9.79-16.78c-.11-.29.11-.71,0-1-.32-.84.13-2.66-.77-3.69l-5.23-8.31c-.11-.29.11-.71,0-1-1.83-4.72-2.82-8.96-6-13v-1c12.33,1.78,24.77,3.64,37,6,.32.06.68-.06,1,0,19.18,5.37,37.92,12.36,57,18,.31.09.69-.09,1,0,16.79,7.03,37.54,13.43,55.69,15.96,1.42.2,2.19-.98,2.31-.96.65.09,1.35-.09,2,0-.59,2.71,1.34,1.99,3.13,2.32,43.56,8.1,91.6,5.57,134.69-4,4.61-1.02,10.06-2.04,14.18-4.32.32-.07.68.07,1,0l2-1c.24-.06.98-.75,2-1l1.49.99.51-.99c.31-.08.69.08,1,0,6.45-1.66,12.63-3.43,18.93-5.57,2.29-.78,5.87-1.26,7.07-3.43.3-.1.7.1,1,0l4-2c.3-.1.7.1,1,0,7.75-2.72,16.17-5.41,23-10,.3-.1.7.1,1,0,2.61-.89,6.4-.69,8-4,.56-.22,1.14-.69,2-1,1.9-.69,4.09-.59,5-3,1.07-.54,2.28-.64,3-1l4-2c30.42-16.16,58.46-36.82,90-51,47.29-21.26,103.47-33.6,155.54-31.04,12.49.61,24.95,3.49,37.46,4.04ZM693,729c-.4.41-2.54,4.96-3,6-.04.08-1.46.37-.96.93.07.08,1.17-.08,1.93.81,6.69,7.91,13.77,15.41,20.54,23.24.94,1.09,6.1,7.18,5.48,8-7.41,2.49-14.76,5.9-21.31,10.21-1.63,1.07-10.03,6.96-9.69,8.3.45,1.77,21.71,14.47,24.97,16.04,7.64,3.68,12.71,4.24,20.03,6.47,20.9,6.38,34.59,8.75,57,3.5,22.58-5.28,50.59-24.69,50-50.5-.87-38.18-47.67-57.64-79.99-45l-1.01-7c-.2-3.61.31-7.43,0-11l.94-.55c.45-1.65-.18-2.46-1.45-3.43l-.49.98-18,19c-2.82-1.07-5.17-.83-8-1-3.63-.22-8.4-.27-12,0-1.93.15-4.23.18-6,1-4.54-7.63-12.59-13.82-18.99-20v34Z"/>
  <path class="st2" d="M850,355c6.11-.41,11.13.29,17,1,.65.08,1.34-.03,2,0,1,.04,2-.03,3,0,5.12,1.37,10.23,2.41,15.25,4.25,21.15,7.79,36.38,23.39,47.41,42.59,29.95.34,59.56,4.85,89.34,7.16v84c-4.72,1.03-8.29,5.57-12.09,8.41-49.1,36.85-87.89,46.16-144.91,63.59.6-3.48-.78-6.7-1-10-.01-.21.04-1.15,0-2-.85-16.43-1.71-32.89-1.79-49.29,9.53-11.68,18.38-23.96,27.79-35.71,1.88-2.35,6.56-5.18,6.99-8.99l-7.99,7.99c-7.14,5.67-13.76,13.6-21,19-1.91,1.42-3.36,3.46-5.99,2.99l-1.01-27.99c10.15-14.26,24.75-26.6,35-40.99l-36.99,29.99-3.01-53c-.17-2.03-3.84-.13-4.04.68l-3.97,86.32c-2.5,2.41-10.53-6.32-12.31-7.67-2.15-1.62-8.59-1.53-5.68-7.33,3.73,1.31,11.36,3.12,15,2,4.3-1.33.93-23.77,1-28.48.06-4.19,2.96-12.97,2.98-15.02.01-1.23-2.49-4.34-2.9-7.09-1.13-7.6.7-17.13-.07-24.94-.11-1.14.51-2.28-1.02-2.48-3.19-.42-5.85,4.37-8.7,4.82-2.4.38-7.81-1.94-11.81-1.89s-9.13,2.32-11.95,2.05c-3.17-.3-5.3-4.77-8.53-4.97v44.5c0,9.57,13.57,25.15,22,29.5.04,2.37.67,3.47-2,3-11.17-4.6-21.33-15.68-31.44-21.06-.93-.5-2.86-1.82-3.56-.44,13.64,13,28.38,24.99,42.01,37.99,3.12,2.98,14.53,13.34,16.08,15.98.59,1.02.91,5.18.91,6.53-3.39,2.94-1.66,8.41-1.96,12.54-.09,1.29-1.04,2.62-1.04,2.96v24c0,.35-.96,1.67-1.04,2.96-.39,6.17-1.67,13.89.04,19.54-37.64,11.58-75.32,23.55-112.79,35.71-15.86,5.15-39.85,16.2-54.95,19.05-8.59,1.62-22.39-.14-31.81.23-1.92.08-4.01-1.03-3.45,2-21.36-7.25-42.34-14.92-63-24-.71-11.4-4.37-23.65-9-34,2.24-4.77,4.74-9.83,6-15,9.57,1.49,18.39-14.57,16.99-23-10.05,2.21-22.13,8.33-24.99,19-8.68-2.64-18.39-2.8-27,0-3.25-10.73-14.73-16.79-24.99-19-1.55,8.31,6.78,23.44,15.99,23,1.1,4.23,3.13,8.09,5,12v14c-8.28-2.62-16.41-8.05-23.92-12.58-31.67-19.13-61.93-41.18-94.08-59.42,30.1-12.05,59.72-25.36,90-37,1.48-.57,2.85-1.56,4-2,54.3-20.67,111.05-38.12,168-50,2.64-.55,5.44-1.69,7-2,17.9-3.58,36.56-6.19,54.64-8.86,11.67-1.72,23.52-2.45,35.16-4.33,11.91-28.25,40.43-48.72,71.19-50.81Z"/>
  <path class="st8" d="M170,0v170.01s-170,0-170,0V0h170ZM132.64,111.07c-2.1,1.86-10.93,9.96-10.53,12.29.28,1.65,9.84,9.35,11.39,11.62l11.43-12.34-12.29-11.56Z"/>
  <path class="st8" d="M890,172c.99,0,2,0,3,0,43.65-.14,87.35.11,131,0v168h-170v-168c11.98-.04,24.02.05,36,0Z"/>
  <path class="st8" d="M682,0l-1.5,170h-167.5v-73c.87-7.35,15.78-13.97,21-18.99-6.65-1.18-14.23-1.51-21-1.01V0h169Z"/>
  <path class="st8" d="M854,0h170v170l-128-1c1.61-1.67,3.01-3.99,4.98-5.5l-9.48-9.48-9.48,9.48c1.98,1.51,3.38,3.83,4.98,5.5l-33.01,1.01-.06-66.52c-.22-1.61,1.58-1.83,2.06-2.49,3.87-5.28,9.64-8.83,13.04-14.5,0-1.64-12-13.8-15.04-14.5V0Z"/>
  <path class="st8" d="M340,0v170h-168V0h168ZM303.7,65.11c-1.11.29-8.83,8.13-8.63,9.26,1.91,1.77,7.3,8.67,9.43,8.67,1.49,0,9.66-8.05,9.43-9.4-2.25-2.01-7.38-9.28-10.23-8.53Z"/>
  <path class="st8" d="M852,0v74c-3.94,4.02-9.33,7.44-12.04,12.5,0,.9,10.95,12.78,12.04,13.5v70h-169V0h169ZM725.5,81.02l-11.43,12.34,12.32,11.59,10.53-12.32-11.43-11.62Z"/>
  <path class="st8" d="M0,172h170.01c.02,17.31-.04,34.68,0,52-2.95-1.27-3.27,6,0,5,0,.67,0,1.33,0,2-3.03-.56-1.92,1.53-2,3.45-.51,12.93-1.06,25.21.01,38.08.16,1.91-1.13,4.02,1.99,3.47,0,1,0,2,0,3-2.06-.45-5.74,5.71-5.88,6.73-.31,2.22,1.96,3.25,1.89,5.65-.04,1.56-1.86,15.34-2.21,16.91-.3,1.32-6.63,11.55-7.3,11.71-1.94.57-1.96-2.35-2.67-2.78-3.39-2.03-6,4.13-9.59,5.5-2.34.9-9.81.97-10.18,1.32-.3.29.19,5.9-3.05,7.45-2.72,1.3-8.32.71-11.26,1.74-1.98.69-2.6,2.97-4.44,3.56-5.58,1.77-14.6-.17-19.83-2.75-7.4-3.64-2.27-7.9-3.45-9.04-.25-.25-5.67.01-7.01-1-.2-.72-1.11-.87-1-3,0-.13,1.38-1,1-1.99-.62-.16-1.55.17-2,0-1.2-.46-1.16-.59-1-2,.01-.13,1.62-1.41,1-1.99-.3-.28-1.78.2-2-.01-1.07-1.02-1.49-3.62-2-5-.33-.9.32-3.41-1.51-3.99-4.61-1.46-3.69,7.57-4.58,10.21-.2.59-3.89,4.55-4.36,5.85-.74,2.04-.72,3.83-.55,5.94-1.68,3.7-3.23,9.02-5,13l-63-1v-168Z"/>
  <path class="st8" d="M511,0v77c-45.66,4.69-81.22,47.4-79,93h-90.01s0-170,0-170h169Z"/>
  <path class="st13" d="M1024,494v166l-45-18c-8.96-18.73-18.19-37.41-27.5-55.98-7.26,13.88-14.65,27.92-21.5,41.98-12.51-.55-24.97-3.43-37.46-4.04-52.07-2.56-108.25,9.78-155.54,31.04-32.1-6.07-63.18-15.54-94-26-.56-3.03,1.53-1.92,3.45-2,9.42-.37,23.22,1.39,31.81-.23,15.1-2.85,39.08-13.9,54.95-19.05,37.47-12.16,75.15-24.13,112.79-35.71.3-.09.7.09,1,0,6.63-2.04,13.36-3.97,20-6,57.03-17.43,95.81-26.73,144.91-63.59,3.8-2.85,7.36-7.39,12.09-8.41Z"/>
  <path class="st14" d="M98,722l-2,5.99c2.73.26,5.86-.34,8.51,0,1.38.18,1.75-.54,1.45,1.46l-52.96,114.54c-17.73,3.65-35.23,8.52-53,12v-88c31.2-18.15,63.33-35.32,98-46Z"/>
  <path class="st8" d="M1024,342v68c-29.78-2.31-59.4-6.82-89.34-7.16-11.03-19.2-26.26-34.8-47.41-42.59-5.01-1.85-10.12-2.88-15.25-4.25-.7-.19-1.45-2.03-3,0-.66-.03-1.35.08-2,0,.56-3.03-1.53-1.92-3.45-2-3.18-.12-6.39.09-9.55,0v-12.01c56.65-.03,113.36.02,170.01,0Z"/>
  <path class="st4" d="M172,0v170h168V0h2v170.01s90,0,90,0c.03.52.95,1.44,1,2h-91v168h169v-86c.93.11,1.8.98,2,1v85h168v-65c.53-.42,2.17-2.2,3-3v68h168v-168h-168v80c-.83-.8-2.48-2.59-3-3l1-77h-169c.64,7.64-.87,16.54,0,24-.92.05-1.36-.54-2-1v-23.01s-13,0-13,0c-.18-.51.18-1.46,0-2h13.01s0-72,0-72c.64-.42,1.13-1.02,2-1v73h167.5l1.5-170h1v170h169v-70c.77.51,2.95.52,4,1-.48.66-2.28.87-2.06,2.49l.06,66.52,33.01-1.01c.84.87,2.59,1.33,3,3-11.98.05-24.02-.04-36,0v168h170v2c-56.65.02-113.35-.03-170,0-.67,0-1.33,0-2,0-55.97.06-112.12-.81-168.01.99v75.43s5.01.58,5.01.58c-1.56.31-4.36,1.45-7,2v-79h-169l1,129c-1.15.44-2.52,1.43-4,2l1-131h-169v130c-.78-.32-1.44-.77-2-1l1-129c-15.47.45-31.08-.62-46.55,0-1.93.08-4.01-1.03-3.45,2l-2-1-117.01-1.01v87.01c-.54-.06-1.41-.94-1.99-1v-86h-76v-2h76c.02-20.32-.03-40.68,0-61,0-1,0-2,0-3,.02-14.98.02-30.02,0-45,0-.67,0-1.33,0-2,0-1.67,0-3.33,0-5-.04-17.32.02-34.69,0-52.01H0s0-1.99,0-1.99h170.01s0-170,0-170h2ZM340,172h-168v168h168v-168Z"/>
  <path class="st12" d="M62,342c-4.22,9.52-8.34,19.24-12,29h15l-17.99,34.52c-1.42,3.54,11.02-.6,9.97,2.95-1.17,3.95-6.58,12.82-8.78,17.27-.63,1.27-2.08,2.02-2.2,2.26l-46,6v-92h62Z"/>
  <path class="st4" d="M1024,170v2c-43.65.11-87.35-.14-131,0,.41-1.67,2.16-2.13,3-3l128,1Z"/>
  <path class="st4" d="M513,0v77c-.66.05-1.35-.07-2,0V0h2Z"/>
  <path class="st4" d="M854,0v72c-.3,1.35-1.44,1.43-2,2V0h2Z"/>
  <path class="st4" d="M63,341c-.37.83-.97.94-1,1H0v-2l63,1Z"/>
  <path class="st6" d="M171,633c4.39,15.47,12.8,29.71,18,45h-43c3.99,9.24,8.42,18.39,12.92,27.38.57,1.14,2.01.52,2.08.62.19.28-.18,2.66.47,3.99,2.15,4.35,4.4,8.66,6.53,13.01h-24l2,5h-19l29,62h-25l18,38c-31.74,4-64.68,9.55-96,16l52.96-114.54c.31-2-.07-1.28-1.45-1.46-2.65-.34-5.79.25-8.51,0l2-5.99,34.51-65.99c1.8-2.57,2.92,2.95,3.99,2.97,1.67.03,10.12-22.81,11.5-25.98,3.64-8.36,7.52-16.76,11.5-24.98l11.5,24.98Z"/>
  <path class="st11" d="M239,704c-6.21,12.72-18.67,35.61-22.54,47.96-.32,1.03-.65,1.93-.46,3.04h14l-16.82,30.69-.18,2.3,9,.02c-3.45,9.7-14.23,22.28-16.98,31.52-.95,3.21,6.78-.05,7.98,2.47-21.34,1.59-42.76,3.32-64,6l-18-38h25l-29-62h19l-2-5h24c-2.13-4.35-4.39-8.66-6.53-13.01-.65-1.32-.28-3.7-.47-3.99,25.93-2.54,51.96-4.3,78-2Z"/>
  <path class="st6" d="M239,704c1.36-2.78,3.31-7.41,4.75-9.73.5-.8.78-2.76,2.24-1.27.46.46,3.33,9.68,5.01,12,.6.83.72,1.65,2,2v1c.75,4.2,3.08,9.74,6,13,.11.29-.11.71,0,1,1.46,3.86,2.87,9.46,6,12,.11.29-.11.71,0,1,2.5,6.41,5.82,12.46,8,18.99-5.4-.35-10.73.43-15.99,1.5l15.99,31.51c-.23.37-.62.8-1,1-3.95.38-8.72-.54-12.52,0-1.32.19-1.79-.54-1.49,1.51.53,3.72,10.22,18.27,12.55,23.48.74,1.65,1.69,3.08,1.47,5.02-5.34.16-14.2,2-19.5,2h-21c-4.92,0-12.88,1.58-18.5,2-1.2-2.52-8.93.74-7.98-2.47,2.75-9.24,13.53-21.82,16.98-31.52l-9-.02.18-2.3,16.82-30.69h-14c-.19-1.11.14-2,.46-3.04,3.87-12.35,16.33-35.24,22.54-47.96Z"/>
  <path class="st11" d="M445,826c1.54-1.44,3.54-1.16,5.46-1.01,32.67,2.48,68.31,10.17,101.05,15.05,1.87.28,4.05-1.26,3.49,1.96-34.93-2.08-74.21-12.01-110-16Z"/>
  <path class="st11" d="M272,788c-3.42,1.8-7.23,2.04-11.01,2-.02.81-.06,1.62.05,2.44.45,3.41,9.61,18.45,11.97,21.28.73.87.4,3.02,1.64,3.33,31.33-.37,62.69-.08,93.89.95,1.92.06,4.01-1.02,3.45,2-32.39-1.75-67.87-2.95-100-2,.22-1.94-.74-3.37-1.47-5.02-2.32-5.21-12.01-19.75-12.55-23.48-.29-2.04.18-1.32,1.49-1.51,3.81-.54,8.57.39,12.52,0Z"/>
  <path class="st11" d="M375,820c2.84-1.64,7.34-1.22,10.54-1.04,17.94.99,36.1,3.13,53.97,5.07,1.89.2,4.04-1.22,3.49,1.97-22.5-2.45-45.41-4.74-68-6Z"/>
  <path class="st11" d="M573,844c-5.2-.53-11-.49-16-2,.23.01,2.06-1.09,4.42-1.04s10.27.77,11.58,3.04Z"/>
  <path class="st8" d="M342,472v-130h169l-1,131c-30.28,11.64-59.9,24.95-90,37-24.72-14.02-51.74-27.09-78-38Z"/>
  <path class="st12" d="M289,343l-27,62h16l-17.98,34.53c-.28,2.02.08,1.29,1.46,1.47,2.65.35,5.79-.26,8.52,0,.86.64-3.84,5.67-4,5.99l-50-11c-.07-.16-1.28-.65-1.75-1.72-4.59-10.34-8.9-20.85-13.26-31.28-.71-.55-2.12,2.17-2.54,2.95-3.91,7.26-7.94,17.28-11.45,25.05-4.96-.72-10.02-1.44-15-2v-87.01s117,1.01,117,1.01Z"/>
  <path class="st12" d="M170,279c-.03,20.32.02,40.68,0,61h-76v2h76v86c-.11-.01-.77.9-1.48.83-23.15-2.35-46.22-4.14-69.52-3.83-2.92-5.93-7.72-11.34-9-18h15l-16-36h16c-4.7-15.76-15.62-31.38-20-47,1.34,1.01,6.75.76,7.01,1,1.18,1.14-3.95,5.4,3.45,9.04,5.23,2.57,14.25,4.52,19.83,2.75,1.84-.59,2.47-2.86,4.44-3.56,2.94-1.03,8.54-.44,11.26-1.74,3.24-1.55,2.75-7.16,3.05-7.45.37-.35,7.84-.42,10.18-1.32,3.59-1.38,6.21-7.54,9.59-5.5.72.43.73,3.34,2.67,2.78.67-.16,7-10.38,7.3-11.71.35-1.57,2.17-15.34,2.21-16.91.07-2.41-2.2-3.43-1.89-5.65.14-1.03,3.83-7.18,5.88-6.73ZM167,332.99c1.07-.94-2.03-4.06-2.99-2.99-1.5,1.69,1.28,4.5,2.99,2.99Z"/>
  <path class="st11" d="M391,602h-45l19,43h-68l33.48-71.02c2.45-2.41,1.58,3.27,4.51,2.02l22.51-51,33.5,77Z"/>
  <path class="st14" d="M291,344l26,61h-16l16,36h-15c2.37,4.52,6.76,19.22,11,21l5,13h-65c3.96-8.15,8.23-16.18,12.22-24.32.66-1.34.48-3.07.78-3.68.16-.32,4.86-5.35,4-5.99-2.73-.27-5.87.34-8.52,0-1.38-.18-1.74.55-1.46-1.47l17.98-34.53h-16l27-62,2,1Z"/>
  <path class="st14" d="M79,310c.51,1.38.93,3.98,2,5l1,2c-.16,1.41-.2,1.54,1,2l1,2c-.11,2.13.8,2.28,1,3,4.38,15.62,15.3,31.24,20,47h-16l16,36h-15c1.28,6.66,6.08,12.07,9,18,2.13,4.33,4.51,10.53,6,15H41c2.66-3.22,3.48-8.95,5-12,.12-.24,1.57-.99,2.2-2.26,2.2-4.45,7.61-13.32,8.78-17.27,1.06-3.55-11.38.59-9.97-2.95l17.99-34.52h-15c3.66-9.76,7.78-19.48,12-29,.03-.06.63-.17,1-1,1.77-3.98,3.32-9.3,5-13,2.27-4.99,5.43-11.77,7.95-16.55.9-1.7.78-3.25,3.05-1.45Z"/>
  <path class="st12" d="M291,344c-.56-3.03,1.53-1.92,3.45-2,15.47-.61,31.08.45,46.55,0l-1,129c-8.15-3.35-18.95-5.63-27-9-4.24-1.78-8.63-16.48-11-21h15l-16-36h16l-26-61Z"/>
  <path class="st1" d="M538,592c0,27.98.02,56.02,0,84-7.02.73-17.02-1.35-24-3s-16.19-5.44-22-9c-4.3-2.63-11.33-8.6-16-12-14.19-10.31-27.17-22.62-42-32-.05-.34.08-.71,0-1,25.39-1.6,50.99-.75,76.29-3.21l12.19-7.81,15.52-15.98Z"/>
  <path class="st11" d="M216,436c.97,2.2,1.6,5.91,2.83,8.67,3,6.76,7.06,13.16,9.17,20.33h-17l16,36h-57l18-36h-15c4.04-11.31,9-22.93,14-34,3.51-7.77,7.54-17.79,11.45-25.05.42-.78,1.83-3.49,2.54-2.95,4.36,10.43,8.67,20.95,13.26,31.28.47,1.06,1.68,1.56,1.75,1.72Z"/>
  <path class="st11" d="M538,568c1.63,3.41,11.26,25.7,12.67,26.04,1.81.44,8.61.27,9.86-1.01,2.84-7.66,7.02-14.68,10.47-22.03,4.63,10.35,8.29,22.6,9,34,.95,15.14-3.25,37.35-12,50-3.35,4.84-16.76,16.56-22,19-1.27.59-6.39,1.83-8,2,.02-27.98,0-56.02,0-84v-24Z"/>
  <path class="st11" d="M148,633l-.22-4.72,32.23-73.28,33.99,77.99h-43s-11.5-24.98-11.5-24.98c-3.98,8.22-7.86,16.62-11.5,24.98Z"/>
  <path class="st0" d="M476,652c-2.81,15.46-13.92,29.9-29,35-.79.27-1.67.92-2,1-3.93.95-7.11.8-11,1-1.09-21.93,1.46-45.24,0-67-.04-.65.09-1.36,0-2,14.83,9.38,27.81,21.69,42,32Z"/>
  <path class="st5" d="M492,664c-4.86,11.7-13.55,18.22-24,24.5v61.5l-21-63c15.08-5.1,26.19-19.54,29-35,4.67,3.4,11.7,9.37,16,12Z"/>
  <path class="st5" d="M538,676c-.02,21.25.81,43.37,0,64.51-.05,1.21.75,3.72-.99,3.48l-23.01-70.99c6.98,1.65,16.98,3.73,24,3Z"/>
  <path class="st5" d="M445,688l-21.76,56.72-2.24,1.28v-57c4.31-.16,8.7.22,13,0,3.89-.2,7.07-.05,11-1Z"/>
  <path class="st11" d="M561,740c-4.12,2.28-9.57,3.29-14.18,4.32-43.09,9.57-91.13,12.11-134.69,4-1.78-.33-3.72.39-3.13-2.32,56.7,7.64,96.04,6.74,152-6Z"/>
  <path class="st3" d="M434,622c-8.82.16-15.07-4.25-15.08-13.5,0-2.75.36-8.58,4.07-8.5,1.05,6.32,9.63,13.67,11.01,19,.08.29-.05.66,0,1,.09.64-.04,1.35,0,2Z"/>
  <path class="st11" d="M290,713c-12.23-2.36-24.67-4.22-37-6-1.28-.35-1.4-1.17-2-2,12.68,2.86,27.17,2.29,39,8Z"/>
  <path class="st11" d="M348,731c-19.08-5.64-37.82-12.63-57-18,19.63,3.82,39,9.25,57,18Z"/>
  <path class="st11" d="M407,746c-.12-.02-.89,1.16-2.31.96-18.15-2.53-38.89-8.93-55.69-15.96,19.18,5.66,38.22,11.61,58,15Z"/>
  <path class="st2" d="M979,642c.88,1.84,6.7,13.36,6,13.99-6.4-.42-12.68.72-18.99,1.5l18.99,37.51h-16c4.19,7.95,8.28,15.8,12,24,1.79,3.95,4.64,7.64,5,12h-78c1.51-2.13,2.01-4.71,3-7,4.15-9.59,10.16-18.28,14.98-27.53.28-2.02-.08-1.29-1.46-1.47-1.91-.25-10.13.37-10.51,0l.18-2.3,19.81-35.2-16.99-1.5c4.36-9.28,8.51-18.78,13-27.99,6.85-14.06,14.24-28.1,21.5-41.98,9.31,18.57,18.54,37.25,27.5,55.98Z"/>
  <path class="st10" d="M838,762c.59,25.81-27.42,45.22-50,50.5-22.41,5.24-36.1,2.87-57-3.5,4.63-9.72,7.2-17.32,5.89-28.39-.44-3.7-4.13-11.03-3.93-13.07.29-2.85,3.75-3.95,5.03-5.54,17.73-1.35,35.71-1.3,53.54-1.04,2.96.04,6.04.94,9.46,1.04,5.45.16,9.41.09,14.51-2.08l22.49,2.08Z"/>
  <path class="st3" d="M757,710l1.01,7c32.32-12.64,79.12,6.82,79.99,45l-22.49-2.08c-5.09,2.17-9.06,2.24-14.51,2.08-.98-1.6-2.74-1.73-4.35-2.15-10.83-2.77-21.88-4.74-33.13-3.84-7.42.59-16.3,4.59-23.52,2.98,6.88-7.92,14.16-15.53,21-23.5-5.37-.05-13.64,3.53-18,6.5,2.62-4.41-1.89-8.85-3.4-12.1-1.01-2.18-1.14-5.2-2.57-7.16-1.75-2.4-7.74-4.11-7.03-8.74,2.83.17,5.18-.07,8,1,3.7,1.41,16.47,14.07,18.51,13.98,2.95-.14.64-16.26.49-18.98Z"/>
  <path class="st5" d="M714,751l2,3c.12.27-.12.71,0,1,1.98,4.91,2.78,10.4,5,15,.44.91,3.29,5.42,4.47,4.97,2.39-1.93,3.51-3.13,4.53-5.97,1.24-3.44,1.06-8,2-11,.7-2.24,4.52-8.99,6-11s2.94-3.59,5-5c4.36-2.98,12.63-6.55,18-6.5-6.84,7.97-14.12,15.59-21,23.5-.96,1.1-1.36,2.21-2,3-1.28,1.59-4.75,2.69-5.03,5.54-.2,2.03,3.49,9.37,3.93,13.07,1.31,11.07-1.27,18.67-5.89,28.39-7.32-2.23-12.39-2.79-20.03-6.47-3.26-1.57-24.52-14.27-24.97-16.04-.34-1.33,8.06-7.23,9.69-8.3,6.55-4.3,13.89-7.71,21.31-10.21.62-.82-4.54-6.91-5.48-8-6.77-7.83-13.85-15.33-20.54-23.24-.76-.89-1.86-.73-1.93-.81-.5-.56.92-.85.96-.93,10.88,2.77,17.91,6.34,24,16Z"/>
  <path class="st10" d="M730,714c-.71,4.63,5.28,6.34,7.03,8.74,1.43,1.96,1.56,4.98,2.57,7.16,1.51,3.25,6.02,7.69,3.4,12.1-2.06,1.41-3.52,3-5,5-7.16,9.74-7.45.13-11.06-2.44-.34-.24-7.27-3.24-7.72-3.35-5.57-1.31-12.99,6.39-14.02-4.45,2.78-3.14,2.38-7.74,4.03-11.04,1.82-3.64,7.69-7.25,8.78-11.72,3.6-.27,8.37-.22,12,0Z"/>
  <path class="st0" d="M712,715c-1.07.5-18.12,13.1-19,14v-34c6.41,6.18,14.46,12.37,19,20Z"/>
  <path class="st0" d="M757,699c.31,3.57-.2,7.39,0,11,.15,2.72,2.46,18.84-.49,18.98-2.03.1-14.8-12.56-18.51-13.98l18-19c1.19,0,.92,2.12,1,3Z"/>
  <path class="st3" d="M718,714c-1.09,4.47-6.96,8.08-8.78,11.72-1.65,3.3-1.25,7.9-4.03,11.04,1.04,10.85,8.46,3.14,14.02,4.45.45.1,7.38,3.1,7.72,3.35,3.61,2.57,3.9,12.18,11.06,2.44-1.48,2.01-5.3,8.76-6,11-2.48.39-4.45-1.75-6.59-2-3.56-.42-6.39,2.44-9.41-1-.12-.29.12-.73,0-1-1-2.24-1.4-2.05-2-3-6.09-9.66-13.12-13.23-24-16,.46-1.04,2.6-5.59,3-6,.88-.9,17.93-13.5,19-14,1.77-.82,4.07-.85,6-1Z"/>
  <path class="st6" d="M981,719l8,13h-83l5-8c-.99,2.29-1.49,4.87-3,7h78c-.36-4.36-3.21-8.05-5-12Z"/>
  <path class="st11" d="M265,735l9.79,16.78c.17.75-.58,4.22-.79,4.22h-15c4.02,10,10.52,19.23,14.26,29.35.75,2.05.19.95-.26,1.65l-15.99-31.51c5.26-1.06,10.58-1.85,15.99-1.5-2.18-6.53-5.5-12.58-8-18.99Z"/>
  <path class="st11" d="M595,729c-1.19,2.18-4.77,2.66-7.07,3.43-6.31,2.14-12.48,3.91-18.93,5.57.62-2.05,2.56-1.86,4.17-2.33,7.25-2.13,14.68-4.29,21.83-6.67Z"/>
  <path class="st11" d="M633,713c-1.6,3.31-5.39,3.11-8,4,1.5-3.37,5.59-3.04,8-4Z"/>
  <path class="st11" d="M259,722l5.23,8.31c.9,1.03.44,2.85.77,3.69-3.13-2.54-4.54-8.14-6-12Z"/>
  <path class="st11" d="M624,717c-6.83,4.59-15.25,7.28-23,10,6.93-3.96,15.39-7.33,23-10Z"/>
  <path class="st11" d="M253,708c3.18,4.04,4.17,8.28,6,13-2.92-3.26-5.25-8.8-6-13Z"/>
  <path class="st3" d="M757,699c-.08-.88.19-2.99-1-3l.49-.98c1.27.97,1.9,1.78,1.45,3.43l-.94.55Z"/>
  <path class="st11" d="M600,727l-4,2c.59-.2,2.17-1.36,4-2Z"/>
  <path class="st11" d="M568,738l-.51.99-1.49-.99c.59-.14,1.42.15,2,0Z"/>
  <path class="st11" d="M564,739l-2,1c.17-.04.94-.74,2-1Z"/>
  <path class="st11" d="M635,712c1.36-1.51,3.26-2.12,5-3-.91,2.41-3.1,2.31-5,3Z"/>
  <path class="st11" d="M647,706l-4,2c1.29-.65,2.76-1.34,4-2Z"/>
  <path class="st8" d="M514,471l-1-129h169v79c-56.95,11.88-113.7,29.33-168,50Z"/>
  <path class="st8" d="M852,342c-.75,4.12,1.99,10.86-2,13-30.77,2.08-59.28,22.56-71.19,50.81-11.64,1.89-23.5,2.61-35.16,4.33-18.09,2.67-36.74,5.28-54.64,8.86l-5.02-.58v-75.43c55.9-1.8,112.05-.93,168.02-.99Z"/>
  <path class="st11" d="M858,398l3.01,53,36.99-29.99c-10.25,14.39-24.85,26.73-35,40.99-.36.51-1.87.44-2.02,2.49,1.81,9.67.64,19.72,2.03,29.51l6.99-7c7.24-5.4,13.86-13.33,21-19l1,1c-9.4,11.75-18.25,24.04-27.79,35.71.08,16.4.93,32.85,1.79,49.29v2c.22,3.3,1.6,6.52,1,10-6.64,2.03-13.37,3.96-20,6,.21-4.82-.28-9.72-.04-14.54.75-15.44,3.1-32.11,3.04-47.46,0-1.35-.32-5.51-.91-6.53-1.54-2.64-12.95-13-16.08-15.98-13.63-13-28.37-24.99-42.01-37.99.7-1.38,2.63-.06,3.56.44,10.11,5.38,20.27,16.46,31.44,21.06l24.99,16.99c1.38-28.84,2.78-57.84,4.99-86.56l2.02-3.43Z"/>
  <path class="st9" d="M847,394v33c-26.06.33-26.2,40.33,0,41v4c-3.64,1.12-11.27-.69-15-2-.26-.09-3.32-1.65-4-2-8.43-4.35-22-19.93-22-29.5v-44.5c3.23.2,5.36,4.67,8.53,4.97,2.82.27,8.07-2,11.95-2.05s9.41,2.27,11.81,1.89c2.86-.45,5.51-5.24,8.7-4.82ZM810.32,406.32c-10.16,9.28,8.29,26.81,18.09,25.65,8.7-1.02,23.39-17.29,13.55-25.43-8.93-7.39-14.41,2.44-15.45,2.44-.92,0-7.97-10.17-16.18-2.66Z"/>
  <path class="st1" d="M569,552c2.09.63,6.07,3.7,8,4-1.26,5.17-3.76,10.23-6,15-3.45,7.35-7.64,14.37-10.47,22.03-1.25,1.28-8.05,1.44-9.86,1.01-1.41-.34-11.04-22.63-12.67-26.04-1.87-3.91-3.9-7.77-5-12,3-.15,6.16-3.08,9-4,8.61-2.8,18.32-2.64,27,0Z"/>
  <path class="st11" d="M569,552c2.86-10.67,14.94-16.79,24.99-19,1.4,8.43-7.42,24.48-16.99,23-1.93-.3-5.91-3.37-8-4Z"/>
  <path class="st11" d="M542,552c-2.84.92-6,3.85-9,4-9.22.45-17.54-14.69-15.99-23,10.26,2.21,21.75,8.27,24.99,19Z"/>
  <path class="st6" d="M858,398l-2.02,3.43c-2.21,28.72-3.61,57.72-4.99,86.56l-24.99-16.99c2.67.47,2.04-.63,2-3,.68.35,3.74,1.91,4,2-2.91,5.8,3.53,5.71,5.68,7.33,1.78,1.35,9.82,10.08,12.31,7.67l3.97-86.32c.2-.81,3.87-2.71,4.04-.68Z"/>
  <path class="st6" d="M847,472v-78c1.53.2.91,1.34,1.02,2.48.76,7.8-1.06,17.34.07,24.94.41,2.76,2.91,5.87,2.9,7.09-.02,2.04-2.92,10.83-2.98,15.02-.07,4.71,3.3,27.15-1,28.48Z"/>
  <path class="st6" d="M847,572c-.3.09-.7-.09-1,0-1.71-5.65-.43-13.37-.04-19.54.08-1.29,1.04-2.61,1.04-2.96v-24c0-.34.94-1.68,1.04-2.96.3-4.13-1.42-9.6,1.96-12.54.06,15.35-2.29,32.02-3.04,47.46-.24,4.82.25,9.72.04,14.54Z"/>
  <path class="st6" d="M863,462l1.01,27.99c2.63.46,4.09-1.57,5.99-2.99l-6.99,7c-1.39-9.8-.22-19.84-2.03-29.51.14-2.04,1.65-1.97,2.02-2.49Z"/>
  <path class="st7" d="M854,342v12.01c3.16.08,6.37-.13,9.55,0,1.93.08,4.01-1.03,3.45,2-5.87-.71-10.89-1.41-17-1,3.99-2.14,1.25-8.88,2-13,.67,0,1.33,0,2,0Z"/>
  <path class="st1" d="M892,469l-1-1,7.99-7.99c-.43,3.82-5.11,6.64-6.99,8.99Z"/>
  <path class="st7" d="M872,356c-1-.03-2,.04-3,0,1.55-2.03,2.3-.19,3,0Z"/>
  <path class="st13" d="M866,556v-2c.04.85-.01,1.79,0,2Z"/>
  <path class="st11" d="M132.64,111.07l12.29,11.56-11.43,12.34c-1.55-2.27-11.11-9.98-11.39-11.62-.4-2.33,8.44-10.43,10.53-12.29Z"/>
  <path class="st6" d="M896,169c-.84.87-2.59,1.33-3,3-1,0-2.01,0-3,0-.41-1.67-2.16-2.13-3-3-1.61-1.67-3.01-3.99-4.98-5.5l9.48-9.48,9.48,9.48c-1.98,1.51-3.38,3.83-4.98,5.5Z"/>
  <path class="st7" d="M513,77c6.77-.5,14.35-.17,21,1.01-5.22,5.02-20.13,11.64-21,18.99-.87-.02-1.36.58-2,1-8.8,5.82-17.27,32.22-17.99,42.51-.88,12.74,1.4,18.44,4.99,29.49.18.54-.18,1.49,0,2,2.48,7.04,6.96,18.6,13,23,.64.46,1.08,1.05,2,1,.57,4.91,8.02,10.45,12.09,13.41,15.32,11.15,32.46,15.59,51.4,14.57,4.37-.24,9.07-2.37,13.52-1.48-16.96,23.12-48.76,34.8-77.01,32.49-.2-.02-1.07-.89-2-1-43.92-5.38-73.99-38.48-78-82-.05-.56-.97-1.48-1-2-2.22-45.6,33.34-88.31,79-93,.65-.07,1.34.05,2,0Z"/>
  <path class="st6" d="M856,101c-1.05-.48-3.23-.49-4-1-1.09-.72-12.04-12.6-12.04-13.5,2.71-5.06,8.09-8.48,12.04-12.5.56-.57,1.7-.65,2-2,3.04.7,15.03,12.86,15.04,14.5-3.39,5.67-9.17,9.22-13.04,14.5Z"/>
  <path class="st11" d="M303.7,65.11c2.85-.74,7.97,6.52,10.23,8.53.24,1.35-7.94,9.4-9.43,9.4-2.13,0-7.52-6.91-9.43-8.67-.2-1.13,7.52-8.97,8.63-9.26Z"/>
  <polygon class="st11" points="725.5 81.02 736.93 92.64 726.39 104.96 714.07 93.36 725.5 81.02"/>
  <path class="st12" d="M170,231c.02,14.98.02,30.02,0,45-3.12.55-1.83-1.56-1.99-3.47-1.07-12.87-.53-25.15-.01-38.08.08-1.93-1.03-4.01,2-3.45Z"/>
  <path class="st12" d="M79,310c-2.27-1.8-2.16-.26-3.05,1.45-2.51,4.79-5.67,11.56-7.95,16.55-.16-2.1-.18-3.9.55-5.94.47-1.29,4.16-5.26,4.36-5.85.89-2.64-.03-11.67,4.58-10.21,1.83.58,1.18,3.09,1.51,3.99Z"/>
  <path class="st12" d="M170,224c0,1.67,0,3.33,0,5-3.27,1-2.95-6.27,0-5Z"/>
  <path class="st12" d="M83,319c.45.17,1.38-.15,2,0,.38.99-.99,1.87-1,1.99l-1-2Z"/>
  <path class="st12" d="M81,315c.22.21,1.7-.27,2,.01.62.58-.99,1.86-1,1.99l-1-2Z"/>
  <path class="st8" d="M684,252v-80h168v168h-168v-68c2.96-2.87,5.83-6.74,8.93-9.64.15-.88-7.64-9.12-8.93-10.36ZM772.64,198.07l-8.56,9.29,9.43,9.62,9.48-9.48-10.34-9.43Z"/>
  <path class="st8" d="M340,172v168h-168v-168h168ZM251.5,185.02c-1.9,2.53-14.76,13.47-14.43,15.34,2.27,2.08,13.53,14.88,15.29,14.56l14.62-14.43-15.48-15.48ZM232.99,265.98c1.17-1.67-8.08-9.04-9.49-10.96-1.52,2.14-8.54,7.2-8.54,9.48,0,2.14,6.91,7.5,8.67,9.43,2.51.45,5.64-8.4,9.36-7.95Z"/>
  <path class="st8" d="M513,196c-.87-7.46.64-16.36,0-24h169l-1,77c-.58-.46-2.02-1.65-2.49-1.67-2.85-.12-11.73,11.85-14.44,14.3-.35,1.89,12.16,12.36,13.93,14.94.87.39,2.3-1.01,3-1.57v65h-168v-85c28.25,2.31,60.05-9.37,77.01-32.49-4.45-.89-9.15,1.24-13.52,1.48-18.94,1.02-36.08-3.42-51.4-14.57-4.07-2.96-11.52-8.5-12.09-13.41Z"/>
  <path class="st8" d="M433,172c4.01,43.52,34.08,76.62,78,82v86h-169v-168h91ZM382.64,267.07l-11.56,12.29,12.29,11.56,11.56-12.29-12.29-11.56Z"/>
  <path class="st12" d="M511,98v72.01s-13,0-13,0c-3.59-11.05-5.87-16.74-4.99-29.49.71-10.3,9.19-36.69,17.99-42.51Z"/>
  <path class="st6" d="M681,249c.52.41,2.17,2.2,3,3,1.29,1.24,9.08,9.48,8.93,10.36-3.1,2.9-5.97,6.77-8.93,9.64-.83.8-2.47,2.58-3,3-.7.55-2.13,1.96-3,1.57-1.78-2.58-14.29-13.05-13.93-14.94,2.72-2.45,11.59-14.42,14.44-14.3.47.02,1.91,1.21,2.49,1.67Z"/>
  <path class="st12" d="M498,172h13.01s0,23,0,23c-6.04-4.4-10.52-15.96-13-23Z"/>
  <path class="st8" d="M167,332.99c-1.71,1.51-4.49-1.3-2.99-2.99.96-1.07,4.06,2.05,2.99,2.99Z"/>
  <path class="st5" d="M568,655v81.99s-22-62.99-22-62.99c5.24-2.44,18.65-14.16,22-19Z"/>
  <path class="st11" d="M801,762c-3.43-.1-6.5-1-9.46-1.04-17.83-.26-35.81-.3-53.54,1.04.64-.79,1.04-1.9,2-3,7.22,1.6,16.1-2.39,23.52-2.98,11.25-.9,22.3,1.07,33.13,3.84,1.61.41,3.37.55,4.35,2.15Z"/>
  <path class="st10" d="M732,758c-.94,3-.76,7.56-2,11-2.82.38-6.95-1.08-9,1-2.22-4.6-3.02-10.09-5-15,3.02,3.44,5.85.59,9.41,1,2.15.25,4.11,2.38,6.59,2Z"/>
  <path class="st14" d="M730,769c-1.02,2.84-2.14,4.04-4.53,5.97-1.17.45-4.02-4.06-4.47-4.97,2.05-2.08,6.18-.62,9-1Z"/>
  <path class="st10" d="M716,754l-2-3c.6.95,1,.76,2,3Z"/>
  <path class="st5" d="M810.32,406.32c8.21-7.5,15.27,2.66,16.18,2.66,1.04,0,6.53-9.83,15.45-2.44,9.83,8.14-4.85,24.41-13.55,25.43-9.8,1.15-28.24-16.38-18.09-25.65ZM819.75,411.25c-5.19-5.21-9.54,6.96-2.39,6.45,3.32-.24,4.45-4.38,2.39-6.45ZM833.64,411.13c-4.37,1.43-.35,8.74,4.42,5.43,2.82-1.96.56-7.06-4.42-5.43ZM829,418.01h-4.99c-.22,2.28.77,4.5,2.5,5.97l2.5-5.97Z"/>
  <path class="st11" d="M847,427v41c-26.2-.67-26.06-40.67,0-41Z"/>
  <polygon class="st9" points="772.64 198.07 782.98 207.5 773.5 216.98 764.07 207.36 772.64 198.07"/>
  <path class="st9" d="M251.5,185.02l15.48,15.48-14.62,14.43c-1.76.31-13.02-12.48-15.29-14.56-.33-1.87,12.53-12.82,14.43-15.34Z"/>
  <path class="st6" d="M232.99,265.98c-3.73-.46-6.85,8.4-9.36,7.95-1.76-1.93-8.67-7.29-8.67-9.43,0-2.29,7.02-7.34,8.54-9.48,1.41,1.92,10.66,9.29,9.49,10.96Z"/>
  <rect class="st6" x="374.56" y="270.56" width="16.88" height="16.88" transform="translate(-82.65 366.73) rotate(-46.74)"/>
  <path class="st11" d="M819.75,411.25c2.06,2.07.93,6.22-2.39,6.45-7.16.51-2.8-11.66,2.39-6.45Z"/>
  <path class="st11" d="M833.64,411.13c4.97-1.63,7.24,3.46,4.42,5.43-4.77,3.32-8.78-3.99-4.42-5.43Z"/>
  <path class="st9" d="M829,418.01l-2.5,5.97c-1.72-1.48-2.72-3.7-2.5-5.97h4.99Z"/>
</svg>