<?xml version="1.0" encoding="UTF-8"?>
<svg id="Layer_1" xmlns="http://www.w3.org/2000/svg" version="1.1" viewBox="0 0 4636 4636">
  <!-- Generator: Adobe Illustrator 29.8.4, SVG Export Plug-In . SVG Version: 2.1.1 Build 6)  -->
  <defs>
    <style>
      .st0 {
        fill: #8fa6ca;
      }

      .st1 {
        fill: #b9aca4;
      }

      .st2 {
        fill: #96b590;
      }

      .st3 {
        fill: #90a6ca;
      }

      .st4 {
        fill: #f9f1de;
      }

      .st5 {
        fill: #b5a9a0;
      }

      .st6 {
        fill: #e9ddc4;
      }

      .st7 {
        fill: #cec4bb;
      }

      .st8 {
        fill: #789470;
      }

      .st9 {
        fill: #d89675;
      }

      .st10 {
        fill: #a3bf98;
      }

      .st11 {
        fill: #a19489;
      }

      .st12 {
        fill: #cac1b9;
      }

      .st13 {
        fill: #a2b5d6;
      }

      .st14 {
        fill: #90a6cb;
      }

      .st15 {
        fill: #86a783;
      }
    </style>
  </defs>
  <path class="st9" d="M1860,3800c19.88,1.59,40.29,2.23,60,4,222.93,20,443.78,66.04,666.5,91.5,326.38,37.32,656.05,45.86,983.47,20.46,86.04-6.67,171.95-20.58,258.03-23.97,1.68,157.46,6.43,316.48,8.16,473.84.99,90.02-1.08,180.19-.16,270.16H1040c.21-281.28-.28-562.72,0-844,272.96-18.43,547.18-13.81,820,8Z"/>
  <path class="st7" d="M3996,1288c.29,62-.32,124.12-.18,186.17.02,9,4.16,17.12,4.18,25.83.03,17.54-4.36,42.2-4,64,.16,9.5-2.62,20.35,4,28-2.86,49.22-1.57,108.42-.16,158.17.4,14.03,5.95,26.16,4.16,41.83-.21,1.86-10.96,15.25,1.96,12.03,4.74-1.18.55-9.55,2.04-12.03,50.23-83.57,94.07-169.78,140-256,34.18-64.16,70.5-127.46,104-192,.3.43,5.9-1.3,7.23.67,2.39,3.58,16.09,26.91,16.05,28.54-.18,8.17-9.63,28.65-10.19,41.89-.92,21.78,7.21,63.46-8.98,83.15-3.16,3.85-11.23,4.48-12.26,8.55-1.78,7.03,3.18,30.77,4.16,41.19-86.38,168.78-159.26,344.65-243.1,514.9,2.54,84.34,2.54,168.7,3.1,253.1.02,2.67-.02,5.33,0,8,1.44,193.31,5.62,387.01,8,580,1.47,119.32,1.9,238.95,4.16,357.84,1.03,54-1.14,108.2-.12,162.16,79.97-75.2,152.2-158.44,229.89-236.07,4.04-67.84,1.77-136.04,2.07-203.93,36.13-26.2,35.03,23.86,38.06,24.07,15.55,1.04,61.29-13.33,58.22-33.8-.63-4.23-15.55-3.87-12.26-14.25,24.68-7.41,10.67,19.9,31.98,15.98.21,27.94-.17,56.04.02,83.98,7.7,1.89,7.7-2.82,11.24-6.72,20.17-22.17,40.81-48.78,60.74-69.26.69-.71,7.89-1.39,12.09-5.72,61.41-63.28,120.77-128.74,183.91-190.28v80c-28.69,30.41-56.92,62.14-83.89,94.11-12.75,15.11-25,36.81-36.11,49.89-5,5.9-15.72,12.43-22.06,19.95-40.84,48.43-80.88,97.55-123.87,144.12-4.05,47.81-1.77,96.04-2.07,143.93-16.26,1.39-9.72.25-12.06-9.76-2.38-10.19-24.68-73.01-30.01-74.24-8.95-2.07-36.64,39.78-43.88,48.05-10.27,11.73-20.59,25.13-30.06,35.94-76.15,86.96-153.88,173.12-227.19,262.81-1.11,92.35-1.31,184.87-.81,277.19,1.42,258.61,7.99,517.35,8,776h-196c-.92-89.98,1.16-180.14.16-270.16-1.73-157.36-6.49-316.38-8.16-473.84-3.48-326.6-3.61-653.42-8-980-.54-40.42,2.89-81.23-4.95-121.05-182.54-158.38-373.71-309.17-559.37-464.81-3.58-2.74-7.73-1.68-11.67-2.14.25-3.7-2.19-5.45-4-8-28.12-39.6-101.38-83.76-140-116-3.12-2.6-7.64-3.65-8-4-1.09-1.07-1.59-9.05-7.72-14.17-116.76-97.37-233.92-194.46-352.28-289.83,5.41-10.23,11.05-25.61,8-36-1.93-6.58-12.19-26.61-16-32l18.22-.41c116.27,93.27,239.4,178.25,357.78,268.41,13.63,10.38,28.45,24.16,44,36,14.45,11,29.84,21.16,44,32,34.34,26.3,65.57,58.65,104,80-2.56,7.78.27,33.58,3.7,42.3,16.08,40.89,86.3,51.91,124.3,49.7,17.79,20.17,42.57,42.41,68,52,13.29,26.6,45.38,70.95,67.94,90.1,4.93,4.19,9.91,7.77,16.06,9.9,14.97,80.26,131,141.5,208,120,1.46,6.33,32.97,31.44,35.98,27.98l.02-43.98c26.33-13.16,42.54-29.37,64-48,170.12-147.7,151.58-438.48-72-524v-172c76.43-60.91,78.89-205.05,0-264-.7-9.99,1.12-20.33.16-30.31-.49-5.12-4.13-9.16-4.16-9.69-5.5-81.84,4.09-169.53,0-252,63.94.27,128.06-.05,192,0Z"/>
  <path class="st9" d="M820,3812c-5.15,274.61-9.45,549.44-16,824H0v-684c102.67-22.58,204.69-48.08,308-68,51.6-9.95,104.15-19.53,156-28,117.75-19.24,236.83-36.2,356-44Z"/>
  <path class="st4" d="M592,1456c10.71,56.6,25.09,112.44,40,168,1.19,4.45,3.01,8.35,4,12,1.18,4.35,3.9,7.56,4,8,.98,4.3-.43,10.96,0,16,.29,3.38.08,6.93,4,8-.51,3.28-.27,8.48,0,12,3.22,41.55,29.51,115.49,40,160,1.26,5.35,2.73,10.65,4,16,25.51,107.92,50,216.2,76,324,24.44,101.34,48.37,202.95,73.96,304.04l6,3.96c.07-66.61.04-133.39.04-200v-24c0-34.62,0-69.38,0-104v-16c27.23,26.35,70.65,39.6,108,40-.82,68.45,32.56,125.15,84,167.96-135.33,6.99-154.89,112.44-28,164.04-2.11,41.4-8.95,86.46-1.26,127.47,1.34,7.14-1.62,14.89,9.26,12.53-1.01,2.62-7.78,22.71-8,24-90.01-30.19-133.04,106.31-44.88,134.85,33.74,10.92,45.91-3.24,76.88-10.85.51,2.24-.24,5.39,0,8,6.17,66.03-4.62,140.98.04,208l131.96-152c7.79,0,37.68-5.04,44-8,136.02-4.79,250.65-122.89,260.15-257.85,1.5-21.25.5-74.34-4.15-94.15,24.93-26.32,48.81-54.25,72.18-81.98,2.97-3.52,2.9-8.92,3.82-10.02,1.18-1.41,2.79-2.54,4-4,14.86-17.87,69.21-68.65,72-88,.37-2.55-.25-5.4,0-8,2.99-.34,6.2.42,9.13-.82l220.71-259.42c3.73-4.66,5.36-9.95,6.15-15.76,9.08.37,10.67-5.6,15.27-10.73,16.12-18.01,29.94-39.7,44.73-57.27,10.62-12.62,31.91-24.43,36-44,27.95-.09,56.05.16,84,0-24.01,32.41-49.17,65.95-76,96-53.73,60.19-90.3,104.87-140,168-61.16,77.69-128.09,151.19-187.98,230.02l99.96-.04c-59.31,67.39-119.07,134.43-178.27,201.92-4.03,4.59-4.79,11.05-5.71,12.1-.85.97-4.24,3.72-8,8-128.89,146.89-259.78,292.33-388,440-3.01,3.47-7.66,6.99-12,12-33.66,38.88-67.46,77.85-101.93,116.07-4.23,16.78-1.64,34.77-2.07,51.93-4.38,175.29.18,352.51,0,528-.28,281.28.21,562.72,0,844h-76l.19-1322.19c.4-42.19-55.38-48.12-56.37-4l.18,1326.18h-104c6.55-274.56,10.85-549.39,16-824,3.4-181.55,8.79-362.99,12-544,.05-2.67-.05-5.33,0-8,.76-45.25-.7-90.74,0-136l2.7-4.81-2.7-3.19c.09-5.33-.08-10.67,0-16,.05-3.37-.06-8.93,0-12,1.05-54.09,3.14-109.35,4-164,5.46-4.92,5.57-10.94,0-16,.21-15.37,4-35.01,4-46v-104c0-38.85-44.44-180.72-56-230-2.04-8.71-6.45-17.45-8-24-15.43-65.28-32.67-132.06-48-196-.82-3.42.82-8.58,0-12l-4-4c-1.88-7.82-1.33-16.85-4-28l-4-8c-.82-3.42.82-8.57,0-12v-4c-1.12-4.68-3.2-8.65-4-12v-4c-1.12-4.69-3.2-8.66-4-12v-4c-1.08-4.53-3.17-8.53-4-12l-4-8c-.56-2.36.56-5.64,0-8l-4-8c-.82-3.43.82-8.57,0-12v-4c-1.11-4.68-3.21-8.68-4-12v-4c-2.52-10.68-5.51-21.31-8-32l-4-4c-.81-3.45.8-8.55,0-12v-4c-1.1-4.71-3.24-8.71-4-12v-4c-1.09-4.73-3.25-8.73-4-12v-4c-1.11-4.72-3.22-8.7-4-12v-8c-1.12-4.79-3.25-8.77-4-12v-4c-1.12-4.68-3.21-8.67-4-12v-4c-1.13-4.75-3.12-8.51-4-12v-4c-1.38-5.42-3.26-9.23-4-12v-4c-1.51-5.18-2.16-10.99-4-16-.59-1.61-2.58-2.96-4-4-.37-2.55.31-5.41,0-8s.44-5.57,0-8c-2.26-12.41-11.37-55.46-16-64-1.12-2.07-1.18-3.29-4-4-.62-3.62.42-8.13,0-12v-4c-2.99-16.05-8.22-32.08-12-48v-4c-1.11-4.66-3.25-8.74-4-12v-4c-1.05-4.58-3.23-8.6-4-12l-4-8c-.54-2.39.54-5.62,0-8v-4c-.9-3.88-3.71-6.77-4-8-5.46-23.5-10.43-48.19-16-72-2.24-9.59-1.56-25.52-4-36l-4-4c-2.49-10.69-5.48-21.32-8-32l-4-4c-1.24-5.22.61-13.5-1.11-20.77-9.37-39.62-19.94-79.11-26.89-119.23,19.94.14,40.06.1,60,0Z"/>
  <path class="st0" d="M2316,0l.02,768.02-630.2-.02-13.82-8c72.15-22.98,152.52-82.14,188-149.89-73.46-29.56-158.65-22.35-231.98,5.88,7.03-31.06,17.8-61.68,20.13-93.83,1.54-21.24.4-102.81-10.21-118.1-4.83-6.96-7.19-3.16-12.78-.92-26.49,10.63-45.91,42.73-73.17,52.87V0h764Z"/>
  <path class="st9" d="M4636,3720v916h-604c0-258.65-6.58-517.39-8-776,77.13-8.12,152-30.69,228-44,49-8.58,67.41-10.47,116-24,89.01-24.79,179.44-45.51,268-72Z"/>
  <path class="st0" d="M3092,0v500c-179.65-27.31-347.49,81.13-376,264l-388.02,4.02.02-768.02h764Z"/>
  <path class="st6" d="M388,1656c-11.3,63.77-8.22,121.91,10.02,183.98,2.06,7,15.92,50.25,18.04,52.01,6.28,5.22,9.22-5.19,11.94-7.99,8.27,31.99,2.82,68.82,3.83,102.17.48,15.92,3.83,32,4.17,49.83.15,7.99-.12,16.01,0,24,.04,2.67-.04,5.33,0,8,.27,18.61-.03,37.39,0,56,.05,35.29-.44,70.73-.07,106.06.07,6.76-2.55,17.79,4.07,21.94-.14,6.66.12,13.34,0,20-.02,1.33.02,2.67,0,4-.13,7.99.11,16.01,0,24-.05,4,.05,8,0,12-.07,5.33.07,10.67,0,16-.2,15.95-.02,32.05,0,48,.04,41.88-3.39,87.31,4,128-.81,39.87-.03,80.11,0,120,.03,39.17-3.38,82.06,4,120-1.09,51.84-.06,104.13,0,156,.04,37.82-3.39,79.43,4,116-.51,22.59.25,45.4,0,68-.06,5.33,0,10.67,0,16,.05,33.01,1.86,63.63,4,96-6.68,25.82-6.73,62.19,0,88-.33,18.6.14,37.39,0,56-1.26,172,8.58,344.01,8,516-51.85,8.47-104.4,18.05-156,28v-480c0-102.6.42-205.4,0-308-.01-2.67.01-5.33,0-8-.32-71.33.11-142.78.16-214.16-85.86-196.72-188.29-388.46-280.73-583.27-5.08-10.71-10.56-21.59-16.16-32.04-3-5.59-1.57-12.66-11.27-10.53v-60c9.5-.45,10.37,5.67,14.15,11.85,19.71,32.17,39.92,77.32,57.85,112.15,2.56,4.97,6.32,8.75,8,12,17.52,33.95,32.23,69.98,49.91,104.09,56.95,109.82,115.59,218.96,174.09,327.91l2,3.92,2-3.92c.06-143.94-.08-288.06,0-432,0-2.67,0-5.33,0-8,.1-202.61-.08-405.39,0-608l.65-7.22c26.85-11.99,55.96-26.89,79.35-44.78Z"/>
  <path class="st14" d="M0,2248c9.7-2.13,8.27,4.93,11.27,10.53,5.61,10.45,11.08,21.33,16.16,32.04,92.44,194.82,194.87,386.56,280.73,583.27-.05,71.38-.48,142.83-.16,214.16-11.89-2.45-12.53,10.22,0,8,.42,102.6,0,205.4,0,308-8.18-1.31-14.26,1.51-21.5,4.47-99.51,40.73-191.72,97.53-286.5,147.53v-1308Z"/>
  <path class="st0" d="M3776,0c3.41,17.6-15.44,41.55,12,40,0,193.19,1.52,386.82,4,580l-8.06,2.05c3.71,8.26.97,20.83,12.06,17.95.49,41.26-.62,82.75,0,124l-327.98,3.98c2.08-24.89,32.87-2.17,45.53-11.57,5.01-3.72,1.57-21.25,10.4-26.47,7.99-4.73,22.69-.19,33.12-2.87,8.65-2.22,17.77-14.35,30.67-17.33,8.56-1.98,49.43-6,57.96-5.79,2.32.06,2.44,10.22,13.07,11.24,3.27.32,20.47-2.49,21.25-3.22,8.63-8.1-26.22-10.84-19.98-23.94,25.38-1.32,40.46,8.55,50.91-19.08,6.69-17.69,3.45-55,.89-74.75-.91-6.98-8.69-16.18-7.79-20.01,1.07-4.55,12.97-6.05,17.71-10.43,20.83-19.22,15.99-46.69,22.25-71.71-10.81-3.27-10.29,10.67-12.06,11.94-9.32,6.72-6.72-9.03-11.95-13.83-6.44-5.91-28.82-13.65-35.58-24.53-7.63-12.29-1.34-27.15-16.14-39.83-16.5-14.14-68.4-4.59-72.29-23.75-.98-4.84,1.13-16.67,0-18.01-1.33-1.59-18.44,10.95-20.22-6.02-2.89-27.52,55.08-12.25,65.19-14.71,3.25-.79,25.74-14.82,26.41-17.64,5.34-22.41-35.27-41.43-38.73-56.43-1.19-5.17,2.89-10.71,2.52-15.18-2.17-26.26-4.13-44.02,13.43-67.46,6.97-9.31,17.24-10.73,19.53-20.73,2.47-10.8-21.51-38.05-20.33-51.52.31-3.53,10.96-3.79,14.22-10.3,2.7-5.4,1.52-13.16,4.2-19.82,2.22-5.52,10.97-7.09,10.1-18.11-1.93-24.43-46.96-.41-44.41,23.74.8,7.57,9.6,10.08,8.09,18.15-8.68-.7-33.55.82-38.34,7.88-3.7,5.45,9.67,32.1-11.65,32.32-27.25.27,8.8-53.42,1.99-60.15-1.42-1.4-15.28-.53-18.26,3.71-5.49,7.82,1.94,18.13,1.01,25.58-1.1,8.82-14.9,37.47-26.62,26.55-1.32-1.23,1-10.72-.15-11.83-2.77-2.67-17.24,4.29-20.19,2.28-5.11-3.49-4.33-16.68-8.73-21.37-3.71-3.94-21.05-6.51-22.87-15.38-1.32-6.43,9.81-10.47,11.28-16.37,4.2-16.86-16.3-23.23-26.91-16.65-3.23,2.01-3.74,20.97-6.74,27.27-4.77,10.03-20.36,15.82-24.64,21.3-4.47,5.73-3.92,14.42-9.04,21.02-6.25,8.04-28.21,14.56-28.44,16.18-.89,6.38,3.57,13.7,3.87,20.18.67,14.73,3.75,22.26,4.37,31.7.66,10.16-8.67,22.81-2.09,34.02,2.98,4.44,40.43.91,50.21,3.81v11.98c-21.56-4.56-39.97,19.62-49.82,36.23-3.62,6.1-5.88,18.67-6.66,19.32-2.04,1.69-44.58,4.18-52.61,5.38-10.23,1.52-18.95,11.74-29.2,3.48-18.53-14.95,5.29-17.8,8.54-24.34,2.78-5.59-2.83-12.17-2.22-17.87,1.15-10.84,14.79-20.64.27-39.53-10.27-13.37-48.56,3.12-40.33,21.39-9.93,2.58-21.26-4.73-29.82-3.93-9.85.92-18.43,12.75-36.07,12.09-13.42-.5-24.97-10.73-39.91-8.26-8.47,1.4-22,17.16-34.33,18.85-10.06,28.14-5.33,51.49-4.24,78.77.23,5.72-4.72,12.66-3.79,20.26.3,2.47,26.21,31.41,28.16,32.43,5.96,3.12,35.94-8.08,48.17-.38,7.78,4.9-2.12,16.35-.19,18.12,1.04.95,21-.88,26.32,8,3.23,5.39-4.66,17.67-2.28,19.99,2.8,2.74,20.7-4.13,26.16-4.15,10.39-.04,33.4,11.54,33.63-5.45.09-6.95-11.11-23.14,2.27-22.52,17.57.81,14.61,12.9,18.65,15.3,10.34,6.13,32.01-20.75,51.24-11.14,3.82,3.41-12.78,17.45-7.97,23.95,7.63,10.32,28.77-11.51,32,2.11,1.95,8.2-9.09,14.49-8.24,23.68.69,7.46,9.79,10.15,8.22,18.22-38.93-5.13-10,37.98-12.01,40-14.1-6.48-35.14-5.84-22.25,12.29,6.84,9.62,37.6-7.3,22.25,35.7-10.43,3.23-9.87-11.62-14.52-12.32-9.27-1.4-16.24,9.34-25.44,8.32,3.22-30.03-16.82-33.85-16.38-1.99.14,9.7,8.44,65.82,12.79,69.55,3.5,3,18.6-2.13,23.07.97,3.18,2.2,1.84,22.27,17.7,28.62,21.34,8.54,31.22-12.8,33.4-13.32,16.21-3.91,23.31,14.01,15.68,24.5-3.76,5.17-39.9,4.16-30.25,15.62,7.58,9,39.76,14.85,51.95,12.1,1.07,26.52-22.5,10.97-31.44,16.52-4.26,2.64.38,20.19-14.38,15.61-2.05-.64-8.94-16.33-15.95-20.38-8.45-4.87-17.47-2.49-24.51-7.48-10.83-7.67-22.38-41.43-28.69-55.46-4.29-9.53-11.15-33.11-16.65-42.22-2.89-4.79-13.79-5.42-18.64-10.32-6.8-6.86-4.24-16.39-9.69-22.32-7.01-7.63-35.31-19.17-42.09-34.09-8.61-18.96,10.13-24.8,10.31-26.37,2.28-20.32-34.91-50.08-46.28-65.49-12.51-6.48-1.38,28.24-3.66,32-1.88,3.1-30.94,14.3-38.3,15.98-14.9-7.61-47.51-19.52-64-24-.23-8.47.87-17.15-.32-25.61-3.82-27.2-3.44-59.07-3.85-88.22-.69-49.37,1.81-99.02.16-148.35-.26-7.71,4.08-16.05-8-13.82v-8c18.04-.92,7.87-32.77,7.82-41.84-.33-59.38.61-118.84.18-178.16h668ZM3248,180c-.83-5.75-5.06-30.44-3.85-31.82,1.29-1.47,33.08-1.02,19.19-23.55-1.04-1.68-32.2-19.61-34.15-19.9-2.24-.34-43.62,1.66-45.2,3.28-.97,1-.02,13.56.87,17.13,8.17,32.72,46.21,19.91,51.17,26.91,1.62,2.28-7.43,18.38-3.7,23.61,1.03,1.44,12.1,3.17,15.68,4.34.57,3.94-.93,15.17-.02,16.02,1.34,1.24,15.79-1.26,21.37.03,1.66.39,14.81,22.19,22.59-6.13,3.2-11.64-14.9-1.8-21.03-2.67-2.56-.36-18.15-5.68-22.91-7.25ZM3743.98,179.98c1.38-8.05-7.08-10.56-8.1-18.21-.88-6.64,11.92-41.43-5.82-37.74-5.26,1.09-9.98,37.3-9.19,41.55,1.13,6.03,19.94,17.47,23.11,14.41ZM3711.94,172.02c-15.52-3.26-27.04,20.98-23.99,33.35.74,2.98,7.96,2.49,8.28,5.12.76,6.17-5.75,14.3-4.21,21.5,20.87,2.89,13.66-13.19,16.93-25,3.61-13.08,11.4-18.66,2.99-34.96ZM3267.98,216.02c-4.36-4.36-12.32,3.6-7.96,7.96s12.32-3.6,7.96-7.96ZM3183.98,228.02c-9.18-9.18-27.04,9.55-9.94,15.94,13.78,5.16,11.66-14.23,9.94-15.94ZM3351.68,555.68c6.91-4.93,1.18-30.31-9.63-27.67-14.31,3.5-9.77,41.5,9.63,27.67ZM3771.98,736.02c-4.36-4.36-12.32,3.6-7.96,7.96s12.32-3.6,7.96-7.96Z"/>
  <path class="st3" d="M308,0v344c-13.38,16.49-35.41,58.59-43.04,78.96-9.69,25.85-21.84,76.09-21.11,103.04.23,8.38-.59,5.13,6.02,6.05,10.05,1.4,26.08,2.82,36.55,3.57,6.14.44,14.97.14,21.59.39l-.04,516L0,668V0h308Z"/>
  <path class="st0" d="M1544,0v472c-12.55,18.95-31.26,48.61-44.63,65.37-4.47,5.61-6.8,10.76-15.37,10.63-105.65-121.51-287.95-177.12-444-132V0h504Z"/>
  <path class="st12" d="M4368,1288v36c-9.46.95-47.98,8.24-48.05,17.8-.18,22.77,45.51,64.95,48.05,86.2,3.88,32.53-.29,77.64,0,112,.03,4-.03,8,0,12,1.04,150.6-.81,301.4.04,452l267.96-384v84l-264.93,413.07c-5.83,65.49-2.76,132.84-3.07,198.93-.01,2.67.01,5.33,0,8-1.09,213.2-1.17,426.8,0,640,.02,4-.03,8,0,12-21.31,3.92-7.3-23.39-31.98-15.98-3.29,10.38,11.62,10.01,12.26,14.25,3.07,20.47-42.67,34.83-58.22,33.8-3.02-.2-1.93-50.27-38.06-24.07.08-17.29-.05-34.71,0-52,.59-202.6.03-405.4,0-608,0-2.67,0-5.33,0-8-.06-242.88,18.2-531.6-4-768-.98-10.42-5.93-34.16-4.16-41.19,1.03-4.07,9.1-4.7,12.26-8.55,16.19-19.69,8.06-61.37,8.98-83.15.56-13.24,10.01-33.72,10.19-41.89.04-1.64-13.65-24.96-16.05-28.54-1.32-1.97-6.92-.24-7.23-.67-2.6-3.71,1.89-46.5,0-56,38.61-.05,77.39.13,116,0Z"/>
  <path class="st0" d="M272,1552c-.8.82-.82,6.83-3.88,9.95-46.48,47.46-82.54,99.54-96.1,166.03,47.08,5.58,90.35-16.86,135.99-19.98-.08,202.61.1,405.39,0,608l-236-4c-17.92-34.83-38.13-79.98-57.85-112.15-3.79-6.18-4.65-12.31-14.15-11.85v-636h272Z"/>
  <path class="st0" d="M4368,0h268v768h-268V0Z"/>
  <path class="st0" d="M4252,0v768h-264c-3.2-118.72-2.63-239.46-4.16-357.84-1.77-136.73-1.51-273.5-3.84-410.16h272Z"/>
  <path class="st10" d="M4636,3068v652c-88.56,26.49-178.99,47.21-268,72,.74-157.26-1-314.74,0-472,.3-47.89-1.97-96.11,2.07-143.93,42.99-46.57,83.03-95.69,123.87-144.12,6.34-7.52,17.05-14.05,22.06-19.95l120,56Z"/>
  <path class="st7" d="M3980,0c2.33,136.67,2.07,273.43,3.84,410.16,1.53,118.37.96,239.11,4.16,357.84.07,2.66-.09,5.34,0,8,.9,27.47,7.12,55.67,4,84-58.48,13.24-148.3,62.91-192,104-4.76-66.51-2.99-133.11-4-200-.62-41.25.49-82.74,0-124-.06-5.42-3.91-12.74-4-20-2.48-193.18-4-386.81-4-580V0h192Z"/>
  <path class="st14" d="M4636,2324v464c-63.14,61.54-122.5,127-183.91,190.28-4.2,4.33-11.4,5.01-12.09,5.72l-72-20c-1.17-213.2-1.09-426.8,0-640h268Z"/>
  <path class="st10" d="M308,3404v480c-103.31,19.92-205.33,45.42-308,68v-396c94.78-50.01,186.98-106.8,286.5-147.53,7.24-2.96,13.32-5.78,21.5-4.47Z"/>
  <path class="st0" d="M4636,780v760h-268c-.29-34.36,3.88-79.47,0-112,21.13,9.37,35.57,26.3,55.93,38.07,62.43,36.09,138.35,42.07,208.13,27.88-37.06-117.31-141.09-182.25-264.06-169.95v-36c54.62-.18,109.4.12,164.02.02-.55-101.45-36.05-206.77-101.97-284.07-13.5-15.83-46.91-51.52-62.05-63.95v-160h268Z"/>
  <path class="st0" d="M268,1112c-.57.35-.64,7.68-5.81,12.02-63.08,52.94-109.21,97.77-137.88,178.29-4.24,11.9-14.13,63.1-16.31,65.69-.56.67-5.67-.43-7.98.03-1.64,4.32,3.94,7.53,3.98,7.97.33,3.93-.08,8.03,0,12-16.87-2.12-4.36,11.08-4,16,.38,5.28-.44,10.73,0,16-11.8-2.28-8.06,6.2-8.05,13.86s-2.81,22.66,6.59,25.59l201.47.52-.02,72.02c-6.76,4.51-15.23,7.43-16,8H0v-792l268,364Z"/>
  <path class="st14" d="M4636,2316h-268c.31-66.09-2.77-133.45,3.07-198.93l264.93-413.07v612Z"/>
  <path class="st12" d="M4368,0v940c-22.83-18.75-87.88-53.62-116-64V0h116Z"/>
  <path class="st3" d="M772,0v312c-91.77-87.29-246.28-108.92-360-52L408,0h364Z"/>
  <path class="st4" d="M1040,0v416c-46.29,13.38-101.78,44.93-141.32,72.68-16.68,11.7-33.13,32.29-50.68,39.32v-100c0-55.38,3.54-111.14,4.16-165.84,1-87.35-1.09-174.86-.16-262.16h188Z"/>
  <path class="st6" d="M416,536c.84,55.3-1.06,110.82-.16,166.16.33,20.6,3.89,43.15,4.16,65.84.03,2.67-.03,5.33,0,8,.11,9.79.06,22.45.18,33.84.86,80.69-1.01,161.51-.18,242.16-51.75,10.82-91.59,31.95-136.37,57.8-5.46,3.15-14.33,1.41-15.63,2.2L0,748v-80l307.96,384,.04-516c35.8,1.34,72.15-.31,108,0Z"/>
  <path class="st7" d="M964,4636h-56l-.18-1326.18c1-44.12,56.77-38.19,56.37,4l-.19,1322.19Z"/>
  <path class="st0" d="M4636,1552v68l-267.96,384c-.85-150.6,1-301.4-.04-452h268Z"/>
  <path class="st13" d="M2328,0l-.02,768.02,388.02-4.02c-.91,5.84-3.86,14.48-4,16h-384v760h136c3.63,3.71,8.32,8.54,12,12l-148.02-.02.02,396.02c-3.58-.7-8.31.64-12,0v-396h-760c.36,118.12-5.56,235.96-4.19,354.19.25,21.48,9.07,44.11-3.81,65.81-2.11-6.63-5.63-12.1-4-20l.02-400.02-408.02.02c2.57-7.26,5.84-13.92,8-20-2.23,12.08,6.11,7.74,13.82,8,128.45,4.3,257.73-3.23,386.2.02l-.02-448.02c4-.07,8,.06,12,0l-4,448h764v-760l-656,4c-5.5-2.79-16.52-4.89-24-8l4-8c8.8-.97,23.16-5.19,32-8l13.82,8,630.2.02-.02-768.02h12Z"/>
  <path class="st6" d="M408,0l4,260c-27.28,13.65-84.76,60.28-104,84V0h100Z"/>
  <path class="st3" d="M852,0c-.92,87.31,1.16,174.81.16,262.16-.63,54.7-4.17,110.46-4.16,165.84-10.93,2.44-7.36-5.91-10.06-11.73-13.36-28.85-36.77-73.24-57.94-96.27V0h72Z"/>
  <path class="st3" d="M4636,3068l-120-56c11.11-13.09,23.36-34.79,36.11-49.89,26.97-31.97,55.2-63.69,83.89-94.11v200Z"/>
  <path class="st13" d="M3100,0v500c-2.41-.48-5.47.39-8,0V0h8Z"/>
  <path class="st13" d="M1552,0v456c3.22,10.55-5.71,12.53-8,16V0h8Z"/>
  <path class="st13" d="M284,1540c-.75.55-10.52,10.48-12,12H0v-12h284Z"/>
  <path class="st13" d="M4636,1540v12h-268c-.03-4,.03-8,0-12h268Z"/>
  <rect class="st13" x="4368" y="768" width="268" height="12"/>
  <path class="st13" d="M780,0v320c-.46-.5-7.28-7.32-8-8V0h8Z"/>
  <path class="st13" d="M4636,2316v8h-268c.01-2.67-.01-5.33,0-8h268Z"/>
  <path class="st14" d="M3108,0c.43,59.33-.51,118.79-.18,178.16.05,9.06,10.22,40.92-7.82,41.84V0h8Z"/>
  <path class="st3" d="M3788,0v40c-27.44,1.55-8.59-22.4-12-40h12Z"/>
  <path class="st10" d="M3820,2912c4.39,326.58,4.52,653.4,8,980-86.09,3.39-171.99,17.29-258.03,23.97-327.42,25.4-657.09,16.86-983.47-20.46-222.72-25.47-443.57-71.51-666.5-91.5v-336c133.59,15.96,262.54,15.31,396,0,3.91-.45,8.1.48,12,0,290.18-35.6,516.99-145.06,764-288,2.22-1.28,5.08-2.3,8-4,40.09-23.31,81.19-45.51,121.42-68.78,5.34-3.09,12.79-1.25,10.58-11.22,23.96-1.1,13-5.94,16-8,.91-.62,12.81-1.42,18.13-3.78,52.6-23.35,103.04-50.14,156.87-71.22,127.34-49.87,260.88-84.56,397-101Z"/>
  <path class="st10" d="M1544,3372c2.16.69,5.85-.69,8,0,.6.19,3.21,6.16,9.59,8.23,97.5,31.58,196.1,63.56,298.41,75.77v344c-272.82-21.81-547.04-26.43-820-8,.18-175.49-4.38-352.71,0-528,128.82,7.6,256.47,29.53,379.99,66.01,41.81,12.35,82.54,28.64,124.01,41.99Z"/>
  <path class="st7" d="M2124,2416l-203.57,646.49c-1.32,8.47,0,17.06-.43,25.51-.13,2.66.1,5.34,0,8-4.43,122.01,0,249.38,0,372v336c-19.71-1.77-40.12-2.41-60-4v-1184c24.89-3.19,50.97-27.63,56-52l7.95,315.97,164.05-463.97c11.98,0,24.02,0,36,0Z"/>
  <path class="st14" d="M3176,528c7.36-1.68,36.42-12.88,38.3-15.98,2.28-3.76-8.85-38.48,3.66-32,11.37,15.41,48.57,45.17,46.28,65.49-.18,1.57-18.91,7.42-10.31,26.37,6.78,14.92,35.08,26.46,42.09,34.09,5.45,5.93,2.89,15.46,9.69,22.32,4.85,4.9,15.75,5.53,18.64,10.32,5.5,9.11,12.36,32.68,16.65,42.22,6.32,14.03,17.86,47.79,28.69,55.46,7.04,4.98,16.06,2.6,24.51,7.48,7.01,4.04,13.9,19.74,15.95,20.38,14.76,4.57,10.13-12.97,14.38-15.61,8.94-5.55,32.51,10,31.44-16.52-12.19,2.75-44.37-3.09-51.95-12.1-9.65-11.46,26.49-10.45,30.25-15.62,7.63-10.49.54-28.41-15.68-24.5-2.18.53-12.06,21.86-33.4,13.32-15.86-6.35-14.53-26.42-17.7-28.62-4.48-3.11-19.57,2.03-23.07-.97-4.34-3.72-12.65-59.85-12.79-69.55-.44-31.85,19.6-28.04,16.38,1.99,9.19,1.01,16.17-9.72,25.44-8.32,4.64.7,4.09,15.55,14.52,12.32,15.35-43.01-15.41-26.08-22.25-35.7-12.89-18.14,8.15-18.77,22.25-12.29,2.01-2.02-26.92-45.14,12.01-40,1.57-8.07-7.53-10.77-8.22-18.22-.85-9.19,10.19-15.48,8.24-23.68-3.23-13.62-24.37,8.21-32-2.11-4.81-6.5,11.79-20.54,7.97-23.95-19.23-9.61-40.9,17.27-51.24,11.14-4.05-2.4-1.08-14.5-18.65-15.3-13.38-.62-2.18,15.57-2.27,22.52-.23,16.99-23.24,5.41-33.63,5.45-5.46.02-23.36,6.89-26.16,4.15-2.37-2.32,5.52-14.6,2.28-19.99-5.33-8.88-25.29-7.05-26.32-8-1.93-1.77,7.97-13.22.19-18.12-12.23-7.7-42.21,3.5-48.17.38-1.94-1.02-27.85-29.96-28.16-32.43-.93-7.6,4.02-14.54,3.79-20.26-1.09-27.28-5.82-50.63,4.24-78.77,12.33-1.68,25.86-17.44,34.33-18.85,14.94-2.48,26.49,7.76,39.91,8.26,17.64.66,26.23-11.18,36.07-12.09,8.55-.8,19.88,6.52,29.82,3.93-8.24-18.27,30.06-34.75,40.33-21.39,14.52,18.9.89,28.69-.27,39.53-.61,5.7,5.01,12.28,2.22,17.87-3.25,6.54-27.08,9.39-8.54,24.34,10.24,8.27,18.97-1.96,29.2-3.48,8.03-1.2,50.58-3.69,52.61-5.38.79-.65,3.04-13.22,6.66-19.32,9.85-16.6,28.26-40.78,49.82-36.23v-11.98c-9.78-2.9-47.23.64-50.21-3.81-6.58-11.2,2.75-23.86,2.09-34.02-.62-9.44-3.71-16.97-4.37-31.7-.29-6.48-4.76-13.8-3.87-20.18.23-1.62,22.19-8.14,28.44-16.18,5.13-6.6,4.57-15.29,9.04-21.02,4.28-5.48,19.87-11.27,24.64-21.3,3-6.3,3.51-25.26,6.74-27.27,10.61-6.58,31.11-.22,26.91,16.65-1.47,5.9-12.59,9.94-11.28,16.37,1.82,8.87,19.16,11.44,22.87,15.38,4.41,4.68,3.63,17.87,8.73,21.37,2.94,2.01,17.42-4.94,20.19-2.28,1.15,1.11-1.17,10.6.15,11.83,11.73,10.92,25.52-17.73,26.62-26.55.93-7.45-6.5-17.75-1.01-25.58,2.98-4.24,16.84-5.12,18.26-3.71,6.82,6.73-29.23,60.42-1.99,60.15,21.32-.21,7.95-26.86,11.65-32.32,4.79-7.06,29.66-8.58,38.34-7.88,1.5-8.07-7.29-10.57-8.09-18.15-2.55-24.15,42.48-48.17,44.41-23.74.87,11.03-7.88,12.59-10.1,18.11-2.68,6.66-1.5,14.43-4.2,19.82-3.26,6.51-13.92,6.77-14.22,10.3-1.17,13.47,22.8,40.72,20.33,51.52-2.28,10-12.55,11.42-19.53,20.73-17.57,23.45-15.61,41.2-13.43,67.46.37,4.47-3.72,10.01-2.52,15.18,3.47,15,44.08,34.02,38.73,56.43-.67,2.82-23.16,16.85-26.41,17.64-10.12,2.46-68.08-12.82-65.19,14.71,1.78,16.97,18.89,4.43,20.22,6.02,1.13,1.34-.99,13.17,0,18.01,3.89,19.16,55.79,9.61,72.29,23.75,14.79,12.68,8.51,27.54,16.14,39.83,6.76,10.88,29.14,18.62,35.58,24.53,5.23,4.8,2.63,20.55,11.95,13.83,1.77-1.27,1.25-15.21,12.06-11.94-6.26,25.02-1.42,52.49-22.25,71.71-4.75,4.38-16.64,5.88-17.71,10.43-.9,3.83,6.89,13.03,7.79,20.01,2.56,19.75,5.8,57.07-.89,74.75-10.45,27.64-25.52,17.77-50.91,19.08-6.24,13.1,28.62,15.84,19.98,23.94-.78.74-17.98,3.54-21.25,3.22-10.63-1.02-10.74-11.19-13.07-11.24-8.54-.21-49.4,3.8-57.96,5.79-12.89,2.99-22.01,15.11-30.67,17.33-10.43,2.68-25.13-1.86-33.12,2.87-8.82,5.23-5.39,22.76-10.4,26.47-12.65,9.4-43.45-13.32-45.53,11.57l327.98-3.98c1.01,66.89-.76,133.49,4,200-56.47,53.09-136,187.67-136,266v58c46.61.15,93.39-.2,140,0,4.09,82.47-5.5,170.16,0,252l-704.02.02.02-416.02c293.43-67.34,339.73-461.34,76-596ZM3527.94,160.02c-5.85-5.62-7.23.34-7.94,5.91-1.38,10.8-4.78,43.37,11.98,42.06,1.01-12.49,5.89-38.41-4.04-47.96ZM3611.98,200.02c-7.56-8.12-19.94,21.21-6.04,15.94,5.14-1.95,8.5-13.29,6.04-15.94ZM3455.98,216.02h-7.96v11.96h7.96v-11.96ZM3611.98,303.98c6.58-6.57-10.21-25.36-15.94-9.94-5.12,13.79,14.22,11.66,15.94,9.94ZM3259.98,292.02c-3.65-4.13-36.95,19.01-17.91,23.97,12.9,3.36,20.71-13.54,17.91-23.97ZM3255.98,328.02c-6.94-6.21-30.47,10.13-23.96,15.96,6.94,6.21,30.47-10.13,23.96-15.96ZM3263.98,400.02c-6.34-6.34-18.3,5.61-11.96,11.96,6.34,6.34,18.3-5.61,11.96-11.96ZM3599.98,440.02c-4.36-4.36-12.32,3.6-7.96,7.96s12.32-3.6,7.96-7.96ZM3647.98,440.02c-4.36-4.36-12.32,3.6-7.96,7.96s12.32-3.6,7.96-7.96Z"/>
  <path class="st14" d="M3244,2324c3.94.46,8.1-.6,11.67,2.14,185.66,155.64,376.83,306.43,559.37,464.81,7.85,39.82,4.41,80.63,4.95,121.05-136.12,16.44-269.66,51.13-397,101-53.83,21.08-104.28,47.87-156.87,71.22-5.31,2.36-17.22,3.16-18.13,3.78h-148v-764c45.65,3.86,99.42-5.21,144,0Z"/>
  <path class="st15" d="M4252,876c28.12,10.38,93.17,45.25,116,64,15.14,12.43,48.55,48.12,62.05,63.95,65.92,77.29,101.42,182.61,101.97,284.07-54.62.1-109.4-.2-164.02-.02-38.61.13-77.39-.05-116,0-85.27.1-170.73.07-256,0-63.94-.05-128.06.27-192,0-46.61-.2-93.39.15-140,0v-58c0-78.33,79.53-212.91,136-266,43.7-41.09,133.52-90.76,192-104,5.14-1.16,43.67-8,46-8h120c11.7,0,79.64,18.7,94,24Z"/>
  <path class="st0" d="M2476,1552c4.2,3.94,21.72,20.37,25.46,19.71,6.96-7.06,15.41-13.04,22.54-19.71l568.02-.02-.02,144.02c-147.84,72.84-136.03,293.53,32,324,15.87,45.75-18.82,26.96-24.03,31.98-1.45,1.4,1.07,33.2.03,40.02-118.38-90.16-241.51-175.13-357.78-268.41l-18.22.41c-14.67-20.76-40.59-45.42-60.4-61.6-84.54-69-206.36-86.64-311.6-66.38,34.32,72.6,101.76,124.08,172,159.98-.37.2,1.3,5.97-2.97,7.83-54.84,23.84-112.08,52.21-153.03,96.17-12.96-.6-29-9.85-40-12l-.02-396.02,148.02.02Z"/>
  <path class="st14" d="M4252,2324c.03,202.6.59,405.4,0,608l-236-28c-2.38-192.99-6.56-386.69-8-580h244Z"/>
  <path class="st14" d="M4252,2316h-244c-.56-84.39-.56-168.76-3.1-253.1,83.84-170.25,156.72-346.12,243.1-514.9,22.2,236.4,3.94,525.12,4,768Z"/>
  <path class="st11" d="M3808,2016c223.58,85.52,242.12,376.3,72,524l20.12-49.88c35.71-100-37.87-215.06-144.12-222.12-1.85-19.53-75.18-96.99-87.95-87.98-23.18,82.02-122.13,129.07-200.05,143.98-13.11,2.51-35.99,7.3-48,8-37.99,2.21-108.21-8.81-124.3-49.7-3.43-8.72-6.27-34.51-3.7-42.3.69-2.11,22.38-31.76,25.96-36.04,8.06-9.6,18.65-14.45,26.04-23.96,158.75,55.21,347.69-5.85,392-180,23.07,1.7,50.57,7.8,72,16Z"/>
  <path class="st10" d="M4252,2932c-.05,17.29.08,34.71,0,52-.31,67.89,1.96,136.09-2.07,203.93-77.68,77.63-149.92,160.87-229.89,236.07-1.01-53.96,1.15-108.16.12-162.16-2.26-118.88-2.7-238.51-4.16-357.84l236,28Z"/>
  <path class="st3" d="M3092,2196l.02,120.02-156.02-.02c22.47-73.7,21.85-145.3-10.06-215.94-3.75-8.3-20.8-40.09-25.56-45.58s-11.4-1.15-16.39,1.52c-21.15-21.14-66.66-16.49-80,12-34.84,7.38-69.81,35.06-91.32,62.68-6.12,7.86-37.73,57.55-36.67,63.19,2.24,11.91,51.09,2.8,60.9,1.04,26.32-4.7,49.67-16.01,75.08-22.92-11.02,40.59-15.35,102.74-8,144h-124c-11.13-55.77-44.4-130.43-76.74-177.26l-63.26-78.74c72.24-26.93,155.96-99.8,192-168,118.35,95.38,235.52,192.47,352.28,289.83,6.14,5.12,6.63,13.09,7.72,14.17ZM2782.91,1972.79c-36.5,8.09-25.51,76.84,22.26,62.39,32.05-9.7,24.86-72.84-22.26-62.39Z"/>
  <path class="st5" d="M3756,2268c106.26,7.06,179.84,122.13,144.12,222.12l-20.12,49.88c-21.46,18.63-37.67,34.84-64,48-7.08,3.54-30.07,14.35-36,16-77,21.5-193.03-39.74-208-120-21.94-117.67,62.32-224.09,184-216Z"/>
  <path class="st10" d="M4252,3816c-76,13.31-150.87,35.88-228,44-.51-92.33-.3-184.84.81-277.19,73.32-89.69,151.05-175.84,227.19-262.81v496Z"/>
  <path class="st2" d="M2740,1856c3.05,10.39-2.59,25.77-8,36-36.04,68.2-119.76,141.07-192,168-59.82,22.3-138.61,28.77-202.16,24.16-18.92-1.37-48.21-.25-38.72-23.01,7.27-17.43,55.41-86.7,68.88-101.15,40.95-43.96,98.19-72.33,153.03-96.17,4.27-1.86,2.6-7.63,2.97-7.83,3.97-2.18,79.21-11.5,89.81-12.19,42.68-2.77,84.94,2.06,126.19,12.19Z"/>
  <path class="st12" d="M4252,3320c9.47-10.81,19.79-24.21,30.06-35.94,7.24-8.27,34.93-50.12,43.88-48.05,5.32,1.23,27.62,64.05,30.01,74.24,2.34,10-4.2,11.15,12.06,9.76-1,157.26.74,314.74,0,472-48.59,13.53-67,15.42-116,24v-496Z"/>
  <path class="st0" d="M4252,1288c1.89,9.5-2.6,52.29,0,56-33.5,64.54-69.82,127.84-104,192-36.77,7.4-75.45,1.09-113.18,4.07l-34.82-40.07c-.02-8.71-4.16-16.84-4.18-25.83-.14-62.05.47-124.17.18-186.17,85.27.07,170.73.1,256,0Z"/>
  <path class="st11" d="M3808,1580c78.89,58.95,76.43,203.09,0,264-7.09,5.65-35.78,20.55-45.29,24.69-8.57,3.73-17.15,7.25-26.71,7.31-.7-3.05-11.02-38.11-12-40,79.63-36.83,98.63-136.31,28.05-194.05-62.12-50.82-159.98-16.42-176.05,62.05-8.79-3.3-31.34-10.36-40-12-.17-52.55,52.8-118.11,100-136,49.08-18.6,129.68-7.62,172,24Z"/>
  <path class="st8" d="M2724,1824c3.81,5.39,14.07,25.42,16,32-41.25-10.13-83.51-14.96-126.19-12.19-10.6.69-85.84,10.01-89.81,12.19-70.24-35.89-137.68-87.38-172-159.98,105.24-20.26,227.06-2.61,311.6,66.38,19.82,16.17,45.73,40.84,60.4,61.6Z"/>
  <path class="st13" d="M3100,2200l-.02,116.02,140.02-.02c1.81,2.55,4.25,4.3,4,8-44.58-5.21-98.35,3.86-144,0v764h148c-3,2.06,7.96,6.9-16,8-43.77,2.01-88.2-1.47-132.02-.02l.02,80.02c-2.92,1.7-5.78,2.72-8,4v-84h-764v372c-3.9.48-8.09-.45-12,0l.02-372.02-396.02.02c.1-2.66-.13-5.34,0-8l396.02.02-.02-432.02c3.5,1.24,8.53,2.96,12,4v428h764v-764h-156c.71-2.08-.67-5.79,0-8l156.02.02-.02-120.02c.36.35,4.88,1.4,8,4Z"/>
  <path class="st6" d="M3756,2268c-121.68-8.09-205.94,98.33-184,216-6.15-2.13-11.13-5.71-16.06-9.9-22.56-19.15-54.65-63.5-67.94-90.1-7.5-15.01-17.1-42.91-20-60,77.93-14.9,176.87-61.96,200.05-143.98,12.76-9.02,86.09,68.45,87.95,87.98Z"/>
  <path class="st14" d="M4000,1500l34.82,40.07c37.73-2.98,76.41,3.33,113.18-4.07-45.93,86.22-89.77,172.43-140,256h-4c1.78-15.68-3.77-27.8-4.16-41.83-1.4-49.75-2.69-108.95.16-158.17.02-.35,3.17.6,3.87-5.95,1.12-10.51,3.75-25.63-7.87-22.05-.36-21.8,4.03-46.46,4-64Z"/>
  <path class="st13" d="M3100,1124l-.02,416.02,704.02-.02c.04.53,3.67,4.57,4.16,9.69.96,9.98-.86,20.32-.16,30.31-42.32-31.62-122.92-42.6-172-24l-536.02-4.02.02,140.02c-.43.11-6.08,3.05-8,4l.02-144.02-568.02.02c4.36-4.08,11.88-11.62,16-16l552.02,4.02-4.02-412.02c1.62-.29,7.23-2.91,12-4Z"/>
  <path class="st0" d="M3216,2052c5.83,13.82,21.22,29.63,24,44,1.62,8.4-2.81,19.13,2.03,27.98,3.83,7,28.84,16.65,37.97,16.02,1.81,2.14,5.08,4.62,8,8,1.72,1.99.43,8.2,8.02,13.92,8.07,6.09,13.65,3.89,19.98,6.08,1.19.41,2.83-.43,4,0,7.26,17.23-17.69,48.91-33.62,48.05-11.35-.61-44.39-26.77-48.52-36.17-4.12-9.38,1.98-14.89.89-21.2-.97-5.62-10-13.4-6.78-22.69-16.85-2.8-10.18,22.11-11.97,24.02-1.3,1.38-26.08-.97-32.01-.01-14.16-10.84-29.55-21-44-32-1.01-10.56.99-22.2,7.02-31,7-10.21,15.5-8.4,18.95-13.02,4.09-5.47,2-18.45,7.02-23.04,4.46-4.08,31.07-10.35,39.02-8.94Z"/>
  <path class="st0" d="M3808,1844v172c-21.43-8.2-48.93-14.3-72-16,9.4-36.96,8.58-86.83,0-124,9.56-.06,18.13-3.59,26.71-7.31,9.52-4.14,38.2-19.04,45.29-24.69Z"/>
  <path class="st14" d="M3240,2316l-140.02.02.02-116.02c38.62,32.24,111.88,76.4,140,116Z"/>
  <path class="st3" d="M3204,2020c.38,1.69,10.42,28.24,12,32-7.95-1.41-34.55,4.86-39.02,8.94-5.02,4.59-2.93,17.57-7.02,23.04-3.45,4.62-11.95,2.81-18.95,13.02-6.03,8.8-8.02,20.44-7.02,31-15.55-11.84-30.37-25.62-44-36,1.04-6.82-1.48-38.62-.03-40.02,5.21-5.02,39.9,13.77,24.03-31.98,28.37,5.15,51.65,5.67,80,0Z"/>
  <path class="st10" d="M4440,2984c-19.93,20.48-40.57,47.09-60.74,69.26-3.54,3.89-3.55,8.6-11.24,6.72-.19-27.94.19-56.04-.02-83.98-.03-4,.02-8,0-12l72,20Z"/>
  <path class="st3" d="M3188,2160c5.92-.96,30.71,1.39,32.01.01,1.79-1.91-4.88-26.82,11.97-24.02-3.22,9.29,5.81,17.06,6.78,22.69,1.09,6.31-5.02,11.82-.89,21.2,4.13,9.4,37.16,35.56,48.52,36.17,15.93.86,40.88-30.82,33.62-48.05,9.71,3.59,18.88,10.22,24,12-7.39,9.51-17.98,14.36-26.04,23.96-3.59,4.28-25.27,33.93-25.96,36.04-38.43-21.35-69.66-53.7-104-80Z"/>
  <path class="st13" d="M4252,2316c0,2.67,0,5.33,0,8h-244c-.02-2.67.02-5.33,0-8h244Z"/>
  <path class="st3" d="M3468,2324c2.9,17.09,12.5,44.99,20,60-25.43-9.59-50.21-31.83-68-52,12.01-.7,34.89-5.49,48-8Z"/>
  <path class="st3" d="M3816,2588l-.02,43.98c-3.01,3.46-34.52-21.65-35.98-27.98,5.93-1.65,28.92-12.46,36-16Z"/>
  <path class="st13" d="M3996,1564c11.62-3.58,9,11.53,7.87,22.05-.7,6.56-3.85,5.6-3.87,5.95-6.62-7.65-3.84-18.5-4-28Z"/>
  <path class="st13" d="M4008,1792c-1.49,2.47,2.7,10.85-2.04,12.03-12.92,3.22-2.17-10.16-1.96-12.03h4Z"/>
  <path class="st10" d="M824,3264l8,4c-3.21,181.01-8.6,362.45-12,544-119.17,7.8-238.25,24.76-356,44,.58-171.99-9.26-344-8-516,88.71-21.4,176.5-51.35,268-60,3.36-.32,7.02-.04,8-4,7.48.54,16.47.42,24,0,6.2-.34,16.22-2.99,24-4,2.57-.33,5.47.4,8,0,3.82-.6,6.75-3.77,8-4,8.92-1.66,19.1-1.6,28-4Z"/>
  <path class="st15" d="M2316,1948c3.69.64,8.42-.7,12,0,11,2.15,27.04,11.4,40,12-13.46,14.46-61.6,83.72-68.88,101.15-9.5,22.76,19.8,21.64,38.72,23.01,63.55,4.61,142.35-1.86,202.16-24.16l63.26,78.74c32.34,46.83,65.61,121.49,76.74,177.26.49,2.44-.45,5.52,0,8,2.57,14.1,10.54,76.09,7.43,85.45-1.05,3.16-2.62,5.22-5.98,5.99-185.9.68-371.65.66-557.44.56-11.98,0-24.02,0-36,0-55.94-.03-112.06.22-168,0-19.95-.08-40.05.1-60,0-27.95-.14-56.07.09-84.02.02-4.94-78.17,20.19-152.51,48.02-224.02,49.7-63.13,86.27-107.81,140-168,27.66-8.57,50.97-28.39,77.32-40.68,88.8-41.44,178.26-52,274.68-35.32Z"/>
  <path class="st15" d="M544,1044c.63.02,5.48,3.64,12,4s13.71.47,20,0l8,4c1.63,1.36,33.47,5.55,41.76,8.24,44.51,14.45,96.01,40.79,134.24,67.76,4.71,3.33,1.04,2.07,12,8,.59.32,7.55,7.5,8,8,1.25,1.41,1.44,9.86,5.72,12.09l58.28,59.91c2.51,22.86,26.97,53.58,36.72,77.28,20.38,49.53,32.15,109.16,31.3,162.74-22.58-.63-45.46.8-68.02-.02-20.8-.76-44.21.29-64,0-2.67-.04-5.33.03-8,0-59.42-.78-120.75-.29-180,0-19.94.1-40.06.14-60,0-33.58-.23-70.69-.3-104,0-39.92.37-80.08.19-120,0-.71,0-6.22-4.23-13.53-4.29-64.81-.59-129.73,1.03-194.5.31-.62-10.55.9-21.51.02-32.02-.44-5.27.38-10.72,0-16,5.83-2.71,4.1-10.77,4-16-.08-3.97.33-8.07,0-12l4-8c2.18-2.59,12.07-53.78,16.31-65.69,28.67-80.52,74.8-125.35,137.88-178.29,5.17-4.34,5.24-11.68,5.81-12.02,1.3-.79,10.17.96,15.63-2.2,44.78-25.85,84.62-46.99,136.37-57.8,6.32-1.32,17.17-2.99,24-4,4.98-.74,10.86.55,16,0,6.8-.73,14.75-3.92,16-4,21.01-1.38,46.76-.82,68,0Z"/>
  <path class="st0" d="M1548,1972c12.88-21.7,4.06-44.33,3.81-65.81-1.37-118.23,4.55-236.07,4.19-354.19h760v396c-96.42-16.69-185.89-6.13-274.68,35.32-26.34,12.3-49.66,32.11-77.32,40.68,26.83-30.05,51.99-63.59,76-96,25.28-.15,50.72.11,76,0v-58c0-22.98-17.81-77.97-27.28-100.72-92.11-221.22-364.73-236.41-473.43-19.99-11.81,23.52-35.29,88.3-35.29,112.71v66c93.28-.09,186.73.12,280,0-3.41,35,4.64,78.14,0,112-.8,5.81-2.42,11.1-6.15,15.76l-220.71,259.42c-2.94,1.24-6.14.48-9.13.82-22.49,2.59-48.99-1.9-72.02.02l.02-216.02c18.82-61.78,14.61-69.51-4-128Z"/>
  <path class="st14" d="M776,2504l-3.98,584.02-320.02-4.02c.25-22.6-.51-45.41,0-68,.73-32.65,5.16-67.49,4-102.18-.26-7.71,4.07-16.05-8-13.82-.06-51.87-1.09-104.16,0-156,.71-33.96,5.2-70.19,4-106.18-.26-7.71,4.08-16.05-8-13.82-.03-39.89-.81-80.13,0-120,.74-36.62,5.29-75.57,4-114.18-.26-7.71,4.08-16.05-8-13.82-.02-15.95-.2-32.05,0-48,24.64-7.26,55.37-5.63,80,0,7.68,6.61,15.09,12.61,22.21,19.98,4.92,5.09,4.93,15.19,13.79,12.02,4.73-1.69,4.17-3.97,4-8,9.66-14.38,17.39-20.45,32-28,5.69-2.94,11.31-7.81,12-8,18.96-5.29,81.03.91,105.65-.32,6.53-.33,13.81-2.73,18.35-7.68,15.33,63.94,32.57,130.72,48,196ZM580.07,2792.02c-.73,15.64-40.22,37.81-40.21,49.98,2.94,8.55,39.91,46.7,45.59,45.71l46.26-49.16c-7.26-6.8-45.17-51.11-51.64-46.53Z"/>
  <path class="st14" d="M1824,2192c-27.83,71.51-52.96,145.85-48.02,224.02,27.95.07,56.07-.16,84.02-.02v64c-9.22-1.61-23.84,2.14-32.88,5.13-78.65,26.04-55.18,142.15,32.88,130.87v472l-308.02.02.02-96.02c6.42-6.68,12.71-15.79,19.71-22.55.64-3.64-15.85-21.46-19.71-25.45v-308c.92-1.05,1.68-7.51,5.71-12.1,59.2-67.49,118.96-134.53,178.27-201.92l-99.96.04c59.89-78.83,126.81-152.33,187.98-230.02Z"/>
  <path class="st5" d="M1292,1980c.55.36.23,7.12,6.34,11.48,7.91,5.64,24.13,7.4,25.66,8.52.42.31.39,6.67,4.2,9.64,44.83,34.91,72.57,78.1,83.8,134.36,2.17,10.85,3.91,24.9,4,36,.4,50.28-17.83,96.35-48,136-1.26,1.66-5.28,4.77-8,8-3.43,4.08-12.82,6.1-12,16-10.22-3.55-29.25,17.77-38.71,23.29-28.27,16.48-55.27,23.19-85.25,34.77l31.37,32.54c9.17,10.43,5.76,28.01,8.6,37.4-47.17,83.01-177.97,79.73-256,48-126.89-51.61-107.34-157.06,28-164.04-51.43-42.81-84.81-99.51-84-167.96.16-13.5,1.83-26.78,4-40,9.23-56.33,37.05-98.45,80.2-133.97,3.07-2.53,3.26-9.62,3.8-10.03,1.7-1.26,32.31-18.12,36-20,28.13-14.36,94.51-22.3,126.18-20.18,11.13.74,84.14,16.51,89.82,20.18ZM1056.97,2203.04c20.82,20.76,58.09-16.86,29.28-35.28s-45.13,19.47-29.28,35.28ZM1282.83,2164.63c-18.03,5.37-18.27,37.03-.04,42.63,41.21,12.68,39.49-54.37.04-42.63ZM1222.62,2314.61c38.53-34.66,28.82-140.28-32.55-146.72-87.11-9.14-84.23,147.86-23.15,159.14,18.71,3.46,41.19.64,55.71-12.42Z"/>
  <path class="st15" d="M1860,1928c-93.27.12-186.72-.09-280,0v-66c0-24.42,23.48-89.2,35.29-112.71,108.7-216.42,381.32-201.22,473.43,19.99,9.47,22.75,27.28,77.74,27.28,100.72v58c-25.28.11-50.72-.15-76,0-27.95.16-56.05-.09-84,0-13.3.05-26.7-.03-40,0-18.62.04-37.38-.02-56,0Z"/>
  <path class="st3" d="M1144,3096l400.02-.02-.02,276.02c-41.48-13.34-82.2-29.64-124.01-41.99-123.51-36.49-251.17-58.41-379.99-66.01.43-17.16-2.16-35.14,2.07-51.93,34.47-38.22,68.27-77.19,101.93-116.07Z"/>
  <path class="st3" d="M1540,2936c-6.6-6.91-33.99-41.02-41.45-39.71l-70.26,70.26c-1.26,7.13,60.88,62.94,70.26,73.16,7.44,1.32,34.59-32.55,41.45-39.71,9.17,27.02,1.54,59.67,4.02,88.02l-388.02-4.02c128.22-147.67,259.11-293.11,388-440l-4,292Z"/>
  <path class="st5" d="M1280,2600c4.07,4.64,32.71,59.59,34.87,67.13,24.16,84.25-24.24,157.95-98.87,192.87-6.32,2.96-36.21,8-44,8-20.09,0-52.18-7.05-70.77-15.23-23.22-10.22-39.47-29.45-61.23-40.77-.24-2.61.51-5.76,0-8-2.13-9.37-17.03-27.33-21.95-40.06-8.97-23.2-14.23-59.59-10.05-83.94.22-1.29,6.99-21.38,8-24,34.38-89.53,143.16-128,226.76-80.76,4.45,2.52,35.76,23.08,37.24,24.76Z"/>
  <path class="st11" d="M1348,2340c2.1.73,31.83,22.4,36.05,25.95,32.81,27.65,78.3,100.97,87.95,142.05,4.65,19.81,5.65,72.91,4.15,94.15-9.5,134.95-124.13,253.06-260.15,257.85,74.63-34.92,123.03-108.62,98.87-192.87-2.16-7.54-30.8-62.49-34.87-67.13-1.45-26.61,2.24-55.16-.49-81.51-2.14-20.6-10.29-33.23-15.51-50.49-2.84-9.4.57-26.97-8.6-37.4l-31.37-32.54c29.98-11.58,56.98-18.3,85.25-34.77,9.47-5.52,28.5-26.84,38.71-23.29Z"/>
  <path class="st3" d="M532,1456c6.95,40.12,17.52,79.61,26.89,119.23,1.72,7.27-.13,15.55,1.11,20.77.8,3.37,3.93,3.72,4,4,2.52,10.68,5.51,21.31,8,32,.46,1.97,3.87,3.43,4,4,2.44,10.48,1.76,26.41,4,36-41.07-5.34-11.12,72.21,16,72,.29,1.23,3.1,4.12,4,8,.05.19-.72.82,0,4,.54,2.38-.54,5.61,0,8,1.37,6.04,3.9,7.56,4,8,.77,3.4,2.95,7.42,4,12,.04.19-1.01-.39,0,4,.75,3.26,2.89,7.34,4,12,.05.19-.92.13,0,4,3.78,15.92,9.01,31.95,12,48,.04.2-.24,1.8,0,4,.42,3.87-.62,8.38,0,12-8.68-2.18-16.74.88-21.83,8.18-5.64,8.09-15.77,56.53-13.6,64.91,6.3,24.34,38.87,19.41,51.43,2.91h4c.31,2.59-.37,5.45,0,8,.26,1.83,2.18,3.46,4,4,1.84,5.01,2.49,10.82,4,16,.06.19-1.29-.85,0,4,.74,2.77,2.62,6.58,4,12,.05.19-1.21-.78,0,4,.88,3.49,2.87,7.25,4,12,.05.19-1.06-.44,0,4,.79,3.33,2.88,7.32,4,12,.05.19-1.03-.43,0,4,.75,3.23,2.88,7.21,4,12,.12.5-1.9-.09,0,8,.78,3.3,2.89,7.28,4,12,.05.19-1.01-.41,0,4,.75,3.27,2.91,7.27,4,12,.04.19-1.03-.42,0,4,.76,3.29,2.9,7.29,4,12,.05.19-.74.82,0,4,.8,3.45-.81,8.55,0,12,.74,3.17,3.94,3.72,4,4,2.49,10.69,5.48,21.32,8,32,.05.19-1.04-.41,0,4,.79,3.32,2.89,7.32,4,12,.05.19-.76.8,0,4,.82,3.43-.82,8.57,0,12,1.42,5.93,3.9,7.56,4,8,.56,2.36-.56,5.64,0,8,1.4,5.9,3.9,7.56,4,8,.83,3.47,2.92,7.47,4,12,.05.19-1.05-.42,0,4,.8,3.34,2.88,7.31,4,12,.05.19-1.06-.45,0,4,.8,3.35,2.88,7.32,4,12,.05.19-.77.79,0,4,.82,3.43-.82,8.58,0,12,1.42,5.92,3.9,7.57,4,8,2.67,11.15,2.12,20.18,4,28,.8,3.34,3.93,3.72,4,4,.82,3.42-.82,8.58,0,12-4.53,4.95-11.82,7.35-18.35,7.68-24.63,1.23-86.69-4.97-105.65.32-.81-1.53-3.74-3.03-4-4-6.27-23.84-10.04-14.07-22.38-27.79-4.18-4.65-4.64-11.11-5.62-12.21l35.98,3.98c4.03-19.42-17.17-20.9-19.96-35.96,34.56,3.85,25.82-7.51,34.17-27.83,2.12-5.16,14.53-10.56,9.06-19.58-.73-1.21-7.53-1.3-10.44-7.29-5.19-10.65-18-53.13-4.81-59.36,11.53-5.45,26.61,4.36,23.88-23.77-3.08-31.71-30.41-26.92-40.08-37.1-10.33-10.87-5.11-25.06-9.72-33.15-3.52-6.18-17.19-6.99-18.05-8.11-1.56-2.04,8.01-21.09,3.52-27.37-1.75-2.45-13.29-2.37-15.04-4.97-2.34-3.49.9-14.68-1.02-21.05-2.25-7.5-14.94-2.81-11.47-14.41,8.51-2.38,31.2,6.9,28-8.01-13.31,5.3-27.19-12.2-36.17-6.08-3.92,2.67-1.43,14.5-17.1,10.17-4.59-1.27-10.32-20.59-16.8-24.09-9.04-2.28-8.7,23.3-35.14,15.2-9.18-2.82-13.27-19.08-26.8-15.22-3.16,3.23-5.55,79.99-4.19,90.2,2.73,20.54,33.78,45.21-3.82,49.82-.04-2.67.04-5.33,0-8,6.55-4.03,6.43-20.21,0-24-.34-17.83-3.68-33.91-4.17-49.83-1.01-33.35,4.44-70.18-3.83-102.17,16.9-17.42,28.83-40.44,48-56,.01.74,6.71,2.13,3.44,13.18-2.11,7.12-31.34,32.2-37.83,46.43-11.85,26,20.4-11.81,22.29-13.72,19.8-20.04,33.09-23.87,44.32-51.69,2.55-6.31,2.64-18.83,4.54-21.41,2.35-3.2,25.85-5.67,33.14-20.9,10.67-22.29-14.13-18.16-29.9-23.89,35.39-90.8,31.6-194.93-8.79-283.33-2.22-1.71-4.84-.45-7.21-.67-21.39-2.06-50.65.38-72,4v-20c33.31-.3,70.42-.23,104,0Z"/>
  <path class="st14" d="M652,1548c39.51,6.93,80,3.09,120.02,3.98.7,187.93-1.01,376.09-.02,564.02l-17.83-8.17c-20.44-77.69-37.97-156.47-57.43-234.55-1.65-6.61.21-14.75-8.73-17.28-1.27-5.35-2.74-10.65-4-16,7.39-3.41,1.72-13.05.46-18.41-8.87-37.56-11.17-86.25-22.9-117.14-1.78-4.7-9.88-26.78-17.56-24.46-.27-3.52-.51-8.72,0-12,.4-2.59,11.72-9.44-4-8-.43-5.04.98-11.7,0-16l-4-8c-.99-3.65-2.81-7.55-4-12,7.81-21.51-12.34-35.37,3.89-57.06,4.71-6.29,16.83-6.79,16.11-18.94Z"/>
  <path class="st3" d="M844,1456v480c-54.56,52.51-54.44,155.32,0,208v16c-10.61-.34-12.43,7.98-14.25,15.76s-6.09,50.58-5.6,58.04c.29,4.46,10.35,32.98,19.86,30.2v24c-14.09-3.32-7.8,23.62-12.42,27.56-2.53,2.16-26.37,1.65-29.82-3.29-10.12-14.53,8.23-36.22,6.29-49.95-1.78-12.66-23.56-34.43-28.38-48.35-3.26-9.4.54-12.15.33-17.97-7.76-214.29,5.8-433.24,0-648h60v-4h-60v-88c19.79.29,43.2-.76,64,0Z"/>
  <path class="st11" d="M1040,1928c13.24,10.51,26.58,37.28,36,52-3.69,1.88-34.3,18.74-36,20-20.6-45.14-89.31-56.88-129.36-31.36-78.34,49.93-47.33,171.26,45.36,175.36-2.17,13.22-3.84,26.5-4,40-37.35-.4-80.77-13.65-108-40-54.44-52.68-54.56-155.49,0-208,51.18-49.26,140.71-51.89,196-8Z"/>
  <path class="st14" d="M836,2908c-.05,3.32.05,12.65,0,16-.86,54.65-2.95,109.91-4,164l-52.02.02,4.02-560.02c11.56,49.28,56,191.15,56,230v104c0,10.99-3.79,30.63-4,46Z"/>
  <path class="st3" d="M1360,2324l184.02-.02c4.1,4.1-6.11,80.11,3.98,92.02-.92,1.1-.85,6.5-3.82,10.02-23.38,27.73-47.25,55.66-72.18,81.98-9.65-41.08-55.15-114.39-87.95-142.05-4.21-3.55-33.95-25.22-36.05-25.95-.82-9.9,8.57-11.92,12-16Z"/>
  <path class="st3" d="M772,1456l.02,84.02-156,4.02,35.98,3.96c.72,12.15-11.4,12.65-16.11,18.94-16.23,21.68,3.92,35.55-3.89,57.06-14.91-55.56-29.29-111.4-40-168,59.25-.29,120.58-.78,180,0Z"/>
  <path class="st6" d="M1280,2600c-1.47-1.68-32.78-22.25-37.24-24.76-83.6-47.23-192.38-8.76-226.76,80.76-10.88,2.35-7.92-5.39-9.26-12.53-7.69-41.01-.85-86.07,1.26-127.47,78.03,31.73,208.83,35.01,256-48,5.21,17.27,13.37,29.9,15.51,50.49,2.73,26.35-.96,54.9.49,81.51Z"/>
  <path class="st3" d="M1172,2868l-131.96,152c-4.66-67.02,6.13-141.97-.04-208,21.76,11.32,38.01,30.55,61.23,40.77,18.59,8.18,50.68,15.24,70.77,15.23Z"/>
  <path class="st11" d="M1008,2680c-4.17,24.35,1.09,60.74,10.05,83.94,4.92,12.72,19.81,30.68,21.95,40.06-30.97,7.61-43.14,21.78-76.88,10.85-88.16-28.54-45.13-165.05,44.88-134.85Z"/>
  <path class="st13" d="M784,2528l-4.02,560.02,52.02-.02c-.06,3.07.05,8.63,0,12l-52.02-.02.02,172.02c-7.78,1.01-17.8,3.66-24,4l12.27-10.2-.25-165.82-316.02.02c0-5.33-.06-10.67,0-16l320.02,4.02,3.98-584.02c1.55,6.55,5.96,15.29,8,24Z"/>
  <path class="st13" d="M1552,2992l-.02,96.02,308.02-.02v8l-308.02-.02.02,276.02c-2.15-.69-5.84.69-8,0l.02-276.02-400.02.02c4.34-5.01,8.99-8.53,12-12l388.02,4.02c-2.48-28.35,5.15-61-4.02-88.02,4.31-4.5,10.26-6.19,12-8Z"/>
  <path class="st14" d="M832,3100c-.08,5.33.09,10.67,0,16-.03,1.64.03,6.37,0,8-.7,45.26.76,90.75,0,136-3.19-.2-6.2,3.51-8,4-8.9,2.4-19.08,2.34-28,4l-2.04-3.96c-7.4-1.4-6.35,1.16-5.96,7.96-2.53.4-5.43-.33-8,0l-.02-172.02,52.02.02Z"/>
  <path class="st14" d="M772,2176c.36,10.72-4.31,23.04,8,20,.21,5.82-3.59,8.57-.33,17.97,4.82,13.91,26.6,35.69,28.38,48.35,1.93,13.72-16.42,35.42-6.29,49.95,3.44,4.94,27.29,5.45,29.82,3.29,4.62-3.94-1.66-30.88,12.42-27.56,0,66.61.03,133.39-.04,200l-6-3.96c-25.59-101.09-49.52-202.71-73.96-304.04l8-4Z"/>
  <path class="st7" d="M1916,1928c1.87,13.86-4.68,33.17,4,44-14.8,17.57-28.62,39.26-44.73,57.27-4.59,5.13-6.19,11.1-15.27,10.73,4.64-33.86-3.41-77,0-112,18.62-.02,37.38.04,56,0Z"/>
  <path class="st13" d="M1552,2100l-.02,216.02c23.03-1.92,49.53,2.57,72.02-.02-.25,2.6.37,5.45,0,8l-72.02-.02.02,88.02c-1.21,1.46-2.82,2.59-4,4-10.08-11.91.12-87.92-3.98-92.02l-184.02.02c2.72-3.23,6.74-6.34,8-8l176.02.02c3.52-62.51-4.81-130.15-.02-192.02,1.29-16.62,5.61-16.14,8-24Z"/>
  <path class="st14" d="M624,1868c.32,1.89,2.09,3.52,4,4,4.63,8.54,13.74,51.59,16,64-4.38,1.23-3.06,6.77-4,8-12.56,16.5-45.13,21.43-51.43-2.91-2.17-8.38,7.96-56.82,13.6-64.91,5.09-7.3,13.15-10.36,21.83-8.18Z"/>
  <path class="st14" d="M1624,2324c-2.79,19.35-57.14,70.13-72,88l-.02-88.02,72.02.02Z"/>
  <path class="st3" d="M772,2116c.1,19.91-.67,40.12,0,60l-8,4c-26-107.8-50.49-216.08-76-324,8.94,2.53,7.09,10.67,8.73,17.28,19.46,78.08,36.99,156.86,57.43,234.55l17.83,8.17Z"/>
  <path class="st13" d="M1552,2636v308c-.51-.53-5.98-1.7-12-8l4-292c3.76-4.28,7.15-7.03,8-8Z"/>
  <path class="st14" d="M580,1672c5.57,23.81,10.54,48.5,16,72-27.12.21-57.07-77.34-16-72Z"/>
  <path class="st14" d="M844,2160c0,34.62,0,69.38,0,104-9.51,2.78-19.57-25.74-19.86-30.2-.48-7.46,3.76-50.15,5.6-58.04s3.65-16.11,14.25-15.76Z"/>
  <path class="st3" d="M644,1680c7.68-2.32,15.78,19.76,17.56,24.46,11.72,30.89,14.02,79.57,22.9,117.14,1.27,5.36,6.93,15-.46,18.41-10.49-44.51-36.78-118.45-40-160Z"/>
  <path class="st3" d="M1956,1928c-4.09,19.57-25.38,31.38-36,44-8.68-10.83-2.13-30.14-4-44,13.3-.03,26.7.05,40,0Z"/>
  <path class="st13" d="M836,2924c.05-3.35-.05-12.68,0-16,5.57,5.06,5.46,11.08,0,16Z"/>
  <path class="st3" d="M640,1660c15.72-1.44,4.4,5.41,4,8-3.92-1.07-3.71-4.62-4-8Z"/>
  <path class="st13" d="M832,3124c.03-1.63-.03-6.36,0-8l2.7,3.19-2.7,4.81Z"/>
  <path class="st13" d="M832,3260c-.05,2.67.05,5.33,0,8l-8-4c1.8-.49,4.81-4.2,8-4Z"/>
  <path class="st13" d="M644,1944h-4c.94-1.23-.38-6.77,4-8,.44,2.43-.31,5.42,0,8Z"/>
  <path class="st13" d="M668,2044c-1.9-8.09.12-7.5,0-8v8Z"/>
  <path class="st13" d="M700,2180c-.1-.44-2.58-2.07-4-8l4,8Z"/>
  <path class="st3" d="M640,1644c-.1-.44-2.82-3.65-4-8l4,8Z"/>
  <path class="st13" d="M604,1772c-.1-.44-2.63-1.96-4-8l4,8Z"/>
  <path class="st13" d="M720,2264c-.1-.43-2.58-2.08-4-8l4,8Z"/>
  <path class="st13" d="M704,2196c-.1-.44-2.6-2.1-4-8l4,8Z"/>
  <path class="st13" d="M676,2076c-1.03-4.42.04-3.81,0-4v4Z"/>
  <path class="st13" d="M600,1756c-.72-3.18.05-3.81,0-4v4Z"/>
  <path class="st13" d="M680,2092c-.74-3.18.05-3.81,0-4v4Z"/>
  <path class="st13" d="M608,1788c-1.01-4.39.04-3.81,0-4v4Z"/>
  <path class="st13" d="M664,2024c-1.03-4.43.05-3.81,0-4v4Z"/>
  <path class="st13" d="M612,1804c-.92-3.87.05-3.81,0-4v4Z"/>
  <path class="st13" d="M624,1856c-.24-2.2.04-3.8,0-4v4Z"/>
  <path class="st13" d="M628,1872c-1.91-.48-3.68-2.11-4-4,2.82.71,2.88,1.93,4,4Z"/>
  <path class="st13" d="M696,2160c-.76-3.2.05-3.81,0-4v4Z"/>
  <path class="st13" d="M716,2244c-.77-3.21.05-3.81,0-4v4Z"/>
  <path class="st13" d="M672,2060c-1.01-4.41.05-3.81,0-4v4Z"/>
  <path class="st13" d="M684,2108c-.06-.28-3.26-.83-4-4l4,4Z"/>
  <path class="st13" d="M712,2228c-1.06-4.45.05-3.81,0-4v4Z"/>
  <path class="st13" d="M692,2144c-1.04-4.41.05-3.81,0-4v4Z"/>
  <path class="st13" d="M648,1956c-1.82-.54-3.74-2.17-4-4,1.42,1.04,3.41,2.39,4,4Z"/>
  <path class="st13" d="M728,2296c-.07-.28-3.2-.66-4-4l4,4Z"/>
  <path class="st13" d="M652,1976c-1.29-4.85.06-3.81,0-4v4Z"/>
  <path class="st13" d="M656,1992c-1.21-4.78.05-3.81,0-4v4Z"/>
  <path class="st13" d="M576,1636c-.13-.57-3.54-2.03-4-4l4,4Z"/>
  <path class="st13" d="M564,1600c-.07-.28-3.2-.63-4-4l4,4Z"/>
  <path class="st13" d="M660,2008c-1.06-4.44.05-3.81,0-4v4Z"/>
  <path class="st13" d="M708,2212c-1.05-4.42.05-3.81,0-4v4Z"/>
  <path class="st2" d="M1552,456c27.25-10.13,46.68-42.23,73.17-52.87,5.58-2.24,7.95-6.05,12.78.92,10.61,15.3,11.75,96.86,10.21,118.1-2.33,32.15-13.1,62.77-20.13,93.83,73.33-28.23,158.52-35.43,231.98-5.88-35.48,67.75-115.85,126.92-188,149.89-8.84,2.81-23.2,7.03-32,8-5.19.57-10.74-.18-16,0-11.95.4-24.04-.28-36,0-11.39-77.86-52.69-160.99-104-220,8.57.13,10.9-5.02,15.37-10.63,13.37-16.76,32.09-46.42,44.63-65.37,2.29-3.47,11.22-5.45,8-16Z"/>
  <path class="st4" d="M3092,500c2.53.39,5.59-.48,8,0,1.75.35,7.88,2.88,12,4,16.49,4.48,49.1,16.39,64,24,263.73,134.66,217.43,528.66-76,596-4.77,1.09-10.38,3.71-12,4-11.86,2.1-27.76,3.36-40,4-2.65.14-5.34-.04-8,0-193.37,3.15-346.02-157.74-328-352,.14-1.52,3.09-10.16,4-16,28.51-182.87,196.35-291.31,376-264Z"/>
  <path class="st3" d="M452,3100l316.02-.02.25,165.82-12.27,10.2c-7.53.42-16.52.54-24,0-1.88-.14-9.59-11.8-8,4-91.5,8.65-179.29,38.6-268,60,.14-18.61-.33-37.4,0-56,.54-30.44,2.09-56.4,0-88s-3.95-62.99-4-96Z"/>
  <path class="st3" d="M308,2324c-.08,143.94.06,288.06,0,432h-4c-58.5-108.95-117.13-218.1-174.09-327.91-17.68-34.1-32.39-70.14-49.91-104.09h228Z"/>
  <path class="st14" d="M436,2068c37.6-4.62,6.56-29.28,3.82-49.82-1.36-10.21,1.03-86.96,4.19-90.2,13.53-3.86,17.62,12.41,26.8,15.22,26.44,8.11,26.1-17.48,35.14-15.2,6.48,3.5,12.21,22.82,16.8,24.09,15.67,4.33,13.18-7.5,17.1-10.17,8.98-6.12,22.86,11.38,36.17,6.08,3.2,14.91-19.49,5.63-28,8.01-3.47,11.59,9.21,6.91,11.47,14.41,1.92,6.38-1.33,17.56,1.02,21.05,1.75,2.61,13.29,2.52,15.04,4.97,4.49,6.28-5.08,25.33-3.52,27.37.86,1.12,14.53,1.94,18.05,8.11,4.61,8.09-.6,22.29,9.72,33.15,9.67,10.18,37,5.39,40.08,37.1,2.73,28.13-12.35,18.32-23.88,23.77-13.19,6.23-.38,48.71,4.81,59.36,2.92,5.99,9.71,6.08,10.44,7.29,5.46,9.02-6.94,14.42-9.06,19.58-8.35,20.32.38,31.68-34.17,27.83,2.79,15.06,23.99,16.54,19.96,35.96l-35.98-3.98c-1.2-1.36-2.68-2.73-4-4,.67-33.7-30.44-10.92-40.18-17.71-3.27-2.28-14.05-34.97-15.86-42.3l-31.97,12.04c-2.68,13.17,20.2,24.64,20.17,33.97-.02,6.18-15.35,18.96-18.28,29.86s-2.02,21.27-1.88,32.13c-11.62-.5-15-2.38-24-4,.43-10.34-6.65-13.1-16-12,.11-7.99-.13-16.01,0-24h4c4.43-2,24.06-8.36,24.26-10.23,1.61-14.48-11.72-23.19-24.26-25.77.81-33.34,1.11-68.85,0-102.18-.26-7.7,4.08-16.05-8-13.82-.03-18.61.27-37.39,0-56ZM495.98,2176.02h-11.96v7.96h11.96v-7.96Z"/>
  <path class="st2" d="M500,1472c-9.54,72.34-54.86,140.32-112,184-23.39,17.88-52.5,32.79-79.35,44.78l-.65,7.22c-45.64,3.12-88.91,25.56-135.99,19.98,13.57-66.49,49.62-118.57,96.1-166.03,3.06-3.13,3.08-9.13,3.88-9.95,1.48-1.52,11.25-11.45,12-12s9.24-3.49,16-8c1.8-1.2,5.09-2.12,8-4,35.53-22.87,77.78-44.83,120-52,21.35-3.62,50.61-6.06,72-4Z"/>
  <path class="st8" d="M500,1472c2.36.23,4.99-1.04,7.21.67,40.4,88.39,44.18,192.53,8.79,283.33-5.6,14.36-40.14,65.06-40,72-19.17,15.56-31.1,38.58-48,56-2.72,2.8-5.67,13.21-11.94,7.99-2.12-1.76-15.98-45.01-18.04-52.01-18.24-62.07-21.31-120.21-10.02-183.98,57.14-43.68,102.46-111.66,112-184Z"/>
  <path class="st13" d="M308,2316c0,2.67,0,5.33,0,8H80c-1.68-3.25-5.44-7.03-8-12l236,4Z"/>
  <path class="st13" d="M436,2124c12.08-2.23,7.74,6.12,8,13.82,1.11,33.33.81,68.84,0,102.18-.16,6.69-3.99,11.37-4,12-6.62-4.15-4-15.18-4.07-21.94-.37-35.33.12-70.77.07-106.06Z"/>
  <path class="st13" d="M440,2376c12.08-2.23,7.74,6.11,8,13.82,1.29,38.62-3.26,77.56-4,114.18-7.39-40.69-3.96-86.12-4-128Z"/>
  <path class="st13" d="M444,2624c12.08-2.23,7.74,6.11,8,13.82,1.2,35.99-3.29,72.23-4,106.18-7.38-37.94-3.97-80.83-4-120Z"/>
  <path class="st13" d="M448,2900c12.08-2.23,7.74,6.11,8,13.82,1.16,34.69-3.27,69.54-4,102.18-7.39-36.57-3.96-78.18-4-116Z"/>
  <path class="st13" d="M456,3284c-6.73-25.81-6.68-62.18,0-88,2.09,31.6.54,57.56,0,88Z"/>
  <path class="st3" d="M444,2240c12.54,2.58,25.87,11.29,24.26,25.77-.21,1.87-19.83,8.23-24.26,10.23l-4-4c.12-6.66-.14-13.34,0-20,.01-.63,3.84-5.31,4-12Z"/>
  <path class="st13" d="M456,2312c9,1.62,12.38,3.5,24,4,9.79.42,21.34-4.15,24-4,2.02.11,11.91,12.48,16,16-24.63-5.63-55.36-7.26-80,0,.07-5.33-.07-10.67,0-16,5.09.58,11.24-.85,16,0Z"/>
  <path class="st3" d="M456,2312c-4.76-.85-10.91.58-16,0,.05-4-.05-8,0-12,9.35-1.1,16.43,1.66,16,12Z"/>
  <path class="st13" d="M436,2060c-.12-7.99.15-16.01,0-24,6.43,3.79,6.55,19.97,0,24Z"/>
  <path class="st13" d="M308,3088c.01,2.67-.01,5.33,0,8-12.53,2.22-11.89-10.45,0-8Z"/>
  <polygon class="st13" points="304 2756 308 2756 306 2759.92 304 2756"/>
  <path class="st13" d="M444,2276h-4c.02-1.33-.02-2.67,0-4l4,4Z"/>
  <path class="st14" d="M3248,180c-3.58-1.18-14.65-2.9-15.68-4.34-3.73-5.23,5.32-21.33,3.7-23.61-4.96-7-43,5.82-51.17-26.91-.89-3.57-1.84-16.14-.87-17.13,1.58-1.63,42.96-3.62,45.2-3.28,1.95.29,33.12,18.22,34.15,19.9,13.89,22.53-17.9,22.08-19.19,23.55-1.21,1.38,3.02,26.08,3.85,31.82,4.76,1.57,20.35,6.89,22.91,7.25,6.13.87,24.23-8.98,21.03,2.67-7.78,28.32-20.93,6.51-22.59,6.13-5.58-1.29-20.03,1.21-21.37-.03-.91-.84.6-12.08.02-16.02Z"/>
  <path class="st14" d="M3100,228c12.08-2.23,7.74,6.11,8,13.82,1.65,49.33-.86,98.98-.16,148.35.41,29.15.02,61.03,3.85,88.22,1.19,8.46.09,17.14.32,25.61-4.12-1.12-10.25-3.65-12-4V228Z"/>
  <path class="st14" d="M3711.94,172.02c8.4,16.3.62,21.88-2.99,34.96-3.26,11.82,3.95,27.9-16.93,25-1.54-7.2,4.97-15.33,4.21-21.5-.33-2.63-7.55-2.14-8.28-5.12-3.05-12.37,8.47-36.61,23.99-33.35Z"/>
  <path class="st14" d="M3743.98,179.98c-3.16,3.06-21.97-8.37-23.11-14.41-.8-4.25,3.92-40.46,9.19-41.55,17.74-3.69,4.94,31.11,5.82,37.74,1.02,7.65,9.48,10.17,8.1,18.21Z"/>
  <path class="st14" d="M3351.68,555.68c-19.39,13.84-23.93-24.16-9.63-27.67,10.8-2.65,16.54,22.73,9.63,27.67Z"/>
  <path class="st14" d="M3183.98,228.02c1.72,1.72,3.83,21.1-9.94,15.94-17.09-6.4.76-25.13,9.94-15.94Z"/>
  <path class="st14" d="M3792,620c.09,7.26,3.94,14.58,4,20-11.08,2.88-8.35-9.69-12.06-17.95l8.06-2.05Z"/>
  <path class="st14" d="M3771.98,736.02c4.36,4.36-3.6,12.32-7.96,7.96s3.6-12.32,7.96-7.96Z"/>
  <path class="st14" d="M3267.98,216.02c4.36,4.36-3.6,12.32-7.96,7.96s3.6-12.32,7.96-7.96Z"/>
  <path class="st8" d="M772,312c.72.68,7.54,7.5,8,8,21.17,23.03,44.58,67.42,57.94,96.27,2.7,5.83-.87,14.17,10.06,11.73v100c-2.17.87-3.56,3.38-8,4-17.8,2.49-42.7,3.13-60,4-2.66.13-5.34-.11-8,0-116.83,4.68-240.44,1-356,0-35.85-.31-72.2,1.34-108,0-6.61-.25-15.44.05-21.59-.39-10.47-.75-26.5-2.17-36.55-3.57-6.61-.92-5.79,2.34-6.02-6.05-.73-26.94,11.42-77.19,21.11-103.04,7.63-20.37,29.67-62.47,43.04-78.96,19.24-23.72,76.72-70.35,104-84,113.72-56.92,268.23-35.29,360,52Z"/>
  <path class="st15" d="M1484,548c51.31,59.01,92.61,142.14,104,220,1.4,9.56,6.61,69.44,4.02,72.02-67.95.09-136.07-.2-204.02-.02-22.74.06-48.49,3.98-68,4-9.93.01-28.92-4.01-44-4-78.61.06-157.39.06-236,0-63.94-.05-128.06.14-192,0-22.62-.05-45.38.2-68,0-2.67-.02-5.33.03-8,0-8.65-.1-49.95,1.55-52.03,0-.66-.49.38-5.75.03-7.99.88-1.11-.78-5.84,0-8,5.55-15.37,3.1-20.95,4-36,.24-3.97-.14-8.01,0-12,.1-2.66-.11-5.34,0-8,.03-.69,4.04-4.43,4-8,2.59-2.08,3.48-4.84,4-8,7.67-46.86,22.3-77.11,40-120,2.47-5.97,6.5-1.85,8-20,9.15.55,10.34-6.06,14.49-11.51,12.72-16.69,24.79-33.69,37.62-50.38,4.56-5.94,9.6-8.78,7.88-18.11,4.44-.62,5.83-3.13,8-4,17.55-7.03,33.99-27.62,50.68-39.32,39.55-27.74,95.03-59.29,141.32-72.68,156.05-45.12,338.35,10.49,444,132Z"/>
  <path class="st2" d="M4368,1324c122.97-12.31,227,52.64,264.06,169.95-69.79,14.2-145.7,8.22-208.13-27.88-20.36-11.77-34.8-28.7-55.93-38.07-2.53-21.25-48.23-63.42-48.05-86.2.07-9.56,38.59-16.85,48.05-17.8Z"/>
  <path class="st13" d="M4252,768v12l-264-4c-.09-2.66.07-5.34,0-8h264Z"/>
  <path class="st3" d="M4252,780v96c-14.36-5.3-82.3-24-94-24h-120c-2.33,0-40.86,6.84-46,8,3.12-28.33-3.1-56.53-4-84l264,4Z"/>
  <path class="st3" d="M100,1420c.88,10.51-.65,21.47-.02,32.02,64.76.71,129.68-.9,194.5-.31,7.31.07,12.82,4.29,13.53,4.29v72c-2.91,1.88-6.2,2.8-8,4l.02-72.02-201.47-.52c-9.41-2.93-6.58-17.79-6.59-25.59s-3.75-16.14,8.05-13.86Z"/>
  <path class="st3" d="M104,1388c.1,5.23,1.83,13.29-4,16-.36-4.92-12.87-18.12,4-16Z"/>
  <path class="st3" d="M108,1368l-4,8c-.04-.44-5.61-3.65-3.98-7.97,2.31-.46,7.41.64,7.98-.03Z"/>
  <path class="st0" d="M772,536v96c-17.7,42.89-32.33,73.14-40,120-16.34-.89-4.01,7.08-4,8,.04,3.57-3.97,7.31-4,8h-304c-.28-22.69-3.83-45.23-4.16-65.84-.89-55.34,1-110.86.16-166.16,115.56,1,239.17,4.68,356,0Z"/>
  <path class="st3" d="M448,776c4.88,13.35-9.94,12.72-11.57,18.51-.47,1.68-.88,33.16-.55,34.88.66,3.48,9.44.98,8.3,8.43-1.33,8.67-11.19,13.57-11.64,23.94-.58,13.31,9.47,31.39,10.31,40.74.62,6.89-4.2,14.37-2.87,23.19,1.25,8.31,10.63,14.35,11.26,20.92.52,5.41-6.49,14.12-7.36,23.27-2.41,25.14,4.61,52.23.13,78.12-6.83,1.01-17.68,2.68-24,4-.83-80.64,1.04-161.47.18-242.16-.12-11.39-.07-24.05-.18-33.84h28Z"/>
  <path class="st13" d="M724,768c-.11,2.66.1,5.34,0,8h-304c-.03-2.67.03-5.33,0-8h304Z"/>
  <path class="st0" d="M1660,784l656-4v760h-764l4-448c95.91-1.32,192.1.97,288.02.02,4.65-92.5-38.25-189.82-105.91-252.13-17.76-16.35-57.08-45.24-78.11-55.89ZM1738.55,1192.29l-54.26,57.16,57.16,54.26,54.26-57.16-57.16-54.26Z"/>
  <path class="st0" d="M2712,780c-18.02,194.26,134.63,355.15,328,352l2.48,3.36,5.52-3.36c12.24-.64,28.14-1.9,40-4l4.02,412.02-552.02-4.02c7.25-7.72,29.7-29.06,27.57-37.2-1.22-4.65-64.29-67.35-69.03-66.51-9.77,12.7-63.42,56.17-66.12,66.51-2.1,8.04,24.13,33.58,31.57,41.2h-136v-760h384Z"/>
  <path class="st4" d="M1040,840l.04,779.98,20.04-45.9c57.16-160.73,113.68-321.79,171.92-482.08,27.34-75.23,58.87-149.89,84.19-225.85,2.43-7.29,4.6-14.32,3.81-22.15,19.51-.02,45.26-3.94,68-4-27.46,84.6-58.09,168.27-88,252-52.33,146.52-104,293.35-156,440-2.16,6.08-5.43,12.74-8,20-30.64,86.57-62.53,173.02-95.07,258.93l-.93,117.07c-55.29-43.89-144.82-41.26-196,8v-480c22.56.82,45.44-.61,68.02.02.85-53.58-10.92-113.21-31.3-162.74-9.75-23.7-34.22-54.42-36.72-77.28l4-376c63.94.14,128.06-.05,192,0Z"/>
  <path class="st3" d="M1136,1552l408.02-.02-.02,400.02c-23.05-11.42-33.84-31.76-58.49-43.51-76.15-36.27-160.55-5.64-193.51,71.51-5.68-3.67-78.69-19.44-89.82-20.18-31.67-2.12-98.05,5.82-126.18,20.18-9.42-14.72-22.76-41.49-36-52l.93-117.07c32.54-85.91,64.43-172.36,95.07-258.93Z"/>
  <path class="st3" d="M1400,1092c11.24,1.1,18.03,8.34,34,8.34,15.97,0,22.76-7.25,34-8.34,23.5-2.28,51.67.43,76,0l.02,448.02c-128.47-3.25-257.76,4.28-386.2-.02-7.71-.26-16.05,4.07-13.82-8,52-146.65,103.67-293.48,156-440,32.26,2.26,68.28-3.09,100,0ZM1347.15,1124.83c-89.06,6.96-77.58,147.75,18.51,134.82,80.06-10.78,66.84-141.49-18.51-134.82Z"/>
  <path class="st8" d="M1624,768c1.68,7.41,7.38,6.09,12,8,7.48,3.11,18.5,5.21,24,8,21.03,10.66,60.35,39.54,78.11,55.89,67.66,62.31,110.56,159.63,105.91,252.13-95.92.95-192.11-1.34-288.02-.02-4,.06-8-.07-12,0-24.33.43-52.5-2.28-76,0,33.95-35.24,23.76-97.86-29.86-100.19-59.61-2.59-76.42,61.19-38.14,100.19-31.72-3.09-67.74,2.26-100,0,29.91-83.73,60.54-167.4,88-252,67.95-.18,136.07.12,204.02.02,2.59-2.58-2.62-62.46-4.02-72.02,11.96-.28,24.05.4,36,0Z"/>
  <path class="st11" d="M1544,1952c-1.63,7.9,1.89,13.37,4,20,18.61,58.49,22.82,66.22,4,128-2.39,7.86-6.71,7.38-8,24-15.96,3.74-23.82,20.5-36.27,29.73-26.2,19.44-58.98,29.82-91.73,26.27-.09-11.1-1.83-25.15-4-36,83.01-9.43,120.42-112.03,53.9-167.9-45.42-38.14-113.26-28.29-141.9,23.9-1.53-1.12-17.76-2.88-25.66-8.52-6.11-4.36-5.79-11.12-6.34-11.48,32.96-77.15,117.35-107.78,193.51-71.51,24.66,11.74,35.44,32.09,58.49,43.51Z"/>
  <path class="st6" d="M2540,1536c-4.12,4.38-11.64,11.92-16,16-7.14,6.67-15.59,12.65-22.54,19.71-3.74.66-21.26-15.77-25.46-19.71-3.68-3.46-8.37-8.29-12-12-7.44-7.62-33.68-33.16-31.57-41.2,2.71-10.35,56.35-53.82,66.12-66.51,4.74-.84,67.81,61.86,69.03,66.51,2.13,8.14-20.32,29.47-27.57,37.2Z"/>
  <path class="st3" d="M1640,768l-4,8c-4.62-1.91-10.32-.59-12-8,5.26-.18,10.81.57,16,0Z"/>
  <path class="st14" d="M2328,3468v-372h764v84c-247.01,142.94-473.82,252.4-764,288Z"/>
  <path class="st14" d="M1920,3096l396.02-.02-.02,372.02c-133.46,15.31-262.41,15.96-396,0,0-122.62-4.43-249.99,0-372Z"/>
  <path class="st3" d="M3232,3096c2.21,9.97-5.24,8.13-10.58,11.22-40.24,23.27-81.33,45.47-121.42,68.78l-.02-80.02c43.82-1.44,88.25,2.03,132.02.02Z"/>
  <path class="st14" d="M1860,3096v360c-102.31-12.21-200.91-44.2-298.41-75.77-6.38-2.07-8.99-8.03-9.59-8.23l-.02-276.02,308.02.02Z"/>
  <path class="st14" d="M2808,2324c5.28,23.99,28.63,93.03,44.53,109.46,9.55,9.87,9.59,9.15,18.9-.05,17.24-17.03,56.71-86.24,64.58-109.41h156v764h-764v-428c51.92,15.54,101.98,18.26,156.01,15.98,7.86-7.99-26.02-59.8-32.75-69.24-72.96-102.31-196.64-162.84-323.04-142.43-1.3,2.45.36,5.82-.22,7.69-.38,1.21.35,2.76,0,4-32.95,117.44-9.97,231.25,69.94,324.06,8.93,10.37,68.11,72.37,78.02,63.95,13.24-57.4,20.57-114.72,11.56-173.53-1.42-9.3-8.52-43.85-11.52-50.48,14.93,1.16,27.1,11.43,40,16l.02,432.02-396.02-.02c.42-8.45-.89-17.04.43-25.51l203.57-646.49c185.79.1,371.55.13,557.44-.56,3.36-.77,4.93-2.83,5.98-5.99,3.12-9.37-4.86-71.35-7.43-85.45h128Z"/>
  <path class="st3" d="M2088,2416l-164.05,463.97-7.95-315.97c.95-4.61.74-18.95,0-24,9.17-39.43,1.52-83.46,4-124,55.94.22,112.06-.03,168,0Z"/>
  <path class="st6" d="M1860,2480c24.97,4.37,52.38,35.17,56,60,.74,5.05.95,19.39,0,24-5.03,24.37-31.11,48.81-56,52-88.07,11.28-111.53-104.83-32.88-130.87,9.04-2.99,23.66-6.74,32.88-5.13Z"/>
  <path class="st0" d="M3527.94,160.02c9.94,9.55,5.05,35.48,4.04,47.96-16.76,1.31-13.36-31.26-11.98-42.06.71-5.57,2.09-11.53,7.94-5.91Z"/>
  <path class="st0" d="M3259.98,292.02c2.8,10.43-5.01,27.34-17.91,23.97-19.04-4.97,14.26-28.11,17.91-23.97Z"/>
  <path class="st0" d="M3255.98,328.02c6.51,5.83-17.02,22.17-23.96,15.96-6.51-5.83,17.02-22.17,23.96-15.96Z"/>
  <path class="st0" d="M3611.98,303.98c-1.72,1.72-21.06,3.85-15.94-9.94,5.73-15.42,22.52,3.37,15.94,9.94Z"/>
  <path class="st0" d="M3611.98,200.02c2.46,2.65-.9,13.99-6.04,15.94-13.9,5.27-1.52-24.06,6.04-15.94Z"/>
  <path class="st0" d="M3263.98,400.02c6.34,6.34-5.61,18.3-11.96,11.96-6.34-6.34,5.61-18.3,11.96-11.96Z"/>
  <rect class="st0" x="3448.02" y="216.02" width="7.96" height="11.96"/>
  <path class="st0" d="M3647.98,440.02c4.36,4.36-3.6,12.32-7.96,7.96s3.6-12.32,7.96-7.96Z"/>
  <path class="st0" d="M3599.98,440.02c4.36,4.36-3.6,12.32-7.96,7.96s3.6-12.32,7.96-7.96Z"/>
  <path class="st11" d="M3100,1692c17.66-4.36,59.61-5.71,78.14-4.15,47.31,3.99,82.69,31.06,113.86,64.15-1.78,1.53-30.44,30.25-32,32-57.58-64.31-174.61-33.48-190.19,51.81-15.98,87.48,46.05,144,130.19,140.19.43,8.81,2.56,37.62,4,44-28.35,5.67-51.63,5.15-80,0-168.03-30.47-179.84-251.16-32-324,1.92-.95,7.57-3.89,8-4Z"/>
  <path class="st1" d="M3536,1692c8.66,1.64,31.21,8.7,40,12,65.03,24.45,107.38,69.88,139.94,129.25,2.03,3.71,7.87,2.37,8.06,2.75.98,1.89,11.3,36.95,12,40,8.58,37.17,9.4,87.04,0,124-44.31,174.15-233.25,235.21-392,180-5.12-1.78-14.29-8.41-24-12-1.17-.43-2.81.41-4,0,1.93-10.52-18.91-15.54-28-20-2.92-3.38-6.19-5.86-8-8-12.73-15.02-23.84-32.19-40-44-2.78-14.37-18.17-30.18-24-44-1.58-3.76-11.62-30.31-12-32-1.44-6.38-3.57-35.19-4-44-2.87-59.33,20.41-147.43,60-192,1.56-1.75,30.22-30.47,32-32,64.04-55.09,162.15-75.55,244-60ZM3590.93,1896.71c-35.43,7.38-28.28,64.74,18.32,50.5,23.1-7.06,16.06-57.66-18.32-50.5ZM3462.83,1932.85c-70.49,16.03-54.33,169.64,20.12,182.18,126.56,21.31,93.7-208.05-20.12-182.18ZM3338.85,1960.8c-30.88,9.27-17.51,61.16,18.31,50.41,30.88-9.27,17.51-61.16-18.31-50.41Z"/>
  <path class="st15" d="M2884,2056c4.99-2.68,11.47-7.2,16.39-1.52s21.81,37.29,25.56,45.58c31.91,70.64,32.53,142.24,10.06,215.94-.67,2.21.71,5.92,0,8-7.86,23.17-47.33,92.38-64.58,109.41-9.31,9.2-9.35,9.92-18.9.05-15.9-16.43-39.25-85.47-44.53-109.46-.79-3.59-3.81-6.91-4-8-7.35-41.26-3.02-103.41,8-144,2.96-10.9,13.46-22.47,12-36,57.29,25.62,96.66-43.36,60-80Z"/>
  <path class="st2" d="M2804,2068c-10.01,21.39-2.57,57.9,20,68,1.46,13.53-9.04,25.1-12,36-25.41,6.91-48.77,18.21-75.08,22.92-9.81,1.75-58.66,10.87-60.9-1.04-1.06-5.64,30.55-55.33,36.67-63.19,21.5-27.62,56.47-55.31,91.32-62.68Z"/>
  <path class="st6" d="M2884,2056c36.66,36.64-2.71,105.62-60,80-22.57-10.1-30.01-46.61-20-68,13.34-28.49,58.85-33.14,80-12Z"/>
  <path class="st6" d="M2782.91,1972.79c47.12-10.45,54.31,52.69,22.26,62.39-47.77,14.45-58.76-54.29-22.26-62.39Z"/>
  <path class="st13" d="M2804,2316c.19,1.09,3.21,4.41,4,8h-128c-.45-2.48.49-5.56,0-8h124Z"/>
  <path class="st3" d="M3636,1556c-47.2,17.89-100.17,83.45-100,136-81.85-15.55-179.96,4.91-244,60-31.17-33.09-66.55-60.16-113.86-64.15-18.53-1.56-60.48-.22-78.14,4.15l-.02-140.02,536.02,4.02Z"/>
  <path class="st6" d="M3724,1836c-.2-.38-6.03.96-8.06-2.75-32.56-59.37-74.91-104.81-139.94-129.25,16.07-78.47,113.93-112.86,176.05-62.05,70.58,57.74,51.58,157.21-28.05,194.05Z"/>
  <path class="st2" d="M2128,2472c.58-1.87-1.08-5.24.22-7.69,126.4-20.41,250.08,40.12,323.04,142.43,6.73,9.44,40.61,61.26,32.75,69.24-54.03,2.28-104.09-.44-156.01-15.98-3.47-1.04-8.5-2.76-12-4-12.9-4.57-25.07-14.84-40-16-4.99-10.98-45.38-33.51-57.88-44.12-45.46-38.55-56.8-72.53-86.12-119.88-.97-1.57-2.63-2.77-4-4Z"/>
  <path class="st3" d="M3280,2140c-9.13.63-34.14-9.02-37.97-16.02-4.84-8.86-.41-19.58-2.03-27.98,16.16,11.81,27.27,28.98,40,44Z"/>
  <path class="st3" d="M3288,2148c9.09,4.46,29.93,9.48,28,20-6.33-2.18-11.91,0-19.98-6.08-7.59-5.72-6.3-11.93-8.02-13.92Z"/>
  <path class="st13" d="M796,3268c-1.25.23-4.18,3.4-8,4-.39-6.8-1.44-9.36,5.96-7.96l2.04,3.96Z"/>
  <path class="st13" d="M732,3276c-.98,3.96-4.64,3.68-8,4-1.59-15.8,6.12-4.14,8-4Z"/>
  <path class="st7" d="M1920,2416c-2.48,40.54,5.17,84.57-4,124-3.62-24.83-31.03-55.63-56-60v-64c19.95.1,40.05-.08,60,0Z"/>
  <path class="st0" d="M724,776c-.14,3.99.24,8.03,0,12-26.3-1.48-13.24,21.81-4,36-.78,2.16.88,6.89,0,8-.99,1.26-13.97.84-11.98,9.94,3.68,16.79,37.24,3.34,43.56,10.48,6.3,7.12-13.08,50.97,20.41,43.58v160c-6.1-1.74-39.25,12.04-40.05,14-8.74,21.44,32.21.54,40.05,2v56h-12c-38.23-26.97-89.73-53.31-134.24-67.76-8.29-2.69-40.12-6.88-41.76-8.24-.67-.56.43-5.67-.03-7.98-4.19-1.6-7.53,3.94-7.97,3.98-6.29.47-13.67.35-20,0,1.3-9.46-.6-8.81-9.98-7.96l-2.02,3.96c-21.24-.82-46.99-1.38-68,0-6.89-7.64-19.36-6.7-16,4-5.14.55-11.02-.74-16,0,4.48-25.89-2.53-52.98-.13-78.12.88-9.15,7.88-17.86,7.36-23.27-.63-6.57-10.01-12.61-11.26-20.92-1.33-8.83,3.49-16.31,2.87-23.19-.83-9.35-10.89-27.43-10.31-40.74.45-10.38,10.31-15.28,11.64-23.94,1.14-7.44-7.63-4.95-8.3-8.43-.33-1.71.08-33.2.55-34.88,1.64-5.79,16.45-5.16,11.57-18.51h276Z"/>
  <path class="st3" d="M848,840l-4,376-58.28-59.91c-4.28-2.23-4.47-10.68-5.72-12.09v-304c22.62.2,45.38-.05,68,0Z"/>
  <path class="st13" d="M780,1456v88h60v4h-60c5.8,214.76-7.76,433.71,0,648-12.31,3.04-7.64-9.28-8-20-.67-19.88.1-40.09,0-60-.99-187.93.72-376.09.02-564.02-40.02-.89-80.51,2.95-120.02-3.98l-35.98-3.96,156-4.02-.02-84.02c2.67.03,5.33-.04,8,0Z"/>
  <path class="st6" d="M428,1456v20c-42.22,7.17-84.47,29.13-120,52v-72c39.92.19,80.08.37,120,0Z"/>
  <path class="st13" d="M780,840v304c-.45-.5-7.41-7.68-8-8v-296c2.67.03,5.33-.02,8,0Z"/>
  <path class="st3" d="M476,1044c-1.25.08-9.2,3.27-16,4-3.36-10.7,9.11-11.64,16-4Z"/>
  <path class="st3" d="M544,1044l2.02-3.96c9.38-.86,11.27-1.5,9.98,7.96-6.52-.36-11.37-3.98-12-4Z"/>
  <path class="st3" d="M772,1128v8c-10.96-5.93-7.29-4.67-12-8h12Z"/>
  <path class="st3" d="M576,1048c.44-.03,3.78-5.58,7.97-3.98.46,2.31-.64,7.42.03,7.98l-8-4Z"/>
  <path class="st7" d="M568,2268c1.32,1.27,2.8,2.64,4,4,.98,1.11,1.43,7.56,5.62,12.21,12.35,13.72,16.11,3.95,22.38,27.79-5.74,1.74-7.94,6.16-8,12-14.61,7.55-22.34,13.62-32,28-1.65,2.45-4.27,4.17-4,8-8.86,3.17-8.88-6.93-13.79-12.02-7.12-7.37-14.53-13.37-22.21-19.98-4.09-3.52-13.98-15.89-16-16,4.53-13.33,42.14-53.27,53.1-51.38,2.07.36,8.84,5.4,10.9,7.38Z"/>
  <path class="st6" d="M580.07,2792.02c6.47-4.58,44.37,39.73,51.64,46.53l-46.26,49.16c-5.68.99-42.65-37.16-45.59-45.71,0-12.16,39.48-34.34,40.21-49.98Z"/>
  <path class="st13" d="M604,2316c-.69.19-6.31,5.06-12,8,.06-5.84,2.26-10.26,8-12,.26.97,3.19,2.47,4,4Z"/>
  <path class="st13" d="M556,2360c-.27-3.83,2.35-5.55,4-8,.17,4.03.73,6.31-4,8Z"/>
  <path class="st4" d="M1540,2936c6.02,6.3,11.49,7.47,12,8,3.87,3.99,20.35,21.82,19.71,25.45-7.01,6.75-13.29,15.86-19.71,22.55-1.74,1.81-7.69,3.5-12,8-6.86,7.16-34.01,41.03-41.45,39.71-9.38-10.23-71.52-66.03-70.26-73.16l70.26-70.26c7.46-1.31,34.85,32.8,41.45,39.71Z"/>
  <path class="st0" d="M1544,2124c-4.79,61.87,3.54,129.51.02,192.02l-176.02-.02c30.17-39.65,48.4-85.72,48-136,32.76,3.55,65.53-6.83,91.73-26.27,12.45-9.23,20.31-25.99,36.27-29.73Z"/>
  <path class="st6" d="M1412,2144c-11.23-56.26-38.98-99.46-83.8-134.36-3.81-2.97-3.77-9.33-4.2-9.64,28.63-52.19,96.48-62.04,141.9-23.9,66.52,55.87,29.11,158.47-53.9,167.9Z"/>
  <path class="st6" d="M1040,2000c-.54.4-.73,7.5-3.8,10.03-43.15,35.52-70.98,77.65-80.2,133.97-92.68-4.09-123.7-125.43-45.36-175.36,40.05-25.52,108.75-13.78,129.36,31.36Z"/>
  <path class="st8" d="M1222.62,2314.61c-14.52,13.06-37,15.88-55.71,12.42-61.07-11.29-63.96-168.28,23.15-159.14,61.37,6.44,71.08,112.07,32.55,146.72Z"/>
  <path class="st6" d="M1282.83,2164.63c39.44-11.74,41.17,55.31-.04,42.63-18.22-5.61-17.99-37.27.04-42.63Z"/>
  <path class="st6" d="M1056.97,2203.04c-15.85-15.81,1.94-52.76,29.28-35.28,28.81,18.42-8.47,56.04-29.28,35.28Z"/>
  <path class="st14" d="M516,1756c15.76,5.73,40.56,1.6,29.9,23.89-7.29,15.23-30.79,17.7-33.14,20.9-1.9,2.58-1.99,15.1-4.54,21.41-11.24,27.82-24.52,31.65-44.32,51.69-1.89,1.91-34.14,39.72-22.29,13.72,6.49-14.24,35.72-39.32,37.83-46.43,3.28-11.05-3.42-12.44-3.44-13.18-.14-6.94,34.4-57.64,40-72Z"/>
  <path class="st13" d="M3048,1132l-5.52,3.36-2.48-3.36c2.66-.04,5.35.14,8,0Z"/>
  <path class="st3" d="M480,2316c-.14-10.86-1-21.41,1.88-32.13s18.25-23.69,18.28-29.86c.03-9.33-22.85-20.8-20.17-33.97l31.97-12.04c1.81,7.33,12.59,40.02,15.86,42.3,9.74,6.79,40.85-15.99,40.18,17.71-2.06-1.98-8.83-7.02-10.9-7.38-10.97-1.89-48.57,38.05-53.1,51.38-2.66-.15-14.21,4.42-24,4Z"/>
  <rect class="st3" x="484.02" y="2176.02" width="11.96" height="7.96"/>
  <path class="st3" d="M840,532c1.72,9.33-3.32,12.17-7.88,18.11-12.83,16.69-24.9,33.7-37.62,50.38-4.15,5.45-5.34,12.06-14.49,11.51,2.02-24.47-1.46-51.23,0-76,17.3-.87,42.2-1.51,60-4Z"/>
  <path class="st13" d="M780,536c-1.46,24.77,2.02,51.53,0,76-1.5,18.15-5.53,14.03-8,20v-96c2.66-.11,5.34.13,8,0Z"/>
  <path class="st3" d="M1276,840c-10.04,20.52-29.96,35.82-43.32,54.68-39.67,55.98-58.81,129.01-60.69,197.34l60.02-.02c-58.24,160.29-114.77,321.34-171.92,482.08l-20.04,45.9-.04-779.98c78.61.06,157.39.06,236,0Z"/>
  <path class="st8" d="M1320,844c.79,7.83-1.38,14.86-3.81,22.15-25.32,75.96-56.85,150.62-84.19,225.85l-60.02.02c1.88-68.33,21.02-141.36,60.69-197.34,13.36-18.86,33.28-34.16,43.32-54.68,15.08-.01,34.07,4.01,44,4Z"/>
  <path class="st3" d="M720,832c.35,2.24-.69,7.5-.03,7.99,2.08,1.56,43.38-.1,52.03,0v56c-33.5,7.4-14.12-36.46-20.41-43.58-6.32-7.15-39.88,6.31-43.56-10.48-2-9.1,10.99-8.68,11.98-9.94Z"/>
  <path class="st3" d="M724,788c-.9,15.05,1.55,20.63-4,36-9.24-14.19-22.3-37.48,4-36Z"/>
  <path class="st3" d="M732,752c-.52,3.16-1.41,5.92-4,8,0-.92-12.34-8.89,4-8Z"/>
  <rect class="st7" x="1700.59" y="1208.59" width="78.81" height="78.81" transform="translate(-363.06 1650.79) rotate(-46.49)"/>
  <path class="st6" d="M1347.15,1124.83c85.35-6.67,98.57,124.04,18.51,134.82-96.08,12.94-107.56-127.85-18.51-134.82Z"/>
  <path class="st6" d="M1468,1092c-11.24,1.09-18.03,8.34-34,8.34-15.97,0-22.76-7.24-34-8.34-38.29-39.01-21.48-102.78,38.14-100.19,53.62,2.33,63.82,64.95,29.86,100.19Z"/>
  <path class="st8" d="M2276,2640c3.01,6.63,10.1,41.18,11.52,50.48,9.01,58.81,1.67,116.12-11.56,173.53-9.91,8.42-69.09-53.58-78.02-63.95-79.91-92.81-102.9-206.62-69.94-324.06h4c29.32,47.35,40.66,81.33,86.12,119.88,12.51,10.61,52.89,33.13,57.88,44.12Z"/>
  <path class="st15" d="M2132,2476h-4c.35-1.24-.38-2.79,0-4,1.37,1.23,3.03,2.43,4,4Z"/>
  <path class="st6" d="M3260,1784c-39.59,44.57-62.87,132.67-60,192-84.14,3.82-146.17-52.7-130.19-140.19,15.58-85.29,132.61-116.12,190.19-51.81Z"/>
  <path class="st11" d="M3462.83,1932.85c113.82-25.88,146.68,203.49,20.12,182.18-74.45-12.53-90.61-166.15-20.12-182.18Z"/>
  <path class="st6" d="M3590.93,1896.71c34.38-7.16,41.42,43.45,18.32,50.5-46.6,14.24-53.75-43.13-18.32-50.5Z"/>
  <path class="st6" d="M3338.85,1960.8c35.81-10.75,49.18,41.14,18.31,50.41-35.81,10.75-49.18-41.14-18.31-50.41Z"/>
  <path class="st3" d="M772,1056v16c-7.84-1.45-48.79,19.44-40.05-2,.8-1.96,33.95-15.75,40.05-14Z"/>
</svg>