<?xml version="1.0" encoding="UTF-8"?>
<svg id="Layer_1" xmlns="http://www.w3.org/2000/svg" version="1.1" viewBox="0 0 4617 4617">
  <!-- Generator: Adobe Illustrator 29.8.4, SVG Export Plug-In . SVG Version: 2.1.1 Build 6)  -->
  <defs>
    <style>
      .st0 {
        fill: #a3b4a0;
      }

      .st1 {
        fill: #ddd1c3;
      }

      .st2 {
        fill: #ead888;
      }

      .st3 {
        fill: #c9a29b;
      }

      .st4 {
        fill: #ecd6ae;
      }

      .st5 {
        fill: #e0d6c8;
      }

      .st6 {
        fill: #ab8b82;
      }

      .st7 {
        fill: #c9d1ba;
      }

      .st8 {
        fill: #d0c3b6;
      }

      .st9 {
        fill: #d6ddcd;
      }

      .st10 {
        fill: #f2e6d1;
      }

      .st11 {
        fill: #f6f0e1;
      }

      .st12 {
        fill: #ac9d8e;
      }

      .st13 {
        fill: #87a983;
      }

      .st14 {
        fill: #c9b9ad;
      }

      .st15 {
        fill: #d3c2b8;
      }
    </style>
  </defs>
  <path class="st3" d="M2306.5,3569.68l.04,191.84c133.48,19.77,267.12,40.03,401.72,51.99,120.73,10.72,245.01,18.35,365.74,20.01,4,.05,8-.03,11.99,0,253.72,2.04,512.29-15.09,763.5-47.97,2.59-.34,5.41.34,7.99,0,256.34-34.14,511.57-92.42,759.51-163.89v751.51c-173.31-169.15-413.11-270.56-643.59-337.77-482.39-140.67-1054.52-165.96-1552.47-105.43-335.83,40.82-750.01,139.24-1031.11,332.01-117.17,80.35-246.2,201.46-242.58,355.04H0v-763.5c76.83-10.67,151.71-34.11,227.72-50.1,173.16-36.43,347.96-62.25,523.8-81.81,4.68-.52,9.28-3.71,11.99-4,252.6-27.16,509.25-37.78,763.5-31.98,3.99.09,8-.1,11.99,0,163.73,4.11,330.75,17.26,493.64,36.01,90.14,10.38,179.83,27.4,269.88,35.96l-.02-187.9c1.32-.09,2.68.14,4,0ZM2346.45,3853.52h-19.95v7.95h19.95v-7.95ZM2690.25,3853.5h-331.78v7.99h331.78v-7.99ZM2714.22,3853.52c-4.36-4.36-12.31,3.59-7.95,7.95,4.36,4.36,12.31-3.59,7.95-7.95Z"/>
  <path class="st14" d="M751.51,0c10.63,38.24-.92,83.56,3.99,121.99.93,7.29-1.36,6.46,8,5.92V7.99h759.51c-1.3,3.92,4,8.67,4,9.99v497.68h7.99V7.99h757.51c4.38,0,5.73,9.76,6.2,13.79,15,127.79-14.3,282.72,3.97,411.77,4.26,109.62-4.54,221.31-4.17,329.95h-7.99c-251.77,0-503.75.02-755.53-.02l.02,159.92c-2.13-.7-5.84.7-7.99,0v-159.9h-763.5c-.13,18.6.18,37.37,0,55.96-1.48,153.11.04,306.58,0,459.7-2.65.16-5.35-.17-7.99,0-.07-153.09,2.05-306.65,0-459.7-.21-15.34,6.19-52.98-9.99-55.97H7.99S7.99,0,7.99,0h743.52ZM759.47,435.7v-15.95h-3.92v15.95h3.92ZM759.51,719.53v-159.9h-4v159.9h4Z"/>
  <path class="st9" d="M3074,3977.42v639.58h-763.5v-175.89c10.51,8.25,24.06-.02,27.98,0,2.66.02,5.34.07,7.99,0,.28,0,1.67,4.02,4,4,2.66-.02,5.33-.05,7.99,0,5.85,5.49,19.21,7.24,23.98,0,12.02,1.57,24,2.56,35.98,4,26.31,3.16,29.72,2.85,55.96,0,13.64-1.48,25.58-1.06,39.97-4,5.68,10.45,16.01.78,19.99,0,7.12-1.4,17.4-4.23,23.98-4,3.04.11,14.08,12.32,11.99-4,4,.07,8-.05,11.99,0,.5,0,3.29,4.11,9.22,3.81,11.7-.59,33.43-4.98,42.74-11.8,3.61-.7,8.51.77,11.99,0,3.14-.69,3.72-3.94,4-4,20.04-4.48,39.66-11.59,59.96-15.99,14.67-3.18,4.88-3.99,7.99-7.99,1.74-2.23,41.73-15.68,52.1-21.85,11.53-6.85,72.69-53.42,59.85-66.08-80.22-12.36-162.04-21.25-241.81-36.13-6.47-1.21-6.95,2.71-6.05-7.8l211.84-60.07c8.03-10.51-50.32-37.51-57.26-40.62-131.2-58.81-289.92-58.2-430.42-43.28v-95.94h-4v93.94c-33.09,13.92-71.07,17.8-105.99,29.92-58.67,20.35-164.52,73.01-142.03,150.19,22.3,76.51,157.21,119.31,228.04,129.69,1.98,5.28,7.62,3.74,11.99,4,2.64.16,5.34-.04,7.99,0v179.88h-763.5v-363.76c384.94-197.53,846.2-259.54,1275.17-275.82,2.41-.09,7.3.16,11.99,0,10.46-.35,24.68-4,29.98-4h155.9c16.32,0,42.47,3.34,61.96,4Z"/>
  <path class="st14" d="M4617,7.99v759.51h-719.53c-1.02-53.08-17.96-96.33-38.09-143.97-2.43-5.75-.78-13.29-1.88-15.92l3.98-599.63,755.53.02Z"/>
  <path class="st15" d="M3221.91,767.5c-23.15,414.97,597.2,410.47,575.63,4,17.92.78,36.19-1.04,54.13-.16,13.29.65,46.39,13.29,45.81-3.83h719.53v211.86c-130.01,71.27-260.71,141.63-397.03,200.59-105.08,45.45-220.07,88.71-329.63,122.05-9.38,2.85-18.92,5.44-28.85,5.15-.2-109.62.73-219.54-.69-329.1l-11.28-6.67c-.69,40.61.79,81.41.15,122.06-1.15,73.62-.46,146.89-.17,221.69-137.4,36.26-276.78,69.96-418.3,87.37-112.64,13.86-232.42,21.31-345.2,12.56v-99.94c92.38,25.28,144.36,47.23,245.35,35.49,129.67-15.07,239.28-84.39,314.26-189.41-31.75.32-67.16,14.81-98.33,17.59-208.94,18.62-409.03-138.81-425.3-347.35-1.31-16.82-.84-38.9,0-55.96,32.85-6.48,66.45-9.06,99.94-7.99Z"/>
  <path class="st7" d="M4617,3085.99v535.65c-247.94,71.47-503.17,129.75-759.51,163.89l5.61-695.93,753.9-3.61Z"/>
  <path class="st10" d="M4617,1622.95v607.61c-9.47-1.93-12.18,3.71-18.04,7.93-29.81,21.49-57.04,46.83-89.89,64.02h-443.71c-4.65-8.79-26.31-52.1-33.94-52.01-3,.04-26.54,45.34-30.02,52.01h-139.91c-.52-130.48-4.48-263.95-4-395.74,231.01-47.06,463.62-126.48,671.65-237.76,28.62-15.31,57.05-38.07,87.86-46.06Z"/>
  <path class="st14" d="M3849.5,0v591.62c-105.15-150.5-279.02-228.1-462.77-168.97-26.58,8.55-72.81,38.26-92.86,41.05-19.9,2.76-44.96-1.69-65.91.05-166.88,13.84-328.64,146.41-377.81,303.75-123.22-1.34-246.67,1.72-369.92.16-46.8-.59-94.17-5.06-141.74-4.16l-2-3.92-2,3.92c-6.43.18-14-.84-19.99,0,.26,43.78-4.05,89.88-4,131.91-6.63-4.15-3.98-15.16-4.07-21.93-.44-35.85.53-71.76,0-107.6-.45-4.37,5.18-1.98,8.07-2.38-1.38-231.56-9.82-467.9.16-697.38.84-19.28-.94-38.87-.16-58.13h757.51c.42,0,6,5.57,6,6v489.68c7.04.9,3.79-9.03,4-13.95,6.72-161.61-5.02-327.7,0-489.72h767.5Z"/>
  <path class="st7" d="M751.51,3257.88c.44,154.5-.33,309.2,0,463.7-175.84,19.56-350.64,45.38-523.8,81.81-76,15.99-150.88,39.43-227.72,50.1v-391.75l343.78-179.88c106.52.81,213.25-.59,319.77-.02l-3.98-23.96c29.24,2.79,62.22-2.04,91.94,0Z"/>
  <path class="st9" d="M3141.96,3977.42c-4.59,12.39,20.65,10.6,27.98,4,15.13,1.49,28.1,1.44,43.97,4,6.41,1.03,19.97,10.88,27.98,0,8.08,1.39,15.88,2.38,23.98,4,7.4,1.47,19.26,8.3,23.98,0,11.82,2.03,24.06,2.7,35.98,4l5.51,3.35,2.48-3.35c10.73,1.18,21.24,2.87,31.98,4l5.49,3.39,2.5-3.39c19.9,2.12,40.17,5.96,59.96,7.99l5.62,3.92,2.38-3.92c6.54.67,13.45-.68,19.99,0-1.4,9.17,1.54,11.19,7.99,4,7.5.84,16.16-.28,23.98,0-2,16.25,8.54,4.25,11.99,4,6.41-.47,13.53-.24,19.99,0-1.44,9.12,1.64,11.26,7.99,4,3.88.45,8.14-.51,11.99,0,2.57,8.65,8.79,7.29,15.99,7.99,34.97,3.41,73.47,6.08,107.93,11.99-1.31,9.3,1.32,11.02,7.99,4,10.33,1.88,22.66,2.19,31.98,4-1.31,9.3,1.32,11.02,7.99,4,42.84,8.52,89.85,17.39,131.91,27.98v539.65h-763.5v-639.58c18.56.68,37.43-.87,55.96,0ZM3653.63,4341.18c4.27,2.09,11.36-4.03,11.99-4,5.4.24,6.79,3.63,7.99,4-2.13,8.62,14.82,18.69,19.99,11.99,1.34,1.16,5.46-2.98,7.99,4,.73,2.01-.95,6.97.03,7.99,2.06,2.18,7.44-3.95,7.97-4,2.85-.23,6.48,1.5,7.99,4,3.24,5.33-6.2,6.14,7.99,7.99,2.5.33,5.4,0,7.99,0-2.43,11.15,11.52,14.41,11.99,0,.3-9.25-.72-18.79,0-27.98,12.67,2.22,7.12-6.38,7.87-13.94l3.72-37.74c-2.37-1.41-6.02.34-7.6-.29-4.55-1.8-3.92-5-12.76-3.41-8.91,1.61-57.5,22.14-67.18,27.39-13.99,4.29-11.26-7.46-11.99-7.99-8.76-90.34-64.49-163.57-155.01-182.77-179.15-38.01-307.29,172.34-190.82,314.74,108.28,132.39,326.36,70.37,341.83-99.99Z"/>
  <path class="st9" d="M4617,4453.11v163.89h-759.51v-535.65c230.19,58.91,511.89,154.78,693.44,311.91,22.02,19.05,40.21,46.77,66.06,59.85Z"/>
  <path class="st1" d="M4617,979.36v547.64l-755.53.02c-.06-73.23.15-146.65.02-219.88,9.93.29,19.47-2.29,28.85-5.15,109.56-33.34,224.55-76.61,329.63-122.05,136.32-58.96,267.02-129.31,397.03-200.59Z"/>
  <path class="st15" d="M4617,2230.55v743.52c-22.85-1.73-44.61-19.65-65.17-28.77-212.61-94.29-457.27-145.74-690.34-131.12.71-3.51-.57-8.17-.02-12l71.96-.02c1.19-1.14-6.62-28.98-7.98-31.96l143.89-.02-87.93-191.86h223.85c-11.99-33.41-30.89-71.87-47.97-103.93,78.07-18.6,156.22-52.89,226.54-91.25,33.35-18.2,81.95-56.93,113.24-68.64,6.65-2.49,15.02,6.26,11.99-11.99,32.85-17.2,60.08-42.53,89.89-64.02,5.86-4.22,8.57-9.86,18.04-7.93Z"/>
  <path class="st6" d="M4617,4373.16v79.95c-25.86-13.08-44.05-40.8-66.06-59.85-181.55-157.12-463.25-253-693.44-311.91-2.6-.67-5.38-3.34-7.99-4-42.06-10.59-89.08-19.46-131.91-27.98-.44-.09-1.48-2.73-7.99-4-9.32-1.81-21.65-2.12-31.98-4-.44-.08-1.33-2.85-7.99-4-34.46-5.92-72.96-8.58-107.93-11.99,2.5-12.73-6.34-6.72-15.99-7.99-3.85-.51-8.11.45-11.99,0-.44-.05-.9-3.74-7.99-4-6.46-.24-13.58-.47-19.99,0-1.92-5.2-7.61-3.84-11.99-4-7.82-.28-16.49.84-23.98,0-.44-.05-.96-3.27-7.99-4-6.54-.68-13.45.67-19.99,0-6.14-.63-7.46.05-7.99,0-19.79-2.03-40.06-5.88-59.96-7.99-6.24-.66-7.46.06-7.99,0-10.74-1.13-21.25-2.81-31.98-4-6.37-.7-7.46.06-7.99,0-11.91-1.29-24.16-1.96-35.98-4-5.32-.92-17.19-10.71-23.98,0-8.11-1.61-15.91-2.61-23.98-4-6.65-1.14-19.92-10.8-27.98,0-15.87-2.56-28.84-2.51-43.97-4-7.95-.78-16.32-3.45-27.98-4-18.54-.87-37.41.68-55.96,0-3.99-.15-8,.13-11.99,0-19.49-.65-45.64-4-61.96-4h-155.9c-5.3,0-19.52,3.65-29.98,4-.56-6.01-11.43-6.01-11.99,0-428.97,16.28-890.23,78.29-1275.17,275.82-6.34,3.25-9.76,6.82-11.99,7.99-17.9,9.45-36.89,16.88-54.65,27.29-127.86,74.97-264.59,179.16-305.11,328.48h-19.99c-3.63-153.57,125.41-274.69,242.58-355.04,281.1-192.76,695.28-291.19,1031.11-332.01,497.95-60.53,1070.08-35.24,1552.47,105.43,230.48,67.21,470.28,168.62,643.59,337.77Z"/>
  <path class="st5" d="M4617,1539v83.95c-30.81,7.98-59.24,30.75-87.86,46.06-208.03,111.28-440.64,190.7-671.65,237.76.38-105.44-3.59-213.41-.16-317.96.52-15.9,7.39-32.69,4.14-49.82l755.53.02ZM3991.96,1595.25c-8.81,10.03-54.65,48.52-54.65,57.67,4.06,9.63,51.86,58.67,57.55,57.67,8.81-10.03,54.65-48.52,54.65-57.67-4.06-9.63-51.86-58.67-57.55-57.67Z"/>
  <path class="st7" d="M4617,2974.07v103.93l-757.18-3.55c-1.34-76.18-6.18-154.24-2.52-230.47.49-10.13,2.21-19.99,4.19-29.81,233.07-14.62,477.73,36.83,690.34,131.12,20.56,9.12,42.32,27.05,65.17,28.77Z"/>
  <path class="st15" d="M351.77,3085.99c-31.73,63.41-65.95,125.58-95.98,189.9-.92,8.22.43,5.21,5.95,5.99,22.74,3.21,57.5-.2,82.04,0L0,3461.75v-299.81c12.91,3.1,6.09-8.77,7.99-11.99.34-.58,7.57-1.19,12.08-5.73,17.06-17.2,33.74-34.5,47.89-54.23,16.86.12,31.5-4.06,45.8-4.16,79.32-.58,158.74.77,238.01.16Z"/>
  <path class="st9" d="M1527.01,4261.23v355.77h-359.77c40.52-149.32,177.25-253.5,305.11-328.48,17.76-10.41,36.75-17.84,54.65-27.29Z"/>
  <path class="st0" d="M3841.5,2614.3c26.77,47.92,51.25,97.42,75.17,146.87,2.42,5.01,8.44,8.29,8.78,9.03,1.36,2.97,9.17,30.82,7.98,31.96l-71.96.02c-.55,3.82.73,8.49.02,12-1.98,9.82-3.7,19.68-4.19,29.81-3.66,76.23,1.18,154.29,2.52,230.47l757.18,3.55v7.99l-753.9,3.61-5.61,695.93c-2.59.34-5.41-.34-7.99,0v-699.55h-757.51l-6,747.51c-4-.03-8,.05-11.99,0,1.59-90.61,3.73-179.54,4.29-270.3.05-7.38-4.29-12.81-4.29-13.52.08-14.62-.07-29.36,0-43.97.63-131.28,5.46-265.2,4.07-397.8-.07-6.76,2.55-17.78-4.07-21.93,1.16-65.04-.77-129,3.96-193.91.92-12.67-2.3-31.23.04-41.94h4c8.8,72.44,1.75,146.76,4,219.86-7.2,6.44-5.17,9.4,4,7.99,3.97.21,8.04-.31,11.99,0,217.84,17.2,457.55-13.02,677.72.18,20.67-12.16,66.6,15.46,69.99-13.98,7.74-67.09,1.86-179.36-.19-250.03-.12-4,.18-8.02.02-12h-103.94c-.8-4.44.54-8.02,1.83-12.13,13.76-43.82,62.05-125.13,84.9-170.79,3.34-6.67,8.96-4.49,9.2-4.95Z"/>
  <path class="st14" d="M3861.49,1307.15c.13,73.23-.08,146.65-.02,219.88l755.53-.02v11.99l-755.53-.02c3.25,17.13-3.62,33.92-4.14,49.82-3.43,104.55.55,212.52.16,317.96-.48,131.8,3.48,265.26,4,395.74.01,2.66-.01,5.33,0,7.99.19,43.97-4.78,90.7-4,135.91h-7.99c.43-43.42-3.56-89.69,4-131.81l-12-4.1,7.99-7.99v-387.75c-9.92-113.72,13.25-250.79.2-361.97-.47-4.03-1.82-13.79-6.2-13.79h-757.51c-1,127.23,1.27,254.64.16,381.92-.12,14.07-3.98,29.33-4.16,45.8-.52,47.5-3.85,105.64,0,151.9-13.37,2.45-5.69-5.51-7.99-11.99,1.87-.42,3.82-2.18,4-4,4.45-46.08-3.16-94.73-4-139.91-2.63-141.08,1.95-282.64.02-423.75l-587.64.02c10.79-10.37,6.42-5.5,15.99-11.99l571.65.02c.17-37.25-.31-74.7-.02-111.95.27-35.57,1.63-69.71,4-103.93,3.19-.19,6.19,3.5,7.99,4v99.94c0,9.91-5.6,111.93,0,111.93h757.51c4.38,0,5.73-9.76,6.2-13.79,6.53-55.61.02-139.23-.2-198.07-.29-74.81-.98-148.08.17-221.69.64-40.65-.84-81.45-.15-122.06l11.28,6.67c1.42,109.56.49,219.48.69,329.1Z"/>
  <path class="st0" d="M3082,0c-5.02,162.03,6.72,328.11,0,489.72-.2,4.92,3.04,14.85-4,13.95V13.99c0-.42-5.57-6-6-6h-757.51c-.77,19.26,1,38.85.16,58.13-9.98,229.48-1.55,465.82-.16,697.38-2.89.4-8.52-1.98-8.07,2.38.54,35.85-.44,71.75,0,107.6.08,6.77-2.56,17.78,4.07,21.93,0,2.66,0,5.33,0,7.99-6.94,35.71-4.52,77.03-4.07,113.98.08,6.76-2.56,17.77,4.07,21.93-.27,7.92.66,16.12,0,23.98-1.51,18-.84,19.4,0,35.98.47,9.24-.05,18.71,0,27.98.04,6.72,0,17.34,0,23.98.04,31.92.01,64.02,0,95.94h-7.99c0-1.33,0-2.66,0-4,0-2.66,0-5.33,0-7.99.16-153.16.4-306.54,0-459.7-.02-6.66-4-11.36-4-11.99-.36-108.64,8.43-220.32,4.17-329.95-18.27-129.05,11.03-283.98-3.97-411.77-.47-4.03-1.82-13.79-6.2-13.79h-757.51v507.67h-7.99V17.99c0-1.32-5.3-6.07-4-9.99h-759.51v119.92c-9.36.53-7.07,1.37-8-5.92-4.91-38.43,6.64-83.76-3.99-121.99h2330.49Z"/>
  <path class="st14" d="M7.99,1523.01c.49,2.62,1.08,3.94,4,4,.28.96.07,2.76,0,4-.08,1.32.18,2.71,0,4l-4,4c-14.24,211.77.04,456.09,0,671.56,0,30.59-.01,61.35,0,91.94,0,4,0,7.99,0,11.99.12,254.44-.07,509.08-.02,763.52,19.3-.66,38.85.79,58.18.13,8.11-.28,15.86-3.99,21.78-4.15,89.08-2.43,178.71,1.81,267.83,0-1.48,2.92-1.91,7.82-4,11.99-79.27.61-158.69-.74-238.01-.16-14.3.1-28.94,4.28-45.8,4.16-.53,0-4.49-3.94-9.68-4.16-16.7-.71-33.64.82-50.3.14l.02,63.98c-1.91,3.22,4.91,15.09-7.99,11.99v-1702.89l7.99-4c.15,19.06-3.13,51.39,0,67.96Z"/>
  <path class="st0" d="M3849.5,0h767.5v7.99l-755.53-.02-3.98,599.63c-.71-1.71-7.48-15.26-7.99-15.99V0Z"/>
  <path class="st0" d="M7.99,0v763.5c0,66.56-.04,133.31,0,199.87.09,162.47-1.08,325.22,0,487.68,0,1.33-.01,2.67,0,4l-7.99,4V0h7.99Z"/>
  <path class="st14" d="M3085.99,3977.42v639.58h-11.99v-639.58c3.99.13,8-.15,11.99,0Z"/>
  <path class="st7" d="M1539,4253.24v363.76h-11.99v-355.77c2.23-1.18,5.66-4.74,11.99-7.99Z"/>
  <path class="st14" d="M3857.49,4081.35v535.65h-7.99v-539.65c2.61.66,5.39,3.33,7.99,4Z"/>
  <path class="st14" d="M2310.5,4437.12v179.88h-7.99v-179.88c2.66.04,5.33-.06,7.99,0Z"/>
  <path class="st7" d="M3085.99,3833.51l6-747.51h757.51v699.55c-251.21,32.88-509.79,50-763.5,47.97Z"/>
  <path class="st7" d="M1527.01,3269.88c.35,138.51-.26,277.22,0,415.73-254.25-5.8-510.91,4.82-763.5,31.98.55-179.81-.74-359.84,0-539.65,30.31,2.98,60.1-5.75,89.98-7.96,176.38-13.04,372.83,13.4,542.47,61.06,43.91,12.34,85.97,31.86,131.05,38.84Z"/>
  <path class="st7" d="M2934.09,3273.87c11.18,5.09,41.37,1.95,51.97,13.99v275.82c0,7.91,69.64,8.31,77.46,5.51,8.41-3.01,4.34-14.74,10.49-19.5,0,.71,4.34,6.14,4.29,13.52-.56,90.76-2.7,179.68-4.29,270.3-120.73-1.65-245.01-9.29-365.74-20.01-134.6-11.95-268.24-32.21-401.72-51.99l-.04-191.84c7.49-.8,17.86-7.23,28.01-3.98-.65-44.9,4.37-89.13,4.16-134.12-.09-18.3-4.1-37.4-4.19-57.77l39.97-7.99c.14,57.09-6.54,136.13-.2,190.08.47,4.03,1.82,13.79,6.2,13.79h71.95c4.38,0,5.73-9.76,6.2-13.79,6.87-58.52-.4-144.16-.2-206.07,103.37-26.43,205.78-57.7,303.8-99.94,6.96,5.22,37.77,19.93,46.87,23.09,13.62,4.72,27.62,2.49,37.08,10.89v279.82c0,.42,5.57,6,6,6h75.95c3.31,0,7.07-9.69,6.2-13.79l-.2-282.02Z"/>
  <path class="st7" d="M2250.54,3381.8c.15,62.57-.1,125.33-.02,187.9,17.17-.87,34.86,1.15,51.99-.02l.02,187.9c-90.05-8.55-179.74-25.58-269.88-35.96-162.89-18.76-329.91-31.9-493.64-36.01.23-134.51-.3-269.23,0-403.74,113.78,35.74,227.61,71.13,346.34,87.38,93.58,12.81,205.21,21.02,299.4,16.72,20.85-.95,44.53-9.92,65.79-4.16Z"/>
  <path class="st12" d="M2334.48,3121.97c.27,83.88-.37,167.96,0,251.84.09,20.37,4.1,39.47,4.19,57.77.21,44.99-4.81,89.23-4.16,134.12-10.15-3.25-20.52,3.18-28.01,3.98-1.31.14-2.67-.09-4,0-17.13,1.17-34.81-.85-51.99.02-.08-62.57.17-125.33.02-187.9-.24-98.54.18-197.27,0-295.81,27.12,12.6,54.57,28.81,83.95,35.98Z"/>
  <path class="st14" d="M1539,2906.11l-.02,171.91,695.57-.02c6.16-2.4,9.33,2.97,11.99,4l-707.56,3.98c-.07,65.23.17,130.66.02,195.89-.3,134.51.23,269.23,0,403.74-3.99-.1-8,.09-11.99,0-.26-138.51.35-277.22,0-415.73-.16-61.23.12-122.65,0-183.88h-763.5c-.09,30.58.13,61.36,0,91.94-.74,179.81.55,359.84,0,539.65-2.71.29-7.31,3.48-11.99,4-.33-154.5.44-309.2,0-463.7-.02-6.15.03-13.46,0-19.99-.09-19.72,2.51-142.04-1.74-148.16-5.8-8.33-57.03-1.58-70.21-3.74-1.05-2.36-2.66-4.99-4-7.99,24.75-6,88.3,17.76,79.95-23.98,2.66-.01,5.33.02,7.99,0-1.96,12.65-1.03,23.98,13.99,23.98h749.51v-171.89c4-.03,8,.03,11.99,0Z"/>
  <rect class="st12" x="2358.47" y="3853.5" width="331.78" height="7.99"/>
  <rect class="st12" x="2326.51" y="3853.52" width="19.95" height="7.95"/>
  <path class="st12" d="M2714.22,3853.52c4.36,4.36-3.59,12.31-7.95,7.95-4.36-4.36,3.59-12.31,7.95-7.95Z"/>
  <path class="st1" d="M1527.01,923.4c2.15.7,5.86-.7,7.99,0,255.51,83.9,498.05,233.48,751.51,315.79,4.39,1.43,8.67,6.75,15.99,4,0,1.33,0,2.66,0,4-.11,93.21.07,186.62.02,279.84-151.84-.04-303.88-.02-455.72-.02h-19.99c-.31-3.59-3.46-5.84-6.43-7.45-94.05-46.44-185.79-98.3-285.38-132.46-.14-1.32.1-2.67,0-4-.38-5.07-4.78-3.38-7.99-4-60.72-11.61-123.31-41.17-185.28-56.57-189.88-47.19-383.41-54.81-578.23-43.37.04-153.12-1.48-306.59,0-459.7,258.96-9.15,517.78,24.45,763.5,103.93ZM1534.98,935.41c-15.31-3.19-5.33,23.2-7.95,31.94,15.31,3.19,5.33-23.2,7.95-31.94ZM1065.86,983.64c-3.61.62-34.67,32.61-34.67,37.7,0,5.96,32.19,38.63,37.57,37.69,7.29-7.97,34.22-28.52,34.46-37.58.3-11.33-30.7-38.94-37.35-37.8ZM1534.98,983.38c-4.93-6.49-7.24.07-7.98,5.9-1.82,14.26,1.3,31.36.03,46.02,4.93,6.49,7.24-.07,7.98-5.9,1.82-14.26-1.3-31.36-.03-46.02ZM1535,1051.32h-7.99v157.9c0,4.33,8.03,17.4,4.04,25.96l3.96.02v-183.88ZM1725.43,1203.51c-8.46,9.59-50.66,44.62-50.66,53.68,3.69,9.27,47.87,54.67,53.56,53.67l50.23-57.12-53.13-50.23ZM1531.01,1283.17c1.43,15.69-2.73,32.63,2,48.01,3.97,0,1.37-41.28,2-48.01.77-8.31,14.62-23.26-7.97-19.98-3.77,7.58,3.69,16.8,3.98,19.98Z"/>
  <path class="st1" d="M755.51,819.47c2.05,153.05-.07,306.61,0,459.7-191.65,12.46-398.39,52.87-580.47,113.08-56.01,18.52-109.38,46.36-167.04,58.81-1.08-162.46.09-325.21,0-487.68,40.57-5.75,77.96-24.91,116.86-37.04,203.81-63.56,417.31-95.3,630.66-106.86Z"/>
  <path class="st8" d="M2290.51,763.5c-.31,8.09,4.07,12.32,11.99,11.99.4,153.16.16,306.54,0,459.7l-15.99,4c-253.46-82.32-496.01-231.89-751.51-315.79l-.02-159.92c251.78.04,503.75.02,755.53.02Z"/>
  <path class="st8" d="M755.51,819.47c-213.35,11.57-426.85,43.31-630.66,106.86-38.9,12.13-76.29,31.29-116.86,37.04-.04-66.56,0-133.31,0-199.87h737.53c16.18,2.98,9.78,40.62,9.99,55.96Z"/>
  <path class="st8" d="M763.5,819.47c.18-18.6-.13-37.37,0-55.96h763.5v159.9c-245.73-79.48-504.55-113.08-763.5-103.93Z"/>
  <path class="st8" d="M763.5,1279.17c-.02,79.88,0,159.96,0,239.84h-7.99c.01-79.88.03-159.96,0-239.84,2.65-.17,5.35.16,7.99,0Z"/>
  <rect class="st0" x="755.51" y="559.64" width="4" height="159.9"/>
  <path class="st7" d="M2298.51,763.5c0,.63,3.98,5.33,4,11.99-7.92.33-12.3-3.9-11.99-11.99h7.99Z"/>
  <rect class="st0" x="755.55" y="419.75" width="3.92" height="15.95"/>
  <path class="st13" d="M2282.52,4433.12c-70.83-10.39-205.74-53.19-228.04-129.69-22.49-77.17,83.36-129.84,142.03-150.19,34.93-12.11,72.91-16,105.99-29.92v-93.94h4v95.94c140.49-14.92,299.22-15.53,430.42,43.28,6.94,3.11,65.29,30.11,57.26,40.62l-211.84,60.07c-.91,10.51-.43,6.59,6.05,7.8,79.77,14.89,161.59,23.77,241.81,36.13,12.84,12.66-48.31,59.23-59.85,66.08-10.38,6.17-50.37,19.62-52.1,21.85-8.13-1.19-9.16-.14-7.99,7.99-20.3,4.4-39.92,11.51-59.96,15.99l-4,4c-3.48.77-8.38-.7-11.99,0-16.25,3.15-35.67,2.19-51.97,7.99-4-.05-8,.07-11.99,0-4.37-.07-10.12-1.03-11.99,4-6.59-.23-16.87,2.59-23.98,4-5.71-10.42-15.93-.83-19.99,0-14.4,2.94-26.33,2.52-39.97,4-13.4-6.66-41.74-6.78-55.96,0-11.97-1.44-23.96-2.43-35.98-4-14.55-1.9-16.01.14-23.98,0-2.66-.05-5.33-.02-7.99,0l-4-4c-2.66.07-5.33.02-7.99,0-5.5-7.04-19.18-3.78-27.98-4-2.66-.06-5.33.04-7.99,0s-5.35.16-7.99,0c-1.97-5.52-7.82-3.38-11.99-4ZM2494.38,4201.27c-9.08-30.61-40.62-60.28-73.95-60.28-31.84,0-65.88,30.85-73.95,60.28-57.39-12.53-90.99-.17-69.92,63.92,15.72,47.83,92.69,95.63,137.87,60,3.07.46,8.91.46,11.99,0,45.06,36.15,131.9-16.48,139.67-66.2,10.13-64.84-14.44-68.32-71.71-57.72Z"/>
  <path class="st0" d="M2474.39,4449.11c-26.25,2.85-29.65,3.16-55.96,0,14.22-6.78,42.57-6.66,55.96,0Z"/>
  <path class="st0" d="M2634.29,4429.12c-9.32,6.83-31.04,11.22-42.74,11.8-5.93.3-8.72-3.8-9.22-3.81,16.3-5.8,35.72-4.84,51.97-7.99Z"/>
  <path class="st0" d="M2382.45,4445.11c-4.77,7.24-18.14,5.49-23.98,0,7.97.14,9.44-1.9,23.98,0Z"/>
  <path class="st0" d="M2338.48,4441.11c-3.92-.02-17.48,8.25-27.98,0v-4c8.8.21,22.48-3.05,27.98,4Z"/>
  <path class="st0" d="M2534.35,4445.11c-3.98.78-14.3,10.45-19.99,0,4.06-.83,14.28-10.42,19.99,0Z"/>
  <path class="st14" d="M2826.16,3977.42c-4.69.16-9.59-.09-11.99,0,.56-6.01,11.43-6.01,11.99,0Z"/>
  <path class="st0" d="M2570.33,4437.12c2.09,16.32-8.95,4.1-11.99,4,1.87-5.03,7.62-4.07,11.99-4Z"/>
  <path class="st0" d="M2718.23,4401.14c-3.12,4,6.67,4.82-7.99,7.99-1.17-8.14-.14-9.18,7.99-7.99Z"/>
  <path class="st14" d="M2294.51,4437.12c-4.38-.26-10.01,1.28-11.99-4,4.18.61,10.03-1.52,11.99,4Z"/>
  <path class="st0" d="M2646.28,4429.12l4-4c-.28.06-.86,3.31-4,4Z"/>
  <path class="st0" d="M2350.47,4445.11c-2.33.02-3.71-4-4-4l4,4Z"/>
  <path class="st3" d="M3293.86,463.7c20.05-2.78,66.28-32.49,92.86-41.05,183.76-59.13,357.62,18.46,462.77,168.97.51.73,7.28,14.28,7.99,15.99,1.1,2.63-.55,10.17,1.88,15.92,20.14,47.65,37.08,90.89,38.09,143.97.58,17.13-32.51,4.48-45.81,3.83-17.94-.88-36.21.95-54.13.16-18.92-356.45-556.17-352.76-575.63-4-33.48-1.07-67.09,1.51-99.94,7.99,6.39-130.27,70.71-233.41,171.89-311.8Z"/>
  <path class="st2" d="M3797.53,771.5c21.58,406.47-598.78,410.97-575.63-4,19.46-348.76,556.7-352.45,575.63,4Z"/>
  <path class="st5" d="M3293.86,463.7c-101.18,78.39-165.49,181.52-171.89,311.8-.84,17.06-1.31,39.14,0,55.96l-36-.02c3.21,25.58-2.88,53.48-3.17,77.97-1.62,134.8,3.59,262.23-4.8,397.74-81.76-38.73-151.83-107.34-195.06-186.7-8.48-15.56-23.35-45.21-28.8-61.14-29.73-86.84-31.37-204.22-4-291.81,49.16-157.34,210.92-289.91,377.81-303.75,20.95-1.74,46,2.71,65.91-.05Z"/>
  <path class="st10" d="M3121.97,831.46c16.27,208.54,216.36,365.97,425.3,347.35,31.18-2.78,66.58-17.28,98.33-17.59-74.98,105.02-184.59,174.34-314.26,189.41-100.99,11.74-152.97-10.21-245.35-35.49-1.81-.49-4.8-4.19-7.99-4,.09-1.33-.08-2.67,0-4,8.39-135.51,3.18-262.94,4.8-397.74.29-24.49,6.38-52.39,3.17-77.97l36,.02Z"/>
  <path class="st1" d="M3849.5,1315.15c.23,58.85,6.73,142.47.2,198.07-.47,4.03-1.82,13.79-6.2,13.79h-757.51c-5.6,0,0-102.02,0-111.93,112.78,8.75,232.56,1.3,345.2-12.56,141.52-17.41,280.9-51.11,418.3-87.37Z"/>
  <path class="st12" d="M4065.36,2302.5c1.38,2.6,2.59,5.33,4,7.99,28.91,54.66,59.36,110.25,87.94,163.89,17.08,32.06,35.98,70.52,47.97,103.93h-223.85l87.93,191.86-143.89.02c-.34-.74-6.35-4.02-8.78-9.03-23.92-49.45-48.4-98.95-75.17-146.87,1.7-3.33,3.53-19.24,7.99-27.98,4.56-8.94,8.61-21.35,11.99-27.98,7.66-15.02,16.17-32.5,23.98-47.97,3.67-7.26,25.76-51.09,27.73-53.41,3.32-3.9,9.27-1.21,12.51-5.09,24.34-29.18,52.8-104.67,71.69-141.37,1.37-2.65,2.64-5.39,4-7.99,3.48-6.67,27.02-51.97,30.02-52.01,7.63-.09,29.29,43.22,33.94,52.01Z"/>
  <path class="st14" d="M4509.07,2302.5c3.02,18.25-5.34,9.5-11.99,11.99l-427.72-4c-1.41-2.67-2.62-5.39-4-7.99h443.71Z"/>
  <path class="st8" d="M4001.4,2302.5c-1.36,2.61-2.63,5.34-4,7.99h-135.91c-.01-2.66.01-5.33,0-7.99h139.91Z"/>
  <path class="st0" d="M467.7,2422.43l15.99,7.99c7.85,22.74,15.37,45.48,23.98,67.96,2.94,7.67.76,18.51,11.99,15.99.76,3.19-.99,10.88,0,11.99-.95,8.49-.51,8.95,7.99,7.99.9,4.13,2.03,18.5,4,19.99-1.22,8.06-.07,9.19,7.99,7.99.61,3.24-.9,10.97,0,11.99-.95,8.49-.51,8.95,7.99,7.99.61,3.24-.9,10.99,0,11.99-.95,8.49-.51,8.95,7.99,7.99,11.96,42.69,35.49,89.8,55.96,127.92l11.99,43.97h-75.95l83.95,175.89c-.97,17.34,14.49,34.8,15.97,51.94-23.93.19-48.01-.17-71.94.02-18.6.15-37.34-.13-55.94.02-2.17,1.95,20.65,47.23,23.89,53.2,1.97,3.63,7.84,2.38,8.07,2.74.81,1.29.35,9.51,3.12,14.69,32.53,60.71,65.4,121.26,96.49,182.71,1.73,4.14,5.28,2.18,8.31,2.47l3.98,23.96c-106.52-.56-213.25.83-319.77.02-24.54-.19-59.3,3.22-82.04,0-5.51-.78-6.86,2.24-5.95-5.99,30.02-64.32,64.25-126.48,95.98-189.9,2.09-4.17,2.52-9.07,4-11.99,11.87-23.42,32.28-45.29,35.98-71.95h-99.94l67.96-155.9c12.5-8.72,12.07-21,15.99-31.98,9.68,2.55,10.65-7.85,11.99-15.99.57-3.47-.04-8.15,0-11.99,11.15,2.43,14.41-11.52,0-11.99-17.88-.59-42.87-1.92-59.96,0h-4c13.27-34.85,29.7-67.82,39.97-103.93,8.5.95,8.95.5,7.99-7.99.98-1.1-.76-8.8,0-11.99,11.1,2.49,9.18-8.19,11.99-15.99,4.69-12.99,8.94-26.42,11.99-39.97,8.4,1.02,9.04.4,7.99-7.99.71-.73,2.73-15.46,4-19.99,8.5.95,8.95.5,7.99-7.99.9-1-.61-8.76,0-11.99,8.14,1.17,9.18.14,7.99-7.99,1.63-1.3,10.05-34.24,11.99-39.97,9.85,2.51,10.47-7.81,11.99-15.99.67-3.58-.51-8.19,0-11.99,8.14,1.17,9.18.14,7.99-7.99,1.63-1.3,11.28-34.21,11.99-39.97Z"/>
  <path class="st12" d="M767.5,2614.3c15.68-35.33,32.64-70.87,44.03-107.93,16.45-2.91,9.96,3.83,15.07,14.7,28.37,60.38,55.06,142.51,88.8,193.17.63.95.18,7.84,1.95,11.85,18.09,41.2,39.17,81.38,54.02,124.06h-195.87l79.93,203.84c-30.59.2-61.33-.19-91.92.02-2.66.02-5.33-.01-7.99,0-30.6.13-61.33-.11-91.93.02-4.71,12.1,10.29,20.18,11.98,23.96,1.34,3,2.95,5.63,4,7.99,2.35,5.31,2.03,15.67,5.99,23.99,20.47,42.93,45.35,84.95,65.96,127.92.03,6.53-.02,13.84,0,19.99-29.72-2.04-62.7,2.79-91.94,0-3.03-.29-6.59,1.67-8.31-2.47-31.1-61.45-63.96-122.01-96.49-182.71-2.77-5.18-2.31-13.4-3.12-14.69l23.98-55.96c23.93-.2,48.01.17,71.94-.02-1.49-17.14-16.94-34.6-15.97-51.94,1.21-21.61,29.86-59.69,34.44-83.83,10.73-56.54,33.77-106.39,57.5-160.01,10.06-22.73,21.48-48.27,31.98-71.95,1-2.27,7.26-9.33,11.99-19.99Z"/>
  <path class="st10" d="M3657.62,4309.2c-1.37-1-8.93.69-11.99,0-.29-3.92.49-8.15,0-11.99-27.86-216.82-331.66-218.1-363.76-11.99-3.09,19.83-.3,24.86,0,39.97.08,3.96-.34,8.07,0,11.99.05.6-3.54,2.89-2.52,11.8,4.56,39.67,32.46,84.42,62.43,110.17,107.95,92.74,277.61,33.96,299.86-105.98,2.7-3.11,7.91-7.8,7.99-11.99h4c-15.46,170.36-233.54,232.38-341.83,99.99-116.47-142.4,11.67-352.75,190.82-314.74,90.52,19.21,146.25,92.43,155.01,182.77Z"/>
  <path class="st6" d="M3749.56,4293.21c1.29,17.58-2.64,34.59-4,51.97-.72,9.19.3,18.73,0,27.98-4,0-7.99,0-11.99,0-2.59,0-5.49.33-7.99,0,1.42-7.23-.83-9.25-7.99-7.99-1.52-2.49-5.14-4.23-7.99-4l-7.99-4c-2.53-6.97-6.66-2.83-7.99-4-9.1-7.92-6.42-7.9-19.99-11.99-1.2-.36-2.59-3.76-7.99-4-6.19-10.78-6.57-14.25,4-19.99,9.68-5.25,58.27-25.79,67.18-27.39,8.84-1.59,8.22,1.6,12.76,3.41Z"/>
  <path class="st1" d="M3657.62,4309.2c.73.54-2,12.29,11.99,7.99-10.57,5.73-10.19,9.2-4,19.99-.63-.03-7.72,6.09-11.99,4h-4c.1-4.74-3.34-23.01-4-31.98,3.07.69,10.62-1,11.99,0Z"/>
  <path class="st1" d="M3749.56,4293.21c1.58.63,5.22-1.12,7.6.29l-3.72,37.74c-.75,7.56,4.8,16.16-7.87,13.94,1.36-17.37,5.29-34.38,4-51.97Z"/>
  <path class="st14" d="M3241.89,3985.41c-8.01,10.88-21.57,1.03-27.98,0,8.07-10.8,21.33-1.14,27.98,0Z"/>
  <path class="st14" d="M3169.94,3981.41c-7.33,6.6-32.57,8.4-27.98-4,11.66.55,20.03,3.22,27.98,4Z"/>
  <path class="st1" d="M3693.6,4353.17c-5.17,6.7-22.12-3.37-19.99-11.99,13.57,4.09,10.89,4.07,19.99,11.99Z"/>
  <path class="st14" d="M3289.86,3989.41c-4.72,8.3-16.58,1.47-23.98,0,6.79-10.71,18.66-.92,23.98,0Z"/>
  <path class="st14" d="M3545.7,4017.39c9.65,1.27,18.49-4.74,15.99,7.99-7.2-.7-13.42.66-15.99-7.99Z"/>
  <path class="st1" d="M3745.57,4373.16c-.47,14.41-14.43,11.15-11.99,0,4,0,7.99,0,11.99,0Z"/>
  <path class="st14" d="M3505.72,4013.39c-3.45.25-13.99,12.26-11.99-4,4.38.16,10.07-1.21,11.99,4Z"/>
  <path class="st14" d="M3333.83,3993.41l-2.48,3.35-5.51-3.35c.53.06,1.62-.7,7.99,0Z"/>
  <path class="st14" d="M3373.81,3997.4l-2.5,3.39-5.49-3.39c.53.06,1.75-.66,7.99,0Z"/>
  <path class="st14" d="M3441.76,4005.4l-2.38,3.92-5.62-3.92c.53.05,1.85-.63,7.99,0Z"/>
  <path class="st14" d="M3469.75,4009.39c-6.45,7.19-9.4,5.17-7.99-4,7.04.73,7.55,3.95,7.99,4Z"/>
  <path class="st1" d="M3717.58,4365.16c7.17-1.25,9.42.77,7.99,7.99-14.2-1.86-4.75-2.66-7.99-7.99Z"/>
  <path class="st14" d="M3717.58,4049.37c-6.67,7.03-9.31,5.3-7.99-4,6.52,1.27,7.56,3.91,7.99,4Z"/>
  <path class="st14" d="M3677.61,4041.37c-6.68,7.03-9.31,5.3-7.99-4,6.67,1.14,7.56,3.92,7.99,4Z"/>
  <path class="st14" d="M3533.7,4017.39c-6.35,7.26-9.43,5.12-7.99-4,7.1.26,7.55,3.95,7.99,4Z"/>
  <path class="st1" d="M3709.59,4361.17c-.53.04-5.91,6.17-7.97,4-.97-1.03.71-5.98-.03-7.99l7.99,4Z"/>
  <path class="st10" d="M4497.08,2314.5c-31.29,11.72-79.88,50.45-113.24,68.64-70.32,38.36-148.47,72.66-226.54,91.25-28.58-53.64-59.04-109.24-87.94-163.89l427.72,4Z"/>
  <path class="st11" d="M3991.96,1595.25c5.7-1,53.5,48.05,57.55,57.67,0,9.15-45.85,47.64-54.65,57.67-5.7,1-53.5-48.05-57.55-57.67,0-9.15,45.85-47.64,54.65-57.67Z"/>
  <path class="st11" d="M67.96,3089.99c-14.15,19.72-30.83,37.03-47.89,54.23-4.51,4.55-11.73,5.16-12.08,5.73l-.02-63.98c16.67.68,33.6-.85,50.3-.14,5.19.22,9.15,4.16,9.68,4.16Z"/>
  <path class="st4" d="M2382.45,2534.35c2.62,3.79,7.75,15.41,13.75,24.24,13.78,20.29,94.86,151.82,104.93,154.89,20.04-1.75,40.18,3.97,59.04,4.92,116.05,5.83,250.12-7.47,363.89,3.87,36.99,3.69,62.59,23.58,93.98,39.93l42.67,63.48c59.57-1.85,124.58-56.12,143.1-111.56,11.34-33.94,8.07-61.06,6.1-95.83,4.63,4.59,6.39,4.19,10.03,11.85,37.64,79.11,1.06,181.11-85.1,206.89-15.42,4.61-44.43,3.32-52.85,9.11-1.62,1.11-3.52,1.79-4,4-2.34,10.7.88,29.27-.04,41.94-4.73,64.91-2.8,128.87-3.96,193.91-2.34,131.29-6.73,265.39-4.11,397.9.15,7.59-1.87,15.54,4.11,21.82-.07,14.62.08,29.36,0,43.97-6.15,4.76-2.08,16.49-10.49,19.5-7.81,2.8-77.46,2.39-77.46-5.51v-275.82c-10.6-12.04-40.78-8.9-51.97-13.99-.68-.31-3.72-7.45-8.04-9.76-59.02-31.62-83.36-70.86-92.31-137.71-45.09-.91-90.4-.28-135.5-.43-29.93-.1-226.41-5-236.1,1.74-4.1,2.85-3.42,7.76-3.94,12.05-7.13,59.16.39,147.29.19,210.06-.2,61.91,7.07,147.55.2,206.07-.47,4.03-1.82,13.79-6.2,13.79h-71.95c-4.38,0-5.73-9.76-6.2-13.79-6.33-53.95.34-132.99.2-190.08-.19-79.89.13-159.97.02-239.86-15.19,1.9-26.12-.59-39.99-3.98-29.38-7.17-56.82-23.38-83.95-35.98-1.36-.63-2.62-3.47-4-4-2.66-1.02-5.83-6.4-11.99-4-7.04-18.99-26.79-30.39-39.29-46.65-54.81-71.32-52.35-159.94-60.64-245.16,49.42-3.06,90.95-49.87,117.56-88.31,41.94-60.6,67.7-131.45,94.3-199.5,3.83.11,7.15,1.15,10.09,3.71,1.98,1.72,23.26,28.47,25.89,32.26ZM3073.98,2842.17c-4.36-4.36-12.31,3.59-7.95,7.95s12.31-3.59,7.95-7.95Z"/>
  <path class="st15" d="M3129.97,2302.5c-3.64,10.47,21.67,11.15,26.5,11.49,26.15,1.85,46.91.88,73.43,4.5,144.59,19.7,273.09,111.34,412.68,152.96,67.29,20.06,137.09,31.53,206.92,38.92-.65,25.26-7.97,53.18,0,75.95-4.46,8.74-6.3,24.65-7.99,27.98-.24.47-5.86-1.72-9.2,4.95-22.85,45.65-71.14,126.97-84.9,170.79-1.29,4.12-2.63,7.69-1.83,12.12h103.94c.15,3.99-.14,8.01-.02,12.01-257.75,24.16-508.76,110.03-728.79,244.57-5.8,3.55-19.8,10.96-18.72,19.26-3.95-.31-8.02.21-11.99,0l-4-7.99c-2.25-73.1,4.81-147.41-4-219.86v-4c8.42-5.79,37.43-4.5,52.85-9.11,86.16-25.78,122.74-127.78,85.1-206.89-3.64-7.66-5.4-7.26-10.03-11.85-5.34-5.29-4.08-12.45-15.92-6.02-34.72,29.92-69.22,60.18-104,89.97-6.63-4.15-3.98-15.16-4.07-21.93-1.51-121.75-.38-244.57,2.05-365.88,3.85-3.89,9.07-5.97,14-7.94,2.03-.81,10.04-3.51,11.99-4,4.17-1.04,11.01.54,15.99,0Z"/>
  <path class="st7" d="M3849.5,2814.17c2.05,70.67,7.93,182.94.19,250.03-3.39,29.44-49.32,1.82-69.99,13.98-220.17-13.2-459.88,17.02-677.72-.18-1.08-8.3,12.92-15.71,18.72-19.26,220.03-134.53,471.05-220.41,728.79-244.57Z"/>
  <path class="st7" d="M3074,3505.72c-5.98-6.28-3.96-14.24-4.11-21.82-2.61-132.52,1.77-266.61,4.11-397.9,6.62,4.15,4,15.17,4.07,21.93,1.39,132.6-3.44,266.52-4.07,397.8Z"/>
  <path class="st14" d="M3089.99,3078c-9.16,1.41-11.19-1.55-4-7.99l4,7.99Z"/>
  <path class="st14" d="M3082,2850.15h-4c.48-2.21,2.38-2.89,4-4v4Z"/>
  <path class="st5" d="M3849.5,1914.76c-49.3,2.09-97.65,15.82-146.57,23.32-205.79,31.53-412.79,40.5-620.93,28.65.18-16.48,4.04-31.73,4.16-45.8,1.1-127.28-1.17-254.69-.16-381.92h757.51c4.38,0,5.73,9.76,6.2,13.79,13.05,111.18-10.12,248.25-.2,361.97Z"/>
  <path class="st5" d="M2410.43,1535c.47.07,5.43,3.01,7.99,4,13.37,5.15,31.88,28.66,37.43,27.69,2.03-.35,26.13-23.47,30.53-27.69l587.64-.02c1.92,141.11-2.65,282.66-.02,423.75l-71.95-4c-5.17-10.86-13.54-22.81-19.42-34.55-5.4-10.77-11.14-44.28-21.52-28.26-8.84,13.64-19.1,38.69-27.02,54.81-215.94-20.31-425.59-82.24-623.59-167.89.12-82.56-.07-165.3-.02-247.86,31.07,3.22,70.01-4.3,99.96.02Z"/>
  <path class="st10" d="M3849.5,1914.76v387.75c-227.18.21-454.49-.36-681.72.17-16.08.04-19.61-2.14-37.81-.17-4.98.54-11.82-1.04-15.99,0,3.45-14.17-16.49-6.17-27.98-7.99-.84-14.54.59-29.41,0-43.97v-4c10.33-1.5,37.52-1.43,47.97,0,.44.06,2.71,5.81,7.97,3.98-.21-8.97-1.1-22.47-11.97-19.97-9.67-33.06-26.93-54.79-39.97-83.95l-4-4c-1.88-5.29-3.48-17.81-4-23.98-3.85-46.27-.52-104.4,0-151.9,208.13,11.85,415.14,2.88,620.93-28.65,48.93-7.5,97.27-21.22,146.57-23.32ZM3460.3,2066.95c-29.42,26.24-51.54,39.17-8.73,67.9,12.98,8.71,46.28-20.72,46.29-30.22,0-6.12-32.31-38.6-37.56-37.69Z"/>
  <path class="st15" d="M2854.15,1059.31c5.45,15.93,20.32,45.58,28.8,61.14,43.23,79.36,113.29,147.96,195.06,186.7-.08,1.33.09,2.67,0,4-2.37,34.23-3.72,68.36-4,103.93-174.01-4.67-352.95-34.47-520.5-81.11-82.09-22.85-160.87-56.28-243-78.79,0-2.66,0-5.33,0-7.99.01-31.92.04-64.02,0-95.94,6.54-4.03,6.42-20.2,0-23.98-.05-9.27.47-18.74,0-27.98,6.47-5.07,4.54-19.68,4-27.98,16.7,7.67,33.3-2.75,50.02-3.91,15.66-1.08,26.62,2.64,39.92,3.12,6.66.24,31.42-9.31,33.97,2.85,1.7,8.12-21.02,18.56-20.04,29.89-13.07,3.85-4.36-11.89-14.4-15.48-12.23-4.38-35.28,5.42-51.56,3.68-8.52-.91-20.8-8.74-23.82-8.18-13.06,2.43,1.31,16.77,1.57,21.74.25,4.67-4.64,10.92-3.4,15.78,4.63,18.14,59.15-1.08,70.19-1.33,9.84-.23,16.66,6.89,27.36,7.93,33.96,3.3,72.36-4.69,106.04-8.15l-7.98-19.93c12.84-14.03,69.88,22.64,86.28,27.95,47.35-3.33,97.4-8.06,143.63-8.06,11.86,0,21.78,8.43,35.72,8.21,20.75-.32,48.57-7.38,70.16-8.16-2-10.8-2.9-22.14-5.08-32.9-1.21-6-17-28.98,1.06-27.04Z"/>
  <path class="st0" d="M2934.09,1950.73c7.92-16.13,18.18-41.17,27.02-54.81,10.38-16.01,16.12,17.49,21.52,28.26,5.88,11.74,14.25,23.69,19.42,34.55,19.13,40.21,35.28,82.65,55.26,122.61,3.73,7.46,15.98,19.6,16.69,21.3.46,1.1-.43,2.78,0,4,2.31,6.48-5.37,14.45,7.99,11.99.51,6.18,2.12,18.7,4,23.98.9,2.55,3.78,3.52,4,4,13.04,29.15,30.31,50.89,39.97,83.95,1.54,5.26,2.56,10.7,4,15.99-10.45-1.43-37.64-1.5-47.97,0-1.88.27-3.57,2.08-4,4h-4c-43.85,0-88.71,2.8-131.91-4l-3.92,2,3.92,2c-.57,7.43.74,11.97,3.12,18.79,3.79,10.87,14.95,20.82,16.87,25.18,1.36,3.08,2.94,5.62,4,7.99.83,1.86-.82,6.12,0,7.99,17.97,40.88,39.25,81.1,51.97,123.92h-195.87l79.95,183.88h-139.91l4,19.99h-187.88c-1.17-7.02.98-12.46,3.12-18.87,21.75-65.15,85.81-165.84,118.9-232.87,5.56-11.27,9.25-26.63,13.89-36.07,6.18-12.56,13.58-26.63,19.99-39.97,1.11-2.31,2.92-6.23,4-7.99,1.5-2.45,9.62-5.02,8.06-11.99,3.15-2.26,8.89,20.39,23.33,11.33,1.84-1.15,16.75-34.16,18.67-39.22,40.27-105.86,91.41-209.23,141.81-311.89Z"/>
  <path class="st1" d="M3074,1415.08c-.29,37.25.2,74.7.02,111.95l-571.65-.02c1.47-.99,15.41-25.16,19.7-29.43-13.68-11.73-54.1-62.86-69.77-62.44-5.13.14-64.77,57.95-65.56,62.44-1.5,8.51,21.03,17.74,19.7,29.43-18.21-2.1-74.87-2.82-91.94,0l-4-4c-4.74-86.23.14-180.6,0-267.83,82.13,22.51,160.92,55.94,243,78.79,167.55,46.63,346.49,76.44,520.5,81.11Z"/>
  <path class="st10" d="M3841.5,2310.5l12,4.1c-7.56,42.12-3.57,88.39-4,131.81-.21,21.25.55,42.72,0,63.96-69.83-7.39-139.63-18.85-206.92-38.92-139.58-41.62-268.09-133.26-412.68-152.96-7.14-10.89-3.88-7.52,5.94-8,199.13-9.65,405.8,7.22,605.67,0Z"/>
  <path class="st10" d="M3997.4,2310.5c-18.89,36.7-47.35,112.2-71.69,141.37-3.23,3.88-9.19,1.18-12.51,5.09-1.97,2.32-24.06,46.15-27.73,53.41h-23.98c-1.28-20.41-3.62-42.13-4-63.96-.78-45.21,4.18-91.94,4-135.91h135.91Z"/>
  <path class="st11" d="M2502.37,1527.01c-9.57,6.49-5.2,1.63-15.99,11.99-4.4,4.22-28.5,27.34-30.53,27.69-5.54.97-24.06-22.54-37.43-27.69-.08-6.06-2.03-10.18-7.99-11.99-1.08-.33-2.61.16-4,0,1.33-11.7-21.2-20.92-19.7-29.43.79-4.48,60.43-62.3,65.56-62.44,15.66-.42,56.09,50.71,69.77,62.44-4.29,4.27-18.23,28.44-19.7,29.43Z"/>
  <path class="st8" d="M3849.5,2302.5l-7.99,7.99c-199.87,7.22-406.53-9.65-605.67,0-9.81.48-13.07-2.89-5.94,8-26.53-3.61-47.29-2.65-73.43-4.5-4.83-.34-30.14-1.02-26.5-11.49,18.2-1.98,21.73.2,37.81.17,227.24-.53,454.54.04,681.72-.17Z"/>
  <path class="st10" d="M3074,1962.72c.84,45.18,8.44,93.83,4,139.91h-4c-.71-1.7-12.96-13.84-16.69-21.3-19.98-39.96-36.13-82.4-55.26-122.61l71.95,4Z"/>
  <path class="st8" d="M3857.49,2446.41c.38,21.83,2.71,43.55,4,63.96.99,15.83-.7,32.1,0,47.97-3.38,6.63-7.43,19.04-11.99,27.98-7.97-22.77-.65-50.69,0-75.95.55-21.23-.21-42.71,0-63.96h7.99Z"/>
  <path class="st5" d="M3074,2106.63c-.43-1.21.46-2.89,0-4h4c-.18,1.82-2.12,3.58-4,4Z"/>
  <path class="st8" d="M2334.48,763.5c1.33-.04,2.67.03,4,0,47.57-.89,94.94,3.57,141.74,4.16,123.26,1.55,246.71-1.5,369.92-.16-27.37,87.59-25.73,204.97,4,291.81-18.06-1.94-2.27,21.05-1.06,27.04,2.17,10.76,3.08,22.1,5.08,32.9-21.59.77-49.41,7.83-70.16,8.16-13.94.22-23.86-8.21-35.72-8.21-46.22,0-96.28,4.73-143.63,8.06-16.4-5.31-73.44-41.98-86.28-27.95l7.98,19.93c-33.68,3.46-72.09,11.45-106.04,8.15-10.7-1.04-17.52-8.16-27.36-7.93-11.04.25-65.56,19.47-70.19,1.33-1.24-4.86,3.64-11.11,3.4-15.78-.26-4.96-14.63-19.31-1.57-21.74,3.02-.56,15.3,7.26,23.82,8.18,16.28,1.74,39.33-8.06,51.56-3.68,10.04,3.59,1.34,19.32,14.4,15.48-.98-11.32,21.74-21.77,20.04-29.89-2.55-12.16-27.31-2.62-33.97-2.85-13.3-.47-24.26-4.2-39.92-3.12-16.72,1.16-33.31,11.57-50.02,3.91-.22-3.38-.14-6.92-4-7.99.66-7.87-.27-16.06,0-23.98,1.55-44.77-.11-91.14,0-135.91,0-2.66,0-5.33,0-7.99-.06-42.04,4.26-88.13,4-131.91,5.99-.84,13.56.18,19.99,0Z"/>
  <path class="st14" d="M2310.5,1247.19c0,2.66,0,5.33,0,7.99.14,87.23-4.74,181.59,0,267.83.15,2.65-.15,5.35.05,7.99,3.15,1.05,3.38-3.89,3.95-3.99,17.07-2.82,73.73-2.1,91.94,0,1.39.16,2.92-.33,4,0v7.99c-29.95-4.32-68.89,3.2-99.96-.02-.05,82.56.14,165.3.02,247.86-.22,152.46-1.67,305.27-.07,457.76.07,6.76-2.55,17.78,4.07,21.93-.36,6.63.25,13.35,0,19.99-2.73-.19-7.7.15-11.99,0-.3-170.49.4-341.18,0-511.67-.18-77.15.32-154.51-.21-231.65-10.04-.33-19.56-3.7-29.62-4.36-129.63-8.42-278.1.14-409.88.16h-15.99v-7.99c151.84,0,303.88-.02,455.72.02.05-93.21-.13-186.62-.02-279.84h7.99Z"/>
  <path class="st14" d="M2310.5,1039.32c-6.63-4.15-3.98-15.16-4.07-21.93-.46-36.95-2.88-78.27,4.07-113.98-.11,44.77,1.55,91.14,0,135.91Z"/>
  <path class="st14" d="M2314.5,1071.3c.54,8.3,2.48,22.91-4,27.98-.84-16.57-1.51-17.98,0-35.98,3.85,1.07,3.78,4.61,4,7.99Z"/>
  <path class="st14" d="M2310.5,1151.25c0-6.65.04-17.26,0-23.98,6.42,3.79,6.54,19.96,0,23.98Z"/>
  <path class="st7" d="M2302.5,1235.2c0,2.66,0,5.33,0,7.99-7.32,2.76-11.6-2.57-15.99-4l15.99-4Z"/>
  <path class="st10" d="M751.51,1535c0,6.78,4,11.36,4,11.99.02,83.88-.01,167.96,0,251.84-7.24,6.49-12.59,15.72-19.72,22.51-.61,3.46,12.39,18.13,15.73,21.46v143.91c-211.33,29.55-415.58,86.92-611.54,169.95-42.66,18.07-85.95,46.25-131.97,53.91.04-215.47-14.24-459.8,0-671.56.02-.28,3.57-.96,4-4h739.52Z"/>
  <path class="st11" d="M7.99,2314.5l743.54-4.02,3.98,323.81c-10.5,23.68-21.92,49.23-31.98,71.95l-111.93,23.98c-20.47-38.12-44.01-85.23-55.96-127.92-4.31-15.39-5.08-4.75-7.99-7.99-.9-1,.61-8.76,0-11.99-2.88-15.31-5.39-5.03-7.99-7.99-.9-1.03.61-8.75,0-11.99-2.72-14.56-3.97-4.96-7.99-7.99-1.97-1.49-3.1-15.86-4-19.99-3.37-15.44-5.25-4.9-7.99-7.99-.99-1.11.76-8.8,0-11.99-1.95-8.19-1.74-18.44-11.99-15.99-8.62-22.47-16.13-45.21-23.98-67.96-4.34-12.56-13.13-31.1-15.99-7.99-.71,5.76-10.36,38.68-11.99,39.97-3.5,2.79-6.03-6.55-7.99,7.99-.51,3.8.67,8.41,0,11.99-10.97-2.46-9.32,8.11-11.99,15.99-1.94,5.73-10.36,38.68-11.99,39.97-3.74,2.97-5.23-6.68-7.99,7.99-.61,3.23.9,10.99,0,11.99-2.91,3.23-3.69-7.38-7.99,7.99-1.27,4.53-3.29,19.25-4,19.99-2.97,3.09-4.54-7.35-7.99,7.99-3.05,13.55-7.3,26.99-11.99,39.97-10.26-2.45-10.04,7.8-11.99,15.99-.76,3.19.98,10.9,0,11.99-2.92,3.26-3.62-7.39-7.99,7.99-10.27,36.12-26.7,69.08-39.97,103.93l2.03,3.93c1.26-.13,1.64-3.89,1.97-3.93,17.09-1.92,42.08-.59,59.96,0-.03,4,.04,8,0,11.99s.57,8.52,0,11.99c-11.09-2.48-9.22,8.2-11.99,15.99-3.92,10.98-3.48,23.26-15.99,31.98-77.56,54.1-145.26,99.3-217.96,167.79-18.38,17.31-41.88,38.37-53.86,60.07-5.93.16-13.67,3.87-21.78,4.15-19.33.66-38.89-.79-58.18-.13-.05-254.44.14-509.08.02-763.52Z"/>
  <path class="st11" d="M751.51,1986.71c0,105.21-.02,210.61.02,315.82l-743.54-.02c-.01-30.59,0-61.35,0-91.94,46.02-7.65,89.32-35.83,131.97-53.91,195.97-83.03,400.22-140.39,611.54-169.95Z"/>
  <path class="st10" d="M755.51,1279.17c.03,79.88.01,159.96,0,239.84,0,.69-4,4.49-4,7.99H11.99c-.56-1.9-2.15-3.31-4-4-3.13-16.56.15-48.9,0-67.96-.01-1.33,0-2.67,0-4,57.66-12.46,111.04-40.29,167.04-58.81,182.09-60.21,388.83-100.61,580.47-113.08Z"/>
  <path class="st7" d="M1535,1383.1c.1,1.32-.14,2.68,0,4,3.99,38.83-1.27,86.18-.29,126.39.18,7.28,4.28,12.81,4.29,13.52.06,2.66-.05,5.33,0,7.99,3.76,183.52-.35,368.03,0,551.64.14,71.9-.08,143.98-.02,215.88l391.77-4.02c2.33,1.77,7.84,4.98,11.99,7.99-6.9,7.99-21.97,2.73-31.98,4-10.55-.68-21.39.34-31.98,0-58.62-1.91-121.1-1.03-179.88,0-11.96.21-24.03-.29-35.98,0-17.69,2.16-40.68-4.95-55.96,4-22.58.58-45.39-.41-67.98-.02l4.02,203.89c-3.78,9.27-1.57,24.46-15.99,23.98,6.5-72.58-4.84-154.27,0-227.85h-763.5l4,299.81c-4.73,10.66-10.99,17.72-11.99,19.99l-3.98-323.81-743.54,4.02c0-4,0-7.99,0-11.99l743.54.02c-.04-105.21-.02-210.61-.02-315.82v-143.91c3.01,3,9.03,9.2,11.99,11.99v447.71h763.5c.1-74.55-.13-149.3,0-223.85.32-181.02-3.98-363.65-4-543.65,0-.62,4-4.52,4-7.99v-143.91h7.99Z"/>
  <path class="st15" d="M359.77,2846.15l-67.96,155.9h99.94c-3.69,26.66-24.11,48.53-35.98,71.95-89.11,1.81-178.75-2.43-267.83,0,11.97-21.7,35.48-42.76,53.86-60.07,72.71-68.49,140.4-113.69,217.96-167.79Z"/>
  <path class="st15" d="M751.51,1527.01c0,1.33,0,2.66,0,4H11.99c.07-1.24.28-3.04,0-4h739.52Z"/>
  <path class="st8" d="M751.51,1531.01v4H11.99c.18-1.29-.08-2.68,0-4h739.52Z"/>
  <path class="st7" d="M7.99,1539l4-4c-.43,3.03-3.98,3.72-4,4Z"/>
  <path class="st1" d="M11.99,1527.01c-2.92-.06-3.5-1.38-4-4,1.85.68,3.44,2.09,4,4Z"/>
  <path class="st15" d="M763.5,3177.94c.13-30.58-.09-61.36,0-91.94h763.5c.12,61.23-.16,122.65,0,183.88-45.08-6.98-87.14-26.5-131.05-38.84-169.64-47.66-366.09-74.1-542.47-61.06-29.88,2.21-59.67,10.94-89.98,7.96Z"/>
  <path class="st15" d="M2698.25,3125.97c-.85,40.5,32.13,100.06,63.96,123.92-98.02,42.24-200.43,73.5-303.8,99.94.2-62.77-7.32-150.89-.19-210.06.52-4.29-.16-9.2,3.94-12.05,9.69-6.75,206.17-1.84,236.1-1.74Z"/>
  <path class="st12" d="M2698.25,3125.97c45.1.15,90.41-.48,135.5.43,8.94,66.86,33.29,106.09,92.31,137.71,4.32,2.32,7.37,9.45,8.04,9.76l.2,282.02c.87,4.09-2.89,13.79-6.2,13.79h-75.95c-.42,0-6-5.57-6-6v-279.82c-9.46-8.4-23.46-6.18-37.08-10.89-9.1-3.15-39.91-17.87-46.87-23.09-31.83-23.86-64.8-83.42-63.96-123.92Z"/>
  <path class="st8" d="M2334.48,3121.97c13.88,3.38,24.8,5.87,39.99,3.98.11,79.89-.21,159.97-.02,239.86l-39.97,7.99c-.37-83.88.27-167.96,0-251.84Z"/>
  <path class="st15" d="M2250.54,3085.99c.18,98.54-.24,197.27,0,295.81-21.26-5.75-44.94,3.21-65.79,4.16-94.19,4.29-205.82-3.92-299.4-16.72-118.73-16.25-232.56-51.63-346.34-87.38.15-65.23-.09-130.66-.02-195.89l707.56-3.98c1.38.53,2.64,3.36,4,4Z"/>
  <path class="st15" d="M1355.12,2870.14c-2.35,5.31-14.45,33.6-11.98,35.96,61.23-.27,122.64.44,183.87.02v171.89h-749.51c-15.02,0-15.95-11.33-13.99-23.98,30.59-.21,61.33.18,91.92-.02l-79.93-203.84h195.87c-14.85-42.68-35.92-82.86-54.02-124.06-1.76-4.01-1.31-10.9-1.95-11.85,158.08,19.78,286.05,121.84,439.71,155.9Z"/>
  <path class="st15" d="M2134.61,2786.19c8.29,85.22,5.84,173.83,60.64,245.16,12.5,16.27,32.25,27.67,39.29,46.65l-695.57.02.02-171.91c14.67-.1,103.11,2.52,107.14-1.02,1.8-1.58.43-6.75.79-6.97,2.75-1.66,45.15-3.2,53.45-4.51,124.1-19.54,236.3-57.92,346.37-117.33,28.02-15.12,54.89-30.45,79.86-50.05,1.84,18.72,6.17,41.24,7.99,59.96Z"/>
  <path class="st12" d="M1543,2518.36c17.89-43.89,41.12-106.64,63.03-146.8,2.52-4.61-.2-6.75,8.87-5.09l147.96,347.76h-199.87l83.95,183.88c-.36.22,1.01,5.39-.79,6.97-4.03,3.55-92.47.93-107.14,1.02-4,.03-8-.03-11.99,0-61.22.42-122.64-.29-183.87-.02-2.48-2.36,9.62-30.65,11.98-35.96,15.35-34.61,35.37-68.07,51.4-102.5,28.65-61.52,55.81-123.87,84.57-185.31,6.35-1.95,15.45,11.25,19.87,7.98,3.66-2.71,15.33-39.88,16.05-47.96,14.42.47,12.21-14.72,15.99-23.98Z"/>
  <path class="st8" d="M751.51,3237.9c-20.61-42.97-45.49-84.99-65.96-127.92-3.97-8.32-3.64-18.68-5.99-23.99,13.18,2.16,64.4-4.59,70.21,3.74,4.26,6.11,1.65,128.43,1.74,148.16Z"/>
  <path class="st8" d="M755.51,3054.02c8.35,41.74-55.2,17.98-79.95,23.98-1.69-3.78-16.69-11.86-11.98-23.96,30.6-.13,61.33.11,91.93-.02Z"/>
  <path class="st10" d="M1527.01,1379.1v147.9h-763.5v-7.99c0-79.88-.02-159.96,0-239.84,194.81-11.44,388.35-3.82,578.23,43.37,61.96,15.4,124.56,44.96,185.28,56.57Z"/>
  <path class="st10" d="M1826.81,1527.01h-287.81c-.02-.71-4.11-6.23-4.29-13.52-.98-40.22,4.28-87.56.29-126.39,99.59,34.15,191.33,86.02,285.38,132.46,2.97,1.61,6.12,3.86,6.43,7.45Z"/>
  <path class="st11" d="M1725.43,1203.51l53.13,50.23-50.23,57.12c-5.69.99-49.87-44.41-53.56-53.67,0-9.05,42.2-44.09,50.66-53.68Z"/>
  <path class="st4" d="M1065.86,983.64c6.65-1.14,37.65,26.46,37.35,37.8-.24,9.06-27.17,29.62-34.46,37.58-5.38.94-37.57-31.73-37.57-37.69,0-5.09,31.07-37.08,34.67-37.7Z"/>
  <path class="st14" d="M1535,1051.32v183.88l-3.96-.02c3.99-8.56-4.04-21.63-4.04-25.96v-157.9h7.99Z"/>
  <path class="st14" d="M1534.98,983.38c-1.27,14.66,1.85,31.76.03,46.02-.74,5.83-3.05,12.4-7.98,5.9,1.27-14.66-1.85-31.76-.03-46.02.74-5.83,3.05-12.4,7.98-5.9Z"/>
  <path class="st7" d="M1846.8,1527.01v7.99c-6.88,0-17.27,0-23.98,0,.85-2.28,4.15-6.21,4-7.99h19.99Z"/>
  <path class="st14" d="M1534.98,935.41c-2.62,8.74,7.36,35.13-7.95,31.94,2.62-8.74-7.36-35.13,7.95-31.94Z"/>
  <path class="st7" d="M1531.01,1283.17c-.29-3.18-7.74-12.4-3.98-19.98,22.59-3.28,8.75,11.67,7.97,19.98h-4Z"/>
  <path class="st14" d="M1535,1283.17c-.63,6.73,1.97,48.01-2,48.01-4.73-15.38-.57-32.32-2-48.01h4Z"/>
  <path class="st14" d="M1535,1383.1h-7.99v-4c3.22.62,7.61-1.07,7.99,4Z"/>
  <path class="st7" d="M763.5,1519.01v7.99c0,3.48,4,7.38,4,7.99,0,2.15-4,7.73-4,11.99h-7.99c0-.63-4-5.21-4-11.99v-4c0-1.33,0-2.66,0-4,0-3.5,4-7.3,4-7.99h7.99Z"/>
  <path class="st15" d="M2494.38,4201.27c14.7,49.52-14.25,115.96-67.96,123.92-3.08.46-8.92.46-11.99,0-58.06-8.74-82.36-71.41-67.96-123.92,8.07-29.43,42.11-60.28,73.95-60.28,33.33,0,64.87,29.67,73.95,60.28ZM2409.4,4178.22c-64.49,11.28-29.47,117.65,32.71,84.69,48.13-25.51,19.43-93.81-32.71-84.69Z"/>
  <path class="st14" d="M2426.42,4325.19c53.71-7.96,82.65-74.4,67.96-123.92,57.27-10.6,81.84-7.12,71.71,57.72-7.77,49.72-94.6,102.35-139.67,66.2Z"/>
  <path class="st14" d="M2346.48,4201.27c-14.41,52.51,9.89,115.18,67.96,123.92-45.19,35.63-122.15-12.17-137.87-60-21.07-64.09,12.53-76.45,69.92-63.92Z"/>
  <path class="st15" d="M3885.48,2510.37c-7.82,15.47-16.33,32.95-23.98,47.97-.7-15.87.99-32.14,0-47.97h23.98Z"/>
  <path class="st15" d="M723.53,2706.24c-23.73,53.62-46.78,103.47-57.5,160.01-4.58,24.14-33.23,62.22-34.44,83.83l-83.95-175.89h75.95l-11.99-43.97,111.93-23.98Z"/>
  <path class="st8" d="M575.63,3002.05l-23.98,55.96c-.23-.36-6.1.89-8.07-2.74-3.24-5.98-26.06-51.25-23.89-53.2,18.6-.15,37.34.13,55.94-.02Z"/>
  <path class="st5" d="M467.7,2422.43c2.86-23.1,11.65-4.57,15.99,7.99l-15.99-7.99Z"/>
  <path class="st5" d="M507.67,2498.38c10.26-2.45,10.04,7.8,11.99,15.99-11.23,2.52-9.05-8.32-11.99-15.99Z"/>
  <path class="st5" d="M447.71,2482.39c-1.53,8.18-2.14,18.5-11.99,15.99,2.67-7.88,1.02-18.45,11.99-15.99Z"/>
  <path class="st10" d="M387.75,2798.18c-1.34,8.14-2.31,18.54-11.99,15.99,2.78-7.79.9-18.47,11.99-15.99Z"/>
  <path class="st5" d="M383.75,2634.29c-2.81,7.8-.9,18.48-11.99,15.99,1.95-8.19,1.74-18.44,11.99-15.99Z"/>
  <path class="st10" d="M387.75,2774.2c14.41.48,11.15,14.42,0,11.99.04-4-.03-8,0-11.99Z"/>
  <path class="st5" d="M423.72,2538.35c1.19,8.13.14,9.16-7.99,7.99,2.77-14.67,4.26-5.02,7.99-7.99Z"/>
  <path class="st5" d="M531.65,2554.34c4.02,3.04,5.28-6.56,7.99,7.99-8.06,1.2-9.21.06-7.99-7.99Z"/>
  <path class="st5" d="M415.73,2558.34c.95,8.49.51,8.95-7.99,7.99,4.3-15.37,5.09-4.76,7.99-7.99Z"/>
  <path class="st5" d="M539.65,2574.33c2.6,2.96,5.11-7.31,7.99,7.99-8.5.95-8.95.5-7.99-7.99Z"/>
  <path class="st5" d="M519.66,2526.36c2.74,3.09,4.63-7.45,7.99,7.99-8.5.95-8.95.5-7.99-7.99Z"/>
  <path class="st5" d="M403.74,2586.32c1.04,8.39.4,9.02-7.99,7.99,3.45-15.34,5.02-4.9,7.99-7.99Z"/>
  <path class="st5" d="M547.64,2594.31c2.92,3.25,3.68-7.4,7.99,7.99-8.5.95-8.95.5-7.99-7.99Z"/>
  <path class="st5" d="M455.7,2462.4c1.19,8.13.14,9.16-7.99,7.99,1.96-14.55,4.49-5.21,7.99-7.99Z"/>
  <path class="st5" d="M371.76,2662.27c.95,8.49.51,8.95-7.99,7.99,4.38-15.38,5.07-4.73,7.99-7.99Z"/>
  <path class="st10" d="M323.79,2774.2h4c-.32.04-.7,3.8-1.97,3.93l-2.03-3.93Z"/>
  <path class="st11" d="M767.5,2614.3l-4-299.81h763.5c-4.84,73.58,6.5,155.27,0,227.85-.72,8.08-12.38,45.25-16.05,47.96-4.42,3.27-13.52-9.93-19.87-7.98-28.76,61.43-55.92,123.79-84.57,185.31-16.04,34.43-36.05,67.88-51.4,102.5-153.66-34.06-281.64-136.12-439.71-155.9-33.75-50.65-60.43-132.79-88.8-193.17-5.11-10.87,1.38-17.61-15.07-14.7-11.39,37.07-28.35,72.61-44.03,107.93Z"/>
  <path class="st6" d="M3473.74,4237.25c5.28.4,24.01,6.49,35.98,7.99,15.31,1.93,26.64.07,43.97,4,2.4.54,5.78-.61,7.99,0,9.29,2.57,40.71,17.79,50.63,23.32,12.43,6.93,22.29,16.03,33.31,24.65.49,3.84-.29,8.07,0,11.99.66,8.97,4.09,27.24,4,31.98-.09,4.19-5.29,8.89-7.99,11.99-16.69,19.18-51.54,31.32-75.95,35.98-7.9,1.51-16,3.03-23.98,4-53.89,6.54-115.09.36-167.89-11.99-4.45-1.04-8.39-3.13-11.99-4l-4.01-23.98c84.97-.49,106.52-77.16,8.01-83.95l-.05-5.38c-12.03-4.49-6.96-7.85-3.95-18.6,1.28-.26,2.71.25,4,0,5.71-1.12,19.25-3.45,23.98-4,27.78-3.2,55.54-6.17,83.95-4Z"/>
  <path class="st9" d="M3281.87,4337.18c11.17,3.42,18.35,14.52,29.24,20.75,12.41,7.1,30.1,10.21,38.72,15.23.6.35,3.19,3.04,4,4,22.59,26.8,22.74,43.88,62.86,59.06,52.94,20.02,119.74,2.4,149-47.06,24.41-4.66,59.26-16.8,75.95-35.98-22.25,139.94-191.91,198.72-299.86,105.98-29.97-25.75-57.87-70.51-62.43-110.17-1.02-8.91,2.57-11.2,2.52-11.8Z"/>
  <path class="st9" d="M3645.63,4297.21c-11.03-8.62-20.89-17.72-33.31-24.65-9.93-5.53-41.34-20.75-50.63-23.32,1.49-9.07-2.9-12.21-7.85-18.13-48.03-57.51-149.31-52.61-188.02,10.13v4c-1.28.25-2.72-.26-4,0-23,4.71-52.63,11.44-67.96,31.98-1.04.13-5.2,11.28-11.99,7.99,32.1-206.11,335.9-204.83,363.76,11.99Z"/>
  <path class="st4" d="M3341.83,4269.23c-4.86,26.42-4.38,53.11-4,79.95-18.68-2.49-38.41-17.72-55.96-23.98-.3-15.11-3.09-20.14,0-39.97,6.79,3.29,10.95-7.87,11.99-7.99,14-1.71,30.63-6.5,47.97-7.99Z"/>
  <path class="st6" d="M3337.83,4349.17c2.58.34,5.38-.23,7.99,0-2.18,2.79,4.88,18.46,4,23.98-8.62-5.02-26.31-8.12-38.72-15.23-10.89-6.23-18.07-17.33-29.24-20.75-.34-3.93.08-8.03,0-11.99,17.55,6.26,37.29,21.49,55.96,23.98Z"/>
  <path class="st15" d="M2970.07,2310.5l103.95-.02,3.98,399.76c-20.05,17.08-37.38,37.74-59.96,51.97-31.39-16.36-56.99-36.25-93.98-39.93-113.77-11.34-247.84,1.96-363.89-3.87-18.86-.95-39-6.67-59.04-4.92-10.07-3.07-91.15-134.6-104.93-154.89-5.99-8.83-11.13-20.45-13.75-24.24,106.46-70.73,214.53-140.72,335.78-183.88-4.65,9.44-8.33,24.8-13.89,36.07-33.08,67.04-97.15,167.72-118.9,232.87-2.14,6.41-4.3,11.85-3.12,18.87h187.88l-4-19.99h139.91l-79.95-183.88h195.87c-12.71-42.82-33.99-83.04-51.97-123.92Z"/>
  <path class="st10" d="M2434.42,2310.5c97.27-8.14,205.37,6.07,303.8,0-6.41,13.34-13.81,27.42-19.99,39.97-121.25,43.16-229.32,113.15-335.78,183.88-2.63-3.8-23.91-30.54-25.89-32.26-2.94-2.56-6.26-3.6-10.09-3.71,2.09-14.69-8.62-31.2-19.99-39.97,22.09-43.45,41.68-91.47,63.96-135.91,15.94-5.63,26.4-10.52,43.97-11.99Z"/>
  <path class="st3" d="M2346.48,2498.38c-26.6,68.05-52.36,138.91-94.3,199.5-26.61,38.44-68.14,85.25-117.56,88.31-1.82-18.72-6.16-41.24-7.99-59.96-.51-5.24.33-10.71,0-15.99-.27-4.36,1.29-10.06-4-11.99.56-7.73.18-16.18,0-23.98-.12-5.26,2-13.21-4-15.99.44-3.82-.04-8.08,0-11.99.04-4.37,1.05-10.11-4-11.99.4-5.2.13-10.76,0-15.99-.11-4.38,1.17-10.08-4-11.99.45-5.26-.31-10.7,0-15.99v-4c6.4,9.52,15.12,24.44,21.85,32.11,29.7,33.85,87.52,29.71,113.4-6.79,23.85-33.63,51.47-104.04,71.83-144.22,2.56-5.05,8.27-8.03,8.78-9.03,11.37,8.77,22.08,25.28,19.99,39.97Z"/>
  <path class="st6" d="M3089.99,2702.24c34.78-29.78,69.28-60.04,104-89.97,11.84-6.43,10.59.73,15.92,6.02,1.96,34.77,5.23,61.89-6.1,95.83-18.52,55.43-83.53,109.71-143.1,111.56l-42.67-63.48c22.58-14.22,39.91-34.89,59.96-51.97,1.78-1.52,6.54-3.32,11.99-7.99Z"/>
  <path class="st15" d="M3073.98,2842.17c4.36,4.36-3.59,12.31-7.95,7.95s3.59-12.31,7.95-7.95Z"/>
  <path class="st14" d="M3085.99,2250.54c.59,14.57-.84,29.44,0,43.97s6.03,3.21,15.99,11.99c-4.94,1.97-10.15,4.05-14,7.94-2.43,121.31-3.56,244.13-2.05,365.88.08,6.77-2.56,17.78,4.07,21.93-5.46,4.67-10.21,6.48-11.99,7.99l-3.98-399.76-103.95.02c-.82-1.88.83-6.14,0-7.99l101.42.17c4.91-.97,1.7-6.14,2.51-8.17,6.19-15.54,3.94-27.37,4-43.97h7.99Z"/>
  <path class="st8" d="M3085.99,2294.51c11.49,1.83,31.43-6.17,27.98,7.99-1.95.49-9.96,3.19-11.99,4-9.96-8.78-15.13,2.82-15.99-11.99Z"/>
  <path class="st10" d="M2934.09,1950.73c-50.41,102.66-101.55,206.03-141.81,311.89-1.92,5.06-16.83,38.06-18.67,39.22-14.44,9.06-20.18-13.59-23.33-11.33,1.56,6.97-6.56,9.54-8.06,11.99l-299.81-4c49.07-34.33,60.68-115.36,37.34-168.06-77.09-4.4-160.85,50.63-165.26,132.08-6.62-4.15-4-15.17-4.07-21.93-1.6-152.49-.15-305.3.07-457.76,198,85.65,407.65,147.58,623.59,167.89Z"/>
  <path class="st8" d="M2418.43,1539c-2.56-.99-7.53-3.93-7.99-4v-7.99c5.96,1.81,7.91,5.93,7.99,11.99Z"/>
  <path class="st11" d="M3460.3,2066.95c5.25-.92,37.57,31.57,37.56,37.69-.01,9.5-33.31,38.93-46.29,30.22-42.82-28.73-20.7-41.67,8.73-67.9Z"/>
  <path class="st8" d="M3129.97,2230.55c10.87-2.5,11.75,11,11.97,19.97-5.26,1.83-7.53-3.92-7.97-3.98-1.43-5.29-2.46-10.73-4-15.99Z"/>
  <path class="st8" d="M3085.99,2250.54h-4c.43-1.92,2.12-3.72,4-4v4Z"/>
  <path class="st8" d="M3089.99,2146.61c-.21-.48-3.09-1.45-4-4l4,4Z"/>
  <path class="st10" d="M3078,2250.54c-.05,16.6,2.19,28.43-4,43.97h-107.93c-1.92-4.36-13.08-14.31-16.87-25.18-2.38-6.82-3.69-11.36-3.12-18.79.1-1.32-.08-2.67,0-4,43.21,6.8,88.06,4,131.91,4Z"/>
  <path class="st8" d="M2442.41,2298.51l299.81,4c-1.08,1.77-2.89,5.68-4,7.99-98.43,6.07-206.54-8.14-303.8,0-3.14-17.01,5.48-10.24,7.99-11.99Z"/>
  <path class="st8" d="M3074,2294.51c-.81,2.03,2.4,7.2-2.51,8.17l-101.42-.17c-1.06-2.38-2.64-4.91-4-7.99h107.93Z"/>
  <path class="st14" d="M2946.09,2250.54l-3.92-2,3.92-2c-.08,1.33.1,2.67,0,4Z"/>
  <path class="st8" d="M2314.5,1527.01c-.57.09-.8,5.04-3.95,3.99-.2-2.63.1-5.33-.05-7.99l4,4Z"/>
  <path class="st0" d="M2338.48,763.5c-1.33.03-2.67-.04-4,0l2-3.92,2,3.92Z"/>
  <path class="st10" d="M1822.82,1535c6.71,0,17.11,0,23.98,0h15.99c-2.72,14.25,2.18,9.48,8.49,13.39,109.07,67.72,249.44,143.54,365.75,197.99,19.94,9.33,44.19,21.9,65.48,24.46.4,170.49-.3,341.18,0,511.67-75.79-2.61-168.72-4.44-243.84,0,12.47-93.06-82.45-157.17-167.35-151.37-13.66,42.27-13.29,101.29,11.45,139.38-28.57,6.55-39.01-11.78-58.66-23.29-99.07-58.03-198.85-116.62-305.1-160.59-.35-183.62,3.76-368.12,0-551.64h283.82Z"/>
  <path class="st4" d="M1982.71,2322.49c-8.7-21.87-13.85-17.26-27.87-34.09-14.49-17.38-36.22-82.03-16.35-96.05,31.66-22.33,112.29,55.41,104.3,94.1,6.35,3.46,14.1-3.83,15.87-3.93,75.12-4.44,168.05-2.61,243.84,0,4.29.15,9.26-.19,11.99,0,1.79.13,9.93,7.69,15.74,3.75,6.76-55.34,51.59-97.27,108.16-95.67,7.03,37.5,5.27,67.67-20.07,97.81-14.19,16.88-17.28,12.94-27.87,34.09-22.28,44.44-41.86,92.46-63.96,135.91-.51,1-6.22,3.97-8.78,9.03-20.35,40.18-47.98,110.59-71.83,144.22-25.88,36.49-83.71,40.64-113.4,6.79-6.73-7.67-15.46-22.6-21.85-32.11-1.35-2.02,3.38-10.67-7.99-7.99-8.13-58.17-93.42-189.19-119.92-255.83ZM2081.49,2379.31c-26.7,7.88-16.8,58.98,17.22,49.51,30.95-8.61,24.34-61.77-17.22-49.51ZM2269.29,2379.24c-25.8,7.91-13.06,54.87,14.33,50.55,35.39-5.57,28.04-63.55-14.33-50.55ZM2222.56,2554.34h-71.95c-3.83,9.06,29.81,44.19,33.92,44.21,9.12-2.91,45.29-37.18,38.03-44.21Z"/>
  <path class="st5" d="M1862.79,1535c131.77-.02,280.25-8.58,409.88-.16,10.06.65,19.58,4.02,29.62,4.36.53,77.14.03,154.5.21,231.65-21.29-2.56-45.54-15.13-65.48-24.46-116.31-54.45-256.68-130.27-365.75-197.99-6.3-3.91-11.21.86-8.49-13.39Z"/>
  <path class="st3" d="M2314.5,2262.53c4.41-81.45,88.17-136.47,165.26-132.08,23.35,52.69,11.73,133.73-37.34,168.06-2.51,1.76-11.13-5.02-7.99,11.99-17.57,1.47-28.04,6.36-43.97,11.99,10.6-21.15,13.68-17.2,27.87-34.09,25.33-30.14,27.1-60.31,20.07-97.81-56.57-1.6-101.4,40.33-108.16,95.67-5.81,3.94-13.95-3.63-15.74-3.75.25-6.64-.36-13.36,0-19.99Z"/>
  <path class="st4" d="M763.5,1854.79c-2.96-2.79-8.99-8.99-11.99-11.99-3.34-3.34-16.34-18-15.73-21.46,7.13-6.79,12.48-16.02,19.72-22.51,11.71-10.51,3.8-5.41,7.99-11.99,4.7-7.37,50.55-45.28,57.16-43.55,5.24,1.37,74.89,72.11,74.89,77.52-9.15,12.02-65.73,75.12-74.9,77.52-10.88,2.85-35.53-29.15-45.08-37.83-4.45-4.05-11.28-4.96-12.08-5.72Z"/>
  <path class="st8" d="M763.5,1546.99v239.84c-4.2,6.59,3.72,1.49-7.99,11.99-.01-83.88.02-167.96,0-251.84h7.99Z"/>
  <path class="st10" d="M1523.01,1535c.02,180,4.32,362.63,4,543.65-53.2-17.78-104.98-39.25-159.03-54.83-113.21-32.62-240.69-52.2-358.44-53.29-82.16-.76-164.03,10.87-246.03,12.18v-127.92c.8.76,7.63,1.67,12.08,5.72,9.55,8.67,34.2,40.67,45.08,37.83,9.17-2.4,65.75-65.51,74.9-77.52,0-5.42-69.65-76.15-74.89-77.52-6.61-1.73-52.46,36.17-57.16,43.55v-239.84c0-4.26,4-9.84,4-11.99h755.51Z"/>
  <path class="st11" d="M1527.01,2078.65c-.13,74.55.1,149.3,0,223.85h-763.5v-319.79c82-1.32,163.87-12.95,246.03-12.18,117.75,1.09,245.23,20.67,358.44,53.29,54.06,15.58,105.84,37.04,159.03,54.83Z"/>
  <path class="st11" d="M1698.9,2310.5h179.88c10.59.34,21.43-.68,31.98,0,10.2.66,28.7,2.6,39.97,4,12.45,1.54,20.07,7.3,31.98,7.99,26.5,66.64,111.79,197.67,119.92,255.83,1.2,8.62-4.2,13.94,7.99,11.99-.31,5.29.45,10.73,0,15.99-.31,3.6-12.23,13.96,4,11.99.13,5.23.4,10.79,0,15.99-.26,3.47-12.25,13.99,4,11.99-.04,3.91.44,8.18,0,11.99-.64,5.63-12.66,17.97,4,15.99.18,7.8.56,16.25,0,23.98-.25,3.44-12.26,13.99,4,11.99.33,5.28-.51,10.75,0,15.99-24.97,19.6-51.84,34.93-79.86,50.05-110.08,59.4-222.27,97.78-346.37,117.33-8.3,1.31-50.71,2.85-53.45,4.51l-83.95-183.88h199.87l-147.96-347.76c-9.06-1.66-6.35.48-8.87,5.09-21.91,40.16-45.14,102.91-63.03,146.8l-4.02-203.89c22.58-.39,45.4.6,67.98.02,18.86-.48,40.32-3.62,55.96-4,11.95-.29,24.02.21,35.98,0Z"/>
  <path class="st11" d="M1902.76,2270.52c6.57,10.12,18.33,20.65,27.98,27.98l-391.77,4.02c-.06-71.9.16-143.98.02-215.88,106.26,43.98,206.04,102.56,305.1,160.59,19.65,11.51,30.09,29.84,58.66,23.29Z"/>
  <path class="st6" d="M2058.66,2282.52c-1.77.1-9.52,7.39-15.87,3.93,7.99-38.69-72.64-116.44-104.3-94.1-19.87,14.02,1.86,78.68,16.35,96.05,14.02,16.82,19.17,12.22,27.87,34.09-11.91-.69-19.53-6.45-31.98-7.99,2.77-11.46-6.21-6.7-7.99-7.99-4.15-3.02-9.66-6.23-11.99-7.99-9.65-7.33-21.41-17.86-27.98-27.98-24.74-38.09-25.11-97.11-11.45-139.38,84.9-5.8,179.82,58.31,167.35,151.37Z"/>
  <path class="st8" d="M1527.01,1527.01c0,3.47-4,7.37-4,7.99h-755.51c0-.62-4-4.51-4-7.99h763.5Z"/>
  <path class="st8" d="M1826.81,1527.01c.15,1.79-3.14,5.72-4,7.99h-283.82c-.05-2.66.06-5.33,0-7.99h287.81Z"/>
  <path class="st8" d="M1878.78,2310.5h-179.88c58.79-1.03,121.26-1.91,179.88,0Z"/>
  <path class="st8" d="M1662.92,2310.5c-15.64.38-37.11,3.51-55.96,4,15.28-8.95,38.28-1.84,55.96-4Z"/>
  <path class="st8" d="M1942.74,2306.5c1.78,1.29,10.77-3.46,7.99,7.99-11.28-1.4-29.78-3.34-39.97-4,10.01-1.27,25.08,4,31.98-4Z"/>
  <path class="st2" d="M2409.4,4178.22c52.14-9.12,80.84,59.18,32.71,84.69-62.19,32.96-97.2-73.41-32.71-84.69Z"/>
  <path class="st4" d="M3365.81,4269.23c98.51,6.8,76.96,83.47-8.01,83.95l4.01,23.98c-2.26-.54-5.44.36-7.99,0-.81-.96-3.4-3.65-4-4,.89-5.52-6.18-21.19-4-23.98.34-.43,7.8,1.37,8.16-2.27.3-3.01-3.93-10.08-4.17-15.71-.97-22.24,1.07-40.92,8.01-61.98,2.65.03,5.36-.18,7.99,0Z"/>
  <path class="st5" d="M3541.7,4393.15c.83,22.27-40.89,37.33-58.3,39.63-39.85,5.27-98.02-7.79-109.59-51.63,52.8,12.35,114,18.54,167.89,11.99Z"/>
  <path class="st9" d="M3553.69,4249.24c-17.33-3.93-28.67-2.07-43.97-4-.41-1.72.77-7.45.03-7.97-1.52-1.06-32.86-4.15-36-.02-28.41-2.17-56.16.8-83.95,4-.03-2.21-1.98-3.84-4-4,8.37-25.73,62.19-37.07,85.74-36.13,27.83,1.11,70.01,22.03,82.15,48.12Z"/>
  <path class="st10" d="M3361.82,4377.16c3.6.86,7.54,2.96,11.99,4,11.57,43.84,69.74,56.89,109.59,51.63,17.42-2.3,59.13-17.36,58.3-39.63,7.99-.97,16.08-2.49,23.98-4-29.26,49.47-96.06,67.08-149,47.06-40.13-15.17-40.27-32.26-62.86-59.06,2.55.36,5.73-.54,7.99,0Z"/>
  <path class="st10" d="M3561.69,4249.24c-2.22-.61-5.6.54-7.99,0-12.14-26.09-54.32-47-82.15-48.12-23.55-.94-77.36,10.4-85.74,36.13-6.64-.53-13.57,2.61-19.99,4,38.71-62.74,139.99-67.64,188.02-10.13,4.94,5.92,9.33,9.06,7.85,18.13Z"/>
  <path class="st3" d="M3361.82,4245.24c-3.01,10.75-8.08,14.11,3.95,18.6l.05,5.38c-2.63-.18-5.35.03-7.99,0-5.22-.05-10.84-.44-15.99,0-17.34,1.5-33.97,6.28-47.97,7.99,15.33-20.54,44.96-27.27,67.96-31.98Z"/>
  <path class="st3" d="M3473.74,4237.25c3.14-4.13,34.48-1.04,36,.02.75.52-.44,6.25-.03,7.97-11.97-1.51-30.7-7.59-35.98-7.99Z"/>
  <path class="st3" d="M3385.8,4237.25c2.02.16,3.96,1.78,4,4-4.74.55-18.27,2.87-23.98,4v-4c6.42-1.38,13.35-4.53,19.99-4Z"/>
  <path class="st10" d="M3357.82,4269.23c-6.94,21.05-8.98,39.74-8.01,61.98.25,5.62,4.47,12.7,4.17,15.71-.36,3.64-7.82,1.84-8.16,2.27-2.62-.23-5.41.34-7.99,0-.38-26.84-.86-53.53,4-79.95,5.15-.44,10.77-.05,15.99,0Z"/>
  <path class="st15" d="M2122.62,2674.26c-16.66,1.98-4.64-10.36-4-15.99,6,2.77,3.88,10.73,4,15.99Z"/>
  <path class="st15" d="M2126.62,2710.24c-16.26,2-4.25-8.55-4-11.99,5.29,1.94,3.73,7.63,4,11.99Z"/>
  <path class="st15" d="M2118.62,2646.28c-16.25,1.99-4.26-8.52-4-11.99,5.05,1.88,4.04,7.62,4,11.99Z"/>
  <path class="st15" d="M2114.63,2618.3c-16.22,1.97-4.3-8.39-4-11.99,5.17,1.91,3.89,7.61,4,11.99Z"/>
  <path class="st15" d="M2102.63,2578.32c11.37-2.67,6.64,5.98,7.99,7.99v4c-12.2,1.94-6.79-3.38-7.99-11.99Z"/>
  <path class="st12" d="M2081.49,2379.31c41.56-12.26,48.18,40.9,17.22,49.51-34.03,9.47-43.93-41.63-17.22-49.51Z"/>
  <path class="st12" d="M2269.29,2379.24c42.38-13,49.73,44.99,14.33,50.55-27.39,4.31-40.13-42.64-14.33-50.55Z"/>
  <path class="st12" d="M2222.56,2554.34c7.26,7.04-28.91,41.31-38.03,44.21-4.11-.02-37.75-35.15-33.92-44.21h71.95Z"/>
</svg>