<?xml version="1.0" encoding="UTF-8"?>
<svg id="Layer_1" xmlns="http://www.w3.org/2000/svg" version="1.1" viewBox="0 0 1024 1024">
  <!-- Generator: Adobe Illustrator 29.8.4, SVG Export Plug-In . SVG Version: 2.1.1 Build 6)  -->
  <defs>
    <style>
      .st0 {
        fill: #d57c50;
      }

      .st1 {
        fill: #b7c8e4;
      }

      .st2 {
        fill: #ccd9ec;
      }

      .st3 {
        fill: #85ba9c;
      }

      .st4 {
        fill: #c4d3ed;
      }

      .st5 {
        fill: #d9e0f1;
      }

      .st6 {
        fill: #b8c8e4;
      }

      .st7 {
        fill: #649982;
      }

      .st8 {
        fill: #94c8af;
      }

      .st9 {
        fill: #ceb164;
      }

      .st10 {
        fill: #c3a15a;
      }

      .st11 {
        fill: #80ba9f;
      }

      .st12 {
        fill: #cfc7a4;
      }

      .st13 {
        fill: #db9b6f;
      }

      .st14 {
        fill: #d9bc74;
      }

      .st15 {
        fill: #bc5f39;
      }
    </style>
  </defs>
  <path class="st0" d="M298,939h726v85H0v-85h298Z"/>
  <path class="st3" d="M606,853c16.52,1.51,36.82,4.01,53.55,2.05,1.01-.12,3.45-.46,3.45-1.55v-67.5h56v58.5c0,.42.98,1.29,2.07,1.1,4.01-.69,10.7-2.88,14.93-4.1,13.72-3.95,27.21-9.94,41-13.5,21.68-5.6,49.58-9.13,72-10,9.17-.36,19.84-.41,29,0,42.62,1.91,85.92,12.35,123.67,32.83,7.6,4.12,14.58,9.37,22.33,13.17v75H298c.59-1.61,1.99-2.3,3.27-3.22,59.99-43.48,126.2-87.46,202.73-89.78,9.4-.28,19.6-.28,29,0,24.48.73,48.61,4.77,73,7Z"/>
  <path class="st11" d="M125,753c-.83,5.01-7.61,4.85-5,8.99-1.83,1.66-9.53-6.92-13.04-4.54-.85.58-.83,2.47-.96,2.55-.48.3-9.05.75-11.22,1.28-10.62,2.57-22.83,7.23-30.78,14.71,5.3-1.61,9.78-5.29,15.02-7.47,8.18-3.41,18.11-5.93,26.98-6.52,0,1,.02,2,0,3-21.55,1.89-56.95,22.12-22.87,39.37,23.48,11.88,72.61,12.59,95.17-1.57,1.1-.69,7.15-4.17,5.69-5.8l-37-9.01c.31-.2.62-.69,1-1,10-1.37,20.2-3.16,30.01-5.48,5.24-1.24,10.4-.97,3.92-5.95-9.43-7.24-24.36-9.91-35.93-11.57-.02-1,0-2,0-3,8.82-.05,19.02,2.29,27.44,5.06s18.91,7.21,24.01,14.99.05,14.34.55,14.95c2.02,2.44,4.09-6.23,4.09-7.49.04-14.25-23.42-23.35-34.88-26.22-7.14-1.78-14.93-1.67-21.22-3.28-.15-.04-.64-2.01-2.45-2.01-2.8.01-6.61,3.67-11.89,1.84-1.86-.64-2.45-3.84-3.66-4.83,1.04-1.66,3.8-1,5.49-1.02,29.12-.35,56.44,5.85,78.51,25.02,1.61,3.6,3.18,6.37,3.08,10.5-.03,1.32-2.68,10.95-3.08,11.5-.46.62-11.09,7.84-12.7,8.8-33.02,19.79-114.64,21.16-145.33-3.28-10.82-8.62-13.66-16.74-5.55-28.65.68-.99.47-2.78.57-2.88.12-.12,1.97.13,2.9-.55,5.01-3.66,8.87-6.69,14.74-9.3,13.42-5.97,44.06-12.97,58.36-11.14ZM192.99,801.01c-.72-.7-7.1,4.13-8.62,4.87-28.73,14.01-77.96,14.43-107.06,1.31-8.69-3.92-20.75-11.2-18.11-22.48.55-2.36,3.34-3.86,2.78-6.7-11.95,11.21-.78,23.28,10.32,29.19,28.72,15.27,86.56,15.89,114.7-.67.96-.56,7.54-3.99,5.98-5.51Z"/>
  <path class="st11" d="M170,578c2.43-5.37,6.99-16.32,9.75-20.72.64-1.03-.06-1.75,2.24-1.27,5.97,15.95,13.25,31.39,20.01,47,4.33,9.99,8.68,20.01,13,30h-44l18,45h-43l13.67,29.04c49.96-6.65,99.12-3.23,147.55,10.24,53.16,14.79,89.31,32.32,147.24,34.76,11.47.48,23.07-.44,34.54-.04.06,2.33-.69,8.43.94,9.56,1.44,1,11.27.4,14.06.44v60c-18.15,3.01-35.57,9.4-53,15,.2-5.02-4.27.41-7,2-4.84,2.83-23.73,10.72-29,12-.05.01-.25-.17-1,0-.32.07-.68-.07-1,0-28.09,6.07-83.23,4.83-106.48-14.02-4.32-3.5-9.27-8.61-9.56-14.51-.46-9.17,7.09-15.32,14.37-19.63,30.52-18.1,88.78-18.07,121.04-4.71,10.5,4.35,26.21,13.77,23.39,27.15-.66,3.14-4.59,5.62-3.27,8.72,9.11-9.26,5.61-20.09-2.98-28.01-28.07-25.91-116.02-25.43-145-.96-22.62,19.1-1.19,35.46,18.23,42.73,18.68,6.99,40.97,9.9,60.71,8.21l16.54.04c-100.04,37.49-197.77,46.44-303.19,24.69-32.99-6.81-64.97-17.02-96.81-27.69v-85c15.16-7.43,29.4-16.54,44.64-23.86,17.5-8.41,35.76-15.12,53.84-22.16l34.54-66.97,3.49,4.97c.59-.44.99-.99,1.38-1.6,1.28-1.97,9.18-20.17,9.71-22.38s-.73-3.74-.19-6c1.39-5.8,9.62-22.12,12.59-29,2.75-6.35,6.16-12.65,9-19,.51-1.14.49-2.87,1-4ZM307,745.01c-.42-.44-10-3.51-11.57-3.94-18.43-4.96-49.07-5-65.74,5.1-1.29.78-4.01,2.5-4.67,3.81,24.79-13.17,55.82-14.73,81.5-3,.86.13.56-1.9.49-1.98ZM292.99,745.01c-17.06-4.52-42.69-5.4-58,4.51-.57.37-3.74.78-1.98,2.47,1.6,1.55,2.1-1.77,3.22-2.3,10.46-4.87,27.8-7.46,39.26-6.68,4.79.32,9.61,1.99,14.27,2.74,1.06.17,3.48,1.05,3.24-.74ZM279,758c2.86.31,20.97-3.16,20.98-4.5-10.37-11.83-55.1-10.89-63.02.95s17.45,17.87,25.56,18.53c12.04.98,27.81-.67,37.48-8.49-5.94-2.32-12.42-2.95-18.56-4.47-1.69-.42-2.91.99-2.43-2.02ZM295.99,746.01c-1.4-.72-2.67.63-1.99.98,1.4.72,2.67-.63,1.99-.98ZM301,748.99c-.53-1.99-2.13-2.25-4-1.98.53,1.99,2.13,2.25,4,1.98ZM312,748.99c-.34-1.45-1.61-2.29-2.99-1.98v1.99s2.99,0,2.99,0ZM49,774c-7.44,7.93-10.67,15.95-3.43,25.93,12.93,17.83,53.05,25.04,73.89,26.11,25.93,1.33,76.5-3.75,92.54-26.04,4.65-6.46,7.96-13.99,2.07-21.37-.86-1.08-1.92-.5-2.07-.63-1.69-3.77-.75-3.54-4.53-6.97-8.96-8.11-27.63-13.96-39.46-16.54-32.12-7-95.04-6.03-119.01,19.51ZM316.99,753c-3.7-3.52.06,5.8.02,6.43-.11,1.63-2.69,4.72-2,5.56,1.7,2.06,2.83-2.9,2.9-3.58.19-1.75.09-7.45-.92-8.41ZM231,754.01c-2.37-.84-2.69,2.45-2.77,3.78-.06,1.16.44,5.85.78,6.21.37.39,2.18.77,1.78-1.26-.68-3.42-1.2-5.18.21-8.73ZM221,757c-2.66-.28-2.03.14-1.77,2.27,1.32,10.91,17.5,16.88,26.95,19.06,14.74,3.4,29.23,3.38,44.03.38,1.51-.31,10.39-2.33,10.8-2.71,3.95-3.68-8.31.39-8.99.52-18.51,3.58-46,4.39-62.65-5.88-4.33-2.67-9.62-8.02-8.36-13.63ZM294.99,771c-20.79,6.91-42.19,4.75-61.99-4,.77,1.54,4.07,3.17,5.61,3.87,13.97,6.36,39.88,8.09,54.18,2.37,1.52-.61,2.71.59,2.19-2.25ZM298.5,770v1c.65-.33.65-.67,0-1ZM307.75,772.74c.1-.1,1.28-2.35.76-2.72l-4.51,3.97c1.21.06,2.88-.44,3.74-1.26ZM431,805.99c-7.28-6.01-19.44-9.12-28.77-10.72-27.19-4.66-64.05-3.28-86.23,14.72,5.95-2.06,10.64-5.46,16.75-7.74,23.47-8.75,55.15-9.16,79.24-2.75,6.51,1.73,12.42,5.12,19,6.49ZM326,829.01c-1.81,1.58,6.29,6.57,7.33,7.16,21.32,12.08,67.05,10.91,88.35-.98,19.26-10.76,8.42-24.77-7.42-30.94-21.1-8.22-58.53-8.43-78.95,1.58-1.23.6-11.41,6.33-9.31,8.18l35.99,7.99-35.99,7.02ZM437,809.99c-.62-1.66-3.16-3.65-4.98-3.5,1.62,2.13,1.63,4.17,4.98,3.5ZM439.01,831c7.33-4.87,5.42-15.25-1-20-.04,3.53,2.62,4.73,3.02,8.48.51,4.77-1.28,7.17-2.02,11.52ZM312,825.99c-2.47-5.96,1.24-8.52,1.99-13.99-3.81,2.51-4.28,7.37-4,11.51.13,2-.78,2.9,2,2.48ZM430.64,836.63c-26.03,14.49-81.03,14.91-106.98.22-4.2-2.38-7.16-7.22-11.65-8.84-1.49,1.55,7.69,8.53,9.08,9.41,26.08,16.4,79.8,15.9,106.96,2.13,3.38-1.71,7.98-4.34,9.95-7.54-3.35-1.02-5.65,3.66-7.36,4.62ZM243.99,846c.42-2.17-.97-2.33-2.43-3.06-22.91-11.49-81.63-10.65-100.08,9.04-5,5.34-6.19,12.79-.49,18.02-3.08-10.32-2.92-13.55,5.53-19.98,6.32-4.8,14-7.5,21.65-9.35,24.57-5.92,52.58-4.88,75.81,5.32ZM244,852.99c-23.99-17.73-65.07-17.04-90-1.49,2.37,2.13,2.92-1.02,3.77-1.41,19.75-9.15,47.39-10.66,68.21-4.58l18.01,7.48ZM237,855.99c.36-2.31-1.97-2.99-3.48-4.01-14.67-10-44.14-9.7-60.53-4.49-21.65,6.88-21.4,20.98.05,27.97,14.38,4.68,37.31,4.65,51.74-.18,1.97-.66,15.16-6.12,10.53-8.26l-25.31-6,26.99-5.02ZM249.99,847.01c-1.09-1.09-3.08.9-1.99,1.99s3.08-.9,1.99-1.99ZM246.71,867.71c3.09-4.17,2.95-10.59-1.7-13.71,2.84,7.01,2.43,13.26-4.37,17.63-16.65,10.7-48.6,11.27-67.27,6.5-6.23-1.59-10.92-4.37-16.67-6.33-.91-.31-2.85-1.84-2.69.19,9.67,5.38,19.48,8.69,30.5,10,16.16,1.92,51.6.04,62.19-14.27ZM151,856.01c-2.61-.44-1.78.4-2.28,2.16-.58,2.06-1.17,7.43.3,8.83,3.07,2.93.88-4.7.89-5.5.03-1.94.81-3.63,1.09-5.49ZM258.99,858.01c-1.89.05-2.05-.69-1.72,1.27.47,2.74.34,4.01-.27,6.72,3.9.71,1.29-6.06,1.99-7.99ZM256.99,868.01c-1.12-1.11-7.1,4.89-5.99,5.99,1.94.58,6.98-5.01,5.99-5.99ZM246.99,876c-.66-.55-7.72,3.41-9.47,4.02-20.66,7.18-49.36,8.03-70.53,2.49-8.14-2.13-15.14-6.76-22.99-9.5,5,4.41,11.38,7.65,17.78,9.71,22.84,7.34,57.75,7.06,79.89-2.54.56-.24,7.17-2.65,5.32-4.18Z"/>
  <path class="st1" d="M683,0v109c-20.97,10.05-44.85,37.15-52,59l-12.01.5,12.01.5c-.29.92-.63,4.22-1,6-4.35-.46-1.94,5.65-2,7-.19,4.14-.95,8.07-1,12-3.31-1.15-2.97,8.54,0,7,0,1,0,2,0,3-3.18-.78-2.98,3.88,0,3,.08,3.31.89,6.42,1,10,.03.98-2.45,7.44,2,7,.04.66-.07,1.35,0,2,.02.16-1.32.82-.81,3.16.28,1.29,2.18,5.84,3.81,4.84.28,1.3,1.14,2.07,1,4,0,.11-1.6,1.4-1,1.99.26.26,1.7-.22,2,0,2.38,1.78,1.99,4.33,3,6-2.34,1.01-.22,2.96.37,4.13,1.05,2.07,5.14,7.61,5.42,8.57,1.01,3.54-1.79,7.26,3.21,6.3.4,2.03-1.84,2.53-1.94,4.45-.05,1.06,1.29,3.01.93,3.52-.14.2-3.65.58-4.54,1.99-3.12,4.95,6.8,2.32,6.54,7.03-1.78-.1-3.88,2.13-5.36,1.87s-2.35-3.2-4.13-2.84c-2.03.41-1.05,4.55-1.78,5.75-.15.25-3.2,4.16-3.42,4.34-2.13,1.78-5.25.68-4.32,6.9,1.18,1.23,8.71-4.28,11.41-4.03.6.06,3.2,7.47,6.1,2.04,2.55-4.79-2.48-1.33-2.5-4.49,5.79-4.92,5.36-.87,7.17.26,4.13,2.57,3.42-5.64,3.84-8.28.2-1.25-.63-1.83,1.48-1.51.82.13,7.97,2.91,8.28,3.23,1.21,1.24.78,4.67,2.14,6.36,1.23,1.51,4.72,1.56,5.65,3.41,1.12,2.24-3.47,6.19,3.35,5.5l6.07-5.49c-.57,1.67-1.26,5.78-2,6.99-.06.09-1.75-.46-2.03.65-.3,1.17.35,4.02.04,4.35s-5.59-.44-7.34.16c-2.13.72-3.04,5.15-3.86,5.63-3.75,2.15-7.8-3.74-10.36,6.15-.55,2.12-.06,5.94-.87,7.13-.88,1.3-3.98.64-5.59,1.43-.57.28-7.7,7.37-9.21,8.25-2.13,1.24-7.76-1.73-7.78,3.25h-2c.28-4.68-5.11-1.86-7-2-.33-.02-.68.05-1,0-1.96-.32-4.88-3.16-8-2-.43-3.36,5.16-2.38,3.99-6.99-3.73-1.37-8.55,1.87-11.34,1.72-2.02-.11-4.15-1.79-7.16-1.81-2.13,0-11.83,1.01-13.55,1.53-4.8,1.45-3.41,6.04-4.89,7.11-1.31.95-4.78.33-6.61.43-1.92.11-4.01-1.06-3.45,2-.67,0-1.33,0-2,0,1.15-3.31-8.54-2.97-7,0-1.99.06-4.02-.12-6,0,.11-1.31-.16-2.7,0-4,.1-.83.43-2.55,1-3,.38-.3,3.59.92,1.49-2.99-.5-.93-5.27-7.96-6.06-8.94-2.62-3.28-9.73-5.44,1.57-6.07-.78-6.84-9.34-9.91-15.56-10.03-2.14-.04-15.87,1.47-16.31,2.17-1.12,1.8.87,5.44.57,7.21-.2,1.15-2.18,2.3-1.71,4.14.5,1.95,4.31.87,5.06,2.17.93,1.62,1.69,8.7,0,9.93-.65.48-11.83-.44-14.06-.58-.22-13.3.03-26.69,0-40,3.17.56,1.78-1.59,1.97-3.49.15-1.56.34-7.74,1.13-8.41.36-.31,8.72-1.04,9.46-1,1.41.08,2.47,1.57,3.99,1.85,8.45,1.58,5.45-.85,7.4-5.52,1.15-2.74,2.32-3.5,3.51-5.53.67-1.13.26-2.98.75-3.7.64-.94,6.29-1.7,6.7-2.3,1.77-2.55-2.22-5.09-2.77-6.59-.91-2.5.97-1.99,1.45-2.75.45-.71.29-1.86.7-2.29.51-.52,1.88-.18,2.35-.58.97-.82,1-2.33,2.38-3.16,4.27-2.59,11.35,1,13.55-2.54,1.08-1.74-.88-4.27-.6-6.45s2.54-3.08,3.29-4.8c1.54-3.51.46-7.99.75-11.75-3.25,1.68-13.28.11-15.06,1.43-1.13.84-.69,3.32-1.46,4.54s-3.92,2.03-5.52,3.48c-.65.59-8.17,9.94-8.44,10.56-1.44,3.29.86,7.77-5.51,7.98-.58-.65,1.58-8.81-2.94-5.95-.57.36-.72,4.89-1.55,5.97-1.12,1.45-4.92.62-6.08,2.98-.71,1.45,1.1,4.48.57,4.99-.36.34-8.58,1.09-10,0-.02-28.98.02-58.02,0-87h104l-1.48-2h-102.52s0-167,0-167h170ZM611.74,193.77c1.57-2.72-.73-9.07-3.19-10.82-1.65-1.17-3.64-.91-5.28-1.72-2.76-1.37-3.93-4.47-8.27-3.22-1.09,2.69,2.05,1.65,2.02,2.49-.15,4.51-6.27,1.53-8.54,1.48-7.42-.16-2.97,3.68-3.62,6.33-.4,1.63-3.56,2.51-2.8,5.08.63,2.11,8.92,3.96,7.94,6.1s-10.17,1.47-13.64,2.38c-1,.26-3.17-.4-2.34,1.62.78,1.9,10.42,5.83,10.92,5.46.16-.11.28-1.7,1.09-2.39,2.78-2.38,4.4-.32,7.19-.75,2.54-.39,5.08-1.89,7.79-1.81.25-3.6-3.64-3.09-6.01-3-1.55-6.25,9.11-2.33,12.41-3.19.29-.07,4.19-3.78,4.34-4.04ZM573,203.01h-4c-.83,4.76,3.09,4.04,4,0ZM615,243h-3.99v2.99h3.99v-2.99ZM608.73,251.27c-.47-.8-5.11-2.94-5.72-2.27,1.35,9.82-3.4,5.6-9.46,5.98-10,.63-13.05,7.04-1.55,5.02l-1.01,5.99c-1.69,1.17-6.67-5.27-7.99,1.56-.9,4.69,5.88,1.55,5.99,6.44-5.04-.58-14.46-1.34-19.3.2-3.65,1.16.43,5.43,1.95,5.69,1.23.21,3.81-2.55,6.04-2.65,1.66-.07,3.1,1.51,4.88,1.71,5.68.64,10.06-.99,15.45-1.96-4.49-10.59,1.92-5.08,5.08-7.43,1.06-.79.32-3.12,1.6-3.58,1.97-.72,6.13-.6,8.32.02-2.46-7.5,4.79-7.32,6-9.51,1.76-3.22-7.63.23-9.07-.9-1.18-.93-.53-3.19-1.2-4.32ZM579.99,267.01c-1.09-1.09-3.08.9-1.99,1.99s3.08-.9,1.99-1.99ZM581.01,289c3.93,0,3.98-3.97,0-3.99v3.99ZM571.01,286c-.97.32-8.27-1.13-7,1.48,1.34,2.74,8.25,3.63,7-1.48ZM558.99,316.01h-1.99v2.99h1.99v-2.99ZM614.99,321.01c-.65-.65-5.54.03-4.99,2.48.87,3.83,7.28-.2,4.99-2.48ZM602,324.01c-1.74-1.86-6.56-.11-4.99,1.98.92,1.22,7.05.23,4.99-1.98Z"/>
  <path class="st6" d="M0,341h167.01s0,57,0,57c-5.36,6.13-4.51,5.91,1,12v101s-168,0-168,0v-170Z"/>
  <path class="st6" d="M0,169h167.01c.06,30.16-.08,60.36-.05,90.54.01,9.53,0,19.34,0,28.91-.03,16.81-.65,33.91,1.04,50.54H0s0-169.99,0-169.99Z"/>
  <polygon class="st1" points="511 0 511.01 167.01 342.46 167.75 341 0 511 0"/>
  <rect class="st1" x="169" width="170" height="167"/>
  <path class="st6" d="M1022,169h2v170h-168.01s0-124,0-124c-.07-8.72,8-21.15,8-29.5v-16.5h158Z"/>
  <path class="st1" d="M856,0h168v169h-2l-158.01-.99c.36-11.79-4.84-22.47-8-33.5V0Z"/>
  <polygon class="st6" points="167 0 166.95 166.95 0 167 0 0 167 0"/>
  <path class="st6" d="M1024,341v153c-8.04,4.53-14.92,10.81-22.47,16.08-.92.64-2.15.66-2.53.92h-97c-1.62-3.1-4.01-8.01-5.76-10.71-.48-.75-.58-2.66-2.22-1.28-.56.48-5.99,11.05-7.02,12.99-9.85-2.3-20.87-.38-31-1v-170h168ZM899.99,364.02c-4.79-.74-10.12-11.49-14.44-11.07-1.77.17-12.59,10.96-12.59,12.55,1.17,2.47,11.71,13.57,13.55,13.56l12.51-12.54.97-2.5Z"/>
  <path class="st2" d="M856,0v134.5c3.16,11.03,8.35,21.71,7.99,33.5l158.01.99h-158v16.5c0,8.35-8.07,20.78-8,29.5-.93-.07-1.36.53-2,1-4.35,3.19-12.95,17.55-19.99,23.51s-21.95,11.9-26.01,16.49l-21.52,3.98c-63.93,5.13-111.31-56.33-89.21-117.21,6.45-17.77,19.16-31.32,33.72-42.78,4.73-.58,11.04-5.61,16.02-7.48,34.27-12.86,72.62-2.93,96.49,24.46l10.48,14.01V0h2.01Z"/>
  <path class="st11" d="M1024,660v141c-47.44-14.47-97.46-6.66-145,3l-1-3v-38c.52,0,2.04-.95,3.46-1,2.54-.08,9.95.72,11.11-.94l.44-30.06c37.04-1.24,66.31-14.77,90-43.5.93-1.13,2.43-1.61,1.99-3.5-6.27,1.81-11.88,5.23-18.04,7.45-40.51,14.56-77.15,9.09-109.97-18.93-3.83-3.27-16.28-17.93-18.23-18.77-5.58-2.41-14.7.85-20.75-1.75.23-6.83-.29-13.74-.04-20.58.05-1.29,1.04-2.29,1.04-2.42l45.46-5.04c47.17-.53,93.14,8.6,136.51,26.57,7.65,3.17,15,7.89,23.03,9.47Z"/>
  <path class="st7" d="M504,822v24c-76.54,2.32-142.74,46.3-202.73,89.78-1.28.93-2.67,1.62-3.27,3.22H0v-86c31.84,10.67,63.82,20.88,96.81,27.69,105.42,21.75,203.15,12.8,303.19-24.69,4.18-1.57,9.62-2.05,13-5,.32-.07.68.07,1,0h1c5.27-1.28,24.16-9.17,29-12,2.58.13,4.7-1.26,7-2,17.43-5.6,34.85-11.99,53-15Z"/>
  <path class="st6" d="M0,513h167.01c.5,9.54.82,18.92.99,28.49.22,12.14-.12,24.68-1.03,37.01-.14,1.86-.81,4.1,2.04,3.5-2.84,6.35-6.25,12.65-9,19-65.54,7.57-117.7,52.98-160,100v-188Z"/>
  <path class="st1" d="M854,0v130.99s-10.49-14.01-10.49-14.01c-23.87-27.4-62.22-37.32-96.49-24.46-4.98,1.87-11.29,6.89-16.02,7.48-17.48,2.16-27.42.4-45,8l-1-108h169Z"/>
  <path class="st7" d="M1024,494v166c-8.03-1.58-15.38-6.3-23.03-9.47-43.37-17.98-89.34-27.1-136.51-26.57l-45.46,5.04c.05-1.66-.04-3.34,0-5,4.82-1.06,10.35-1.5,15-3h38s-2-6-2-6h33l-20-43h50c-3.01-6.91-6.98-13.43-10.43-20.11-.56-1.08-.35-2.45-.57-2.89,26.52-6.76,50.53-20.05,73-35,1.73-1.15,2.87-2.22,4-3,.38-.26,1.61-.28,2.53-.92,7.55-5.27,14.43-11.55,22.47-16.08Z"/>
  <path class="st7" d="M160,601c-2.97,6.88-11.2,23.2-12.59,29-.54,2.26.73,3.74.19,6s-8.43,20.41-9.71,22.38c-.4.61-.8,1.16-1.38,1.6l-3.49-4.97-34.54,66.97c-18.08,7.04-36.33,13.76-53.84,22.16-15.24,7.32-29.48,16.43-44.64,23.86v-67c42.3-47.02,94.46-92.43,160-100Z"/>
  <path class="st4" d="M169,0v167h170V0h2l1.46,167.75,168.55-.74V0s1.99,0,1.99,0v167.01s102.52,0,102.52,0l1.48,2h-104c.02,28.98-.02,58.02,0,87,0,10.98-.02,22.02,0,33,.03,13.31-.22,26.7,0,40,.05,3.32-.04,6.68,0,10.01h21.01c.12.13,1.71.83,3,1.99h-24v170c28.96-.51,58.05.69,87,0v2h-87.01s0,57,0,57c-.64-.34-1.34-.65-2-1v-56h-170l1,45c-.37.84-.53,1.95-1,3-3.02.56-1.94-1.53-2-3.45-.5-14.82.37-29.73,0-44.55h-169v65c-.51,1.13-.49,2.86-1,4-2.85.6-2.18-1.64-2.04-3.5.92-12.33,1.25-24.87,1.03-37.01-.17-9.56-.49-18.95-.99-28.49H0s0-1.99,0-1.99h168s0-101,0-101c.66.73.82,1.82,1,2v99h170v-44c.15-.17.67-2.38,2-4v48h170v-170h-170v111c-.65-.68-1.32-1.34-2-2v-109h-170v54c-.13.13-.92,1.77-2,3v-57.01s-167,0-167,0v-2h168c-1.7-16.63-1.07-33.74-1.04-50.55.02-9.57.02-19.38,0-28.91-.03-30.18.11-60.38.05-90.55H0s0-1.99,0-1.99l166.95-.05.05-166.95h2ZM339,169h-170v170h170v-170ZM511,169h-168.5c-.11,0-1.5,1.39-1.5,1.5v168.5h170v-170Z"/>
  <path class="st7" d="M1024,801v63c-7.75-3.8-14.73-9.05-22.33-13.17-37.76-20.48-81.05-30.92-123.67-32.83v-14h1c47.54-9.66,97.56-17.47,145-3Z"/>
  <path class="st4" d="M856,215v124.01s168,0,168,0v2h-168v170c10.13.62,21.15-1.3,31,1-.14.26.14.74,0,1h-31.01c0,7.65,0,15.35,0,23v21c-.66-.03-1.34.05-2,0v-44.01s-72,0-72,0v-2h72v-170h-151c-.02-.67.01-1.33,0-2h151.01s0-123,0-123c.64-.47,1.07-1.07,2-1Z"/>
  <path class="st4" d="M685,0l1,108c-1.15.5-2.48.75-3,1V0h2Z"/>
  <path class="st15" d="M776,762l1,66c-13.79,3.56-27.28,9.55-41,13.5-4.23,1.22-10.92,3.42-14.93,4.1-1.09.19-2.07-.68-2.07-1.1v-58.5h-56v67.5c0,1.1-2.44,1.43-3.45,1.55-16.73,1.96-37.03-.54-53.55-2.05v-91c56.02-.13,113.9-.12,170,0Z"/>
  <path class="st0" d="M606,762v91c-24.39-2.23-48.52-6.27-73-7v-84c24.31.07,48.68.06,73,0Z"/>
  <path class="st0" d="M849,762v56c-22.42.87-50.32,4.4-72,10l-1-66c24.32.05,48.68.05,73,0Z"/>
  <path class="st15" d="M533,762v84c-9.4-.28-19.6-.28-29,0v-84c9.65.12,19.35-.03,29,0Z"/>
  <path class="st15" d="M878,763v55c-9.16-.41-19.83-.36-29,0v-56c9.54-.02,19.86,1.1,29,1Z"/>
  <path class="st7" d="M563,624c-.05,9.65.03,19.35,0,29-6.63.09-13.4-.51-19.99.51-16.34,21.28-40.13,38.58-66.81,44.19-27.89,5.86-53.68-2.88-79.19-13.21,22.56,27.62,55.27,47.45,91.98,46.51.12,6.98-.17,14.02,0,21-11.47-.4-23.08.52-34.54.04-57.93-2.43-94.08-19.96-147.24-34.76-48.42-13.47-97.59-16.89-147.55-10.24l-13.67-29.04h43l-18-45h44c-4.32-9.99-8.67-20.01-13-30,35.23,2.88,63.76,27.13,98,34-.75,1.83-1.08,5.81-2,7.99,4.75,1.18,9.22-.04,13.46-.04,6.78-.01,51.34,1.56,53.34-.21.45-.39.1-1.69.2-1.75.57-.36,11.14-.77,13.36-1.14,49.05-8.14,90.58-30.7,128.64-61.86,10.54,22.68,30.29,41.16,56,44Z"/>
  <path class="st6" d="M170,578v-65h169c.37,14.81-.5,29.73,0,44.55.06,1.93-1.02,4.01,2,3.45-2.19,4.86-4.56,9.83-6.01,15-3.85.25-2.06-5.4-4.84-1.34-8.82,12.9-21.51,44.94-28.4,60.63-.46,1.05-1.7,1.58-1.75,1.71-34.24-6.87-62.77-31.12-98-34-6.77-15.6-14.05-31.05-20.01-47-2.29-.48-1.6.25-2.24,1.27-2.76,4.4-7.32,15.35-9.75,20.72Z"/>
  <path class="st10" d="M893,731l-.44,30.06c-1.15,1.66-8.57.86-11.11.94-1.42.04-2.93.99-3.46,1-9.14.1-19.46-1.02-29-1-24.32.05-48.68.05-73,0-56.1-.12-113.98-.13-170,0-24.32.06-48.69.07-73,0-9.65-.03-19.35.12-29,0-2.79-.03-12.62.57-14.06-.44-1.62-1.13-.88-7.23-.94-9.56-.17-6.98.12-14.02,0-21,134.01-3.36,270.24,4.48,404,0Z"/>
  <path class="st7" d="M326,829.01l35.99-7.02-35.99-7.99c-2.11-1.85,8.08-7.58,9.31-8.18,20.42-10.01,57.85-9.79,78.95-1.58,15.85,6.17,26.69,20.19,7.42,30.94-21.3,11.89-67.03,13.07-88.35.98-1.04-.59-9.14-5.58-7.33-7.16Z"/>
  <path class="st7" d="M237,855.99l-26.99,5.02,25.31,6c4.62,2.15-8.57,7.61-10.53,8.26-14.43,4.83-37.36,4.86-51.74.18-21.45-6.98-21.7-21.09-.05-27.97,16.39-5.21,45.86-5.51,60.53,4.49,1.51,1.03,3.84,1.71,3.48,4.01Z"/>
  <path class="st7" d="M279,758c-.48,3.01.74,1.6,2.43,2.02,6.15,1.52,12.63,2.15,18.56,4.47-9.67,7.81-25.44,9.47-37.48,8.49-8.11-.66-33.85-6.12-25.56-18.53s52.65-12.79,63.02-.95c0,1.34-18.12,4.81-20.98,4.5Z"/>
  <path class="st8" d="M212,778c-22.07-19.17-49.39-25.37-78.51-25.02-1.69.02-4.44-.64-5.49,1.02-.73-.6-2.04-.88-3-1-14.29-1.83-44.94,5.17-58.36,11.14-5.87,2.61-9.74,5.65-14.74,9.3-.93.68-2.78.44-2.9.55,23.97-25.54,86.89-26.51,119.01-19.51,11.82,2.58,30.5,8.43,39.46,16.54,3.78,3.42,2.84,3.2,4.53,6.97Z"/>
  <path class="st8" d="M212,778c.15.13,1.21-.44,2.07.63,5.89,7.38,2.58,14.91-2.07,21.37.4-.55,3.05-10.18,3.08-11.5.1-4.13-1.47-6.9-3.08-10.5Z"/>
  <path class="st8" d="M212,800c-16.04,22.29-66.61,27.37-92.54,26.04-20.84-1.07-60.97-8.28-73.89-26.11-7.24-9.99-4.01-18,3.43-25.93-.1.1.1,1.89-.57,2.88-8.11,11.91-5.27,20.03,5.55,28.65,30.68,24.44,112.31,23.07,145.33,3.28,1.6-.96,12.24-8.18,12.7-8.8Z"/>
  <path class="st8" d="M400,856l-16.54-.04c-19.74,1.69-42.02-1.22-60.71-8.21-19.42-7.27-40.85-23.62-18.23-42.73,28.97-24.47,116.93-24.95,145,.96,8.59,7.93,12.08,18.75,2.98,28.01-1.31-3.11,2.61-5.59,3.27-8.72,2.82-13.38-12.89-22.8-23.39-27.15-32.26-13.37-90.53-13.39-121.04,4.71-7.28,4.32-14.84,10.46-14.37,19.63.3,5.9,5.24,11.01,9.56,14.51,23.25,18.85,78.39,20.1,106.48,14.02-3.38,2.95-8.82,3.43-13,5Z"/>
  <path class="st8" d="M430.64,836.63c1.71-.95,4.01-5.63,7.36-4.62-1.98,3.2-6.58,5.82-9.95,7.54-27.16,13.77-80.88,14.26-106.96-2.13-1.4-.88-10.57-7.86-9.08-9.41,4.5,1.62,7.45,6.46,11.65,8.84,25.95,14.69,80.95,14.27,106.98-.22Z"/>
  <path class="st8" d="M431,805.99c-6.59-1.37-12.5-4.75-19-6.49-24.09-6.41-55.77-6-79.24,2.75-6.11,2.28-10.8,5.68-16.75,7.74,22.18-18,59.04-19.38,86.23-14.72,9.33,1.6,21.49,4.71,28.77,10.72Z"/>
  <path class="st8" d="M246.99,876c1.85,1.53-4.76,3.93-5.32,4.18-22.15,9.6-57.05,9.88-79.89,2.54-6.41-2.06-12.78-5.29-17.78-9.71,7.85,2.74,14.85,7.36,22.99,9.5,21.17,5.55,49.87,4.7,70.53-2.49,1.76-.61,8.81-4.57,9.47-4.02Z"/>
  <path class="st8" d="M243.99,846c-23.24-10.2-51.25-11.25-75.81-5.32-7.65,1.85-15.33,4.54-21.65,9.35-8.46,6.43-8.61,9.66-5.53,19.98-5.7-5.23-4.51-12.67.49-18.02,18.45-19.7,77.17-20.54,100.08-9.04,1.46.73,2.85.89,2.43,3.06Z"/>
  <path class="st8" d="M244,852.99l-18.01-7.48c-20.82-6.08-48.46-4.57-68.21,4.58-.86.4-1.41,3.54-3.77,1.41,24.93-15.55,66.01-16.25,90,1.49Z"/>
  <path class="st8" d="M246.71,867.71c-10.59,14.31-46.03,16.19-62.19,14.27-11.02-1.31-20.84-4.62-30.5-10-.16-2.03,1.78-.5,2.69-.19,5.75,1.96,10.45,4.74,16.67,6.33,18.67,4.77,50.62,4.19,67.27-6.5,6.8-4.37,7.2-10.62,4.37-17.63,4.64,3.12,4.78,9.54,1.7,13.71Z"/>
  <path class="st8" d="M307,745.01c.08.08.37,2.11-.49,1.98-25.69-11.73-56.71-10.17-81.5,3,.67-1.31,3.38-3.03,4.67-3.81,16.68-10.1,47.32-10.07,65.74-5.1,1.58.42,11.15,3.49,11.57,3.94Z"/>
  <path class="st8" d="M221,757c-1.26,5.61,4.03,10.97,8.36,13.63,16.66,10.27,44.14,9.46,62.65,5.88.69-.13,12.95-4.2,8.99-.52-.41.38-9.29,2.41-10.8,2.71-14.79,3-29.29,3.02-44.03-.38-9.45-2.18-25.63-8.15-26.95-19.06-.26-2.13-.88-2.55,1.77-2.27Z"/>
  <path class="st8" d="M294.99,771c.51,2.84-.68,1.64-2.19,2.25-14.3,5.72-40.2,3.98-54.18-2.37-1.55-.7-4.85-2.34-5.61-3.87,19.79,8.74,41.19,10.91,61.99,4Z"/>
  <path class="st8" d="M292.99,745.01c.24,1.8-2.18.91-3.24.74-4.65-.76-9.48-2.42-14.27-2.74-11.46-.77-28.8,1.81-39.26,6.68-1.13.52-1.62,3.84-3.22,2.3-1.76-1.7,1.42-2.11,1.98-2.47,15.32-9.91,40.94-9.03,58-4.51Z"/>
  <path class="st8" d="M439.01,831c.74-4.35,2.53-6.75,2.02-11.52-.4-3.75-3.06-4.95-3.02-8.48,6.42,4.75,8.33,15.13,1,20Z"/>
  <path class="st8" d="M312,825.99c-2.79.41-1.87-.48-2-2.48-.28-4.14.19-9,4-11.51-.75,5.48-4.47,8.03-1.99,13.99Z"/>
  <path class="st8" d="M151,856.01c-.28,1.86-1.07,3.55-1.09,5.49-.01.79,2.18,8.43-.89,5.5-1.47-1.41-.88-6.77-.3-8.83.5-1.76-.33-2.6,2.28-2.16Z"/>
  <path class="st8" d="M316.99,753c1.01.96,1.11,6.67.92,8.41-.07.68-1.2,5.64-2.9,3.58-.69-.84,1.89-3.93,2-5.56.04-.63-3.72-9.95-.02-6.43Z"/>
  <path class="st8" d="M231,754.01c-1.41,3.55-.89,5.31-.21,8.73.41,2.03-1.41,1.65-1.78,1.26-.34-.36-.84-5.06-.78-6.21.07-1.33.4-4.62,2.77-3.78Z"/>
  <path class="st8" d="M256.99,868.01c.99.98-4.05,6.57-5.99,5.99-1.11-1.1,4.87-7.1,5.99-5.99Z"/>
  <path class="st8" d="M258.99,858.01c-.7,1.93,1.91,8.7-1.99,7.99.61-2.7.74-3.98.27-6.72-.33-1.96-.17-1.22,1.72-1.27Z"/>
  <path class="st8" d="M444,839c2.73-1.59,7.2-7.02,7-2-2.3.74-4.42,2.13-7,2Z"/>
  <path class="st8" d="M437,809.99c-3.35.67-3.36-1.37-4.98-3.5,1.82-.15,4.36,1.84,4.98,3.5Z"/>
  <path class="st8" d="M307.75,772.74c-.86.82-2.53,1.31-3.74,1.26l4.51-3.97c.52.37-.66,2.62-.76,2.72Z"/>
  <path class="st8" d="M301,748.99c-1.86.27-3.46,0-4-1.98,1.86-.27,3.46,0,4,1.98Z"/>
  <path class="st8" d="M312,748.99h-2.99s0-1.98,0-1.98c1.38-.31,2.66.54,2.99,1.98Z"/>
  <path class="st8" d="M249.99,847.01c1.09,1.09-.9,3.08-1.99,1.99s.9-3.08,1.99-1.99Z"/>
  <path class="st8" d="M295.99,746.01c.68.35-.59,1.7-1.99.98-.68-.35.59-1.7,1.99-.98Z"/>
  <path class="st8" d="M415,851h-1c.75-.17.95.01,1,0Z"/>
  <path class="st8" d="M298.5,770c.65.33.65.67,0,1v-1Z"/>
  <path class="st5" d="M731,100c-14.57,11.46-27.27,25.01-33.72,42.78-22.1,60.88,25.28,122.34,89.21,117.21l21.52-3.98c-17.21,19.46-27.25,32.03-54.22,39.28-48.55,13.06-90.67-7.76-115.78-49.28-1.01-1.67-.62-4.22-3-6l-1-2c.14-1.93-.72-2.7-1-4-.57-2.63-1.32-5.86-3-8-.07-.65.04-1.34,0-2-.12-1.83-.9-5.45-2-7-.11-3.58-.92-6.69-1-10-.02-1,0-2,0-3s0-2,0-3c0-2.33-.03-4.67,0-7,.05-3.93.81-7.86,1-12,1.35-1.78,1.53-4.76,2-7,.37-1.78.71-5.08,1-6,.1-.3-.1-.7,0-1,7.15-21.85,31.03-48.95,52-59,.52-.25,1.85-.5,3-1,17.58-7.6,27.52-5.84,45-8Z"/>
  <path class="st6" d="M854,216v123.01s-151,0-151,0c-.08-4.97.68-34.47-.44-36.06-1.5-2.16-18.85-.32-22.56-.94-.15,12.35-.83,24.64-1,37h-46c.02-4.97,5.65-2.01,7.78-3.25,1.51-.88,8.64-7.97,9.21-8.25,1.61-.79,4.7-.13,5.59-1.43.81-1.19.32-5.01.87-7.13,2.56-9.89,6.61-4,10.36-6.15.83-.47,1.73-4.9,3.86-5.63,1.75-.59,7.03.18,7.34-.16s-.34-3.18-.04-4.35,1.98-.56,2.03-.65c.74-1.21,1.42-5.32,2-6.99l-6.07,5.49c-6.82.68-2.23-3.26-3.35-5.5-.93-1.86-4.42-1.9-5.65-3.41-1.37-1.69-.93-5.12-2.14-6.36-.31-.32-7.46-3.11-8.28-3.23-2.11-.32-1.28.26-1.48,1.51-.42,2.64.29,10.85-3.84,8.28-1.81-1.13-1.38-5.18-7.17-.26.02,3.16,5.06-.29,2.5,4.49-2.9,5.43-5.49-1.98-6.1-2.04-2.7-.25-10.23,5.26-11.41,4.03-.93-6.21,2.19-5.11,4.32-6.9.22-.19,3.27-4.09,3.42-4.34.72-1.2-.26-5.35,1.78-5.75,1.78-.36,2.65,2.58,4.13,2.84s3.58-1.97,5.36-1.87c.26-4.71-9.66-2.07-6.54-7.03.89-1.41,4.4-1.79,4.54-1.99.36-.51-.99-2.46-.93-3.52.09-1.91,2.33-2.42,1.94-4.45-5,.96-2.2-2.76-3.21-6.3-.27-.96-4.36-6.5-5.42-8.57-.6-1.17-2.72-3.12-.37-4.13,25.11,41.52,67.24,62.34,115.78,49.28,26.97-7.26,37-19.83,54.22-39.28,4.06-4.59,19.01-10.56,26.01-16.49s15.64-20.32,19.99-23.51ZM670.99,317.01h-1.99v2.99h1.99v-2.99Z"/>
  <path class="st6" d="M513,256c1.42,1.08,9.64.34,10,0,.54-.51-1.28-3.54-.57-4.99,1.16-2.37,4.96-1.53,6.08-2.98.83-1.08.98-5.61,1.55-5.97,4.52-2.86,2.36,5.3,2.94,5.95,6.37-.21,4.06-4.69,5.51-7.98.27-.62,7.79-9.97,8.44-10.56,1.6-1.45,4.77-2.29,5.52-3.48s.33-3.7,1.46-4.54c1.78-1.31,11.81.25,15.06-1.43-.28,3.76.79,8.23-.75,11.75-.75,1.72-3.02,2.69-3.29,4.8s1.68,4.71.6,6.45c-2.2,3.55-9.28-.04-13.55,2.54-1.38.83-1.41,2.34-2.38,3.16-.48.4-1.84.06-2.35.58-.41.43-.25,1.57-.7,2.29-.48.76-2.36.25-1.45,2.75.55,1.5,4.54,4.03,2.77,6.59-.41.6-6.06,1.36-6.7,2.3-.49.72-.08,2.56-.75,3.7-1.19,2.03-2.36,2.79-3.51,5.53-1.95,4.67,1.06,7.1-7.4,5.52-1.52-.28-2.58-1.77-3.99-1.85-.74-.04-9.09.69-9.46,1-.79.67-.98,6.86-1.13,8.41-.18,1.89,1.2,4.04-1.97,3.49-.02-10.98,0-22.02,0-33Z"/>
  <path class="st6" d="M513,329c2.23.14,13.42,1.06,14.06.58,1.68-1.23.92-8.31,0-9.93-.75-1.3-4.56-.23-5.06-2.17-.47-1.84,1.5-2.98,1.71-4.14.31-1.77-1.69-5.41-.57-7.21.44-.7,14.17-2.21,16.31-2.17,6.22.12,14.79,3.18,15.56,10.03-11.3.63-4.2,2.79-1.57,6.07.79.98,5.56,8.01,6.06,8.94,2.1,3.91-1.12,2.7-1.49,2.99-1.15-3.42-12.81-15.47-15.42-15.07-1.76,4.9-13.8,11.57-12.44,16.36.09.33,3.63,5.46,3.86,5.71h-21.01c-.04-3.32.06-6.68,0-10Z"/>
  <path class="st6" d="M611.74,193.77c-.15.26-4.05,3.96-4.34,4.04-3.3.86-13.96-3.06-12.41,3.19,2.37-.1,6.25-.61,6.01,3-2.7-.08-5.25,1.42-7.79,1.81-2.78.43-4.41-1.63-7.19.75-.81.7-.93,2.28-1.09,2.39-.5.36-10.14-3.57-10.92-5.46-.83-2.02,1.34-1.36,2.34-1.62,3.48-.91,12.64-.19,13.64-2.38s-7.31-3.99-7.94-6.1c-.76-2.57,2.4-3.45,2.8-5.08.66-2.64-3.79-6.48,3.62-6.33,2.27.05,8.39,3.03,8.54-1.48.03-.85-3.11.2-2.02-2.49,4.34-1.25,5.5,1.85,8.27,3.22,1.64.81,3.63.56,5.28,1.72,2.46,1.75,4.77,8.1,3.19,10.82Z"/>
  <path class="st6" d="M608.73,251.27c.66,1.12.01,3.39,1.2,4.32,1.43,1.12,10.83-2.32,9.07.9-1.2,2.2-8.46,2.02-6,9.51-2.18-.62-6.34-.74-8.32-.02-1.27.46-.53,2.79-1.6,3.58-3.16,2.36-9.57-3.16-5.08,7.43-5.39.96-9.77,2.6-15.45,1.96-1.78-.2-3.22-1.77-4.88-1.71-2.23.09-4.81,2.86-6.04,2.65-1.52-.26-5.6-4.53-1.95-5.69,4.85-1.54,14.26-.78,19.3-.2-.12-4.89-6.89-1.75-5.99-6.44,1.31-6.83,6.3-.39,7.99-1.56l1.01-5.99c-11.5,2.01-8.45-4.4,1.55-5.02,6.07-.38,10.81,3.84,9.46-5.98.61-.67,5.25,1.47,5.72,2.27Z"/>
  <path class="st12" d="M558,332c-.57.45-.9,2.17-1,3-2.46.78-3.6,1.1-3,4-2.14.32-2.48.64-4,2-1.88,1.68-3.01,5.38-6.45,5.05-1.42-.14-5.17-3.8-6.55-5.05-1.29-1.17-2.88-1.87-3-2-.23-.25-3.77-5.38-3.86-5.71-1.36-4.79,10.68-11.46,12.44-16.36,2.61-.4,14.27,11.65,15.42,15.07Z"/>
  <path class="st6" d="M572,339c-.56-3.06,1.54-1.89,3.45-2s5.3.52,6.61-.43c1.48-1.08.09-5.66,4.89-7.11,1.72-.52,11.42-1.54,13.55-1.53,3.01.01,5.14,1.7,7.16,1.81,2.79.15,7.61-3.09,11.34-1.72,1.17,4.61-4.42,3.63-3.99,6.99,3.12-1.16,6.03,1.68,8,2l.49.98.51-.98c1.89.14,7.28-2.68,7,2-19.65,0-39.36-.2-59,0Z"/>
  <path class="st4" d="M554,339c.92-.14,2.02.06,3,0,1.98-.12,4.01.06,6,0,2.33-.07,4.67.03,7,0,.67,0,1.33,0,2,0,19.64-.2,39.35,0,59,0h48c0,.67.02,1.33,0,2h-129c1.52-1.36,1.86-1.68,4-2Z"/>
  <path class="st6" d="M571.01,286c1.25,5.11-5.66,4.22-7,1.48s6.02-1.16,7-1.48Z"/>
  <path class="st6" d="M614.99,321.01c2.29,2.28-4.12,6.31-4.99,2.48-.55-2.45,4.34-3.13,4.99-2.48Z"/>
  <path class="st6" d="M633,234c-1.63,1-3.53-3.55-3.81-4.84-.51-2.35.83-3,.81-3.16,1.68,2.14,2.43,5.37,3,8Z"/>
  <path class="st6" d="M563,339c-1.54-2.97,8.15-3.31,7,0-2.33.03-4.67-.07-7,0Z"/>
  <path class="st6" d="M627,194c-.03,2.33,0,4.67,0,7-2.97,1.54-3.31-8.15,0-7Z"/>
  <path class="st6" d="M630,224c-4.45.44-1.97-6.02-2-7,1.1,1.55,1.88,5.17,2,7Z"/>
  <path class="st6" d="M602,324.01c2.06,2.21-4.07,3.2-4.99,1.98-1.57-2.09,3.25-3.84,4.99-1.98Z"/>
  <rect class="st6" x="611" y="243" width="3.99" height="2.99"/>
  <path class="st4" d="M631,168c-.1.3.1.7,0,1l-12.01-.5,12.01-.5Z"/>
  <path class="st6" d="M630,175c-.47,2.24-.65,5.22-2,7,.06-1.35-2.35-7.46,2-7Z"/>
  <path class="st6" d="M557,339c-.98.06-2.08-.14-3,0-.6-2.9.54-3.22,3-4-.16,1.3.11,2.69,0,4Z"/>
  <path class="st6" d="M581.01,289v-3.99c3.98.02,3.93,3.99,0,3.99Z"/>
  <path class="st6" d="M573,203.01c-.91,4.04-4.83,4.76-4,0h4Z"/>
  <path class="st6" d="M627,204c0,1-.02,2,0,3-2.98.88-3.18-3.78,0-3Z"/>
  <rect class="st6" x="557.01" y="316.01" width="1.99" height="2.99"/>
  <path class="st6" d="M579.99,267.01c1.09,1.09-.9,3.08-1.99,1.99s.9-3.08,1.99-1.99Z"/>
  <path class="st6" d="M635,240c-.3-.23-1.74.25-2,0-.6-.59.99-1.88,1-1.99l1,2Z"/>
  <path class="st4" d="M623,337c.32.05.67-.02,1,0l-.51.98-.49-.98Z"/>
  <path class="st12" d="M169,412c-.18-.18-.34-1.27-1-2-5.51-6.09-6.36-5.87-1-12,1.08-1.23,1.87-2.87,2-3,.17-.18,1.69-.22,2.49-.97,2.72-2.54,7.09-8.92,10.79-7.89,1.35.38,16.68,15.98,16.57,17.18-2.31,3.6-13.44,16.33-16.83,17.28s-8.15-5.36-10.54-7.63c-.78-.74-2.31-.78-2.49-.97Z"/>
  <path class="st11" d="M887,512c1.03-1.94,6.45-12.52,7.02-12.99,1.64-1.38,1.74.53,2.22,1.28,1.75,2.71,4.14,7.61,5.76,10.71.34.65.65,1.33,1,2,6.23,11.98,12.92,24.23,19,36,.22.43.02,1.81.57,2.89,3.44,6.69,7.42,13.2,10.43,20.11h-50l20,43h-33l2,5.99h-38c20.58-6.65,41.17-32.85,45.95-53.55.31-1.34.53-3-1.43-2.43-3.04.88-12.77,8.17-17.66,10.34-3.59,1.6-5.88,1.68-8.86,2.64,3.86-6.68,6.48-14.19,10-21s7.44-12.5,11-19c4.49-8.18,9.5-16.54,14-25,.14-.26-.14-.74,0-1Z"/>
  <path class="st12" d="M899.99,364.02l-.97,2.5-12.51,12.54c-1.84,0-12.38-11.09-13.55-13.56,0-1.59,10.81-12.38,12.59-12.55,4.32-.42,9.65,10.33,14.44,11.07Z"/>
  <path class="st4" d="M999,511c-1.13.78-2.27,1.85-4,3l-92-1c-.35-.67-.66-1.35-1-2h97Z"/>
  <path class="st13" d="M818,652c6.05,2.6,15.17-.66,20.75,1.75,1.95.84,14.4,15.49,18.23,18.77,32.82,28.02,69.46,33.49,109.97,18.93,6.16-2.21,11.77-5.63,18.04-7.45.43,1.88-1.06,2.37-1.99,3.5-23.69,28.73-52.96,42.26-90,43.5-133.76,4.48-269.99-3.36-404,0-36.71.94-69.42-18.89-91.98-46.51,25.5,10.34,51.3,19.08,79.19,13.21,26.68-5.61,50.47-22.91,66.81-44.19,6.59-1.02,13.36-.43,19.99-.51,42.62-.55,85.37.02,128,0,42.25-.02,85.06.84,127-1ZM691,668l-139.48.02c-12.2,11.54-24.26,23.14-39.5,31.5-13.34,7.32-29.68,13.41-45.02,13.49l3.51,1.98c73.32,1.85,147.04,1.01,220.49,1.01,68.56,0,142.69,3.55,210.54.04,1.77-.09,15.47-1.66,15.47-2.54-29.93-.98-57.24-17.53-78.5-37.51-2.41-2.26-4.37-7.27-8.03-7.97-46.49-.04-93-.03-139.48-.02Z"/>
  <path class="st0" d="M691,603c42.65,0,85.35,0,128.01,0-.14,6.98.18,14.03,0,21.01-.04,1.66.05,3.34,0,5,0,.13-.99,1.13-1.04,2.42-.25,6.84.27,13.75.04,20.58-41.94,1.84-84.75.98-127,1v-17c3.14,0,5.73-1.04,8.46-1.04,29.51-.04,59.09.59,88.56-.53v-10.43c-32.33,0-64.7,0-97.02,0v-21Z"/>
  <polygon class="st10" points="879 804 878 804 878 801 879 804"/>
  <path class="st9" d="M617,544c0,9.63.42,19.4-.49,29.01l-32.51,14.99h214l-32.51-14.99c-.91-7.93-.49-16.05-.49-24.01,21.93,23.16,51.53,39.39,84.3,30.75,1.46-.38,2.33-1.63,2.7-1.75,2.98-.97,5.27-1.05,8.86-2.64,4.89-2.17,14.63-9.46,17.66-10.34,1.96-.57,1.74,1.08,1.43,2.43-4.78,20.71-25.37,46.91-45.95,53.56-4.65,1.5-10.18,1.94-15,3,.18-6.98-.14-14.02,0-21.01-42.65,0-85.35,0-128.01,0h-128.01c-.02,6.98.04,14.01,0,21-25.71-2.84-45.46-21.32-56-44-.91-1.96-5.64-14.32-4.99-15,2.77.99,6.43,2.64,8.99,4,.66.35,1.36.66,2,1,1.56.84,2.42,1.23,4,2,21.46,10.51,33.68,13.94,58,6,10.49-3.42,34.74-17.98,40.06-27.44,1.39-2.47.25-4.77,1.94-6.56Z"/>
  <path class="st6" d="M995,514c-22.47,14.95-46.48,28.24-73,35-6.08-11.77-12.77-24.02-19-36l92,1Z"/>
  <rect class="st6" x="169" y="169" width="170" height="170"/>
  <path class="st1" d="M341,452v-111h170v170h-170v-48c.93-1.13,4.86-5.27,4.93-5.64.34-1.95-3.77-4.16-4.93-5.36Z"/>
  <path class="st1" d="M511,169v170h-170v-168.5c0-.11,1.39-1.5,1.5-1.5h168.5ZM381.71,266.11c-1.14.3-11.46,9.72-11.65,10.48-.62,2.48,9.87,12.4,12.45,12.42,1.51,0,11.53-9.89,11.52-11.51-1.37-3.31-8.82-12.3-12.32-11.39Z"/>
  <path class="st1" d="M169,395v-54h170v109c-5.47.57-9.01,7.27-12.93,10.64-.2,1.15,6.59,8.01,7.63,8.26.8.19,5.09-1.68,5.29-1.9v44h-170v-99c.18.19,1.71.23,2.49.97,2.39,2.27,7.08,8.6,10.54,7.63s14.52-13.68,16.83-17.28c.11-1.2-15.22-16.81-16.57-17.18-3.7-1.03-8.07,5.35-10.79,7.89-.8.75-2.32.79-2.49.97Z"/>
  <path class="st6" d="M537,341c1.39,1.26,5.13,4.92,6.55,5.05,3.44.33,4.57-3.37,6.45-5.05h129c-.07,3.03,1.27,8.99-2,8-2.97,0-8.73.67-12,1l-.5-.98-.5.98c-.44,4.04.62,9.15,0,13-.47,2.94-3.87,5.47-5.99,7.51-16.28,15.74-41.42,34.42-63.25,40.75-15.52,4.5-28.59,3.45-43.74-1.77,13.13,22.28,29.59,29.9,54.98,30.51.39,2.28-.54,14.47,0,15.01.39.39,8.32-.29,10.01-.01-1.12,15.95,1.47,33.81.02,49.53-.16,1.77-.33,3.44-2.02,4.48-.67.02-1.33-.01-2,0-.33,0-.67,0-1,0-3.98.08-8.49,1.94-11,2-28.95.69-58.04-.51-87,0v-170h24Z"/>
  <path class="st1" d="M342,558l-1-45h170v56c-2.57-1.36-6.23-3.01-8.99-4-.64.67,4.08,13.04,4.99,15-38.06,31.16-79.59,53.71-128.64,61.86-2.22.37-12.79.79-13.36,1.14l-19-41h45l-33.01-77c-2.6-.46-1.54.37-2.08,1.42-4.81,9.45-9.48,21.59-13.91,31.58Z"/>
  <path class="st13" d="M611,509l.5.98.5-.98c.67-.01,1.33.02,2,0,.8-.03,1.89.03,3,0,15.6-.48,31.38.1,47,0,5.65-.04,11.35.03,17,0,6.98-.03,14.02-.03,21,0,5.32.02,10.68-.03,16,0,15.64.07,31.37-.3,47,0,.33,0,.67,0,1,0,4.81.09,13.04-1.52,16,2v2c0,8.63.25,17.38,0,26-.03,1,.04,2.01,0,3-5.65.02-11.35-.04-17.01,0-49.24.29-98.78.84-148,0-3.03-.05-14.58.59-16.06-.44-1.64-1.14-.88-8.1-.94-10.56-.06-2.66,0-5.34,0-8,0-3.33,0-6.67,0-10v-2c2.51-.06,7.02-1.92,11-2Z"/>
  <path class="st11" d="M342,558c4.43-9.99,9.1-22.13,13.91-31.58.54-1.05-.52-1.88,2.08-1.42l33.01,77h-45l19,41c-.09.06.25,1.35-.2,1.75-2.01,1.76-46.56.19-53.34.21-4.24,0-8.71,1.22-13.46.04.92-2.18,1.25-6.16,2-7.99.05-.13,1.29-.66,1.75-1.71,6.89-15.69,19.59-47.74,28.4-60.63,2.77-4.05.98,1.59,4.84,1.34,1.45-5.16,3.83-10.13,6.01-15,.47-1.05.63-2.16,1-3Z"/>
  <path class="st6" d="M600,513c0,3.33,0,6.67,0,10-30.51,10.14-58.39,28.63-83,49-1.58-.77-2.44-1.16-4-2v-57.01s87,0,87,0Z"/>
  <path class="st12" d="M339,450c.68.66,1.35,1.32,2,2,1.15,1.2,5.27,3.41,4.93,5.36-.06.37-4,4.5-4.93,5.64-1.33,1.62-1.85,3.83-2,4-.2.23-4.5,2.1-5.29,1.9-1.05-.26-7.83-7.12-7.63-8.26,3.92-3.36,7.46-10.06,12.93-10.64Z"/>
  <path class="st6" d="M703,341h151v170h-72c-2.96-3.52-11.19-1.91-16-2,1.46-6.54-1.91-52.09,0-54.01.45-.45,9.56.46,10.01.01.53-.53-.4-12.73,0-15.01,23.7.34,43.8-9.02,54.98-30.51-5.29.38-10.39,3.78-15.56,4.43-32.03,4-61.33-18.22-84.43-37.4-2.41-2-13.07-13.18-13.99-13.51,1.54-3.27,2.79-9.87,1-13-.28-.48-.34-.84-1-1-2.22-.55-9.15-.11-12,0-3.27.99-1.92-4.97-2-8Z"/>
  <path class="st6" d="M782,513h72.01s0,44,0,44c-24.86-1.94-48.88-9.15-72-18,.25-8.62,0-17.37,0-26Z"/>
  <path class="st7" d="M854,557c.66.05,1.34-.03,2,0,1.99.09,4.01-.06,6,0-3.52,6.81-6.14,14.32-10,21-.37.12-1.24,1.37-2.7,1.75-32.77,8.64-62.37-7.59-84.3-30.75v-7c5.65-.03,11.35.02,17.01,0,.04-1-.04-2,0-3,23.12,8.85,47.14,16.06,72,18Z"/>
  <path class="st14" d="M703,339c.01.67-.02,1.33,0,2,.08,3.03-1.27,8.99,2,8-9.49.36-18.77,0-28,0,3.27.99,1.93-4.97,2-8,.02-.67,0-1.33,0-2,.17-12.36.85-24.65,1-37,3.72.61,21.06-1.22,22.56.94,1.11,1.6.36,31.1.44,36.06Z"/>
  <path class="st1" d="M887,513c-4.5,8.46-9.51,16.82-14,25-.75-2.41-3.36-2.95-4.68-4.33-1.46-1.52-1.04-6.21-7.32-3.17-2.67,1.29-1.66,5.86-5,5.5,0-7.65,0-15.35,0-23.01h31.01Z"/>
  <path class="st6" d="M856,536c3.34.36,2.33-4.21,5-5.5,6.28-3.04,5.86,1.65,7.32,3.17,1.33,1.38,3.93,1.92,4.68,4.33-3.56,6.5-7.47,12.19-11,19-1.99-.06-4.01.09-6,0v-21Z"/>
  <path class="st15" d="M691,603v21c-32.31,0-64.74-.48-97.02.58v10.43c31.21.09,62.43-.1,93.64-.08,1.84,0,3.2,1.07,3.38,1.07v17c-42.63.02-85.38-.55-128,0,.03-9.65-.05-19.35,0-29,.03-6.99-.02-14.02,0-21.01h128.01Z"/>
  <path class="st12" d="M128,754c1.21.99,1.8,4.19,3.66,4.83,5.28,1.83,9.09-1.83,11.89-1.84,1.81,0,2.29,1.97,2.45,2.01v2c0,1-.02,2,0,3,.02,1.08-.19,4.83,0,5,.4.38,9.28.52,11.01,1-.91,5.87-4.36,13.27-9,16.99-.38.31-.69.8-1,1-8.04,5.29-12.72,2.97-20.55,2.96-3.35,0-5.82,1.3-9.83.93-10-.91-21.11-11.28-21.66-21.38-.11-2.11.05-1.31,1.5-1.52,1.8-.27,9.15.38,9.54.01.04-1.33-.04-2.67,0-4,.02-1,0-2,0-3v-2c.13-.08.11-1.98.96-2.55,3.51-2.38,11.21,6.21,13.04,4.54-2.61-4.15,4.17-3.98,5-8.99.96.12,2.27.4,3,1ZM136,760.01h-3.99c.19,3.97,2.48,3.18,3.99,0Z"/>
  <rect class="st1" x="669.01" y="317.01" width="1.99" height="2.99"/>
  <path class="st15" d="M691,668v48c-73.45,0-147.17.84-220.49-1.01l-3.51-1.98c15.34-.08,31.68-6.17,45.02-13.49,15.24-8.36,27.3-19.96,39.5-31.5l139.48-.02Z"/>
  <path class="st0" d="M691,668c46.48,0,92.99-.02,139.48.02,3.65.7,5.62,5.71,8.03,7.97,21.27,19.97,48.57,36.52,78.5,37.51,0,.88-13.7,2.45-15.47,2.54-67.85,3.51-141.99-.04-210.54-.04v-48Z"/>
  <path class="st9" d="M691,624c32.32,0,64.69,0,97.01,0v10.43c-29.45,1.13-59.03.49-88.54.53-2.74,0-5.33,1.04-8.46,1.04-.18,0-1.54-1.07-3.38-1.07-31.21-.02-62.43.17-93.62.08v-10.43c32.27-1.05,64.69-.58,97.01-.58Z"/>
  <path class="st0" d="M765,542v7c0,7.96-.42,16.08.49,24.01l32.51,14.99h-214l32.51-14.99c.91-9.61.49-19.38.49-29.01v-2c49.22.84,98.76.29,148,0ZM633,553.5c-.71,2.3,0,12.55,0,16,0,2.1,14.4,2.23,15.56.57,1.58-2.25-1.86-13.34-.56-17.07-3.14,1.26-13.98-2.81-15,.5ZM699,553h-15c1.04,2.5-2.99,18,.5,18h14.5v-18ZM749,553h-15v18h15v-18Z"/>
  <path class="st7" d="M600,523c0,2.66-.06,5.34,0,8l-25,47c-24.32,7.94-36.54,4.51-58-6,24.61-20.37,52.49-38.86,83-49Z"/>
  <path class="st3" d="M617,542v2c-1.69,1.8-.55,4.09-1.94,6.56-5.32,9.46-29.58,24.02-40.06,27.44l25-47c.05,2.46-.7,9.42.94,10.56,1.48,1.03,13.03.38,16.06.44Z"/>
  <path class="st12" d="M381.71,266.11c3.51-.92,10.95,8.07,12.32,11.39.01,1.62-10.01,11.52-11.52,11.51-2.58-.01-13.07-9.94-12.45-12.42.19-.76,10.5-10.18,11.65-10.48Z"/>
  <path class="st13" d="M664,363l15.99.49c-17.92,21.67-37.15,43.13-61.97,57.03l-18.02,7.47c30.32.02,60.68.01,90.99.01h90.99s-18.67-7.83-18.67-7.83c-24.25-14.43-44.13-35.06-61.33-57.17,2.9-.04,13.35-.59,15,0,.91.33,11.57,11.51,13.99,13.51,23.1,19.18,52.4,41.4,84.43,37.4,5.18-.65,10.27-4.05,15.56-4.43-11.17,21.49-31.28,30.85-54.98,30.51-56.55-.81-114.2,1.35-170,0-25.39-.61-41.85-8.23-54.98-30.51,15.15,5.23,28.22,6.27,43.74,1.77,21.84-6.33,46.97-25.01,63.25-40.75,2.12-2.04,5.51-4.58,5.99-7.51Z"/>
  <path class="st0" d="M677,349c9.23,0,18.51.36,28,0,2.85-.11,9.78-.55,12,0l1,1c1.79,3.13.54,9.73-1,13-1.65-.59-12.1-.04-15,0-3.66.05-7.35-.04-11.01,0v65.01c-30.31,0-60.67,0-90.99-.01l18.02-7.47c24.82-13.9,44.05-35.36,61.97-57.03l-15.99-.49c.62-3.85-.44-8.96,0-13,.33-.02.67.03,1,0,3.27-.33,9.03-1,12-1Z"/>
  <path class="st14" d="M776,440c-.39,2.28.54,14.47,0,15.01-.45.45-9.56-.47-10.01-.01-1.91,1.91,1.47,47.46,0,54.01-.33,0-.67,0-1,0v-54.01c-15.65-.02-31.35.04-47,0-17.98-.04-36.02-.04-54,0-15.65.04-31.35-.02-47.01,0v54.01c-1.11.03-2.19-.03-2.99,0,1.69-1.04,1.86-2.71,2.02-4.48,1.46-15.72-1.13-33.58-.02-49.53-1.69-.28-9.62.4-10.01.01-.53-.53.4-12.73,0-15.01,55.8,1.35,113.45-.81,170,0Z"/>
  <path class="st14" d="M611,509c.33,0,.67,0,1,0l-.5.98-.5-.98Z"/>
  <path class="st14" d="M665,350c-.33.03-.67-.02-1,0l.5-.98.5.98Z"/>
  <path class="st15" d="M664,455c.18,3.15-.27,6.39-.04,9.54.1,1.29,1.04,2.62,1.04,2.96v31c0,2.21-2.05,7.23-1,10.5-15.62.1-31.4-.48-47,0v-54.01c15.65-.02,31.35.04,47,0ZM648,471h-15v23h14.5c2.86,0,.51-7.67.46-9.46-.14-4.5.19-9.05.04-13.54Z"/>
  <path class="st15" d="M718,455c15.65.04,31.35-.02,47.01,0v54.01c-15.64-.3-31.37.07-47.01,0v-54ZM749,471h-15v23h15v-23Z"/>
  <path class="st0" d="M718,455v54c-5.32-.03-10.68.02-16,0-.98-10.9,1.3-23.92.05-34.55-.12-1.01-.46-3.45-1.55-3.45h-19.5v38c-5.65.03-11.35-.04-17,0-1.05-3.27,1-8.29,1-10.5v-31c0-.34-.94-1.67-1.04-2.96-.23-3.15.22-6.39.04-9.54,17.98-.04,36.02-.04,54,0Z"/>
  <path class="st14" d="M702,509c-6.98-.03-14.02-.03-21,0v-38h19.5c1.1,0,1.43,2.44,1.55,3.45,1.25,10.63-1.03,23.65-.05,34.55Z"/>
  <path class="st14" d="M718,350l-1-1c.66.16.72.52,1,1Z"/>
  <path class="st7" d="M106,765c-.03,1.33.04,2.68,0,4-.38.37-7.74-.28-9.54-.01-1.46.22-1.62-.59-1.5,1.52.55,10.1,11.66,20.47,21.66,21.38,4.01.37,6.48-.94,9.83-.93,7.82,0,12.51,2.32,20.55-2.96l37,9.01c1.46,1.63-4.59,5.1-5.69,5.8-22.56,14.16-71.7,13.45-95.17,1.57-34.08-17.25,1.32-37.48,22.87-39.37Z"/>
  <path class="st7" d="M146,764c11.57,1.65,26.5,4.33,35.93,11.57,6.48,4.98,1.32,4.71-3.92,5.95-9.81,2.32-20.02,4.11-30.01,5.48,4.64-3.72,8.09-11.13,9-16.99-1.72-.48-10.61-.62-11.01-1-.18-.17.03-3.92,0-5Z"/>
  <path class="st8" d="M192.99,801.01c1.56,1.52-5.02,4.95-5.98,5.51-28.15,16.56-85.98,15.94-114.7.67-11.11-5.91-22.27-17.98-10.32-29.19.56,2.84-2.23,4.34-2.78,6.7-2.64,11.28,9.42,18.56,18.11,22.48,29.1,13.13,78.32,12.71,107.06-1.31,1.52-.74,7.9-5.57,8.62-4.87Z"/>
  <path class="st8" d="M146,759c6.29,1.61,14.07,1.5,21.22,3.28,11.47,2.86,34.92,11.97,34.88,26.22,0,1.26-2.08,9.93-4.09,7.49-.5-.61,4.45-7.31-.55-14.95s-15.31-12.12-24.01-14.99-18.62-5.11-27.44-5.06v-2Z"/>
  <path class="st8" d="M106,760v2c-8.87.59-18.81,3.11-26.98,6.52-5.24,2.19-9.71,5.86-15.02,7.47,7.95-7.48,20.16-12.15,30.78-14.71,2.18-.53,10.74-.98,11.22-1.28Z"/>
  <path class="st11" d="M136,760.01c-1.52,3.18-3.81,3.97-3.99,0h3.99Z"/>
  <path class="st14" d="M633,553.5c1.03-3.32,11.87.75,15-.5-1.3,3.73,2.14,14.82.56,17.07-1.16,1.66-15.56,1.54-15.56-.57,0-3.45-.71-13.7,0-16Z"/>
  <path class="st14" d="M699,553v18h-14.5c-3.49,0,.54-15.5-.5-18h15Z"/>
  <rect class="st14" x="734" y="553" width="15" height="18"/>
  <path class="st15" d="M702,363c17.2,22.11,37.08,42.74,61.33,57.17l18.67,7.82h-90.99s0-65,0-65c3.66-.03,7.35.06,11.01,0Z"/>
  <path class="st14" d="M648,471c.14,4.49-.18,9.04-.04,13.54.06,1.79,2.4,9.46-.46,9.46h-14.5v-23h15Z"/>
  <rect class="st14" x="734" y="471" width="15" height="23"/>
</svg>