<?xml version="1.0" encoding="UTF-8"?>
<svg id="Layer_1" xmlns="http://www.w3.org/2000/svg" version="1.1" viewBox="0 0 1024 1024">
  <!-- Generator: Adobe Illustrator 29.8.4, SVG Export Plug-In . SVG Version: 2.1.1 Build 6)  -->
  <defs>
    <style>
      .st0 {
        fill: #deecf4;
      }

      .st1 {
        fill: #819f8a;
      }

      .st2 {
        fill: #b4bbc6;
      }

      .st3 {
        fill: #d0d6dc;
      }

      .st4 {
        fill: #c5e7db;
      }

      .st5 {
        fill: #9689b8;
      }

      .st6 {
        fill: #96baaa;
      }

      .st7 {
        fill: #b2bbc4;
      }

      .st8 {
        fill: #ded2ec;
      }

      .st9 {
        fill: #bdc5d0;
      }

      .st10 {
        fill: #9fa9b2;
      }

      .st11 {
        fill: #bac2cd;
      }

      .st12 {
        fill: #c4deeb;
      }

      .st13 {
        fill: #94bfe2;
      }

      .st14 {
        fill: #7faacc;
      }

      .st15 {
        fill: #b1a4cf;
      }
    </style>
  </defs>
  <path class="st13" d="M337,449c24.65-.08,49.35-.07,74,0,8.99.03,18.02-.02,27.01,0,.01,20.65-.04,41.35,0,62.01,0,.67,0,1.33,0,2,.07,49.32-.05,98.69,0,148.01,14.65-.09,29.35.1,44.01,0s28.44-.86,42.46-1.04c3.44-.04,21.28-.45,22.6.48.42.29.68.7.8,1.2l.14,362.36h-101c.89-7-1.23-16.88.03-23.47.21-1.1,1.73-3.53,2.47-3.53h19.5c-7.33-30.24-13.63-60.91-21.49-91.01-1.02-3.9-2.21-10.1-3.52-13.48-.49-1.25-.7-2.72-2.48-2.52l-25.51,107.01h21v27h-27l-.54-171.96-77.45-97.55c-29.98-.94-60.03-.44-90.01-.49-15.32-.03-30.68-.01-46,0v-191.01c1.65-.06,3.34.08,5,0,5.61-.25,11.37.02,17,0,9.32-.04,18.68.05,28,0,17.89-.09,39.95,1.35,57.54.04,2.24-.17,4.26-.89,6.46-1.04v-113c8.98-.02,18.02.03,27,0ZM371.81,477.23c-32.63,2.31-34.21,52.29-1.21,55.66,39.83,4.07,39.85-58.39,1.21-55.66ZM248,597h-19c-1.44,13.38-.83,26.62,0,40h19v-40ZM282,597h-20v41l20-1v-40ZM315,597h-20v39.5c0,3.34,17.27.38,20,.5v-40ZM458,726v-38.5c0-3.3-17.38.77-20-.5v40l20-1ZM491,686h-18.5c-.11,0-1.5,1.39-1.5,1.5v39.5h20v-41ZM524,687h-19v39h19c2.03-12.97.44-25.98,0-39ZM491,742h-18.5c-.11,0-1.5,1.39-1.5,1.5v39.5h20v-41ZM458,743h-20v40h20v-40ZM525,743h-20v40h20v-40Z"/>
  <path class="st0" d="M342,0v169h169V0h2v169h56c23.1-38.59,67.62-63.87,113.01-62.99V0s1.99,0,1.99,0l.44,105.06c.72,1.04,16.53,1.58,19.93,2.07,38.11,5.55,72.08,30.41,93.14,61.86h54.5V0h3v169.01s169,0,169,0v3h-169v168h169v2h-169.01s0,156,0,156c-.98-.69-2.01-1.32-3-2v-154h-80.5c-.78,0-9.91,8.29-12.19,9.81-22.58,15.11-47.84,24.17-75.32,24.18l-1,67.01c-.94-2.44-1.28-5.13-2-7l1-60.01-14-.99c-.21-21.31.15-42.69,0-64.01-33.65.03-67.35-.02-101.01,0-17.39-31.77-23.99-66.2-15.51-102.01,3.09-13.07,9.19-24.8,14.51-36.99h-53v139c-.67,0-1.33,0-2,0v-139h-169c-.62,8.78,1.29,18.52-1,27-.89-1.7-1.32-3.7-2-5,2.29-6.76.38-14.92,1.01-22.01h-13.01c-.54-1.03-.63-2.29-1-2.99h14.01s0-169,0-169h2ZM852,172h-52c1.45,6.8,6.16,13.12,8.76,19.74,14.12,35.98,11.48,77.91-6.59,111.93-7.17,13.5-17.14,24.94-27.17,36.33h77v-168Z"/>
  <path class="st4" d="M864,1024h-70c-1.41-23.55,1.88-49.24.04-72.54-3.71-46.9-68.57-46.85-72.07,0-1.75,23.38,1.39,48.93.04,72.54h-103l53.25-245.25,1.78-2.22c17.81-10.41,34.67-22.37,51.98-33.52,22.25-14.35,44.79-28.78,67-43,23.57-15.09,47.76-29.36,70.99-45v369ZM714,803h-16v33h16v-33ZM744,803h-17v33h17v-33ZM774,803h-16v33h16v-33ZM804,803h-16v33h16v-33ZM835,803h-17v33h17v-33ZM714,850h-16v33h16v-33ZM744,850h-17v33h17v-33ZM774,850h-16v33h16v-33ZM804,850h-16v33h16v-33ZM835,850h-17v33h17v-33Z"/>
  <path class="st15" d="M852,496c.99.68,2.02,1.31,3,2,6.23,4.41,12.91,8.66,19,13,1.32.94,2.62,2.02,4,3,23.06,16.44,45.62,33.74,69.02,49.7,0,39.42-.06,78.88-.02,118.3,0,.67,0,1.33,0,2,.06,56.32-.11,112.68,0,169,0,1,0,2,0,3,.08,37.73-1.68,77.55,0,115-2.89.6-1.83-1.43-2.28-3.17-4.11-15.75-7.87-31.61-11.61-47.45l-2.1-1.38-19.01,80h16v25h-64v-369c-23.24,15.64-47.43,29.91-71,45-.09-17.5.1-35.03.05-52.54-.04-14.65-.06-29.47-.05-44.46.03-49.32-.03-98.68,0-147.99l58.99,40.99ZM901,582h-17v35h17v-35ZM931,582h-18v34.5c0,2.98,15.41.97,18,.5v-35ZM901,632h-17v36h17v-36ZM931,632h-18v36h18v-36Z"/>
  <path class="st11" d="M511,311c.67,0,1.33,0,2,0,17.98-.09,36.02.01,54,0,33.65-.03,67.35.02,101.01,0,.15,21.32-.22,42.69,0,64.01.08,8.44-.58,17.71,0,26-2.31.5-2.15-1.13-2.84-2.61-7.1-15.31-11.48-34.05-19.07-48.97-.39-.76-.4-3.2-2.08-1.42-.29.31-1.56,6.46-2.26,8.25-25.22,64.32-51.07,128.41-76.26,192.74-.97,10.63-.39,21.36-.49,32.01-.12,12.98.05,26.02,0,39-.09,23.24.03,47.28,0,70-.02,12.99.01,26.01,0,39-.1,98.32.07,196.68,0,295h-17l-.14-362.36c-.12-.5-.38-.91-.8-1.2-1.32-.92-19.16-.52-22.6-.48-14.02.18-28.42.94-42.46,1.04v-150c0-56.31-.29-112.69,0-169,0-.67,0-1.33,0-2,.03-9.65-.02-19.35,0-29.01,9.65-.01,19.35.03,29.01,0ZM521,347h-20v40h20v-40ZM555,347h-20v40h20v-40ZM588,347h-20v40h20v-40ZM521,402h-20v40h21c.58-1.4-1-3-1-3.5v-36.5ZM555,402h-20v40h20v-40ZM588,402h-20v40h20v-40Z"/>
  <path class="st2" d="M105,754c30.31-.16,60.68.02,91,0,15.32-.01,30.68-.03,46,0v270h-48l.04-101.54c-6.4-43.53-68.12-42.18-72.07,2l.04,99.54h-48v-25c1.68-.55,14.95.81,15.02-.51-4.52-21.7-10.67-43.01-16.02-64.49,1.66-1.04,1-3.79,1.02-5.49.3-24.49-.02-49.04-.02-73.51v-2c0-32.99,0-66.02,0-99.01,10.32-.03,20.69.06,31.01,0ZM121,790h-17v31.5c0,.11,1.39,1.5,1.5,1.5h15.5v-33ZM151,790h-16v33h16v-33ZM182,790h-17v33h17v-33ZM212,790h-16v33h16v-33Z"/>
  <rect class="st12" x="342" width="169" height="169"/>
  <rect class="st12" x="855" y="0" width="169" height="169"/>
  <rect class="st12" x="0" y="0" width="169" height="169"/>
  <path class="st12" d="M1024,342v169h-150c-6.09-4.34-12.77-8.59-19-13v-156.01s169,0,169,0Z"/>
  <rect class="st12" x="855" y="172" width="169" height="168"/>
  <rect class="st12" y="172" width="169" height="168"/>
  <path class="st4" d="M410,1024h-53l.04-82.54c-3.98-39.22-58.88-39.27-62.07,1l.04,81.54h-53v-270c29.98.05,60.03-.45,90.01.49l77.45,97.55.54,171.96ZM383,852c-20.16-25.25-40.34-50.59-61.5-75h-57.5v75h119Z"/>
  <path class="st15" d="M726,729v14c-17.31,11.16-34.17,23.11-51.98,33.52l-1.78,2.22-53.25,245.25h-54c.07-98.32-.1-196.68,0-295h161Z"/>
  <path class="st12" d="M340,0v169.01s-14,0-14,0c-10.1-19.22-20.75-40.22-31.51-59.03-.62-1.08.11-2.43-1.98-1.98-9.94,21.11-21.71,41.35-32.51,62.01l-88.01-.99V0h168.01Z"/>
  <path class="st12" d="M0,342h169.01s0,101,0,101c-21.32.05-42.69-.03-64.01,0-.01,22.65.03,45.35,0,68.01H0v-169Z"/>
  <path class="st12" d="M682,0v106.01c-45.38-.88-89.9,24.4-113,62.99h-56V0h169Z"/>
  <path class="st12" d="M852,0v169h-54.5c-21.06-31.46-55.03-56.32-93.14-61.86-3.39-.49-19.2-1.03-19.93-2.07l-.44-105.06h168Z"/>
  <path class="st12" d="M105,513c-.06,56.32,0,112.68,0,169H0v-169h105Z"/>
  <path class="st12" d="M1024,513v169h-77c-.05-39.42.02-78.87.02-118.3-23.4-15.96-45.96-33.27-69.02-49.7l146-1Z"/>
  <path class="st12" d="M105,684v70c-10.32.05-20.69-.04-31.01,0,0,32.99,0,66.02,0,99.01H0v-169h105Z"/>
  <path class="st12" d="M1024,684v169h-77c-.11-56.32.06-112.68,0-169h77Z"/>
  <path class="st12" d="M1024,855v169h-37v-37h23l-28.5-116.01-27.5,116.01h22v37h-29v-25c1.13-.04,5.05.44,5.01-.51-2.57-9.52-4.57-17.62-5.01-27.49-1.68-37.45.08-77.27,0-115l77-1Z"/>
  <path class="st10" d="M194,1024h-72l-.04-99.54c3.95-44.18,65.68-45.52,72.07-2l-.04,101.54Z"/>
  <path class="st12" d="M74,855c0,24.48.32,49.03.02,73.51-.02,1.69.64,4.45-1.02,5.49-1.13-4.54-1.61-9.9-2.97-14.54-.43-1.46.58-1.74-2.02-1.47-.67,9.99-4.73,19.42-7.01,29l-18.99-75.99-28.01,115.99h23v37H0v-169h74Z"/>
  <path class="st10" d="M794,1024h-72c1.35-23.61-1.79-49.16-.04-72.54,3.51-46.84,68.37-46.89,72.07,0,1.84,23.3-1.45,48.99-.04,72.54Z"/>
  <path class="st10" d="M357,1024h-62l-.04-81.54c3.19-40.27,58.1-40.22,62.07-1l-.04,82.54Z"/>
  <polygon class="st6" points="976 1024 976 987 954 987 981.5 870.99 1010 987 987 987 987 1024 976 1024"/>
  <path class="st6" d="M61,947c-3.05,12.83-6.19,26.13-9,39-2.53-.13-4.44-.46-5,2.5-1.88,9.73,1.4,25.12,0,35.5h-10v-37H14l28.01-115.99,18.99,75.99Z"/>
  <path class="st6" d="M437,1024v-27h-21l25.51-107.01c1.77-.2,1.99,1.27,2.48,2.52,1.31,3.38,2.5,9.58,3.52,13.48,7.87,30.1,14.17,60.77,21.49,91.01h-19.5c-.75,0-2.26,2.43-2.47,3.53-1.26,6.59.87,16.47-.03,23.47h-10Z"/>
  <path class="st0" d="M172,0v169.01s88,.99,88,.99c-.34.65-.65,1.33-1,2h-87.01s-.07,161.62-.07,161.62c-.57,1.21,1.06,3.07,1.07,3.38.05.96-1.41,3.63-1,3.99l40,1.01h-40.01s0,101,0,101c-1,0-2,0-3,0v-101.01s-169,0-169,0v-2h169v-168H0v-3h169.01s0-169,0-169h3Z"/>
  <path class="st1" d="M928,1024v-25h-16l19.01-80,2.1,1.38c3.74,15.84,7.5,31.7,11.61,47.45.45,1.74-.61,3.76,2.28,3.17.44,9.87,2.45,17.97,5.01,27.49.04.95-3.88.47-5.01.51-3.65.13-7.35-.09-11.01,0v25.01s-7.99,0-7.99,0Z"/>
  <path class="st1" d="M61,947c2.28-9.58,6.34-19.01,7.01-29,2.6-.28,1.59,0,2.02,1.47,1.37,4.64,1.84,10,2.97,14.54,5.34,21.47,11.5,42.79,16.02,64.49-.06,1.32-13.34-.03-15.02.51-1.01.33-.9.43-1.03,1.45-.92,7.19.73,16.14.03,23.55h-7v-25h-16c.65-4.25,1.09-8.82,2-13,2.81-12.87,5.95-26.17,9-39Z"/>
  <path class="st12" d="M52,986c-.91,4.18-1.35,8.75-2,13h16v25h-19c1.4-10.38-1.88-25.77,0-35.5.57-2.95,2.47-2.62,5-2.5Z"/>
  <path class="st0" d="M1024,511v2l-146,1c-1.38-.98-2.68-2.06-4-3h150Z"/>
  <path class="st15" d="M947,999v25h-11v-25.01c3.65-.09,7.35.13,11,0Z"/>
  <path class="st0" d="M105,511c0,.67,0,1.33,0,2H0v-2h105Z"/>
  <rect class="st0" y="682" width="105" height="2"/>
  <path class="st0" d="M1024,853v2l-77,1c0-1,0-2,0-3h77Z"/>
  <path class="st0" d="M1024,682v2h-77c0-.67,0-1.33,0-2h77Z"/>
  <rect class="st0" y="853" width="74" height="2"/>
  <path class="st0" d="M74,1024h-1c.7-7.41-.94-16.36-.03-23.55.13-1.01.01-1.12,1.03-1.45v25Z"/>
  <path class="st9" d="M212,443c11.32.04,22.69-.02,34.01,0v120.01c-9.32.05-18.69-.04-28.01,0v-34h-17v34c-1.66.08-3.35-.07-5.01,0v191.01c-30.31.02-60.68-.16-90.99,0v-72c0-56.32-.06-112.68,0-169,0-.67,0-1.33,0-2,.03-22.65-.02-45.35,0-68.01,21.32-.03,42.69.05,64.01,0,1,0,2,0,3,0,13.41-.03,26.79-.04,40,0ZM150,481h-17v34h16l1-34ZM184,481h-17v34h17v-34ZM218,481h-17v34h17v-34ZM149,529h-16v34h17l-1-34ZM184,529h-17v34h17v-34Z"/>
  <path class="st7" d="M349,402c-4.17,15.6-9.27,31.03-12,47-8.98.03-18.02-.02-27,0v113c-2.21.15-4.22.88-6.46,1.04-17.59,1.31-39.65-.14-57.54-.04v-120.01c-11.31-.02-22.68.04-34,0v-41h137Z"/>
  <path class="st12" d="M482,342c-.29,56.31,0,112.69,0,169h-44c-.03-20.65.02-41.35,0-62.01-8.99-.01-18.02.03-27.01,0-9.23-36.11-19.25-72.04-29-108h1c.91,1.1,2.11,1,3.38,1.07,31.21,1.8,64.23-1.5,95.62-.07Z"/>
  <path class="st12" d="M482,513v148c-14.65.1-29.35-.08-44.01,0-.04-49.32.07-98.69,0-148.01h44Z"/>
  <path class="st14" d="M382,341c9.75,35.96,19.77,71.89,29,108-24.65-.07-49.35-.08-74,0,2.73-15.97,7.83-31.4,12-47,3.02-11.31,5.94-22.7,9-34,5.04-18.64,10.24-37.28,15.01-56,1.33.11,1.63,1.42,2.05,2.44,3.11,7.44,4.76,18.52,6.94,26.56Z"/>
  <path class="st12" d="M371.81,477.23c38.64-2.73,38.62,59.73-1.21,55.66-33.01-3.37-31.42-53.35,1.21-55.66Z"/>
  <path class="st12" d="M491,742v41h-20v-39.5c0-.11,1.39-1.5,1.5-1.5h18.5Z"/>
  <path class="st12" d="M491,686v41h-20v-39.5c0-.11,1.39-1.5,1.5-1.5h18.5Z"/>
  <polygon class="st12" points="282 597 282 637 262 638 262 597 282 597"/>
  <path class="st12" d="M315,597v40c-2.73-.12-20,2.84-20-.5v-39.5h20Z"/>
  <rect class="st12" x="505" y="743" width="20" height="40"/>
  <rect class="st12" x="438" y="743" width="20" height="40"/>
  <path class="st12" d="M458,726l-20,1v-40c2.62,1.27,20-2.8,20,.5v38.5Z"/>
  <path class="st12" d="M248,597v40h-19c-.83-13.38-1.44-26.62,0-40h19Z"/>
  <path class="st12" d="M524,687c.44,13.02,2.03,26.03,0,39h-19v-39h19Z"/>
  <path class="st4" d="M201,563v-34h17v34c-5.63.02-11.39-.25-17,0Z"/>
  <path class="st0" d="M482,511v2h-44c0-.67,0-1.33,0-2h44Z"/>
  <path class="st7" d="M260,170c10.8-20.66,22.57-40.9,32.51-62.01,2.08-.45,1.36.9,1.98,1.98,10.77,18.81,21.42,39.81,31.51,59.03.37.71.46,1.96,1,3,3.88,7.39,8.15,14.66,12,22,.68,1.3,1.11,3.3,2,5,23.61,44.98,50.02,91.07,71.84,136.66.87,1.82,1.47,3.23,1.16,5.34-10.31.25-20.69-.18-31,0h-1c-2.18-8.05-3.83-19.13-6.94-26.56-.42-1.01-.72-2.32-2.05-2.44-4.77,18.72-9.97,37.35-15.01,56h-146c-.03-8.65.02-17.35,0-26l-40-1.01c-.41-.36,1.05-3.03,1-3.99,1.71-.64,2.09-2.24,2.85-3.64,28.84-53.1,55.16-107.79,83.15-161.36.35-.67.66-1.35,1-2Z"/>
  <path class="st12" d="M683,443l1-67.01c27.48-.01,52.74-9.07,75.32-24.18,2.28-1.52,11.4-9.81,12.19-9.81h80.5v154l-58.99-40.99c-.03,49.32.03,98.68,0,147.99h-67c-.04-7.32.08-14.68,0-22-.1-8.67,1.12-21.2-.24-29.26s-11.26-29.68-14.76-38.74h79.52s1.48-1.99,1.48-1.99h-81.99c-8.42-21.73-17.6-43.27-26-65.01-.02-.05.45.16,0-1-.2-.52-.68-1.16-1-2Z"/>
  <path class="st12" d="M341,199c2.29-8.48.38-18.22,1-27h169v139c-9.65.03-19.35-.02-29.01,0-.01,9.65.03,19.35,0,29.01-20.82.34-41.72-.44-62.55-.04-2.04.04-3.96,1-5.45,1.04.31-2.1-.29-3.51-1.16-5.34-21.82-45.6-48.23-91.69-71.84-136.66Z"/>
  <path class="st15" d="M565,581c.1-10.65-.48-21.38.49-32.01,25.19-64.33,51.03-128.42,76.26-192.74.7-1.79,1.97-7.94,2.26-8.25,1.69-1.78,1.69.66,2.08,1.42,7.59,14.92,11.97,33.66,19.07,48.97.69,1.48.53,3.11,2.84,2.61.85,12.09,8.77,24,13,35,.72,1.87,1.06,4.56,2,7,.32.84.8,1.48,1,2v1c8.4,21.73,17.58,43.28,26,65,.31.79.78,1.44,1,2,3.5,9.06,13.44,30.89,14.76,38.74s.14,20.59.24,29.26h-161ZM639.74,497.24c-9.23,1.48-20.37,11.95-21.65,21.35-4.3,31.39,32.53,46.27,49.74,21.74,14.24-20.29-3.55-47.02-28.08-43.08Z"/>
  <path class="st12" d="M852,172v168h-77c10.03-11.39,20-22.82,27.17-36.33,18.08-34.03,20.71-75.95,6.59-111.93-2.6-6.62-7.31-12.94-8.76-19.74h52Z"/>
  <path class="st12" d="M513,311v-139h53c-5.32,12.18-11.42,23.92-14.51,36.99-8.48,35.81-1.87,70.24,15.51,102.01-17.98.01-36.02-.09-54,0Z"/>
  <path class="st12" d="M668,375l14,.99-1,60.01c-4.23-11-12.15-22.91-13-35-.58-8.29.08-17.56,0-26Z"/>
  <path class="st12" d="M327,172h13.01c-.62,7.08,1.29,15.24-1.01,22-3.85-7.34-8.12-14.61-12-22Z"/>
  <path class="st11" d="M793,603c-.01,14.99,0,29.81.05,44.46.05,17.51-.14,35.04-.05,52.54-22.21,14.22-44.75,28.65-67,43v-53c0-23.32.09-46.68,0-70-.02-5.65.03-11.35,0-17h67Z"/>
  <rect class="st2" x="727" y="803" width="17" height="33"/>
  <rect class="st2" x="818" y="803" width="17" height="33"/>
  <rect class="st2" x="727" y="850" width="17" height="33"/>
  <rect class="st2" x="818" y="850" width="17" height="33"/>
  <rect class="st2" x="758" y="850" width="16" height="33"/>
  <rect class="st2" x="698" y="803" width="16" height="33"/>
  <rect class="st2" x="758" y="803" width="16" height="33"/>
  <rect class="st2" x="788" y="803" width="16" height="33"/>
  <rect class="st2" x="698" y="850" width="16" height="33"/>
  <rect class="st2" x="788" y="850" width="16" height="33"/>
  <rect class="st8" x="913" y="632" width="18" height="36"/>
  <path class="st8" d="M931,582v35c-2.59.47-18,2.48-18-.5v-34.5h18Z"/>
  <rect class="st8" x="884" y="632" width="17" height="36"/>
  <rect class="st8" x="884" y="582" width="17" height="35"/>
  <path class="st15" d="M726,620c.09,23.32,0,46.68,0,70h-161c.03-22.72-.09-46.76,0-70h161Z"/>
  <path class="st5" d="M726,690v39h-161c.01-12.99-.02-26.01,0-39h161Z"/>
  <path class="st5" d="M726,581c.08,7.32-.04,14.68,0,22,.03,5.65-.02,11.35,0,17h-161c.05-12.98-.12-26.02,0-39h161Z"/>
  <path class="st3" d="M521,402v36.5c0,.5,1.58,2.1,1,3.5h-21v-40h20Z"/>
  <rect class="st3" x="568" y="347" width="20" height="40"/>
  <rect class="st3" x="535" y="347" width="20" height="40"/>
  <rect class="st3" x="535" y="402" width="20" height="40"/>
  <rect class="st3" x="501" y="347" width="20" height="40"/>
  <rect class="st3" x="568" y="402" width="20" height="40"/>
  <path class="st0" d="M482,340c0,.67,0,1.33,0,2-31.39-1.42-64.41,1.87-95.62.07-1.27-.07-2.47.02-3.38-1.07,10.31-.18,20.69.25,31,0,1.49-.04,3.41-1,5.45-1.04,20.83-.4,41.73.38,62.55.04Z"/>
  <rect class="st4" x="165" y="790" width="17" height="33"/>
  <path class="st4" d="M121,790v33h-15.5c-.11,0-1.5-1.39-1.5-1.5v-31.5h17Z"/>
  <rect class="st4" x="135" y="790" width="16" height="33"/>
  <rect class="st4" x="196" y="790" width="16" height="33"/>
  <path class="st10" d="M383,852h-119v-75h57.5c21.16,24.41,41.34,49.75,61.5,75Z"/>
  <path class="st12" d="M259,172c-27.99,53.56-54.31,108.25-83.15,161.36-.76,1.4-1.15,3.01-2.85,3.64-.02-.31-1.64-2.17-1.07-3.38l.07-161.62h87.01Z"/>
  <path class="st12" d="M212,342c.02,8.65-.03,17.35,0,26,.04,11.32,0,22.68,0,34v41c-13.21-.04-26.59-.03-40,0v-101.01s40,0,40,0Z"/>
  <rect class="st4" x="167" y="529" width="17" height="34"/>
  <rect class="st4" x="167" y="481" width="17" height="34"/>
  <rect class="st4" x="201" y="481" width="17" height="34"/>
  <polygon class="st4" points="149 529 150 563 133 563 133 529 149 529"/>
  <polygon class="st4" points="150 481 149 515 133 515 133 481 150 481"/>
  <path class="st9" d="M358,368c-3.06,11.3-5.98,22.69-9,34h-137c0-11.32.04-22.68,0-34h146Z"/>
  <path class="st0" d="M710,511h81.99s-1.48,2-1.48,2h-79.52c-.22-.56-.69-1.21-1-2Z"/>
  <path class="st0" d="M684,446v-1c.45,1.16-.02.95,0,1Z"/>
  <path class="st8" d="M639.74,497.24c24.54-3.93,42.32,22.8,28.08,43.08-17.21,24.53-54.04,9.65-49.74-21.74,1.29-9.4,12.43-19.87,21.65-21.35Z"/>
</svg>