<?xml version="1.0" encoding="UTF-8"?>
<svg id="Layer_1" xmlns="http://www.w3.org/2000/svg" version="1.1" viewBox="0 0 1024 1024">
  <!-- Generator: Adobe Illustrator 29.8.4, SVG Export Plug-In . SVG Version: 2.1.1 Build 6)  -->
  <defs>
    <style>
      .st0 {
        fill: #dcebf1;
      }

      .st1 {
        fill: #eee7d4;
      }

      .st2 {
        fill: #9bc6d1;
      }

      .st3 {
        fill: #a4bb8e;
      }

      .st4 {
        fill: #cee7ec;
      }

      .st5 {
        fill: #91ae84;
      }

      .st6 {
        fill: #a8cbd3;
      }

      .st7 {
        fill: #e1d3bc;
      }

      .st8 {
        fill: #badbe3;
      }

      .st9 {
        fill: #c38370;
      }

      .st10 {
        fill: #f6e8b0;
      }

      .st11 {
        fill: #dbf3f6;
      }

      .st12 {
        fill: #7e8f6d;
      }

      .st13 {
        fill: #91a276;
      }

      .st14 {
        fill: #607962;
      }

      .st15 {
        fill: #badbe2;
      }
    </style>
  </defs>
  <path class="st9" d="M304,897h720v127H0v-127h304Z"/>
  <path class="st11" d="M51,205c3.96.87,8.1,1.14,12,2,12.98,2.87,25.99,6.11,39,9,.32.07.68-.07,1,0,16.63,3.69,33.37,7.31,50,11,.36.08,1.1.8,2,1,16.33,3.62,32.68,7.37,49,11,.6.13,1.4-.13,2,0,16.32,3.63,32.67,7.36,49,11,.6.13,1.4-.13,2,0,7.97,1.78,15.97,4.22,24,6l27,6c16.65,3.7,33.35,7.3,50,11,.32.07.68-.07,1,0,16.62,3.69,33.4,7.32,50,11,.36.08,1.1.8,2,1,16.32,3.62,32.66,7.43,49,11,.6.13,1.4-.13,2,0,16.3,3.55,32.34,8.86,49,11,3.29.42,5.42.84,9,1-.59,3.09,1.52,1.71,3.33,2.12,12.89,2.94,25.78,6.02,38.67,8.88.6.13,1.4-.13,2,0,16.62,3.69,33.42,7.17,50,11,.32.07.68-.07,1,0,7.14,1.65,14.29,5.32,21.99,5.01l-.42,38.06c-1.28,1.77-18.19,2.3-21.57,3.93-.34.16-.64.74-1,1-16.79,1.03-33.42,5.21-50,8-.63.11-1.37-.11-2,0-16.34,2.76-32.75,6.26-49,9-.63.11-1.37-.11-2,0-16.31,2.75-32.69,5.24-49,8-.63.11-1.37-.11-2,0-7.21,1.21-14.51,2.46-21.7,3.86-1.85.36-3.89-.86-3.3,2.14h-10c-4.2.13-9.88,2.41-14,3-.64.09-1.36-.09-2,0-16.79,2.42-33.33,6.25-50,9-.32.05-.68-.05-1,0-16.64,2.74-33.36,5.23-50,8-.3.05-.73.96-1,1-16.57,2.76-33.38,5.22-50,8-.63.11-1.37-.11-2,0-16.31,2.73-32.7,5.25-49,8-.93.16-1.71.95-2,1-16.3,2.75-32.7,5.25-49,8-12.31,2.07-24.7,3.92-37,6-5.01.84-10.06,2.17-15,3-.32.05-.68-.05-1,0-16.67,2.82-33.5,6.21-50,9-.63.11-1.37-.11-2,0-16.61,2.81-33.5,4.5-50,8V194c17.13,2.99,34.03,7.26,51,11Z"/>
  <path class="st13" d="M256,730c.33.02.67-.02,1,0,16.09.92,33.67,2.38,50,4,.33.03.67-.03,1,0,15.93,1.61,34.02,3.65,50,6,.33.05.67-.05,1,0,5.35.79,12.89,2.96,19,4,79.56,13.55,157.74,36.44,231,70-14,6.34-23.94,12.9-40,17.5-36.63,10.48-70.59,6.6-107.49,10.51-50.16,5.31-105.88,21.64-148.81,48.19-2.97,1.84-6.71,3.88-8.69,6.81H1l-1-2v-151l50-6c.02.15.75.77.93,1.6.96,4.38-2.08,4.89,5.07,4.4.02.83.04,1.66.03,2.5-.14,7.17-9.24,29.65-7.92,33.84.17.54,1.05,1.66,1.38,1.66h57.5c-.55-5.06-10.95-36.09-9.01-38h5.01c.14-4.12-1.19-8.04-2-12h16c-.92,3.4-1.67,8.13,1.02,10.37l-8.03,37.12,7.03.03-10.01,39.49h64l-10-40c4.05-1.79,6.16,1.91,7.44,2.08,4.25.56,12.34.78,17.03.96,13.57.53,27-1.26,40.54-1.05-1.05-4.43-10.17-34.54-8.95-35.95.35-.41,4.63-.15,5.01-1.71s-1.57-11.69-2.06-14.34c11.93.85,24.09.33,36,1Z"/>
  <path class="st3" d="M834,764c-.26,1.04.14,2.73-.24,4.21-1.86,7.26-4.59,14.35-5.76,21.79h59c-1.92-8.01-3.96-16.03-6-24,7.71-.3,15.39.91,23,2-2.03,7.42-5,14.57-7,22h52c-1.6-5.33-3.25-10.72-5-16,27.26,4.69,53.71,12.72,80,21v102H304c1.98-2.93,5.72-4.97,8.69-6.81,42.94-26.54,98.65-42.88,148.81-48.19,36.9-3.91,70.87-.03,107.49-10.51,16.07-4.6,26-11.16,40-17.5,7.53-3.41,15.6-6.82,23.32-10.18,63.16-27.49,132.79-39.38,201.68-39.82Z"/>
  <path class="st11" d="M1024,269v163c-16.82-2.53-33.37-6.59-50-10-.61-.12-1.39.12-2,0-16.34-3.34-32.61-6.83-49-10-.61-.12-1.39.12-2,0-1.75-.34-4.5-2.48-7-2h-1c-1.58-.96-1.47-.67-3-1-2.1-.45-4.75-.5-7-1-10.65-2.38-21.3-4.79-32-7-.32-.07-.68.07-1,0-16.63-3.44-33.37-6.56-50-10-.34-.07-1.09-.81-2-1-16.31-3.37-32.69-6.61-49-10-.61-.13-1.39.13-2,0-12.62-2.63-25.19-5.82-37.9-8.1-.22-4.28-.1-8.61-.1-12.9,0-.33,0-.67,0-1,.11-7.79.98-15.21.1-22.91,12.8-2.19,25.29-6.24,37.9-9.09.6-.13,1.4.13,2,0,16.32-3.69,32.69-7.33,49-11,.6-.13,1.4.13,2,0,8-1.8,16.03-4.21,24-6,3.62-.81,7.36-1.18,11-2,5.03-1.13,10.07-2.89,15-4,.32-.07.68.07,1,0,16.63-3.74,33.36-7.26,50-11,.32-.07.72-.94,1-1,16.45-3.7,33.42-7.28,50-11,.6-.13,1.4.13,2,0,16.63-3.74,33.41-7.04,50-11Z"/>
  <path class="st12" d="M914,649c5.56.32,12.4,1.6,18,2,16.69,1.18,33.64,2.74,50,3,.74.01,2.76,1.74,4.55,1.95,12.48,1.4,24.97,2.79,37.45,4.05v135c-26.29-8.28-52.74-16.31-80-21-1-3.02-3.67-6.23-3-10h5s-22-85.01-22-85.01c-2.64-.29-1.58.06-2.01,1.48-8.32,27.43-14.19,55.97-21.98,83.52h4.99c.45,1.65-.66,2.79-1,4.01-7.61-1.09-15.29-2.3-23-2-1.05-4.11-3.25-8.43-3-13l6.02-.52c-7.73-34.67-13.9-69.69-21.01-104.49,2.66-.08,5.35.11,8,0,.27-.01.79-1,1-1,.33,0,.67,0,1,0,12.07.06,28.38,1.27,41,2Z"/>
  <path class="st6" d="M52,0v50.01c16.71.12,33.39.34,50,0V0s1,0,1,0v50.01s49.99.99,49.99.99V0h1.01v50h50V0h2v50h49l1-50h1v50h50V0h1v50.01c16.65.31,33.5-.86,50,1V0s1,0,1,0v50h50V0h1l1,50h49V0h2v50h49V0h2v50h49l1-50h1v50h48.5c.54,0,1.6-1.7,1.55-2.53l-.05-47.47h1v50h50V0h1v50h50V0h1l1,50h49V0h2v50h49l1-50h1v50h50V0h1v51h50V0h1v50h50V0h2v50.01s50,0,50,0v2h-50v50h50v1h-50v50h50v2h-50v49h50v2h-50v49h50v2h-50.01s0,23,0,23c-.6.13-1.4-.13-2,0v-23h-50v34c-.28.06-.68.93-1,1v-35h-50v46c-.32.07-.68-.07-1,0v-46h-50v49l35,1c-3.64.82-7.38,1.19-11,2-7.45-2.29-16.24-.38-24.01-1.01v7.01c-.59.13-1.4-.13-1.99,0v-7.01s-49.01,0-49.01,0v18.01c-.59.13-1.4-.13-1.99,0v-18.01s-38,0-38,0c.04-.54.99-1.5,1-2h37v-49h-49v39c-.67-.01-1.33.02-2,0v-39h-50v39c-.33,0-.67,0-1,0v-39h-50v50h22c0,.33-.02.67,0,1h-22.01s0,22,0,22c-.32-.07-.68.07-1,0v-22h-50c-.55,0,.4,9.66,0,11-.6-.13-1.4.13-2,0v-11.01c-13.95-.44-28.06.61-42,0-3.58-.16-5.71-.58-9-1v-50h-49v39c-.6-.13-1.4.13-2,0v-39h-49v28c-.9-.2-1.64-.92-2-1v-27h-50v16c-.32-.07-.68.07-1,0v-16.01s-49.42-.01-49.42-.01l-.58,5.02-27-6c8.14-2.29,17.56-.38,26-1v-49h-50v44c-.6-.13-1.4.13-2,0v-44h-49v33c-.6-.13-1.4.13-2,0v-33h-49c.36,7.45-1.06,14.64,0,22-.9-.2-1.64-.92-2-1v-21h-50c-.5,0,.36,8.73,0,10-.32-.07-.68.07-1,0v-10.01s-39,1.01-39,1.01c-3.9-.86-8.04-1.13-12-2l-.05-49.95-50.95-1.05v-1h51v-50H0v-1h51v-50H1l12.47-2.05c4.95.12,9.08,1.25,14.01-.04l22.55.67.97-50.58h1ZM102,52h-50v50h50v-50ZM153,52h-50v50h50v-50ZM204,52h-49l-1,50h50v-50ZM255,52h-49v50h49v-50ZM307,52h-50v50h50v-50ZM358,52h-50v50h50v-50ZM409,59v-7.01s-50.01,0-50.01,0v50.01s7.01,0,7.01,0c-.18.4-.88.71-1,1h-6.01c.61,5.73-1.28,12.64,1.01,18-.83,4.16-1.42,7.68-1,12,0-.18-1.06-1.55-1.07-3.38-.07-8.87.2-17.76.07-26.62h-50v50h50c.21-3.83-.28-7.75-.04-11.58.08-1.3,1.04-2.29,1.04-2.42-1.06,5.04,1.06,9.42,2,14,.12.61-.13,1.41,0,2l-2.02.59.02,48.41c10.65-.06,21.35.06,32.01,0,1,0,2,0,3,0v1c-.18,0-1.51,1.09-3.38,1.07-10.54-.1-21.09-.07-31.62-.07v49h50v-41h1c.17.68.5.72,1,1v40h49c-.07-11.32.1-22.68,0-34,.63-.1,1.35.06,2,0v34h49v-49c-3.42-.3-7.26.41-10.6.05-1.47-.16-2.27-1.04-2.4-1.05,3.34-1.85,6.01-6.08,10-6,.18.34,2.6,1.47,3.37,2.16,2.52,2.24.45,2.4,4.63,2.84l-3.07,2.55.07,48.45h49v-32c.66.01,1.34.02,2,0v32h50l-1-51c.33,0,.67,0,1,0,16.98.02,34.02-.01,51,0v-50h-21c.06-.32-.05-.67,0-1h21v-50h-25c-.11-.27-.82-.59-1-1h26v-50h-50c-.6,5.73,1.28,12.64-1,18l-1-2,1.01-16.01c-10.99-.03-22.02.06-33.01,0-5.65-.03-11.35.01-17,0-.33,0-.67,0-1,0-5.65.01-11.35-.03-17,0-10.99.05-22.02-.04-33.01,0v17.01c-.13.1-.76.97-1.99,2v-19.01s-46,1.01-46,1.01c-.88-.18-2.06.14-3,0-.64-.09-1.35.07-2,0-10.91-1.21-21.85-1.08-33-1-5.66.04-11.35-.03-17.01,0v6.01c-.27.11-.58.81-.99,1ZM716,52h-50v50h50v-50ZM767,52h-49v50h49v-50ZM818,52h-49v50h49v-50ZM870,52h-50v50h50v-50ZM921,52h-50v50h50v-50ZM972,52h-50v50h50v-50ZM102,103h-50v50h50v-50ZM153,103h-50v50h50v-50ZM204,103h-48.5c-.54,0-1.6,1.69-1.56,2.52l.06,47.48h50v-50ZM255,103h-49v50h49v-50ZM307,103h-50v50h50v-50ZM716,103h-50v50h50v-50ZM767,103h-49v50h49v-50ZM818,103h-49v50h49v-50ZM870,103h-50v50h50v-50ZM921,103h-50v50h50v-50ZM972,103h-50v50h50v-50ZM102,154l-50,1v49h50v-50ZM153,154h-50v50h50v-50ZM358,204v-48.5c0-.54-1.7-1.6-2.53-1.55l-47.47.05v50h50ZM921,154h-50v50h50v-50ZM972,154h-48.5c-.11,0-1.5,1.39-1.5,1.5v48.5h50v-50ZM204,155h-49v49h49v-49ZM255,155h-49v49h49v-49ZM307,155h-50v49h50v-49ZM716,155h-50v49h50v-49ZM767,155h-49v49h49v-49ZM818,155h-49v49h49v-49ZM870,155h-50v49h50v-49ZM358,206h-50v49h50v-49ZM665,206h-50v49h50v-49ZM716,206h-50v49h50v-49ZM767,206h-49v49h49v-49ZM818,206h-49v49h49v-49ZM870,206h-50v49h50v-49ZM921,206h-50v49h50v-49ZM972,206h-50v49h50v-49ZM563,257h-50v49h49l1-49ZM614,257h-50v49h49l1-49ZM818,257h-49v49h49v-49Z"/>
  <path class="st6" d="M615,377v32.01s10,0,10,0c0,.33,0,.67,0,1-1.27.36-10-.5-10,0v50h28c-.08.65.07,1.35,0,2h-28v49h23c-.08.65.08,1.35,0,2h-23v49h17c-.08.65.07,1.35,0,2h-17v50c0,.5,8.73-.36,10,0-.04.33.04.67,0,1h-10.01c.78,9.91-1.04,21.28,0,31-.38-.22-.71-.89-1-1v-30.01s-17,0-17,0v-1c2.76.29,13.16.55,15.31.04.6-.14,1.69-2.2,1.69-2.54v-47.5h-50c-.04-.66.06-1.34,0-2h50v-49h-50c-.56,5.14,1.25,11.42-1,16v-16h-50v17c-.67,0-1.33,0-2,0v-17h-49v49h29c-.12.61.12,1.39,0,2h-29v50h17c-.07.32.07.68,0,1h-17.01s0,50.01,0,50.01h7.01c-.07.31.07.68,0,.99h-7.01c.63,9.82-1.29,20.44,1.01,30-.27,1.48-.31,2.51-2,3,0-.18-1.07-1.55-1.07-3.38,0-9.87.15-19.76.07-29.62h-49c-.13,20.68.56,41.39-1.01,61.99-1.75.23-.94-2.26-.99-3.48-.11-2.5.08-5.02,0-7.51-1.08-.38-2.18,1-2.49,1h-47.5v22c-.33-.05-.67.05-1,0v-22h-50v16c-.33-.03-.67.03-1,0v-16h-50v12c-.33-.02-.67.02-1,0l-.99-12.01h-37.01c-.06-.31-.82-1.07-1-1.99h38v-50h-48c-.07-.32.07-.68,0-1h48v-50h-49l-1,39c-.31-1.5-1.54-3.81-2-6l1.01-33.01-6.01-.99h57v-50c0-.5-8.83.38-10,0,.9-3.67,9.25-1.22,10-1.98s-.56-18.06,0-21.01c1.2-.18,2.13-.82,3-1-2.19,6.88-.47,14.83-1,22h50v-49c-5.84,0-11.72-.03-17.57.04-1.27.01-2.29-1.04-2.43-1.04v-1h20.01s0-22,0-22c.3.09.68-.08,1,0v22h50v-49l-49.42-.02-.58,5.02c-.32.08-.69-.09-1,0l-.58-5.02h-49.43s0,28.02,0,28.02c-.59-.02-1.62-.13-2,0v-28h-49v36c-.62.28-1.4.67-2,1v-37h-49v49l36,1c-.1.25.06.65,0,1h-36v17h-2v-17h-50c1.35,14.96-1.78,32.95-.08,47.53.28,2.42,2.58,1.51,3.08,3.46l-3.07.56.07,49.46,49.46.06c2.16-7.72,2.39-.2,3.09,0,11.96.25,24.02-.56,35.97-.07,1.23.05,3.71-.76,3.49,1h-40l-1.01,50.01c10.51-.6,21.77,1.25,32.01-1.01-.12.61-.87,1.37-1,2h-38c0-2.16,6-.49,6-1v-50h-50v50h29c-.08.31.08.69,0,1h-29v50h19c-.32,1.19-.79,2.2-1,3-3.01-1.58-14.79-3.15-17.06-1.56l-1.94,13.56v-65h-14c-.06-.32.06-.68,0-1h14v-50h-24v-1c7.98-.03,16.02.02,24,0v-50h-50v50c7.98.02,16.02-.03,24,0v1h-24v50h14c-.06.32.06.68,0,1h-14.01c.81,15.88-1.07,32.77,0,48.53.19,2.85,2.47,1.04,4.01,1.47-.13.6.13,1.4,0,2-1.53.43-3.82-1.38-4.01,1.47-.35,5.13.27,10.4,0,15.53-.38.86.86,2.56-2,2-.47-6.58,1.39-12.5,1-19l-51-1v-1h51c-1.56-16.55-.89-33.32-1-50.01H0s0-.99,0-.99h50v-50H0v-1h50v-50H0v-2h50v-49H0v-2h50.01s0-38,0-38c.63-.11,1.37.11,2,0v38h50v-47c.32-.05.68.05,1,0v47h50v-49l-35-1c12.3-2.08,24.69-3.93,37-6l.58,5.02h48.43s0-13.02,0-13.02c.29-.05,1.07-.84,2-1v14h49v-22c.63-.11,1.37.11,2,0v22h50v-30c.27-.04.7-.95,1-1v31h50v-39c.32-.05.68.05,1,0v39h50v-48c.64-.09,1.36.09,2,0v48h49v-50c-10.53.07-21.08-.12-31.62.07-1.83.03-3.2-1.08-3.38-1.07h10c8.32,0,16.68,0,25.01,0v-6.01c.62-.11,1.37.11,1.99,0v6.01s49.01,0,49.01,0v-14.01c.62-.11,1.37.11,1.99,0v14h49v-23c.63-.11,1.37.11,2,0v23h50v-31c.36-.26.66-.84,1-1ZM511,410l-49,1v49h49v-50ZM614,410h-50v50h50v-50ZM562,411h-49v49h49v-49ZM409,462h-50v49h50v-49ZM460,462h-49v49h49v-49ZM511,462h-49v49h49v-49ZM562,462h-49v49h50l-1-49ZM614,462h-50v49h50v-49ZM102,513h-50v49h50v-49ZM358,528c-.05-4.99.03-10.01,0-15h-50v49h50c.02-7.65-.03-15.35,0-23,.92-.06,1.36.54,2,1-2.29,6.75-.39,14.92-1,22h50v-16c.66-.32,1.39-.61,2-1v17h49v-49h-49c-.45,0,.32,7.78,0,9-.78-.49-2.65-1.86-3-2l1-7h-50.01s1.01,14,1.01,14c-.62.65-.97,1.1-2,1ZM307,576v-12h-50v50c3.3-.19,6.72.26,10,0-.01.33,0,.67,0,1-3.28-.26-6.7.19-10,0v50h50v-25h1v25h50c.45,0-.72-9.01.5-9.01,1.23,1.11.05,9.01.5,9.01h50v-101h-50l-.5,10.01-.5-10.01h-50c.31,4.54.09,7.78-1,12ZM460,564h-49v50h49v-50ZM460,615h-49v50h49v-50ZM307,666h-50v50h50v-50ZM358,666h-50v50h50v-50ZM409,666h-50v50h50v-50Z"/>
  <path class="st8" d="M51,0l-.97,50.58-22.55-.67c-4.94,1.28-9.06.15-14.01.04l-12.47,2.05h50v50H0V0h51Z"/>
  <rect class="st8" x="871" width="50" height="51"/>
  <rect class="st8" y="103" width="51" height="50"/>
  <path class="st15" d="M0,666h50.01c.11,16.68-.56,33.45,1,50H0v-50Z"/>
  <path class="st8" d="M358,0v51c-16.5-1.86-33.35-.69-50.01-1V0h50.01Z"/>
  <polygon class="st8" points="153 0 152.99 51 102.99 50.01 103 0 153 0"/>
  <path class="st15" d="M102,0v50.01c-16.61.34-33.29.12-50,0V0h50Z"/>
  <rect class="st8" x="257" width="50" height="50"/>
  <rect class="st15" x="974" y="52" width="50" height="50"/>
  <rect class="st8" y="564" width="50" height="50"/>
  <rect class="st8" x="922" width="50" height="50"/>
  <rect class="st8" x="359" width="50" height="50"/>
  <rect class="st8" x="820" width="50" height="50"/>
  <rect class="st15" y="615" width="50" height="50"/>
  <rect class="st15" x="974" y="103" width="50" height="50"/>
  <rect class="st8" x="974" y="0" width="50" height="50"/>
  <rect class="st8" x="666" width="50" height="50"/>
  <rect class="st8" x="615" width="50" height="50"/>
  <rect class="st8" x="154" width="50" height="50"/>
  <path class="st8" d="M614,0l.05,47.47c.05.83-1.01,2.53-1.55,2.53h-48.5V0h50Z"/>
  <polygon class="st8" points="563 0 562 50 513 50 513 0 563 0"/>
  <polygon class="st8" points="767 0 767 50 718 50 717 0 767 0"/>
  <polygon class="st8" points="819 0 818 50 769 50 769 0 819 0"/>
  <polygon class="st8" points="460 0 460 50 411 50 410 0 460 0"/>
  <polygon class="st8" points="256 0 255 50 206 50 206 0 256 0"/>
  <rect class="st15" x="974" y="155" width="50" height="49"/>
  <rect class="st8" x="974" y="513" width="50" height="49"/>
  <rect class="st8" y="513" width="50" height="49"/>
  <rect class="st15" x="974" y="206" width="50" height="49"/>
  <rect class="st8" x="974" y="462" width="50" height="49"/>
  <rect class="st8" x="462" width="49" height="50"/>
  <path class="st15" d="M1024,564v50h-44c-2.15-10.84-7.13-25.22-7-36,0-.13.98-1.12,1.04-2.42.18-3.84-.2-7.75-.05-11.58h50.01Z"/>
  <path class="st8" d="M0,154l50.95,1.05.05,49.95c-16.97-3.74-33.87-8.01-51-11v-40Z"/>
  <path class="st15" d="M1024,615v45c-12.48-1.27-24.97-2.65-37.45-4.05-1.79-.2-3.81-1.93-4.55-1.95l-5.01-22.49,6.01-.52c-1.01-5.31-1.95-10.69-3-15.99h44Z"/>
  <path class="st8" d="M50,473v38.01s-50,0-50,0v-30c16.5-3.5,33.39-5.19,50-8Z"/>
  <path class="st8" d="M1024,432v28h-50.01s0-38,0-38c16.63,3.41,33.18,7.47,50,10Z"/>
  <path class="st15" d="M0,717l51,1c.38,6.51-1.47,12.43-1,19,.02.33-.04.67,0,1l-50,6v-27Z"/>
  <path class="st15" d="M1024,257v12c-16.59,3.96-33.37,7.26-50,11v-23.01s50,0,50,0Z"/>
  <path class="st6" d="M974,422v38.01s50,0,50,0v2h-50v49h50v2h-50v49h50v2h-50.01c-.16,3.83.23,7.74.05,11.58-.06,1.3-1.04,2.29-1.04,2.42-2.8-4.67-2.9-10.78-4-16,3.5.12,2.76.62,3-2.45,1.18-15-.88-31.41,0-46.55h-13.01c-.13-.6.13-1.39,0-1.99h13v-49c-11.98-.07-24.02.09-36,0-2.27-.02-4.6-1-5-1l41.01-.99v-38.01c.6.12,1.39-.12,1.99,0Z"/>
  <path class="st2" d="M1024,614v1h-44c-.06-.32.06-.68,0-1h44Z"/>
  <polygon class="st5" points="1 897 0 897 0 895 1 897"/>
  <path class="st15" d="M118,461l35,1v49h-50v-47c4.94-.83,9.99-2.16,15-3Z"/>
  <path class="st15" d="M425,409c.18,0,1.55,1.11,3.38,1.07,10.54-.2,21.09,0,31.62-.07v50h-49v-48c4.12-.59,9.8-2.87,14-3Z"/>
  <path class="st15" d="M637,308c.17,3.75,1.16,7.25,1,11.01,9.06.77,19.7-1.04,28.55-.06,2.27.25,3.47.34,3.45,3.05-29.23,11.27-27.68,55.2,2,64,.56,3.03-1.53,1.92-3.45,2-5.87.23-40.81-.82-42.61.44-1.62,1.13-.98,17.31-.94,20.56h-10.01s0-32,0-32c3.38-1.63,20.29-2.16,21.57-3.93l.42-38.06c-7.7.31-14.85-3.36-21.99-5.01v-22.01s22,0,22,0Z"/>
  <path class="st15" d="M462,296v-39h49v50c-16.66-2.14-32.7-7.45-49-11Z"/>
  <path class="st15" d="M409,412v48h-50v-39c16.67-2.75,33.21-6.58,50-9Z"/>
  <path class="st15" d="M102,464v47h-50v-38c16.5-2.79,33.33-6.18,50-9Z"/>
  <path class="st15" d="M257,250v-44h50v49c-8.44.62-17.86-1.29-26,1-8.03-1.78-16.03-4.22-24-6ZM283.64,214.07l-10.56,11.29c3.1,2.02,8.13,10.01,11.38,9.69,1.7-.17,10.71-9.06,10.48-10.41l-11.29-10.56Z"/>
  <path class="st8" d="M206,239v-33h49v44c-16.33-3.64-32.68-7.37-49-11Z"/>
  <path class="st15" d="M358,421v39h-50v-31c16.64-2.77,33.36-5.26,50-8Z"/>
  <path class="st15" d="M411,285v-28h49v39c-16.34-3.57-32.68-7.38-49-11Z"/>
  <path class="st15" d="M614,378v31h-50v-23c16.58-2.79,33.21-6.97,50-8Z"/>
  <path class="st8" d="M155,228c-1.06-7.36.36-14.55,0-22h49v33c-16.32-3.63-32.67-7.38-49-11Z"/>
  <path class="st15" d="M307,430v30h-50v-22c16.62-2.78,33.43-5.24,50-8Z"/>
  <path class="st15" d="M359,273v-16h50v27c-16.6-3.68-33.38-7.31-50-11Z"/>
  <path class="st8" d="M562,386v23h-49v-14c16.25-2.74,32.66-6.24,49-9Z"/>
  <path class="st15" d="M255,438v22h-49v-14c16.3-2.75,32.69-5.27,49-8Z"/>
  <path class="st8" d="M564,319c.4-1.34-.55-11,0-11h50v22c-16.58-3.83-33.38-7.31-50-11Z"/>
  <path class="st8" d="M103,216c.36-1.27-.5-10,0-10h50v21c-16.63-3.69-33.37-7.31-50-11Z"/>
  <path class="st8" d="M308,262l.58-5.02h49.43s0,16.02,0,16.02c-16.65-3.7-33.35-7.3-50-11Z"/>
  <path class="st15" d="M511,395v14.01s-49.01,0-49.01,0v-6.01c16.31-2.76,32.7-5.25,49.01-8Z"/>
  <path class="st15" d="M204,447v13.01s-48.42.01-48.42.01l-.58-5.02c16.3-2.75,32.7-5.25,49-8Z"/>
  <path class="st8" d="M520,308c13.94.61,28.05-.44,42.01,0v11.01c-12.9-2.86-25.79-5.94-38.68-8.88-1.81-.41-3.92.97-3.33-2.12Z"/>
  <path class="st8" d="M63,207l39.01-1.01v10.01c-13.01-2.89-26.02-6.13-39.01-9Z"/>
  <path class="st8" d="M460,403v6.01c-8.32,0-16.68,0-25,0-.59-3,1.45-1.79,3.3-2.14,7.19-1.39,14.49-2.64,21.7-3.86Z"/>
  <path class="st12" d="M852,648c-7.11,34.87-14.08,69.99-20.01,105h5.01c1.42,1.37-2.6,9.4-3,11-68.89.44-138.52,12.33-201.68,39.82-7.72,3.36-15.8,6.77-23.32,10.18-73.26-33.56-151.44-56.45-231-70,3.91-3.01,9.72-5.24,14.32-7.18,15.24-6.43,31.19-13.14,46.68-18.82,6.52-2.39,13.42-4.73,20-7,52.05-17.94,106.1-30.85,160-42-.85,7.96-2.06,15.96-2.01,24.01,16.32.02,32.69-.04,49.01,0,11.32.03,22.68.02,34,0,16.65-.03,33.35.03,50,0-1.85-13.96-3.38-28-5-42,7.32-.16,14.69-.57,22-1,.66-.04,1.34.03,2,0,10.27-.52,21.14-1.77,31.46-2.04,17.15-.45,34.4.42,51.54.04Z"/>
  <path class="st14" d="M186,664c3.17-15.94,7.05-31.91,9-48,3.01-.48,1.6.74,2.02,2.43,2.37,9.55,3.93,19.88,5.97,29.57.46,2.19,1.69,4.5,2,6,.75,3.6,1.25,7.35,2,11,.07.32-.07.68,0,1,3.42,16.62,6.73,33.36,10,50,.18.92.94,1.69,1,2,.69,3.47,1.36,7.53,2,11,.49,2.65,2.45,12.73,2.06,14.34s-4.66,1.3-5.01,1.71c-1.22,1.4,7.9,31.52,8.95,35.95-13.54-.21-26.96,1.57-40.54,1.05-4.68-.18-12.78-.4-17.03-.96-1.27-.17-3.39-3.86-7.44-2.08l10,40h-64l10.01-39.49-7.03-.03,8.03-37.12c-2.68-2.24-1.94-6.96-1.02-10.37,1.05-3.86,2.76-8.35,4-13,.21-.8.68-1.81,1-3,.54-2.02,2.49-4.38,2-6.99-.73-.68-5.73,1.44-4.98-1.47,3.03-10.59,8.29-21.25,11.26-31.75.93-3.27.97-6.83,1.72-9.78.08-.31-.08-.69,0-1l6.99-25.99c3.53,16.54,8.09,32.84,13.01,48.99.47,1.54,1.68,2.99,2,4,1.64,5.23,2,11.54,4.99,16.51l-5.98.49c-.92.87,4.44,17.4,5,19.99,3.14,14.64,4.8,29.72,7.86,44.67.27,1.33-.63,4.04,1.63,3.34,1.63-.5,7.8-29.01,8.51-33h-6c1.63-4.88,2.01-10.02,3-15,4.16-20.94,7.86-42.15,12-63,.13-.63.88-1.39,1-2Z"/>
  <path class="st14" d="M78,614v1c2.08,16.89,6.73,33.37,10,50,.06.32-.06.68,0,1,4.33,22.01,8.49,44.03,13,66,.81,3.96,2.14,7.88,2,12h-5.01c-1.95,1.92,8.45,32.94,9.01,38h-57.5c-.33,0-1.21-1.12-1.38-1.66-1.33-4.19,7.77-26.67,7.92-33.84.02-.84-.01-1.67-.03-2.5-7.15.49-4.11-.02-5.07-4.4-.18-.82-.92-1.45-.93-1.6-.04-.33.02-.67,0-1,2.86.56,1.62-1.14,2-2,2.4-5.39,2.79-11.3,4-17,.13-.6-.13-1.4,0-2,3.51-16.67,6.71-33.28,10-50,.06-.32-.06-.68,0-1,3.27-16.65,7.97-33.09,10-50v-1c.67,0,1.33,0,2,0Z"/>
  <path class="st15" d="M359,740v-22h47.5c.31,0,1.41-1.38,2.49-1,.09,2.49-.1,5.01,0,7.51.05,1.22-.76,3.72.99,3.48,1.57-20.6.88-41.32,1.01-61.99h49c.08,9.86-.07,19.75-.07,29.62,0,1.83,1.07,3.2,1.07,3.38.12,4.41-1.51,7.79-2,12-6.58,2.27-13.48,4.61-20,7,.19-.03,2.37-1.15,1.99-1.99h-24.99c-1.62,1.23.02,1.81,1.48,1.99,4.05.52,17.67.63,21.52,0-15.49,5.68-31.43,12.4-46.68,18.82-4.6,1.94-10.42,4.17-14.32,7.18-6.11-1.04-13.65-3.21-19-4Z"/>
  <path class="st15" d="M308,734v-16h50v22c-15.98-2.35-34.07-4.39-50-6Z"/>
  <path class="st15" d="M88,666h14v65l1.94-13.56c2.27-1.59,14.05-.02,17.06,1.56-1.24,4.65-2.95,9.14-4,13h-16c-4.51-21.97-8.67-43.99-13-66Z"/>
  <path class="st15" d="M257,730v-12h50v16c-16.33-1.62-33.91-3.08-50-4Z"/>
  <path class="st15" d="M218,718h37.01s.99,12,.99,12c-11.91-.67-24.07-.15-36-1-.64-3.47-1.31-7.53-2-11Z"/>
  <path class="st14" d="M863,648c7.11,34.79,13.28,69.81,21.01,104.49l-6.02.52c-.25,4.57,1.95,8.89,3,13,2.04,7.97,4.08,15.99,6,24h-59c1.17-7.44,3.9-14.53,5.76-21.79.38-1.49-.02-3.18.24-4.21.4-1.6,4.42-9.63,3-11h-5.01c5.92-35.02,12.89-70.13,20.01-105,1.7-8.34,3.21-16.82,5.5-25.01,2.15,8.23,3.79,16.67,5.5,25.01Z"/>
  <path class="st14" d="M904,768c.33-1.22,1.45-2.36,1-3.99h-4.99c7.79-27.56,13.66-56.1,21.98-83.53.43-1.42-.63-1.77,2.01-1.48l22,85h-5c-.67,3.77,2,6.99,3,10.01,1.75,5.28,3.4,10.67,5,16h-52c2-7.43,4.97-14.58,7-22Z"/>
  <path class="st6" d="M769,380v29h49v-19c.91.19,1.66.93,2,1v18.01s50.01,0,50.01,0v-8.01c.31.07.68-.07.99,0v8.01c8.82-.1,17.68.1,26.51.01,1.69-.02,4.45.64,5.49-1.02,2.25.5,4.9.55,7,1l-39,1v50h50v-48c.61.12,1.39-.12,2,0v49c-2.24,0-4.44.99-7,1l-.5-.98-.5.98c-.33,0-.67,0-1,0-14.32.07-28.68-.05-43,0v49h50v-26c.65.07,1.34-.03,2,0l-1.01,26.01h33.01c-.19.93-.93,1.67-1,1.99h-32v49h15.5c.88,0,3.63,1.86,5.5,1.01v.99s-21,0-21,0v50c0,.55,9.66-.4,11,0-.06.32.06.68,0,1-1.34.4-11-.55-11,0v33h-1v-33h-15c-.08-.31.08-.69,0-1h15v-50h-50v50c0,.5,8.73-.36,10,0-.08.31.08.69,0,1-1.27.36-10-.5-10,0v31h-1v-29.5c0-.11-1.39-1.5-1.5-1.5h-48.5v31h-1v-31h-50v35c-.66.03-1.34-.04-2,0v-35.01s-26,0-26,0c-.04-.33.04-.67,0-1h26v-50h-33c-.07-.65.07-1.35,0-2h33v-49h-39c-.08-.65.06-1.34,0-2h39v-49h-44c-.08-.65.08-1.35,0-2h44v-50c-8.84.03-17.17,1.11-26,0,0-.33,0-.67,0-1h26.01s0-29,0-29c.61.13,1.39-.13,2,0ZM818,410h-49v50h49v-50ZM870,460v-48.5c0-1.1-2.44-1.43-3.45-1.55-10.76-1.26-22.51.82-33.16.95-3.92.05-9.01-1.83-13.39-.9v50h50ZM818,492v-30h-49v49c0,.5,8.73-.36,10,0,0,.67,0,1.33,0,2-2.3-.69-7.26.5-10,0v49h49v-38c.63-.11,1.41.13,2,0v38h50v-25c.2.26.74.8,1,1v24h50v-49h-50v12c-.3.25-.77.7-1,1v-13.01s-33,0-33,0c.15-.53-.1-1.37,0-2,10.93.56,22.05-.41,33,0v-49h-50v31c-.86-.21-1.79-.97-2-1ZM818,564h-49v50h49v-50ZM870,564h-50v50h49l1-50Z"/>
  <path class="st8" d="M913,410c.2.12.2.72.49.98l.51-.98c2.5-.48,5.25,1.66,7,2v48h-50v-50l39-1c1.53.33,1.42.04,3,1Z"/>
  <path class="st15" d="M855,307l-35-1v-49h50v46c-4.93,1.11-9.97,2.87-15,4Z"/>
  <path class="st15" d="M972,422v38.01s-41,.99-41,.99c-2.66,0-5.34,0-8,0v-49c16.39,3.17,32.66,6.66,49,10Z"/>
  <path class="st15" d="M871,303v-46h50v35c-16.64,3.74-33.37,7.26-50,11Z"/>
  <path class="st15" d="M729,308h38.01s0,18,0,18c-12.61,2.85-25.11,6.9-37.9,9.09.88,7.7,0,15.12-.1,22.91h-11c1.27-8.85-4.49-23.4-10.98-29.52-1.23-1.16-9.95-7.09-11.02-7.48.7-2.28,2.58-1.95,4.45-2.06,6.31-.36,22.36,1.41,26.91-.08,2.78-.91,1.44-8.1,1.64-10.86Z"/>
  <path class="st15" d="M922,291v-34h50v23c-16.58,3.72-33.55,7.3-50,11Z"/>
  <path class="st15" d="M729,359c0,4.29-.12,8.62.1,12.9,12.71,2.28,25.27,5.47,37.9,8.1v29.01s-26,0-26,0c.05-3.26.68-19.44-.94-20.56-1.5-1.05-18.46-.39-22.06-.44v-29.01s11,0,11,0Z"/>
  <path class="st15" d="M818,390v19h-49v-29c16.31,3.39,32.69,6.63,49,10Z"/>
  <path class="st15" d="M870,401v8.01s-50.01,0-50.01,0v-18.01c16.63,3.44,33.37,6.56,50.01,10Z"/>
  <path class="st8" d="M769,326v-18.01s49.01,0,49.01,0v7.01c-16.32,3.67-32.69,7.31-49.01,11Z"/>
  <path class="st8" d="M903,408c-1.04,1.66-3.79,1-5.49,1.02-8.84.09-17.69-.11-26.52-.01v-8.01c10.7,2.21,21.35,4.62,32.01,7Z"/>
  <path class="st8" d="M844,309c-7.97,1.79-16,4.2-24,6v-7.01c7.76.63,16.55-1.29,24,1.01Z"/>
  <path class="st6" d="M729,358c0,.33,0,.67,0,1h-11.01s0,29,0,29c-.67,0-1.33.01-2,0,.35-6.92-.48-14.1,0-21,.28-4.07,1.62-6.36,2-9h11Z"/>
  <path class="st6" d="M913,410h1l-.51.98c-.29-.27-.29-.86-.49-.98Z"/>
  <path class="st14" d="M959,511c.13.6-.13,1.4,0,2,3.46,16.29,6.57,32.7,10,49,1.1,5.22,1.2,11.33,4,16-.13,10.78,4.85,25.16,7,36,.06.32-.06.68,0,1,1.04,5.3,1.99,10.68,3,15.99l-6.01.52,5.01,22.49c-16.36-.26-33.31-1.82-50-3,.58-6.82,4.39-13.09,4.01-20h-5.01c1.32-4.92,1.1-11.35,2-16,.06-.32-.06-.68,0-1,6.55-33.16,14.13-67.47,21-101,.07-.32.81-1.07,1-2,.51-2.42.24-5.73,1.5-8.01.63-.02,2.22,6.74,2.5,8.01Z"/>
  <path class="st15" d="M769,650v-35h50v31h1v-31h48.5c.11,0,1.5,1.39,1.5,1.5v29.5h1v-31c0-.5,8.73.36,10,0-2.81,10.6-6.11,21.16-8,32-.33,0-.67,0-1,0l-1,1c-2.65.11-5.34-.08-8,0-1.71-8.34-3.35-16.78-5.5-25.01-2.29,8.19-3.8,16.67-5.5,25.01-17.15.38-34.39-.49-51.54-.04-10.32.27-21.19,1.52-31.46,2.04Z"/>
  <path class="st14" d="M906,614c.08.31-.08.69,0,1,2.99,11.17,5.67,22.66,8,34-12.62-.73-28.93-1.94-41-2,1.89-10.84,5.19-21.4,8-32,.08-.31-.08-.69,0-1,3.2-12.1,6.67-29.31,11.07-40.43.41-1.04.36-2.41,1.92-2.57,3,12.08,6.05,24.18,9.3,36.21.67,2.47,2.25,5.07,2.71,6.79Z"/>
  <path class="st15" d="M906,615h15v33h1v-33c0-.55,9.66.4,11,0-.91,4.65-.68,11.07-2,16h5.01c.38,6.91-3.43,13.19-4.01,20-5.6-.4-12.44-1.68-18-2-2.33-11.34-5.01-22.83-8-34Z"/>
  <path class="st6" d="M871,648l1-1c-.21,0-.73.99-1,1Z"/>
  <path class="st4" d="M639,102c.18.41.89.73,1,1,5.3,13.38,6.22,35.9,4,50-.05.33.06.68,0,1-3.21,18.07-15.17,37.19-29,49v-16c-1.76-.22-.95,2.26-1,3.49-.19,4.49.13,9.03,0,13.51-.33,0-.67,0-1,0-13.13-.05-29.4,1.51-42.5,0-1.24-.14-6.5-1.19-6.5-2.5v-47.5c0-.28,3.69.63,4.01-.5,0-1.08-4.01-.26-4.01-.5v-50h50v49h1v-49h22v-1h-22v-31c9.33,6.67,19.43,20.41,24,31ZM574.99,153.01c-1.09-1.09-3.08.9-1.99,1.99s3.08-.9,1.99-1.99ZM581.99,153.01h-4.99v1.99h4.99v-1.99ZM594.99,153.01c-1.4-.72-2.67.63-1.99.98,1.4.72,2.67-.63,1.99-.98ZM602.5,153v1c.65-.33.65-.67,0-1ZM613,153.01h-3.99v.98h3.99v-.98ZM617.99,153.01c-1.4-.72-2.67.63-1.99.98,1.4.72,2.67-.63,1.99-.98ZM641.99,153.01h-6.99v.98h6.99v-.98ZM615,184v-29h-1v29h1Z"/>
  <path class="st0" d="M460,53v49h-48.5c-.11,0-1.5-1.39-1.5-1.5v-39.5h-1v41h-41v1h41v101c-4.99.03-10.01-.05-15,0-1,0-2,0-3,0-1.64-4.44-6.6-6.79-9.97-10.53-9.76-10.81-16.81-24.26-20.03-38.47l42.01-.51c.66-2.32-2.15-1.44-3.5-1.49-12.79-.51-25.72.38-38.51,0-.94-4.58-3.06-8.96-2-14,.03-2,0-4,0-6-.42-4.32.17-7.84,1-12s3.46-14.35,5-18c.12-.29.82-.6,1-1,7.87-17.33,25.66-35.14,43-43,.41-.19.73-.89,1-1,2.95-1.23,10.12-2.65,13.82-3.73,1.71-.5,3.79.68,3.18-2.27,11.15-.08,22.09-.21,33,1Z"/>
  <path class="st8" d="M564,52v50h50v-32c2.28-5.36.4-12.27,1-18h50v50h-26c-4.57-10.59-14.67-24.33-24-31v31h22v1h-22v49h-1v-49h-50v50c0,.24,4.01-.58,4.01.5-.32,1.13-4.01.22-4.01.5v47.5c0,1.31,5.26,2.35,6.5,2.5,13.1,1.52,29.37-.05,42.5,0l1,51h-50v-32c.15,0,.78-.88,1.58-.93,15.66-.85,32.76-5.16,44.42-16.07h-46v15h-1v-15h-30v-2h30v-48.5c0-3.11-11.21-.48-13.45-.46-6.09.07-11.53-1.35-17.55-1.04.06-.32-.05-.68,0-1h31v-50h-36v-1h36v-50c.33,0,.67,0,1,0Z"/>
  <path class="st4" d="M532,154c6.03-.31,11.46,1.11,17.55,1.04,2.23-.03,13.45-2.65,13.45.46v48.5h-30v2h30v15h1v-15h46c-11.66,10.91-28.76,15.22-44.42,16.07-.8.04-1.43.92-1.58.93-.66.02-1.34.01-2,0-11.23-.25-33.97-7.4-42.48-15.02-3.64-3.26,1.13-.37.47-3.97-1.31-.11-2.69.13-3.99,0-4.18-.44-2.11-.6-4.63-2.84-.77-.68-3.19-1.82-3.37-2.16-.09-.17-.09-1.66,0-2,.47-1.79,4.55-4.69,5.97-6.53,7.8-10.1,15.58-23.8,18.03-36.47Z"/>
  <path class="st0" d="M488,103c-5.78,15.07-6.91,34.29-4,50h-5s-.01,1.49-.01,1.49l5.01.51c2.81,13.29,10.87,29.37,20.01,39.49,1.18,1.3,2.01,2.48,3.99,2.51-.09.34-.09,1.83,0,2-3.99-.08-6.66,4.15-10,6-.33-.04-.67.03-1,0-.13-.01-.92-.9-2.4-1.05-10.17-1.07-22.22.9-32.61.06l-.06-49.46,3.08-1.05-3.08-1.05.06-49.46h26.01ZM469.99,153.01c-1.4-.72-2.67.63-1.99.98,1.4.72,2.67-.63,1.99-.98ZM476.99,153.01c-1.09-1.09-3.08.9-1.99,1.99s3.08-.9,1.99-1.99Z"/>
  <path class="st8" d="M359,139c0,.13-.96,1.13-1.04,2.42-.24,3.83.25,7.75.04,11.58h-50v-50h50c.13,8.86-.14,17.75-.07,26.62.01,1.83,1.07,3.2,1.07,3.38,0,2,.03,4,0,6Z"/>
  <rect class="st15" x="820" y="52" width="50" height="50"/>
  <rect class="st15" x="52" y="52" width="50" height="50"/>
  <rect class="st8" x="666" y="52" width="50" height="50"/>
  <rect class="st15" x="52" y="103" width="50" height="50"/>
  <rect class="st15" x="257" y="103" width="50" height="50"/>
  <rect class="st15" x="922" y="52" width="50" height="50"/>
  <rect class="st15" x="871" y="52" width="50" height="50"/>
  <rect class="st15" x="103" y="52" width="50" height="50"/>
  <rect class="st8" x="666" y="103" width="50" height="50"/>
  <rect class="st15" x="871" y="154" width="50" height="50"/>
  <rect class="st15" x="871" y="103" width="50" height="50"/>
  <rect class="st8" x="922" y="103" width="50" height="50"/>
  <rect class="st8" x="257" y="52" width="50" height="50"/>
  <rect class="st8" x="308" y="52" width="50" height="50"/>
  <path class="st15" d="M204,103v50h-50l-.06-47.48c-.05-.83,1.02-2.52,1.56-2.52h48.5Z"/>
  <polygon class="st15" points="204 52 204 102 154 102 155 52 204 52"/>
  <path class="st8" d="M358,204h-50v-50l47.47-.05c.83-.05,2.53,1.01,2.53,1.55v48.5Z"/>
  <rect class="st8" x="103" y="154" width="50" height="50"/>
  <polygon class="st8" points="102 154 102 204 52 204 52 155 102 154"/>
  <rect class="st8" x="257" y="155" width="50" height="49"/>
  <rect class="st8" x="666" y="155" width="50" height="49"/>
  <rect class="st15" x="820" y="155" width="50" height="49"/>
  <rect class="st8" x="769" y="103" width="49" height="50"/>
  <rect class="st8" x="718" y="103" width="49" height="50"/>
  <rect class="st15" x="769" y="52" width="49" height="50"/>
  <rect class="st8" x="206" y="103" width="49" height="50"/>
  <rect class="st15" x="308" y="206" width="50" height="49"/>
  <rect class="st15" x="922" y="206" width="50" height="49"/>
  <rect class="st8" x="615" y="206" width="50" height="49"/>
  <rect class="st15" x="666" y="206" width="50" height="49"/>
  <rect class="st15" x="871" y="206" width="50" height="49"/>
  <polygon class="st8" points="563 257 562 306 513 306 513 257 563 257"/>
  <polygon class="st15" points="614 257 613 306 564 306 564 257 614 257"/>
  <rect class="st15" x="769" y="206" width="49" height="49"/>
  <rect class="st8" x="155" y="155" width="49" height="49"/>
  <rect class="st15" x="718" y="155" width="49" height="49"/>
  <rect class="st15" x="718" y="206" width="49" height="49"/>
  <rect class="st8" x="769" y="155" width="49" height="49"/>
  <rect class="st15" x="769" y="257" width="49" height="49"/>
  <path class="st8" d="M409,214v41h-50v-49c10.53,0,21.08-.03,31.62.07,1.87.02,3.21-1.07,3.38-1.07,1.42.02,11.74,8.75,15,9Z"/>
  <path class="st15" d="M870,103v50h-50v-50h50ZM844.64,117.07c-8.16,6.24-8.05,8.35.73,13.86,8.16-6.24,8.05-8.35-.73-13.86Z"/>
  <path class="st15" d="M255,52v50h-49v-50h49ZM228.49,73.18c-.83,0-6.08,6.31-7.47,7.32l8.34,7.43c1.53-1.57,6.67-5.39,6.67-7.43,0-1.79-6.55-7.33-7.54-7.32Z"/>
  <path class="st15" d="M972,154v50h-50v-48.5c0-.11,1.39-1.5,1.5-1.5h48.5ZM935.5,169.02l-9.43,9.62,8.56,9.29,10.34-9.43-9.48-9.48Z"/>
  <path class="st15" d="M718,296v-39h49v49h-37c.29-11.88-2.25-9.78-12-10Z"/>
  <path class="st15" d="M255,155v49h-49v-49h49ZM227.7,172.11c-1.06.28-6.83,6.09-6.63,7.26.14.79,7.16,7.76,8.29,7.57.86-.15,6.67-6.1,6.67-7.43,0-1.79-6.16-7.96-8.33-7.39Z"/>
  <path class="st15" d="M153,103v50h-50v-50h50ZM130.87,117.14c-2.19-1.28-12.6,9.4-12.8,10.5-.22,1.26,10.29,10.4,11.42,10.4,1.5,0,10.57-8.95,10.56-10.55-1.66-2.79-5.06-4.82-7.62-7.47-.79-.82-1.41-2.78-1.57-2.87Z"/>
  <path class="st4" d="M581,52l32,16,1,2v32h-50v-50c5.65.01,11.35-.03,17,0Z"/>
  <path class="st15" d="M637,307h-22v-50h50v39c-5.48.04-22.63-1.08-26.36.14-2.59.84-1.69,8.37-1.64,10.86Z"/>
  <path class="st15" d="M767,52v50h-49v-50h49ZM730.14,78.87l11.22,9.06,10.7-10.41c0-1.54-10.14-11.67-11.42-11.44-1.86,2.22-12.15,9.93-10.5,12.8Z"/>
  <path class="st15" d="M870,206v49h-50v-49h50ZM836.5,217.02c-1.86,2.57-11.54,10.11-11.54,12.48.99,2.3,9.68,11.53,11.54,11.54l10.06-8.97c4.23-4.99-7.37-10.8-10.06-15.05Z"/>
  <path class="st7" d="M665,296c.33,0,.67,0,1,0,16.61-.1,33.4-.39,50,0,.67.02,1.33-.01,2,0,9.75.22,12.29-1.88,12,10-.01.5-.96,1.46-1,2-.2,2.76,1.14,9.95-1.64,10.86-4.55,1.49-20.6-.28-26.91.08-1.87.11-3.75-.22-4.45,2.06-8.24-2.98-17.93-2.11-26,1,.02-2.71-1.19-2.8-3.45-3.05-8.85-.98-19.49.83-28.55.06.16-3.76-.82-7.25-1-11.01-.02-.33,0-.67,0-1-.05-2.49-.95-10.02,1.64-10.86,3.73-1.22,20.88-.1,26.36-.14Z"/>
  <path class="st4" d="M563,52v50h-36v1h36v50h-31c4.79-28.65-2.92-53.26-22.01-74.49-1.17-1.3-2.02-2.47-3.99-2.51v-1c2.87.19,3.64-2.87,5-4,1.24-1.03,1.86-1.9,2-2,7.49-5.6,20.63-12.18,29.83-14.72,1.72-.47,3.76.63,3.17-2.28,5.65-.03,11.35.01,17,0Z"/>
  <path class="st8" d="M498,205c.13.01.93.9,2.4,1.05,3.34.35,7.18-.35,10.6-.05v49h-49v-34l1-1c10.67-1.53,23.64-6.12,32-13,.74-.61,1.71-.89,2-2,.33.03.67-.04,1,0Z"/>
  <path class="st15" d="M666,296v-39h50v39c-16.6-.39-33.39-.1-50,0Z"/>
  <path class="st8" d="M516,204c1.31.14,2.69-.1,3.99,0,.66,3.6-4.12.71-.47,3.97,8.51,7.62,31.25,14.77,42.48,15.02v32h-49l-.07-48.45,3.07-2.55Z"/>
  <path class="st15" d="M460,221c.1,11.32-.07,22.68,0,34h-49v-40c3.51,1.93,13.76,4.76,17.95,5.55,10.35,1.95,20.7,2.01,31.05.45Z"/>
  <path class="st8" d="M644,154h21v50c-16.98-.01-34.02.02-51,0,.13-4.48-.19-9.02,0-13.51.05-1.23-.76-3.71,1-3.49v16c13.83-11.81,25.79-30.93,29-49Z"/>
  <path class="st0" d="M465,53c15.04,3,29.6,12.13,41,22v1c-6.09,8.35-12.93,16.34-17,26h-27.01s0-49,0-49c.94.14,2.12-.18,3,0Z"/>
  <path class="st8" d="M366,102h-7.01s0-50.01,0-50.01h50.01s0,7.01,0,7.01c-17.34,7.86-35.13,25.67-43,43Z"/>
  <path class="st8" d="M640,103h25v50h-21c2.22-14.1,1.3-36.62-4-50Z"/>
  <path class="st4" d="M462,53v49.01s27,0,27,0c-.16.39-.89.71-1,1h-26.01s-.06,49.45-.06,49.45l3.08,1.05-3.08,1.05.06,49.46c10.39.84,22.43-1.13,32.61-.06,1.48.16,2.27,1.04,2.4,1.05-.29,1.11-1.26,1.39-2,2l-33.01-1.01,1.01,14.01-1,1c-.65.06-1.37-.1-2,0-.04-4.99.03-10.02,0-15.01h-50.01c.37,2.35-.52,5.93,0,8.01h-1c-3.26-.25-13.58-8.98-15-9v-1c4.99-.05,10.01.03,15,0v-101h-41v-1h41v-41h1v39.5c0,.11,1.39,1.5,1.5,1.5h48.5v-49c.65.07,1.36-.09,2,0ZM460,103h-48.5c-.11,0-1.5,1.39-1.5,1.5v48.5c0,.63,8.87-1.52,8.01,1.49-.35,1.23-8.01.11-8.01.51v49h50v-49c-11.56-1.54-25.11,1.46-36.52,0-1.82-.23-1.62.34-1.48-2h38v-50Z"/>
  <path class="st0" d="M410,214c-.52-2.07.37-5.66,0-8.01h50.01c.02,4.99-.05,10.02,0,15.01-10.35,1.56-20.7,1.5-31.05-.45-4.19-.79-14.44-3.63-17.95-5.55-.5-.28-.83-.32-1-1Z"/>
  <path class="st8" d="M361,155c3.22,14.21,10.27,27.66,20.03,38.47,3.38,3.74,8.33,6.08,9.97,10.53-10.65.06-21.35-.05-32.01,0l-.02-48.41,2.02-.59Z"/>
  <path class="st8" d="M465,53l46.01-1.01v19.01c-1.36,1.13-2.14,4.19-5.01,4-11.4-9.87-25.96-19-41-22Z"/>
  <path class="st8" d="M546,52c.6,2.91-1.44,1.81-3.17,2.28-9.21,2.53-22.34,9.11-29.83,14.72v-17.01c10.98-.03,22.01.06,33,0Z"/>
  <path class="st8" d="M581,52c10.99.05,22.02-.04,33.01,0l-1.01,16.01-32-16Z"/>
  <path class="st4" d="M361,153c12.79.38,25.71-.51,38.51,0,1.35.05,4.16-.83,3.5,1.49l-42.01.51c-.13-.59.12-1.39,0-2Z"/>
  <path class="st15" d="M427,52c.6,2.95-1.47,1.77-3.18,2.27-3.69,1.08-10.86,2.51-13.82,3.73v-6.01c5.65-.02,11.34.05,17,0Z"/>
  <path class="st15" d="M365,103c-1.54,3.65-4.18,13.89-5,18-2.28-5.36-.4-12.27-1.01-18.01h6.01Z"/>
  <path class="st2" d="M511,530c.67,0,1.33,0,2,0,15.28-.05,35.36-1.53,50,0,1.25.13,6.97,1.35,7.51,1.99l8.49,19.01h-15c.23,3.61-.31,7.41,0,11,.06.66-.04,1.34,0,2l29.12,48.39c.93,1.85,2.28,1.44,3.88,1.61v1l-1.99,1.48c6.96,7.56,10.95,20.17,16.94,27.86.84,1.08,1.54.46,2.05.66.29.11.62.78,1,1,.45,4.22,2.18,6.02,5,9-.5,4.48-.49,9.2-1,14-53.9,11.15-107.95,24.06-160,42,.49-4.21,2.12-7.59,2-12,1.69-.49,1.73-1.52,2-3,1.84-10.11,3.87-19.97,6-30,.07-.32-.07-.68,0-1,3.52-16.61,6.46-33.42,10-50,.07-.32-.07-.68,0-1,3.49-16.26,8.59-33.27,12-50,.12-.61-.12-1.39,0-2,.7-3.51,2.81-6.99,2-11h-25c-.37-1.08,1-2.19,1-2.5v-17c0-1.1,2.44-1.43,3.45-1.55,10.98-1.29,26.92.09,38.55.05ZM562.99,562c-.32-5.8,2.44-12.41-5.98-10.99-.83.8,4.13,10.17,5.98,10.99Z"/>
  <path class="st15" d="M186,664c-10.24,2.26-21.5.4-32.01,1.01l1.01-50.01h40c.22-1.76-2.26-.95-3.49-1-11.94-.5-24.01.31-35.97.07-.7-.2-.93-7.72-3.09,0l-49.46-.06-.07-49.46,3.07-.56c-.5-1.95-2.8-1.04-3.08-3.46-1.7-14.59,1.43-32.57.08-47.53h50v17h2v-17h36c-2.85,16.73,18,24.73,31.17,27.33,10.78,2.13,21.93,2.32,32.83.67-.55,2.94.75,20.26,0,21.01s-9.11-1.68-10,1.98c1.17.39,10-.49,10,0v50h-57l6.01.99-1.01,33.01c-2.05-9.69-3.6-20.02-5.97-29.57-.42-1.69.99-2.91-2.02-2.43-1.96,16.09-5.83,32.06-9,48ZM153,599c.36.42-1.02,13.95,1.99,10-.23-2.39.42-5.23,0-7.52-.38-2.03-1.86-2.2-1.99-2.47-.22-.46.47-2.11-.16-2.79-.48-.52-10.3-3.62-13.16-5.39-5.1-3.16-11.62-9.21-12.62-15.38-.47-2.89-.46-8.93.94-11.44h9c0,4.63.24,9.39,0,14-.06,1.16-2.32,1.43,0,4,1.23,1.37.81.56,2.28-.2,3.08-1.6,8.04-5.94,11.23-5.88,2.51.05,9.2,4.39,12.52,5.54,2.55.88,12.47,2.6,13.02,2.98,1.6,1.09.8,4.8.94,6.56,1.03,1.09,9.92-4.1,12-5l.61.83c1.86-.24,3.97-.55,3.39-2.83,1.53-.22,3.38.13,5,0,.08,0,.56.87,1.33.79,1.64-.16,2.75-2.26,4.67-1.79.28,3.04-.37,6.55,0,9.51.19,1.46.76,3.1,2,1.48v-12.99c1.6-.75,6.05-5.37,7.01-7,2.47-4.2-.16-3.43-1-5-.64-1.2-.79-2.84-2-4,3.39-2.23,8.89-.45,13-1.01.07-.64-1.33-1.99-1.5-1.99h-15.5l.05-13.4c-.15-1.21-1.54-.39-2.05-.6.24,4.3-.17,8.69,0,13-.32-.24-1.79.24-2,0-.23-.26.22-1.77,0-1.99-.65-.63-1.88.98-1.99.99-.83.13-2.11.06-3,0,.99-2.58-4.99-3.72-6-2-1.02-.34-1.98-.6-3-1-.18-.07-.48-.79-1-1-.92-.37-1.95-.56-3-1-.09-.04-.36-.74-1-1s-2.11-.7-3-1c.1-1.7.36-2.34-1.49-1.99l-.51.99c-.3-.06-.68,0-1,0-.66,0-1.33,0-1.99,0-.17,2.93,1.18,5.5-1.98,6.67l-.03,1.33c-1.28.14-2.69-.03-4,0-3.77.1-1.92.63-3,1-.52.18-1.45-.17-2,0-.79.24-.93.99-1,1-.88.15-2.03-.03-3,0-1.66.06-3.34-.03-5.01,0v-17.01c15.26-3.84,34.39-2.96,49.01,3-.07-1.31.18-2.65-.05-3.95-22.18-6.27-56.17-6.96-72.98,11.43-16.26,17.8-1.92,34.33,16.04,42.01,1.64.7,5.78,1.28,5.99,1.52Z"/>
  <path class="st8" d="M307,576c1.09-4.22,1.31-7.46,1-12h50l.5,10.01.5-10.01h50v101h-50c-.45,0,.73-7.9-.5-9.01-1.22,0-.05,9.01-.5,9.01h-50v-25h-1v25h-50v-50c3.3.19,6.72-.26,10,0,.2,10,6.24,18.73,13.53,24.97,1.04.89,8.72,6.85,9.46,6.03,2.18-2.4-5.61-6.23-7.01-7.48-7.46-6.72-12.63-12.78-13.05-23.46-.96-.25-1.97.03-2.94-.05,0-.33-.01-.67,0-1,.97-.08,1.98.2,2.94-.05.75-14.36,12.54-24.05,24.39-30.13,2.83-1.45,10.05-3.07,11.69-4.35,1.13-.88.68-1.8.98-2.48.11-.25-.09-.66,0-1ZM377,625v-22c-5.31,1.62-9.45,7.94-15.25,6.81-2.39-.47-4.4-2.73-6.52-3.54-2.43-.93-4.98-1.8-7.47-2.53-2.7-.79-10.37-1.36-10.77-1.73-.82-.78,1.63-8.9-1.46-7.98-3.68,1.1-8.5,5.4-12.24,6.77-5.97,2.19-21.78,3.4-22.39,12.7-.72,11.05,15.44,11.8,22.11,13.99,3.93,1.29,8.98,5.45,12.51,6.49,3.07.91.56-5.69,1.57-6.88.45-.52,10.97-2.24,13.43-3.07,3.48-1.17,10.07-5.55,12.21-5.86,3.56-.52,13.33,7.89,14.26,6.83Z"/>
  <path class="st1" d="M625,614l3.62-18.06,109.25.2c2.17,5.11,1.53,11.05,2.2,16.29.1.81.91,1.37.94,1.57.04.33-.04.67,0,1,1.48,11.94,2.61,24.04,4,36,1.62,13.99,3.15,28.04,5,42-16.65.03-33.35-.03-50,0l1-57h-35v57c-16.32-.04-32.69.02-49.01,0-.05-8.04,1.16-16.04,2.01-24.01.51-4.8.5-9.52,1-14,1.45-13.03,3.32-26.82,5-40,.04-.33-.04-.67,0-1Z"/>
  <path class="st7" d="M728,511c.06.66-.08,1.35,0,2,1.93,16.32,4.19,32.65,6,49,.07.65-.07,1.35,0,2,.86,7.92,2.58,15.92,3,24h-108c.23-8.1,2.1-16.21,3-24,.07-.65-.08-1.35,0-2,1.94-16.32,3.9-32.7,6-49,.08-.65-.08-1.35,0-2,.4-3.47.02-10.5,4.45-10.05,24.7,2.77,57.24-3.56,80.98.12,6.52,1.01,4.11,5.15,4.57,9.93Z"/>
  <path class="st1" d="M718,422c.69,7.4,1.17,15.01,2.12,22.38.67,5.16,2.28,10.51,2.88,15.62.08.65-.08,1.35,0,2,1.18,10.27,1.65,20.74,3,31-13.52,1.04-26.97,1.02-40.55,1.05-4.66.01-9.34.11-13.95.05-10.42-.14-20.99-.71-31.4-1.19,1.17-10.24,1.73-20.67,2.9-30.9.07-.65-.08-1.35,0-2,.59-5.07,2.21-10.46,2.88-15.62.95-7.36,1.65-14.96,2.12-22.38,23.29.23,46.71.23,70,0Z"/>
  <path class="st15" d="M132,665h-29v-50h50v50c0,.51-5.99-1.16-6,.99h38c-4.14,20.86-7.84,42.07-12,63.01h-15c-.56-2.59-5.92-19.12-5-19.99l5.98-.49c-2.99-4.98-3.35-11.28-4.99-16.51,2.28-5.36.41-12.27.99-17.99-1.26-1.65-1.82.1-2,1.48-.51,3.93,1.22,9-1,12.52-4.92-16.16-9.48-32.46-13.01-48.99l-6.99,25.99Z"/>
  <path class="st7" d="M694,387c6.87.15,14.69.86,22,1,.67.01,1.33,0,2,0,3.6.04,20.56-.61,22.06.44,1.62,1.13.98,17.31.94,20.56,0,.33,0,.67,0,1-.05,2.58.71,10.42-.94,11.56-1.5,1.04-18.48.4-22.06.44-23.29.23-46.71.23-70,0-3.59-.04-20.57.6-22.06-.44-1.65-1.15-.89-8.98-.94-11.56,0-.33,0-.67,0-1-.05-3.26-.68-19.43.94-20.56,1.8-1.26,36.74-.2,42.61-.44,1.93-.08,4.01,1.03,3.45-2,10.26,3.04,12.86.8,22,1Z"/>
  <path class="st15" d="M643,462c-1.17,10.23-1.73,20.66-2.9,30.9,10.41.49,20.98,1.05,31.4,1.19,4.61.06,9.29-.04,13.95-.05,13.58-.03,27.03,0,40.55-1.05-1.35-10.27-1.82-20.73-3-31h44v49h-39c-.46-4.79,1.95-8.92-4.57-9.93-23.75-3.68-56.29,2.65-80.98-.12-4.43-.45-4.05,6.58-4.45,10.05h-23v-49h28Z"/>
  <path class="st15" d="M632,564c-.9,7.79-2.77,15.9-3,24h108c-.42-8.08-2.14-16.08-3-24h33v50h-26c-.03-.2-.83-.76-.94-1.57-.68-5.24-.03-11.18-2.2-16.29l-109.25-.2-3.62,18.06c-1.27-.36-10,.5-10,0v-50h17Z"/>
  <rect class="st15" x="564" y="410" width="50" height="50"/>
  <path class="st15" d="M76,614c-7.98-.03-16.02.02-24,0v-50h50v50c-7.98.02-16.02-.03-24,0-.67,0-1.33,0-2,0Z"/>
  <rect class="st15" x="359" y="666" width="50" height="50"/>
  <rect class="st15" x="308" y="666" width="50" height="50"/>
  <rect class="st15" x="257" y="666" width="50" height="50"/>
  <path class="st15" d="M205,654l1-39h49v50h-48c-.75-3.65-1.25-7.4-2-11Z"/>
  <rect class="st15" x="411" y="615" width="49" height="50"/>
  <rect class="st15" x="52" y="513" width="50" height="49"/>
  <path class="st15" d="M358,539c-.03,7.65.02,15.35,0,23h-50v-49h50c.03,4.99-.05,10.01,0,15,.03,3.66.02,7.34,0,11Z"/>
  <rect class="st15" x="564" y="462" width="50" height="49"/>
  <rect class="st15" x="359" y="462" width="50" height="49"/>
  <rect class="st15" x="411" y="564" width="49" height="50"/>
  <polygon class="st15" points="562 462 563 511 513 511 513 462 562 462"/>
  <polygon class="st15" points="511 410 511 460 462 460 462 411 511 410"/>
  <rect class="st15" x="513" y="411" width="49" height="49"/>
  <rect class="st15" x="462" y="462" width="49" height="49"/>
  <rect class="st15" x="411" y="462" width="49" height="49"/>
  <path class="st15" d="M411,522c.32-1.22-.45-9,0-9h49v49h-49v-17c2.77-1.77,5.31-4.64,6.98-7.51-.07-1.38-13.66-3.48-15.98-3.5,1.67-3.72,14.77-2.63,16-4-.53-3.94-3.99-6.12-7-7.99Z"/>
  <path class="st15" d="M191,512l-36-1v-49h49v37c-2.16,1.17-6.28,4.59-8.03,6.47-.68.73-4.82,6.15-4.97,6.53Z"/>
  <path class="st15" d="M563,529c2.25-4.58.44-10.86,1-16h50v49h-50c-.31-3.59.23-7.39,0-11h15l-8.49-19.01c-.55-.64-6.26-1.86-7.51-1.99v-1Z"/>
  <path class="st15" d="M207,666h48v50h-38c-3.27-16.64-6.58-33.38-10-50Z"/>
  <path class="st5" d="M219,494c-.12,2.03,1.02,3.97,1,6-1.44-.37-8.37-1.58-9-.99,1.81,16,13.86,24.19,29.44,24.03,7.87-.08,13.41-4.44,18.55-5.04s18.92,2.73,24.57,3.97c1.52.33,2.72-.89,2.44,1.53-1.02,8.96-20.65,14.97-28.01,16.5-.87.18-1.8.82-3,1-10.91,1.65-22.06,1.47-32.83-.67-13.17-2.6-34.01-10.61-31.17-27.33.06-.35-.1-.75,0-1,.15-.38,4.29-5.8,4.97-6.53,1.75-1.88,5.87-5.3,8.03-6.47.6-.33,1.38-.72,2-1,3.66-1.67,9.08-2.51,13-4Z"/>
  <path class="st15" d="M287,512c.13,0,1.15,1.05,2.43,1.04,5.86-.06,11.73-.03,17.57-.04v49h-50c.53-7.17-1.19-15.12,1-22,7.36-1.54,26.99-7.54,28.01-16.5.28-2.41-.92-1.19-2.44-1.53-5.65-1.24-19.55-4.56-24.57-3.97-.3-2.79.15-1.75,2-2,7.81-1.06,18.8-3.79,26-4Z"/>
  <path class="st15" d="M257,490v-28.01s49.42-.01,49.42-.01l.58,5.02c-1.38.39-10.09,5.87-9.97,7.51-.06,1.82,12.03,1.91,8.98,4.49-.58.49-7.71.46-9.01,1.52-.02,3.46,7.12,7.63,10.01,8.49v22.01s-20,0-20,0c-5.1-9.8-16.66-14.78-27-17-.47-2.66-.64-3.93-3-4Z"/>
  <path class="st15" d="M308,467l.58-5.02,49.42.02v49h-50v-22c8.76,2.05,22.9,1.66,30.03-4.47,12.33-10.61-7.28-17.95-16.55-18.51-3.1-.19-10.57.29-13.48.98Z"/>
  <path class="st15" d="M564,564h50v47.5c0,.34-1.09,2.39-1.69,2.54-2.15.51-12.56.25-15.31-.04-1.61-.17-2.95.24-3.88-1.61l-29.12-48.39Z"/>
  <path class="st5" d="M408,520c.35.14,2.22,1.51,3,2,3,1.87,6.47,4.05,7,7.99-1.23,1.37-14.33.27-16,4,2.32.02,15.91,2.13,15.98,3.5-1.67,2.86-4.2,5.73-6.98,7.51-.61.39-1.34.68-2,1-17.22,8.39-34.27,4.6-49-6-.64-.46-1.08-1.06-2-1,.02-3.66.03-7.34,0-11,1.03.1,1.38-.35,2-1,10.93-11.52,33.84-12.82,48-7Z"/>
  <path class="st15" d="M206,498v-36h49v28c-.17.06-2.63,1.73-3,2l-8-1c-.98-1.5-3.53-5.02-5.49-5.01-.31,0-3.15,4.37-3.51,5.01l-8,1c-.92-.65-6.26-2.76-6.99-2,.7,1.48-.98,3.49-1.01,4-3.92,1.49-9.34,2.33-13,4Z"/>
  <path class="st15" d="M267,614c-3.28.26-6.7-.19-10,0v-50h50v12c-.09.34.11.75,0,1-17.17,2.67-39.2,18.32-40,37Z"/>
  <path class="st15" d="M491,562h-29v-49h49v17c-11.63.04-27.57-1.34-38.55-.05-1.01.12-3.45.46-3.45,1.55v17c0,.31-1.37,1.42-1,2.5h25c.81,4.01-1.3,7.49-2,11Z"/>
  <path class="st15" d="M625,410c.05,2.58-.71,10.42.94,11.56,1.5,1.04,18.48.4,22.06.44-.47,7.41-1.17,15.01-2.12,22.38-.67,5.16-2.28,10.56-2.88,15.62h-28v-50c0-.5,8.73.36,10,0Z"/>
  <path class="st15" d="M491,564c-3.41,16.73-8.51,33.74-12,50h-17v-50h29Z"/>
  <path class="st15" d="M132,666c-.75,2.95-.79,6.51-1.72,9.78-2.97,10.51-8.24,21.17-11.26,31.75-.75,2.91,4.25.8,4.98,1.47.49,2.62-1.46,4.97-2,6.99h-19v-50h29Z"/>
  <path class="st15" d="M638,513c-2.1,16.3-4.06,32.68-6,49h-17v-49h23Z"/>
  <path class="st15" d="M78,615h24v50h-14c-3.27-16.63-7.92-33.11-10-50Z"/>
  <path class="st15" d="M76,615c-2.03,16.91-6.73,33.35-10,50h-14v-50h24Z"/>
  <path class="st8" d="M513,530v-17h50v17c-14.64-1.53-34.72-.05-50,0Z"/>
  <path class="st5" d="M308,489c-.32-.08-.7.09-1,0-2.89-.86-10.03-5.03-10.01-8.49,1.31-1.05,8.43-1.02,9.01-1.52,3.05-2.57-9.04-2.66-8.98-4.49-.12-1.64,8.59-7.12,9.97-7.51.31-.09.68.08,1,0,2.92-.69,10.38-1.17,13.48-.98,9.26.56,28.88,7.9,16.55,18.51-7.13,6.13-21.27,6.53-30.03,4.47Z"/>
  <path class="st15" d="M409,546v16h-50c.61-7.08-1.29-15.25,1-22,14.73,10.6,31.78,14.39,49,6Z"/>
  <path class="st15" d="M479,615c-3.54,16.58-6.48,33.39-10,50h-7.01s0-50.01,0-50.01h17.01Z"/>
  <path class="st15" d="M66,666c-3.29,16.72-6.49,33.33-10,50-1.54-.43-3.82,1.38-4.01-1.47-1.07-15.77.82-32.66,0-48.54h14.01Z"/>
  <path class="st15" d="M597,615h17.01s0,30,0,30c-.51-.2-1.21.42-2.05-.66-5.99-7.69-9.97-20.3-16.94-27.86l1.99-1.48Z"/>
  <path class="st15" d="M625,615c-1.68,13.18-3.55,26.97-5,40-2.82-2.98-4.55-4.78-5-9-1.04-9.72.77-21.09,0-31.01h10.01Z"/>
  <path class="st5" d="M287,511v1c-7.2.21-18.19,2.94-26,4,2.68-5.49,7.43-10.46,7-17-.49-.5-6.68.71-8,1-.22-1.89.31-4.23,0-6,10.34,2.22,21.9,7.2,27,17Z"/>
  <path class="st15" d="M360,527l-1.01-14.01h50.01s-1,7.01-1,7.01c-14.16-5.82-37.07-4.52-48,7Z"/>
  <path class="st7" d="M257,490c2.36.07,2.53,1.34,3,4,.31,1.77-.22,4.11,0,6-2.8.61-10.02,3.24-12,5-1.07-2.36-.42-7.28-1-9,3.32.46,4.72-3.8,5-4,.37-.27,2.83-1.94,3-2,.38-.13,1.41-.02,2,0Z"/>
  <path class="st15" d="M469,666c-2.13,10.03-4.16,19.89-6,30-2.3-9.56-.37-20.18-1.01-30.01h7.01Z"/>
  <path class="st15" d="M56,718c-1.21,5.7-1.6,11.61-4,17,.26-5.13-.36-10.4,0-15.53.19-2.85,2.47-1.04,4.01-1.47Z"/>
  <path class="st15" d="M936,462c11.98.09,24.02-.07,36,0v49h-13c-.28-1.27-1.87-8.03-2.5-8.01-1.26,2.28-.99,5.59-1.5,8.01h-33.01s1.01-26,1.01-26c18.35.76,38.1-11.82,13-23Z"/>
  <path class="st5" d="M923,461c2.66,0,5.34,0,8,0,.4,0,2.73.98,5,1,25.1,11.18,5.35,23.76-13,23-.66-.03-1.35.07-2,0-6.56-.65-13.83-3.13-17.99-8.51-.44-2.37,1.07-1.2,2.45-1.51,2.47-.55,4.99-1.11,7.54-.98.8-2.92-5.14-2.2-7.66-2.86-.99-.26-3.18.39-2.34-1.62,1.62-3.87,8.09-5.1,10.99-7.51.33,0,.67,0,1,0s.67,0,1,0c2.56,0,4.76-1,7-1Z"/>
  <path class="st15" d="M959,513h13.01c-.89,15.14,1.18,31.55,0,46.55-.24,3.07.49,2.57-3,2.45-3.43-16.3-6.54-32.71-10-49Z"/>
  <path class="st10" d="M696,321c1.07.39,9.79,6.32,11.02,7.48,6.49,6.12,12.25,20.67,10.98,29.52-.38,2.64-1.72,4.93-2,9l-10.98,13.52-11.02,6.48c-9.14-.2-11.74,2.04-22-1-29.68-8.8-31.23-52.73-2-64,8.07-3.11,17.76-3.98,26-1Z"/>
  <path class="st10" d="M283.64,214.07l11.29,10.56c.24,1.36-8.78,10.25-10.48,10.41-3.25.32-8.27-7.67-11.38-9.69l10.56-11.29Z"/>
  <path class="st7" d="M666,693v-57h35l-1,57c-11.32.02-22.68.03-34,0Z"/>
  <path class="st15" d="M741,615h26.01s0,35,0,35c-7.31.43-14.68.84-22,1-1.39-11.96-2.52-24.06-4-36Z"/>
  <path class="st13" d="M173,729c-.99,4.99-1.37,10.13-3,14.99h6c-.71,4.01-6.88,32.51-8.51,33.01-2.26.7-1.36-2.01-1.63-3.34-3.06-14.94-4.72-30.02-7.86-44.67h15Z"/>
  <path class="st6" d="M152,688c2.22-3.52.49-8.59,1-12.52.18-1.38.74-3.13,2-1.48-.59,5.72,1.28,12.64-.99,17.99-.32-1.01-1.53-2.46-2-4Z"/>
  <path class="st6" d="M439,718c-3.85.64-17.47.52-21.52,0-1.46-.19-3.1-.76-1.48-2h24.99c.38.84-1.81,1.96-1.99,1.99Z"/>
  <path class="st15" d="M870,460h-50v-50c4.38-.93,9.48.95,13.39.9,10.65-.13,22.39-2.22,33.16-.95,1.01.12,3.45.46,3.45,1.55v48.5Z"/>
  <polygon class="st15" points="870 564 869 614 820 614 820 564 870 564"/>
  <rect class="st15" x="769" y="564" width="49" height="50"/>
  <rect class="st15" x="769" y="410" width="49" height="50"/>
  <path class="st15" d="M837,513h33.01s0,13,0,13c-2.55,3.35-2.55,7.7,0,11v25h-50v-38c5.09-1.12,15.41-5.57,17-11Z"/>
  <path class="st15" d="M820,493v-31h50v49c-10.95-.41-22.07.56-33,0-5.45-.28-10.62-1.33-15.99-2.01-.24-1.44,1.76-1.39,2.8-1.68,3.71-1.03,8.43-.94,11.81-2.2,1.03-.38,1.76.47,1.42-1.62-.79-4.86-12.75-9.46-17.03-10.49Z"/>
  <path class="st15" d="M954,513c-6.87,33.53-14.45,67.84-21,101-1.34-.4-11,.55-11,0v-50h21v-.99c-1.87.85-4.62-1.01-5.5-1.01h-15.5v-49h32Z"/>
  <path class="st15" d="M914,462c-2.9,2.41-9.37,3.65-10.99,7.51-.84,2.01,1.35,1.37,2.34,1.62,2.52.66,8.46-.06,7.66,2.86-2.55-.12-5.07.43-7.54.98-1.38.31-2.89-.87-2.45,1.51,4.16,5.39,11.43,7.86,17.99,8.51v26h-50v-49c14.32-.05,28.68.07,43,0Z"/>
  <path class="st15" d="M741,410c8.83,1.11,17.16.03,26,0v50h-44c-.6-5.11-2.21-10.47-2.88-15.62-.95-7.37-1.44-14.98-2.12-22.38,3.59-.04,20.57.6,22.06-.44,1.65-1.15.89-8.98.94-11.56Z"/>
  <path class="st15" d="M779,513c.93.28,1.9,2.72,2.96,3.54,10.54,8.19,23.11,9.62,36.04,7.46v38h-49v-49c2.74.5,7.7-.69,10,0Z"/>
  <path class="st15" d="M881,614c-1.27-.36-10,.5-10,0v-50h50v50h-15c-.46-1.72-2.05-4.33-2.71-6.79-3.24-12.02-6.3-24.13-9.3-36.21-1.56.15-1.51,1.52-1.92,2.57-4.4,11.12-7.86,28.34-11.07,40.43Z"/>
  <path class="st15" d="M728,513h39v49h-33c-1.81-16.35-4.07-32.68-6-49Z"/>
  <path class="st15" d="M779,511c-1.27-.36-10,.5-10,0v-49h49v30c-9.92-1.42-36.54,1.25-38.94,13.59-.31,1.62-.08,3.7-.06,5.41Z"/>
  <path class="st15" d="M871,525v-12h50v49h-50v-24c7.64,5.91,26.4,6.54,35.05,2.55,12.26-5.66,5.9-8.31-4.05-8.56l10.99-4.48c-8.08-10.8-32.39-10.34-41.99-2.51Z"/>
  <path class="st5" d="M818,492c.21.03,1.14.79,2,1,4.27,1.02,16.24,5.63,17.03,10.49.34,2.09-.39,1.24-1.42,1.62-3.38,1.26-8.1,1.17-11.81,2.2-1.03.29-3.03.24-2.8,1.68,5.37.68,10.55,1.73,15.99,2.01-.1.63.15,1.47,0,2-1.59,5.43-11.91,9.88-17,11-.59.13-1.37-.11-2,0-12.93,2.16-25.5.73-36.04-7.46-1.06-.82-2.03-3.26-2.96-3.54,0-.67,0-1.33,0-2-.02-1.72-.26-3.79.06-5.41,2.4-12.34,29.02-15.01,38.94-13.59Z"/>
  <path class="st5" d="M871,525c9.6-7.83,33.91-8.28,41.99,2.51l-10.99,4.48c9.95.24,16.31,2.89,4.05,8.56-8.64,3.99-27.41,3.36-35.05-2.55-.26-.2-.8-.74-1-1-2.55-3.3-2.55-7.65,0-11,.23-.3.7-.75,1-1Z"/>
  <path class="st15" d="M916,462c-.33,0-.67,0-1,0l.5-.98.5.98Z"/>
  <path class="st15" d="M716,367c-.48,6.9.35,14.08,0,21-7.31-.14-15.13-.85-22-1l11.02-6.48,10.98-13.52Z"/>
  <rect class="st8" x="614" y="155" width="1" height="29"/>
  <rect class="st8" x="577.01" y="153.01" width="4.99" height="1.99"/>
  <rect class="st8" x="635.01" y="153.01" width="6.99" height=".98"/>
  <path class="st8" d="M574.99,153.01c1.09,1.09-.9,3.08-1.99,1.99s.9-3.08,1.99-1.99Z"/>
  <rect class="st8" x="609" y="153.01" width="3.99" height=".98"/>
  <path class="st8" d="M617.99,153.01c.68.35-.59,1.7-1.99.98-.68-.35.59-1.7,1.99-.98Z"/>
  <path class="st8" d="M594.99,153.01c.68.35-.59,1.7-1.99.98-.68-.35.59-1.7,1.99-.98Z"/>
  <path class="st8" d="M602.5,153c.65.33.65.67,0,1v-1Z"/>
  <path class="st11" d="M532,153c-.05.32.06.68,0,1-2.45,12.67-10.23,26.37-18.03,36.47-1.42,1.84-5.5,4.74-5.97,6.53-1.97-.04-2.81-1.21-3.99-2.51-9.15-10.12-17.2-26.2-20.01-39.49-.13-.6.11-1.38,0-2-2.91-15.71-1.78-34.93,4-50,.11-.29.84-.61,1-1,4.07-9.66,10.91-17.65,17-26,1.97.04,2.81,1.21,3.99,2.51,19.09,21.23,26.8,45.84,22.01,74.49ZM512.99,101.01h-1.99v2.99h1.99v-2.99Z"/>
  <path class="st4" d="M484,153c.11.62-.13,1.4,0,2l-5.01-.51v-1.48s5.01,0,5.01,0Z"/>
  <path class="st4" d="M476.99,153.01c1.09,1.09-.9,3.08-1.99,1.99s.9-3.08,1.99-1.99Z"/>
  <path class="st4" d="M469.99,153.01c.68.35-.59,1.7-1.99.98-.68-.35.59-1.7,1.99-.98Z"/>
  <path class="st10" d="M844.64,117.07c8.78,5.51,8.89,7.61.73,13.86-8.78-5.51-8.89-7.61-.73-13.86Z"/>
  <path class="st10" d="M228.49,73.18c1,0,7.54,5.53,7.54,7.32,0,2.04-5.14,5.86-6.67,7.43l-8.34-7.43c1.39-1.01,6.64-7.32,7.47-7.32Z"/>
  <polygon class="st10" points="935.5 169.02 944.98 178.5 934.64 187.93 926.07 178.64 935.5 169.02"/>
  <path class="st10" d="M227.7,172.11c2.17-.57,8.33,5.6,8.33,7.39,0,1.32-5.82,7.28-6.67,7.43-1.13.2-8.15-6.77-8.29-7.57-.2-1.17,5.57-6.98,6.63-7.26Z"/>
  <path class="st10" d="M130.87,117.14c.16.1.79,2.06,1.57,2.87,2.55,2.65,5.96,4.69,7.62,7.47.01,1.6-9.06,10.55-10.56,10.55-1.14,0-11.65-9.14-11.42-10.4.2-1.1,10.6-11.78,12.8-10.5Z"/>
  <path class="st10" d="M730.14,78.87c-1.65-2.87,8.64-10.58,10.5-12.8,1.28-.22,11.43,9.9,11.42,11.44l-10.7,10.41-11.22-9.06Z"/>
  <path class="st10" d="M836.5,217.02c2.7,4.26,14.3,10.06,10.06,15.05l-10.06,8.97c-1.86-.01-10.54-9.24-11.54-11.54,0-2.37,9.67-9.92,11.54-12.48Z"/>
  <path class="st0" d="M495,207c-8.36,6.88-21.33,11.47-32,13l-1.01-14.01,33.01,1.01Z"/>
  <path class="st0" d="M460,103v50h-38c-.13,2.34-.34,1.77,1.48,2,11.41,1.46,24.96-1.55,36.52,0v49h-50v-49c0-.4,7.65.72,8.01-.51.86-3.01-8.01-.86-8.01-1.49v-48.5c0-.11,1.39-1.5,1.5-1.5h48.5Z"/>
  <path class="st15" d="M562.99,562c-1.85-.82-6.82-10.2-5.98-10.99,8.42-1.41,5.66,5.2,5.98,10.99Z"/>
  <path class="st9" d="M180,553c.89.3,2.35.74,3,1l1,1c1.05.44,2.08.63,3,1l1,1c1.02.4,1.98.66,3,1,1.94.66,3.61,1.84,6,2,.89.06,2.17.13,3,0l2,1c.21.24,1.68-.24,2,0,1.31.96,5.63,3.65,6,4,1.21,1.16,1.36,2.8,2,4l1,5c-.95,1.63-5.4,6.25-7,7-2.36,1.11-6.29.48-8,3-1.62.13-3.47-.22-5,0-2.62.38-2.76,1.46-4,2-2.07.9-10.96,6.09-12,5-.15-1.76.66-5.47-.94-6.56-.55-.38-10.48-2.1-13.02-2.98-3.33-1.15-10.01-5.49-12.52-5.54-3.19-.06-8.15,4.27-11.23,5.88-1.47.77-1.05,1.57-2.28.2v-4c.24-4.61,0-9.37,0-14v-2c.16-.01.97-.88,2-1,.32.98,1.15.91,2,1,.33.04.67-.01,1,0,.06,3.35,5.81,6.11,8.52,6.08,1.19-.02,9.86-3.66,9.48-6.08.97-.03,2.12.15,3,0l1-1c.55-.17,1.48.18,2,0l3-1c1.31-.03,2.72.14,4,0,5.83-.62,3.8-3.04,4-8,.32,0,.7-.06,1,0,.23.05,1.22.74,2,1Z"/>
  <path class="st4" d="M153,599c-.2-.23-4.34-.82-5.99-1.52-17.95-7.68-32.3-24.21-16.04-42.01,16.81-18.39,50.79-17.69,72.98-11.43.23,1.3-.03,2.64.05,3.95-14.61-5.96-33.75-6.84-49-3-.99.25-1.57.87-2,1-7,2.16-11.49,4.07-17,9-2.19,1.96-5.52,3.39-5,7-1.92.31-2.05.3-3,2-1.4,2.51-1.4,8.55-.94,11.44.99,6.17,7.52,12.23,12.62,15.38,2.86,1.77,12.68,4.86,13.16,5.39.63.68-.06,2.33.16,2.79Z"/>
  <path class="st6" d="M206,581v12.99c-1.24,1.62-1.82-.02-2-1.48-.38-2.96.28-6.47,0-9.51-1.91-.47-3.03,1.63-4.67,1.79-.77.08-1.25-.8-1.33-.79,1.71-2.52,5.64-1.89,8-3Z"/>
  <path class="st6" d="M204,548c.51.21,1.9-.61,2.05.6l-.05,13.4h15.5c.17,0,1.57,1.35,1.5,1.99-4.11.56-9.61-1.22-13,1.01-.37-.35-4.69-3.04-6-4-.17-4.31.24-8.7,0-13Z"/>
  <path class="st6" d="M153,599c.13.27,1.6.45,1.99,2.47.43,2.29-.22,5.13,0,7.52-3.01,3.95-1.64-9.58-1.99-10Z"/>
  <path class="st6" d="M131,562c1.8-.29,4.08.17,6,0v2h-9c.95-1.7,1.08-1.69,3-2Z"/>
  <path class="st6" d="M193,584c.57,2.28-1.53,2.6-3.39,2.83l-.61-.83c1.24-.54,1.38-1.62,4-2Z"/>
  <path class="st6" d="M213,574l-1-5c.84,1.57,3.47.8,1,5Z"/>
  <path class="st6" d="M137,582c-2.32-2.57-.06-2.84,0-4v4Z"/>
  <path class="st0" d="M377,625c-.93,1.06-10.7-7.35-14.26-6.83-2.14.31-8.73,4.69-12.21,5.86-2.46.83-12.98,2.54-13.43,3.07-1.02,1.19,1.5,7.79-1.57,6.88-3.53-1.05-8.58-5.21-12.51-6.49-6.67-2.19-22.84-2.94-22.11-13.99.61-9.3,16.42-10.51,22.39-12.7,3.74-1.37,8.55-5.67,12.24-6.77,3.1-.92.65,7.2,1.46,7.98.39.38,8.06.94,10.77,1.73,2.5.73,5.04,1.6,7.47,2.53,2.12.81,4.13,3.08,6.52,3.54,5.8,1.13,9.94-5.19,15.25-6.81v22ZM317.73,611.16c-7.33,1.13-6.74,13.73,3.57,10.64,5.25-1.58,2.87-11.63-3.57-10.64Z"/>
  <path class="st4" d="M307,577c-.3.67.15,1.6-.98,2.48-1.65,1.28-8.87,2.9-11.69,4.35-11.84,6.07-23.64,15.76-24.39,30.13-.96.25-1.97-.03-2.94.05.8-18.68,22.83-34.33,40-37Z"/>
  <path class="st4" d="M267,615c.97.08,1.98-.2,2.94.05.42,10.68,5.58,16.74,13.05,23.46,1.4,1.26,9.18,5.08,7.01,7.48-.75.82-8.43-5.14-9.46-6.03-7.29-6.24-13.33-14.98-13.53-24.97Z"/>
  <path class="st9" d="M220,500c4.61,1.18,7.94,3.83,12,6l7.99,14.99c1-4.16,4.99-13.3,8.01-15.99,1.98-1.76,9.2-4.39,12-5,1.32-.29,7.51-1.5,8-1,.43,6.54-4.31,11.5-7,17-1.85.25-2.3-.79-2,2-5.14.6-10.68,4.96-18.55,5.04-15.58.16-27.64-8.03-29.44-24.03.62-.58,7.55.62,9,.99Z"/>
  <path class="st7" d="M227,492c1.23.87,2.74,4.39,5,5-.57,2.36.4,6.35,0,9-4.06-2.17-7.39-4.82-12-6,.02-2.03-1.12-3.97-1-6,.03-.51,1.71-2.52,1.01-4,.73-.76,6.07,1.35,6.99,2Z"/>
  <path class="st10" d="M244,491c.39.6,2.9,4.71,3,5,.58,1.72-.07,6.64,1,9-3.02,2.69-7.01,11.83-8.01,15.99l-7.99-14.99c.4-2.65-.57-6.64,0-9,.08-.33,2.61-5.31,3-6,.37-.65,3.21-5.01,3.51-5.01,1.95,0,4.5,3.52,5.49,5.01Z"/>
  <path class="st3" d="M235,491c-.39.69-2.92,5.67-3,6-2.26-.61-3.77-4.13-5-5l8-1Z"/>
  <path class="st5" d="M252,492c-.28.2-1.68,4.46-5,4-.1-.29-2.61-4.4-3-5l8,1Z"/>
  <rect class="st0" x="511.01" y="101.01" width="1.99" height="2.99"/>
  <path class="st6" d="M155,545v17.01c1.66-.03,3.34.05,5,0,.38,2.42-8.29,6.06-9.48,6.08-2.71.04-8.46-2.73-8.52-6.08,1.32.06,2.68.04,4,0,2.33-.07,4.68.06,7.01,0v-16.01c.42-.13,1-.75,1.99-1Z"/>
  <path class="st15" d="M146,562c-1.32.04-2.68.06-4,0-.33-.01-.67.04-1,0-.1-.96-1.22-1.09-2-1-1.03.12-1.84.99-2,1-1.92.17-4.2-.29-6,0-.52-3.61,2.81-5.04,5-7,2.17,3.58,9.41.89,10,7Z"/>
  <path class="st6" d="M177,552c-.2,4.96,1.83,7.38-4,8l.03-1.33c3.16-1.18,1.81-3.74,1.98-6.67.66,0,1.33,0,1.99,0Z"/>
  <path class="st6" d="M191,558c1.01-1.72,6.99-.58,6,2-2.39-.16-4.06-1.34-6-2Z"/>
  <path class="st6" d="M169,560l-3,1c1.08-.37-.77-.9,3-1Z"/>
  <path class="st6" d="M200,560c.11-.02,1.34-1.63,1.99-.99.23.22-.22,1.73,0,1.99l-2-1Z"/>
  <path class="st6" d="M178,552l.51-.99c1.85-.35,1.59.29,1.49,1.99-.78-.26-1.77-.95-2-1Z"/>
  <path class="st6" d="M141,562c-.85-.09-1.68-.02-2-1,.78-.09,1.9.04,2,1Z"/>
  <path class="st6" d="M163,562c.07-.01.21-.76,1-1l-1,1Z"/>
  <path class="st6" d="M188,557l-1-1c.52.21.82.93,1,1Z"/>
  <path class="st6" d="M184,555l-1-1c.64.26.91.96,1,1Z"/>
  <path class="st8" d="M153,546v16.01c-2.32.05-4.67-.08-7,0-.59-6.11-7.83-3.42-10-7,5.51-4.93,10-6.84,17-9Z"/>
  <path class="st9" d="M317.73,611.16c6.45-1,8.83,9.06,3.57,10.64-10.31,3.1-10.9-9.5-3.57-10.64Z"/>
</svg>