<?xml version="1.0" encoding="UTF-8"?>
<svg id="Layer_1" xmlns="http://www.w3.org/2000/svg" version="1.1" viewBox="0 0 1024 1024">
  <!-- Generator: Adobe Illustrator 29.8.4, SVG Export Plug-In . SVG Version: 2.1.1 Build 6)  -->
  <defs>
    <style>
      .st0 {
        fill: #627a66;
      }

      .st1 {
        fill: #96b282;
      }

      .st2 {
        fill: #8cad91;
      }

      .st3 {
        fill: #c69788;
      }

      .st4 {
        fill: #908373;
      }

      .st5 {
        fill: #dacab2;
      }

      .st6 {
        fill: #7b9d80;
      }

      .st7 {
        fill: #ccdbe2;
      }

      .st8 {
        fill: #f0e8d1;
      }

      .st9 {
        fill: #b17d6e;
      }

      .st10 {
        fill: #a8c595;
      }

      .st11 {
        fill: #b6aa9a;
      }

      .st12 {
        fill: #a39686;
      }

      .st13 {
        fill: #7891ab;
      }

      .st14 {
        fill: #dbe4eb;
      }

      .st15 {
        fill: #879fba;
      }
    </style>
  </defs>
  <path class="st7" d="M.5,382V0h1023.5v224l-121.8,30.14c1.37,19.39.32,37.95-8.14,55.85l129.94,31.01v251l-32.97-135.99-33.99,148.99h25.99v23c-15.29.22-30.68.07-45.98,0v-15h19.99l-26.48-108.01-25.5,108.01h19.99v14c-17.98-.08-36,.04-53.97,0-1.55-24.66-3.12-49.37-5-74-1.86-24.31-4.13-48.68-6-73s-4.08-49.37-6-74c-1.89-24.29-2.93-48.72-5-73,3.64-.05,7.31.1,10.94-.05.42-3.16,2.48-14.87.11-16.51-1.41-.98-7.71-.39-10.06-.44-1.7-6.16-.1-11.31,0-17,1.65.35,3.23,1.17,4.99,1l.02-33.42c-.15-.97-3.99-.7-5.02-.58-.33.04-.68-.06-1,0l1-18c3.27-.07,6.59.23,9.85-.14,2.09-4.98.82-10.6,1.15-15.86l-98.96-1v17c3.65.04,7.34-.05,10.99,0v19c-.32-.07-.68.07-1,0-.48-.11-1.61-1.21-2.93-1.52-12.26-2.91-24.57-6.46-36.93-8.38-.02.81-1.12,2.05-1.12,2.4v23c0,.71,1.36,5.93,1.7,7.3,1.46,5.95,4.9,11.23,6.3,17.2-1.7.45-9.11,2.34-9.55,2.95-4.09,5.62,10.83,3.93,13.54,4.05l-2.99-6.99c10.6-2.76,21.34-5.41,31.98-8,.31-.08.68.08,1,0-1.35,5.71-.68,10.3,0,16l-2,1c-2.33.06-8.42-.69-9.56.94-.33,3.02-1.75,14.96,1.2,15.92,2.18.71,7.56.09,10.36.14-1.86,24.3-3.12,48.7-5,73s-4.1,49.28-6,74c-1.87,24.33-4.09,48.69-6,73-1.93,24.62-3.55,49.34-5,74-10.96.06-22.02-.48-32.96.52-12.59,13.52-23.66,28.34-35.49,42.5-3.31,3.96-8.42,8.26-11.51,11.99h-43.98c1.16-55.41-36.84-105.32-91.75-115.71-4.36-.82-12.06-2.2-16.2-2.29-4.52-13.31-12.69-26.27-20.77-37.72-5.19-7.36-11.62-16.59-19.21-21.28-1.31-13.35-8.8-29.2-10.01-43-1.95.35-1.63,2.12-2.03,3.46-2.07,6.86-3.43,15.39-4.96,22.54-5.38-3.54-9.77-8.79-15.99-11-3.64-14.65-7.43-29.33-11.01-43.99l-7.46,30.06c.08,1.1-1.4,2.38-1.52,2.93-39.22-17.18-88.2-10.71-120.94,17-.47-.23-2.25.31-3.22-.23-5.56-3.06-8.3-9.82-11.77-14.77.09-3.06-1.17-6.66,2-8,1.48-.07,4.64.9,3.97-1.46l-39.97-65.53c-1.44-.99-6.92,7.39-7.98,8.99-29.98-42.43-81.05-71.44-133.93-69-1.92-7.66-4.32-15.42-6.5-23.01-2.3,7.51-4.64,15.38-6.5,23.01l-15.99,3-2.99-5.99c-.47,2.7-1.35,5.35-2.01,7.99l-18.99,5c-3.47-14.39-6.54-31.91-10.85-45.65-.42-1.33-.35-3.04-2.13-3.35l-12.02,52.49c.1.91,11.24.51,13.01.51L.5,382ZM380.31,97.98v-1.47c-5.33-3.59-9.29-7.96-12.49-13.49-3.52,5.24-7.02,10.06-12.49,13.49-.61,2.03,1.3,1.35,2.47,2.46,3.28,3.12,7.24,6.53,8.54,11.02,2.08,1.43,9.99-12.32,13.97-12.01ZM289.36,99c-1.05-2.22-4.82-2.94-6.99-3.51-31.6-8.26-65.26,7.8-78.15,37.83-22.24,51.8,24.46,106.96,79.15,92.19,2.87-.78,7.46-1.81,8.99-4.5-19.88,2.66-38.06-.77-53.44-14.04-32.47-28.01-26.74-81.92,11.44-101.49,3.46-1.77,15.23-6.48,18.51-6.48h20.49ZM295.35,101c-1.03-.45-4.46-4.09-4.99-1.01l1.99,1.01c-81.59,18.45-53.44,117,11.41,108.92,13.8-1.72,22.03-18.26,25.6-30.39,8.96-30.4-4.66-65.69-34.02-78.53ZM426.28,131c-1.44-1.08-7.98,8.45-9.95,9.57l8.47,9.43,7.01-7.02c7.2-2.59-6.22-6.1-5.53-11.97ZM896.04,154.01c-1.59-.36-2.05.56-3.02,1.46-1.21,1.12-9.99,11.25-9.99,12.04,1.52,1.92,10.63,13.13,11.54,13.49,1.56.62,5.55-8.23,7.96-9.02l4.53-3.5c.51-2.06-11.41-10.44-11.01-14.46ZM721.15,253l-36.98-8v76l43.98-11.01c-8.08-18.57-9.86-35.99-7-55.99l10.93,1.93c9.94-56.58,74.37-84.65,123.01-53.93v28h1v-26c5.58,2.49,10.96,7.93,15.02,12.47,10.06,11.26,16.45,24.54,19.03,39.45l10.9-1.97c-9.79-54.2-62.2-87.02-115.68-72.21-31.8,8.81-58.92,38.5-64.21,71.26ZM923.55,195.02c-1.28,1.64-8.63,9.17-8.43,10.35.1.6,7.32,8.71,8.44,8.7l8.41-9.43-8.42-9.62ZM540.73,340h69.97c.21,0,1.89-1.52,3.23-1.77,22.96-4.25,45.27-11.84,68.19-16.28l-.06-77.86-141.33-34.12v130.02ZM294.85,220v1c.65-.33.65-.67,0-1ZM131.41,229.01c-.66-.55-1.4-.07-2.06.63-2.17,2.3-3.96,6.87-7.91,7.38v1.45c2.26,2.44,4.73,4.65,7.02,7.05.96,1.01.96,4.19,3.05,1.85,2.31-2.58,3.63-6.88,7.91-8.89.61-2.02-1.29-1.35-2.47-2.46-1.38-1.3-2.77-2.64-4.08-4.01-1.02-1.06-1.33-2.9-1.46-3.01ZM883.07,307l8-24.5v-25.5l-33.3,7.19-1.55,1.44-.13,35.37c8.72,1.1,17.4,3.87,25.99,6l-2,6.99c5.13-.72,14.3,2.89,12.99-4.99-3.48.08-6.7-1.21-10-2.01ZM706.98,339.2c-3.49-2.02-2.38,1.49-3.08,2.48-.82,1.17-6.31,3.9-6.67,5.96,1.08,1.35,6.91,9.34,7.5,9.44,2.25.35,9.16-7.65,9.35-8.71.1-.57-6.6-8.88-7.1-9.17ZM599.21,342h-59.97l1.51,15.01,58.46-15.01ZM730.12,400.99c.29-.24,2.77-5.05,4.05-6.46,1.61-1.76,7.01-5.68,7.03-7.02-.72-2.99-4.02-3.67-6.06-6.01-1.43-1.65-4.22-7.93-6.4-7.46l-11.63,13.46c0,2.18,4.75,4.5,6.56,6.48,1.62,1.77,3.09,5.01,4.39,6.38.66.69,1.38,1.19,2.06.63Z"/>
  <path class="st15" d="M154.42,759l-6.99,13.99h57.97c2.15-.7.47-11.33,1-14h2.99c1,.94-2.15,9.7,2,9.01.08,1.66-.07,3.35,0,5.01l48.98-.02-8-13.99h297.86c-6.84,16.56-21.51,31.76-28.84,47.69-.52,1.12-1.1,1.99-1.15,3.31-.16,3.98,3.53,7.76,7.45,8.07,5.14.4,17.43-1.22,22.74-2.37,3.82-.82,10.34-2.64,12.79-5.7h3c-.02,2.09-1.16,2.78-2.65,3.84-8.58,6.12-25.99,6.33-36.32,7.16-.51.46,1.9,4.59,2.2,4.77,4.35,2.58,37.67-2.87,44.4-4.65,6.68-1.77,16.96-4.7,20.36-11.13h3c-3.73,8.5-12.73,11.18-20.99,13.5-13.98,3.92-29.43,5.67-43.97,5.51-.52.46,2.92,5.61,3.2,5.78,1.08.63,12.79.33,15.27.21,17.96-.86,62.41-7.05,74.87-20.09,1.24-1.3,2.29-3.11,2.6-4.9h3c-1.53,8.12-9.5,12.08-16.32,15.17-23.11,10.49-50.76,11.12-75.63,13.83l11.93,18.29c2.58,2.53,16.33,1.84,20.59,1.75,2.12-.05,4.12-1.02,5.97-1.03,18.62-.14,36.96,1.94,55.46,0l-68.97,64.99h148.43l107.18-63.77c47.17-.46,94.75-.19,141.66-.18,20.84,0,41.69-.09,62.51-.04v125c-16.13-1.88-32.32-4.37-48.49-5.99-146.63-14.69-294.79-11.35-441.79-22-110.59-8.01-218.35-31.39-328.82-38.02-30.14-1.81-60.75-3.56-90.92-4.03-37.91-.59-75.59,1.71-113.49,2.04v-158l153.93,1ZM135.43,781c1.57,4.49,4.76,9.13,7.37,13.13,3.18,4.87,10.36,16.68,13.77,20.22.85.89,1.47,1.9,2.79,2.21l85.58.5,3.99-1.01,29.95-32.04c1.34-.9-.55-3.01-1.02-3.01h-142.43Z"/>
  <path class="st3" d="M1024,984v40h-20.99c.57-3.15-1.55-1.71-3.43-2.02-10.21-1.68-21.69-2.9-32.06-3.97-176.49-18.2-354.88-9.33-530.59-32.15-46.5-6.04-92.72-14.71-139.22-20.71-98.49-12.71-198.07-15.97-297.21-11.14v-38c37.9-.33,75.57-2.64,113.49-2.04,30.17.47,60.78,2.22,90.92,4.03,110.47,6.63,218.22,30.01,328.82,38.02,146.99,10.65,295.16,7.32,441.79,22,16.16,1.62,32.36,4.11,48.49,5.99Z"/>
  <path class="st9" d="M.5,954c99.15-4.83,198.72-1.57,297.21,11.14,46.5,6,92.72,14.67,139.22,20.71,175.71,22.82,354.1,13.95,530.59,32.15,10.37,1.07,21.85,2.3,32.06,3.97,1.88.31,4-1.13,3.43,2.02H.5v-70Z"/>
  <path class="st12" d="M751.13,627c15.04-.08,31.38.04,46.98,0,8.98-.02,18.01,0,26.99,0,15.31,0,30.67-.04,45.98,0,17.98.04,36-.08,53.97,0,2.92.01,7.92.98,11.99,1,15.3.07,30.69.22,45.98,0,5.69-.08,11.71-.83,16.99-1,7.97-.25,16.02.18,23.99,0v18l-127.94,26.5c-15.7,13.41-29.54,29.21-44.52,43.53l54.51,94.97h-221.89c1.74-4.81,4.87-9.57,7.58-13.92,10.2-16.33,21.62-37.35,32.57-52.42.84-1.16,1.57-2.4,2.88-3.12l106.11-20.83,14.78-3.7c-67.62.13-135.28-.21-202.9-.01,6.63-10.51,15.49-19.52,23.41-29.08,1.32-1.6,1.99-4.21,2.58-4.92,3.09-3.73,8.2-8.02,11.51-11.99,11.83-14.16,22.9-28.98,35.49-42.5,10.94-1,22-.46,32.96-.52Z"/>
  <path class="st1" d="M93.45,604l-11.99,56h36.98c-4.15-18.69-8.49-37.4-12.99-56,51.33,1.13,90.78,37.53,139.73,46.7,33.93,6.36,62.29,1.56,95.67.31,44.51-1.67,78.77,14.01,108.95,45.98,5.01,5.31,12.12,13.27,14.48,20.01-79.61.19-159.27-.14-238.88,0-4.31-6.75-8.95-13.39-13.5-20-.93,6.23-.46,12.7-.5,19h-6c-.02-11.97.43-24.06-.5-36-8.24,12.6-16.51,25.25-24.49,38l-179.91-1v-87c10.81-3.97,20.29-12.26,31.98-14-.76,3.3-2.06,6.53-2,10h48.98c-1.2-7.1-3.37-14.01-5-21l18.99-1Z"/>
  <path class="st13" d="M684.16,810h339.84v49c-20.82-.05-41.67.05-62.51.04-46.92,0-94.49-.28-141.66.18l-107.18,63.77h-148.43l68.97-64.99c-18.5,1.94-36.85-.14-55.46,0-1.85.01-3.84.98-5.97,1.03-4.26.1-18.01.78-20.59-1.75l-11.93-18.29c24.87-2.72,52.53-3.34,75.63-13.83,6.82-3.1,14.79-7.05,16.32-15.17h52.97Z"/>
  <path class="st4" d="M1024,645v165h-117.94l-54.51-94.97c14.98-14.32,28.82-30.12,44.52-43.53l127.94-26.5Z"/>
  <path class="st6" d="M203.4,484c-21.65-.09-43.38-.31-65.02.45-12.54,10.69-22.56,24.15-33.92,36.07-1,2.35,3.85,1.45,4.99,1.49v44c-14.36.07-28.66,2.44-42.98,3-3.66-15.31-8.23-30.57-11.49-46l-13.5,53c-6.3,2.18-12.89,4.33-18.99,7v-12h16.49c.19,0,3.53-1.22,3.53-1.54l-25.02-106.46-1.98,1.5c-2.33,20.94-12.55,44.15-15.01,64.51v-111c43.81-20.21,97.72-21.62,140.6,1.83,26.52,14.5,47.58,38.07,62.3,64.17Z"/>
  <path class="st2" d="M101.45,333c-2.39,9.84-4.33,20-6,30h25.99c-2.97-9.82-4.51-20.08-7-30,52.89-2.44,103.96,26.57,133.93,69-11.75,17.8-21.27,37.33-33.78,54.71l-.21,3.29c1.99.07,4.01-.07,6,0v24c-5.65-.06-11.34.02-16.99,0-14.72-26.1-35.78-49.67-62.3-64.17-42.89-23.45-96.79-22.04-140.6-1.83v-36l48.98-35c4.32,0,8.67,0,12.99,0,0-1.41-.67-2.66-1-3.99l18.99-5c-3.74,14.86-6.92,29.98-10,45h25.99c-3.3-15.72-8.8-31.1-10.99-47l15.99-3Z"/>
  <path class="st14" d="M1024,224v117l-129.94-31.01c8.46-17.89,9.51-36.46,8.14-55.85l121.8-30.14Z"/>
  <path class="st13" d="M180.41,718c-8.55,13.67-16.09,28.26-25.99,41l-153.93-1v-18l131.02-1.63-1.75-5.41-129.27.04v-16l179.91,1Z"/>
  <path class="st0" d="M1024,592v13h-23.99s0,22,0,22c-5.28.17-11.31.92-16.99,1v-23h-25.99l33.99-148.99,32.97,135.99Z"/>
  <path class="st0" d="M.5,529c2.46-20.36,12.68-43.57,15.01-64.51l1.98-1.5,25.02,106.46c0,.32-3.33,1.54-3.53,1.54h-16.49v12c-3.35,1.47-7.85,3.38-10.99,5-2.46-2.34-.05-16.06-.99-17.01H.5c1.16-13.25-1.56-29.07,0-41.99Z"/>
  <path class="st10" d="M41.48,576c-2.37,13.46-5.94,26.7-9,40-11.7,1.74-21.18,10.03-31.98,14v-36c4.07-.81,7.48-4.18,10.99-6,3.14-1.62,7.64-3.53,10.99-5,6.1-2.67,12.69-4.82,18.99-7Z"/>
  <polygon class="st15" points=".5 733 129.77 732.96 131.51 738.37 .5 740 .5 733"/>
  <path class="st7" d="M1024,605v22c-7.97.18-16.02-.25-23.99,0v-22.01s23.99,0,23.99,0Z"/>
  <path class="st6" d="M.5,571h10c.94.94-1.46,14.66.99,17-3.52,1.82-6.93,5.19-10.99,6v-23Z"/>
  <path class="st6" d="M305.35,483c.12.06-.4,1.54,1.23,2.31,13.15,6.29,34,.93,48.21.65,53.91-1.07,102.46,34.54,121.48,84.04-.12.04-.66,1.35-1.72,1.75-18.85,7.1-35.81,19.45-48.26,35.24,12.42-3.14,24.43-7.72,36.97-10.5,21.79-4.83,41.08-6.56,62.98-.98,39.72,10.11,69.41,45.7,72.97,86.5-36.02,0-73.68-1.42-109.49,0-1.93.08-4.01-1.03-3.45,2-20.9-30.74-54.47-60.65-91.96-68l-.44-55.06-25.78-33.73c-.54-.49-1.26-.11-1.76-.21-5.18-1.05-8.71.12-13.51.08-11.28-.09-22.49-.25-33.93-.04-9.5.17-19.04-.21-28.53-.04.44-19.63-.59-39.38,0-59,3.46,4.95,6.21,11.72,11.77,14.77.98.54,2.75,0,3.22.23Z"/>
  <path class="st13" d="M599.21,682h71.97c-.59.71-1.26,3.32-2.58,4.92-7.91,9.56-16.77,18.58-23.41,29.08-22.31.07-44.68-.46-66.97.49l-27.98,42.51H252.37c-10.35-13.01-18.07-28.02-26.99-42,79.61-.14,159.27.19,238.88,0,13.31-.03,26.66.03,39.98,0,1.4-1.26-16.08-30.19-17.99-32.99-.56-3.03,1.53-1.92,3.45-2,35.81-1.42,73.48,0,109.49,0ZM514.25,743c-3.75-10.83-14.29-6.85-23.53-6.96-22.67-.26-46.07-1.08-68.88-1.09-17.93,0-45.42-2.22-62.06,0-6.65.89-4.6,8.05-2.95,8.05h157.42ZM524.24,742.99c-1.11-7.97-10.69-.38-7.49.01h7.49Z"/>
  <path class="st14" d="M540.73,340v-130.02s141.33,34.12,141.33,34.12l.06,77.86c-22.92,4.44-45.23,12.02-68.19,16.28-1.34.25-3.03,1.77-3.23,1.77h-69.97Z"/>
  <path class="st14" d="M295.35,101c29.35,12.85,42.98,48.14,34.02,78.53-3.58,12.13-11.8,28.67-25.6,30.39-64.85,8.09-93-90.47-11.41-108.92.85-.19,2.06.13,3,0Z"/>
  <path class="st5" d="M866.08,553c1.88,24.63,3.45,49.34,5,74-15.31-.04-30.67,0-45.98,0-1.28-14.36,1.69-31.55.05-45.55-.12-1.01-.46-3.45-1.55-3.45h-25.49v49c-15.59.04-31.94-.08-46.98,0,1.45-24.66,3.07-49.38,5-74h109.95Z"/>
  <path class="st8" d="M860.08,480c1.86,24.32,4.14,48.69,6,73h-109.95c1.9-24.31,4.12-48.67,6-73h97.95ZM819.1,501h-15.99v32h15.99v-32Z"/>
  <path class="st2" d="M426.29,466c-1.57,6.87-2.39,14.11-3.99,20.99,1.68.3,9.6-.4,10,0,.36.36-.27,6.53-.01,8.01h6.01c.26-1.48-.37-7.65-.01-8.01.4-.4,8.32.3,10,0-.56-3.3-1.19-6.76-2-9.99,6.22,2.21,10.61,7.46,15.99,11-.66,3.07-5.18,19.81-4,21,8-.11,8.78-1.77,8,7h5.01c-.78-8.78,0-7.11,8-7-.07-1.32.12-2.69,0-4,7.59,4.68,14.02,13.92,19.21,21.28,8.08,11.45,16.25,24.41,20.77,37.72-10.28-.24-33.21,2.73-42.98,6-19.02-49.5-67.58-85.11-121.48-84.04-14.21.28-35.05,5.65-48.21-.65-1.62-.78-1.11-2.26-1.23-2.31,32.75-27.71,81.72-34.18,120.94-17Z"/>
  <path class="st8" d="M292.36,460c-3.17,1.34-1.91,4.94-2,8-.59,19.62.44,39.37,0,59l-25.02,31.51c-1.13.99-.69,2.46-.97,3.49s-.89,1.43-1.07,3.38c-1.33,14.43,1.13,30.96.07,45.62-10.51-2.14-20.93-5.3-30.98-9,.79-4.62-.85-9.14-1.04-13.46-1.51-34.15,1.7-68.53.04-102.54-.03-.66.05-1.34,0-2-3.66-.04-7.35.04-11,0v-24c22.56.84,49.49,1.09,71.97,0ZM261.37,477h-11.99v21h11.99v-21ZM261.37,514h-11.99v22h11.99v-22Z"/>
  <path class="st1" d="M519.24,564c4.13.1,11.84,1.47,16.2,2.29,54.91,10.39,92.91,60.3,91.75,115.71h-27.99c-3.56-40.8-33.25-76.38-72.97-86.5-21.9-5.58-41.19-3.85-62.98.98-12.54,2.78-24.55,7.37-36.97,10.5,12.45-15.79,29.41-28.14,48.26-35.24,1.06-.4,1.6-1.71,1.72-1.75,9.77-3.27,32.7-6.24,42.98-6Z"/>
  <path class="st5" d="M854.08,406c1.92,24.63,4.11,49.33,6,74h-97.95c1.9-24.72,4.09-49.34,6-74h85.96ZM819.1,427h-15.99v33h15.99v-33Z"/>
  <path class="st8" d="M849.08,333c2.07,24.28,3.11,48.71,5,73h-85.96c1.88-24.3,3.13-48.7,5-73,25.23.44,50.73.33,75.96,0ZM819.1,354h-15.99v32h15.99v-32Z"/>
  <path class="st0" d="M925.05,627v-14h-19.99l25.5-108.01,26.48,108.01h-19.99v15c-4.08-.02-9.08-.99-11.99-1Z"/>
  <path class="st15" d="M289.36,99h-20.49c-3.28,0-15.05,4.71-18.51,6.48-38.18,19.57-43.92,73.48-11.44,101.49,15.38,13.27,33.57,16.7,53.44,14.04-1.53,2.68-6.11,3.72-8.99,4.5-54.69,14.77-101.39-40.38-79.15-92.19,12.89-30.02,46.54-46.08,78.15-37.83,2.17.57,5.94,1.29,6.99,3.51Z"/>
  <path class="st9" d="M248.38,402c1.06-1.6,6.54-9.98,7.98-8.99l39.97,65.53c.68,2.35-2.48,1.39-3.97,1.46-22.48,1.09-49.4.84-71.97,0-1.99-.07-4.01.07-6,0l.21-3.29c12.51-17.37,22.03-36.91,33.78-54.71Z"/>
  <path class="st15" d="M721.15,253c5.29-32.76,32.4-62.46,64.21-71.26,53.48-14.81,105.89,18.01,115.68,72.21l-10.9,1.97c-2.58-14.91-8.98-28.19-19.03-39.45-4.06-4.54-9.44-9.98-15.02-12.47v26h-1v-28c-48.64-30.72-113.07-2.65-123.01,53.93l-10.93-1.93c.05-.33-.05-.68,0-1Z"/>
  <path class="st8" d="M849.08,266c.32-.06.67.04,1,0-.14,10.98.19,22.02,0,33-3.71-.78-17.5-5.35-19.34-5.07-.57.08-4.84,6.46-7.94,8.28-7.58,4.45-17.11,3.66-24.39-1.02-2.46-1.58-6.42-6.92-6.9-7.04-1.46-.35-15.42,4.13-18.4,4.84-.31.08-.68-.08-1,0v-32c.32.07.68-.07,1,0,2.45.56,16.48,3.97,17.36,3.8,1.39-.27,6.05-6.15,8.3-7.64,6.65-4.39,14.93-4.93,22.22-1.56,3.55,1.64,9.2,8.88,10.72,9.17,2.86.56,13.79-4.13,17.37-4.78Z"/>
  <path class="st14" d="M721.15,253c-.05.32.05.67,0,1-2.86,20-1.08,37.42,7,55.99l-43.98,11.01v-76l36.98,8Z"/>
  <path class="st11" d="M771.12,316c.67-.02,1.33.01,2,0,25.35-.42,51.63-.53,76.96,0,2.35.05,8.64-.55,10.06.44,2.37,1.64.31,13.35-.11,16.51-3.63.16-7.31,0-10.94.05-25.23.33-50.73.44-75.96,0-2.79-.05-8.18.57-10.36-.14-2.95-.96-1.54-12.91-1.2-15.92,1.14-1.63,7.22-.87,9.56-.94Z"/>
  <path class="st11" d="M773.12,248c-3.65-.05-7.34.04-10.99,0v-17l98.96,1c-.33,5.26.94,10.89-1.15,15.86-3.26.37-6.58.07-9.85.14-25.38.56-51.56.37-76.96,0Z"/>
  <path class="st14" d="M772.12,267v32c-10.64,2.59-21.38,5.24-31.98,8-.31.08-.69-.08-1,0-1.4-5.96-4.84-11.24-6.3-17.2-.34-1.38-1.7-6.6-1.7-7.3v-23c0-.35,1.09-1.59,1.12-2.4,12.37,1.92,24.67,5.47,36.93,8.38,1.32.31,2.45,1.41,2.93,1.52Z"/>
  <path class="st14" d="M882.07,307c-8.59-2.13-17.26-4.9-25.99-6l.13-35.37,1.55-1.44,33.3-7.19v25.5l-8,24.5c-.31-.08-.69.08-1,0Z"/>
  <path class="st5" d="M850.08,248l-1,18c-3.58.65-14.51,5.33-17.37,4.78-1.52-.3-7.18-7.53-10.72-9.17-7.29-3.37-15.57-2.82-22.22,1.56-2.25,1.48-6.91,7.36-8.3,7.64-.87.17-14.91-3.24-17.36-3.8v-19c25.4.37,51.58.56,76.96,0Z"/>
  <path class="st5" d="M773.12,299c2.98-.72,16.94-5.2,18.4-4.84.48.12,4.44,5.46,6.9,7.04,7.28,4.67,16.81,5.46,24.39,1.02,3.1-1.82,7.37-8.19,7.94-8.28,1.84-.27,15.63,4.29,19.34,5.07-.1,5.69-1.7,10.84,0,17-25.33-.53-51.62-.42-76.96,0v-1c-.68-5.7-1.35-10.29,0-16Z"/>
  <path class="st0" d="M446.28,477c.8,3.24,1.44,6.69,2,9.99-1.68.3-9.6-.4-10,0-.36.36.27,6.53.01,8.01h-6.01c-.26-1.48.37-7.65.01-8.01-.4-.4-8.32.3-10,0,1.61-6.88,2.43-14.13,3.99-20.99.13-.55,1.6-1.83,1.52-2.93l7.46-30.06c3.58,14.67,7.37,29.34,11.01,43.99Z"/>
  <path class="st0" d="M114.44,333c2.49,9.92,4.03,20.18,7,30h-25.99c1.67-10,3.61-20.16,6-30,1.85-7.63,4.19-15.5,6.5-23.01,2.17,7.59,4.57,15.35,6.5,23.01Z"/>
  <path class="st0" d="M61.47,343c.32,1.33,1,2.59,1,3.99-4.32,0-8.67.01-12.99,0-1.76,0-12.91.4-13.01-.51l12.02-52.49c1.79.31,1.72,2.02,2.13,3.35,4.31,13.74,7.38,31.26,10.85,45.65Z"/>
  <path class="st0" d="M85.46,336c2.19,15.9,7.7,31.28,10.99,47h-25.99c3.08-15.02,6.25-30.14,10-45,.67-2.64,1.54-5.29,2.01-7.99l2.99,5.99Z"/>
  <path class="st0" d="M479.26,505c.13,1.31-.07,2.69,0,4-8-.11-8.78-1.77-8,7h-5.01c.78-8.78,0-7.11-8-7-1.17-1.2,3.34-17.93,4-21,1.53-7.15,2.89-15.68,4.96-22.54.4-1.34.08-3.11,2.03-3.46,1.21,13.8,8.7,29.65,10.01,43Z"/>
  <polygon class="st14" points="599.21 342 540.75 357.01 539.24 342 599.21 342"/>
  <path class="st8" d="M896.04,154.01c-.4,4.03,11.53,12.4,11.01,14.46l-4.53,3.5c-2.41.78-6.39,9.64-7.96,9.02-.92-.36-10.02-11.57-11.54-13.49,0-.78,8.78-10.91,9.99-12.04.97-.9,1.43-1.82,3.02-1.46Z"/>
  <path class="st8" d="M730.12,400.99c-.68.56-1.4.06-2.06-.63-1.3-1.37-2.77-4.61-4.39-6.38-1.81-1.98-6.56-4.29-6.56-6.48l11.63-13.46c2.18-.47,4.97,5.81,6.4,7.46,2.04,2.34,5.34,3.02,6.06,6.01-.02,1.34-5.42,5.26-7.03,7.02-1.29,1.4-3.76,6.22-4.05,6.46Z"/>
  <path class="st15" d="M380.31,97.98c-3.98-.3-11.89,13.44-13.97,12.01-1.29-4.49-5.26-7.9-8.54-11.02-1.17-1.12-3.08-.44-2.47-2.46,5.46-3.43,8.97-8.25,12.49-13.49,3.2,5.53,7.16,9.9,12.49,13.49v1.47Z"/>
  <path class="st8" d="M923.55,195.02l8.42,9.62-8.41,9.43c-1.12.01-8.33-8.1-8.44-8.7-.2-1.17,7.15-8.71,8.43-10.35Z"/>
  <path class="st8" d="M706.98,339.2c.5.29,7.21,8.6,7.1,9.17-.19,1.05-7.1,9.06-9.35,8.71-.6-.09-6.43-8.09-7.5-9.44.36-2.05,5.85-4.79,6.67-5.96.7-.99-.41-4.51,3.08-2.48Z"/>
  <path class="st14" d="M850.08,266c1.03-.13,4.86-.39,5.02.58l-.02,33.42c-1.76.17-3.34-.65-4.99-1,.19-10.98-.14-22.02,0-33Z"/>
  <path class="st15" d="M426.28,131c-.69,5.87,12.73,9.38,5.53,11.97l-7.01,7.02-8.47-9.43c1.97-1.11,8.51-10.65,9.95-9.57Z"/>
  <path class="st15" d="M131.41,229.01c.13.11.44,1.95,1.46,3.01,1.31,1.37,2.7,2.71,4.08,4.01,1.18,1.11,3.07.44,2.47,2.46-4.28,2.01-5.59,6.31-7.91,8.89-2.1,2.34-2.09-.84-3.05-1.85-2.29-2.4-4.75-4.62-7-7.05v-1.45c3.93-.51,5.72-5.08,7.89-7.38.66-.7,1.4-1.18,2.06-.63Z"/>
  <path class="st15" d="M740.14,307l2.99,6.99c-2.71-.12-17.63,1.57-13.54-4.05.44-.61,7.85-2.5,9.55-2.95.31-.08.69.08,1,0Z"/>
  <path class="st15" d="M883.07,307c3.29.8,6.51,2.09,10,2.01,1.31,7.87-7.86,4.26-12.99,4.99l2-6.99c.31.08.69-.08,1,0Z"/>
  <path class="st15" d="M295.35,101c-.94.13-2.15-.19-3,0l-1.99-1.01c.53-3.08,3.96.56,4.99,1.01Z"/>
  <path class="st8" d="M773.12,315v1c-.67.01-1.33-.02-2,0l2-1Z"/>
  <path class="st15" d="M294.85,220c.65.33.65.67,0,1v-1Z"/>
  <path class="st11" d="M645.18,716c67.62-.2,135.28.14,202.9.01l-14.78,3.7-106.11,20.83c-1.31.73-2.03,1.96-2.88,3.12-10.95,15.07-22.37,36.08-32.57,52.42-2.71,4.34-5.84,9.11-7.58,13.92h-163.92c.05-1.32.63-2.18,1.15-3.31,7.33-15.93,22-31.13,28.84-47.69l27.98-42.51c22.3-.95,44.67-.43,66.97-.49Z"/>
  <path class="st3" d="M135.43,781h142.43c.47,0,2.36,2.12,1.02,3.01l-29.95,32.04-3.99,1.01-85.58-.5c-1.31-.31-1.94-1.32-2.79-2.21-3.41-3.54-10.59-15.36-13.77-20.22-2.61-4-5.8-8.64-7.37-13.13Z"/>
  <path class="st8" d="M205.4,716c.04,18.99-.03,38.01,0,57h-57.97s6.99-14,6.99-14c9.89-12.74,17.43-27.33,25.99-41,7.98-12.75,16.25-25.4,24.49-38,.92,11.94.47,24.02.5,36Z"/>
  <path class="st8" d="M225.39,717c8.92,13.98,16.64,28.99,26.99,42l8,13.99-48.98.02c-.06-1.66.08-3.34,0-5.01-.76-16.85-.1-35.02,0-52,.04-6.29-.44-12.76.5-19,4.54,6.6,9.19,13.25,13.5,20Z"/>
  <path class="st13" d="M628.19,810c-.32,1.79-1.37,3.6-2.6,4.9-12.46,13.04-56.91,19.23-74.87,20.09-2.48.12-14.19.43-15.27-.21-.28-.17-3.72-5.32-3.2-5.78,14.54.16,29.98-1.59,43.97-5.51,8.26-2.32,17.26-5,20.99-13.5h30.98Z"/>
  <path class="st13" d="M594.21,810c-3.4,6.43-13.69,9.36-20.36,11.13-6.72,1.78-40.04,7.23-44.4,4.65-.3-.18-2.72-4.31-2.2-4.77,10.33-.83,27.74-1.04,36.32-7.16,1.5-1.07,2.64-1.75,2.65-3.84h27.99Z"/>
  <path class="st13" d="M211.39,716c-.1,16.98-.76,35.15,0,52-4.15.69-1.01-8.06-2-9.01h-2.99c-.53,2.67,1.15,13.3-1,14.01-.03-18.99.04-38.01,0-57h6Z"/>
  <path class="st13" d="M563.22,810c-2.45,3.06-8.98,4.88-12.79,5.7-5.31,1.14-17.59,2.77-22.74,2.37-3.92-.31-7.61-4.09-7.45-8.07h42.98Z"/>
  <path class="st11" d="M825.1,627c-8.98,0-18.01-.02-26.99,0v-49h25.49c1.09,0,1.43,2.44,1.55,3.45,1.64,14.01-1.33,31.19-.05,45.55Z"/>
  <path class="st10" d="M109.44,566c33.07-.17,59.08,8.77,88.96,21,11.37,4.65,22.41,10.74,33.98,15,10.06,3.7,20.47,6.86,30.98,9,27.96,5.68,48.38,3.38,75.96,3,6.65-.09,13.34,0,19.99,0,4.96,0,10.05-.23,14.99,0,6.14.29,14.04.83,19.99,2,37.48,7.35,71.05,37.26,91.96,68,1.91,2.8,19.38,31.74,17.99,32.99-13.31.03-26.66-.03-39.98,0-2.36-6.74-9.47-14.71-14.48-20.01-30.18-31.97-64.44-47.64-108.95-45.98-33.38,1.25-61.74,6.06-95.67-.31-48.94-9.18-88.4-45.57-139.73-46.7-1.76-7.28-4.3-14.46-5.01-22-1.79.31-1.72,2.02-2.13,3.35-1.86,5.89-1.93,12.99-4.85,18.65l-18.99,1c-2.78-11.95-5.14-24.08-8-36,14.32-.56,28.62-2.93,42.98-3Z"/>
  <path class="st0" d="M66.46,569c2.85,11.92,5.21,24.05,8,36,1.63,6.99,3.79,13.9,5,21H30.48c-.07-3.47,1.24-6.7,2-10,3.05-13.3,6.63-26.54,9-40l13.5-53c3.26,15.42,7.83,30.68,11.49,46Z"/>
  <path class="st0" d="M105.45,604c4.5,18.6,8.84,37.31,12.99,56h-36.98l11.99-56c2.92-5.66,3-12.76,4.85-18.65.42-1.33.35-3.04,2.13-3.35.7,7.54,3.25,14.72,5.01,22Z"/>
  <path class="st8" d="M198.4,522v65c-29.87-12.23-55.89-21.17-88.96-21v-44c29.58.95,59.36-.7,88.96,0ZM135.43,535h-10.99v21h10.99v-21ZM159.42,535h-10.99v21h10.99v-21ZM184.41,535h-11.99v21h11.99v-21Z"/>
  <path class="st9" d="M203.4,484c5.65.02,11.34-.06,16.99,0,3.66.04,7.35-.04,11,0,.05.66-.04,1.33,0,2l-32.98,36c-29.59-.7-59.38.95-88.96,0-1.14-.04-5.98.87-4.99-1.49,11.36-11.92,21.38-25.37,33.92-36.07,21.65-.75,43.37-.53,65.02-.45Z"/>
  <path class="st8" d="M366.32,527c.5.1,1.22-.28,1.76.21l25.78,33.73.44,55.06c-5.95-1.17-13.85-1.71-19.99-2v-34h-14.99c1.75,11.4-.59,22.52,0,34-6.65,0-13.35-.09-19.99,0v-52c8.81-11.76,19.25-22.5,26.99-35Z"/>
  <path class="st9" d="M366.32,527c-7.74,12.5-18.17,23.24-26.99,35h-74.96c.28-1.03-.16-2.49.97-3.49l25.02-31.51c9.49-.17,19.03.21,28.53.04,11.44-.21,22.65-.06,33.93.04,4.79.04,8.33-1.13,13.51-.08Z"/>
  <path class="st15" d="M514.25,743h-157.42c-1.65,0-3.69-7.16,2.95-8.05,16.64-2.22,44.13,0,62.06,0,22.81,0,46.21.83,68.88,1.09,9.24.1,19.78-3.87,23.53,6.96Z"/>
  <path class="st15" d="M524.24,742.99h-7.49c-3.2-.38,6.38-7.97,7.49,0Z"/>
  <rect class="st11" x="803.11" y="501" width="15.99" height="32"/>
  <path class="st5" d="M339.33,562v52c-27.58.38-48,2.68-75.96-3,1.06-14.66-1.4-31.19-.07-45.62.18-1.95.79-2.36,1.07-3.38h74.96ZM295.35,577h-13.99v13h13.99v-13ZM322.34,577h-13.99v13h13.99v-13Z"/>
  <path class="st5" d="M232.38,602c-11.57-4.26-22.61-10.35-33.98-15v-65l32.98-36c1.66,34.01-1.55,68.39-.04,102.54.19,4.31,1.83,8.84,1.04,13.46Z"/>
  <rect class="st3" x="249.38" y="514" width="11.99" height="22"/>
  <rect class="st11" x="249.38" y="477" width="11.99" height="21"/>
  <rect class="st11" x="803.11" y="427" width="15.99" height="33"/>
  <rect class="st11" x="803.11" y="354" width="15.99" height="32"/>
  <path class="st3" d="M359.32,614c-.59-11.48,1.75-22.6,0-34h14.99v34c-4.95-.23-10.03,0-14.99,0Z"/>
  <rect class="st11" x="172.41" y="535" width="11.99" height="21"/>
  <rect class="st11" x="148.42" y="535" width="10.99" height="21"/>
  <rect class="st11" x="124.44" y="535" width="10.99" height="21"/>
  <rect class="st11" x="281.36" y="577" width="13.99" height="13"/>
  <rect class="st3" x="308.35" y="577" width="13.99" height="13"/>
</svg>