<svg viewBox="0 0 480 480" xmlns="http://www.w3.org/2000/svg">
<defs>
<linearGradient id="sk" x1="0" y1="0" x2="0" y2="1"><stop offset="0%" stop-color="#2a3858"/><stop offset="55%" stop-color="#3a4870"/><stop offset="100%" stop-color="#485880"/></linearGradient>
<radialGradient id="mn" cx="50%" cy="50%" r="50%"><stop offset="0%" stop-color="#fff" stop-opacity=".95"/><stop offset="70%" stop-color="#f8f0e0" stop-opacity=".9"/><stop offset="100%" stop-color="#e8d8c0" stop-opacity=".7"/></radialGradient>
<linearGradient id="ms" x1="0" y1="0" x2="0" y2="1"><stop offset="0%" stop-color="#fff" stop-opacity="0"/><stop offset="100%" stop-color="#fff" stop-opacity=".4"/></linearGradient>
</defs>
<rect width="480" height="480" fill="url(#sk)"/>
<!-- Moon -->
<circle cx="282" cy="158" r="90" fill="url(#mn)"/>
<circle cx="282" cy="158" r="90" fill="none" stroke="#485880" stroke-width="2" opacity=".28"/>
<circle cx="282" cy="158" r="104" fill="none" stroke="#485880" stroke-width="5" opacity=".22"/>
<!-- Bare trees -->
<g opacity=".22" fill="#2a2840">
<rect x="18" y="198" width="10" height="282"/><rect x="68" y="238" width="7" height="242"/>
<rect x="440" y="178" width="11" height="302"/><rect x="402" y="218" width="8" height="262"/>
</g>
<!-- Branch -->
<rect x="98" y="298" width="284" height="14" rx="7" fill="#3a3060"/>
<path d="M76,298 Q98,291 120,298" stroke="#3a3060" stroke-width="10" fill="none" stroke-linecap="round"/>
<path d="M360,298 Q382,291 404,298" stroke="#3a3060" stroke-width="10" fill="none" stroke-linecap="round"/>
<!-- Owl body -->
<g transform="translate(240,262)">
<ellipse cx="0" cy="10" rx="40" ry="48" fill="#d4c8a8"/>
<!-- Wings -->
<polygon points="-40,10 -54,-14 -30,-20 -28,10" fill="#c8bc98" opacity=".88"/>
<polygon points="40,10 54,-14 30,-20 28,10" fill="#c8bc98" opacity=".88"/>
<!-- Head -->
<circle cx="0" cy="-28" r="30" fill="#d4c8a8"/>
<!-- Ear tufts -->
<polygon points="-11,-56 -20,-44 -4,-40" fill="#c8bc98"/>
<polygon points="11,-56 20,-44 4,-40" fill="#c8bc98"/>
<!-- Eyes -->
<circle cx="-11" cy="-30" r="10" fill="white" opacity=".95"/>
<circle cx="11" cy="-30" r="10" fill="white" opacity=".95"/>
<circle cx="-11" cy="-30" r="6" fill="#4a7898"/>
<circle cx="11" cy="-30" r="6" fill="#4a7898"/>
<circle cx="-10" cy="-31" r="3" fill="#1a1628"/>
<circle cx="10" cy="-31" r="3" fill="#1a1628"/>
<!-- Beak -->
<polygon points="-5,-20 5,-20 0,-13" fill="#d4a040" opacity=".8"/>
<!-- Talons -->
<g stroke="#3a3060" stroke-width="2.5" fill="none" opacity=".55">
<line x1="-40" y1="36" x2="-30" y2="58"/><line x1="-30" y1="58" x2="-22" y2="58"/>
<line x1="-40" y1="36" x2="-50" y2="58"/><line x1="-50" y1="58" x2="-58" y2="58"/>
<line x1="40" y1="36" x2="30" y2="58"/><line x1="30" y1="58" x2="22" y2="58"/>
<line x1="40" y1="36" x2="50" y2="58"/><line x1="50" y1="58" x2="58" y2="58"/>
</g>
</g>
<!-- Diamonds -->
<g opacity=".5">
<rect x="88" y="138" width="10" height="10" fill="#e8a8c8" transform="rotate(45,93,143)"/>
<rect x="376" y="122" width="9" height="9" fill="#e8a8c8" transform="rotate(45,380,126)"/>
<rect x="50" y="200" width="8" height="8" fill="#d4c8a8" transform="rotate(45,54,204)" opacity=".65"/>
</g>
<rect width="480" height="480" fill="url(#ms)" opacity=".24"/>
</svg>
