<svg viewBox="0 0 480 480" xmlns="http://www.w3.org/2000/svg">
<defs>
<linearGradient id="sk" x1="0" y1="0" x2="0" y2="1"><stop offset="0%" stop-color="#e8d4a8"/><stop offset="60%" stop-color="#d8c090"/><stop offset="100%" stop-color="#f0e4c0"/></linearGradient>
<linearGradient id="t1" x1="0" y1="0" x2="1" y2="0"><stop offset="0%" stop-color="#d07040"/><stop offset="100%" stop-color="#b05828"/></linearGradient>
<linearGradient id="t2" x1="0" y1="0" x2="1" y2="0"><stop offset="0%" stop-color="#4878c8"/><stop offset="100%" stop-color="#3668b8"/></linearGradient>
<linearGradient id="ms" x1="0" y1="0" x2="0" y2="1"><stop offset="0%" stop-color="#fff" stop-opacity="0"/><stop offset="100%" stop-color="#fff" stop-opacity=".45"/></linearGradient>
</defs>
<rect width="480" height="480" fill="url(#sk)"/>
<!-- Ground halos -->
<ellipse cx="240" cy="440" rx="200" ry="52" fill="#d8c090" opacity=".28"/>
<ellipse cx="90" cy="430" rx="58" ry="36" fill="#3668b8" opacity=".4"/>
<ellipse cx="392" cy="436" rx="50" ry="32" fill="#4878c8" opacity=".35"/>
<!-- Tower 1 (orange) -->
<rect x="72" y="175" width="66" height="248" fill="url(#t1)"/>
<polygon points="72,175 138,175 124,152 86,152" fill="#b05828"/>
<rect x="90" y="214" width="22" height="32" rx="0 0 11 11" fill="#6a5848" opacity=".85"/>
<g opacity=".36" stroke="#d07040" stroke-width="6" fill="none">
<rect x="80" y="310" width="46" height="46"/>
<line x1="80" y1="333" x2="126" y2="333"/><line x1="103" y1="310" x2="103" y2="356"/>
</g>
<g fill="#b05828" opacity=".65">
<rect x="50" y="360" width="22" height="9"/><rect x="55" y="351" width="20" height="9"/>
<rect x="60" y="342" width="18" height="9"/><rect x="65" y="333" width="16" height="9"/>
</g>
<path d="M72 408 Q105 375 138 408" fill="none" stroke="#d07040" stroke-width="14" stroke-linecap="round"/>
<!-- Tower 2 (blue) -->
<rect x="342" y="195" width="66" height="228" fill="url(#t2)"/>
<polygon points="342,195 408,195 396,172 354,172" fill="#3668b8"/>
<rect x="360" y="234" width="26" height="38" rx="0 0 13 13" fill="#507860" opacity=".85"/>
<g opacity=".34" stroke="#4878c8" stroke-width="5.5" fill="none">
<rect x="350" y="318" width="48" height="48"/>
<line x1="350" y1="342" x2="398" y2="342"/><line x1="374" y1="318" x2="374" y2="366"/>
</g>
<path d="M342 412 Q375 380 408 412" fill="none" stroke="#4878c8" stroke-width="14" stroke-linecap="round"/>
<!-- Bridge connecting towers -->
<rect x="138" y="275" width="204" height="20" rx="2" fill="#c8b890"/>
<path d="M138 275 Q240 232 342 275" fill="none" stroke="#c8b890" stroke-width="11" opacity=".7"/>
<rect x="174" y="295" width="12" height="44" rx="2" fill="#c8b890" opacity=".8"/>
<rect x="294" y="295" width="12" height="44" rx="2" fill="#c8b890" opacity=".8"/>
<rect x="185" y="352" width="110" height="16" rx="2" fill="#c8b890"/>
<!-- Lantern on bridge -->
<g transform="translate(240,268)">
<ellipse cx="0" cy="-15" rx="6" ry="6" fill="#f4ede8"/>
<rect x="-5" y="-9" width="10" height="14" rx="2" fill="#f0e8e0"/>
</g>
<!-- Diamonds -->
<rect x="196" y="145" width="15" height="15" fill="#f0c840" transform="rotate(45,203,152)" opacity=".65"/>
<rect x="400" y="178" width="11" height="11" fill="#e8a820" transform="rotate(45,405,183)" opacity=".55"/>
<rect x="58" y="148" width="10" height="10" fill="#f0c840" transform="rotate(45,63,153)" opacity=".48"/>
<ellipse cx="240" cy="440" rx="240" ry="38" fill="white" opacity=".22"/>
<rect width="480" height="480" fill="url(#ms)" opacity=".28"/>
</svg>
